<svg xmlns="http://www.w3.org/2000/svg" xmlns:xlink="http://www.w3.org/1999/xlink" width="420" height="283.207" viewBox="0 0 420 283.207">
  <defs>
    <clipPath id="clip-path">
      <rect id="Rectángulo_34762" data-name="Rectángulo 34762" width="213.112" height="254.61" fill="none"/>
    </clipPath>
    <clipPath id="clip-path-2">
      <rect id="Rectángulo_34805" data-name="Rectángulo 34805" width="82.087" height="111.622" fill="none"/>
    </clipPath>
    <clipPath id="clip-path-3">
      <path id="Trazado_115728" data-name="Trazado 115728" d="M81.112,0a.957.957,0,0,0-.545.184A204.825,204.825,0,0,0,55.843,21.719a270.909,270.909,0,0,0-21.58,24.827,292.271,292.271,0,0,0-18.646,27.24A214.739,214.739,0,0,0,.432,103.564c-.053.131-.106.278-.151.414A5.865,5.865,0,0,0,0,105.743v.052a5.859,5.859,0,0,0,5.826,5.827h.059a5.856,5.856,0,0,0,5.542-4.065l.029-.091A204.8,204.8,0,0,1,23.7,78.271,284.339,284.339,0,0,1,39.8,50.49a265.487,265.487,0,0,1,19.25-25.829A201.638,201.638,0,0,1,81.747,1.686l.008-.007A.955.955,0,0,0,81.148,0Z" fill="#fedc72"/>
    </clipPath>
  </defs>
  <g id="Grupo_81217" data-name="Grupo 81217" transform="translate(-1000 -398.793)">
    <g id="Grupo_80743" data-name="Grupo 80743" transform="translate(1020 440.305)">
      <ellipse id="Elipse_4784" data-name="Elipse 4784" cx="200" cy="121" rx="200" ry="121" transform="translate(0 -0.305)" fill="#8c6df2" opacity="0.25"/>
    </g>
    <g id="Grupo_80744" data-name="Grupo 80744" transform="translate(1132.863 653.402)">
      <ellipse id="Elipse_4784-2" data-name="Elipse 4784" cx="87.5" cy="6" rx="87.5" ry="6" transform="translate(0.138 -0.402)" fill="#8c6df2" opacity="0.25"/>
    </g>
    <path id="Trazado_115813" data-name="Trazado 115813" d="M394.5,44.517a264.334,264.334,0,0,1-23.822,22.3,194.605,194.605,0,0,1-26.9,18.595A141.339,141.339,0,0,1,313.2,98.547a99.557,99.557,0,0,1-16.87,3.344c-1.454.126-2.908.287-4.383.333-.736.032-1.471.077-2.211.094l-2.227.009c-1.5.014-2.934-.049-4.412-.076-1.459-.09-2.933-.149-4.391-.292-11.723-1.02-23.077-4.294-33.649-8.407-10.605-4.12-20.522-9.092-30.064-13.852-4.767-2.39-9.462-4.715-14.079-6.876-2.312-1.093-4.6-2.116-6.876-3.117-1.135-.479-2.27-.978-3.4-1.433l-3.492-1.417c-9.724-3.935-19.227-7.6-28.584-10.522-4.675-1.464-9.3-2.743-13.855-3.77-2.275-.514-4.53-.968-6.758-1.349s-4.432-.667-6.595-.888c-8.661-.907-16.672-.446-23.326,1.411a42.439,42.439,0,0,0-4.765,1.636c-.759.306-1.493.647-2.216.99l-1.065.538c-.32.182-.641.35-.955.542a33.339,33.339,0,0,0-6.909,5.367c-.511.524-1.01,1.055-1.485,1.611L88.789,64.5c-.638.715-1.208,1.462-1.816,2.177-.586.729-1.121,1.479-1.686,2.2A55.788,55.788,0,0,0,79.9,77.9a49.98,49.98,0,0,0-3.367,9.274A50.507,50.507,0,0,0,75.017,96.8a72.375,72.375,0,0,0,1.842,20.649A108.334,108.334,0,0,0,84.5,139.2a116.678,116.678,0,0,0,5.613,10.574c1.015,1.7,2.067,3.359,3.12,4.922.526.775,1.061,1.524,1.573,2.2.255.337.509.665.736.931a4.509,4.509,0,0,0,.314.348c.04.032.1.1.113.088l.019,0s.023.023-.006-.038l-.111-.252A45.43,45.43,0,0,1,17.179,203.4l-.356-.684-.228-.468-.364-.782-.622-1.4c-.392-.9-.743-1.753-1.085-2.6-.68-1.683-1.3-3.315-1.9-4.934-1.188-3.232-2.264-6.419-3.26-9.615-1.988-6.386-3.644-12.807-5.044-19.328A189.235,189.235,0,0,1,0,123.1,143.229,143.229,0,0,1,6.344,80.65a125.1,125.1,0,0,1,8.481-20.471,116.342,116.342,0,0,1,12-18.458,120,120,0,0,1,14.709-15.5c1.324-1.129,2.634-2.277,3.975-3.362,1.352-1.061,2.688-2.153,4.058-3.163l2.059-1.5c.7-.506,1.322-.966,2.162-1.547,1.58-1.112,3.2-2.164,4.849-3.173A90.9,90.9,0,0,1,79.694,3.977c.92-.288,1.853-.54,2.781-.8.91-.235,1.808-.462,2.714-.677C87,2.086,88.813,1.707,90.63,1.4A96.563,96.563,0,0,1,101.47.158a104.7,104.7,0,0,1,20.786.937,126.273,126.273,0,0,1,18.973,4.274,192.557,192.557,0,0,1,33.019,13.87c10.149,5.318,19.608,11.108,28.71,16.847l3.55,2.249c1.218.772,2.394,1.562,3.586,2.344,2.344,1.579,4.662,3.166,6.9,4.768,4.513,3.2,8.833,6.422,13.1,9.554,8.515,6.274,16.725,12.308,25.188,17.41a100.531,100.531,0,0,0,26.373,11.659c1.148.317,2.307.555,3.467.834l1.749.338.878.171c.291.051.578.08.867.121l1.736.234c.582.067,1.17.107,1.757.164,1.172.13,2.363.153,3.553.218,1.193.038,2.4.035,3.6.031,1.207-.056,2.419-.044,3.634-.154l1.826-.128c.61-.046,1.219-.125,1.829-.187,1.221-.119,2.441-.3,3.663-.489,1.226-.16,2.44-.427,3.666-.636,1.221-.234,2.438-.518,3.66-.78,1.209-.321,2.426-.62,3.636-.959,1.2-.365,2.42-.686,3.617-1.085,2.407-.759,4.788-1.621,7.143-2.569,1.18-.469,2.359-.943,3.521-1.463l1.75-.767,1.725-.823a129.169,129.169,0,0,0,25.937-16.444,126.736,126.736,0,0,0,21.445-22.12,5.376,5.376,0,1,1,8.211,6.916Z" transform="translate(1000 406.35)" fill="#fdb74d"/>
    <g id="Grupo_80742" data-name="Grupo 80742" transform="translate(1114 398.793)">
      <g id="Grupo_80741" data-name="Grupo 80741" transform="translate(0 0)" clip-path="url(#clip-path)">
        <path id="Trazado_115561" data-name="Trazado 115561" d="M213.084,177.523c-.312,8.054-3.946,15.618-8.328,22.23a100.451,100.451,0,0,1-18.317,20.37c-8.021,6.914-17.564,11.15-27.08,15.569a354.192,354.192,0,0,1-48.294,18.236,16.341,16.341,0,0,1-9.134.059c-50.149-14.236-76.041-31.408-89.148-46.939C-5.021,185.953.763,167.878,1.392,164.276c.054-.3.118-.586.188-.876,13.306-56.315,9.161-70.068,8.521-81.906-.581-8.349-4.8-21.618-8.048-30.816A16.379,16.379,0,0,1,6.747,32.855L7.731,32a16.531,16.531,0,0,1,14.258-3.591c9.731,2.032,19.747,1.366,24.085.091C65.019,24.646,89.432,8.587,95.852,4.41S108.061-1.052,112.878.878s25.693,14.774,42.074,22.8c16.209,8.2,28.682,7.231,36.144,5.086a16.292,16.292,0,0,1,15.774,3.989c.075.07.151.145.226.215a16.258,16.258,0,0,1,3.876,17.72c-6.263,15.6-8.747,42.585-8.489,54.568.323,14.779,11.242,55.568,10.6,72.266" transform="translate(0 0)" fill="#8c6df2"/>
        <path id="Trazado_115562" data-name="Trazado 115562" d="M216.635,189.69l-54.614,46.674A5.647,5.647,0,0,0,165.8,246.3h5.55l41.492-36.363a5.837,5.837,0,0,1,7.586,0L261.92,246.3h5.55a5.647,5.647,0,0,0,3.779-9.932Z" transform="translate(-73.994 -87.709)" fill="#5038a1"/>
        <path id="Trazado_115563" data-name="Trazado 115563" d="M293.111,229.767a2.815,2.815,0,0,1-1.838-.68l-3.311-2.829a2.83,2.83,0,0,1,3.676-4.3l3.311,2.831a2.831,2.831,0,0,1-1.838,4.982" transform="translate(-132.69 -102.314)" fill="#fff"/>
        <path id="Trazado_115564" data-name="Trazado 115564" d="M170.511,236.364l50.369-43.046-4.246-3.628L162.02,236.364A5.648,5.648,0,0,0,165.8,246.3h5.55l.6-.53a5.592,5.592,0,0,1-1.442-9.4" transform="translate(-73.994 -87.709)" fill="#12263f"/>
        <path id="Trazado_115565" data-name="Trazado 115565" d="M222.644,226.139,181.086,262.5v45.285a5.661,5.661,0,0,0,5.661,5.661H266a5.661,5.661,0,0,0,5.661-5.661V262.5L230.1,226.139a5.66,5.66,0,0,0-7.455,0" transform="translate(-83.731 -103.915)" fill="#dbe6fd"/>
        <path id="Trazado_115566" data-name="Trazado 115566" d="M222.579,234.63a5.835,5.835,0,0,1,7.586,0l41.492,36.363V262.5L230.1,226.139a5.662,5.662,0,0,0-7.456,0L181.087,262.5v45.285a5.661,5.661,0,0,0,5.661,5.661H266a5.661,5.661,0,0,0,5.661-5.661v-2.831H223.542a33.964,33.964,0,0,1-33.963-33.964v-2.309a11.319,11.319,0,0,1,3.86-8.514Z" transform="translate(-83.732 -103.915)" fill="#bbcff2"/>
        <path id="Trazado_115567" data-name="Trazado 115567" d="M261.244,326.568H249.923a5.661,5.661,0,0,0-5.661,5.661v28.3H266.9v-28.3a5.661,5.661,0,0,0-5.661-5.661" transform="translate(-112.943 -151)" fill="#5038a1"/>
        <path id="Trazado_115568" data-name="Trazado 115568" d="M252.752,372.992a33.889,33.889,0,0,1-8.491-1.114v9.6H266.9v-8.491Z" transform="translate(-112.942 -171.951)" fill="#12263f"/>
        <rect id="Rectángulo_34760" data-name="Rectángulo 34760" width="11.321" height="11.321" transform="translate(108.677 175.569)" fill="#a7d0e1"/>
        <path id="Trazado_115569" data-name="Trazado 115569" d="M202.145,335.988v6.257h3.585a33.886,33.886,0,0,1-3.585-6.257" transform="translate(-93.468 -155.355)" fill="#80bbce"/>
        <rect id="Rectángulo_34761" data-name="Rectángulo 34761" width="11.321" height="11.321" transform="translate(165.283 175.569)" fill="#a7d0e1"/>
        <path id="Trazado_115570" data-name="Trazado 115570" d="M266.508,271.884a8.491,8.491,0,1,1-8.491-8.491,8.491,8.491,0,0,1,8.491,8.491" transform="translate(-115.377 -121.788)" fill="#a7d0e1"/>
        <path id="Trazado_115571" data-name="Trazado 115571" d="M134.778,238.82H44.208V63.34h28.3c11.661,28.851,17.037,58.789,14.241,90.143a33.731,33.731,0,0,0,10.587,27.792c5.712,5.285,9.822,12.964,11.967,23.58C126.2,214.79,133,226.391,134.778,238.82" transform="translate(-20.441 -29.287)" fill="#fedc72"/>
        <path id="Trazado_115572" data-name="Trazado 115572" d="M114.335,238.813H23.768c-4.032-.677-7.494-1.586-10.984-2.484C-5.021,215.233.763,197.158,1.392,193.556c.054-.3.118-.586.188-.876,13.306-56.315,9.161-70.068,8.521-81.906-.581-8.349-4.8-21.618-8.048-30.816a16.377,16.377,0,0,1,2.1-14.967c6.349-1.505,13.354-1.72,19.612-1.656h8.489v87.739a79.252,79.252,0,0,0,79.25,79.25h.71a42.1,42.1,0,0,1,2.118,8.489" transform="translate(0 -29.28)" fill="#fdb74d"/>
        <path id="Trazado_115573" data-name="Trazado 115573" d="M148.508,120.051a11.2,11.2,0,0,0,.538-3.273,11.285,11.285,0,0,0-21.145-5.526,11.277,11.277,0,1,0,2.821,22.358,11.3,11.3,0,1,0,17.786-13.559" transform="translate(-54.521 -48.762)" fill="#fedc72"/>
        <path id="Trazado_115574" data-name="Trazado 115574" d="M149.045,136.134a11.271,11.271,0,0,1-9.833-5.811,11.188,11.188,0,0,1-12.518-13.611,11.234,11.234,0,0,0,4.027,22.1,11.265,11.265,0,0,0,20.848-2.986,11.3,11.3,0,0,1-2.525.305" transform="translate(-54.521 -53.966)" fill="#fdb74d"/>
        <path id="Trazado_115575" data-name="Trazado 115575" d="M190.766,203.445a8.457,8.457,0,0,0-14.992-5.4A8.461,8.461,0,0,0,171,214.262c-.01.17-.051.332-.051.5a8.491,8.491,0,1,0,16.982,0,8.4,8.4,0,0,0-1.132-4.161,8.465,8.465,0,0,0,3.963-7.16" transform="translate(-76.429 -90.143)" fill="#fedc72"/>
        <path id="Trazado_115576" data-name="Trazado 115576" d="M179.445,208.71c0-.173.041-.333.051-.5a8.464,8.464,0,0,1-5.711-7.986A8.47,8.47,0,0,0,171,216.7c-.01.17-.051.331-.051.5a8.491,8.491,0,0,0,16.982,0,8.491,8.491,0,0,1-8.491-8.491" transform="translate(-76.429 -92.578)" fill="#fdb74d"/>
        <path id="Trazado_115577" data-name="Trazado 115577" d="M139.762,69A5.661,5.661,0,1,1,134.1,63.34,5.661,5.661,0,0,1,139.762,69" transform="translate(-59.389 -29.287)" fill="#fedc72"/>
        <path id="Trazado_115578" data-name="Trazado 115578" d="M224,153.234a5.661,5.661,0,1,1-5.661-5.661A5.661,5.661,0,0,1,224,153.234" transform="translate(-98.337 -68.235)" fill="#fedc72"/>
        <path id="Trazado_115579" data-name="Trazado 115579" d="M200.54,113.118a2.83,2.83,0,0,0,4-4l-2.83-2.831a2.83,2.83,0,0,0-4,4Z" transform="translate(-91.034 -48.761)" fill="#fedc72"/>
        <path id="Trazado_115580" data-name="Trazado 115580" d="M150.329,243.165a2.829,2.829,0,0,0,0,4L153.16,250a2.83,2.83,0,1,0,4-4l-2.831-2.831a2.829,2.829,0,0,0-4,0" transform="translate(-69.126 -112.052)" fill="#fedc72"/>
        <path id="Trazado_115581" data-name="Trazado 115581" d="M232.128,179.99l-2.831,2.831a2.83,2.83,0,1,0,4,4l2.83-2.83a2.83,2.83,0,1,0-4-4" transform="translate(-105.64 -82.841)" fill="#fedc72"/>
        <path id="Trazado_115582" data-name="Trazado 115582" d="M104.489,189.021l-9.284,9.255V214.1a2.83,2.83,0,1,1-5.661,0V198.276l-7.67-7.642a2.842,2.842,0,0,1,4.019-4.019l6.481,6.51,11.831-11.859c.17,2.576.255,5.151.283,7.755" transform="translate(-37.475 -83.814)" fill="#fdb74d"/>
        <path id="Trazado_115583" data-name="Trazado 115583" d="M64.02,110.49a2.839,2.839,0,0,1-2.831,2.831H52.7a2.922,2.922,0,0,1-2.01-.821l-6.482-6.482V97.98l9.651,9.68h7.33a2.839,2.839,0,0,1,2.831,2.831" transform="translate(-20.441 -45.304)" fill="#fdb74d"/>
        <path id="Trazado_115584" data-name="Trazado 115584" d="M141.827,319.81c-9.51-5.01-17.378-4.472-24.51,1.613a2.83,2.83,0,0,1-3.679-4.3c7.529-6.4,16.1-7.953,25.529-4.642a56.55,56.55,0,0,1,1.783,6.793c.283.17.595.339.877.538" transform="translate(-52.085 -143.704)" fill="#fdb74d"/>
        <path id="Trazado_115585" data-name="Trazado 115585" d="M69.681,292.547a2.839,2.839,0,0,1-2.831,2.831H56.689l-12.481,12.51v-8.038l9.312-9.312a2.923,2.923,0,0,1,2.01-.821H66.85a2.839,2.839,0,0,1,2.831,2.831" transform="translate(-20.441 -133.96)" fill="#fdb74d"/>
      </g>
    </g>
    <g id="Grupo_81216" data-name="Grupo 81216" transform="translate(1309.03 535.051) rotate(5)">
      <g id="Grupo_80827" data-name="Grupo 80827" clip-path="url(#clip-path-2)">
        <g id="Grupo_80826" data-name="Grupo 80826">
          <g id="Grupo_80825" data-name="Grupo 80825" clip-path="url(#clip-path-3)">
            <rect id="Rectángulo_34804" data-name="Rectángulo 34804" width="102.359" height="127.001" transform="translate(-10.11 -7.798)" fill="#fedc72"/>
          </g>
        </g>
      </g>
    </g>
  </g>
</svg>
