<svg xmlns="http://www.w3.org/2000/svg" xmlns:xlink="http://www.w3.org/1999/xlink" width="524.376" height="334.787" viewBox="0 0 524.376 334.787">
  <defs>
    <clipPath id="clip-path">
      <rect id="Rectángulo_34805" data-name="Rectángulo 34805" width="34.03" height="46.273" fill="none"/>
    </clipPath>
    <clipPath id="clip-path-2">
      <path id="Trazado_115728" data-name="Trazado 115728" d="M33.625,0A.4.4,0,0,0,33.4.076,84.911,84.911,0,0,0,23.15,9,112.306,112.306,0,0,0,14.2,19.3a121.162,121.162,0,0,0-7.73,11.292A89.022,89.022,0,0,0,.179,42.933c-.022.054-.044.115-.063.172A2.431,2.431,0,0,0,0,43.836v.021a2.429,2.429,0,0,0,2.415,2.416H2.44a2.428,2.428,0,0,0,2.3-1.685l.012-.038a84.9,84.9,0,0,1,5.078-12.1A117.874,117.874,0,0,1,16.5,20.931a110.06,110.06,0,0,1,7.98-10.707A83.59,83.59,0,0,1,33.888.7l0,0A.4.4,0,0,0,33.64,0Z" fill="#8c6df2"/>
    </clipPath>
    <clipPath id="clip-path-3">
      <rect id="Rectángulo_34805-2" data-name="Rectángulo 34805" width="101.513" height="138.037" fill="none"/>
    </clipPath>
    <clipPath id="clip-path-4">
      <path id="Trazado_115728-2" data-name="Trazado 115728" d="M100.308,0a1.183,1.183,0,0,0-.674.227A253.3,253.3,0,0,0,69.058,26.859a335.02,335.02,0,0,0-26.687,30.7A361.438,361.438,0,0,0,19.312,91.248,265.558,265.558,0,0,0,.534,128.072c-.066.163-.131.344-.187.513A7.253,7.253,0,0,0,0,130.767v.064a7.245,7.245,0,0,0,7.205,7.206h.073a7.242,7.242,0,0,0,6.853-5.027l.036-.113a253.265,253.265,0,0,1,15.147-36.1A351.628,351.628,0,0,1,49.224,62.439,328.315,328.315,0,0,1,73.03,30.5,249.356,249.356,0,0,1,101.092,2.085l.009-.009A1.182,1.182,0,0,0,100.352,0Z" fill="#fedc72"/>
    </clipPath>
    <clipPath id="clip-path-5">
      <rect id="Rectángulo_34824" data-name="Rectángulo 34824" width="412.008" height="297.951" fill="none"/>
    </clipPath>
    <clipPath id="clip-path-6">
      <rect id="Rectángulo_34759" data-name="Rectángulo 34759" width="505" height="216.591" fill="none"/>
    </clipPath>
    <clipPath id="clip-path-8">
      <rect id="Rectángulo_34756" data-name="Rectángulo 34756" width="27.382" height="28.155" fill="none"/>
    </clipPath>
    <clipPath id="clip-path-9">
      <rect id="Rectángulo_34757" data-name="Rectángulo 34757" width="43.826" height="43.827" fill="none"/>
    </clipPath>
    <clipPath id="clip-path-10">
      <rect id="Rectángulo_34803" data-name="Rectángulo 34803" width="30.326" height="30.326" fill="none"/>
    </clipPath>
    <clipPath id="clip-path-11">
      <rect id="Rectángulo_34802" data-name="Rectángulo 34802" width="30.325" height="30.325" fill="none"/>
    </clipPath>
  </defs>
  <g id="Grupo_81217" data-name="Grupo 81217" transform="translate(-862.5 -2552)">
    <g id="Grupo_80527" data-name="Grupo 80527" transform="translate(0 2164.815)">
      <ellipse id="Elipse_4784" data-name="Elipse 4784" cx="200" cy="141.5" rx="200" ry="141.5" transform="translate(915 399)" fill="#8c6df2" opacity="0.25"/>
    </g>
    <g id="Grupo_80644" data-name="Grupo 80644" transform="translate(105 2422.528)">
      <ellipse id="Elipse_4784-2" data-name="Elipse 4784" cx="95" cy="6.5" rx="95" ry="6.5" transform="translate(915 399.287)" fill="#8c6df2" opacity="0.25"/>
    </g>
    <g id="Grupo_80874" data-name="Grupo 80874" transform="translate(973.309 2552) rotate(23)">
      <g id="Grupo_80827" data-name="Grupo 80827" clip-path="url(#clip-path)">
        <g id="Grupo_80826" data-name="Grupo 80826">
          <g id="Grupo_80825" data-name="Grupo 80825" clip-path="url(#clip-path-2)">
            <rect id="Rectángulo_34804" data-name="Rectángulo 34804" width="42.433" height="52.649" transform="translate(-4.191 -3.233)" fill="#8c6df2"/>
          </g>
        </g>
      </g>
    </g>
    <g id="Grupo_80875" data-name="Grupo 80875" transform="translate(1292.105 2721.539) rotate(21)">
      <g id="Grupo_80827-2" data-name="Grupo 80827" clip-path="url(#clip-path-3)">
        <g id="Grupo_80826-2" data-name="Grupo 80826">
          <g id="Grupo_80825-2" data-name="Grupo 80825" clip-path="url(#clip-path-4)">
            <rect id="Rectángulo_34804-2" data-name="Rectángulo 34804" width="126.583" height="157.057" transform="translate(-12.502 -9.643)" fill="#fedc72"/>
          </g>
        </g>
      </g>
    </g>
    <path id="Trazado_115812" data-name="Trazado 115812" d="M330.262,2.936C274.644,66.493,221.136,131.917,170.505,199.5A5.937,5.937,0,0,1,161,192.389q19.916-24.893,40.372-49.316Q262.544,70.1,327.646.558a1.768,1.768,0,0,1,2.616,2.378" transform="translate(965.208 2563.815)" fill="#12263f"/>
    <g id="Grupo_80877" data-name="Grupo 80877" transform="translate(922.992 2563.815)">
      <g id="Grupo_80876" data-name="Grupo 80876" clip-path="url(#clip-path-5)">
        <path id="Trazado_115811" data-name="Trazado 115811" d="M164.711,29.651C112.9,89.155,62.91,150.518,15.836,213.816A8.762,8.762,0,1,1,1.972,203.107C39.794,157.083,79.53,112.879,119.944,69.176,133.432,54.668,147.028,40.26,160.9,26.094a2.61,2.61,0,0,1,3.815,3.557" fill="#12263f"/>
        <line id="Línea_148" data-name="Línea 148" y1="42.903" x2="33.724" transform="translate(51.762 247.195)" fill="none" stroke="#8c6df2" stroke-linecap="round" stroke-linejoin="round" stroke-width="14"/>
      </g>
    </g>
    <g id="Grupo_80878" data-name="Grupo 80878" transform="translate(862.5 2605.225)">
      <g id="Grupo_80739" data-name="Grupo 80739" clip-path="url(#clip-path-6)">
        <g id="Grupo_80738" data-name="Grupo 80738">
          <g id="Grupo_80737" data-name="Grupo 80737" clip-path="url(#clip-path-6)">
            <path id="Trazado_115298" data-name="Trazado 115298" d="M274.737,356.161s-2.227,2.23-2.277,3.049-.2,9.588.712,10.406,3.58,1.4,2.721,2.32c-.649.7-5.641.547-8.95.36-.966-.054-2.177-7.964-2.56-9.126-.556-1.688-2.557-5.363-2.052-6.54.246-.573,2.074-1.88,3.733-2.98a15.409,15.409,0,0,0,3.414-3.732Z" transform="translate(-118.367 -157.936)" fill="#fedc72"/>
            <path id="Trazado_115299" data-name="Trazado 115299" d="M337.066,371.181s-1.993,5.778-2,5.793c-.148.916-.731,3.178-.731,4.01,0,3.127,13.738-2.654,10.659-4.039a3.353,3.353,0,0,1-1.244-2.191,7.45,7.45,0,0,1,1.157-3.7Z" transform="translate(-150.904 -167.476)" fill="#fee587"/>
            <path id="Trazado_115300" data-name="Trazado 115300" d="M361.334,172.131s1.035,9.561,1.035,9.716c0,16.757,1.932,49.49,1.316,52.641-1.5,7.684-17.9,49.509-17.9,49.509l-8.5-1.23,11.382-49.4-4.188-18.891-5.927-37.342Z" transform="translate(-152.235 -77.691)" fill="#5038a1"/>
            <path id="Trazado_115301" data-name="Trazado 115301" d="M299.638,181.056l-1.658,9.819L293.5,231.283l-21.948,41.006s3.3,5.13,6.844,5.938l31.151-41.445L326.427,184.9l-.593-11.527Z" transform="translate(-122.563 -78.251)" fill="#4a3993"/>
            <path id="Trazado_115302" data-name="Trazado 115302" d="M372.1,103.486l-12.111,1.269s-.556-10.191-.556-15.052c0-5.9.65-13.407,1.344-13.243a10,10,0,0,1,5.972,3.677c5.4,7.62,5.352,23.349,5.352,23.349" transform="translate(-162.231 -34.509)" fill="#7a64c0"/>
            <path id="Trazado_115303" data-name="Trazado 115303" d="M292.3,164.616c-1.848-3.068-2.263-2.632-2.489-3.032-.268-.473.03-7.775.03-7.775s.741-21.527.82-22.688l9.462-19.875-8.179-7.8S282.2,125.358,281.887,126.6s1.936,30.5,2.055,33.08c0,0-.949,3.121-1.482,5.1a18.129,18.129,0,0,0-.258,4.7,19.124,19.124,0,0,0,.346,4.5c.407,2.115.949-.075.949-.075s-.081-4.053.227-4c.237.04.156,2.254.583,4.6.11.6.22,1.2.326,1.744.277,1.432,1.2,1.673,1.136.128a15.16,15.16,0,0,0-.208-2.09,12.59,12.59,0,0,1-.083-1.97,16.411,16.411,0,0,1-.074-2.031c.063.032.21-.211.346.425.163.765.165,2.467.488,3.574.184.628.49,1.963.49,1.963a13.146,13.146,0,0,0,.949,1.921c.672-.06.464-1.541.109-2.361a10.2,10.2,0,0,0-.331-2.035s-.123-2.986.281-3.006a34.282,34.282,0,0,1,1.008,3.561c.51,1.621,1.278,3.174,1.6,3.121.545-.09.163-1.95.163-1.95s-.335-1.289-.415-1.726c-.093-.512-.262-2.066-.262-2.066s-.344-5.434.041-5.419a2.485,2.485,0,0,1,1.5.795c.133.33.074,1.066.207,1.4a.856.856,0,0,0,.978.51c.4-.135.341-1.981.341-1.981a6.078,6.078,0,0,0-.593-2.386" transform="translate(-127.216 -46.689)" fill="#f7d8ba"/>
            <path id="Trazado_115304" data-name="Trazado 115304" d="M346.826,88.268c.253,1.8,6.225,50.008,6.225,50.008-22.052,10.931-36.434,7.653-36.434,7.653s1.62-39.359.754-44.031c-.572-3.092-1.286-23.633.667-24.209a47.763,47.763,0,0,1,8.506-1.856c2.672-.285,13.051-.45,14.909.19a24.525,24.525,0,0,1,5.373,12.243" transform="translate(-142.905 -34.114)" fill="#9c7efc"/>
            <path id="Trazado_115305" data-name="Trazado 115305" d="M290.515,100.185l10.492,7.23s5.913-9.032,9.088-12.248c3.977-4.028-1.448-16.367-4.011-15.669-5.731,1.561-15.569,20.686-15.569,20.686" transform="translate(-131.124 -35.869)" fill="#7a64c0"/>
            <path id="Trazado_115306" data-name="Trazado 115306" d="M265.771,356.62s5.133,14.833,7.142,15.549c.533.19,3.093.672,3.577,1.834a5.161,5.161,0,0,1,0,1.519h-10.7s-1.353-6.535-1.888-9.407c0,0-2.832-7.016-2.517-7.654s4.385-1.842,4.385-1.842" transform="translate(-117.965 -160.96)" fill="#8c6df2"/>
            <path id="Trazado_115307" data-name="Trazado 115307" d="M332.914,386.834l1.574-5.1s3.3,1.435,4.956,1.2a49.024,49.024,0,0,0,4.877-1.2c6.594,2.228,12,3.309,11.013,5.1Z" transform="translate(-150.261 -172.295)" fill="#8c6df2"/>
            <path id="Trazado_115308" data-name="Trazado 115308" d="M411.138,199.4a4.182,4.182,0,0,0,3.8,1.093,2.571,2.571,0,0,1-3.8-1.093" transform="translate(-185.567 -90)" fill="#ffda6a"/>
            <path id="Trazado_115309" data-name="Trazado 115309" d="M338.719,57.231,337.1,67.413s5.939,12.955,9.488,11.864c2.978-.915,1.146-12.041,1.146-12.041s-1.623-5.975-1.137-8.966-7.875-1.039-7.875-1.039" transform="translate(-152.149 -25.549)" fill="#f7d8ba"/>
            <path id="Trazado_115310" data-name="Trazado 115310" d="M347.818,58.27c.487-2.99-7.875-1.039-7.875-1.039l-.135.876a4.853,4.853,0,0,0,.906,1.472,11.092,11.092,0,0,0,7.311,3.257,16.055,16.055,0,0,1-.208-4.566" transform="translate(-153.372 -25.549)" fill="#fdb74d"/>
            <path id="Trazado_115311" data-name="Trazado 115311" d="M337.021,27.8c-.236-.084-1.895,12.029,1.252,15.361s9.277,4.424,11.476,1.8c2.432-2.9,2.31-15.922-2.582-19.35s-10.146,2.19-10.146,2.19" transform="translate(-151.822 -11.059)" fill="#f7d8ba"/>
            <path id="Trazado_115312" data-name="Trazado 115312" d="M333.2,19.855c-1.717.2-4.05,1.134-6.46,5.061-2.963,4.829-.775,10.179,2.674,12.8s3.387,5.631,3.387,5.631l.559-1.542a8.636,8.636,0,0,0,.432-3.694,7.122,7.122,0,0,0-.558-2.221c-.83-1.752,1.782-2.918,2.514-4.376.563-1.123.591-3.692,1.479-5.549l1.061-1.417s2.448-1.875,4.842-1.346-.547-10.97-9.932-3.351" transform="translate(-146.845 -7.781)" fill="#5038a1"/>
            <path id="Trazado_115313" data-name="Trazado 115313" d="M341.425,45.013c.025,1.478-.657,2.688-1.524,2.7s-1.59-1.171-1.615-2.649.657-2.688,1.524-2.7,1.59,1.171,1.615,2.649" transform="translate(-152.685 -19.121)" fill="#f7d8ba"/>
            <path id="Trazado_115314" data-name="Trazado 115314" d="M782.651,337.043s.57,5.787,2.035,6.849,3.419,4.994,2.442,7.119-5.079,1.382-5.079,1.382-2.442-2.232-2.661-6.933a15.959,15.959,0,0,0-1.685-7.092Z" transform="translate(-351.015 -152.124)" fill="#fee783"/>
            <path id="Trazado_115315" data-name="Trazado 115315" d="M731.89,341.257s-.462,5.839-.087,7.737c.2,1.017,1.319,3.108.806,4.064a2.574,2.574,0,0,1-1.1,1.2l-14.872.239s.033-1.876,7.107-3.9a6.77,6.77,0,0,0,2.678-2.032c.954-1.061,1.037-6.2,1.037-6.2Z" transform="translate(-323.454 -154.026)" fill="#fee783"/>
            <path id="Trazado_115316" data-name="Trazado 115316" d="M724.292,198.581s-1.7,9.481-.583,15.7,5.774,64.136,5.774,64.136l7.088.076s1.3-23.714,1.079-27.061a49.971,49.971,0,0,0-1.772-8.513l-.14-20.27-7.5-25.527Z" transform="translate(-326.475 -88.969)" fill="#4c3599"/>
            <path id="Trazado_115317" data-name="Trazado 115317" d="M743.164,194.381s4.678,6.933,5.792,12.67-.818,23.37,1.325,30.888c1.16,4.07,6.819,9.867,7.488,15.126s3.466,19.668,3.466,19.668l-7.379,1.016-13.8-34.405-10.824-31.1-2.773-16.016Z" transform="translate(-327.886 -86.762)" fill="#4c3793"/>
            <path id="Trazado_115318" data-name="Trazado 115318" d="M781.877,356.337a6.553,6.553,0,0,0,6.423-2.678c.812,1.581,1.309,3.554.712,4.853-.977,2.125-5.079,1.381-5.079,1.381a8.81,8.81,0,0,1-2.056-3.555" transform="translate(-352.9 -159.624)" fill="#fedc66"/>
            <path id="Trazado_115319" data-name="Trazado 115319" d="M723.745,357.725a3.249,3.249,0,0,0,.778-.357,12.058,12.058,0,0,0,7.568-.3,8.432,8.432,0,0,1,.783,3.114,2.1,2.1,0,0,1-.571,1.325l-15.664.119s.033-1.876,7.107-3.9" transform="translate(-323.454 -161.164)" fill="#fedc66"/>
            <path id="Trazado_115320" data-name="Trazado 115320" d="M688.028,192.075s.7-.753.915-1.02c.25-.314.926-1.311.926-1.311s2.19-3.579,1.909-3.715-1.005.274-1.218.449-.481.359-.695.534a.547.547,0,0,1-.76-.081c-.239-.244.461-1.122.764-1.378a44.318,44.318,0,0,1,4.208-2.625c.362-.221,3-7.109,4.1-9.4h0c1.679-3.8,3.211-7.79,3.386-8.194l2.115-17.595,6.864-1.786s-2.068,19.557-2.285,20.524c-.1.46-4.687,8.978-4.691,8.976-2.525,4.056-4.761,7.623-5.17,8.321,0,0-.657,2.405-.983,3.961a13.655,13.655,0,0,1-1.422,3.285,10.232,10.232,0,0,1-1.71,3.046c-1.048,1.289-.653-.412-.653-.412s1.507-2.736,1.268-2.818c-.184-.063-.918,1.48-2.063,2.918-.294.37-.587.734-.857,1.066-.711.872-1.457.686-.861-.345a11.107,11.107,0,0,1,.9-1.348,9.243,9.243,0,0,0,.765-1.313,11.936,11.936,0,0,0,.779-1.358c-.056,0-.075-.224-.4.159-.39.46-1,1.622-1.628,2.254-.356.358-1.053,1.153-1.053,1.153a10.724,10.724,0,0,1-1.358,1.111c-.46-.3.21-1.389.758-1.814a7.5,7.5,0,0,1,.965-1.264s1.157-1.991.873-2.159c-.233-.138-3.935,4.1-4.375,3.768-.359-.269.7-1.593.7-1.593" transform="translate(-310.193 -65.877)" fill="#f7d8ba"/>
            <path id="Trazado_115321" data-name="Trazado 115321" d="M698.642,218.669s-2.015,1.141-3.088.2a1.541,1.541,0,0,0,1.286.77,3.087,3.087,0,0,0,1.8-.973" transform="translate(-313.938 -98.696)" fill="#fedb65"/>
            <path id="Trazado_115322" data-name="Trazado 115322" d="M734.332,81.505c.99,2.709,3.574,3.087,6.2,4.283,1.765.8,2.345,4.055,1.748,6.322-1.513,5.742,3.252,4,6.485,7.09,7.79,7.454-5.1,14.461-6.939,15.643s-8.771,3.413-10,3.589c-3.695.529-8.5-1.447-11.553-5.7s-.4-7.319-.878-10.092-3.926-2.63-3.727-8.153c.215-5.975,2.061-10.816,4.736-13.306,4.425-4.12,10.722-3.286,12.731-1.413a4.478,4.478,0,0,1,1.191,1.739" transform="translate(-323.015 -35.304)" fill="#5038a1"/>
            <path id="Trazado_115323" data-name="Trazado 115323" d="M721.392,124.57s-2.046.944-4.815,6.547c-2.58,5.22-3,17.351-3,17.351s4.105,1.3,6.461.855,1.357-24.752,1.357-24.752" transform="translate(-322.071 -56.225)" fill="#feba5f"/>
            <path id="Trazado_115324" data-name="Trazado 115324" d="M730.688,121.368s1.368.114,8.324,1.6a6.719,6.719,0,0,1,3.591,2.755c3.556,6.322,6.685,17.643,6.685,17.643s-5.81,1.9-7.829,1.9l-2.39-7.534s-2.719,15.892-1.6,18.585,3.934,9.521,3.934,9.521-.045,1.456-10.665,2.574a41.783,41.783,0,0,1-9.574-.464s.966-10.32.108-14.805c-1.4-7.306-4.12-16.054-4.259-17.166-.224-1.8,3.913-11.956,6.051-12.914a13.09,13.09,0,0,1,2.28-.95,37.372,37.372,0,0,1,5.34-.741" transform="translate(-323.621 -54.779)" fill="#fdb74d"/>
            <path id="Trazado_115325" data-name="Trazado 115325" d="M734.95,107.209s.223,5.085.869,6.957-1.358,8.663-5.411,9.654c-3.653.893-1.017-5.451-.511-8.155.056-.3-.652-9.712-.652-9.712Z" transform="translate(-328.81 -47.822)" fill="#f7d8ba"/>
            <path id="Trazado_115326" data-name="Trazado 115326" d="M729.843,108.931c-.317-1.605-.614-2.938-.614-2.938l6.048,1.234s.046,1.04.155,2.353a4.886,4.886,0,0,1-5.589-.649" transform="translate(-329.137 -47.84)" fill="#fdb74d"/>
            <path id="Trazado_115327" data-name="Trazado 115327" d="M730.571,82.915a6.933,6.933,0,0,1,3.745,3c1.369,2.338,2.053,9.053-2.989,11.918s-8.62-1.725-8.467-6.02,1.359-9.976,7.711-8.9" transform="translate(-326.26 -37.364)" fill="#f7d8ba"/>
            <path id="Trazado_115328" data-name="Trazado 115328" d="M721.913,94.672c.365,1.057,1.159,1.74,1.775,1.528s.819-1.241.454-2.3-1.159-1.74-1.775-1.528-.819,1.241-.454,2.3" transform="translate(-325.753 -41.676)" fill="#f7d8ba"/>
            <path id="Trazado_115329" data-name="Trazado 115329" d="M744.3,98c-.41,1.1-.141,2.213.6,2.49s1.676-.388,2.087-1.486.141-2.213-.6-2.49S744.706,96.9,744.3,98" transform="translate(-335.851 -43.533)" fill="#f7d8ba"/>
            <path id="Trazado_115330" data-name="Trazado 115330" d="M720.348,184.978l17.331-2.889-3.724-24.1-18.248,3.578Z" transform="translate(-323.034 -71.31)" fill="#7a64c0"/>
            <path id="Trazado_115331" data-name="Trazado 115331" d="M719.255,173.493a6.793,6.793,0,0,0,2.451-.133c.2-.086-.685-.566-.822-.732-.018-.022-1.734-.694-1.734-1.378s1.4-.513,1.4-.513a34.763,34.763,0,0,1,4.674,1.425,5.313,5.313,0,0,1,.967.823,3.8,3.8,0,0,0,.6.032c3.5-.22,8.938-2.076,17.189-5.054l-.85-4.467a48.119,48.119,0,0,0,6.327-1.6c.58,3.42,1.762,9.316,1.25,10.582-.358.888-4.746,2.286-9.671,3.632-6.273,1.716-8.012,1.673-13.617,2.354a41.055,41.055,0,0,0-4.774,1.328c-1.3.259-1.726.492-2.514-.064-.665-.469-.873-1.9-.95-2.794a8.7,8.7,0,0,1,.076-3.439" transform="translate(-324.544 -73.071)" fill="#f7d8ba"/>
            <path id="Trazado_115332" data-name="Trazado 115332" d="M49.819,342.121c.445-3.161.41-9,.184-15.154,2.758-.14,5.091-.314,7.846-.5-1.147,7.863-1.919,15.96-1.919,15.96l.189,1.554.1,4.606-15.6.116a70.053,70.053,0,0,0,7.89-4.339,3.134,3.134,0,0,0,1.315-2.247" transform="translate(-18.332 -147.352)" fill="#fee587"/>
            <path id="Trazado_115333" data-name="Trazado 115333" d="M55.774,363.929l-16.455.194c-.6-.053-.741-.535-.534-.832.425-.611,2.3-1.06,4.417-2.034,3.705.386,11.457-2.145,12.041-3,.338,1.7.862,5.6.531,5.668" transform="translate(-17.466 -161.701)" fill="#fedc66"/>
            <path id="Trazado_115334" data-name="Trazado 115334" d="M101.908,334.454c-1.288-2.921-4.394-7.862-7.831-12.975,2.27-1.572,4.52-3.173,6.765-4.78,3.169,7.287,6.422,14.8,6.422,14.8l.98,1.221,2.514,3.861-13.2,8.324a70.12,70.12,0,0,0,4.417-7.846,3.134,3.134,0,0,0-.067-2.6" transform="translate(-42.462 -142.942)" fill="#fee587"/>
            <path id="Trazado_115335" data-name="Trazado 115335" d="M113.737,350.645l-13.689,8.491c-.534.269-.912-.064-.893-.426.04-.743,1.4-2.116,2.681-4.057,3.353-1.625,8.574-7.9,8.623-8.932,1.185,1.27,3.522,4.687,3.279,4.924" transform="translate(-44.753 -156.041)" fill="#fedc66"/>
            <path id="Trazado_115336" data-name="Trazado 115336" d="M66.248,91.628c1.221-5.95-2.607-11.849-7.974-14.064.036-3.386-1.061-7.675-3.373-9.993C50.34,63,41.636,61.4,38.282,67.226c-4.43,2.506-7.915,7.934-6.594,12.879-4.294,4.447-2.663,12.493,3.6,16.292-.1,4.989,2.539,9.948,6.9,12.08a29.013,29.013,0,0,1,2.893,1.446c-.273-.258,3.232,9.5,14.118,5.034,11.11-4.558,14.289-17.386,7.049-23.329" transform="translate(-13.22 -28.644)" fill="#4a3693"/>
            <path id="Trazado_115337" data-name="Trazado 115337" d="M47.754,278.177c1.352-7.5-3.343-26.08-6.206-34.252-2.978-8.5-4.871-44.464-4.871-44.464l3.376-3.948,13.779-.825s-5.863,18.014-5.863,24.2,2.852,22.167,6.2,30.48c3.091,7.67,1.806,23.751.871,29.038a19.989,19.989,0,0,1-7.288-.233" transform="translate(-16.554 -87.872)" fill="#5038a1"/>
            <path id="Trazado_115338" data-name="Trazado 115338" d="M57.313,197.736c.631.63,4.334,5.016,4.334,8.082s-6.979,30.655-5.3,32.326S64.215,244,68.169,249.835a244.55,244.55,0,0,1,12.429,22.5,29.666,29.666,0,0,1-8.262,3.882c-.463-2.516-23.029-27.391-25.606-32.593s-3.973-28.982-5.276-32.141S36.676,200.3,36.676,200.3Z" transform="translate(-16.554 -89.248)" fill="#4c3599"/>
            <path id="Trazado_115339" data-name="Trazado 115339" d="M20.658,160.667s-8.506,9.708-17.921,13.361A10.53,10.53,0,0,0,0,175.717c0,.991,1.984-.187,1.984-.187a4.13,4.13,0,0,0-.5,2.6c.31,1.176,2.363.395,3.48.395.511,0,3.136-2.937,6.681-4.664,4.194-2.043,9.143-4.043,9.748-4.647,1.117-1.115-.4-8.9-.736-8.547" transform="translate(0 -72.512)" fill="#f7d8ba"/>
            <path id="Trazado_115340" data-name="Trazado 115340" d="M52.448,110.777s-8.561-.867-13.028,1.982S32.1,125.764,32.1,130.1s3.221,27.125,1.983,31.46c0,0,14.147-.619,18.987-.619s5.832-1.858,5.832-1.858-10.05-9.909-10.05-14.244,3.6-34.061,3.6-34.061" transform="translate(-14.488 -49.943)" fill="#fdb74d"/>
            <path id="Trazado_115341" data-name="Trazado 115341" d="M13.645,183.194c1.024-1.022,5.77-2.6,9.368-5.2,1.591-1.151,4.65-2.664,7.627-4.311a19.131,19.131,0,0,1,5.611,4.527c-5.387,2.476-11.233,4.966-12.121,5.852-1.675,1.672-4.591,5.45-5.273,5.45s-5.863-1.517-6.639-2.291.4-3,1.427-4.025" transform="translate(-5.401 -78.391)" fill="#f7d8ba"/>
            <path id="Trazado_115342" data-name="Trazado 115342" d="M46,145.335c3.754-2.077,7.378-4.365,7.758-6.4.683-3.654-2.42-19.446-.683-22.48s5.646-5.573,5.646-5.573c.621,0,2.854,1.362,3.474,4.087s-.5,27.248-1.117,29.478c-.291,1.047-4.537,5.214-9.306,7.406-1.468-1.809-3.6-5.31-5.773-6.515" transform="translate(-20.763 -50.045)" fill="#fedc66"/>
            <path id="Trazado_115343" data-name="Trazado 115343" d="M9.144,187.25S7.36,189.79,6.829,189.79s-3.32.174-3.758-.262,1.576-3.736,2.3-3.736-.854,2.179-.664,2.369,1.746-3.448,2.543-3.108-1.556,2.88-1.29,3.145,1.936-2.88,2.581-2.88-1.518,2.843-1.291,3.069,1.595-1.44,1.9-1.137" transform="translate(-1.358 -83.513)" fill="#f7d8ba"/>
            <path id="Trazado_115344" data-name="Trazado 115344" d="M54.646,94.7a42.671,42.671,0,0,0-.763,7.309c.191,2.067-.727,8.73-4.845,8.752s-1.319-6.918-.932-8.944,1.017-9.851,1.017-9.851Z" transform="translate(-21.132 -41.509)" fill="#f7d8ba"/>
            <path id="Trazado_115345" data-name="Trazado 115345" d="M50.558,94.842a18.606,18.606,0,0,1,.374-3.08l5.4,2.846s-.195,1.072-.391,2.437a5.021,5.021,0,0,1-5.384-2.2" transform="translate(-22.819 -41.417)" fill="#fdb74d"/>
            <path id="Trazado_115346" data-name="Trazado 115346" d="M54.736,69.006a7.091,7.091,0,0,1,3.583,3.348c1.262,2.523,1.678,9.583-3.41,12.3s-8.446-2.29-8.13-6.773,1.727-10.356,7.958-8.871" transform="translate(-21.104 -31.04)" fill="#f7d8ba"/>
            <path id="Trazado_115347" data-name="Trazado 115347" d="M44.017,81.449c-.134,1.162.277,2.153.918,2.214s1.27-.832,1.4-1.994-.277-2.153-.918-2.214-1.27.832-1.4,1.994" transform="translate(-19.856 -35.861)" fill="#f7d8ba"/>
            <path id="Trazado_115348" data-name="Trazado 115348" d="M66.821,85.4c-.447,1.125-.224,2.306.5,2.638s1.67-.312,2.117-1.436.225-2.306-.5-2.638-1.67.312-2.117,1.436" transform="translate(-30.056 -37.86)" fill="#f7d8ba"/>
            <path id="Trazado_115349" data-name="Trazado 115349" d="M626.688,184.75s-.673-.772-.876-1.046c-.239-.322-.879-1.339-.879-1.339s-2.068-3.648-1.785-3.779.986.3,1.193.477.465.371.672.552a.535.535,0,0,0,.754-.065c.242-.241-.425-1.139-.717-1.4a43.549,43.549,0,0,0-4.088-2.731c-.351-.23-2.771-7.218-3.791-9.547h0c-1.555-3.861-2.96-7.908-3.123-8.318L612.439,139.8l-6.736-1.942s1.508,19.728,1.7,20.706c.089.466,4.387,9.135,4.391,9.134,2.385,4.135,4.5,7.773,4.884,8.484,0,0,.583,2.435.863,4.007a13.791,13.791,0,0,0,1.315,3.336,10.286,10.286,0,0,0,1.607,3.1c1,1.319.657-.4.657-.4s-1.415-2.786-1.176-2.863c.184-.059.867,1.509,1.959,2.981.281.379.56.751.818,1.091.679.893,1.422.721.86-.329a11.09,11.09,0,0,0-.849-1.375,9.244,9.244,0,0,1-.72-1.338,12.18,12.18,0,0,1-.734-1.383c.056,0,.081-.224.391.168.374.471.945,1.653,1.548,2.3.342.369,1.009,1.183,1.009,1.183a10.517,10.517,0,0,0,1.312,1.147c.462-.289-.17-1.4-.7-1.841a7.466,7.466,0,0,0-.919-1.292s-1.088-2.028-.8-2.191c.234-.134,3.778,4.207,4.222,3.884.362-.263-.645-1.617-.645-1.617" transform="translate(-273.384 -62.221)" fill="#f7d8ba"/>
            <path id="Trazado_115350" data-name="Trazado 115350" d="M517.781,149.962c-.075-.07-.319-.465-.565-.751a7.166,7.166,0,0,0-.685-.7,2.75,2.75,0,0,0-.1-.686c-.045-.174-.191-.4-.241-.59s-.026-.422-.077-.609c-.135-.483-.367-.84-.642-.795-.228.036.177,3.01.177,3.01,1.487,1.845,2.12,4.532,8.368,6.523,3.045,1.565,18.5,8.612,19.968,7.812.821-.448,4.864-6.763,7.848-11.662-1.442-.724-4.5-2.27-6.179-3.163-1.623,3.4-3.925,7.724-4.479,7.918-.144.052-.466.069-12.2-3.649-.295-.1-.6-.19-.906-.287-.825-.262-1.708-.543-2.642-.843l-1.619-2.469s-3.189-3.4-3.687-3.175c-.225.106-.075.481.17.893l.009.011.111.18.006.007c.276.435.61.858.656.988a3.054,3.054,0,0,1,.177.761c-2.751-1.5-2.282-1.592-2.844-2.376-.138-.2-.354-.352-.483-.541-.222-.323-.239-.711-.415-.957a1.314,1.314,0,0,0-.76-.514c-.144-.014-.139.227-.033.621a12.506,12.506,0,0,0,2.388,4.1c.177.371-.4-.1-1.026-1.058a5.958,5.958,0,0,1-.641-.808c-.116-.23-.134-.509-.242-.738-.1-.211-.251-.388-.343-.56-.123-.223-.195-.614-.3-.784-.406-.629-.735-.827-.842-.848-.228-.037.9,3.4.9,3.4s1.212,2.016,1.541,2.419c0,0,.089.33-.368-.083" transform="translate(-232.627 -65.097)" fill="#f7d8ba"/>
            <path id="Trazado_115351" data-name="Trazado 115351" d="M581.624,88.537c.693-3.149,1.372-6.318-.455-9.778A8.883,8.883,0,0,0,574.179,74c-8.378-.994-9.116,6.493-17.075,9.77-3.4,1.4-6.887,1-9.925,2.809-5.486,3.268-8.4,12.436-4.762,20.975,8.908,20.91,29.914,7.223,32.614,3.106,2.01-3.063,6.146-20.094,6.592-22.122" transform="translate(-244.092 -33.358)" fill="#281665"/>
            <path id="Trazado_115352" data-name="Trazado 115352" d="M582.266,122.769c-4.495,1.4-16.666,5.344-17.275,5.2L553.9,119.139l-6.824,5.989s15.224,11.274,16.09,11.687c.64.305,14.045-6.6,20.365-9.691a7.364,7.364,0,0,0-1.264-4.354" transform="translate(-246.922 -53.773)" fill="#f7d8ba"/>
            <path id="Trazado_115353" data-name="Trazado 115353" d="M555.008,117.739l-6.95,9s-7.326-5.631-10.028-8.66c-3.278-3.675-6.861-11.567-6.332-11.855a11.842,11.842,0,0,1,6.9-.966c7.644,1.708,16.414,12.482,16.414,12.482" transform="translate(-239.958 -47.43)" fill="#8c6df2"/>
            <path id="Trazado_115354" data-name="Trazado 115354" d="M606.16,139.082l7.032-4.012S610,121.609,604.3,121.178Z" transform="translate(-272.753 -54.694)" fill="#fec372"/>
            <path id="Trazado_115355" data-name="Trazado 115355" d="M550.051,341.315s-.6,6.058-2.13,7.17-3.578,5.227-2.556,7.452a2.575,2.575,0,0,0,1.687,1.321,4.473,4.473,0,0,0,5.364-2.513,12.748,12.748,0,0,0,1.053-4.619c.23-4.921,1.763-7.424,1.763-7.424Z" transform="translate(-246.026 -154.052)" fill="#fee783"/>
            <path id="Trazado_115356" data-name="Trazado 115356" d="M596.355,345.833s.483,6.113.091,8.1c-.21,1.064-1.38,3.253-.843,4.254a2.686,2.686,0,0,0,1.15,1.251l13.912.224c.758.012.257-.475-.354-.923a28.058,28.058,0,0,0-5-2.761c-.208-.1-.967-.582-1.24-.749a9.643,9.643,0,0,1-1.991-1.754c-1-1.11-1.086-6.493-1.086-6.493Z" transform="translate(-268.762 -156.091)" fill="#fee783"/>
            <path id="Trazado_115357" data-name="Trazado 115357" d="M605.976,196.489s1.752,9.924.6,16.43-6.672,66.813-6.672,66.813l-6.136.345s-1.286-25.191-1.056-28.694a54.2,54.2,0,0,1,2.051-9.366l-.611-20.34,7.742-26.72Z" transform="translate(-267.509 -87.994)" fill="#fdb74d"/>
            <path id="Trazado_115358" data-name="Trazado 115358" d="M569.913,192.092s-4.831,7.256-5.981,13.263.844,24.462-1.368,32.332c-1.2,4.26-5.737,10.84-6.427,16.344s-3.4,19.926-3.4,19.926l6.133,1.213,14.252-36.014L584.3,206.605l2.864-16.765Z" transform="translate(-249.478 -85.684)" fill="#fedc66"/>
            <path id="Trazado_115359" data-name="Trazado 115359" d="M584.982,118.689a11.991,11.991,0,0,0-5.779,2.962c-5.291,5.179,3.109,25.15,3.569,28.653S579,161.98,579,161.98s15.808,2.922,20.1.085c0,0,.505-28.109.045-30.612s-5.608-10.225-6.528-11.226-7.638-1.538-7.638-1.538" transform="translate(-260.636 -53.57)" fill="#ffc46e"/>
            <path id="Trazado_115360" data-name="Trazado 115360" d="M593.121,103.026s-.033.188-.093.508c-.285,1.535-1.383,6.626-2.125,8.025-.9,1.691,3.07,7.086,6.887,6.428,1.137-.2-.96-4.957-.86-5.461.193-.965.455-2.282.723-3.632l.447-2.26c.408-2.063.741-3.75.741-3.75Z" transform="translate(-266.646 -46.437)" fill="#f7d8ba"/>
            <path id="Trazado_115361" data-name="Trazado 115361" d="M594.739,103.533c.059-.32.093-.508.093-.508l5.72-.142s-.333,1.687-.741,3.75c-.143.722-.295,1.49-.445,2.247a5.365,5.365,0,0,1-2.731-1.367,7.2,7.2,0,0,1-2.069-3.07c.07-.361.13-.672.173-.91" transform="translate(-268.357 -46.436)" fill="#fdb74d"/>
            <path id="Trazado_115362" data-name="Trazado 115362" d="M596.462,78.361a6.752,6.752,0,0,0-4.023,2.5c-1.69,2.182-3.511,8.928.687,12.6s8.346-.484,8.961-4.886.491-10.373-5.625-10.214" transform="translate(-266.547 -35.367)" fill="#f7d8ba"/>
            <path id="Trazado_115363" data-name="Trazado 115363" d="M612.131,92.261c-.5.972-1.342,1.51-1.879,1.2s-.565-1.346-.064-2.318,1.342-1.51,1.879-1.2.565,1.346.064,2.318" transform="translate(-275.247 -40.556)" fill="#f7d8ba"/>
            <path id="Trazado_115364" data-name="Trazado 115364" d="M595.137,78.122s-3.6,6.415-6.179,6.712-2.915,3.705-2.915,3.705.921-7.854,3.472-9.369a9.493,9.493,0,0,1,5.622-1.047" transform="translate(-264.51 -35.23)" fill="#281665"/>
            <path id="Trazado_115365" data-name="Trazado 115365" d="M590.674,91.708c.21,1.139-.212,2.184-.942,2.333s-1.491-.653-1.7-1.792.212-2.184.942-2.333,1.491.652,1.7,1.792" transform="translate(-265.384 -40.576)" fill="#f7d8ba"/>
            <path id="Trazado_115366" data-name="Trazado 115366" d="M552.833,361.511a6.86,6.86,0,0,1-6.723-2.8c-.849,1.655-1.37,3.72-.746,5.079.55,1.2,2.049,1.524,3.315,1.571a3.594,3.594,0,0,0,3.255-1.814,11.146,11.146,0,0,0,.9-2.033" transform="translate(-246.026 -161.902)" fill="#4c3599"/>
            <path id="Trazado_115367" data-name="Trazado 115367" d="M604.041,362.7a12.617,12.617,0,0,1-7.92-.311c-.393,1.109-.912,2.5-.636,3.3.337.983.819,1.205,1.243,1.216,3.361.088,12.31.208,14.873.241a.418.418,0,0,0,.325-.687c-.635-.757-7.61-3.6-7.884-3.765" transform="translate(-268.736 -163.564)" fill="#4c3599"/>
            <path id="Trazado_115368" data-name="Trazado 115368" d="M566.919,141.719l9.836,1.183s3.646-9.679,2.969-14.765-2.59-5.6-3.658-5.567c-2.962.1-5.779,4.044-7.7,10.208s-1.443,8.941-1.443,8.941" transform="translate(-255.854 -55.321)" fill="#fec372"/>
            <path id="Trazado_115369" data-name="Trazado 115369" d="M565.215,348.783s-.323,5.707-.325,5.718c-.119.725-.587,2.515-.587,3.173,0,2.474,11.009-2.1,8.542-3.2-.223-.1-1.393-.85-1.467-1.692-.114-1.3-.4-3.922-.4-3.922Z" transform="translate(-254.698 -157.423)" fill="#fee783"/>
            <path id="Trazado_115370" data-name="Trazado 115370" d="M572.617,359.036a39.561,39.561,0,0,1-3.909.946c-1.324.19-3.069-1.4-4.005-.973-1.03.473-.83,6.057-.83,6.057s14.416,1.126,18.314-.129c1.544-.5-4.287-4.137-9.571-5.9" transform="translate(-254.497 -162.005)" fill="#5038a1"/>
            <path id="Trazado_115371" data-name="Trazado 115371" d="M521.007,348.783s-.323,5.707-.325,5.718c-.118.725-.586,2.515-.586,3.173,0,2.474,11.009-2.1,8.541-3.2-.223-.1-1.74-1.41-1.813-2.252-.113-1.3-.053-3.362-.053-3.362Z" transform="translate(-234.745 -157.423)" fill="#fee783"/>
            <path id="Trazado_115372" data-name="Trazado 115372" d="M528.039,359.036a39.553,39.553,0,0,1-3.909.946c-1.324.19-3.07-1.4-4.006-.973-1.03.473-1.3,5.937-1.3,5.937s15.3,1.417,18.767.413c1.558-.45-4.274-4.56-9.557-6.323" transform="translate(-234.173 -162.005)" fill="#5038a1"/>
            <path id="Trazado_115373" data-name="Trazado 115373" d="M541.742,198.638l4.654,2.008,9.791,46.757-.4,35.051-7.849.183s-3.651-30.661-3.651-33.037-16.909-41.582-16.909-41.582Z" transform="translate(-238.034 -89.655)" fill="#4c3793"/>
            <path id="Trazado_115374" data-name="Trazado 115374" d="M531.968,202.038s-1.3,35.469-1.3,41.542-1.853,40.211-1.853,40.211l-10.922.357s-.567-10.36-1.411-25.6c-.132-2.387.17-7.2,0-9.674-1.224-17.772-3.645-34.5-2.489-41.135.186-1.067.536-3.859,1.217-4.563,5.152-5.33,16.759-1.138,16.759-1.138" transform="translate(-231.853 -90.483)" fill="#7a64c0"/>
            <path id="Trazado_115375" data-name="Trazado 115375" d="M514.955,104.919s-5.429.755-6.858,1.8a19.18,19.18,0,0,0-3.395,3.826s6.664,31.506,6.677,36.807c.009,4.1-1.443,14.173-1.443,14.173s20.142,1.271,27.77-1.74c0,0-2.409-11.978-2.409-15.122s-2.881-31.745-3.537-33.743c-.595-1.812-1.682-5.068-5.363-5.872s-11.443-.134-11.443-.134" transform="translate(-227.797 -47.237)" fill="#fdb74d"/>
            <path id="Trazado_115376" data-name="Trazado 115376" d="M548.613,160.644l.13.751a.71.71,0,0,0,.821.579l15.568-2.7a.71.71,0,0,0,.579-.821l-.13-.751a.711.711,0,0,0-.821-.579l-15.568,2.7a.71.71,0,0,0-.579.821" transform="translate(-247.612 -70.914)" fill="#291765"/>
            <path id="Trazado_115377" data-name="Trazado 115377" d="M502.894,112.529c1.826-.053,3.442,12,2.284,13.184s-1.379,16.028-1.379,16.028l17.232-.429,0,.006c.336-.226,3.946-2.649,4.462-3.179.542-.556,3.172-.278,3.868.486s-1.547.139-2.166.556.465,1.459.465,1.459,4.367.634,5.218-.269,3.126-2.433,3.434-1.53c.16.466-1.013,1.879-1.673,2.471.824-.617,1.812-1.273,2.15-1.159.619.208.361,1,.026,1.228s-3.8,2.878-4.343,3.064-8.592.38-9.985.689c0,0-22.724,5.175-24.015,4.852-1.133-.284-2.267-7.557-2.267-13.128s.98-24.163,6.688-24.328" transform="translate(-223.962 -50.79)" fill="#f7d8ba"/>
            <path id="Trazado_115378" data-name="Trazado 115378" d="M503.394,107.519a13.884,13.884,0,0,0-6.463,4.422c-2.986,3.356-4.867,22.147-4.867,22.147l10.311,1.667.823-9.089,2.755-4.158Z" transform="translate(-222.093 -48.529)" fill="#fdb74d"/>
            <path id="Trazado_115379" data-name="Trazado 115379" d="M603.331,120.035a2.633,2.633,0,0,1,2.062-.688,5.493,5.493,0,0,1,3.347,2.4,10.3,10.3,0,0,1-1.084,3.333c-.216.322-.714.482-.889.313-.115-.111.005-.674.037-.795.063-.236.509-1.766.509-1.766s-.868,1.542-1.272,1.636a.461.461,0,0,1-.6-.362,9.737,9.737,0,0,1,.8-1.908s-1.017,1.492-1.515,1.335-.292-.688-.217-.867.77-1.21.77-1.21-1.1,1.526-1.318.979c-.131-.332.589-1.778.589-1.778Z" transform="translate(-272.313 -53.864)" fill="#f7d8ba"/>
            <path id="Trazado_115380" data-name="Trazado 115380" d="M521.392,91.2l.847,8.521s4.121,5.449,6.7,4.243c2.164-1.012,1.143-4.39,1.143-4.39s-.375-1.509-.894-3.243a12.581,12.581,0,0,1-.642-3.487c.054-2.341-7.153-1.644-7.153-1.644" transform="translate(-235.33 -41.118)" fill="#f7d8ba"/>
            <path id="Trazado_115381" data-name="Trazado 115381" d="M529.174,96.281a12.423,12.423,0,0,1-.629-3.441c.054-2.341-7.153-1.644-7.153-1.644l.1,1.053a2.919,2.919,0,0,0,.146.335c1.518,2.944,5.133,4.495,7.531,3.7" transform="translate(-235.33 -41.118)" fill="#fdb74d"/>
            <path id="Trazado_115382" data-name="Trazado 115382" d="M538.542,67.6s.841,4.817-.351,8.039A17.775,17.775,0,0,1,535.4,80.71l-3.785-12.978Z" transform="translate(-239.942 -30.509)" fill="#5038a1"/>
            <path id="Trazado_115383" data-name="Trazado 115383" d="M543.485,79.673c-.37,1.149-1.211,1.906-1.879,1.691s-.909-1.321-.539-2.469,1.211-1.906,1.879-1.691.909,1.321.539,2.469" transform="translate(-244.132 -34.829)" fill="#f7d8ba"/>
            <path id="Trazado_115384" data-name="Trazado 115384" d="M523.349,67.489c-.165-.118-4.153,9.033-2.445,12.346s6.072,4.861,8.368,3.284c2.54-1.745,5.51-11.339,2.464-15.112s-8.387-.517-8.387-.517" transform="translate(-234.918 -29.872)" fill="#f7d8ba"/>
            <path id="Trazado_115385" data-name="Trazado 115385" d="M521.556,57.292a16.035,16.035,0,0,0-7.1,4.309c-3.382,3.14-1.8,8.62.3,11.444a19.92,19.92,0,0,1,2.889,5.365s-.279-3.208-.3-3.9c-.015-.613-.016-2.695-.113-3.287-.256-1.56-.3-1.891.6-2.875.689-.758,1.2-2.87,2.306-4.132l4.125.837a8.614,8.614,0,0,0,4.4-.386c5.148-2.448.314-9.809-7.112-7.376" transform="translate(-231.314 -25.639)" fill="#5038a1"/>
            <path id="Trazado_115386" data-name="Trazado 115386" d="M520.977,78.7c.025,1.206-.524,2.2-1.226,2.212s-1.29-.952-1.315-2.159.524-2.2,1.226-2.211,1.29.952,1.315,2.158" transform="translate(-233.996 -34.546)" fill="#f7d8ba"/>
            <path id="Trazado_115387" data-name="Trazado 115387" d="M506.011,125.965l.877-3.989a16.963,16.963,0,0,1,4.545,4.423c1.674,2.6,2.472,9.539,2.95,9.8s5.775-7.9,6.7-9.188c1.146-1.591,1.574-3.418,2.291-4.805s3.244-1.86,4.2-1.687-1.314,4.232-1.314,4.232-5.74,9.973-7.654,15.436-7.892,8.065-8.85,7.285-3.747-21.507-3.747-21.507" transform="translate(-228.388 -54.381)" fill="#f7d8ba"/>
            <path id="Trazado_115388" data-name="Trazado 115388" d="M537.706,123.442s.239-1.05.883-1.265a4.5,4.5,0,0,1,1.838,0,13.489,13.489,0,0,0,1.312-.644l-1.026,1.909s-2,2.363-2.673,1.48-.334-1.48-.334-1.48" transform="translate(-242.656 -54.854)" fill="#f7d8ba"/>
            <path id="Trazado_115389" data-name="Trazado 115389" d="M545.125,121.692a24.14,24.14,0,0,1,.541,4.455c-.184.774-.645.359-.732.191a14.6,14.6,0,0,1-.6-3.055Z" transform="translate(-245.683 -54.926)" fill="#f7d8ba"/>
            <path id="Trazado_115390" data-name="Trazado 115390" d="M542.937,126.358a8.577,8.577,0,0,0,.7,2.553c.23.175.525.072.62-.39a22.788,22.788,0,0,0-.461-3.278Z" transform="translate(-245.054 -56.529)" fill="#f7d8ba"/>
            <path id="Trazado_115391" data-name="Trazado 115391" d="M538.1,129.995l-1.2-.585L542,118.94a1.336,1.336,0,0,1,.616,1.787Z" transform="translate(-242.33 -53.683)" fill="#5038a1"/>
            <path id="Trazado_115392" data-name="Trazado 115392" d="M480.192,88.064c.72-3.273,1.426-6.568-.473-10.165a9.235,9.235,0,0,0-7.267-4.95c-8.71-1.034-6.848,7.1-19.022,8.859-3.783.548-7.3,1.073-10.456,2.954-5.7,3.4-7.856,8.846-4.074,17.725,9.261,21.739,31.994,3.284,34.8-1,2.089-3.185,6.027-11.318,6.491-13.425" transform="translate(-197.243 -32.884)" fill="#281665"/>
            <path id="Trazado_115393" data-name="Trazado 115393" d="M447.984,350.859s-.62,6.3-2.214,7.454-3.72,5.434-2.658,7.747a2.677,2.677,0,0,0,1.753,1.374,4.649,4.649,0,0,0,5.577-2.613,13.256,13.256,0,0,0,1.095-4.8c.239-5.117,1.834-7.718,1.834-7.718Z" transform="translate(-199.869 -158.36)" fill="#fee783"/>
            <path id="Trazado_115394" data-name="Trazado 115394" d="M496.123,355.557s.5,6.354.095,8.42c-.219,1.106-1.435,3.382-.877,4.423a2.793,2.793,0,0,0,1.2,1.3l14.464.233c.787.013.267-.493-.369-.959a29.163,29.163,0,0,0-5.2-2.871c-.217-.1-1.006-.605-1.29-.779a10,10,0,0,1-2.069-1.824c-1.039-1.154-1.129-6.75-1.129-6.75Z" transform="translate(-223.506 -160.48)" fill="#fee783"/>
            <path id="Trazado_115395" data-name="Trazado 115395" d="M506.125,200.292s1.822,10.317.625,17.082-6.936,69.461-6.936,69.461l-6.378.359s-1.337-26.19-1.1-29.832a56.379,56.379,0,0,1,2.132-9.737l-.635-21.145,8.049-27.779Z" transform="translate(-222.204 -89.683)" fill="#fdb74d"/>
            <path id="Trazado_115396" data-name="Trazado 115396" d="M468.632,195.721s-5.022,7.544-6.218,13.788.877,25.432-1.423,33.614c-1.245,4.429-5.965,11.269-6.683,16.993s-3.532,20.715-3.532,20.715l6.376,1.261L471.97,244.65l11.623-33.842,2.977-17.43Z" transform="translate(-203.458 -87.281)" fill="#fedc66"/>
            <path id="Trazado_115397" data-name="Trazado 115397" d="M484.458,119.409s-4.4.5-7.029,3.361,4.253,25.864,4.731,29.507-3.92,12.138-3.92,12.138,16.435,3.038,20.9.089c0,0,.478-26.19,0-28.792s-4.464-13.182-5.421-14.223-9.26-2.081-9.26-2.081" transform="translate(-215.218 -53.895)" fill="#4c3793"/>
            <path id="Trazado_115398" data-name="Trazado 115398" d="M479.074,128.19a2.31,2.31,0,0,1,3.116-1.363,10.042,10.042,0,0,1,5.188,4.515c1.913,3.989,8.611,17.691,10.683,18.211s10.524-14.222,10.524-14.222a9.676,9.676,0,0,1,.478-4.076c.718-1.474,2.87-3.035,3.189-2.515s-1.2,1.822-1.2,2.082.638.433,1.515-.087a3.941,3.941,0,0,0,1.352-1.572,5.18,5.18,0,0,1-.076,4.954c-1.515,2.342-2.153,3.3-2.153,3.3s-9.806,21.767-13.394,22.027c-3.341.242-22.584-21.1-19.226-31.249" transform="translate(-216.053 -57.156)" fill="#f7d8ba"/>
            <path id="Trazado_115399" data-name="Trazado 115399" d="M492.76,103.124s-.035.2-.1.528c-.3,1.6-1.439,6.889-2.21,8.344-.932,1.758,3.191,7.367,7.16,6.683,1.181-.2-1-5.153-.894-5.677.2-1,.472-2.373.751-3.777l.465-2.349c.425-2.145.771-3.9.771-3.9Z" transform="translate(-221.306 -46.478)" fill="#f7d8ba"/>
            <path id="Trazado_115400" data-name="Trazado 115400" d="M494.443,103.652c.061-.332.1-.528.1-.528l5.947-.148s-.346,1.754-.77,3.9l-.463,2.336a5.577,5.577,0,0,1-2.839-1.42,7.49,7.49,0,0,1-2.151-3.193c.074-.375.134-.7.18-.946" transform="translate(-223.085 -46.478)" fill="#fdb74d"/>
            <path id="Trazado_115401" data-name="Trazado 115401" d="M496.235,77.481a7.016,7.016,0,0,0-4.182,2.6c-1.757,2.268-3.651,9.281.714,13.094s8.677-.5,9.316-5.079.51-10.784-5.848-10.619" transform="translate(-221.203 -34.97)" fill="#f7d8ba"/>
            <path id="Trazado_115402" data-name="Trazado 115402" d="M512.524,91.932c-.521,1.011-1.4,1.57-1.953,1.25s-.588-1.4-.067-2.41,1.4-1.57,1.953-1.25.588,1.4.066,2.41" transform="translate(-230.248 -40.365)" fill="#f7d8ba"/>
            <path id="Trazado_115403" data-name="Trazado 115403" d="M494.856,77.233s-3.745,6.669-6.424,6.978-3.031,3.852-3.031,3.852.958-8.166,3.609-9.74a9.867,9.867,0,0,1,5.845-1.089" transform="translate(-219.086 -34.827)" fill="#281665"/>
            <path id="Trazado_115404" data-name="Trazado 115404" d="M490.217,91.357c.218,1.185-.221,2.27-.979,2.426s-1.549-.679-1.767-1.863.22-2.27.978-2.426,1.55.679,1.768,1.863" transform="translate(-219.994 -40.385)" fill="#f7d8ba"/>
            <path id="Trazado_115405" data-name="Trazado 115405" d="M450.876,371.855a7.133,7.133,0,0,1-6.99-2.915c-.883,1.721-1.424,3.868-.775,5.281.572,1.245,2.13,1.585,3.446,1.634a3.738,3.738,0,0,0,3.385-1.886,11.564,11.564,0,0,0,.934-2.114" transform="translate(-199.869 -166.521)" fill="#4c3599"/>
            <path id="Trazado_115406" data-name="Trazado 115406" d="M504.113,373.092a13.118,13.118,0,0,1-8.234-.323c-.408,1.154-.949,2.6-.662,3.436.352,1.022.852,1.253,1.293,1.265,3.494.092,12.8.216,15.462.251a.435.435,0,0,0,.338-.714c-.661-.787-7.912-3.74-8.2-3.914" transform="translate(-223.48 -168.249)" fill="#4c3599"/>
            <path id="Trazado_115407" data-name="Trazado 115407" d="M738.044,207.187s-.038-.027-.105-.074a5.667,5.667,0,0,0-2.045-.946,8.779,8.779,0,0,0-1.818.044l1.485,1.685Z" transform="translate(-331.325 -93.039)" fill="#fee783"/>
            <path id="Trazado_115408" data-name="Trazado 115408" d="M742.817,295.912a1.323,1.323,0,0,1-1.323-1.323,31.893,31.893,0,0,1,52.489-24.351,1.324,1.324,0,0,1-1.711,2.021,29.246,29.246,0,0,0-48.131,22.331,1.324,1.324,0,0,1-1.324,1.323" transform="translate(-334.673 -118.568)" fill="#fedc66"/>
            <path id="Trazado_115409" data-name="Trazado 115409" d="M685.54,282.111a1.1,1.1,0,0,1-.964-.565L660.24,238.029a1.1,1.1,0,1,1,1.926-1.077l25.218,43.4c.3.532-.775,1.326-1.307,1.623a1.1,1.1,0,0,1-.537.14" transform="translate(-297.936 -106.693)" fill="#fdb74d"/>
            <path id="Trazado_115410" data-name="Trazado 115410" d="M703.831,243.23h0a1.1,1.1,0,0,0-1.3-1.151L656.2,250.633c-21.361,36.8-20.233,34.345-19.822,35.145.585,1.138-.5.336,40.467,1.047,27.374-43.963,26.955-43.035,26.989-43.6m-28.2,41.375-36.366-.413L657.6,252.619l42.877-7.917Z" transform="translate(-287.157 -109.254)" fill="#fdb74d"/>
            <g id="Grupo_80733" data-name="Grupo 80733" transform="translate(419.086 167.026)" opacity="0.57">
              <g id="Grupo_80732" data-name="Grupo 80732">
                <g id="Grupo_80731" data-name="Grupo 80731" clip-path="url(#clip-path-8)">
                  <path id="Trazado_115411" data-name="Trazado 115411" d="M783.007,332.586a19.182,19.182,0,0,1-19.16-19.16,18.949,18.949,0,0,1,2.113-8.755.441.441,0,1,1,.784.4,18.08,18.08,0,0,0-2.015,8.352A18.286,18.286,0,0,0,790.6,330.054a.441.441,0,0,1,.367.8,19.01,19.01,0,0,1-7.965,1.729" transform="translate(-763.848 -304.431)" fill="#9c7efc"/>
                </g>
              </g>
            </g>
            <path id="Trazado_115412" data-name="Trazado 115412" d="M775.539,325.833A28.237,28.237,0,1,1,803.776,297.6a28.269,28.269,0,0,1-28.237,28.237m0-52.945A24.707,24.707,0,1,0,800.247,297.6a24.736,24.736,0,0,0-24.707-24.707" transform="translate(-337.294 -121.575)" fill="#4c3793"/>
            <g id="Grupo_80736" data-name="Grupo 80736" transform="translate(416.332 154.108)" opacity="0.57">
              <g id="Grupo_80735" data-name="Grupo 80735">
                <g id="Grupo_80734" data-name="Grupo 80734" clip-path="url(#clip-path-9)">
                  <path id="Trazado_115413" data-name="Trazado 115413" d="M780.742,324.711A21.913,21.913,0,1,1,802.655,302.8a21.938,21.938,0,0,1-21.913,21.913m0-42.944a21.031,21.031,0,1,0,21.03,21.031,21.055,21.055,0,0,0-21.03-21.031" transform="translate(-758.829 -280.885)" fill="#9c7efc"/>
                </g>
              </g>
            </g>
            <path id="Trazado_115414" data-name="Trazado 115414" d="M766.776,270.592a1.1,1.1,0,0,1-.968-.572l-29.7-54.057a3.519,3.519,0,0,1-.434-1.692v-3.505c0-.689-.158-1.4-.357-1.51a2.5,2.5,0,0,0-1.624.388l-5.173,3.1a1.1,1.1,0,1,1-1.135-1.891l5.172-3.1a4.45,4.45,0,0,1,4.023-.314c1.116.632,1.3,2.045,1.3,3.328v3.505a1.31,1.31,0,0,0,.161.63l29.7,54.057a1.1,1.1,0,0,1-.966,1.634" transform="translate(-328.061 -93.468)" fill="#5038a1"/>
            <path id="Trazado_115415" data-name="Trazado 115415" d="M693.314,164.99c-.7-1.454-2.528-8.381-2.528-8.381l-11.507.731s5.454,11.973,6.585,14.3c3.183,2.854,16.095,11.55,17.3,12.522a8.152,8.152,0,0,1,1.823,1.945c.9,1.6,1.164,2.361,2,3.924.946,1.779,6.529-.971,6.529-2.539,0-1.079-2.192-2.843-3.93-4.275-.786-.647-15.643-16.921-16.268-18.229" transform="translate(-306.592 -70.685)" fill="#f7d8ba"/>
            <path id="Trazado_115416" data-name="Trazado 115416" d="M683.358,119.97c-2.909.94-4.879,3.01-4.057,11.536a84.564,84.564,0,0,0,2.743,14.855s8.36,1.305,13.29-2.037c0,0-1.975-27.587-11.976-24.354" transform="translate(-306.517 -54.03)" fill="#fdb74d"/>
            <path id="Trazado_115417" data-name="Trazado 115417" d="M615.066,325.833A28.237,28.237,0,1,1,643.3,297.6a28.269,28.269,0,0,1-28.237,28.237m0-52.945A24.707,24.707,0,1,0,639.774,297.6a24.736,24.736,0,0,0-24.708-24.707" transform="translate(-264.865 -121.575)" fill="#4c3793"/>
            <path id="Trazado_115418" data-name="Trazado 115418" d="M620.268,324.711A21.913,21.913,0,1,1,642.181,302.8a21.938,21.938,0,0,1-21.913,21.913m0-42.944A21.031,21.031,0,1,0,641.3,302.8a21.055,21.055,0,0,0-21.031-21.031" transform="translate(-270.067 -126.777)" fill="#9c7efc"/>
            <path id="Trazado_115419" data-name="Trazado 115419" d="M622.533,332.586a19.182,19.182,0,0,1-19.16-19.16,18.956,18.956,0,0,1,2.113-8.755.441.441,0,1,1,.785.4,18.08,18.08,0,0,0-2.015,8.352,18.286,18.286,0,0,0,25.875,16.628.441.441,0,0,1,.367.8,19.01,19.01,0,0,1-7.965,1.729" transform="translate(-272.332 -137.405)" fill="#9c7efc"/>
            <path id="Trazado_115420" data-name="Trazado 115420" d="M651.6,292.71a.441.441,0,0,1-.323-.14,18.347,18.347,0,0,0-13.34-5.784.441.441,0,1,1,0-.882,19.231,19.231,0,0,1,13.984,6.063.441.441,0,0,1-.322.743" transform="translate(-287.731 -129.043)" fill="#9c7efc"/>
            <path id="Trazado_115421" data-name="Trazado 115421" d="M642.943,272.571a1.32,1.32,0,0,1-.855-.313,29.255,29.255,0,0,0-35.17-1.966,1.324,1.324,0,1,1-1.476-2.2,31.9,31.9,0,0,1,38.357,2.143,1.324,1.324,0,0,1-.856,2.333" transform="translate(-273.001 -118.567)" fill="#fedc66"/>
            <path id="Trazado_115422" data-name="Trazado 115422" d="M638.014,313.423a.34.34,0,0,1-.015-.68l38.877-1.8a.34.34,0,0,1,.032.68l-38.877,1.8h-.016" transform="translate(-287.814 -140.343)" fill="#5038a1"/>
            <path id="Trazado_115423" data-name="Trazado 115423" d="M677.444,328.667h-.016L638,326.866a.34.34,0,0,1,.031-.68l39.429,1.8a.34.34,0,0,1-.015.68" transform="translate(-287.814 -147.223)" fill="#5038a1"/>
            <path id="Trazado_115424" data-name="Trazado 115424" d="M697.6,315.612a6.337,6.337,0,1,0,6.337-6.337,6.337,6.337,0,0,0-6.337,6.337" transform="translate(-314.863 -139.591)" fill="#9c7efc"/>
            <path id="Trazado_115425" data-name="Trazado 115425" d="M717.836,336.323a.441.441,0,0,1-.376-.209L708.416,321.5a.441.441,0,0,1,.751-.464l9.044,14.615a.441.441,0,0,1-.374.673" transform="translate(-319.713 -144.804)" fill="#9c7efc"/>
            <path id="Trazado_115426" data-name="Trazado 115426" d="M716.067,348.55a.883.883,0,0,1-.128-1.756l9.707-1.434a.882.882,0,1,1,.258,1.746l-9.707,1.434a.864.864,0,0,1-.13.009" transform="translate(-322.798 -155.874)" fill="#5038a1"/>
            <path id="Trazado_115427" data-name="Trazado 115427" d="M648.236,234.579h8.606A1.156,1.156,0,0,1,658,235.735v1.383a1.156,1.156,0,0,1-1.156,1.157H645.976a1.153,1.153,0,0,1-1.048-1.649,3.7,3.7,0,0,1,3.308-2.046" transform="translate(-291.034 -105.877)" fill="#5038a1"/>
            <path id="Trazado_115428" data-name="Trazado 115428" d="M634.419,321.661a4.712,4.712,0,1,1,4.712-4.712,4.717,4.717,0,0,1-4.712,4.712" transform="translate(-284.218 -140.928)" fill="#5038a1"/>
            <path id="Trazado_115429" data-name="Trazado 115429" d="M630.947,317.509a4.031,4.031,0,1,0,4.031-4.032,4.032,4.032,0,0,0-4.031,4.032" transform="translate(-284.778 -141.488)" fill="#7a64c0"/>
            <path id="Trazado_115430" data-name="Trazado 115430" d="M638.5,319.887a1.14,1.14,0,1,1-1.14-1.14,1.14,1.14,0,0,1,1.14,1.14" transform="translate(-287.156 -143.866)" fill="#7048fe"/>
            <path id="Trazado_115431" data-name="Trazado 115431" d="M791.421,317.509a4.031,4.031,0,1,0,4.031-4.032,4.032,4.032,0,0,0-4.031,4.032" transform="translate(-357.207 -141.488)" fill="#7a64c0"/>
            <path id="Trazado_115432" data-name="Trazado 115432" d="M798.972,319.887a1.14,1.14,0,1,1-1.141-1.14,1.14,1.14,0,0,1,1.141,1.14" transform="translate(-359.586 -143.866)" fill="#7048fe"/>
            <path id="Trazado_115433" data-name="Trazado 115433" d="M737.1,206.212a4.042,4.042,0,0,0-3.093-1.181c-1.879.15-.965,1.613-.965,1.679s3.193,1.6,3.193,1.6-.6-1.557-.166-1.813a2.6,2.6,0,0,1,1.031-.283" transform="translate(-330.758 -92.535)" fill="#f7d8ba"/>
            <path id="Trazado_115434" data-name="Trazado 115434" d="M694.242,346.986s-.334,5.879-.335,5.891c-.122.747-.6,2.591-.6,3.269,0,2.55,11.343-2.164,8.8-3.294-.23-.1-1.436-.876-1.511-1.743-.116-1.337-.412-4.041-.412-4.041Z" transform="translate(-312.922 -156.612)" fill="#fee783"/>
            <path id="Trazado_115435" data-name="Trazado 115435" d="M701.8,357.549a41,41,0,0,1-4.026.975c-1.364.195-3.162-1.447-4.127-1-1.062.488-.955,5.294-.955,5.294s14.215.838,18.231-.456c1.591-.512-3.678-2.993-9.122-4.809" transform="translate(-312.643 -161.332)" fill="#5038a1"/>
            <path id="Trazado_115436" data-name="Trazado 115436" d="M648.7,348.014s-.333,5.879-.335,5.891c-.122.747-.6,2.591-.6,3.269,0,2.549,11.342-2.164,8.8-3.294-.23-.1-1.793-1.453-1.869-2.321-.116-1.337-.055-3.464-.055-3.464Z" transform="translate(-292.365 -157.076)" fill="#fee783"/>
            <path id="Trazado_115437" data-name="Trazado 115437" d="M656.13,358.577a40.957,40.957,0,0,1-4.027.975c-1.364.195-3.162-1.447-4.127-1-1.062.488-1.1,4.881-1.1,4.881s15.2,1.1,18.769.068c1.605-.465-4.068-3.1-9.512-4.92" transform="translate(-291.966 -161.796)" fill="#5038a1"/>
            <path id="Trazado_115438" data-name="Trazado 115438" d="M670.058,193.324l2.106,3.2,12.776,47.037-.409,36.113-8.086.188s-3.761-31.59-3.761-34.038-17.421-42.84-17.421-42.84Z" transform="translate(-295.753 -87.257)" fill="#4c3793"/>
            <path id="Trazado_115439" data-name="Trazado 115439" d="M663.352,197.168s-6.9,36.711-6.9,42.968-2.865,41.271-2.865,41.271l-8.105-.047s-.585-10.673-1.454-26.374c-.136-2.459.175-7.421,0-9.967-1.261-18.311-3.755-31.443-2.564-38.276.192-1.1,3.02-8.373,3.721-9.1,5.308-5.491,18.161-.477,18.161-.477" transform="translate(-289.385 -88.047)" fill="#7a64c0"/>
            <path id="Trazado_115440" data-name="Trazado 115440" d="M678.86,93.5a20.173,20.173,0,0,0-2.428-3.425,10.607,10.607,0,0,1-2.2-8.082,6.587,6.587,0,0,1,4.889-5.62c1.563-.432,7.427-.41,9.39.554s.953,8.425.953,8.425l-3.126,5.754Z" transform="translate(-304.278 -34.35)" fill="#4c3793"/>
            <path id="Trazado_115441" data-name="Trazado 115441" d="M673.939,119.218c.134.133,3.861,8.277,3.151,14.13-1.3,10.7-6.749,28.142-8.713,28.734-15.742,4.745-21.506,1.2-21.506,1.2s6.24-32.466,9.844-39.819c1.5-3.059,3.334-5.665,6.806-6.208.794-.123,7.358-1.093,10.418,1.966" transform="translate(-291.965 -52.812)" fill="#fedc72"/>
            <path id="Trazado_115442" data-name="Trazado 115442" d="M688.912,104.78l.7,6.419s.162,1.79-.73,2.5c-1.536,1.219-7.268-4.936-7.268-4.936l.627-10.1Z" transform="translate(-307.645 -44.531)" fill="#f7d8ba"/>
            <path id="Trazado_115443" data-name="Trazado 115443" d="M682.409,101.7a9.9,9.9,0,0,0,7.221,6.371l-.358-3.29L682.6,98.661Z" transform="translate(-308.005 -44.531)" fill="#fdb74d"/>
            <path id="Trazado_115444" data-name="Trazado 115444" d="M684.663,79.813a5.161,5.161,0,0,1,6.951,3.773,38.935,38.935,0,0,1,.664,4.928c.306,4.5-1.808,9-3.854,9.1s-7.845-2.534-8.367-8.919c-.323-3.943,1.47-7.628,4.607-8.885" transform="translate(-306.926 -35.858)" fill="#f7d8ba"/>
            <path id="Trazado_115445" data-name="Trazado 115445" d="M680.457,95.673a1.5,1.5,0,1,1-1.562-1.727,1.662,1.662,0,0,1,1.562,1.727" transform="translate(-305.794 -42.402)" fill="#f7d8ba"/>
            <path id="Trazado_115446" data-name="Trazado 115446" d="M679.788,84.055a16.012,16.012,0,0,1-.248-4.2c.2-2.062,1.906-4.955,4-5.388s6.981.366,7.613-.965.632-1.2.848-1.405c.492-.473,3.423,1.494,3.29,4.986s-3.215,3.37-3.814,3.47-6.053-2.2-7.716-2.1-3.976,5.6-3.976,5.6" transform="translate(-306.687 -32.51)" fill="#4c3793"/>
            <path id="Trazado_115447" data-name="Trazado 115447" d="M623.162,43.667c-.365,2.865-.816,2.683-.853,3.052a59.168,59.168,0,0,0,2.575,5.692s7.62,15.543,8.06,16.368L646.5,80.209l-3.512,8.442s-14.429-12.833-15.071-13.638S619.336,52,618.577,50.067c0,0-1.729-1.974-2.776-3.25a14.393,14.393,0,0,1-1.735-3.362,15.158,15.158,0,0,1-1.22-3.413c-.392-1.687.729-.26.729-.26s1.272,3,1.483,2.859c.163-.109-.625-1.706-1.078-3.567-.116-.479-.229-.952-.33-1.387-.264-1.143.34-1.626.8-.472a12.123,12.123,0,0,1,.533,1.6,9.953,9.953,0,0,0,.584,1.473,13.288,13.288,0,0,0,.612,1.514c.036-.044.226.085.117-.427-.13-.616-.687-1.864-.811-2.784-.07-.521-.281-1.6-.281-1.6a10.507,10.507,0,0,1,.074-1.724c.519-.179.851.976.856,1.7a8.128,8.128,0,0,1,.423,1.6s.888,2.231,1.2,2.111a27.493,27.493,0,0,0-.421-2.947c-.153-1.358-.093-2.753.163-2.821.435-.116.762,1.377.762,1.377s.174,1.057.259,1.4c.1.407.484,1.6.484,1.6s1.529,4.1,1.81,3.961.86-.794.851-1.081-.3-.806-.3-1.093a.7.7,0,0,1,.559-.7c.341-.034.9,1.34.9,1.34a4.843,4.843,0,0,1,.343,1.947" transform="translate(-276.57 -15.754)" fill="#f7d8ba"/>
            <path id="Trazado_115448" data-name="Trazado 115448" d="M656.237,105.4c.533-.128,14.828,8.609,15,12.006s-4.722,8.8-8.812,6.611-12.438-10.96-12.438-10.96,4.524-7.242,6.246-7.657" transform="translate(-293.373 -47.573)" fill="#fdb74d"/>
            <path id="Trazado_115449" data-name="Trazado 115449" d="M158.162,363.1s2.99,7.2,2.992,7.208c.13.8.64,2.763.64,3.487,0,2.719-12.009-2.308-9.318-3.512a2.913,2.913,0,0,0,1.088-1.905,6.452,6.452,0,0,0-1.012-3.213Z" transform="translate(-68.642 -163.884)" fill="#fee587"/>
            <path id="Trazado_115450" data-name="Trazado 115450" d="M156.01,380.337s-.279-4.075-1.289-4.555c-.947-.45-2.66,1.368-4,1.16a34.117,34.117,0,0,1-4.351-1.332c-5.339,1.937-9.31,3.17-8.514,4.728Z" transform="translate(-62.176 -169.531)" fill="#5038a1"/>
            <path id="Trazado_115451" data-name="Trazado 115451" d="M123.615,366.967s1.742,5.025,1.744,5.037c.129.8.64,2.763.64,3.486,0,2.719-12.009-2.307-9.318-3.512a2.913,2.913,0,0,0,1.088-1.905,6.45,6.45,0,0,0-1.012-3.214Z" transform="translate(-52.487 -165.582)" fill="#fee587"/>
            <path id="Trazado_115452" data-name="Trazado 115452" d="M94.459,193.189,90.112,204.53s-2.837,27.065-1.185,43.267c.691,6.776,15.647,43.047,15.647,43.047L112,289.774l-7.707-42.49,1.419-16.887,5.181-32.468Z" transform="translate(-39.904 -87.196)" fill="#4c3793"/>
            <path id="Trazado_115453" data-name="Trazado 115453" d="M106.744,195.638l-2.663,11.85s1.1,27.191,5.081,42.984c1.663,6.6,21.7,40.333,21.7,40.333l7.2-2.132-13.768-40.929,1.284-40.331-1.887-9.46Z" transform="translate(-46.977 -88.301)" fill="#7a64c0"/>
            <path id="Trazado_115454" data-name="Trazado 115454" d="M119.027,380.443s-.287-4.038-1.364-4.523c-1.023-.461-2.9,1.335-4.343,1.127a43.069,43.069,0,0,1-4.264-1.039c-5.764,1.937-10.486,2.877-9.627,4.435Z" transform="translate(-44.831 -169.637)" fill="#5038a1"/>
            <path id="Trazado_115455" data-name="Trazado 115455" d="M85.344,12.219c-1.659,2.382-2,2-2.2,2.315a57.938,57.938,0,0,0-.212,6.308s-.031,17.5,0,18.449l7.4,16.667-7.163,5.856s-7.574-18.336-7.8-19.36,2.571-24.625,2.75-26.712c0,0-.707-2.587-1.1-4.225a14.142,14.142,0,0,1-.075-3.827,14.85,14.85,0,0,1,.43-3.627c.409-1.692.8.116.8.116s-.191,3.283.07,3.258c.2-.019.2-1.82.634-3.7.111-.483.223-.958.329-1.4.279-1.145,1.065-1.288.966-.038a11.559,11.559,0,0,1-.24,1.683A9.762,9.762,0,0,0,79.8,5.583a12.889,12.889,0,0,0-.126,1.643c.054-.022.172.184.306-.325.161-.611.215-1.991.522-2.871.174-.5.475-1.563.475-1.563A10.953,10.953,0,0,1,81.763.813c.566.087.426,1.427.1,2.072a7.843,7.843,0,0,1-.342,1.632s-.2,2.415.146,2.454C81.947,7,83.535,1.332,84.1,1.46c.459.1.059,1.833.059,1.833s-.323,1.026-.4,1.375c-.095.41-.285,1.661-.285,1.661s-.458,4.388-.131,4.4a2.061,2.061,0,0,0,1.292-.559c.123-.26.095-.86.218-1.12a.712.712,0,0,1,.843-.357c.335.133.228,1.627.228,1.627a4.678,4.678,0,0,1-.574,1.9" transform="translate(-34.011 -0.367)" fill="#f7d8ba"/>
            <path id="Trazado_115456" data-name="Trazado 115456" d="M91.5,90.487,81.42,96.7s3.842,9.28,6.453,12.605c3.167,4.033,8.944,5.911,9.334,5.424,1.093-1.365,3.256-3.04,3.148-5.388-.376-8.128-8.858-18.857-8.858-18.857" transform="translate(-36.749 -40.841)" fill="#4c3599"/>
            <path id="Trazado_115457" data-name="Trazado 115457" d="M85.759,21.494A3.669,3.669,0,0,1,88.02,18.88a2.252,2.252,0,0,0-2.262,2.614" transform="translate(-38.695 -8.519)" fill="#fedc66"/>
            <path id="Trazado_115458" data-name="Trazado 115458" d="M114.991,109.65s5.6.785,7.079,1.876c1.661,1.229,6.806,6.96,6.806,6.96s-10.707,30.892-10.293,36.388,1.589,13.637,1.589,13.637S99.379,169.833,91.5,166.7c0,0,2.487-12.454,2.487-15.724s1.815-27.977,2.591-30.5c.583-1.892,2.8-9.858,6.6-10.692s11.812-.139,11.812-.139" transform="translate(-41.3 -49.368)" fill="#fdb74d"/>
            <path id="Trazado_115459" data-name="Trazado 115459" d="M125.172,93.353l1.364,8.815s-3.985,6.742-7.009,5.8c-2.537-.792-2.034-5.947-2.034-5.947s1.383-5.176.968-7.766,6.711-.9,6.711-.9" transform="translate(-53.012 -41.89)" fill="#f7d8ba"/>
            <path id="Trazado_115460" data-name="Trazado 115460" d="M119.145,94.252c-.415-2.59,6.711-.9,6.711-.9l.115.759a4.216,4.216,0,0,1-.773,1.275,9.379,9.379,0,0,1-6.23,2.821,14.137,14.137,0,0,0,.177-3.955" transform="translate(-53.696 -41.89)" fill="#fdb74d"/>
            <path id="Trazado_115461" data-name="Trazado 115461" d="M123.644,67.86c.2-.074,1.614,10.418-1.067,13.305S114.671,85,112.8,82.724c-2.073-2.515-1.969-13.791,2.2-16.761s8.646,1.9,8.646,1.9" transform="translate(-50.314 -29.339)" fill="#f7d8ba"/>
            <path id="Trazado_115462" data-name="Trazado 115462" d="M117.81,56.47a11.579,11.579,0,0,1,6.076,3.468c1.463.173,3.452.982,5.506,4.383a8.51,8.51,0,0,1-2.279,11.09,6.608,6.608,0,0,0-2.884,4.928l-.48-1.386a7.6,7.6,0,0,1-.368-3.2,6.253,6.253,0,0,1,.475-1.924c.707-1.518-1.519-2.527-2.142-3.791-.481-.973-.5-3.2-1.261-4.806l-.9-1.228s-2.086-1.623-4.126-1.165-1.747-7.213,2.387-6.37" transform="translate(-51.539 -25.458)" fill="#281665"/>
            <path id="Trazado_115463" data-name="Trazado 115463" d="M128.154,82.77c-.021,1.28.56,2.328,1.3,2.341s1.355-1.014,1.376-2.294-.56-2.328-1.3-2.341-1.355,1.015-1.376,2.3" transform="translate(-57.842 -36.322)" fill="#f7d8ba"/>
            <path id="Trazado_115464" data-name="Trazado 115464" d="M158.712,131.348l-9.373,7.365a33.961,33.961,0,0,1-6.217-8.419c-2.1-4.476-.26-17.539,1.98-16.932,5.01,1.358,13.61,17.986,13.61,17.986" transform="translate(-64.181 -51.156)" fill="#a08de3"/>
            <path id="Trazado_115465" data-name="Trazado 115465" d="M154.371,127.849c10.323,4.338,13.646-5.14,13.388-4.89a27.227,27.227,0,0,1,2.743-1.4c4.137-2.071,6.638-6.887,6.544-11.732,5.936-3.69,7.483-11.5,3.412-15.824,1.253-4.8-2.052-10.074-6.253-12.508-3.18-5.662-11.2-3.239-15.528,1.2a12.682,12.682,0,0,0-3.427,8.839c-5.089,2.151-7.751,7.88-6.594,13.659-6.866,5.772-4.818,18.232,5.716,22.658" transform="translate(-65.294 -35.289)" fill="#4a3693"/>
            <path id="Trazado_115466" data-name="Trazado 115466" d="M218.639,178.791l1.762-.454c-.033-.136-3.381-13.717-6.949-27.233-2.1-7.943-3.859-14.313-5.237-18.931-2.716-9.1-3.321-9.356-3.855-9.579l-.689,1.719a.559.559,0,0,1-.194-.127c.435.5,2.125,4.254,8.435,28.221,3.481,13.222,6.693,26.254,6.725,26.384" transform="translate(-91.84 -55.332)" fill="#fdb74d"/>
            <path id="Trazado_115467" data-name="Trazado 115467" d="M121.735,189.739s.793-.633,1.04-.864c.29-.271,1.1-1.149,1.1-1.149s2.666-3.191,2.415-3.369-1.013.112-1.246.251-.52.28-.753.419a.528.528,0,0,1-.722-.2c-.193-.279.617-1.036.949-1.242a42.79,42.79,0,0,1,4.469-1.931c.383-.161,3.991-6.55,5.4-8.64h0c2.206-3.491,4.3-7.19,4.531-7.56l4.746-17.047,6.9-.685s-5,18.992-5.361,19.913c-.171.438-5.907,8.131-5.911,8.129-3.063,3.609-5.771,6.781-6.274,7.406,0,0-1,2.273-1.558,3.758a13.7,13.7,0,0,1-1.879,3.022,10.208,10.208,0,0,1-2.119,2.739c-1.211,1.109-.568-.509-.568-.509s1.876-2.466,1.658-2.584c-.168-.091-1.114,1.317-2.441,2.558-.341.319-.679.633-.992.918-.821.749-1.513.449-.779-.476a10.994,10.994,0,0,1,1.073-1.191,9.158,9.158,0,0,0,.94-1.177,11.967,11.967,0,0,0,.962-1.219c-.054-.011-.038-.233-.41.094-.448.393-1.216,1.445-1.92,1.971-.4.3-1.194.974-1.194.974a10.407,10.407,0,0,1-1.483.883c-.4-.365.416-1.339,1.011-1.672a7.381,7.381,0,0,1,1.126-1.1s1.423-1.785,1.175-1.995c-.2-.173-4.431,3.429-4.805,3.034-.306-.322.917-1.464.917-1.464" transform="translate(-54.509 -66.674)" fill="#f7d8ba"/>
            <path id="Trazado_115468" data-name="Trazado 115468" d="M133.89,214.829s-2.122.81-3.015-.285a1.521,1.521,0,0,0,1.124.962,2.98,2.98,0,0,0,1.891-.678" transform="translate(-59.07 -96.834)" fill="#fedb65"/>
            <path id="Trazado_115469" data-name="Trazado 115469" d="M172.82,233.094l-3.912,36.169s1.912,7.649,1.682,9.821-4.252,30.678-4.252,30.678l.182,1.566.1,4.638-15.032.117a66.593,66.593,0,0,0,7.6-4.37,3.174,3.174,0,0,0,1.266-2.263c1.183-8.786-1.158-38.092-1.158-38.092l-1.845-38.147Z" transform="translate(-68.418 -105.207)" fill="#fee587"/>
            <path id="Trazado_115470" data-name="Trazado 115470" d="M195.56,245.585c.843.221,2.14,31.262,2.839,32.638,4.426,8.722,5.478,35.24,5.478,35.24l1.826,3.713-.419,3.578s-3.3,1.959-5.62.638l.358-3.583.274-4.786-11.166-33.038-6.11-33.7Z" transform="translate(-82.605 -110.845)" fill="#fee587"/>
            <path id="Trazado_115471" data-name="Trazado 115471" d="M153.291,233.575l-.531-21.418c-.092-6.053,1.858-11.86,4.252-17.372l5.067-8.82c1.632.536,2.531-4.459,4.247-4.26,1.293.15,2.18.459,3.381.532,2.264.139,3.639,4.716,6.063,4.429.011.145,1.517.723,1.554.825,1.159,3.237,4.119,6.7,5.7,16.312,1.794,10.91,1.786,29.661,1.561,30.941-17.148.782-21.234,1.4-31.293-1.168" transform="translate(-68.946 -82.009)" fill="#5038a1"/>
            <path id="Trazado_115472" data-name="Trazado 115472" d="M165.856,381.318H150.338c-.574-.054-.714-.539-.515-.838.41-.616,2.22-1.068,4.255-2.049,3.569.389,11.036-2.328,11.6-3.185.325,1.716.5,6,.178,6.072" transform="translate(-67.584 -169.367)" fill="#5038a1"/>
            <path id="Trazado_115473" data-name="Trazado 115473" d="M219.386,376.054s-1.378,4.05-2.868,3.933-2.794-3.31-2.794-3.31a14.906,14.906,0,0,0-.3,4.167c.261,1.48,2.384,3,3.837,2.337s3.427-4.089,2.123-7.127" transform="translate(-96.298 -169.732)" fill="#5038a1"/>
            <path id="Trazado_115474" data-name="Trazado 115474" d="M165.565,145.547a22.715,22.715,0,0,1-4.233-1.023c-1.243-.448-3.311-1.429-3.311-1.429s1.161-10.09,4.086-16.2c1.209-2.525,2.431-3.744,4.135-4.036.013,0-.677,22.689-.677,22.689" transform="translate(-71.323 -55.452)" fill="#c1a851"/>
            <path id="Trazado_115475" data-name="Trazado 115475" d="M164.743,133.777c.438-1.637,1.417-3.79,1.976-5.274.948-2.52,1.23-4.875,2.066-5.884.452-.543,6.24-.462,6.951-.534.294-.031,1.452.045,2.573.115l0,0c.657.076,7.181.6,8.127,1.023,4.7,4.71,6.973,11.051,10.506,17.978,0,0-2.647,1.557-4.756,2.539-.917.426-2.674,1.108-2.674,1.108l-4.073-7.014c-.044-.035-.256-.267-.317-.116-.094.233-3.068,22.091-3.068,22.091s-12.056,1.013-14.885-.377c0,0-.523-14.593-1.565-18.876-.384-1.574-1.564-4.139-.858-6.776" transform="translate(-74.257 -55.1)" fill="#fedc66"/>
            <path id="Trazado_115476" data-name="Trazado 115476" d="M184.991,107.89a42.4,42.4,0,0,0-.723,7.1c.181,2.008-.689,8.479-4.594,8.5s-1.251-6.718-.883-8.686.965-9.567.965-9.567Z" transform="translate(-80.146 -47.498)" fill="#f7d8ba"/>
            <path id="Trazado_115477" data-name="Trazado 115477" d="M181.128,108.132c.061-1.666.233-2.9.233-2.9l5.236,2.655s-.185,1.041-.371,2.367a4.7,4.7,0,0,1-5.1-2.124" transform="translate(-81.752 -47.498)" fill="#fdb74d"/>
            <path id="Trazado_115478" data-name="Trazado 115478" d="M185.075,82.935a6.771,6.771,0,0,1,3.4,3.252c1.2,2.45,1.592,9.307-3.233,11.942s-8.009-2.225-7.709-6.578,1.637-10.058,7.546-8.616" transform="translate(-80.119 -37.33)" fill="#f7d8ba"/>
            <path id="Trazado_115479" data-name="Trazado 115479" d="M175.735,94.209c.3,1.093,1.022,1.831,1.605,1.649s.813-1.216.51-2.309-1.023-1.831-1.607-1.649-.812,1.216-.508,2.309" transform="translate(-79.257 -41.467)" fill="#f7d8ba"/>
            <path id="Trazado_115480" data-name="Trazado 115480" d="M196.535,98.861c-.424,1.092-.213,2.24.472,2.562s1.583-.3,2.007-1.395.213-2.24-.472-2.562-1.583.3-2.008,1.395" transform="translate(-88.607 -43.953)" fill="#f7d8ba"/>
            <path id="Trazado_115481" data-name="Trazado 115481" d="M199.385,222.647v6.945c0,3.611,2.543,6.538,5.68,6.538h5.843V219.939h-9.171a2.187,2.187,0,0,0-1.619.746,2.9,2.9,0,0,0-.733,1.962" transform="translate(-89.992 -99.269)" fill="#c1a851"/>
            <path id="Trazado_115482" data-name="Trazado 115482" d="M200.72,220.685h.039a2.365,2.365,0,0,1,2.183,2.512v5.108c0,4.321,3.043,7.824,6.8,7.824H213.3c3.754,0,6.8-3.5,6.8-7.824v-5.083a3.09,3.09,0,0,0-2.852-3.283h-14.9a2.188,2.188,0,0,0-1.619.745" transform="translate(-90.595 -99.27)" fill="#fedc66"/>
            <path id="Trazado_115483" data-name="Trazado 115483" d="M199.347,178.5l1.817-.009c0-.128-.058-13.017.115-26.16.1-7.713.261-14,.474-18.692.364-8.013.809-9.449.937-9.683a8.209,8.209,0,0,0-.2-1.432,1.028,1.028,0,0,0-.984.106c-.469.323-.759.941-1.047,3.426-.178,1.538-.338,3.722-.475,6.49-.23,4.639-.4,11-.512,18.908-.187,13.454-.127,26.911-.127,27.045" transform="translate(-89.971 -55.267)" fill="#fdb74d"/>
            <path id="Trazado_115484" data-name="Trazado 115484" d="M178.1,182.195c-.233.049-1.833.144-1.833.144s-2.347-1.422-2.682-.749c-.1.2,2.432,1.645,2.432,1.645s2.45.081,3.036.063c1.091-.027,3.384-.336,6.8-2.874,2.95-1.507,17.778-10.158,18-11.8.13-.973-2.128-6.049-4.313-10.646-.966.538-2.463,1.358-3.76,1.964-.612.283-1.6.681-2.186.915,1.417,2.736,2.758,5.552,2.584,6.135-.152.511-12.816,10.175-12.816,10.175l-2.53-.345s-4.462.529-4.564,1.063,1.882.39,2.146.471a2.792,2.792,0,0,1,.693.314,8.965,8.965,0,0,1-2.548.937c-1.5.054-3.232-.166-3.42.049-.219.251,2.056.942,3.662,1.041.657.036,1.055-.166,1.341-.112.389.081-.3.395-1.39.327-.626-.04-1.717-.385-2.405-.484a3.54,3.54,0,0,0-1.859.026c-.156.162,3.21,1.243,3.21,1.243s2.191.287,2.691.26c0,0,.3.126-.277.242" transform="translate(-77.844 -71.301)" fill="#f7d8ba"/>
            <path id="Trazado_115485" data-name="Trazado 115485" d="M414.567,370.26c-.214-1.525.265-4.15,1.459-8.255-2.365.005-4.354-1.041-6.771-1.005-.66,3.861-1.683,10.2-1.683,10.2l-.11,5.011,16.83.126s-.14.072-5.1-3.063c-.367-.232-4.419-1.541-4.625-3.015" transform="translate(-183.908 -162.937)" fill="#fee587"/>
            <path id="Trazado_115486" data-name="Trazado 115486" d="M406.933,385.826h17.374c.643-.058.8-.582.576-.905-.459-.665-3.847-2.263-6.125-3.323-4,.42-11.02-1.225-11.651-2.15-1.1,3.065-.532,6.3-.174,6.378" transform="translate(-183.458 -171.264)" fill="#fdb74d"/>
            <path id="Trazado_115487" data-name="Trazado 115487" d="M376.354,370.536a28.82,28.82,0,0,1-.044-8.523c-2.365.005-4.616-.438-7.033-.4,0,3.971.083,9.864.083,9.864l-.11,5.011,16.83.126s-.14.072-5.1-3.063c-.367-.232-4.419-1.541-4.625-3.015" transform="translate(-166.661 -163.212)" fill="#fee587"/>
            <path id="Trazado_115488" data-name="Trazado 115488" d="M368.72,385.826h17.374c.642-.058.8-.582.577-.905-.459-.665-3.848-2.263-6.126-3.323-4,.42-11.02-1.225-11.651-2.15-1.1,3.065-.532,6.3-.174,6.378" transform="translate(-166.211 -171.264)" fill="#fdb74d"/>
            <path id="Trazado_115489" data-name="Trazado 115489" d="M404.491,87.9l6.33-6.679S417.6,84.95,425.5,88.511c2.172-3.78,5.716-16.213,5.907-16.806s-4.151-8.064-3.18-8.251,2.232,3.988,3.26,3.565,3.666-10.111,4.284-9.582c1.156.989-1.389,6.026-.779,6.392s2.155-5.583,3.333-5.328-1.987,5.416-1.641,5.912,3.655-4.347,4.339-3.225c.371.609-3.051,4.217-2.348,4.621s3.788-1.869,4.157-1.132-2.878,1.5-3.779,3.366-2.54,2.588-3.083,6.111-2.03,22.348-5.868,23.86c-3.351,1.32-25.607-10.111-25.607-10.111" transform="translate(-182.567 -25.915)" fill="#f7d8ba"/>
            <path id="Trazado_115490" data-name="Trazado 115490" d="M399.137,178.643,394,181.506l-10.435,15.956,18.662,43.926s-2.1,6.605-2.787,9.906c-.717,3.453-2.474,33.09-2.474,33.09l7.962.134s7.562-31.551,8.843-41.792c1.555-12.435-7.914-42.052-7.914-42.052-1.766-6.042-5.573-18.473-5.573-18.473s-.932-3.029-1.151-3.559" transform="translate(-173.123 -80.63)" fill="#4a3993"/>
            <path id="Trazado_115491" data-name="Trazado 115491" d="M370.637,167.72a15.033,15.033,0,0,1-1.592,8.034c-1.294,2.61-3.53,4.656-5.131,7.853-3.03,6.05-4.675,14.645-3.538,20.169,0,0,6.264,23.92,6.015,32.662-.092,3.224-1.2,9.032-1.905,12.959-.625,3.471-.837,29.655-.837,29.655l8.891-.268,6.808-42.238L382.226,199l6.28-25.288Z" transform="translate(-162.492 -75.7)" fill="#644cc0"/>
            <path id="Trazado_115492" data-name="Trazado 115492" d="M377.753,57.147c-.786-3.713-1.6-7.439-5.286-10.112a9.845,9.845,0,0,0-9.594-1.549c-9.636,3.494-4.453,11.141-16.411,19.293-3.715,2.533-5.126,3.415-7.792,6.79-3.732,4.724-5.772,11.062-3.9,16.28,3.88,10.791,15.9,13.909,22.192,11.621,11.706-4.259,21.459-19.1,22.107-23.156.693-4.336-.813-16.777-1.319-19.167" transform="translate(-150.78 -20.247)" fill="#fdb74d"/>
            <path id="Trazado_115493" data-name="Trazado 115493" d="M384.8,109.242c2.833,1.31,7.964,3.276,7.964,3.276l2.919-9.233c-16.5-9.386-15.205-7.872-27.589-7.687-9.893.141-14.039-1.749-22.558,21.25,0,0,6.485,2.913,8.807,3.849,1-2.843,2.8-8.513,3.856-5.28a93.994,93.994,0,0,1,3.535,14.888c.5,3.008,1.575,6.86,1.008,9.925a91.982,91.982,0,0,0,11.884,1.613.234.234,0,0,0,.044,0,40.321,40.321,0,0,0,7.3-.771s1.009-21.334,1.548-22.224a8.557,8.557,0,0,0,.973-8.934c-.379-.842-.277-.941.307-.671" transform="translate(-155.958 -43.058)" fill="#fdb74d"/>
            <path id="Trazado_115494" data-name="Trazado 115494" d="M369.333,164.252c.117.016.642-.053,1.072-.043a8.262,8.262,0,0,1,1.115.1,3.163,3.163,0,0,1,.679-.409c.185-.085.488-.116.7-.212s.393-.281.595-.372c.526-.228,1.008-.281,1.168-.005.133.229-2.792,2.017-2.792,2.017-2.707.016-5.541,1.4-11.815-2.7-3.583-1.566-20.982-10.159-21.332-12.032-.2-1.051,2.473-9.188,4.655-15.366,1.683.754,5.26,2.346,7.261,3.184-1.837,3.891-4,9.05-3.774,9.682.059.165.276.462,12.038,8.163.3.191.6.393.908.595q1.242.811,2.654,1.73l3.354-.35s5.313.366,5.472.971c.069.276-.372.414-.913.494h-.016l-.239.032h-.01c-.584.069-1.2.08-1.349.133a3.47,3.47,0,0,0-.8.393c3.312,1.354,3.058.871,4.156.8.276-.021.568.058.828.037.446-.037.8-.3,1.147-.324a1.492,1.492,0,0,1,1,.3c.117.117-.1.286-.526.477-2.558,1.109-4.676.685-5.355.849-.457.111.376.281,1.677.143a6.824,6.824,0,0,0,1.179-.016c.287-.064.547-.249.828-.318.26-.064.526-.059.743-.1.286-.053.685-.271.913-.3a2.166,2.166,0,0,1,1.358.133c.2.175-3.662,1.656-3.662,1.656s-2.659.382-3.254.382c0,0-.355.159.34.266" transform="translate(-152.875 -61.038)" fill="#f7d8ba"/>
            <path id="Trazado_115495" data-name="Trazado 115495" d="M387.608,78.01s-.754,6.092-1.2,8.207c-.465,2.213-1.165,9.182,3.424,10.314S393,88.947,393.08,86.7s1.376-10.1,1.376-10.1Z" transform="translate(-174.253 -34.574)" fill="#f7d8ba"/>
            <path id="Trazado_115496" data-name="Trazado 115496" d="M388.419,79.954c.047.028.09.058.138.086,2.536,1.454,4.744,1.225,6.4.093.3-1.948.558-3.531.558-3.531l-6.847,1.409s-.1.812-.25,1.944" transform="translate(-175.313 -34.574)" fill="#fdb74d"/>
            <path id="Trazado_115497" data-name="Trazado 115497" d="M386.977,50.129a7.854,7.854,0,0,0-4.24,3.426c-1.55,2.671-2.324,10.34,3.384,13.613s9.759-1.971,9.587-6.876-1.54-11.394-8.731-10.163" transform="translate(-172.241 -22.557)" fill="#f7d8ba"/>
            <path id="Trazado_115498" data-name="Trazado 115498" d="M407.4,63.1c.064,1.275-.482,2.339-1.219,2.376s-1.384-.966-1.448-2.241.482-2.338,1.219-2.376,1.384.966,1.448,2.241" transform="translate(-182.675 -27.466)" fill="#f7d8ba"/>
            <path id="Trazado_115499" data-name="Trazado 115499" d="M385.558,49.886s-3.077,8.021-6.088,8.877-2.771,4.8-2.771,4.8-.386-9.121,2.365-11.357a11.954,11.954,0,0,1,6.494-2.321" transform="translate(-170.014 -22.516)" fill="#fdb74d"/>
            <path id="Trazado_115500" data-name="Trazado 115500" d="M381.436,67.47c.464,1.254.16,2.527-.68,2.844s-1.9-.443-2.362-1.7-.16-2.528.68-2.844,1.9.444,2.362,1.7" transform="translate(-170.69 -29.654)" fill="#f7d8ba"/>
            <path id="Trazado_115501" data-name="Trazado 115501" d="M227.239,51.7s-9.322-16.638-11.59-20.174-8.176-17.59-8.387-18.144,4.069-7.2,3.113-7.433-2.012,3.506-3.031,3.06-4-9.436-4.577-8.99c-1.087.834,1.6,5.576,1.025,5.875S201.458.675,200.32.837s2.164,5.056,1.846,5.488-3.746-4.179-4.366-3.2c-.337.533,3.151,4.024,2.481,4.351s-3.773-1.926-4.1-1.277,2.869,1.54,3.826,3.292,2.585,2.509,3.261,5.753,1.687,14.984,5.152,20.841S219.5,54.911,219.5,54.911Z" transform="translate(-88.535 0)" fill="#f7d8ba"/>
            <path id="Trazado_115502" data-name="Trazado 115502" d="M309.547,194.054s-.759-.947-.987-1.281c-.267-.392-.977-1.628-.977-1.628s-2.27-4.419-1.93-4.561,1.153.4,1.389.623.533.462.769.686a.633.633,0,0,0,.9-.041c.3-.273-.447-1.369-.781-1.7a51.366,51.366,0,0,0-4.707-3.431c-.4-.289-2.931-8.68-4.024-11.486h0c-1.654-4.647-3.121-9.506-3.294-10l-1.041-21.1-7.881-2.626s.827,23.43,1,24.6c.083.555,4.751,11.027,4.755,11.026,2.624,5.011,4.948,9.421,5.37,10.281,0,0,.572,2.911.827,4.786a16.379,16.379,0,0,0,1.395,4.014,12.216,12.216,0,0,0,1.752,3.749c1.121,1.611.8-.443.8-.443s-1.54-3.367-1.253-3.446c.22-.061.952,1.828,2.174,3.624.314.462.626.916.916,1.332.76,1.089,1.648.923,1.035-.347a13.164,13.164,0,0,0-.939-1.67,10.9,10.9,0,0,1-.787-1.619,14.163,14.163,0,0,1-.8-1.673c.066,0,.106-.262.454.218.42.577,1.039,2,1.721,2.8.387.453,1.137,1.45,1.137,1.45a12.455,12.455,0,0,0,1.5,1.422c.562-.319-.132-1.668-.738-2.214a8.84,8.84,0,0,0-1.026-1.575s-1.191-2.454-.845-2.634c.283-.147,4.268,5.164,4.809,4.8.442-.294-.685-1.946-.685-1.946" transform="translate(-129.528 -62.068)" fill="#f7d8ba"/>
            <path id="Trazado_115503" data-name="Trazado 115503" d="M263.317,74.959a27.867,27.867,0,0,0-2.546-13.43c-1.772-3.686-6.154-5.778-10.151-5.783-12.692-.016-14.306,16.753-22.385,23.222-2.468,1.976-5.228,3.586-7.564,5.718-8.626,7.87-4.74,22.44,3.181,29.34,5.5,4.789,14.134,7.509,20.909,3.766a21.309,21.309,0,0,0,8.133-8.76c2.714-5.05,4.463-10.878,6.395-16.261,2.054-5.73,3.776-11.694,4.03-17.811" transform="translate(-97.393 -25.161)" fill="#5038a1"/>
            <path id="Trazado_115504" data-name="Trazado 115504" d="M225.967,360.792s-.894,6.19-2.433,8.188a15.786,15.786,0,0,0-2.078,2.73c-.964,1.886-.431,4.694.28,6.24.365.794-.026.792.805,1.047a5.107,5.107,0,0,0,6.126-2.87,14.558,14.558,0,0,0,1.2-5.274c.262-5.62,2.014-8.478,2.014-8.478Z" transform="translate(-99.718 -162.843)" fill="#fee783"/>
            <path id="Trazado_115505" data-name="Trazado 115505" d="M278.323,365.952s.552,6.98.1,9.248c-.24,1.215-1.576,3.715-.963,4.858a3.071,3.071,0,0,0,1.314,1.429l15.887.256c.865.014.294-.542-.4-1.054a32.045,32.045,0,0,0-5.712-3.153c-.238-.115-1.1-.665-1.417-.855a11,11,0,0,1-2.272-2c-1.141-1.267-1.24-7.414-1.24-7.414Z" transform="translate(-125.161 -165.172)" fill="#fee783"/>
            <path id="Trazado_115506" data-name="Trazado 115506" d="M289.309,195.408s2,11.333.687,18.763-7.618,76.3-7.618,76.3l-7.006.395s-1.469-28.767-1.206-32.768,2.342-10.7,2.342-10.7l-.7-23.226,8.842-30.513Z" transform="translate(-123.73 -87.408)" fill="#4c3599"/>
            <path id="Trazado_115507" data-name="Trazado 115507" d="M248.128,190.387s-5.517,8.287-6.83,15.145.964,27.935-1.563,36.922c-1.368,4.865-6.552,12.378-7.34,18.664s-3.88,22.754-3.88,22.754l7,1.385,16.275-41.126L264.56,206.96l3.271-19.145Z" transform="translate(-103.14 -84.77)" fill="#5038a1"/>
            <path id="Trazado_115508" data-name="Trazado 115508" d="M263.559,106.546s-7.3-.464-10.194,2.679,6.41,28.009,6.935,32.009-2.678,14.637-2.678,14.637,17.158,3.446,22.063.207c0,0,.525-28.767,0-31.625s-4.9-14.479-5.955-15.622-10.171-2.286-10.171-2.286" transform="translate(-114.105 -48.079)" fill="#fec372"/>
            <path id="Trazado_115509" data-name="Trazado 115509" d="M274.63,88.678s-.038.215-.106.58c-.325,1.753-1.58,7.566-2.427,9.165-1.024,1.932,3.5,8.092,7.864,7.34,1.3-.224-1.1-5.66-.982-6.237.221-1.1.519-2.606.825-4.148l.511-2.581.847-4.282Z" transform="translate(-122.745 -39.952)" fill="#f7d8ba"/>
            <path id="Trazado_115510" data-name="Trazado 115510" d="M276.478,89.258c.068-.365.106-.58.106-.58l6.532-.163s-.38,1.927-.847,4.283c-.163.824-.336,1.7-.508,2.566a6.122,6.122,0,0,1-3.118-1.56A8.217,8.217,0,0,1,276.28,90.3c.08-.412.148-.768.2-1.039" transform="translate(-124.699 -39.951)" fill="#f7d8ba"/>
            <path id="Trazado_115511" data-name="Trazado 115511" d="M278.956,61.791a5.894,5.894,0,0,0-5.009,2.136c-1.93,2.491-4.01,10.194.784,14.383s9.531-.552,10.233-5.579.975-11.121-6.009-10.94" transform="translate(-122.675 -27.881)" fill="#f7d8ba"/>
            <path id="Trazado_115512" data-name="Trazado 115512" d="M296.223,79.349c-.572,1.11-1.533,1.725-2.145,1.373s-.646-1.537-.073-2.647,1.533-1.725,2.145-1.373.646,1.537.073,2.647" transform="translate(-132.514 -34.574)" fill="#f7d8ba"/>
            <path id="Trazado_115513" data-name="Trazado 115513" d="M276.932,60.239s-4.113,7.326-7.056,7.664-3.329,4.231-3.329,4.231,1.052-8.969,3.965-10.7a10.839,10.839,0,0,1,6.42-1.2" transform="translate(-120.306 -27.154)" fill="#5038a1"/>
            <path id="Trazado_115514" data-name="Trazado 115514" d="M228.7,383.854a7.833,7.833,0,0,1-7.677-3.2c-.97,1.89-1.444,4.709-.73,6.261.629,1.367,2.465,1.328,3.911,1.382a3.778,3.778,0,0,0,3.471-2.12,12.719,12.719,0,0,0,1.025-2.322" transform="translate(-99.274 -171.807)" fill="#fdb74d"/>
            <path id="Trazado_115515" data-name="Trazado 115515" d="M287.1,385.212a14.409,14.409,0,0,1-9.044-.354c-.448,1.267-1.042,2.857-.728,3.774.386,1.123.935,1.377,1.42,1.389,3.837.1,14.058.237,16.983.275a.477.477,0,0,0,.371-.785c-.725-.865-8.691-4.108-9-4.3" transform="translate(-125.132 -173.705)" fill="#fdb74d"/>
            <path id="Trazado_115516" data-name="Trazado 115516" d="M271.489,75.928c.239,1.3-.242,2.494-1.075,2.665s-1.7-.746-1.941-2.046.242-2.494,1.075-2.665,1.7.746,1.942,2.046" transform="translate(-121.147 -33.337)" fill="#f7d8ba"/>
            <path id="Trazado_115517" data-name="Trazado 115517" d="M242.088,84.4S252.4,95.464,253.933,99.923s-1.495,10.839-5.675,11.118S234.772,91.4,234.772,91.4Z" transform="translate(-105.964 -38.093)" fill="#fec372"/>
            <path id="Trazado_115518" data-name="Trazado 115518" d="M824,347.759s.387,3.339.387,3.9v.567l-.277.576-.11.229,2,2.8s8.019.119,8.2.119-1.073-1.938-1.073-1.938-2.653-2-3.129-3.4.4-4.322.4-4.322Z" transform="translate(-371.91 -156.302)" fill="#fee783"/>
            <path id="Trazado_115519" data-name="Trazado 115519" d="M743.05,307.6s-2.856,1.772-3.3,2.124l-.444.352-.279.576-.11.229-3.437.178s-5.078-6.206-5.19-6.346,1.461.211,1.461.211,3.206.433,4.6-.064,4.214-3.275,4.214-3.275Z" transform="translate(-329.614 -136.12)" fill="#fee783"/>
            <path id="Trazado_115520" data-name="Trazado 115520" d="M775.546,255.461l-30.762,26.2,4.74,6.707s31.611-19.628,33.265-19.852,3,.537,3.308,1.744,1.109,37.429,1.109,37.429h8.213l4.283-45.6Z" transform="translate(-336.158 -115.302)" fill="#4c3793"/>
            <path id="Trazado_115521" data-name="Trazado 115521" d="M868.9,173.973c2.276-1.492,7.622-7.229,9.434-9.182a6.115,6.115,0,0,1,1.648-3.243c1.029-1.191,1.808-3.909,2.483-3.139s-1,2.929-.233,2.943,4.57-4.261,5.182-3.563-3.252,4.5-2.566,4.512,3.821-3.837,4.686-2.85-4.11,4.187-3.646,4.716,3.546-1.568,4.242-.774-4.348,2.666-3.944,2.674,3.313-.071,3.335.489c.025.633-7.362,1.62-8.266,2.716-1.93,3.073-5.365,8.686-8.844,11.149-4.256,3.013-14.094,9.4-14.094,9.4l-4.886-6.313s12.773-7.769,15.472-9.539" transform="translate(-385.194 -71.183)" fill="#f7d8ba"/>
            <path id="Trazado_115522" data-name="Trazado 115522" d="M905.381,166.824a3.033,3.033,0,0,1,.3,1.187,2.952,2.952,0,0,1-.961,2.389,5.046,5.046,0,0,0,.664-3.576" transform="translate(-408.343 -75.296)" fill="#fedc72"/>
            <path id="Trazado_115523" data-name="Trazado 115523" d="M784.655,157.9c-1.807-2.035-5.467-8.971-6.7-11.33a6.123,6.123,0,0,0-.743-3.561c-.682-1.419-.723-4.245-1.576-3.679s.2,3.089-.544,2.9-3.3-5.308-4.07-4.794,1.962,5.192,1.3,5.026-2.685-4.7-3.777-3.976,2.872,5.116,2.286,5.506-3.013-2.442-3.892-1.857,3.5,3.711,3.108,3.612-3.179-.935-3.347-.4c-.189.6,6.682,3.488,7.269,4.783,1.059,3.471,2.907,9.786,5.621,13.073,3.32,4.022,11.144,12.763,11.144,12.763l6.367-4.815s-10.3-10.84-12.439-13.253" transform="translate(-346.045 -62.016)" fill="#f7d8ba"/>
            <path id="Trazado_115524" data-name="Trazado 115524" d="M780.722,148.6a3.031,3.031,0,0,0-.6,1.068,2.955,2.955,0,0,0,.3,2.557,5.047,5.047,0,0,1,.294-3.625" transform="translate(-352.035 -67.069)" fill="#fedc72"/>
            <path id="Trazado_115525" data-name="Trazado 115525" d="M821.075,199.269h0a4.657,4.657,0,0,1,4.183-2.055c4.885.332,14.789,1.116,15.729,2.055,1.252,1.253,5.008,9.419,1.431,20.865s-5.545,10.254-8.466,10.254-16.692-6.5-16.692-6.5Z" transform="translate(-368.87 -89.008)" fill="#4c3793"/>
            <path id="Trazado_115526" data-name="Trazado 115526" d="M802.843,183.257l-5.743,7.492,7.129,10.605s-.67,7.88-1.7,10.339-6.975,12.564-6.975,12.564,14.441,8.853,28.571,7.556c0,0,3.979-20.478,5.1-22.445s11.893-11.715,11.893-11.715l-5.231-8.451-9.032,5.009s-16.508-2.668-17.3-3.463-6.707-7.492-6.707-7.492" transform="translate(-359.073 -82.713)" fill="#fdb74d"/>
            <path id="Trazado_115527" data-name="Trazado 115527" d="M830.84,154.606s-5.574-2.951-7.482,1.937c0,0-5.007-.506-4.143,4.68,0,0-5.038,2.534-1.848,9.062,0,0-1.4,6.141,5.783,6.528,0,0,1.073,2.176,4.352,1.669s4.114-1.371,4.114-1.371,5.813,1.7,7.571-3.547c0,0,3.994-.954,1.312-6.081,0,0,3.487-6.647-2.653-8.645,0,0-.715-6.8-7-4.232" transform="translate(-368.44 -69.383)" fill="#fedc72"/>
            <path id="Trazado_115528" data-name="Trazado 115528" d="M846.73,180.1c-.453,1.264-.128,2.536.726,2.843s1.914-.47,2.367-1.734.128-2.537-.726-2.843-1.914.47-2.367,1.734" transform="translate(-382.079 -80.474)" fill="#fee587"/>
            <path id="Trazado_115529" data-name="Trazado 115529" d="M819.492,173.988c-.064,1.341.62,2.463,1.527,2.506s1.693-1.01,1.756-2.35-.621-2.463-1.527-2.506-1.693,1.01-1.756,2.351" transform="translate(-369.875 -77.468)" fill="#fee587"/>
            <path id="Trazado_115530" data-name="Trazado 115530" d="M830.173,190.494c0,.088-.724,3.2-1.108,4.845a1.322,1.322,0,0,0,.741,1.5c1.532.7,4.546,1.677,6.629-.211a.873.873,0,0,0,.283-.676l-.256-7.428Z" transform="translate(-374.182 -85.092)" fill="#f7d8ba"/>
            <path id="Trazado_115531" data-name="Trazado 115531" d="M830.406,192.237a6.012,6.012,0,0,0,5.95-.507,9.26,9.26,0,0,0,.82-.542l-.092-2.661-6.29,1.967c0,.042-.169.793-.388,1.743" transform="translate(-374.803 -85.092)" fill="#fdb74d"/>
            <path id="Trazado_115532" data-name="Trazado 115532" d="M832.051,160.782a7.982,7.982,0,0,1,4.358,3.4c1.613,2.67,2.5,10.39-3.257,13.767s-9.95-1.853-9.841-6.8,2.308-11.271,8.74-10.364" transform="translate(-371.6 -72.529)" fill="#f7d8ba"/>
            <path id="Trazado_115533" data-name="Trazado 115533" d="M816.088,197.308c-2.652,2.005-5.428,12.281-6.479,14.964l-.846,4.927,10.79-19.06s-2.895-1.263-3.465-.831" transform="translate(-365.035 -89.014)" fill="#7a64c0"/>
            <path id="Trazado_115534" data-name="Trazado 115534" d="M845.948,202.08s-.324,12.662.63,17.014,3.449,5.873,3.449,5.873l1.227-5.064s-1.227-11.183-1.681-17.219c-.069-.916-3.626-.6-3.626-.6" transform="translate(-381.794 -91.185)" fill="#7a64c0"/>
            <path id="Trazado_115535" data-name="Trazado 115535" d="M821.026,363.242c-1.224-.155.891-4.4,1.571-5.082l9.011,1.212s4.337,2.012,5.365,3.041c.244.244.276.67-.782.828a90.244,90.244,0,0,1-15.165,0" transform="translate(-370.401 -161.655)" fill="#291765"/>
            <path id="Trazado_115536" data-name="Trazado 115536" d="M731.529,317.132c1.058.635,2.982-3.5,3.092-4.456l-7.276-5.73s-5.614-1.61-6.747-.477c-1.028,1.028,8.529,9.219,10.931,10.662" transform="translate(-325.207 -138.143)" fill="#291765"/>
            <path id="Trazado_115537" data-name="Trazado 115537" d="M439.756,173.9a5.047,5.047,0,0,1,5.89,2.328c2.312,3.625,1.062,3.281,2.187,5.093s1.666,6.964,2.055,9.749c3.966,28.4-43.472,30.706-24.948-5.5,1.738-3.4,3.207-5.437,4.769-9.062s8.172-3.483,10.046-2.609" transform="translate(-189.851 -78.257)" fill="#291765"/>
            <path id="Trazado_115538" data-name="Trazado 115538" d="M430.817,221.317l-4.784-1.671s-1.9,2.426-2.468,8.5a42.431,42.431,0,0,0,0,9.64h5.411Z" transform="translate(-191.061 -99.137)" fill="#fec372"/>
            <path id="Trazado_115539" data-name="Trazado 115539" d="M441.575,216.659c-1.622.167-13.7-.979-14.369,1.588-3.616,13.8,1.357,32.853,2.628,34.124s22.019-2.868,22.019-2.868,3.255-34.24-10.278-32.844" transform="translate(-192.235 -97.737)" fill="#fec372"/>
            <path id="Trazado_115540" data-name="Trazado 115540" d="M473.626,180.653a6.691,6.691,0,0,1-2.545-2.881c-.778-1.44-3.089-3.287-2.127-3.585s2.437,2.137,2.713,1.439-2.477-5.97-1.605-6.241,3.155,4.858,3.4,4.234-2.331-5.106-1.1-5.489,2.564,5.517,3.226,5.311-.3-4.706.691-5.014.852,5.566,1.209,5.4c.192-.091,1.073-2.936,1.612-2.723.609.241-1.036,6.081-.306,7.368s6.576,17.29,4.578,19.288c-2.178,2.178-16.036,7.173-18.937,6.314s-4.562-3.725-3.865-5.487,14.4-5.721,14.618-6.274-1.565-11.657-1.565-11.657" transform="translate(-207.808 -75.877)" fill="#f7d8ba"/>
            <path id="Trazado_115541" data-name="Trazado 115541" d="M486.519,181.754a3.167,3.167,0,0,1,1.228.222,3.321,3.321,0,0,1,1.938,1.877,5.65,5.65,0,0,0-3.166-2.1" transform="translate(-219.59 -82.034)" fill="#fedc72"/>
            <path id="Trazado_115542" data-name="Trazado 115542" d="M501.8,357.9s2.68,10.931,4.678,12.648,8.512,5,6.808,5.353-14.321.647-13.975-1.458.708-3.446.708-3.446l-3.337-7.808Z" transform="translate(-224.176 -161.537)" fill="#f7d8ba"/>
            <path id="Trazado_115543" data-name="Trazado 115543" d="M516.192,388a113.918,113.918,0,0,1-14.678.3s-.491-.1-.145-2.2c.085-.514.171-.983.251-1.4,2.374.624,7.544-.7,9.593-.976,2.225,1.065,4.733,2.656,5.541,2.789,1.172.193,1.171,1.319-.562,1.491" transform="translate(-226.237 -173.193)" fill="#291765"/>
            <path id="Trazado_115544" data-name="Trazado 115544" d="M439.86,373.6s-.281,2.765-.281,3.984,1.135,4.656.61,5.182-15.554.461-15.554-.033,2.656-1.995,6.265-3.026a5.814,5.814,0,0,0,3.9-7.324Z" transform="translate(-191.658 -168.074)" fill="#f7d8ba"/>
            <path id="Trazado_115545" data-name="Trazado 115545" d="M424.194,388.848c0-.461,2.464-1.878,5.656-2.852,3.4,1.149,8.124.2,9.894-.138.542,1.417.715,2.761.436,3.04-.526.526-15.987.445-15.987-.049" transform="translate(-191.46 -174.157)" fill="#291765"/>
            <path id="Trazado_115546" data-name="Trazado 115546" d="M472.937,290.369l2.695,2.39s3.034,8.214,3.211,8.757c.246.754,10.073,32.424,10.073,32.424l-6.847,2.464s-6.789-13.226-7.914-17.819-12.374-23.81-12.374-23.81Z" transform="translate(-208.425 -131.058)" fill="#4c3793"/>
            <path id="Trazado_115547" data-name="Trazado 115547" d="M449.843,298.869l-3.281,41.975H438.97s-2.719-31.413-1.781-42.443Z" transform="translate(-197.236 -134.683)" fill="#4c3793"/>
            <path id="Trazado_115548" data-name="Trazado 115548" d="M436.154,220.884a58.583,58.583,0,0,1,10.312-1.57,38.5,38.5,0,0,1,6.655.445s3.469,7.78,4.5,14.155,6.656,26.81,6.656,26.81-11.436,8.812-28.122,3Z" transform="translate(-196.858 -98.975)" fill="#fdb74d"/>
            <path id="Trazado_115549" data-name="Trazado 115549" d="M454.492,207.749s-.15,4.977.317,5.444a1.816,1.816,0,0,1,.433,2.43c-.687,1.187-3.672.43-5.062-.25a6.579,6.579,0,0,1-2.2-1.867l.7-7.883Z" transform="translate(-202.197 -92.808)" fill="#f7d8ba"/>
            <path id="Trazado_115550" data-name="Trazado 115550" d="M453,209.811a6.976,6.976,0,0,1-3.925-3.083l.1-1.1,5.812,2.125s-.037,1.214-.018,2.5a6.685,6.685,0,0,1-1.967-.437" transform="translate(-202.69 -92.808)" fill="#fdb74d"/>
            <path id="Trazado_115551" data-name="Trazado 115551" d="M445.089,193.365s-.142-2.926-1.938-2.358-.427,4.984,1.062,4.839.876-2.482.876-2.482" transform="translate(-199.63 -86.178)" fill="#f7d8ba"/>
            <path id="Trazado_115552" data-name="Trazado 115552" d="M451.741,177.9a5.312,5.312,0,0,1,4.25,2.124c1.437,2.187,3,8.437.625,12.749s-5.406,3.25-6.656,2.812-3.718-1.406-4.969-5.437-.343-13.092,6.75-12.249" transform="translate(-200.634 -80.27)" fill="#f7d8ba"/>
            <path id="Trazado_115553" data-name="Trazado 115553" d="M436.084,221.1c1.282,2.895,4.436,9.127,4.292,16-.152,7.2-5.568,11.874-5.568,11.874v3.56s5.977-.941,8.262-10.246-3.213-21.943-3.213-21.943a2.847,2.847,0,0,0-2.339-.126,2.6,2.6,0,0,0-1.433.879" transform="translate(-196.25 -99.321)" fill="#4c3793"/>
            <path id="Trazado_115554" data-name="Trazado 115554" d="M461.063,218.973s4.491,24.172,10.316,25.739l-1.013-4.121s-6-19.557-6-21.147-3.3-.471-3.3-.471" transform="translate(-208.1 -98.661)" fill="#4c3793"/>
            <path id="Trazado_115555" data-name="Trazado 115555" d="M468.875,278.34H451.448V258.482l17.426.775Z" transform="translate(-203.761 -116.666)" fill="#fdb74d"/>
            <path id="Trazado_115556" data-name="Trazado 115556" d="M468.875,257.071H452.223a.774.774,0,1,0,0,1.549h16.652l-.014-.006c-1.151-.432-1.145-1.114.014-1.543" transform="translate(-203.761 -116.029)" fill="#fdb74d"/>
            <path id="Trazado_115557" data-name="Trazado 115557" d="M469.059,257.489h-15.6a.545.545,0,0,0,0,1.09h15.6c-.528-.337-.528-.753,0-1.09" transform="translate(-204.421 -116.218)" fill="#ffc46e"/>
            <path id="Trazado_115558" data-name="Trazado 115558" d="M468.035,257.692h-1.1a.427.427,0,0,0-.427.427v.038h1.524Z" transform="translate(-210.559 -116.309)" fill="#291765"/>
            <path id="Trazado_115559" data-name="Trazado 115559" d="M467.371,257.694a1.342,1.342,0,0,1,.875.5l2.6,3.228h1.529l-2.475-3.07a1.772,1.772,0,0,0-1.154-.654Z" transform="translate(-210.948 -116.31)" fill="#4a3693"/>
            <path id="Trazado_115560" data-name="Trazado 115560" d="M434.037,222.2s1.314,1.317,2.72,6.311,2.123,16.687,3.342,17.906,9.187,7.562,10.624,7.343,4.655-3.968,5.656-3.968.875.906.375,1.406-1.109,1.078-.812,1.375l.3.3s4.453-1.172,5.2-.735-.719,1.469-.719,2.219a8.711,8.711,0,0,1,.094,1.563,3.116,3.116,0,0,1-.688,1.875c-.391.391-5.312,1.812-10.124,1.156a23.3,23.3,0,0,1-15.03-8.343c-4.343-5.374-3.473-22.266-3.375-23.95.251-4.265,2.438-4.453,2.438-4.453" transform="translate(-194.741 -100.288)" fill="#f7d8ba"/>
          </g>
        </g>
      </g>
    </g>
    <g id="Grupo_80879" data-name="Grupo 80879" transform="matrix(0.966, -0.259, 0.259, 0.966, 1169.862, 2597.537)" style="isolation: isolate">
      <g id="Grupo_80823" data-name="Grupo 80823" clip-path="url(#clip-path-10)">
        <g id="Grupo_80822" data-name="Grupo 80822" transform="translate(0 0.001)">
          <g id="Grupo_80821" data-name="Grupo 80821" clip-path="url(#clip-path-11)">
            <g id="Grupo_80820" data-name="Grupo 80820" transform="translate(0 -0.001)" style="mix-blend-mode: overlay;isolation: isolate">
              <g id="Grupo_80819" data-name="Grupo 80819" transform="translate(0 0)">
                <g id="Grupo_80818" data-name="Grupo 80818" clip-path="url(#clip-path-10)">
                  <path id="Trazado_115727" data-name="Trazado 115727" d="M21.445,8.879V5.013A5.015,5.015,0,0,0,16.43,0H13.895A5.015,5.015,0,0,0,8.879,5.013V8.879H5.013A5.014,5.014,0,0,0,0,13.895V16.43a5.014,5.014,0,0,0,5.013,5.015H8.879v3.866a5.014,5.014,0,0,0,5.015,5.013H16.43a5.014,5.014,0,0,0,5.015-5.013V21.445h3.866a5.015,5.015,0,0,0,5.013-5.015V13.895a5.015,5.015,0,0,0-5.013-5.015Z" transform="translate(0 0)" fill="#fdb74d" fill-rule="evenodd"/>
                </g>
              </g>
            </g>
          </g>
        </g>
      </g>
    </g>
  </g>
</svg>
