<svg xmlns="http://www.w3.org/2000/svg" xmlns:xlink="http://www.w3.org/1999/xlink" width="184.501" height="192.571" viewBox="0 0 184.501 192.571">
  <defs>
    <clipPath id="clip-path">
      <rect id="Rectángulo_34816" data-name="Rectángulo 34816" width="67.441" height="67.129" fill="none"/>
    </clipPath>
    <clipPath id="clip-path-4">
      <rect id="Rectángulo_34813" data-name="Rectángulo 34813" width="41.431" height="41.239" fill="none"/>
    </clipPath>
    <clipPath id="clip-path-5">
      <rect id="Rectángulo_34814" data-name="Rectángulo 34814" width="19.117" height="19.028" fill="none"/>
    </clipPath>
    <clipPath id="clip-path-6">
      <rect id="Rectángulo_34826" data-name="Rectángulo 34826" width="150.781" height="180.14" fill="none"/>
    </clipPath>
  </defs>
  <g id="Grupo_81218" data-name="Grupo 81218" transform="translate(2805.778 10713)">
    <g id="Grupo_80885" data-name="Grupo 80885" transform="translate(-2805.778 -10713)">
      <g id="Grupo_80857" data-name="Grupo 80857" clip-path="url(#clip-path)">
        <g id="Grupo_80856" data-name="Grupo 80856" transform="translate(0 0)">
          <g id="Grupo_80855" data-name="Grupo 80855" clip-path="url(#clip-path)">
            <g id="Grupo_80848" data-name="Grupo 80848" transform="translate(0 0)" opacity="0.17" style="isolation: isolate">
              <g id="Grupo_80847" data-name="Grupo 80847" transform="translate(0 0)">
                <g id="Grupo_80846" data-name="Grupo 80846" clip-path="url(#clip-path)">
                  <path id="Trazado_115734" data-name="Trazado 115734" d="M55.211,59.881a90.044,90.044,0,0,0,5.583-8.425c1.953-3.331,3.892-6.779,4.686-10.6.749-3.608.982-8.361-1.219-11.528C61.9,25.886,53.618,19.338,51.348,16.424,49.506,14.059,45.976,8.277,44.9,4.214a4.064,4.064,0,0,0-3.422-2.974l-.078-.01a4.073,4.073,0,0,0-3.758,1.555c-1.176,1.543-3.531,3.6-8.006,4.376C25.155,8,19.051,8.538,17.8,8.871s-2.221,1.453-2.886,3.25S11.751,20.78,8.526,24.382a14.435,14.435,0,0,1-4.843,3.577,4.136,4.136,0,0,0-2.322,2.85l-.069.318A4.093,4.093,0,0,0,3.011,35.4a35.853,35.853,0,0,1,6.214,4.978c1.9,2.278,4.779,4.417,10.519,17.7.029.068.059.137.092.2.715,1.419,4.829,13.9,33.553,2.98A4.1,4.1,0,0,0,55.211,59.881Z" transform="translate(0.117 0.117)" fill="none" stroke="#5038a1" stroke-miterlimit="10" stroke-width="2.396"/>
                </g>
              </g>
            </g>
            <g id="Grupo_80851" data-name="Grupo 80851" transform="translate(13.699 13.608)" opacity="0.17" style="isolation: isolate">
              <g id="Grupo_80850" data-name="Grupo 80850">
                <g id="Grupo_80849" data-name="Grupo 80849" clip-path="url(#clip-path-4)">
                  <path id="Trazado_115735" data-name="Trazado 115735" d="M46.4,49.183a55.585,55.585,0,0,0,3.43-5.175A22,22,0,0,0,52.707,37.5c.46-2.216.6-5.136-.75-7.081-1.452-2.116-6.538-6.139-7.933-7.929a26.585,26.585,0,0,1-3.958-7.5,2.5,2.5,0,0,0-2.1-1.826l-.047-.007a2.5,2.5,0,0,0-2.309.956A7.515,7.515,0,0,1,30.688,16.8c-2.754.513-6.5.845-7.273,1.049a2.866,2.866,0,0,0-1.773,2c-.408,1.1-1.943,5.32-3.923,7.532a8.867,8.867,0,0,1-2.976,2.2,2.543,2.543,0,0,0-1.426,1.751l-.043.2a2.514,2.514,0,0,0,1.056,2.626A22.077,22.077,0,0,1,18.149,37.2c1.165,1.4,2.936,2.713,6.462,10.871.018.042.036.085.057.125.438.872,2.966,8.541,20.612,1.831A2.519,2.519,0,0,0,46.4,49.183Z" transform="translate(-12.409 -12.325)" fill="none" stroke="#5038a1" stroke-miterlimit="10" stroke-width="1.472"/>
                </g>
              </g>
            </g>
            <g id="Grupo_80854" data-name="Grupo 80854" transform="translate(25.452 25.281)" opacity="0.17" style="isolation: isolate">
              <g id="Grupo_80853" data-name="Grupo 80853">
                <g id="Grupo_80852" data-name="Grupo 80852" clip-path="url(#clip-path-5)">
                  <path id="Trazado_115736" data-name="Trazado 115736" d="M38.838,40.006a25.632,25.632,0,0,0,1.583-2.389,10.161,10.161,0,0,0,1.328-3,4.423,4.423,0,0,0-.346-3.268c-.671-.977-3.017-2.833-3.661-3.658a12.284,12.284,0,0,1-1.826-3.461,1.152,1.152,0,0,0-.97-.843l-.022,0a1.155,1.155,0,0,0-1.065.441,3.469,3.469,0,0,1-2.27,1.24c-1.271.237-3,.39-3.357.484a1.324,1.324,0,0,0-.818.921,12.364,12.364,0,0,1-1.81,3.476,4.09,4.09,0,0,1-1.373,1.014,1.17,1.17,0,0,0-.657.807l-.02.09a1.159,1.159,0,0,0,.487,1.212,10.216,10.216,0,0,1,1.761,1.41c.538.647,1.356,1.252,2.982,5.016a.555.555,0,0,0,.026.058c.2.4,1.368,3.941,9.51.844A1.159,1.159,0,0,0,38.838,40.006Z" transform="translate(-23.155 -22.998)" fill="none" stroke="#5038a1" stroke-miterlimit="10" stroke-width="0.679"/>
                </g>
              </g>
            </g>
          </g>
        </g>
      </g>
    </g>
    <g id="Grupo_80890" data-name="Grupo 80890" transform="translate(-2772.057 -10700.568)">
      <g id="Grupo_80890-2" data-name="Grupo 80890" clip-path="url(#clip-path-6)">
        <path id="Trazado_115815" data-name="Trazado 115815" d="M78.583,179.66a250.437,250.437,0,0,0,34.168-12.9c6.734-3.127,13.486-6.124,19.162-11.015a71.179,71.179,0,0,0,12.958-14.413c3.1-4.676,5.671-10.031,5.89-15.727.455-11.816-7.272-40.675-7.5-51.128-.184-8.479,1.575-27.575,6.006-38.608a11.5,11.5,0,0,0-2.745-12.537l-.16-.154A11.524,11.524,0,0,0,135.2,20.352c-5.277,1.516-14.1,2.2-25.572-3.6C98.042,11.073,83.272,1.983,79.864.62s-7.5-.455-12.044,2.5S46.005,17.435,32.6,20.162c-3.069.9-10.156,1.375-17.041-.065A11.7,11.7,0,0,0,5.471,22.641l-.7.6A11.591,11.591,0,0,0,1.454,35.854c2.3,6.507,5.282,15.9,5.694,21.8.453,8.377,3.386,18.106-6.029,57.952-.048.2-.1.412-.132.618-.777,4.43-12.537,39.721,71.135,63.475a11.591,11.591,0,0,0,6.461-.041" transform="translate(0 0)" fill="#8c6df2"/>
        <path id="Trazado_115816" data-name="Trazado 115816" d="M91.9,86.917c-11.873,23.747-29.463,55.032-40.478,77.062a15.992,15.992,0,0,0,14.3,23.146h80.956a15.994,15.994,0,0,0,14.3-23.146c-11.016-22.029-28.606-53.315-40.478-77.062a15.993,15.993,0,0,0-28.609,0Z" transform="translate(-30.819 -48.378)" fill="#fedc72" fill-rule="evenodd"/>
        <path id="Trazado_115817" data-name="Trazado 115817" d="M171.625,194.71v-5.577a7.237,7.237,0,0,0-7.236-7.236h-3.661a7.237,7.237,0,0,0-7.236,7.236v5.577h-5.577a7.236,7.236,0,0,0-7.236,7.236v3.661a7.236,7.236,0,0,0,7.236,7.236h5.577v5.579a7.235,7.235,0,0,0,7.236,7.234h3.661a7.235,7.235,0,0,0,7.236-7.234v-5.579H177.2a7.237,7.237,0,0,0,7.236-7.236v-3.661a7.237,7.237,0,0,0-7.236-7.236Z" transform="translate(-87.169 -112.708)" fill="#5038a1" fill-rule="evenodd"/>
      </g>
    </g>
  </g>
</svg>
