<svg xmlns="http://www.w3.org/2000/svg" xmlns:xlink="http://www.w3.org/1999/xlink" width="174.164" height="190.557" viewBox="0 0 174.164 190.557">
  <defs>
    <clipPath id="clip-path">
      <rect id="Rectángulo_34816" data-name="Rectángulo 34816" width="67.441" height="67.129" fill="none"/>
    </clipPath>
    <clipPath id="clip-path-4">
      <rect id="Rectángulo_34813" data-name="Rectángulo 34813" width="41.431" height="41.239" fill="none"/>
    </clipPath>
    <clipPath id="clip-path-5">
      <rect id="Rectángulo_34814" data-name="Rectángulo 34814" width="19.117" height="19.028" fill="none"/>
    </clipPath>
    <clipPath id="clip-path-6">
      <rect id="Rectángulo_34766" data-name="Rectángulo 34766" width="150.78" height="180.143" fill="none"/>
    </clipPath>
  </defs>
  <g id="Grupo_81217" data-name="Grupo 81217" transform="translate(-1015.226 -781.015)">
    <g id="Grupo_80884" data-name="Grupo 80884" transform="translate(1015.226 781.015)">
      <g id="Grupo_80857" data-name="Grupo 80857" clip-path="url(#clip-path)">
        <g id="Grupo_80856" data-name="Grupo 80856" transform="translate(0 0)">
          <g id="Grupo_80855" data-name="Grupo 80855" clip-path="url(#clip-path)">
            <g id="Grupo_80848" data-name="Grupo 80848" transform="translate(0 0)" opacity="0.17" style="isolation: isolate">
              <g id="Grupo_80847" data-name="Grupo 80847" transform="translate(0 0)">
                <g id="Grupo_80846" data-name="Grupo 80846" clip-path="url(#clip-path)">
                  <path id="Trazado_115734" data-name="Trazado 115734" d="M55.211,59.881a90.044,90.044,0,0,0,5.583-8.425c1.953-3.331,3.892-6.779,4.686-10.6.749-3.608.982-8.361-1.219-11.528C61.9,25.886,53.618,19.338,51.348,16.424,49.506,14.059,45.976,8.277,44.9,4.214a4.064,4.064,0,0,0-3.422-2.974l-.078-.01a4.073,4.073,0,0,0-3.758,1.555c-1.176,1.543-3.531,3.6-8.006,4.376C25.155,8,19.051,8.538,17.8,8.871s-2.221,1.453-2.886,3.25S11.751,20.78,8.526,24.382a14.435,14.435,0,0,1-4.843,3.577,4.136,4.136,0,0,0-2.322,2.85l-.069.318A4.093,4.093,0,0,0,3.011,35.4a35.853,35.853,0,0,1,6.214,4.978c1.9,2.278,4.779,4.417,10.519,17.7.029.068.059.137.092.2.715,1.419,4.829,13.9,33.553,2.98A4.1,4.1,0,0,0,55.211,59.881Z" transform="translate(0.117 0.117)" fill="none" stroke="#5038a1" stroke-miterlimit="10" stroke-width="2.396"/>
                </g>
              </g>
            </g>
            <g id="Grupo_80851" data-name="Grupo 80851" transform="translate(13.699 13.608)" opacity="0.17" style="isolation: isolate">
              <g id="Grupo_80850" data-name="Grupo 80850">
                <g id="Grupo_80849" data-name="Grupo 80849" clip-path="url(#clip-path-4)">
                  <path id="Trazado_115735" data-name="Trazado 115735" d="M46.4,49.183a55.585,55.585,0,0,0,3.43-5.175A22,22,0,0,0,52.707,37.5c.46-2.216.6-5.136-.75-7.081-1.452-2.116-6.538-6.139-7.933-7.929a26.585,26.585,0,0,1-3.958-7.5,2.5,2.5,0,0,0-2.1-1.826l-.047-.007a2.5,2.5,0,0,0-2.309.956A7.515,7.515,0,0,1,30.688,16.8c-2.754.513-6.5.845-7.273,1.049a2.866,2.866,0,0,0-1.773,2c-.408,1.1-1.943,5.32-3.923,7.532a8.867,8.867,0,0,1-2.976,2.2,2.543,2.543,0,0,0-1.426,1.751l-.043.2a2.514,2.514,0,0,0,1.056,2.626A22.077,22.077,0,0,1,18.149,37.2c1.165,1.4,2.936,2.713,6.462,10.871.018.042.036.085.057.125.438.872,2.966,8.541,20.612,1.831A2.519,2.519,0,0,0,46.4,49.183Z" transform="translate(-12.409 -12.325)" fill="none" stroke="#5038a1" stroke-miterlimit="10" stroke-width="1.472"/>
                </g>
              </g>
            </g>
            <g id="Grupo_80854" data-name="Grupo 80854" transform="translate(25.452 25.281)" opacity="0.17" style="isolation: isolate">
              <g id="Grupo_80853" data-name="Grupo 80853">
                <g id="Grupo_80852" data-name="Grupo 80852" clip-path="url(#clip-path-5)">
                  <path id="Trazado_115736" data-name="Trazado 115736" d="M38.838,40.006a25.632,25.632,0,0,0,1.583-2.389,10.161,10.161,0,0,0,1.328-3,4.423,4.423,0,0,0-.346-3.268c-.671-.977-3.017-2.833-3.661-3.658a12.284,12.284,0,0,1-1.826-3.461,1.152,1.152,0,0,0-.97-.843l-.022,0a1.155,1.155,0,0,0-1.065.441,3.469,3.469,0,0,1-2.27,1.24c-1.271.237-3,.39-3.357.484a1.324,1.324,0,0,0-.818.921,12.364,12.364,0,0,1-1.81,3.476,4.09,4.09,0,0,1-1.373,1.014,1.17,1.17,0,0,0-.657.807l-.02.09a1.159,1.159,0,0,0,.487,1.212,10.216,10.216,0,0,1,1.761,1.41c.538.647,1.356,1.252,2.982,5.016a.555.555,0,0,0,.026.058c.2.4,1.368,3.941,9.51.844A1.159,1.159,0,0,0,38.838,40.006Z" transform="translate(-23.155 -22.998)" fill="none" stroke="#5038a1" stroke-miterlimit="10" stroke-width="0.679"/>
                </g>
              </g>
            </g>
          </g>
        </g>
      </g>
    </g>
    <g id="Grupo_80747" data-name="Grupo 80747" transform="translate(1038.61 791.429)">
      <g id="Grupo_80746" data-name="Grupo 80746" clip-path="url(#clip-path-6)">
        <path id="Trazado_115586" data-name="Trazado 115586" d="M150.762,125.6c-.221,5.7-2.792,11.05-5.892,15.729a67.757,67.757,0,0,1-9.7,11.449c-1.061,1.019-2.153,2-3.264,2.963a43.958,43.958,0,0,1-4.58,3.435,111.4,111.4,0,0,1-14.58,7.581,250.6,250.6,0,0,1-34.169,12.9,11.562,11.562,0,0,1-6.463.042c-22.172-6.3-37.642-13.4-48.388-20.525A68.41,68.41,0,0,1,9.045,146.492c-.373-.441-.727-.879-1.069-1.312C-2.922,131.322.3,119.55.928,116.522c.023-.11.042-.205.057-.293.038-.209.084-.415.133-.62C10.532,75.765,7.6,66.035,7.147,57.659c-.411-5.907-3.4-15.295-5.694-21.8a11.588,11.588,0,0,1,3.321-12.61l.7-.6A11.7,11.7,0,0,1,15.557,20.1c6.885,1.438,13.971.966,17.041.065C46,17.438,63.275,6.076,67.817,3.12S76.455-.744,79.863.621s18.178,10.453,29.768,16.132c11.468,5.8,20.293,5.116,25.573,3.6a11.527,11.527,0,0,1,11.16,2.822c.053.049.107.1.16.152a11.5,11.5,0,0,1,2.743,12.537c-4.431,11.035-6.189,30.13-6.006,38.608.179,8.319,5.108,28.289,6.889,42.051a58.165,58.165,0,0,1,.612,9.08" transform="translate(0 0)" fill="#8c6df2"/>
        <path id="Trazado_115587" data-name="Trazado 115587" d="M182.984,133.154,156.9,165.577l5.88,32.464h70.382l-9.05-44.316-35.6-21.547a4.266,4.266,0,0,0-5.533.976" transform="translate(-97.22 -81.519)" fill="#dbe6fd"/>
        <rect id="Rectángulo_34763" data-name="Rectángulo 34763" width="8.531" height="8.531" transform="matrix(0.985, -0.174, 0.174, 0.985, 112.313, 87.772)" fill="#a7d0e1"/>
        <path id="Trazado_115588" data-name="Trazado 115588" d="M169.271,94.971l-33.725,41.66a4.266,4.266,0,0,0,4.056,6.885l3.47-.612,26.082-32.423a4.265,4.265,0,0,1,5.532-.976l35.6,21.547,3.47-.612a4.266,4.266,0,0,0,1.457-7.857Z" transform="translate(-83.39 -58.846)" fill="#5038a1"/>
        <path id="Trazado_115589" data-name="Trazado 115589" d="M247.891,122.093a2.117,2.117,0,0,1-1.1-.305l-3.548-2.133a2.133,2.133,0,0,1,2.2-3.655l3.548,2.133a2.133,2.133,0,0,1-1.1,3.96" transform="translate(-150.08 -71.686)" fill="#fff"/>
        <path id="Trazado_115590" data-name="Trazado 115590" d="M141.944,136.631l31.631-39.073-4.3-2.587-33.725,41.66a4.266,4.266,0,0,0,4.056,6.885l3.373-.595a4.261,4.261,0,0,1-1.03-6.29" transform="translate(-83.39 -58.846)" fill="#12263f"/>
        <path id="Trazado_115591" data-name="Trazado 115591" d="M233.164,198.042l-1.307-6.4h-36.31a34.094,34.094,0,0,1-31.681-21.524,8.5,8.5,0,0,1,1.318-8.439l17.8-22.128a4.265,4.265,0,0,1,5.533-.975l35.6,21.547,1.261-.222-1.261-6.176-35.6-21.547a4.265,4.265,0,0,0-5.533.975L161.33,160.073l-4.428,5.5.946,5.223,4.934,27.242Z" transform="translate(-97.22 -81.519)" fill="#bbcff2"/>
        <rect id="Rectángulo_34764" data-name="Rectángulo 34764" width="8.531" height="8.531" transform="matrix(0.985, -0.174, 0.174, 0.985, 70.306, 95.179)" fill="#a7d0e1"/>
        <path id="Trazado_115592" data-name="Trazado 115592" d="M185.008,251.223l1.414,8.021,5.267-.928a34.171,34.171,0,0,1-6.681-7.093" transform="translate(-114.635 -155.664)" fill="#80bbce"/>
        <path id="Trazado_115593" data-name="Trazado 115593" d="M238.207,177.307a6.4,6.4,0,1,1-7.412-5.19,6.4,6.4,0,0,1,7.412,5.19" transform="translate(-139.729 -106.587)" fill="#a7d0e1"/>
        <path id="Trazado_115594" data-name="Trazado 115594" d="M163.754,315.413c-.221,5.7-2.792,11.05-5.892,15.729a67.757,67.757,0,0,1-9.7,11.449c-1.061,1.019-2.153,2-3.264,2.963a43.963,43.963,0,0,1-4.58,3.435H36.723A68.409,68.409,0,0,1,22.037,336.3c-.373-.441-.727-.879-1.069-1.312V306.333H63.623l8.532,8.532-4.264,4.264,6.4,6.4v10.666l6.4-6.4v-8.532l-2.134-2.134v-12.8h84.588a58.168,58.168,0,0,1,.612,9.08" transform="translate(-12.992 -189.811)" fill="#fedc72"/>
        <path id="Trazado_115595" data-name="Trazado 115595" d="M135.174,342.591c-1.061,1.019-2.153,2-3.264,2.963a43.96,43.96,0,0,1-4.58,3.435H23.731A68.409,68.409,0,0,1,9.045,336.3c-.373-.441-.727-.879-1.069-1.312C-2.922,321.134.3,309.361.928,306.333H14.374a36.259,36.259,0,0,0,36.258,36.258Z" transform="translate(0 -189.811)" fill="#fdb74d"/>
        <rect id="Rectángulo_34765" data-name="Rectángulo 34765" width="8.531" height="34.124" transform="translate(22.906 82.398)" fill="#fedc72"/>
        <path id="Trazado_115596" data-name="Trazado 115596" d="M60.22,232.879a11.7,11.7,0,0,0,8.531,0V216.622H60.22Z" transform="translate(-37.314 -134.224)" fill="#fdb74d"/>
        <path id="Trazado_115597" data-name="Trazado 115597" d="M62.044,168.533c0,10.6-6.684,19.195-14.929,19.195s-14.929-8.594-14.929-19.195,6.684-19.195,14.929-19.195,14.929,8.594,14.929,19.195" transform="translate(-19.943 -92.533)" fill="#72aa65"/>
        <path id="Trazado_115598" data-name="Trazado 115598" d="M53.513,183.625c-8.245,0-14.929-8.594-14.929-19.195a22.889,22.889,0,0,1,2.931-11.388c-5.468,2.849-9.329,9.733-9.329,17.786,0,10.6,6.684,19.195,14.929,19.195,4.925,0,9.279-3.08,12-7.808a12.053,12.053,0,0,1-5.6,1.409" transform="translate(-19.943 -94.828)" fill="#599149"/>
        <path id="Trazado_115599" data-name="Trazado 115599" d="M251.706,263.011H234.388L230.847,242.9a4.253,4.253,0,0,1,3.455-4.927l8.4-1.493a4.279,4.279,0,0,1,4.948,3.455Z" transform="translate(-142.998 -146.488)" fill="#5038a1"/>
        <path id="Trazado_115600" data-name="Trazado 115600" d="M245.068,287.832a34.078,34.078,0,0,1-8.245-1.032l1.308,7.43h17.319l-1.124-6.4Z" transform="translate(-146.741 -177.708)" fill="#12263f"/>
        <path id="Trazado_115601" data-name="Trazado 115601" d="M107.209,96.311a2.126,2.126,0,0,0,1.508-.625l2.133-2.133a5.153,5.153,0,0,0,0-7.281.885.885,0,0,1,0-1.25l2.133-2.133a2.133,2.133,0,1,0-3.016-3.016l-2.133,2.133a5.153,5.153,0,0,0,0,7.281.885.885,0,0,1,0,1.25L105.7,92.67a2.133,2.133,0,0,0,1.508,3.641" transform="translate(-65.107 -49.104)" fill="#fedc72"/>
        <path id="Trazado_115602" data-name="Trazado 115602" d="M128.129,92.67a2.133,2.133,0,0,0,3.016,3.016l2.133-2.133a5.154,5.154,0,0,0,0-7.282.884.884,0,0,1,0-1.25l2.133-2.133a2.133,2.133,0,0,0-3.016-3.016l-2.133,2.133a5.154,5.154,0,0,0,0,7.282.884.884,0,0,1,0,1.25Z" transform="translate(-79.005 -49.104)" fill="#fedc72"/>
        <path id="Trazado_115603" data-name="Trazado 115603" d="M187.141,62.874a2.126,2.126,0,0,0,1.508-.625l2.133-2.133a5.153,5.153,0,0,0,0-7.281.885.885,0,0,1,0-1.25l2.133-2.133a2.133,2.133,0,1,0-3.016-3.016l-2.133,2.133a5.154,5.154,0,0,0,0,7.282.885.885,0,0,1,0,1.25l-2.133,2.133a2.133,2.133,0,0,0,1.508,3.641" transform="translate(-114.635 -28.386)" fill="#fedc72"/>
        <path id="Trazado_115604" data-name="Trazado 115604" d="M208.061,59.233a2.133,2.133,0,1,0,3.016,3.016l2.133-2.133a5.154,5.154,0,0,0,0-7.282.884.884,0,0,1,0-1.25l2.132-2.133a2.133,2.133,0,0,0-3.016-3.016l-2.132,2.133a5.154,5.154,0,0,0,0,7.282.885.885,0,0,1,0,1.25Z" transform="translate(-128.532 -28.386)" fill="#fedc72"/>
        <path id="Trazado_115605" data-name="Trazado 115605" d="M116.915,258.629a2.133,2.133,0,0,0,3.016,3.016l2.133-2.133a2.133,2.133,0,1,0-3.016-3.016Z" transform="translate(-72.056 -158.544)" fill="#fedc72"/>
        <path id="Trazado_115606" data-name="Trazado 115606" d="M357.559,200.426a2.132,2.132,0,0,0-3.016,0l-2.133,2.133a2.133,2.133,0,0,0,3.016,3.016l2.133-2.133a2.132,2.132,0,0,0,0-3.016" transform="translate(-217.974 -123.802)" fill="#fedc72"/>
        <path id="Trazado_115607" data-name="Trazado 115607" d="M142.984,276.958v-2.133a2.133,2.133,0,0,0-4.266,0v2.133a2.133,2.133,0,0,0,4.266,0" transform="translate(-85.953 -168.966)" fill="#fedc72"/>
        <path id="Trazado_115608" data-name="Trazado 115608" d="M355.426,228.461a2.133,2.133,0,0,0-3.016,3.016l2.133,2.133a2.133,2.133,0,1,0,3.016-3.016Z" transform="translate(-217.974 -141.173)" fill="#fedc72"/>
        <path id="Trazado_115609" data-name="Trazado 115609" d="M177.562,198.853a2.131,2.131,0,0,0,.877,1.377l7.413,5.191a2.133,2.133,0,0,0,2.447-3.495l-5.666-3.967,2.238-3.194a2.132,2.132,0,0,0-.388-2.866l-5.123-4.243-2.674,3.323,3.562,2.95-2.333,3.329a2.14,2.14,0,0,0-.353,1.595" transform="translate(-109.479 -116.276)" fill="#bbcff2"/>
        <path id="Trazado_115610" data-name="Trazado 115610" d="M39.925,329.8h7.648l3.641,3.641a2.133,2.133,0,1,0,3.016-3.016l-2.758-2.758,11.289-11.289a2.132,2.132,0,0,0,0-3.016l-7.023-7.023H49.705l8.531,8.531L47.573,325.53H39.925a2.133,2.133,0,1,0,0,4.266" transform="translate(-23.417 -189.812)" fill="#fdb74d"/>
        <path id="Trazado_115611" data-name="Trazado 115611" d="M228.047,378.051a2.133,2.133,0,0,0-3.016-3.016l-2.757,2.758-2.133-2.133v-5.515a2.133,2.133,0,0,0-4.266,0v4.266h-2.133a2.133,2.133,0,0,0,0,4.266h3.383l3.016,3.016v5.515h4.266v-5.515Z" transform="translate(-131.118 -228.029)" fill="#fdb74d"/>
        <path id="Trazado_115612" data-name="Trazado 115612" d="M308.71,277.105l-1.7-9.631,2.954-4.218a2.133,2.133,0,1,0-3.495-2.447l-2.954,4.218-3.33.587a2.133,2.133,0,0,0,.741,4.2l2.1-.37,1.431,8.117h4.24a2.016,2.016,0,0,0,.011-.457" transform="translate(-184.911 -161.04)" fill="#bbcff2"/>
        <path id="Trazado_115613" data-name="Trazado 115613" d="M290.807,306.335l-6.4,6.4h-3.383a2.133,2.133,0,1,0,0,4.266h3.383l5.149,5.149v5.515a2.134,2.134,0,0,0,.625,1.508l6.4,6.4a2.133,2.133,0,1,0,3.016-3.016l-5.774-5.773V323.4h4.266a2.133,2.133,0,1,0,0-4.266h-5.515l-4.266-4.266,8.531-8.531Z" transform="translate(-172.809 -189.812)" fill="#fdb74d"/>
      </g>
    </g>
  </g>
</svg>
