<svg xmlns="http://www.w3.org/2000/svg" xmlns:xlink="http://www.w3.org/1999/xlink" width="420" height="249.129" viewBox="0 0 420 249.129">
  <defs>
    <clipPath id="clip-path">
      <rect id="Rectángulo_34805" data-name="Rectángulo 34805" width="34.03" height="46.273" fill="none"/>
    </clipPath>
    <clipPath id="clip-path-2">
      <path id="Trazado_115728" data-name="Trazado 115728" d="M33.625,0A.4.4,0,0,0,33.4.076,84.911,84.911,0,0,0,23.15,9,112.306,112.306,0,0,0,14.2,19.3a121.162,121.162,0,0,0-7.73,11.292A89.022,89.022,0,0,0,.179,42.933c-.022.054-.044.115-.063.172A2.431,2.431,0,0,0,0,43.836v.021a2.429,2.429,0,0,0,2.415,2.416H2.44a2.428,2.428,0,0,0,2.3-1.685l.012-.038a84.9,84.9,0,0,1,5.078-12.1A117.874,117.874,0,0,1,16.5,20.931a110.06,110.06,0,0,1,7.98-10.707A83.59,83.59,0,0,1,33.888.7l0,0A.4.4,0,0,0,33.64,0Z" fill="#8c6df2"/>
    </clipPath>
    <clipPath id="clip-path-3">
      <rect id="Rectángulo_34805-2" data-name="Rectángulo 34805" width="101.513" height="138.037" fill="none"/>
    </clipPath>
    <clipPath id="clip-path-4">
      <path id="Trazado_115728-2" data-name="Trazado 115728" d="M100.308,0a1.183,1.183,0,0,0-.674.227A253.3,253.3,0,0,0,69.058,26.859a335.02,335.02,0,0,0-26.687,30.7A361.438,361.438,0,0,0,19.312,91.248,265.558,265.558,0,0,0,.534,128.072c-.066.163-.131.344-.187.513A7.253,7.253,0,0,0,0,130.767v.064a7.245,7.245,0,0,0,7.205,7.206h.073a7.242,7.242,0,0,0,6.853-5.027l.036-.113a253.265,253.265,0,0,1,15.147-36.1A351.628,351.628,0,0,1,49.224,62.439,328.315,328.315,0,0,1,73.03,30.5,249.356,249.356,0,0,1,101.092,2.085l.009-.009A1.182,1.182,0,0,0,100.352,0Z" fill="#fedc72"/>
    </clipPath>
    <clipPath id="clip-path-5">
      <rect id="Rectángulo_34719" data-name="Rectángulo 34719" width="172.875" height="209.847" fill="none"/>
    </clipPath>
  </defs>
  <g id="Grupo_81217" data-name="Grupo 81217" transform="translate(-895 -366.871)">
    <g id="Grupo_80527" data-name="Grupo 80527" transform="translate(0 4)">
      <ellipse id="Elipse_4784" data-name="Elipse 4784" cx="200" cy="106.5" rx="200" ry="106.5" transform="translate(915 399)" fill="#8c6df2" opacity="0.25"/>
    </g>
    <path id="Trazado_117358" data-name="Trazado 117358" d="M394.5,44.517a264.334,264.334,0,0,1-23.822,22.3,194.605,194.605,0,0,1-26.9,18.595A141.339,141.339,0,0,1,313.2,98.547a99.557,99.557,0,0,1-16.87,3.344c-1.454.126-2.908.287-4.383.333-.736.032-1.471.077-2.211.094l-2.227.009c-1.5.014-2.934-.049-4.412-.076-1.459-.09-2.933-.149-4.391-.292-11.723-1.02-23.077-4.294-33.649-8.407-10.605-4.12-20.522-9.092-30.064-13.852-4.767-2.39-9.462-4.715-14.079-6.876-2.312-1.093-4.6-2.116-6.876-3.117-1.135-.479-2.27-.978-3.4-1.433l-3.492-1.417c-9.724-3.935-19.227-7.6-28.584-10.522-4.675-1.464-9.3-2.743-13.855-3.77-2.275-.514-4.53-.968-6.758-1.349s-4.432-.667-6.595-.888c-8.661-.907-16.672-.446-23.326,1.411a42.439,42.439,0,0,0-4.765,1.636c-.759.306-1.493.647-2.216.99l-1.065.538c-.32.182-.641.35-.955.542a33.339,33.339,0,0,0-6.909,5.367c-.511.524-1.01,1.055-1.485,1.611L88.789,64.5c-.638.715-1.208,1.462-1.816,2.177-.586.729-1.121,1.479-1.686,2.2A55.788,55.788,0,0,0,79.9,77.9a49.98,49.98,0,0,0-3.367,9.274A50.507,50.507,0,0,0,75.017,96.8a72.375,72.375,0,0,0,1.842,20.649A108.334,108.334,0,0,0,84.5,139.2a116.678,116.678,0,0,0,5.613,10.574c1.015,1.7,2.067,3.359,3.12,4.922.526.775,1.061,1.524,1.573,2.2.255.337.509.665.736.931a4.509,4.509,0,0,0,.314.348c.04.032.1.1.113.088l.019,0s.023.023-.006-.038l-.111-.252A45.43,45.43,0,0,1,17.179,203.4l-.356-.684-.228-.468-.364-.782-.622-1.4c-.392-.9-.743-1.753-1.085-2.6-.68-1.683-1.3-3.315-1.9-4.934-1.188-3.232-2.264-6.419-3.26-9.615-1.988-6.386-3.644-12.807-5.044-19.328A189.235,189.235,0,0,1,0,123.1,143.229,143.229,0,0,1,6.344,80.65a125.1,125.1,0,0,1,8.481-20.471,116.342,116.342,0,0,1,12-18.458,120,120,0,0,1,14.709-15.5c1.324-1.129,2.634-2.277,3.975-3.362,1.352-1.061,2.688-2.153,4.058-3.163l2.059-1.5c.7-.506,1.322-.966,2.162-1.547,1.58-1.112,3.2-2.164,4.849-3.173A90.9,90.9,0,0,1,79.694,3.977c.92-.288,1.853-.54,2.781-.8.91-.235,1.808-.462,2.714-.677C87,2.086,88.813,1.707,90.63,1.4A96.563,96.563,0,0,1,101.47.158a104.7,104.7,0,0,1,20.786.937,126.273,126.273,0,0,1,18.973,4.274,192.557,192.557,0,0,1,33.019,13.87c10.149,5.318,19.608,11.108,28.71,16.847l3.55,2.249c1.218.772,2.394,1.562,3.586,2.344,2.344,1.579,4.662,3.166,6.9,4.768,4.513,3.2,8.833,6.422,13.1,9.554,8.515,6.274,16.725,12.308,25.188,17.41a100.531,100.531,0,0,0,26.373,11.659c1.148.317,2.307.555,3.467.834l1.749.338.878.171c.291.051.578.08.867.121l1.736.234c.582.067,1.17.107,1.757.164,1.172.13,2.363.153,3.553.218,1.193.038,2.4.035,3.6.031,1.207-.056,2.419-.044,3.634-.154l1.826-.128c.61-.046,1.219-.125,1.829-.187,1.221-.119,2.441-.3,3.663-.489,1.226-.16,2.44-.427,3.666-.636,1.221-.234,2.438-.518,3.66-.78,1.209-.321,2.426-.62,3.636-.959,1.2-.365,2.42-.686,3.617-1.085,2.407-.759,4.788-1.621,7.143-2.569,1.18-.469,2.359-.943,3.521-1.463l1.75-.767,1.725-.823a129.169,129.169,0,0,0,25.937-16.444,126.736,126.736,0,0,0,21.445-22.12,5.376,5.376,0,1,1,8.211,6.916Z" transform="translate(895 366.871)" fill="#fdb74d"/>
    <g id="Grupo_80828" data-name="Grupo 80828" transform="translate(942.95 384.441) rotate(8)">
      <g id="Grupo_80827" data-name="Grupo 80827" clip-path="url(#clip-path)">
        <g id="Grupo_80826" data-name="Grupo 80826">
          <g id="Grupo_80825" data-name="Grupo 80825" clip-path="url(#clip-path-2)">
            <rect id="Rectángulo_34804" data-name="Rectángulo 34804" width="42.433" height="52.649" transform="translate(-4.191 -3.233)" fill="#8c6df2"/>
          </g>
        </g>
      </g>
    </g>
    <g id="Grupo_80829" data-name="Grupo 80829" transform="translate(1196.875 467.963)">
      <g id="Grupo_80827-2" data-name="Grupo 80827" clip-path="url(#clip-path-3)">
        <g id="Grupo_80826-2" data-name="Grupo 80826">
          <g id="Grupo_80825-2" data-name="Grupo 80825" clip-path="url(#clip-path-4)">
            <rect id="Rectángulo_34804-2" data-name="Rectángulo 34804" width="126.583" height="157.057" transform="translate(-12.502 -9.643)" fill="#fedc72"/>
          </g>
        </g>
      </g>
    </g>
    <g id="Grupo_80643" data-name="Grupo 80643" transform="translate(1024 389.652)">
      <g id="Grupo_80642" data-name="Grupo 80642" clip-path="url(#clip-path-5)">
        <path id="Trazado_115055" data-name="Trazado 115055" d="M168.6,57.6l3.39-21.08a8.973,8.973,0,0,0-.758-5.284L160.375,8.441a8.975,8.975,0,0,0-11.031-4.624l-2.1.723a65.3,65.3,0,0,1-39.26,1.167L88.913.336a8.978,8.978,0,0,0-4.865,0L64.973,5.707A65.3,65.3,0,0,1,25.713,4.54L20.02,2.575A8.975,8.975,0,0,0,8.612,8.117L.5,31.522a8.97,8.97,0,0,0-.349,4.559l3.79,20.668a80.787,80.787,0,0,1,.526,25.9L.8,108.516a71.8,71.8,0,0,0,38.637,74.117L60.685,193.4a82.1,82.1,0,0,1,19.78,14.041,8.72,8.72,0,0,0,12.067-.034A82.053,82.053,0,0,1,112.276,193.4l21.249-10.767a71.8,71.8,0,0,0,38.637-74.117l-3.791-26.768A80.789,80.789,0,0,1,168.6,57.6" transform="translate(0)" fill="#fedc72"/>
        <path id="Trazado_115056" data-name="Trazado 115056" d="M136.937,180.3l-17.793,9.015A100.424,100.424,0,0,0,95.832,204.5,100.253,100.253,0,0,0,72.52,189.314L54.736,180.3a58.632,58.632,0,0,1-31.88-46.775c-1.179-12.41,1.9-20.026,4.212-41.669a90.258,90.258,0,0,0-.842-28.08L22.637,44.188l6.386-18.416c28.569,9.756,44.315,3.286,66.809-3.058,20.06,5.653,37.693,12.553,63.625,4.145l8.694,18.256L164.966,64.9c-1.634,10.143-1.491,17.692-.278,27.928,1.483,12.561,4.111,26.5,4.356,33.051A58.652,58.652,0,0,1,136.937,180.3" transform="translate(-9.352 -9.401)" fill="#8c6df2"/>
        <path id="Trazado_115057" data-name="Trazado 115057" d="M137.121,232.454l-17.793,9.015A100.426,100.426,0,0,0,96.016,256.65,100.253,100.253,0,0,0,72.7,241.469L54.92,232.454a58.632,58.632,0,0,1-31.88-46.775l35.292-33.926a7.918,7.918,0,0,1,1.1-1.1,8.446,8.446,0,0,1,5.729-1.929,36.3,36.3,0,0,0,55.478,7.422l2.772,5.426,6.8,13.312,11.6-8.493a8.416,8.416,0,0,1,9.647-.21l17.768,11.854a58.652,58.652,0,0,1-32.107,54.416" transform="translate(-9.536 -61.556)" fill="#afafaf"/>
        <path id="Trazado_115058" data-name="Trazado 115058" d="M149.116,161.576a42.2,42.2,0,0,1-63.254-9.722c-.244-.4-.489-.792-.724-1.2a8.446,8.446,0,0,1,5.729-1.929,36.3,36.3,0,0,0,55.478,7.422Z" transform="translate(-35.239 -61.556)" fill="#878787"/>
        <path id="Trazado_115059" data-name="Trazado 115059" d="M154.4,251.153V278.18a100.324,100.324,0,0,0-23.312,15.182,100.243,100.243,0,0,0-23.312-15.182V257.767l11.517-10.8,2.527-9.554,22.747,5.341Z" transform="translate(-44.608 -98.265)" fill="#e6e6e6"/>
        <path id="Trazado_115060" data-name="Trazado 115060" d="M158.15,90.281A36.319,36.319,0,1,1,121.83,53.962,36.186,36.186,0,0,1,158.15,90.281" transform="translate(-35.393 -22.335)" fill="#5038a1"/>
        <path id="Trazado_115061" data-name="Trazado 115061" d="M154.23,91.538H139.418V76.727H123.087V91.538H108.275V107.87h14.812v14.812h16.331V107.87H154.23Z" transform="translate(-44.815 -31.757)" fill="#fdb74d"/>
        <line id="Línea_145" data-name="Línea 145" y2="2.578" transform="translate(38.737 127.636)" fill="none" stroke="#4c4944" stroke-linecap="round" stroke-linejoin="round" stroke-width="7.187"/>
        <line id="Línea_146" data-name="Línea 146" y2="2.578" transform="translate(137.027 149.91)" fill="none" stroke="#4c4944" stroke-linecap="round" stroke-linejoin="round" stroke-width="7.187"/>
        <line id="Línea_147" data-name="Línea 147" y2="2.578" transform="translate(109.79 127.636)" fill="none" stroke="#4c4944" stroke-linecap="round" stroke-linejoin="round" stroke-width="7.187"/>
      </g>
    </g>
  </g>
</svg>
