<svg xmlns="http://www.w3.org/2000/svg" xmlns:xlink="http://www.w3.org/1999/xlink" width="400" height="211.912" viewBox="0 0 400 211.912">
  <defs>
    <clipPath id="clip-path">
      <rect id="Rectángulo_34805" data-name="Rectángulo 34805" width="93.084" height="126.575" fill="none"/>
    </clipPath>
    <clipPath id="clip-path-2">
      <path id="Trazado_115728" data-name="Trazado 115728" d="M91.978,0a1.085,1.085,0,0,0-.618.208,232.265,232.265,0,0,0-28.036,24.42A307.2,307.2,0,0,0,38.853,52.782,331.426,331.426,0,0,0,17.709,83.671,243.509,243.509,0,0,0,.49,117.438c-.06.149-.12.315-.171.47a6.651,6.651,0,0,0-.319,2v.059a6.644,6.644,0,0,0,6.607,6.608h.067a6.641,6.641,0,0,0,6.284-4.61l.033-.1a232.235,232.235,0,0,1,13.889-33.1,322.431,322.431,0,0,1,18.256-31.5A301.056,301.056,0,0,1,66.966,27.965,228.65,228.65,0,0,1,92.7,1.912l.009-.008A1.083,1.083,0,0,0,92.019,0Z" fill="#8c6df2"/>
    </clipPath>
    <clipPath id="clip-path-3">
      <rect id="Rectángulo_34724" data-name="Rectángulo 34724" width="166.734" height="202.391" fill="none"/>
    </clipPath>
    <clipPath id="clip-path-4">
      <rect id="Rectángulo_34805-2" data-name="Rectángulo 34805" width="41.899" height="56.975" fill="none"/>
    </clipPath>
    <clipPath id="clip-path-5">
      <path id="Trazado_115728-2" data-name="Trazado 115728" d="M41.4,0a.488.488,0,0,0-.278.094A104.547,104.547,0,0,0,28.5,11.086,138.278,138.278,0,0,0,17.489,23.758a149.183,149.183,0,0,0-9.517,13.9,109.608,109.608,0,0,0-7.751,15.2c-.027.067-.054.142-.077.212a2.994,2.994,0,0,0-.144.9V54a2.991,2.991,0,0,0,2.974,2.974H3A2.989,2.989,0,0,0,5.833,54.9l.015-.046a104.535,104.535,0,0,1,6.252-14.9,145.134,145.134,0,0,1,8.218-14.18,135.512,135.512,0,0,1,9.826-13.184A102.921,102.921,0,0,1,41.726.861l0,0A.488.488,0,0,0,41.42,0Z" fill="#fff"/>
    </clipPath>
    <clipPath id="clip-path-6">
      <rect id="Rectángulo_34803" data-name="Rectángulo 34803" width="21.744" height="21.744" fill="none"/>
    </clipPath>
    <clipPath id="clip-path-7">
      <rect id="Rectángulo_34802" data-name="Rectángulo 34802" width="21.743" height="21.743" fill="none"/>
    </clipPath>
    <clipPath id="clip-path-9">
      <rect id="Rectángulo_34803-2" data-name="Rectángulo 34803" width="19.812" height="19.813" fill="none"/>
    </clipPath>
    <clipPath id="clip-path-10">
      <rect id="Rectángulo_34802-2" data-name="Rectángulo 34802" width="19.811" height="19.812" fill="none"/>
    </clipPath>
  </defs>
  <g id="Grupo_81221" data-name="Grupo 81221" transform="translate(-1020 -1722.044)">
    <g id="Grupo_80527" data-name="Grupo 80527" transform="translate(105 1332.49)">
      <ellipse id="Elipse_4784" data-name="Elipse 4784" cx="200" cy="97" rx="200" ry="97" transform="translate(915 399)" fill="#8c6df2" opacity="0.25"/>
    </g>
    <g id="Grupo_80644" data-name="Grupo 80644" transform="translate(1136.379 1913.494)">
      <ellipse id="Elipse_4784-2" data-name="Elipse 4784" cx="84" cy="5.5" rx="84" ry="5.5" transform="translate(-0.379 -0.003)" fill="#8c6df2" opacity="0.25"/>
    </g>
    <g id="Grupo_80828" data-name="Grupo 80828" transform="translate(1071.126 1795.658) rotate(8)">
      <g id="Grupo_80827" data-name="Grupo 80827" clip-path="url(#clip-path)">
        <g id="Grupo_80826" data-name="Grupo 80826">
          <g id="Grupo_80825" data-name="Grupo 80825" clip-path="url(#clip-path-2)">
            <rect id="Rectángulo_34804" data-name="Rectángulo 34804" width="116.072" height="144.015" transform="translate(-11.464 -8.842)" fill="#8c6df2"/>
          </g>
        </g>
      </g>
    </g>
    <g id="Grupo_80647" data-name="Grupo 80647" transform="translate(1136.379 1722.044)">
      <g id="Grupo_80646" data-name="Grupo 80646" transform="translate(0 0)" clip-path="url(#clip-path-3)">
        <path id="Trazado_115105" data-name="Trazado 115105" d="M140.418,168.7a68.864,68.864,0,0,1-11.639,7.439l-2.532,1.283-17.959,9.1c-.842.424-1.668.865-2.487,1.317-1.176.65-2.329,1.323-3.459,2.029a79.2,79.2,0,0,0-13.1,10.164,8.406,8.406,0,0,1-11.639.034,79.087,79.087,0,0,0-13.131-10.2q-1.7-1.06-3.443-2.024c-.831-.458-1.662-.9-2.5-1.323l-17.959-9.1-2.532-1.283a68.94,68.94,0,0,1-14.567-9.892l-.006-.006A69.224,69.224,0,0,1,.773,104.66L4.306,79.709A77.823,77.823,0,0,0,3.8,54.73L.14,34.8a8.681,8.681,0,0,1,.339-4.4L8.308,7.829a8.655,8.655,0,0,1,11-5.347L24.8,4.375A62.955,62.955,0,0,0,62.664,5.5L81.064.322a8.7,8.7,0,0,1,4.692,0L104.15,5.5a62.954,62.954,0,0,0,37.868-1.125l2.018-.7a8.654,8.654,0,0,1,10.638,4.46l10.469,21.978a8.662,8.662,0,0,1,.735,5.1L162.6,55.549a77.921,77.921,0,0,0-.215,23.295l3.657,25.816a69.254,69.254,0,0,1-25.63,64.04" transform="translate(0)" fill="#fedc72"/>
        <path id="Trazado_115106" data-name="Trazado 115106" d="M132.875,174.7l-17.161,8.694a96.856,96.856,0,0,0-22.483,14.642,96.693,96.693,0,0,0-22.483-14.642L53.595,174.7a56.548,56.548,0,0,1-30.747-45.113C21.71,117.615,24.676,110.27,26.91,89.4A87.05,87.05,0,0,0,26.1,62.314L22.636,43.422,28.8,25.66c27.554,9.409,42.74,3.169,64.435-2.95,19.347,5.452,36.353,12.107,61.364,4l8.385,17.608L159.908,63.4c-1.576,9.783-1.438,17.063-.268,26.936,1.43,12.115,3.965,25.563,4.2,31.876A56.568,56.568,0,0,1,132.875,174.7" transform="translate(-9.823 -9.873)" fill="#8c6df2"/>
        <path id="Trazado_115107" data-name="Trazado 115107" d="M152.737,248.815v37.76c-1.176.65-2.329,1.323-3.459,2.029H111.41q-1.7-1.06-3.443-2.024V248.815a21.7,21.7,0,0,1,21.69-21.7h1.385a21.7,21.7,0,0,1,21.7,21.7" transform="translate(-46.936 -98.735)" fill="#fedc72"/>
        <path id="Trazado_115108" data-name="Trazado 115108" d="M73.537,203.041V238.6H53.074l-2.532-1.283a68.94,68.94,0,0,1-14.567-9.892l-.006-.006c-1.815-8.745-3.4-19.6-4.782-21.237-.367-.43-.712-.854-1.046-1.278q-.729-.933-1.374-1.848V147.588a6.883,6.883,0,0,1,.492-2.561v-.006A6.871,6.871,0,0,1,42.5,147.588v18.869c-10.13,8.807-1.967,25.776,11.509,22.792l5.805.023a14.221,14.221,0,0,1,2.21.187,13.774,13.774,0,0,1,11.509,13.584" transform="translate(-12.506 -61.175)" fill="#fedc72"/>
        <path id="Trazado_115109" data-name="Trazado 115109" d="M231.931,147.588V202.08a66.7,66.7,0,0,1-8.818,10.237c-.441.418-.882,10.073-1.328,17.557a68.864,68.864,0,0,1-11.639,7.439l-2.532,1.283H187.167V203.041a13.768,13.768,0,0,1,11.509-13.584,14.162,14.162,0,0,1,2.21-.187l5.805-.023c13.476,2.985,21.639-13.985,11.5-22.792V147.588a6.868,6.868,0,1,1,13.736,0" transform="translate(-81.366 -61.175)" fill="#fedc72"/>
        <path id="Trazado_115110" data-name="Trazado 115110" d="M150.608,193.69a13.172,13.172,0,1,1-13.172-13.172,13.172,13.172,0,0,1,13.172,13.172" transform="translate(-54.021 -78.476)" fill="#5038a1"/>
        <path id="Trazado_115111" data-name="Trazado 115111" d="M66.125,205.615a17.144,17.144,0,0,1-11.113,3.993A17.063,17.063,0,0,1,46.6,177.883v4.73c-10.133,8.805-1.971,25.777,11.5,22.792l5.81.022a13.8,13.8,0,0,1,2.208.187" transform="translate(-16.604 -77.33)" fill="#fdb74d"/>
        <path id="Trazado_115112" data-name="Trazado 115112" d="M71.4,193.7a13.169,13.169,0,0,1-10.314,12.858c-13.475,2.985-21.636-13.987-11.5-22.792A13.169,13.169,0,0,1,71.4,193.7" transform="translate(-19.584 -78.478)" fill="#5038a1"/>
        <path id="Trazado_115113" data-name="Trazado 115113" d="M234.321,198.479a16.732,16.732,0,0,1-15.683,11.129,17.155,17.155,0,0,1-11.113-3.993,13.938,13.938,0,0,1,2.209-.187l5.809-.022c13.475,2.985,21.636-13.987,11.5-22.792v-4.73a16.748,16.748,0,0,1,7.274,20.595" transform="translate(-90.217 -77.331)" fill="#fdb74d"/>
        <path id="Trazado_115114" data-name="Trazado 115114" d="M203.465,193.7a13.169,13.169,0,0,0,10.314,12.858c13.475,2.985,21.636-13.987,11.5-22.792a13.169,13.169,0,0,0-21.817,9.934" transform="translate(-88.452 -78.478)" fill="#5038a1"/>
        <path id="Trazado_115115" data-name="Trazado 115115" d="M228.081,105.276c-2.181-.721-4.433-1.35-5.7-6.8-1.165,5.017-3.031,5.917-5.7,6.8,4.35,1.438,5.007,3.818,5.7,6.8,1.192-5.138,3.164-5.961,5.7-6.8" transform="translate(-94.199 -42.811)" fill="#f0c020"/>
        <path id="Trazado_115116" data-name="Trazado 115116" d="M219.832,111.282c-.632-2.723-1.049-4.522-4.731-5.739a1.466,1.466,0,0,1,0-2.781c2.216-.733,3.681-1.216,4.731-5.739a1.466,1.466,0,0,1,2.853,0c1.074,4.625,2.678,5.063,4.731,5.739a1.466,1.466,0,0,1,0,2.782c-2.137.706-3.682,1.216-4.731,5.739a1.465,1.465,0,0,1-2.854,0m-.837-7.1a7.607,7.607,0,0,1,2.293,2.424,7.252,7.252,0,0,1,2.167-2.444,7.478,7.478,0,0,1-2.19-2.534,7.259,7.259,0,0,1-2.269,2.554" transform="translate(-93.074 -41.688)" fill="#fdb74d"/>
        <path id="Trazado_115117" data-name="Trazado 115117" d="M149.623,55.787c-1.883-.622-3.827-1.166-4.92-5.869-1.006,4.332-2.617,5.108-4.919,5.869,3.756,1.241,4.322,3.3,4.919,5.869,1.029-4.436,2.731-5.146,4.92-5.869" transform="translate(-60.768 -21.701)" fill="#fedc72"/>
        <path id="Trazado_115118" data-name="Trazado 115118" d="M142.5,60.974c-.545-2.351-.906-3.9-4.084-4.954a1.266,1.266,0,0,1,0-2.4c1.914-.633,3.178-1.05,4.085-4.955a1.265,1.265,0,0,1,2.463,0c.927,3.993,2.312,4.371,4.085,4.955a1.266,1.266,0,0,1,0,2.4c-1.846.609-3.179,1.05-4.084,4.954a1.265,1.265,0,0,1-2.464,0m-.722-6.126a6.57,6.57,0,0,1,1.98,2.093,6.259,6.259,0,0,1,1.87-2.111,6.45,6.45,0,0,1-1.891-2.187,6.272,6.272,0,0,1-1.959,2.2" transform="translate(-59.797 -20.732)" fill="#fedc72"/>
        <path id="Trazado_115119" data-name="Trazado 115119" d="M78.439,105.276c-2.181-.721-4.433-1.35-5.7-6.8-1.165,5.017-3.031,5.917-5.7,6.8,4.35,1.438,5.007,3.818,5.7,6.8,1.192-5.138,3.164-5.961,5.7-6.8" transform="translate(-29.145 -42.811)" fill="#f0c020"/>
        <path id="Trazado_115120" data-name="Trazado 115120" d="M70.19,111.282c-.632-2.723-1.049-4.522-4.731-5.739a1.466,1.466,0,0,1,0-2.781c2.216-.733,3.681-1.216,4.731-5.739a1.466,1.466,0,0,1,2.853,0c1.074,4.625,2.678,5.063,4.731,5.739a1.466,1.466,0,0,1,0,2.782c-2.137.706-3.682,1.216-4.731,5.739a1.465,1.465,0,0,1-2.854,0m-.837-7.1a7.607,7.607,0,0,1,2.293,2.424,7.252,7.252,0,0,1,2.167-2.444,7.478,7.478,0,0,1-2.19-2.534,7.259,7.259,0,0,1-2.269,2.554" transform="translate(-28.021 -41.688)" fill="#fdb74d"/>
        <path id="Trazado_115121" data-name="Trazado 115121" d="M121.872,110.94a15.045,15.045,0,1,1,18.4,14.665l-3.352,7.294-3.351-7.294a15.048,15.048,0,0,1-11.694-14.665" transform="translate(-52.981 -41.688)" fill="#5038a1"/>
        <path id="Trazado_115122" data-name="Trazado 115122" d="M147.4,134.269a1.417,1.417,0,0,1-1.417-1.417v-.837a1.417,1.417,0,1,1,2.834,0v.837a1.417,1.417,0,0,1-1.417,1.417" transform="translate(-63.461 -56.774)" fill="#fdb74d"/>
        <path id="Trazado_115123" data-name="Trazado 115123" d="M147.4,118.211a1.417,1.417,0,0,1-1.417-1.417v-7.619a1.417,1.417,0,0,1,2.834,0v7.619a1.417,1.417,0,0,1-1.417,1.417" transform="translate(-63.461 -46.845)" fill="#fdb74d"/>
      </g>
    </g>
    <g id="Grupo_80829" data-name="Grupo 80829" transform="translate(1355.969 1822.659) rotate(17)">
      <g id="Grupo_80827-2" data-name="Grupo 80827" clip-path="url(#clip-path-4)">
        <g id="Grupo_80826-2" data-name="Grupo 80826">
          <g id="Grupo_80825-2" data-name="Grupo 80825" clip-path="url(#clip-path-5)">
            <rect id="Rectángulo_34804-2" data-name="Rectángulo 34804" width="52.247" height="64.825" transform="translate(-5.16 -3.98)" fill="#fff"/>
          </g>
        </g>
      </g>
    </g>
    <g id="Grupo_80837" data-name="Grupo 80837" transform="matrix(0.966, -0.259, 0.259, 0.966, 1335, 1754.381)" style="isolation: isolate">
      <g id="Grupo_80823" data-name="Grupo 80823" clip-path="url(#clip-path-6)">
        <g id="Grupo_80822" data-name="Grupo 80822" transform="translate(0 0.001)">
          <g id="Grupo_80821" data-name="Grupo 80821" clip-path="url(#clip-path-7)">
            <g id="Grupo_80820" data-name="Grupo 80820" transform="translate(0 -0.001)" style="mix-blend-mode: overlay;isolation: isolate">
              <g id="Grupo_80819" data-name="Grupo 80819" transform="translate(0 0)">
                <g id="Grupo_80818" data-name="Grupo 80818" clip-path="url(#clip-path-6)">
                  <path id="Trazado_115727" data-name="Trazado 115727" d="M15.376,6.366V3.594A3.6,3.6,0,0,0,11.78,0H9.962a3.6,3.6,0,0,0-3.6,3.594V6.366H3.594A3.6,3.6,0,0,0,0,9.962V11.78a3.6,3.6,0,0,0,3.594,3.6H6.366v2.772a3.6,3.6,0,0,0,3.6,3.594H11.78a3.6,3.6,0,0,0,3.6-3.594V15.376h2.772a3.6,3.6,0,0,0,3.594-3.6V9.962a3.6,3.6,0,0,0-3.594-3.6Z" transform="translate(0 0)" fill="#5038a1" fill-rule="evenodd"/>
                </g>
              </g>
            </g>
          </g>
        </g>
      </g>
    </g>
    <g id="Grupo_80838" data-name="Grupo 80838" transform="matrix(0.966, -0.259, 0.259, 0.966, 1088.183, 1808.171)" style="isolation: isolate">
      <g id="Grupo_80823-2" data-name="Grupo 80823" transform="translate(0 0)" clip-path="url(#clip-path-9)">
        <g id="Grupo_80822-2" data-name="Grupo 80822" transform="translate(0 0.001)">
          <g id="Grupo_80821-2" data-name="Grupo 80821" transform="translate(0)" clip-path="url(#clip-path-10)">
            <g id="Grupo_80820-2" data-name="Grupo 80820" transform="translate(0 -0.001)" style="mix-blend-mode: overlay;isolation: isolate">
              <g id="Grupo_80819-2" data-name="Grupo 80819" transform="translate(0)">
                <g id="Grupo_80818-2" data-name="Grupo 80818" clip-path="url(#clip-path-9)">
                  <path id="Trazado_115727-2" data-name="Trazado 115727" d="M14.011,5.8V3.275A3.277,3.277,0,0,0,10.734,0H9.078A3.277,3.277,0,0,0,5.8,3.275V5.8H3.275A3.276,3.276,0,0,0,0,9.078v1.656a3.276,3.276,0,0,0,3.275,3.277H5.8v2.526a3.276,3.276,0,0,0,3.277,3.275h1.656a3.276,3.276,0,0,0,3.277-3.275V14.011h2.526a3.277,3.277,0,0,0,3.275-3.277V9.078A3.277,3.277,0,0,0,16.536,5.8Z" transform="translate(0 0)" fill="#fdb74d" fill-rule="evenodd"/>
                </g>
              </g>
            </g>
          </g>
        </g>
      </g>
    </g>
  </g>
</svg>
