<svg id="Grupo_80666" data-name="Grupo 80666" xmlns="http://www.w3.org/2000/svg" xmlns:xlink="http://www.w3.org/1999/xlink" width="207.707" height="248.155" viewBox="0 0 207.707 248.155">
  <defs>
    <clipPath id="clip-path">
      <rect id="Rectángulo_34733" data-name="Rectángulo 34733" width="207.707" height="248.155" fill="none"/>
    </clipPath>
  </defs>
  <g id="Grupo_80667" data-name="Grupo 80667" clip-path="url(#clip-path)">
    <path id="Trazado_115166" data-name="Trazado 115166" d="M207.681,173.022a31.567,31.567,0,0,1-1.263,7.572,52.217,52.217,0,0,1-6.854,14.1c-.293.445-.6.891-.9,1.326a94.208,94.208,0,0,1-12.455,14.446c-1,.964-2.028,1.907-3.065,2.83-.472.419-.948.838-1.43,1.252a60.56,60.56,0,0,1-6.309,4.732,95.669,95.669,0,0,1-9.489,5.408c-3.479,1.761-7.042,3.385-10.6,5.036a345.214,345.214,0,0,1-47.07,17.774,15.927,15.927,0,0,1-8.9.058c-24.926-7.079-43.706-14.9-57.812-22.867-3.181-1.8-6.12-3.6-8.845-5.408q-4.519-2.995-8.253-5.984A84.308,84.308,0,0,1,12.459,201.8c-.514-.608-1-1.21-1.472-1.808q-1.03-1.313-1.944-2.609A49.7,49.7,0,0,1,1.4,181.438a41.911,41.911,0,0,1-.121-20.923c.031-.152.058-.283.079-.4.052-.288.115-.571.183-.854.493-2.075.954-4.087,1.4-6.047.037-.162.073-.32.1-.482l.005-.005c1.672-7.42,3.008-14.017,4.066-19.9.681-3.778,1.252-7.257,1.719-10.48v-.01c.073-.493.141-.98.21-1.462.267-1.9.5-3.689.7-5.408v-.005a151.861,151.861,0,0,0,1.184-18.79v-.005c-.005-1.855-.058-3.542-.136-5.1-.2-3.972-.561-7.121-.8-10.019-.058-.718-.11-1.415-.147-2.112C9.483,74.24,7.68,67.1,5.6,60.292c-.639-2.1-1.3-4.171-1.965-6.141C3.08,52.484,2.524,50.881,2,49.393a15.964,15.964,0,0,1,4.574-17.37l.959-.833a15.684,15.684,0,0,1,5.125-2.955,16.333,16.333,0,0,1,8.646-.571c.042.01.084.016.126.026,9.484,1.981,19.246,1.331,23.475.089C51.7,26.395,59.22,23.4,66.32,19.96c2.08-1.006,4.129-2.049,6.11-3.1C82.05,11.744,90.14,6.431,93.42,4.3,99.682.227,105.32-1.025,110.015.856s25.041,14.4,41.007,22.222c15.227,7.708,27.069,7.105,34.421,5.177.278-.068.545-.147.807-.22a15.6,15.6,0,0,1,8.033-.152h.005a16.09,16.09,0,0,1,7.336,4.04c.073.068.147.141.22.21A15.846,15.846,0,0,1,205.622,49.4c-6.1,15.2-8.525,41.505-8.274,53.185.152,7.1,2.814,20.357,5.408,33.923.592,3.128,1.189,6.277,1.745,9.369.44,2.437.854,4.842,1.237,7.173.231,1.441.451,2.856.655,4.234q.244,1.651.445,3.228a80.128,80.128,0,0,1,.844,12.508" transform="translate(0 0)" fill="#8c6df2"/>
    <path id="Trazado_115167" data-name="Trazado 115167" d="M190.975,249.517H136.9c-5.809,0-10.009-7.111-8.428-14.269l2.432-11.017c6.085-26.721,17.576-27.8,32.938-27.8s27.126,1.08,33.13,27.8l2.432,11.017c1.58,7.159-2.619,14.269-8.428,14.269" transform="translate(-60.994 -93.503)" fill="#fedc72"/>
    <path id="Trazado_115168" data-name="Trazado 115168" d="M199.847,218.267v14.811a13.431,13.431,0,0,1-.072,1.734,21.635,21.635,0,0,1-.795,4.408,23.719,23.719,0,0,1-15.605,16.689,22.549,22.549,0,0,1-7.731,1.3,8.735,8.735,0,0,1-1.373-.072,20.692,20.692,0,0,1-6.358-1.228,23.815,23.815,0,0,1-15.678-16.689,21.635,21.635,0,0,1-.795-4.408,14.486,14.486,0,0,1-.072-1.806V218.267a16.663,16.663,0,0,1,1.084-6l.217-.434a21.041,21.041,0,0,1,1.662-3.034,16.333,16.333,0,0,1,13.655-7.225H183.3a17.678,17.678,0,0,1,5.129.794,17.055,17.055,0,0,1,8.6,6.43,19.793,19.793,0,0,1,1.517,3.034,3.529,3.529,0,0,1,.217.506,15.988,15.988,0,0,1,1.084,5.924" transform="translate(-72.053 -95.954)" fill="#5038a1"/>
    <path id="Trazado_115169" data-name="Trazado 115169" d="M171.059,307.746H146.172a31.128,31.128,0,0,0-31.129,31.129v26.533h87.145V338.875a31.128,31.128,0,0,0-31.129-31.129" transform="translate(-54.762 -146.491)" fill="#fedc72"/>
    <path id="Trazado_115170" data-name="Trazado 115170" d="M174.877,198.7s-13.894,28.395-24.532,25.748c0,0-9.176-28.686,24.532-25.748" transform="translate(-71.023 -94.484)" fill="#fedc72"/>
    <path id="Trazado_115171" data-name="Trazado 115171" d="M189.848,198.7s-10.2,4.213-9.111,6.2c4.035,7.382,25.26,21.634,33.643,19.548,0,0,9.176-28.686-24.532-25.748" transform="translate(-85.994 -94.484)" fill="#fedc72"/>
    <path id="Trazado_115172" data-name="Trazado 115172" d="M243.31,248.107a5.9,5.9,0,0,1-2.875,5.247,4.013,4.013,0,0,1-2.372.718h-.072c-2.875-.072-5.1-2.659-5.1-5.965,0-2.947,1.8-5.39,4.168-5.893a4.827,4.827,0,0,1,1.006-.144,3.012,3.012,0,0,1,1.581.359,4.108,4.108,0,0,1,2.156,1.509,6.293,6.293,0,0,1,1.509,4.169" transform="translate(-110.858 -115.228)" fill="#5038a1"/>
    <path id="Trazado_115173" data-name="Trazado 115173" d="M151.859,248.093c0,3.3-2.335,5.977-5.216,5.977s-5.217-2.676-5.217-5.977,2.335-5.977,5.217-5.977,5.216,2.676,5.216,5.977" transform="translate(-67.321 -115.25)" fill="#5038a1"/>
    <path id="Trazado_115174" data-name="Trazado 115174" d="M141.213,70.316a29.86,29.86,0,1,1,36.511,29.107L171.072,113.9l-6.651-14.477a29.865,29.865,0,0,1-23.208-29.107" transform="translate(-67.219 -19.258)" fill="#fedc72"/>
    <path id="Trazado_115175" data-name="Trazado 115175" d="M193.748,89.408c-.794.1-1.495.221-2.2.263a1.212,1.212,0,0,1-1.379-1.1,1.188,1.188,0,0,1,1.237-1.248,6.671,6.671,0,0,0,5.2-2.57,1.072,1.072,0,0,1,1.542-.227,1.1,1.1,0,0,1,.2,1.677,23.447,23.447,0,0,1-2.094,1.933c-.261.219-.376.344-.264.714a7.321,7.321,0,0,1-8.816,9.346c-.263-.063-.461-.14-.681.138a5.622,5.622,0,0,1-8.761.055,1.635,1.635,0,0,0-.151-.136c-.117.123-.23.239-.34.357a5.6,5.6,0,0,1-8.465-.161.671.671,0,0,0-.8-.258,7.318,7.318,0,0,1-8.8-9.359c.083-.279.12-.445-.175-.646a8.931,8.931,0,0,1,1.744-15.88c.083-.034.164-.074.279-.127a6.4,6.4,0,0,1,6.261-7.775c.281-.008.5.017.678-.318A5.636,5.636,0,0,1,177.435,63c.036.041.079.076.213.205a2.753,2.753,0,0,1,.239-.369,5.643,5.643,0,0,1,9.268,1.146c.137.258.243.433.611.435a6.33,6.33,0,0,1,6.452,7.25c-.018.165-.033.33-.052.528A8.844,8.844,0,0,1,198.218,75a1.876,1.876,0,0,1,.391.838,1.109,1.109,0,0,1-1.863.922,3.133,3.133,0,0,1-.3-.331,6.475,6.475,0,0,0-4.837-2.366c-1.084-.04-1.688-.771-1.346-1.612a1.168,1.168,0,0,1,1.2-.755c.374.009.471-.143.5-.49a4.06,4.06,0,0,0-7.283-2.885,1.277,1.277,0,0,1-1.339.606,1,1,0,0,1-.863-.911,1.655,1.655,0,0,1,.264-.979,6.289,6.289,0,0,1,1.052-1.156A14.076,14.076,0,0,1,185.021,65a3.194,3.194,0,0,0-3.218-1.785,3.4,3.4,0,0,0-3.057,3.5q-.015,6.15,0,12.3a1.582,1.582,0,0,0,1.612,1.763,1.15,1.15,0,0,1,1.082,1.257,1.1,1.1,0,0,1-1.212,1.047c-.477-.019-.952-.119-1.455-.187-.009.144-.028.289-.028.435q0,5.672,0,11.344a3.321,3.321,0,0,0,3,3.467,3.172,3.172,0,0,0,3.194-1.565,3.023,3.023,0,0,0-.061-3.426,1.159,1.159,0,0,1,.149-1.731,1.183,1.183,0,0,1,1.683.3,4.8,4.8,0,0,1,1.04,3.511c-.061.759-.075.758.665.889a5.054,5.054,0,0,0,5.544-3.925,4.744,4.744,0,0,0-.213-2.78m-23.633-24.4a2.418,2.418,0,0,1,.424.26,25.371,25.371,0,0,1,2,1.93,1.068,1.068,0,0,1-.27,1.536,1.168,1.168,0,0,1-1.571-.173c-.09-.1-.166-.2-.248-.3a4.061,4.061,0,0,0-7.249,2.805c.02.471.144.643.644.648a1.162,1.162,0,0,1,1.159,1.144,1.2,1.2,0,0,1-1.073,1.178,4.32,4.32,0,0,1-.559.04,6.629,6.629,0,0,0,.247,13.24c.867.014,1.414.532,1.384,1.225-.031.725-.638,1.18-1.517,1.135-.13-.007-.261-.023-.39-.042-.548-.078-1.1-.159-1.672-.244a4.736,4.736,0,0,0-.217,2.767,5.023,5.023,0,0,0,5.516,3.959c.775-.1.752-.125.693-.916a4.786,4.786,0,0,1,1.058-3.5,1.173,1.173,0,0,1,1.687-.26,1.154,1.154,0,0,1,.146,1.691,3.053,3.053,0,0,0-.068,3.474,3.355,3.355,0,0,0,6.188-1.954q.01-5.645,0-11.29c0-.158-.024-.316-.034-.452-.526.066-1,.162-1.48.177a1.111,1.111,0,0,1-1.17-1.047,1.185,1.185,0,0,1,1.04-1.252c1.224-.186,1.644-.669,1.645-1.9q0-6.01,0-12.02a5.3,5.3,0,0,0-.111-1.056,3.391,3.391,0,0,0-3.023-2.6,3.3,3.3,0,0,0-3.178,1.8" transform="translate(-73.738 -28.99)" fill="#5038a1"/>
    <path id="Trazado_115176" data-name="Trazado 115176" d="M220.42,98.9a4.07,4.07,0,0,1-3.847-3.94,1.188,1.188,0,0,1,1.082-1.269,1.16,1.16,0,0,1,1.228,1.115,1.772,1.772,0,0,0,1.75,1.774,1.188,1.188,0,0,1,1.143,1.26,1.224,1.224,0,0,1-1.356,1.06" transform="translate(-103.091 -44.596)" fill="#5038a1"/>
    <path id="Trazado_115177" data-name="Trazado 115177" d="M211.1,82.883a3.856,3.856,0,0,1-3.7,3.663,1.177,1.177,0,0,1-.3-2.335c1.337-.285,1.439-.388,1.684-1.685a1.205,1.205,0,0,1,1.282-1.012,1.188,1.188,0,0,1,1.025,1.368" transform="translate(-98.101 -38.798)" fill="#5038a1"/>
    <path id="Trazado_115178" data-name="Trazado 115178" d="M210.876,109.909a1.105,1.105,0,0,1-.984,1.113,2.476,2.476,0,0,0-1.755.949,1.074,1.074,0,0,1-1.516.119,1.118,1.118,0,0,1-.3-1.5,3.894,3.894,0,0,1,3.375-1.862,1.168,1.168,0,0,1,1.176,1.178" transform="translate(-98.132 -51.757)" fill="#5038a1"/>
    <path id="Trazado_115179" data-name="Trazado 115179" d="M237.151,97.654a1.106,1.106,0,0,1,1.039-1.159,1.164,1.164,0,0,1,1.233,1.109,1.146,1.146,0,0,1-1.184,1.154,1.09,1.09,0,0,1-1.088-1.1" transform="translate(-112.887 -45.933)" fill="#5038a1"/>
    <path id="Trazado_115180" data-name="Trazado 115180" d="M175.07,95.058a4.077,4.077,0,0,1-3.835,3.839,1.229,1.229,0,0,1-1.372-1.1A1.187,1.187,0,0,1,171,96.579a1.78,1.78,0,0,0,1.757-1.707c.1-.765.571-1.223,1.221-1.184a1.2,1.2,0,0,1,1.093,1.37" transform="translate(-80.856 -44.595)" fill="#5038a1"/>
    <path id="Trazado_115181" data-name="Trazado 115181" d="M180.725,82.906a1.194,1.194,0,0,1,1.057-1.4,1.213,1.213,0,0,1,1.265,1.216,1.493,1.493,0,0,0,1.479,1.461,1.189,1.189,0,1,1-.306,2.333,3.827,3.827,0,0,1-3.494-3.614" transform="translate(-86.026 -38.798)" fill="#5038a1"/>
    <path id="Trazado_115182" data-name="Trazado 115182" d="M186.008,111.073a1.276,1.276,0,0,1-.79,1.172,1.035,1.035,0,0,1-1.263-.322,2.237,2.237,0,0,0-1.608-.883,1.149,1.149,0,0,1-1.085-1.254,1.211,1.211,0,0,1,1.348-1.064A3.981,3.981,0,0,1,185.7,110.4a3.481,3.481,0,0,1,.312.67" transform="translate(-86.28 -51.751)" fill="#5038a1"/>
  </g>
</svg>
