<svg xmlns="http://www.w3.org/2000/svg" xmlns:xlink="http://www.w3.org/1999/xlink" width="249.362" height="237.912" viewBox="0 0 249.362 237.912">
  <defs>
    <clipPath id="clip-path">
      <rect id="Rectángulo_34816" data-name="Rectángulo 34816" width="81.539" height="81.161" fill="none"/>
    </clipPath>
    <clipPath id="clip-path-2">
      <rect id="Rectángulo_34815" data-name="Rectángulo 34815" width="81.539" height="81.162" fill="none"/>
    </clipPath>
    <clipPath id="clip-path-4">
      <rect id="Rectángulo_34813" data-name="Rectángulo 34813" width="50.091" height="49.86" fill="none"/>
    </clipPath>
    <clipPath id="clip-path-5">
      <rect id="Rectángulo_34814" data-name="Rectángulo 34814" width="23.113" height="23.006" fill="none"/>
    </clipPath>
    <clipPath id="clip-path-6">
      <rect id="Rectángulo_34733" data-name="Rectángulo 34733" width="185.798" height="221.981" fill="none"/>
    </clipPath>
  </defs>
  <g id="Grupo_81217" data-name="Grupo 81217" transform="translate(5849.49 9148.49)">
    <g id="Grupo_81214" data-name="Grupo 81214" transform="translate(-5849.49 -9148.49)">
      <g id="Grupo_80857" data-name="Grupo 80857" clip-path="url(#clip-path)">
        <g id="Grupo_80856" data-name="Grupo 80856" transform="translate(0 0)">
          <g id="Grupo_80855" data-name="Grupo 80855" clip-path="url(#clip-path-2)">
            <g id="Grupo_80848" data-name="Grupo 80848" transform="translate(0 0)" opacity="0.17" style="isolation: isolate">
              <g id="Grupo_80847" data-name="Grupo 80847" transform="translate(0 0)">
                <g id="Grupo_80846" data-name="Grupo 80846" clip-path="url(#clip-path)">
                  <path id="Trazado_115734" data-name="Trazado 115734" d="M66.5,72.148a108.866,108.866,0,0,0,6.75-10.186c2.361-4.028,4.706-8.2,5.665-12.813.905-4.362,1.188-10.109-1.474-13.937C74.584,31.047,64.575,23.13,61.831,19.606c-2.227-2.859-6.495-9.85-7.791-14.761A4.913,4.913,0,0,0,49.9,1.25l-.094-.012a4.925,4.925,0,0,0-4.544,1.881c-1.421,1.866-4.269,4.353-9.68,5.291-5.42,1.01-12.8,1.663-14.315,2.065s-2.685,1.757-3.489,3.93-3.822,10.47-7.721,14.824A17.453,17.453,0,0,1,4.2,33.553,5,5,0,0,0,1.4,37l-.084.385A4.948,4.948,0,0,0,3.39,42.549,43.347,43.347,0,0,1,10.9,48.568c2.292,2.754,5.778,5.34,12.718,21.394.035.082.072.166.111.246.864,1.716,5.838,16.808,40.567,3.6A4.962,4.962,0,0,0,66.5,72.148Z" transform="translate(0.392 0.392)" fill="none" stroke="#5038a1" stroke-miterlimit="10" stroke-width="2.396"/>
                </g>
              </g>
            </g>
            <g id="Grupo_80851" data-name="Grupo 80851" transform="translate(16.563 16.452)" opacity="0.17" style="isolation: isolate">
              <g id="Grupo_80850" data-name="Grupo 80850">
                <g id="Grupo_80849" data-name="Grupo 80849" clip-path="url(#clip-path-4)">
                  <path id="Trazado_115735" data-name="Trazado 115735" d="M53.335,56.719a67.2,67.2,0,0,0,4.147-6.257,26.592,26.592,0,0,0,3.48-7.872c.556-2.679.73-6.21-.906-8.561-1.756-2.559-7.9-7.423-9.591-9.587a32.142,32.142,0,0,1-4.786-9.068,3.02,3.02,0,0,0-2.543-2.208l-.057-.008a3.027,3.027,0,0,0-2.792,1.156,9.086,9.086,0,0,1-5.947,3.25c-3.33.62-7.863,1.022-8.793,1.269A3.465,3.465,0,0,0,23.4,21.246c-.494,1.334-2.349,6.432-4.743,9.107a10.721,10.721,0,0,1-3.6,2.657,3.074,3.074,0,0,0-1.724,2.117l-.052.236a3.04,3.04,0,0,0,1.277,3.174,26.692,26.692,0,0,1,4.616,3.7c1.408,1.693,3.55,3.281,7.813,13.144.021.05.044.1.069.151.53,1.054,3.586,10.326,24.92,2.214A3.046,3.046,0,0,0,53.335,56.719Z" transform="translate(-12.24 -12.156)" fill="none" stroke="#5038a1" stroke-miterlimit="10" stroke-width="1.472"/>
                </g>
              </g>
            </g>
            <g id="Grupo_80854" data-name="Grupo 80854" transform="translate(30.773 30.566)" opacity="0.17" style="isolation: isolate">
              <g id="Grupo_80853" data-name="Grupo 80853">
                <g id="Grupo_80852" data-name="Grupo 80852" clip-path="url(#clip-path-5)">
                  <path id="Trazado_115736" data-name="Trazado 115736" d="M42.039,43.483A30.989,30.989,0,0,0,43.952,40.6a12.284,12.284,0,0,0,1.606-3.631,5.347,5.347,0,0,0-.418-3.951c-.811-1.181-3.648-3.425-4.426-4.423a14.852,14.852,0,0,1-2.208-4.184,1.392,1.392,0,0,0-1.173-1.019l-.027,0a1.4,1.4,0,0,0-1.287.533,4.194,4.194,0,0,1-2.744,1.5c-1.537.287-3.628.471-4.058.585a1.6,1.6,0,0,0-.989,1.113,14.949,14.949,0,0,1-2.188,4.2,4.944,4.944,0,0,1-1.66,1.226,1.415,1.415,0,0,0-.795.975l-.024.109a1.4,1.4,0,0,0,.589,1.465A12.352,12.352,0,0,1,26.278,36.8c.65.782,1.639,1.514,3.606,6.065a.671.671,0,0,0,.032.07c.244.486,1.654,4.764,11.5,1.021A1.4,1.4,0,0,0,42.039,43.483Z" transform="translate(-23.077 -22.92)" fill="none" stroke="#5038a1" stroke-miterlimit="10" stroke-width="0.679"/>
                </g>
              </g>
            </g>
          </g>
        </g>
      </g>
    </g>
    <g id="Grupo_80666" data-name="Grupo 80666" transform="translate(-5816.31 -9139.49)">
      <g id="Grupo_80667" data-name="Grupo 80667" clip-path="url(#clip-path-6)">
        <path id="Trazado_115166" data-name="Trazado 115166" d="M185.775,154.772a28.237,28.237,0,0,1-1.13,6.773,46.709,46.709,0,0,1-6.131,12.609c-.262.4-.534.8-.806,1.186a84.272,84.272,0,0,1-11.141,12.923c-.9.862-1.814,1.706-2.742,2.531-.422.375-.848.75-1.28,1.12a54.173,54.173,0,0,1-5.643,4.233,85.581,85.581,0,0,1-8.489,4.837c-3.112,1.575-6.3,3.028-9.477,4.5a308.8,308.8,0,0,1-42.105,15.9,14.247,14.247,0,0,1-7.964.052c-22.3-6.332-39.1-13.326-51.714-20.455-2.845-1.608-5.475-3.22-7.912-4.837q-4.043-2.679-7.382-5.353a75.416,75.416,0,0,1-10.715-10.279c-.459-.544-.9-1.083-1.317-1.617q-.921-1.174-1.739-2.334A44.457,44.457,0,0,1,1.25,162.3a37.49,37.49,0,0,1-.108-18.716c.028-.136.052-.253.07-.361.047-.258.1-.511.164-.764.441-1.856.853-3.656,1.251-5.409.033-.145.066-.286.094-.431l0,0c1.5-6.637,2.69-12.538,3.637-17.8.609-3.379,1.12-6.492,1.537-9.374v-.009c.066-.441.127-.877.187-1.308.239-1.7.445-3.3.623-4.837v0A135.843,135.843,0,0,0,9.771,86.471v0c0-1.659-.052-3.169-.122-4.565-.178-3.553-.5-6.37-.712-8.962-.052-.642-.1-1.266-.131-1.889-.323-4.64-1.936-11.024-3.8-17.118-.572-1.88-1.167-3.731-1.758-5.493-.5-1.491-.994-2.925-1.462-4.256A14.28,14.28,0,0,1,5.881,28.645l.858-.745a14.03,14.03,0,0,1,4.584-2.644,14.61,14.61,0,0,1,7.734-.511c.037.009.075.014.112.023,8.484,1.772,17.216,1.191,21,.08a85.121,85.121,0,0,0,19.157-6.993c1.861-.9,3.694-1.833,5.465-2.775C73.4,10.505,80.632,5.753,83.567,3.845,89.168.2,94.211-.917,98.411.765s22.4,12.88,36.682,19.878c13.621,6.895,24.214,6.356,30.79,4.631.248-.061.487-.131.722-.2a13.953,13.953,0,0,1,7.185-.136h0a14.393,14.393,0,0,1,6.562,3.614c.066.061.131.127.2.187a14.174,14.174,0,0,1,3.379,15.449c-5.461,13.6-7.626,37.127-7.4,47.575.136,6.351,2.517,18.21,4.837,30.345.53,2.8,1.064,5.615,1.561,8.381.394,2.18.764,4.331,1.106,6.417.206,1.289.4,2.555.586,3.787q.218,1.476.4,2.887a71.676,71.676,0,0,1,.755,11.188" transform="translate(0 0)" fill="#8c6df2"/>
        <path id="Trazado_115167" data-name="Trazado 115167" d="M184.347,243.918H135.975c-5.2,0-8.953-6.361-7.539-12.764l2.175-9.855c5.443-23.9,15.722-24.868,29.464-24.868s24.265.966,29.635,24.868l2.175,9.855c1.414,6.4-2.343,12.764-7.539,12.764" transform="translate(-68.076 -104.36)" fill="#fedc72"/>
        <path id="Trazado_115168" data-name="Trazado 115168" d="M194.734,216.507v13.248a12.014,12.014,0,0,1-.064,1.551,19.354,19.354,0,0,1-.711,3.943A21.218,21.218,0,0,1,180,250.178a20.171,20.171,0,0,1-6.915,1.163,7.813,7.813,0,0,1-1.228-.065,18.509,18.509,0,0,1-5.687-1.1,21.3,21.3,0,0,1-14.024-14.929,19.353,19.353,0,0,1-.711-3.943,12.958,12.958,0,0,1-.065-1.616V216.507a14.906,14.906,0,0,1,.969-5.364l.194-.388a18.821,18.821,0,0,1,1.486-2.714,14.611,14.611,0,0,1,12.215-6.463h13.7a15.814,15.814,0,0,1,4.588.711,15.256,15.256,0,0,1,7.691,5.752,17.707,17.707,0,0,1,1.357,2.714,3.157,3.157,0,0,1,.194.453,14.3,14.3,0,0,1,.969,5.3" transform="translate(-80.419 -107.095)" fill="#5038a1"/>
        <path id="Trazado_115169" data-name="Trazado 115169" d="M165.151,307.746H142.888a27.845,27.845,0,0,0-27.845,27.845v23.735H193V335.591a27.845,27.845,0,0,0-27.845-27.845" transform="translate(-61.12 -163.5)" fill="#fedc72"/>
        <path id="Trazado_115170" data-name="Trazado 115170" d="M172.169,198.679s-12.428,25.4-21.944,23.032c0,0-8.208-25.66,21.944-23.032" transform="translate(-79.27 -105.454)" fill="#fedc72"/>
        <path id="Trazado_115171" data-name="Trazado 115171" d="M188.878,198.679s-9.121,3.768-8.15,5.545c3.61,6.6,22.6,19.352,30.094,17.487,0,0,8.208-25.66-21.944-23.032" transform="translate(-95.979 -105.454)" fill="#fedc72"/>
        <path id="Trazado_115172" data-name="Trazado 115172" d="M242.211,247.471a5.276,5.276,0,0,1-2.571,4.693,3.59,3.59,0,0,1-2.122.643h-.064c-2.571-.064-4.564-2.379-4.564-5.336a5.187,5.187,0,0,1,3.729-5.272,4.318,4.318,0,0,1,.9-.129,2.694,2.694,0,0,1,1.415.322,3.675,3.675,0,0,1,1.929,1.35,5.629,5.629,0,0,1,1.35,3.729" transform="translate(-123.73 -128.607)" fill="#5038a1"/>
        <path id="Trazado_115173" data-name="Trazado 115173" d="M150.759,247.463c0,2.953-2.089,5.347-4.666,5.347s-4.667-2.394-4.667-5.347,2.089-5.347,4.667-5.347,4.666,2.394,4.666,5.347" transform="translate(-75.137 -128.632)" fill="#5038a1"/>
        <path id="Trazado_115174" data-name="Trazado 115174" d="M141.213,67.167A26.71,26.71,0,1,1,173.873,93.2l-5.95,12.95L161.973,93.2a26.715,26.715,0,0,1-20.76-26.037" transform="translate(-75.024 -21.494)" fill="#fedc72"/>
        <path id="Trazado_115175" data-name="Trazado 115175" d="M189.652,86.4c-.711.088-1.337.2-1.968.235a1.084,1.084,0,0,1-1.233-.983,1.063,1.063,0,0,1,1.107-1.116,5.967,5.967,0,0,0,4.653-2.3.959.959,0,0,1,1.379-.2.986.986,0,0,1,.177,1.5,20.974,20.974,0,0,1-1.873,1.729c-.233.2-.336.307-.236.639a6.549,6.549,0,0,1-7.886,8.36c-.235-.056-.412-.125-.609.124a5.029,5.029,0,0,1-7.837.049,1.462,1.462,0,0,0-.135-.122c-.1.11-.205.214-.3.32a5.009,5.009,0,0,1-7.572-.144.6.6,0,0,0-.713-.231,6.546,6.546,0,0,1-7.869-8.372c.075-.249.107-.4-.157-.577a7.989,7.989,0,0,1,1.56-14.2c.074-.03.147-.067.249-.114a5.729,5.729,0,0,1,5.6-6.955c.252-.007.446.015.607-.285a5.041,5.041,0,0,1,8.466-.973c.032.037.07.068.191.184a2.461,2.461,0,0,1,.214-.33,5.048,5.048,0,0,1,8.291,1.025c.122.231.217.388.547.389a5.662,5.662,0,0,1,5.771,6.486c-.016.148-.03.295-.047.472a7.911,7.911,0,0,1,3.625,2.511,1.678,1.678,0,0,1,.35.75.992.992,0,0,1-1.666.824,2.8,2.8,0,0,1-.271-.3,5.792,5.792,0,0,0-4.327-2.117c-.97-.036-1.51-.69-1.2-1.442a1.045,1.045,0,0,1,1.072-.675c.335.008.421-.127.446-.438a3.632,3.632,0,0,0-6.515-2.581,1.142,1.142,0,0,1-1.2.542.9.9,0,0,1-.772-.815,1.48,1.48,0,0,1,.236-.876,5.625,5.625,0,0,1,.941-1.034,12.588,12.588,0,0,1,1.1-.79,2.857,2.857,0,0,0-2.878-1.6,3.043,3.043,0,0,0-2.735,3.129q-.013,5.5,0,11a1.415,1.415,0,0,0,1.442,1.577,1.028,1.028,0,0,1,.968,1.124.982.982,0,0,1-1.085.937c-.427-.017-.851-.107-1.3-.167-.008.128-.025.259-.025.389q0,5.073,0,10.148a2.971,2.971,0,0,0,2.687,3.1,2.838,2.838,0,0,0,2.857-1.4,2.7,2.7,0,0,0-.055-3.064,1.037,1.037,0,0,1,.133-1.549,1.058,1.058,0,0,1,1.505.265,4.3,4.3,0,0,1,.93,3.14c-.055.679-.068.678.595.8a4.521,4.521,0,0,0,4.959-3.511,4.243,4.243,0,0,0-.191-2.487m-21.14-21.824a2.163,2.163,0,0,1,.38.233,22.694,22.694,0,0,1,1.792,1.726.956.956,0,0,1-.241,1.374,1.045,1.045,0,0,1-1.406-.155c-.08-.085-.148-.181-.222-.272a3.633,3.633,0,0,0-6.485,2.51c.018.421.129.576.576.58a1.04,1.04,0,0,1,1.037,1.023,1.077,1.077,0,0,1-.959,1.054,3.863,3.863,0,0,1-.5.036,5.93,5.93,0,0,0,.221,11.844c.775.013,1.265.476,1.238,1.1-.028.648-.571,1.056-1.357,1.016-.117-.006-.233-.021-.349-.037-.49-.07-.98-.142-1.5-.218a4.236,4.236,0,0,0-.194,2.475,4.493,4.493,0,0,0,4.934,3.541c.694-.092.673-.112.62-.82a4.281,4.281,0,0,1,.947-3.135,1.049,1.049,0,0,1,1.509-.233,1.033,1.033,0,0,1,.131,1.513,2.731,2.731,0,0,0-.061,3.108,3,3,0,0,0,5.535-1.748q.009-5.05,0-10.1c0-.142-.021-.283-.03-.4-.47.059-.9.145-1.324.158a.994.994,0,0,1-1.046-.937,1.06,1.06,0,0,1,.93-1.12c1.094-.166,1.471-.6,1.471-1.7q0-5.376,0-10.752a4.741,4.741,0,0,0-.1-.945,3.033,3.033,0,0,0-2.7-2.326,2.95,2.95,0,0,0-2.843,1.614" transform="translate(-82.3 -32.356)" fill="#5038a1"/>
        <path id="Trazado_115176" data-name="Trazado 115176" d="M220.014,98.348a3.641,3.641,0,0,1-3.441-3.525,1.063,1.063,0,0,1,.968-1.135,1.037,1.037,0,0,1,1.1,1,1.585,1.585,0,0,0,1.566,1.587,1.062,1.062,0,0,1,1.023,1.127,1.1,1.1,0,0,1-1.213.948" transform="translate(-115.061 -49.774)" fill="#5038a1"/>
        <path id="Trazado_115177" data-name="Trazado 115177" d="M210.571,82.738a3.449,3.449,0,0,1-3.305,3.277A1.053,1.053,0,0,1,207,83.926c1.2-.255,1.288-.347,1.506-1.507a1.078,1.078,0,0,1,1.146-.905,1.063,1.063,0,0,1,.917,1.224" transform="translate(-109.491 -43.303)" fill="#5038a1"/>
        <path id="Trazado_115178" data-name="Trazado 115178" d="M210.378,109.785a.989.989,0,0,1-.88,1,2.214,2.214,0,0,0-1.57.849.961.961,0,0,1-1.356.106,1,1,0,0,1-.265-1.34,3.483,3.483,0,0,1,3.019-1.665,1.045,1.045,0,0,1,1.052,1.054" transform="translate(-109.526 -57.766)" fill="#5038a1"/>
        <path id="Trazado_115179" data-name="Trazado 115179" d="M237.151,97.532a.99.99,0,0,1,.929-1.037,1.041,1.041,0,0,1,1.1.992,1.025,1.025,0,0,1-1.059,1.032.975.975,0,0,1-.973-.987" transform="translate(-125.994 -51.266)" fill="#5038a1"/>
        <path id="Trazado_115180" data-name="Trazado 115180" d="M174.521,94.913a3.647,3.647,0,0,1-3.43,3.434,1.1,1.1,0,0,1-1.228-.987,1.061,1.061,0,0,1,1.017-1.087,1.592,1.592,0,0,0,1.572-1.527c.087-.684.51-1.094,1.092-1.059a1.076,1.076,0,0,1,.977,1.226" transform="translate(-90.244 -49.773)" fill="#5038a1"/>
        <path id="Trazado_115181" data-name="Trazado 115181" d="M180.725,82.759a1.068,1.068,0,0,1,.945-1.248A1.085,1.085,0,0,1,182.8,82.6a1.335,1.335,0,0,0,1.323,1.307,1.064,1.064,0,1,1-.274,2.087,3.424,3.424,0,0,1-3.126-3.233" transform="translate(-96.015 -43.302)" fill="#5038a1"/>
        <path id="Trazado_115182" data-name="Trazado 115182" d="M185.507,110.825a1.141,1.141,0,0,1-.706,1.048.926.926,0,0,1-1.13-.288,2,2,0,0,0-1.438-.79,1.027,1.027,0,0,1-.97-1.122,1.084,1.084,0,0,1,1.206-.951,3.562,3.562,0,0,1,2.759,1.5,3.114,3.114,0,0,1,.279.6" transform="translate(-96.298 -57.759)" fill="#5038a1"/>
      </g>
    </g>
    <path id="Trazado_117360" data-name="Trazado 117360" d="M200.314,22.6a134.22,134.22,0,0,1-12.1,11.324,98.814,98.814,0,0,1-13.659,9.442,71.767,71.767,0,0,1-15.529,6.669,50.552,50.552,0,0,1-8.566,1.7c-.739.064-1.477.146-2.226.169-.374.016-.747.039-1.123.048l-1.131,0c-.759.007-1.49-.025-2.24-.039-.741-.046-1.489-.076-2.229-.148A62.382,62.382,0,0,1,124.429,47.5c-5.385-2.092-10.421-4.616-15.265-7.033-2.421-1.214-4.8-2.394-7.149-3.491-1.174-.555-2.335-1.074-3.491-1.583-.576-.243-1.152-.5-1.725-.728l-1.773-.72c-4.937-2-9.763-3.858-14.514-5.342-2.374-.743-4.724-1.393-7.035-1.914-1.155-.261-2.3-.492-3.431-.685s-2.25-.338-3.349-.451a32.252,32.252,0,0,0-11.844.717,21.549,21.549,0,0,0-2.42.831c-.385.155-.758.328-1.125.5l-.541.273c-.162.093-.326.178-.485.275a16.929,16.929,0,0,0-3.508,2.725c-.259.266-.513.536-.754.818l-.937,1.053c-.324.363-.613.742-.922,1.105s-.569.751-.856,1.118a28.327,28.327,0,0,0-2.737,4.583,25.378,25.378,0,0,0-1.71,4.709,25.645,25.645,0,0,0-.767,4.886,36.749,36.749,0,0,0,.935,10.485,55.008,55.008,0,0,0,3.88,11.046,59.244,59.244,0,0,0,2.85,5.369c.516.863,1.049,1.706,1.584,2.5.267.393.539.774.8,1.119.129.171.258.338.374.473a2.288,2.288,0,0,0,.16.176c.02.016.049.049.057.045l.01,0s.012.012,0-.019l-.057-.128A23.068,23.068,0,0,1,8.723,103.279l-.181-.347-.116-.237-.185-.4-.316-.712c-.2-.458-.377-.89-.551-1.319-.345-.855-.66-1.683-.966-2.505-.6-1.641-1.15-3.259-1.655-4.882-1.009-3.242-1.85-6.5-2.561-9.814A96.087,96.087,0,0,1,0,62.507a72.726,72.726,0,0,1,3.22-21.556A63.523,63.523,0,0,1,7.528,30.556a59.074,59.074,0,0,1,6.094-9.372,60.932,60.932,0,0,1,7.469-7.873c.672-.573,1.338-1.156,2.018-1.707S24.474,10.512,25.17,10l1.045-.762c.356-.257.671-.49,1.1-.786.8-.565,1.626-1.1,2.462-1.611A46.157,46.157,0,0,1,40.466,2.019c.467-.146.941-.274,1.412-.405s.918-.235,1.378-.344c.92-.211,1.841-.4,2.763-.559a49.031,49.031,0,0,1,5.5-.631A53.165,53.165,0,0,1,62.077.556a64.117,64.117,0,0,1,9.634,2.17A97.773,97.773,0,0,1,88.476,9.769c5.153,2.7,9.956,5.64,14.578,8.554l1.8,1.142c.619.392,1.215.793,1.821,1.19,1.19.8,2.367,1.608,3.506,2.421,2.291,1.624,4.485,3.261,6.65,4.851,4.324,3.186,8.492,6.249,12.79,8.84a51.046,51.046,0,0,0,13.391,5.92c.583.161,1.171.282,1.76.423l.888.172.446.087c.148.026.293.041.44.062l.882.119c.3.034.594.054.892.083.6.066,1.2.078,1.8.111s1.216.018,1.828.016c.613-.029,1.228-.022,1.845-.078l.927-.065c.31-.024.619-.063.929-.1.62-.061,1.239-.154,1.86-.248s1.239-.217,1.861-.323,1.238-.263,1.859-.4c.614-.163,1.232-.315,1.846-.487s1.229-.348,1.837-.551c1.222-.385,2.431-.823,3.627-1.3.6-.238,1.2-.479,1.788-.743l.889-.389.876-.418a65.587,65.587,0,0,0,13.17-8.35,64.352,64.352,0,0,0,10.889-11.232,2.73,2.73,0,1,1,4.169,3.512Z" transform="matrix(-0.998, -0.07, 0.07, -0.998, -5608.137, -8910.578)" fill="#fdb74d"/>
  </g>
</svg>
