<svg xmlns="http://www.w3.org/2000/svg" xmlns:xlink="http://www.w3.org/1999/xlink" width="396" height="248.314" viewBox="0 0 396 248.314">
  <defs>
    <clipPath id="clip-path">
      <rect id="Rectángulo_34754" data-name="Rectángulo 34754" width="244.698" height="213.25" fill="none"/>
    </clipPath>
    <clipPath id="clip-path-3">
      <rect id="Rectángulo_34734" data-name="Rectángulo 34734" width="26.324" height="10.573" fill="none"/>
    </clipPath>
    <clipPath id="clip-path-4">
      <rect id="Rectángulo_34735" data-name="Rectángulo 34735" width="26.364" height="18.377" fill="none"/>
    </clipPath>
    <clipPath id="clip-path-5">
      <rect id="Rectángulo_34736" data-name="Rectángulo 34736" width="11.867" height="10.173" fill="none"/>
    </clipPath>
    <clipPath id="clip-path-6">
      <rect id="Rectángulo_34737" data-name="Rectángulo 34737" width="11.71" height="24.46" fill="none"/>
    </clipPath>
    <clipPath id="clip-path-7">
      <rect id="Rectángulo_34738" data-name="Rectángulo 34738" width="36.626" height="71.049" fill="none"/>
    </clipPath>
    <clipPath id="clip-path-8">
      <rect id="Rectángulo_34739" data-name="Rectángulo 34739" width="7.234" height="8.919" fill="none"/>
    </clipPath>
    <clipPath id="clip-path-9">
      <rect id="Rectángulo_34740" data-name="Rectángulo 34740" width="23.652" height="25.83" fill="none"/>
    </clipPath>
    <clipPath id="clip-path-10">
      <rect id="Rectángulo_34741" data-name="Rectángulo 34741" width="10.268" height="9.416" fill="none"/>
    </clipPath>
    <clipPath id="clip-path-11">
      <rect id="Rectángulo_34742" data-name="Rectángulo 34742" width="11.193" height="23.523" fill="none"/>
    </clipPath>
    <clipPath id="clip-path-12">
      <rect id="Rectángulo_34743" data-name="Rectángulo 34743" width="23.87" height="10.358" fill="none"/>
    </clipPath>
    <clipPath id="clip-path-13">
      <rect id="Rectángulo_34744" data-name="Rectángulo 34744" width="23.962" height="15.797" fill="none"/>
    </clipPath>
    <clipPath id="clip-path-14">
      <rect id="Rectángulo_34745" data-name="Rectángulo 34745" width="35.495" height="84.998" fill="none"/>
    </clipPath>
    <clipPath id="clip-path-15">
      <rect id="Rectángulo_34746" data-name="Rectángulo 34746" width="2.394" height="7.485" fill="none"/>
    </clipPath>
    <clipPath id="clip-path-16">
      <rect id="Rectángulo_34747" data-name="Rectángulo 34747" width="29.049" height="27.086" fill="none"/>
    </clipPath>
    <clipPath id="clip-path-17">
      <rect id="Rectángulo_34748" data-name="Rectángulo 34748" width="15.603" height="25.381" fill="none"/>
    </clipPath>
    <clipPath id="clip-path-18">
      <rect id="Rectángulo_34749" data-name="Rectángulo 34749" width="6.761" height="2.551" fill="none"/>
    </clipPath>
    <clipPath id="clip-path-19">
      <rect id="Rectángulo_34750" data-name="Rectángulo 34750" width="5.93" height="1.29" fill="none"/>
    </clipPath>
    <clipPath id="clip-path-20">
      <rect id="Rectángulo_34751" data-name="Rectángulo 34751" width="5.591" height="1.138" fill="none"/>
    </clipPath>
    <clipPath id="clip-path-21">
      <rect id="Rectángulo_34752" data-name="Rectángulo 34752" width="5.199" height="1.521" fill="none"/>
    </clipPath>
  </defs>
  <g id="Grupo_81217" data-name="Grupo 81217" transform="translate(-180 -2877.164)">
    <path id="Trazado_115813" data-name="Trazado 115813" d="M394.5,44.517a264.334,264.334,0,0,1-23.822,22.3,194.605,194.605,0,0,1-26.9,18.595A141.339,141.339,0,0,1,313.2,98.547a99.557,99.557,0,0,1-16.87,3.344c-1.454.126-2.908.287-4.383.333-.736.032-1.471.077-2.211.094l-2.227.009c-1.5.014-2.934-.049-4.412-.076-1.459-.09-2.933-.149-4.391-.292-11.723-1.02-23.077-4.294-33.649-8.407-10.605-4.12-20.522-9.092-30.064-13.852-4.767-2.39-9.462-4.715-14.079-6.876-2.312-1.093-4.6-2.116-6.876-3.117-1.135-.479-2.27-.978-3.4-1.433l-3.492-1.417c-9.724-3.935-19.227-7.6-28.584-10.522-4.675-1.464-9.3-2.743-13.855-3.77-2.275-.514-4.53-.968-6.758-1.349s-4.432-.667-6.595-.888c-8.661-.907-16.672-.446-23.326,1.411a42.439,42.439,0,0,0-4.765,1.636c-.759.306-1.493.647-2.216.99l-1.065.538c-.32.182-.641.35-.955.542a33.339,33.339,0,0,0-6.909,5.367c-.511.524-1.01,1.055-1.485,1.611L88.789,64.5c-.638.715-1.208,1.462-1.816,2.177-.586.729-1.121,1.479-1.686,2.2A55.788,55.788,0,0,0,79.9,77.9a49.98,49.98,0,0,0-3.367,9.274A50.507,50.507,0,0,0,75.017,96.8a72.375,72.375,0,0,0,1.842,20.649A108.334,108.334,0,0,0,84.5,139.2a116.678,116.678,0,0,0,5.613,10.574c1.015,1.7,2.067,3.359,3.12,4.922.526.775,1.061,1.524,1.573,2.2.255.337.509.665.736.931a4.509,4.509,0,0,0,.314.348c.04.032.1.1.113.088l.019,0s.023.023-.006-.038l-.111-.252A45.43,45.43,0,0,1,17.179,203.4l-.356-.684-.228-.468-.364-.782-.622-1.4c-.392-.9-.743-1.753-1.085-2.6-.68-1.683-1.3-3.315-1.9-4.934-1.188-3.232-2.264-6.419-3.26-9.615-1.988-6.386-3.644-12.807-5.044-19.328A189.235,189.235,0,0,1,0,123.1,143.229,143.229,0,0,1,6.344,80.65a125.1,125.1,0,0,1,8.481-20.471,116.342,116.342,0,0,1,12-18.458,120,120,0,0,1,14.709-15.5c1.324-1.129,2.634-2.277,3.975-3.362,1.352-1.061,2.688-2.153,4.058-3.163l2.059-1.5c.7-.506,1.322-.966,2.162-1.547,1.58-1.112,3.2-2.164,4.849-3.173A90.9,90.9,0,0,1,79.694,3.977c.92-.288,1.853-.54,2.781-.8.91-.235,1.808-.462,2.714-.677C87,2.086,88.813,1.707,90.63,1.4A96.563,96.563,0,0,1,101.47.158a104.7,104.7,0,0,1,20.786.937,126.273,126.273,0,0,1,18.973,4.274,192.557,192.557,0,0,1,33.019,13.87c10.149,5.318,19.608,11.108,28.71,16.847l3.55,2.249c1.218.772,2.394,1.562,3.586,2.344,2.344,1.579,4.662,3.166,6.9,4.768,4.513,3.2,8.833,6.422,13.1,9.554,8.515,6.274,16.725,12.308,25.188,17.41a100.531,100.531,0,0,0,26.373,11.659c1.148.317,2.307.555,3.467.834l1.749.338.878.171c.291.051.578.08.867.121l1.736.234c.582.067,1.17.107,1.757.164,1.172.13,2.363.153,3.553.218,1.193.038,2.4.035,3.6.031,1.207-.056,2.419-.044,3.634-.154l1.826-.128c.61-.046,1.219-.125,1.829-.187,1.221-.119,2.441-.3,3.663-.489,1.226-.16,2.44-.427,3.666-.636,1.221-.234,2.438-.518,3.66-.78,1.209-.321,2.426-.62,3.636-.959,1.2-.365,2.42-.686,3.617-1.085,2.407-.759,4.788-1.621,7.143-2.569,1.18-.469,2.359-.943,3.521-1.463l1.75-.767,1.725-.823a129.169,129.169,0,0,0,25.937-16.444,126.736,126.736,0,0,0,21.445-22.12,5.376,5.376,0,1,1,8.211,6.916Z" transform="translate(180 2899.35)" fill="#fdb74d"/>
    <g id="Grupo_80729" data-name="Grupo 80729" transform="translate(265.485 2907.344)">
      <ellipse id="Elipse_4784" data-name="Elipse 4784" cx="149" cy="100" rx="149" ry="100" transform="translate(-0.485 0.471)" fill="#8c6df2" opacity="0.25"/>
    </g>
    <g id="Grupo_80730" data-name="Grupo 80730" transform="translate(313.343 3045.718)">
      <ellipse id="Elipse_4784-2" data-name="Elipse 4784" cx="96" cy="19.5" rx="96" ry="19.5" transform="translate(-0.343 0.097)" fill="#8c6df2" opacity="0.25"/>
    </g>
    <g id="Grupo_80728" data-name="Grupo 80728" transform="translate(287.123 2877.164)">
      <g id="Grupo_80727" data-name="Grupo 80727" transform="translate(0)" clip-path="url(#clip-path)">
        <g id="Grupo_80726" data-name="Grupo 80726">
          <g id="Grupo_80725" data-name="Grupo 80725" clip-path="url(#clip-path)">
            <path id="Trazado_115183" data-name="Trazado 115183" d="M471.755,356.868c.106-2.612,1.61-31.46,1.61-31.46l-13.216,9.519c2.061,15.053,2.928,21.978,3.075,24.484a2.085,2.085,0,0,0-.046.645c.13,2.978,3.729,4.461,6.566,6.35a52.047,52.047,0,0,0,7.643,4.369c2.042.887,6.115.832,6.571-.411-3.453-2.319-7.444-4.846-10.223-7.535-1.327-1.284-2.107-2.827-1.98-5.962" transform="translate(-262.691 -185.77)" fill="#f0f0f0"/>
            <path id="Trazado_115184" data-name="Trazado 115184" d="M490.239,429.515a2.587,2.587,0,0,1-.372,2.586,10.626,10.626,0,0,1-7.809,2.1,13.622,13.622,0,0,1-7.711-2.806c-1.616-1.277-3.881-3.077-5.665-3.411a10.637,10.637,0,0,1-4.016-1.5c-.545-.5-.56-2.8-.56-2.8Z" transform="translate(-264.95 -241.877)" fill="#e1e1e1"/>
            <g id="Grupo_80670" data-name="Grupo 80670" transform="translate(199.156 181.813)" opacity="0.3">
              <g id="Grupo_80669" data-name="Grupo 80669">
                <g id="Grupo_80668" data-name="Grupo 80668" clip-path="url(#clip-path-3)">
                  <path id="Trazado_115185" data-name="Trazado 115185" d="M490.239,429.515a2.587,2.587,0,0,1-.372,2.586,10.626,10.626,0,0,1-7.809,2.1,13.622,13.622,0,0,1-7.711-2.806c-1.616-1.277-3.881-3.077-5.665-3.411a10.637,10.637,0,0,1-4.016-1.5c-.545-.5-.56-2.8-.56-2.8Z" transform="translate(-464.106 -423.69)"/>
                </g>
              </g>
            </g>
            <path id="Trazado_115186" data-name="Trazado 115186" d="M465.423,402.952a.543.543,0,0,0-.508.53c-.1.638-.209,2.493-.428,3.541a19.285,19.285,0,0,0-.286,5.616c.26,1.169,2.971,1.891,4.708,2.493a21.833,21.833,0,0,1,5.682,3.365,16.012,16.012,0,0,0,8.372,2.831c3.893-.082,6.372-1.245,7.1-2.7.9-1.795.553-3.035-4-4.983a53.527,53.527,0,0,1-5.076-2.8,14.965,14.965,0,0,1-5.889-6.787,1.743,1.743,0,0,0-.679-.927,1.4,1.4,0,0,0-.872-.048,19.167,19.167,0,0,0-3.552.836c-.589.312-1.427.681-1.384,1.463a2.648,2.648,0,0,0,.2.789c.06.158.11.369-.024.468s-.3,0-.423-.1a11.825,11.825,0,0,1-1.262-1.429,4.437,4.437,0,0,0-.736-.708,7.755,7.755,0,0,1-.785-.477s-.125-.612-.152-.978" transform="translate(-264.941 -230.038)" fill="#e1e1e1"/>
            <g id="Grupo_80673" data-name="Grupo 80673" transform="translate(199.15 172.914)" opacity="0.1">
              <g id="Grupo_80672" data-name="Grupo 80672">
                <g id="Grupo_80671" data-name="Grupo 80671" clip-path="url(#clip-path-4)">
                  <path id="Trazado_115187" data-name="Trazado 115187" d="M465.423,402.952a.543.543,0,0,0-.508.53c-.1.638-.209,2.493-.428,3.541a19.285,19.285,0,0,0-.286,5.616c.26,1.169,2.971,1.891,4.708,2.493a21.833,21.833,0,0,1,5.682,3.365,16.012,16.012,0,0,0,8.372,2.831c3.893-.082,6.372-1.245,7.1-2.7.9-1.795.553-3.035-4-4.983a53.527,53.527,0,0,1-5.076-2.8,14.965,14.965,0,0,1-5.889-6.787,1.743,1.743,0,0,0-.679-.927,1.4,1.4,0,0,0-.872-.048,19.167,19.167,0,0,0-3.552.836c-.589.312-1.427.681-1.384,1.463a2.648,2.648,0,0,0,.2.789c.06.158.11.369-.024.468s-.3,0-.423-.1a11.825,11.825,0,0,1-1.262-1.429,4.437,4.437,0,0,0-.736-.708,7.755,7.755,0,0,1-.785-.477s-.125-.612-.152-.978" transform="translate(-464.091 -402.952)"/>
                </g>
              </g>
            </g>
            <path id="Trazado_115188" data-name="Trazado 115188" d="M505.764,427.876c-5.618.6-7.971,4.3-7.258,6.969a13.138,13.138,0,0,0,4.033.712c3.893-.082,6.532-1.25,7.256-2.7.845-1.693.022-3.582-4.031-4.981" transform="translate(-284.517 -244.267)" fill="#fafafa"/>
            <path id="Trazado_115189" data-name="Trazado 115189" d="M497.375,426.2a.272.272,0,0,1-.176-.057.284.284,0,0,1-.054-.392,6.556,6.556,0,0,1,5.016-2.226.28.28,0,0,1,.256.3.274.274,0,0,1-.293.259,6.075,6.075,0,0,0-4.539,2.006.271.271,0,0,1-.209.11" transform="translate(-283.779 -241.776)" fill="#f0f0f0"/>
            <path id="Trazado_115190" data-name="Trazado 115190" d="M492.081,423a.271.271,0,0,1-.177-.057.283.283,0,0,1-.054-.392,6.54,6.54,0,0,1,5.016-2.225.279.279,0,0,1,.256.3.272.272,0,0,1-.294.259,6.066,6.066,0,0,0-4.538,2.006.271.271,0,0,1-.209.11" transform="translate(-280.757 -239.951)" fill="#f0f0f0"/>
            <path id="Trazado_115191" data-name="Trazado 115191" d="M486.85,418.912a.271.271,0,0,1-.176-.057.283.283,0,0,1-.054-.393,6.56,6.56,0,0,1,5.016-2.225.279.279,0,0,1,.256.3.273.273,0,0,1-.294.259,6.074,6.074,0,0,0-4.538,2.006.272.272,0,0,1-.209.11" transform="translate(-277.77 -237.615)" fill="#f0f0f0"/>
            <path id="Trazado_115192" data-name="Trazado 115192" d="M481.682,414.744a.273.273,0,0,1-.173-.054.283.283,0,0,1-.06-.391,6.676,6.676,0,0,1,5.483-2.27.28.28,0,0,1-.037.558,6.191,6.191,0,0,0-5,2.044.271.271,0,0,1-.212.114" transform="translate(-274.82 -235.21)" fill="#f0f0f0"/>
            <path id="Trazado_115193" data-name="Trazado 115193" d="M415.977,347.6l-13.031-2.639c-.443,7.886-.239,20.757-.226,28.042,0,1.4-.92,10.8-.559,13.7.543,4.357,6.376,4.153,6.893,1.6s1.087-13.483,1.2-14.615a6.713,6.713,0,0,1,.115-1.015c1.443-6.639,5.522-24.695,5.611-25.074" transform="translate(-229.538 -196.93)" fill="#f0f0f0"/>
            <path id="Trazado_115194" data-name="Trazado 115194" d="M407.288,447.37a11.727,11.727,0,0,1-1.446,6.022,4.4,4.4,0,0,1-4.753,1.707c-1.958-.389-4.567-1.862-5.195-4.032a12.306,12.306,0,0,1-.2-6.024Z" transform="translate(-225.739 -254.067)" fill="#e1e1e1"/>
            <g id="Grupo_80676" data-name="Grupo 80676" transform="translate(169.682 190.976)" opacity="0.3">
              <g id="Grupo_80675" data-name="Grupo 80675">
                <g id="Grupo_80674" data-name="Grupo 80674" clip-path="url(#clip-path-5)">
                  <path id="Trazado_115195" data-name="Trazado 115195" d="M407.288,447.37a11.727,11.727,0,0,1-1.446,6.022,4.4,4.4,0,0,1-4.753,1.707c-1.958-.389-4.567-1.862-5.195-4.032a12.306,12.306,0,0,1-.2-6.024Z" transform="translate(-395.421 -445.043)"/>
                </g>
              </g>
            </g>
            <path id="Trazado_115196" data-name="Trazado 115196" d="M399.162,408.43c-.8.074-.884,3.376-1.236,6.788-.378,3.657-1.563,5.194-1.909,8.194-.4,3.427-.143,4.948,1.28,6.981s6.291,3.946,8.563.933c1.851-2.456,1.845-5.131,1.559-8.538a76.444,76.444,0,0,1-.458-8.676c.074-2.561.548-4.94-.157-5.208-.041.377-.078.855-.123,1.225-.034.284-.07,1.671-.518,1.694a4.708,4.708,0,0,1-.04-.963,1.043,1.043,0,0,0-.246-.82,3.076,3.076,0,0,0-1.255-.433c-.793-.119-1.59-.224-2.393-.269-.4-.022-.8-.03-1.2-.016a3.566,3.566,0,0,0-1.011.151.679.679,0,0,0-.423.357.989.989,0,0,0-.029.391,2.5,2.5,0,0,1-.078.7c-.026.1-.1.227-.217.2a.2.2,0,0,1-.137-.2c-.016-.412.033-.713.039-1.193,0-.222,0-.432-.009-.655s-.011-.429,0-.648" transform="translate(-225.983 -233.165)" fill="#e1e1e1"/>
            <g id="Grupo_80679" data-name="Grupo 80679" transform="translate(169.866 175.265)" opacity="0.1">
              <g id="Grupo_80678" data-name="Grupo 80678">
                <g id="Grupo_80677" data-name="Grupo 80677" clip-path="url(#clip-path-6)">
                  <path id="Trazado_115197" data-name="Trazado 115197" d="M399.162,408.43c-.8.074-.884,3.376-1.236,6.788-.378,3.657-1.563,5.194-1.909,8.194-.4,3.427-.143,4.948,1.28,6.981s6.291,3.946,8.563.933c1.851-2.456,1.845-5.131,1.559-8.538a76.444,76.444,0,0,1-.458-8.676c.074-2.561.548-4.94-.157-5.208-.041.377-.078.855-.123,1.225-.034.284-.07,1.671-.518,1.694a4.708,4.708,0,0,1-.04-.963,1.043,1.043,0,0,0-.246-.82,3.076,3.076,0,0,0-1.255-.433c-.793-.119-1.59-.224-2.393-.269-.4-.022-.8-.03-1.2-.016a3.566,3.566,0,0,0-1.011.151.679.679,0,0,0-.423.357.989.989,0,0,0-.029.391,2.5,2.5,0,0,1-.078.7c-.026.1-.1.227-.217.2a.2.2,0,0,1-.137-.2c-.016-.412.033-.713.039-1.193,0-.222,0-.432-.009-.655s-.011-.429,0-.648" transform="translate(-395.849 -408.43)"/>
                </g>
              </g>
            </g>
            <path id="Trazado_115198" data-name="Trazado 115198" d="M395.855,446.461a7.6,7.6,0,0,0,1.228,5.164c1.423,2.034,6.678,3.944,8.949.931a8.82,8.82,0,0,0,1.495-5.025c-1.492-2.246-9.5-3.063-11.672-1.071" transform="translate(-225.979 -254.231)" fill="#fafafa"/>
            <path id="Trazado_115199" data-name="Trazado 115199" d="M408.156,440.2a.358.358,0,0,1-.1-.022,13.149,13.149,0,0,0-6.93-.467.307.307,0,0,1-.363-.188.261.261,0,0,1,.213-.32,13.626,13.626,0,0,1,7.322.5.253.253,0,0,1,.151.347.306.306,0,0,1-.294.155" transform="translate(-228.783 -250.564)" fill="#f0f0f0"/>
            <path id="Trazado_115200" data-name="Trazado 115200" d="M401.516,433.589a.3.3,0,0,1-.257-.17.255.255,0,0,1,.175-.337,11.432,11.432,0,0,1,7.31.436.248.248,0,0,1,.136.351.32.32,0,0,1-.4.12,10.948,10.948,0,0,0-6.841-.414.331.331,0,0,1-.125.015" transform="translate(-229.061 -246.992)" fill="#f0f0f0"/>
            <path id="Trazado_115201" data-name="Trazado 115201" d="M401.815,427.875a.3.3,0,0,1-.255-.166.252.252,0,0,1,.168-.339,10.307,10.307,0,0,1,7.456.413.246.246,0,0,1,.111.357.319.319,0,0,1-.405.1,9.816,9.816,0,0,0-6.945-.379.324.324,0,0,1-.13.017" transform="translate(-229.232 -243.682)" fill="#f0f0f0"/>
            <path id="Trazado_115202" data-name="Trazado 115202" d="M402.18,421.615a.3.3,0,0,1-.254-.163.252.252,0,0,1,.163-.342,10.767,10.767,0,0,1,7.511.485.247.247,0,0,1,.121.355.314.314,0,0,1-.4.106,10.281,10.281,0,0,0-7-.46.334.334,0,0,1-.134.018" transform="translate(-229.44 -240.125)" fill="#ececec"/>
            <path id="Trazado_115203" data-name="Trazado 115203" d="M406.828,205.348c-.812,14.873-2.068,42.334-2.068,42.334-.177,1.732-1.762,9.381-1.923,15.627-.26,10.028.141,19.307.141,19.307s5.751,2.456,9.742.873c0,0,5.261-22.673,6.595-29.2,1.587-7.779,4.966-23.264,4.966-23.264l2.661,20.554a63.406,63.406,0,0,0,0,13.364c.568,4.119,2.695,17.825,2.695,17.825s5.308,1.135,9.648-.249c0,0,2.031-29.118,2.288-32.915.258-3.815.991-23.338.059-47.3Z" transform="translate(-229.922 -115.491)" fill="#e1e1e1"/>
            <path id="Trazado_115204" data-name="Trazado 115204" d="M429.281,296.27l.737,4.313c1.74,1,6.853,1.2,9.417-.556l.2-3.963c-2.136,1.562-7.93,1.485-10.358.206m-26.268-.206v4.2c1.408,1.407,6.835,2.088,9.71,1.011l.8-4.082c-3.016,1.327-8.722.549-10.51-1.128M434.1,230.756a11.951,11.951,0,0,1-7.456,3.192l-2.217,13.316,2.661,20.554-1.305-20.975,2.036-11.051c5.937-1.968,6.282-5.036,6.282-5.036" transform="translate(-230.073 -131.734)" fill="#e1e1e1"/>
            <g id="Grupo_80682" data-name="Grupo 80682" transform="translate(172.941 99.022)" opacity="0.1">
              <g id="Grupo_80681" data-name="Grupo 80681">
                <g id="Grupo_80680" data-name="Grupo 80680" clip-path="url(#clip-path-7)">
                  <path id="Trazado_115205" data-name="Trazado 115205" d="M429.281,296.27l.737,4.313c1.74,1,6.853,1.2,9.417-.556l.2-3.963c-2.136,1.562-7.93,1.485-10.358.206m-26.268-.206v4.2c1.408,1.407,6.835,2.088,9.71,1.011l.8-4.082c-3.016,1.327-8.722.549-10.51-1.128M434.1,230.756a11.951,11.951,0,0,1-7.456,3.192l-2.217,13.316,2.661,20.554-1.305-20.975,2.036-11.051c5.937-1.968,6.282-5.036,6.282-5.036" transform="translate(-403.013 -230.756)"/>
                </g>
              </g>
            </g>
            <path id="Trazado_115206" data-name="Trazado 115206" d="M475.58,104.563c3.625,1.072,4.086,1.877,10.662,7.431,5.364,4.53,8.23,6.448,8.23,6.448s5.591,6.638,5.835,7.94a7.222,7.222,0,0,1-2.7,6.335c-1.376,1.038-2.954.636-4.454-.157-1.825-.964-2.736-1.484-3.631-2-6.056-3.509-10.921-6.719-10.921-6.719Z" transform="translate(-271.5 -59.693)" fill="#e1e1e1"/>
            <path id="Trazado_115207" data-name="Trazado 115207" d="M535.015,82.722c-.907-.523-1.058.315-1.365.43,0,0,.911-1.081-.652-1.984-.964-.557-1.412.79-1.435.613-.01-.079,1.115-2.83,2.028-5.166.866-2.218.082-2.835-.279-3.006-.326-.154-.723-.018-1.53,1.6-.8,1.593-3.187,6.451-3.726,7.457s-.932,1.478-1.3.185a7.3,7.3,0,0,0-1.38-3.094c-1.194-1.226-2.106-.668-1.907.281.281,1.339.283,2.912.5,5.1.115,1.142.154,2.214.3,3,.44,2.745-1.142,4.027-3.016,6.214-1.533,1.788-3.116,3.256-6.642,6.853-3.344,3.411-2.9,10.9.266,12.667,3.5,1.956,4.456.81,8.1-4.821,2.349-3.632,5.479-10.3,6.34-11.839s1.174-2.479,2.388-3.247a8.944,8.944,0,0,0,3.281-3.772c.43-.778,1.248-2.209,1.778-3.367.517-1.131.577-1.978-.086-2.462-.9-.658-1.147.34-1.239.236s.876-1.128-.416-1.873" transform="translate(-292.457 -41.994)" fill="#ececec"/>
            <path id="Trazado_115208" data-name="Trazado 115208" d="M554.94,100.408c-.309-.438-.017-1.245-.017-1.245a1.518,1.518,0,0,1-.725.63,1.117,1.117,0,0,1-1.278-.555,1.616,1.616,0,0,1,.167-1.053,1.8,1.8,0,0,1-.772.436c-.49.137-.935-.169-1.125-.766s.49-2.089,1.2-3.454a6.739,6.739,0,0,0-1.075,1.526,3.62,3.62,0,0,0-.618,1.855,3.812,3.812,0,0,0-1.443-1.169c1.26,1.208,2.186,4.512,1.679,6.707a4.845,4.845,0,0,0,.419-4.348.977.977,0,0,0,1.151-.1,1.171,1.171,0,0,0,.691,1.218,1.135,1.135,0,0,0,1.27.009s-.149.5.5.826,1.166-.037,1.52-.673a1.019,1.019,0,0,1-1.546.152" transform="translate(-313.557 -53.892)" fill="#e1e1e1"/>
            <g id="Grupo_80685" data-name="Grupo 80685" transform="translate(235.694 40.51)" opacity="0.1">
              <g id="Grupo_80684" data-name="Grupo 80684">
                <g id="Grupo_80683" data-name="Grupo 80683" clip-path="url(#clip-path-8)">
                  <path id="Trazado_115209" data-name="Trazado 115209" d="M554.94,100.408c-.309-.438-.017-1.245-.017-1.245a1.518,1.518,0,0,1-.725.63,1.117,1.117,0,0,1-1.278-.555,1.616,1.616,0,0,1,.167-1.053,1.8,1.8,0,0,1-.772.436c-.49.137-.935-.169-1.125-.766s.49-2.089,1.2-3.454a6.739,6.739,0,0,0-1.075,1.526,3.62,3.62,0,0,0-.618,1.855,3.812,3.812,0,0,0-1.443-1.169c1.26,1.208,2.186,4.512,1.679,6.707a4.845,4.845,0,0,0,.419-4.348.977.977,0,0,0,1.151-.1,1.171,1.171,0,0,0,.691,1.218,1.135,1.135,0,0,0,1.27.009s-.149.5.5.826,1.166-.037,1.52-.673a1.019,1.019,0,0,1-1.546.152" transform="translate(-549.251 -94.402)"/>
                </g>
              </g>
            </g>
            <path id="Trazado_115210" data-name="Trazado 115210" d="M419.97,103.9c-5.433,1.211-7.062,1.737-9.632,2.331,0,0-4.783,13.469-2.482,22.858a75.086,75.086,0,0,1,1.737,13.07,83.866,83.866,0,0,1-.448,9.045s7.267,5.069,22.461,3.521c11.93-1.215,12.764-5.413,12.764-5.413s-.66-15.064-.94-23.836c-.285-8.894-1.311-12.788-3.67-17.864-.711-1.531-1.542-3.166-3.2-3.426a39.142,39.142,0,0,0-6.454-.119Z" transform="translate(-232.48 -59.312)" fill="#ececec"/>
            <path id="Trazado_115211" data-name="Trazado 115211" d="M376.515,137.164c-.905,2.971-.771,4.23.2,7.191q.912,2.781,1.792,5.572c.783,2.47,2.136,6.593,2.387,7.564a8.247,8.247,0,0,1,.37,3.078,18.749,18.749,0,0,0-.194,3.2,13.285,13.285,0,0,0,.664,3.754c.276.841.426,1.748.756,2.564a10.409,10.409,0,0,0,.787,1.357,2.5,2.5,0,0,0,.667.939,13.876,13.876,0,0,1,2.2,1.406c.223.241.391.528.609.773.832.938,2.236,1.14,3.187,1.957.539.463.909,1.1,1.481,1.526.182.134.44.242.623.109a.6.6,0,0,0,.16-.216,2.042,2.042,0,0,0,.34-.912,3.459,3.459,0,0,0-.279-1.035,10.428,10.428,0,0,0-.953-1.871,27.732,27.732,0,0,1-1.667-2.788,5.311,5.311,0,0,1-.359-2.18c-.021-.835-.03-1.672-.012-2.508.006-.312.042-.678.309-.841a9.911,9.911,0,0,0,1.781,3.227c.352.375,2.328,1.551,2.516.37a.616.616,0,0,0-.054-.3c-.24-.668-.541-1.313-.782-1.979a17.88,17.88,0,0,1-.672-2.024,15.985,15.985,0,0,0-2.091-5.758c-2.122-3.283-3.874-18.746-3.874-18.746l4.244-12.064a21.835,21.835,0,0,0,3.712-10.929c.188-6.085-2.026-7.845-2.026-7.845-5.125.845-7.6,2.316-9.144,6.572s-5.76,17.818-6.678,20.833" transform="translate(-214.598 -62.659)" fill="#ececec"/>
            <path id="Trazado_115212" data-name="Trazado 115212" d="M375.065,138.963c.209-1.117,1.759-7.594,4.306-15.547s3.1-8.566,5.031-10.9,5.009-2.721,7.525-3.214c0,0,2.031,1.636,2.133,7.033a24.948,24.948,0,0,1-2.591,11.71l-5.46,12.286.183,1.944c-5.474-1.35-9.949,3.214-9.949,3.214-1.516-4.7-1.388-5.413-1.178-6.529" transform="translate(-214.047 -62.401)" fill="#e1e1e1"/>
            <path id="Trazado_115213" data-name="Trazado 115213" d="M445.152,102.828s3.657,3.173,2.518,6.231-6.326,3.684-10.432.881-3.817-6.175-3.817-6.175l1.517-.5a4.968,4.968,0,0,0,.878,2.041c.652.752,8.216,3.744,8.4,4.659,0,0,1.117-2.234,1.444-3.072s-1.391-4.18-1.391-4.18Z" transform="translate(-247.429 -58.636)" fill="#f5f5f5"/>
            <path id="Trazado_115214" data-name="Trazado 115214" d="M442.8,44.05c1.049-2.994-.476-6.748-2.122-8.441-2.379-2.449-5.863-3.321-10.963-2.622-3.878.532-7.591,2.437-8.022,6.49-3.062,1.168-2.322,6.285-1.374,8.5,1.924,4.486,5.331,8.261,5.56,10.612Z" transform="translate(-239.483 -18.698)" fill="#e1e1e1"/>
            <g id="Grupo_80688" data-name="Grupo 80688" transform="translate(180.013 14.055)" opacity="0.2">
              <g id="Grupo_80687" data-name="Grupo 80687">
                <g id="Grupo_80686" data-name="Grupo 80686" clip-path="url(#clip-path-9)">
                  <path id="Trazado_115215" data-name="Trazado 115215" d="M442.8,44.05c1.049-2.994-.476-6.748-2.122-8.441-2.379-2.449-5.863-3.321-10.963-2.622-3.878.532-7.591,2.437-8.022,6.49-3.062,1.168-2.322,6.285-1.374,8.5,1.924,4.486,5.331,8.261,5.56,10.612Z" transform="translate(-419.496 -32.753)"/>
                </g>
              </g>
            </g>
            <path id="Trazado_115216" data-name="Trazado 115216" d="M443.662,62.067c-.45,2.269-.862,4.444-3.4,5.172a11.043,11.043,0,0,1-2.927.262v3.541c1.511,1.829.772,4.16-.45,6.465-2.127-2.555-8.182-3.561-10.658-6.626l-.2-9.134s-1.152,1.522-3.327.327a4.536,4.536,0,0,1-1.82-5.434,2.229,2.229,0,0,1,3.674-.891c.679.611,1.512,1.8,2.026,1.583a1.92,1.92,0,0,0,1.179-1.4,11.651,11.651,0,0,0,.358-4.253,4.4,4.4,0,0,0,2.128-4.551c4.338-1.722,10.043-1.578,12-.287,1.2,1.792,1.357,4.073,1.529,6.587a38.414,38.414,0,0,1-.109,8.637" transform="translate(-240.105 -26.179)" fill="#ececec"/>
            <path id="Trazado_115217" data-name="Trazado 115217" d="M445.961,88.3c-2.283.041-6.935-1.091-8.247-2.27A9.41,9.41,0,0,1,435.69,82.3a10.305,10.305,0,0,0,1.355,4.118c1.049,1.377,3.611,2.025,5.067,2.351a19.328,19.328,0,0,0,3.849.424Z" transform="translate(-248.728 -46.982)" fill="#e1e1e1"/>
            <path id="Trazado_115218" data-name="Trazado 115218" d="M440.84,106.507c-1.172-.675-3.5-2.177-4.6-.7-1.132,1.52-1.883,3.176-2.726,2.95a11.645,11.645,0,0,1-5.088-4.5,9.011,9.011,0,0,1-.921-3.509,25.66,25.66,0,0,0,1.568-2.627c.449-.944.3-1.4,1.033-1.465L430.162,99a20.251,20.251,0,0,0,2.942,2.6c2.08,1.4,6.16,1.7,7.735,4.9" transform="translate(-244.057 -55.179)" fill="#e1e1e1"/>
            <path id="Trazado_115219" data-name="Trazado 115219" d="M458.575,107.778c.671-.641,1.128-1.741,2.26-1.448s2.8,2.808,2.816,2.209-.815-4.855-1.7-6.1-2.162-3.62-2.928-3.556v2.43a7.275,7.275,0,0,1,.735,2.851c-.129,1.015-1.069,2.63-1.186,3.614" transform="translate(-261.792 -56.45)" fill="#e1e1e1"/>
            <path id="Trazado_115220" data-name="Trazado 115220" d="M160.652,449.544a10.805,10.805,0,0,0,1.55,5.255,3.632,3.632,0,0,0,4.173,1.229,6.2,6.2,0,0,0,4.067-3.654,9.68,9.68,0,0,0,.145-5.568Z" transform="translate(-91.713 -255.073)" fill="#e1e1e1"/>
            <g id="Grupo_80691" data-name="Grupo 80691" transform="translate(68.939 191.732)" opacity="0.2">
              <g id="Grupo_80690" data-name="Grupo 80690">
                <g id="Grupo_80689" data-name="Grupo 80689" clip-path="url(#clip-path-10)">
                  <path id="Trazado_115221" data-name="Trazado 115221" d="M160.652,449.544a10.805,10.805,0,0,0,1.55,5.255,3.632,3.632,0,0,0,4.173,1.229,6.2,6.2,0,0,0,4.067-3.654,9.68,9.68,0,0,0,.145-5.568Z" transform="translate(-160.652 -446.806)"/>
                </g>
              </g>
            </g>
            <path id="Trazado_115222" data-name="Trazado 115222" d="M165.921,414.076c.377,1.549.563,2.609,1.078,4.734.8,3.294,1.651,4.691,2.136,7.431.554,3.13.231,4.652-1,6.509s-5.039,3.982-7.146,1.337c-1.717-2.156-1.885-4.618-1.864-7.767a67.523,67.523,0,0,0-.542-7.957c0-.016,0-.032,0-.048-.083-.841-.219-2.5-.342-3.339-.272-1.841.988-2.046,1.476-2.312a7.222,7.222,0,0,1,2.188-.793,6.567,6.567,0,0,1,2.358.106c.881.167,1.3.615,1.657,2.1" transform="translate(-90.316 -235.092)" fill="#e1e1e1"/>
            <g id="Grupo_80694" data-name="Grupo 80694" transform="translate(67.888 176.713)" opacity="0.1">
              <g id="Grupo_80693" data-name="Grupo 80693">
                <g id="Grupo_80692" data-name="Grupo 80692" clip-path="url(#clip-path-11)">
                  <path id="Trazado_115223" data-name="Trazado 115223" d="M165.921,414.076c.377,1.549.563,2.609,1.078,4.734.8,3.294,1.651,4.691,2.136,7.431.554,3.13.231,4.652-1,6.509s-5.039,3.982-7.146,1.337c-1.717-2.156-1.885-4.618-1.864-7.767a67.523,67.523,0,0,0-.542-7.957c0-.016,0-.032,0-.048-.083-.841-.219-2.5-.342-3.339-.272-1.841.988-2.046,1.476-2.312a7.222,7.222,0,0,1,2.188-.793,6.567,6.567,0,0,1,2.358.106c.881.167,1.3.615,1.657,2.1" transform="translate(-158.203 -411.805)"/>
                </g>
              </g>
            </g>
            <path id="Trazado_115224" data-name="Trazado 115224" d="M54.565,421.524a2.139,2.139,0,0,0,.493,2.2,10.082,10.082,0,0,0,7.219,1.356,12.736,12.736,0,0,0,6.835-2.866c1.391-1.193,3.34-2.876,4.94-3.268a12.09,12.09,0,0,0,3.9-1.64c.466-.46.341-2.441.341-2.441Z" transform="translate(-31.079 -236.842)" fill="#e1e1e1"/>
            <g id="Grupo_80697" data-name="Grupo 80697" transform="translate(23.361 178.028)" opacity="0.2">
              <g id="Grupo_80696" data-name="Grupo 80696">
                <g id="Grupo_80695" data-name="Grupo 80695" clip-path="url(#clip-path-12)">
                  <path id="Trazado_115225" data-name="Trazado 115225" d="M54.565,421.524a2.139,2.139,0,0,0,.493,2.2,10.082,10.082,0,0,0,7.219,1.356,12.736,12.736,0,0,0,6.835-2.866c1.391-1.193,3.34-2.876,4.94-3.268a12.09,12.09,0,0,0,3.9-1.64c.466-.46.341-2.441.341-2.441Z" transform="translate(-54.44 -414.87)"/>
                </g>
              </g>
            </g>
            <path id="Trazado_115226" data-name="Trazado 115226" d="M76.573,399.963a.973.973,0,0,1,.474.109,1.444,1.444,0,0,1,.529,1.183,4.59,4.59,0,0,0,.174,1.168,9.366,9.366,0,0,1,.46,4.61c-.247,1.007-2.928,1.914-4.47,2.534a20,20,0,0,0-4.958,3.229,15.033,15.033,0,0,1-7.434,2.926c-3.541.158-5.863-.7-6.608-1.906-.921-1.492-.26-2.394,3.757-4.337.76-.368,3.422-1.995,4.328-2.583a20.93,20.93,0,0,0,2.712-2.073,15.669,15.669,0,0,0,1.208-1.223,16.935,16.935,0,0,1,1.955-1.719,10.692,10.692,0,0,1,1.516-1.118,6.746,6.746,0,0,1,2.894-.805c1.028-.07,2,.136,3.032.033a3.87,3.87,0,0,1,.43-.029" transform="translate(-31.041 -228.321)" fill="#e1e1e1"/>
            <g id="Grupo_80700" data-name="Grupo 80700" transform="translate(23.333 171.623)" opacity="0.1">
              <g id="Grupo_80699" data-name="Grupo 80699">
                <g id="Grupo_80698" data-name="Grupo 80698" clip-path="url(#clip-path-13)">
                  <path id="Trazado_115227" data-name="Trazado 115227" d="M76.573,399.963a.973.973,0,0,1,.474.109,1.444,1.444,0,0,1,.529,1.183,4.59,4.59,0,0,0,.174,1.168,9.366,9.366,0,0,1,.46,4.61c-.247,1.007-2.928,1.914-4.47,2.534a20,20,0,0,0-4.958,3.229,15.033,15.033,0,0,1-7.434,2.926c-3.541.158-5.863-.7-6.608-1.906-.921-1.492-.26-2.394,3.757-4.337.76-.368,3.422-1.995,4.328-2.583a20.93,20.93,0,0,0,2.712-2.073,15.669,15.669,0,0,0,1.208-1.223,16.935,16.935,0,0,1,1.955-1.719,10.692,10.692,0,0,1,1.516-1.118,6.746,6.746,0,0,1,2.894-.805c1.028-.07,2,.136,3.032.033a3.87,3.87,0,0,1,.43-.029" transform="translate(-54.374 -399.944)"/>
                </g>
              </g>
            </g>
            <path id="Trazado_115228" data-name="Trazado 115228" d="M112.25,283.6c-.79-6.789-.245-14.31-1.266-24.919-.163-2.723-.384-5.639-.679-8.225-.993-8.7-2.509-11.628-2.707-13.307,0,0-.091-17.137-1.459-36.208-.644-8.972-3.454-11.582-5.8-16.263l-26.712,1.048c-2.385,11.883-1.838,38.7-1.259,50.82.3,6.18,1.909,28.365,1.992,38.424.024,2.95-.571,4.014-1.621,5.194-2.2,2.47-5.029,4.231-7.722,6.161-.742,1.616,3.021,2.551,6.161.83a76.385,76.385,0,0,0,6.617-3.941c2.3-1.785,4.771-2.991,5.234-5.521.188-1.029,5.015-24.638,5.108-29.783a118.223,118.223,0,0,0-.782-11.892L89.544,217.2s2.937,14.336,4.686,21.91,3.679,16.567,5.674,24.058c1.975,8.642,4.643,17.013,5.232,21.356.166,1.035,1.8,11.2,2.4,13.521s5.891,2.166,6.066-1.872c.116-2.688-1.208-11.3-1.356-12.574" transform="translate(-37.061 -105.428)" fill="#f0f0f0"/>
            <path id="Trazado_115229" data-name="Trazado 115229" d="M109.632,185.057c3.254,5.218,5.685,9.492,6.638,25.36s.863,25.514,1.005,27.427,1.16,3.312,2.558,12.7a119.262,119.262,0,0,1,.714,20.824s-.9,1.752-4.625,2.227c-3.439.439-5.2-.741-5.2-.741s-4.677-17.4-6.217-23.864c-1.352-5.676-6.2-27.664-6.2-27.664l-1.64,15.243a40.123,40.123,0,0,1,.295,13.884c-1.108,8.276-2.969,16.5-2.969,16.5a20.088,20.088,0,0,1-5.362.7A19.152,19.152,0,0,1,82.4,266.5s-1.765-23.991-2.146-33.367-1.127-35.425,1.835-46.773Z" transform="translate(-45.603 -105.646)" fill="#e1e1e1"/>
            <g id="Grupo_80703" data-name="Grupo 80703" transform="translate(38.607 81.955)" opacity="0.1">
              <g id="Grupo_80702" data-name="Grupo 80702">
                <g id="Grupo_80701" data-name="Grupo 80701" clip-path="url(#clip-path-14)">
                  <path id="Trazado_115230" data-name="Trazado 115230" d="M122.486,246.026c-.145-.539-.282-1.051-.409-1.541-1.131-4.348-1.148-12.714-1.429-19.979-.085-2.2-.172-4.465-.292-6.876-.471-9.456-1.658-20.017-6.9-26.646l-.389.286c3.522,4.456,5.184,10.753,6.033,17.287-4.949-.43-6.218-5.076-7.948-11.474-.237-.874-.481-1.779-.745-2.707l-.472.126c.263.926.507,1.829.744,2.7,1.727,6.385,3.1,11.442,8.481,11.84.356,2.877.563,5.792.7,8.61.12,2.409.207,4.677.293,6.871.281,7.292.3,15.681,1.442,20.076.127.49.265,1,.41,1.544,1.5,5.619,3.264,14.989,2.918,29.838a5.259,5.259,0,0,0,.5-.321c.308-14.711-1.441-24.033-2.942-29.636m-32.518-42.9c.814,3.093,6.084,5.51,8.451,5.957l.723,3.151c-.046,1.693-.1,3.47-.155,5.305-.3,10.116-.521,20.553.013,22.907,1.034,4.564.758,8.953.165,14.921-.535,5.384-1.46,12.058-2.038,15.472.171-.02.335-.041.489-.063.583-3.382,1.347-9.331,2.1-15.384.761-6.1.958-10.277-.245-15.067-.571-2.276-.285-13.161,0-22.774q.053-1.749.1-3.421l2.546,11.095.3,14.73,1.64-15.244-3.814-17.9s-6.52-.184-10.281-3.681" transform="translate(-89.968 -190.985)"/>
                </g>
              </g>
            </g>
            <path id="Trazado_115231" data-name="Trazado 115231" d="M.489,105.964a2.7,2.7,0,0,1,1.612-.02,17.646,17.646,0,0,1,2.406,1.075c1.23.531,3.21,1.407,4.562,1.224.275-.037.835-.2.428-.508a11.662,11.662,0,0,1-1.552-1.256,2.4,2.4,0,0,1-.724-1.8.82.82,0,0,1,.231-.541c.212-.19.378-.1.569.022a5.469,5.469,0,0,0,.641.313c.448.2.9.406,1.34.615,2.6,1.22,5.215,2.685,6.9,5.082.245.348,1.78,3.122,2.749,4.677.8,1.425,5.654,8.641,5.654,8.641s6.587-5.882,9.54-8.571c3.166-2.883,5.186-4.9,10.047-5.122l-4.678,15.468s-8.564,6.548-10.25,7.724c-4.241,2.96-5.137,3.916-7.87,1.664-3.352-2.761-4.319-6.14-5.787-9.785-1.654-4.1-2.219-6.094-3.063-7.3s-2.049-1.189-2.913-1.376a13.17,13.17,0,0,1-3.449-1.149,12.1,12.1,0,0,1-2.72-1.652,3.726,3.726,0,0,1-1.093-1.093,11.352,11.352,0,0,0-.351-1.239c-.244-.442-.69-.757-.884-1.223a4.627,4.627,0,0,1-.183-1.171,2,2,0,0,0-.975-1.314,1.876,1.876,0,0,1-.609-.6c-.2-.416.073-.653.421-.781" transform="translate(0 -59.388)" fill="#f0f0f0"/>
            <path id="Trazado_115232" data-name="Trazado 115232" d="M24.426,116.224A8.793,8.793,0,0,0,27.8,119.76a3.646,3.646,0,0,1-2.359-.947,3.417,3.417,0,0,1-1.017-2.589" transform="translate(-13.943 -66.35)" fill="#e1e1e1"/>
            <path id="Trazado_115233" data-name="Trazado 115233" d="M65.068,116.824c-2.306.181-3.611-.088-6.719,1.984S45.169,130.4,45.169,130.4l-4.255-6.02a4.18,4.18,0,0,1-2.44,3.948c-2.724,1.458-3.684.614-3.684.614s2.456,7.286,3.607,9.169a12.322,12.322,0,0,0,4.778,4.949c2.2,1.086,3.663-.381,6.925-2.684s10.283-7.367,10.283-7.367Z" transform="translate(-19.861 -66.693)" fill="#e1e1e1"/>
            <g id="Grupo_80706" data-name="Grupo 80706" transform="translate(25.308 62.756)" opacity="0.1">
              <g id="Grupo_80705" data-name="Grupo 80705">
                <g id="Grupo_80704" data-name="Grupo 80704" clip-path="url(#clip-path-15)">
                  <path id="Trazado_115234" data-name="Trazado 115234" d="M58.976,147.191a9.725,9.725,0,0,1,1.935,6.538,8.668,8.668,0,0,0-.926-7.485Z" transform="translate(-58.976 -146.244)"/>
                </g>
              </g>
            </g>
            <path id="Trazado_115235" data-name="Trazado 115235" d="M104.163,112.211l8.115,2.523c1.393.478,6.657,3.69,4.818,11.615-.608,2.621-1.437,6.3-2.186,9.976-.572,2.81,1.529,8.218,3.227,16.829,0,0-6.961,5.535-20.792,3.973-10.552-1.192-11.7-5.142-11.7-5.142.294-9.824,1.162-13.619,1.144-17.352a8.964,8.964,0,0,1-1.607-5.221c-.068-3.5.851-5.385,3.991-9.356,2.988-3.78,4.825-5.751,4.825-5.751Z" transform="translate(-48.629 -64.059)" fill="#fafafa"/>
            <path id="Trazado_115236" data-name="Trazado 115236" d="M94.839,114.5c-.378.139-3.672,1-3.672,1A31.134,31.134,0,0,0,83.111,125.7c-1.246,2.87-1.41,6.033-1.486,10.543-.065,3.923-1.118,15.395-1.118,21.106.424,1.517,2.992,2.941,2.992,2.941.183,1.992,1.032-19.609,2.1-30.046,1.37-9.191,8.239-13.912,9.776-14.965Z" transform="translate(-45.96 -65.367)" fill="#ececec"/>
            <path id="Trazado_115237" data-name="Trazado 115237" d="M135.591,112.945l.03,1.19c-2.028,6.677-1.971,15.223-2.018,21.473a218.887,218.887,0,0,0,1.811,27.047s8.232,1.463,11.942-3.549c0,0-2.17-8-3.413-15.611-.737-4.508,2.262-15.533,1.486-22.059-.324-2.727-1.059-4.991-3.1-5.633-1.69-.53-6.734-2.857-6.734-2.857" transform="translate(-76.27 -64.478)" fill="#ececec"/>
            <path id="Trazado_115238" data-name="Trazado 115238" d="M94.982,119.02l-.073.059.025.1.257,1.045q-1.721,1.44-3.411,2.915l-.064.056-.012.082c-.19,1.338-.369,2.676-.5,4.02-.068.672-.14,1.344-.193,2.018s-.1,1.349-.11,2.025l.632-4c.217-1.3.409-2.611.607-3.916q1.712-1.474,3.389-2.988l.093-.084-.034-.111-.325-1.057c.431-.4.869-.785,1.292-1.191.449-.429.9-.851,1.344-1.289-.5.372-.981.761-1.47,1.144s-.964.781-1.447,1.17m18.81.72-.033-.091c-.233-.653-.463-1.307-.71-1.955s-.482-1.3-.737-1.946c.182.67.379,1.335.572,2,.18.634.376,1.263.569,1.893l-1.678,1.315-.109.085.051.135,1.369,3.632c-.415.866-.784,1.748-1.161,2.628-.383.912-.761,1.827-1.1,2.756s-.664,1.867-.953,2.814a17.5,17.5,0,0,0-.645,2.9,21.669,21.669,0,0,1,.867-2.824c.33-.928.691-1.845,1.073-2.753s.752-1.822,1.152-2.722.814-1.8,1.216-2.693l.04-.09-.034-.087-1.408-3.572,1.583-1.358Z" transform="translate(-51.893 -66.079)" fill="#e1e1e1"/>
            <path id="Trazado_115239" data-name="Trazado 115239" d="M103.095,65.906a9.834,9.834,0,0,0-1.409-2.7A14.282,14.282,0,0,0,99.3,61.434l-2.554-1.885c-3.1-2.024-3.99-6.566-2.831-8.614C96.59,46.2,102.825,45,106.137,45.1c6.281.2,9.195,2.073,9.561,5.367a4.743,4.743,0,0,1,3.858,2.607c.738,1.182.907,2.122.711,5.615a7.451,7.451,0,0,0,.294,2.494c.386,1.118,1.28,2.277,1.6,3.417a5.36,5.36,0,0,1,.014,3.586,4.731,4.731,0,0,1-2.663,2.712,3.44,3.44,0,0,0-.015-2.862c-.227,1.255-.6,2.7-1.761,3.216-1.2.532-2.594-.212-3.881.015-.842.149-1.568.7-2.407.86-.4.075-1.45.132-1.691-.3s.235-1.118,0-1.634c-.3-.664-1.822-1.036-2.488-1.367-1.265-.627-3.56-1.514-4.174-2.921" transform="translate(-53.335 -25.743)" fill="#e1e1e1"/>
            <g id="Grupo_80709" data-name="Grupo 80709" transform="translate(40.091 19.351)" opacity="0.1">
              <g id="Grupo_80708" data-name="Grupo 80708">
                <g id="Grupo_80707" data-name="Grupo 80707" clip-path="url(#clip-path-16)">
                  <path id="Trazado_115240" data-name="Trazado 115240" d="M103.095,65.906a9.834,9.834,0,0,0-1.409-2.7A14.282,14.282,0,0,0,99.3,61.434l-2.554-1.885c-3.1-2.024-3.99-6.566-2.831-8.614C96.59,46.2,102.825,45,106.137,45.1c6.281.2,9.195,2.073,9.561,5.367a4.743,4.743,0,0,1,3.858,2.607c.738,1.182.907,2.122.711,5.615a7.451,7.451,0,0,0,.294,2.494c.386,1.118,1.28,2.277,1.6,3.417a5.36,5.36,0,0,1,.014,3.586,4.731,4.731,0,0,1-2.663,2.712,3.44,3.44,0,0,0-.015-2.862c-.227,1.255-.6,2.7-1.761,3.216-1.2.532-2.594-.212-3.881.015-.842.149-1.568.7-2.407.86-.4.075-1.45.132-1.691-.3s.235-1.118,0-1.634c-.3-.664-1.822-1.036-2.488-1.367-1.265-.627-3.56-1.514-4.174-2.921" transform="translate(-93.426 -45.094)"/>
                </g>
              </g>
            </g>
            <path id="Trazado_115241" data-name="Trazado 115241" d="M101.383,56.807a5.224,5.224,0,0,0-7.532-4.241,6.058,6.058,0,0,0-3.43,4.887,7.717,7.717,0,0,0,.2,2.795c.291,1.112,1.062,1.841.324,3.013-.4.64-1.015,1.12-1.458,1.732a4.149,4.149,0,0,0,.9,5.582,3.043,3.043,0,0,1,1.193-3.454c-.7,1.2-.4,2.931-.28,3.879a7.292,7.292,0,0,0,5.8,6.164c2.334.6,6.868-.07,7.27-2.017.182-.883-1.395-2.64-1.463-3.54q-.122-1.614-.271-3.225c-.321-3.511-.7-7.018-1.128-10.518q-.064-.529-.13-1.058" transform="translate(-50.687 -29.685)" fill="#e1e1e1"/>
            <g id="Grupo_80712" data-name="Grupo 80712" transform="translate(38.1 22.313)" opacity="0.2">
              <g id="Grupo_80711" data-name="Grupo 80711">
                <g id="Grupo_80710" data-name="Grupo 80710" clip-path="url(#clip-path-17)">
                  <path id="Trazado_115242" data-name="Trazado 115242" d="M101.383,56.807a5.224,5.224,0,0,0-7.532-4.241,6.058,6.058,0,0,0-3.43,4.887,7.717,7.717,0,0,0,.2,2.795c.291,1.112,1.062,1.841.324,3.013-.4.64-1.015,1.12-1.458,1.732a4.149,4.149,0,0,0,.9,5.582,3.043,3.043,0,0,1,1.193-3.454c-.7,1.2-.4,2.931-.28,3.879a7.292,7.292,0,0,0,5.8,6.164c2.334.6,6.868-.07,7.27-2.017.182-.883-1.395-2.64-1.463-3.54q-.122-1.614-.271-3.225c-.321-3.511-.7-7.018-1.128-10.518q-.064-.529-.13-1.058" transform="translate(-88.787 -51.998)"/>
                </g>
              </g>
            </g>
            <path id="Trazado_115243" data-name="Trazado 115243" d="M114.973,82.437c.037-1.032.42-6.2.42-6.2.026.387,1.857,1.525,3.624-.393,1.813-1.968,1.656-4.819.456-6-1.855-1.831-4.64-.345-5.034,2.165-1.473.739-1.934-1.074-.929-3.1-.075-1.671-1.8-1.94-1.579-5.568-.145-1.812-2.864-3.138-5.036-1.846a3.926,3.926,0,0,0-6.39.817c-1.008,2.079-1.316,2.132-1.134,4.769.065.933-.721,2.053-.828,3.287-.474,5.482.778,8.649,2.494,9.652a8.459,8.459,0,0,0,4.268.789l-.042,1.42c-.077.862-.017,1.645-.869,1.889-.377.549-2,5.436-1.844,12.233,5.491-5.544,12.228-11.61,12.636-12.444-.2-.342-.25-.428-.213-1.46" transform="translate(-56.2 -34.363)" fill="#f0f0f0"/>
            <path id="Trazado_115244" data-name="Trazado 115244" d="M114.4,103.092a11.357,11.357,0,0,0,6.055-1.538,6.739,6.739,0,0,0,2.267-2.311,6.766,6.766,0,0,1-1.973,3.069c-2.558,1.946-6.38,1.8-6.38,1.8Z" transform="translate(-65.289 -56.656)" fill="#e1e1e1"/>
            <path id="Trazado_115245" data-name="Trazado 115245" d="M106.566,125.918c-1.194-3.009-1.273-4.225-.87-5.727s1.756-6.381,3.563-8.188l-.177,2.356a45.592,45.592,0,0,0-2.516,11.56" transform="translate(-60.215 -63.94)" fill="#f5f5f5"/>
            <path id="Trazado_115246" data-name="Trazado 115246" d="M108.015,124.217a14.945,14.945,0,0,0,1.447-3.1c.411-1.438.894-2.224,3.6-4.113a40.372,40.372,0,0,0,7.4-7.257l.045-.72s.469.09.482,1.394c.009.894.026,1.461.026,1.461-1.828,3.033-7.578,7.741-13,12.34" transform="translate(-61.664 -62.239)" fill="#f5f5f5"/>
            <path id="Trazado_115247" data-name="Trazado 115247" d="M168.014,220.415a6.281,6.281,0,0,0,1.778-2.326,1.666,1.666,0,0,0-.236-1.486.761.761,0,0,1-.178-.27.625.625,0,0,1,.014-.268,1.813,1.813,0,0,0-.073-1.107,1.141,1.141,0,0,0-.706-.6,2.664,2.664,0,0,0-.015-1.674c-.218-.634-.875-1.141-1.3-.43a5.863,5.863,0,0,0-.5,1.111,12.974,12.974,0,0,0-.634,2.966c-.106,1.052-.357,4.027,1.271,4.168.127.011.487.018.58-.084" transform="translate(-94.814 -120.974)" fill="#e1e1e1"/>
            <path id="Trazado_115248" data-name="Trazado 115248" d="M152.49,120.771c6.451,1.792,6.635,3.945,10.368,9.086a99.406,99.406,0,0,1,7.349,11.648c1.632,3,1.865,4.086-1.135,7.934-1.483,1.9-3,3.5-5.787,6.561-1.774,1.944-3.7,3.933-5.554,5.9a2.293,2.293,0,0,0-.5,2.038,11.385,11.385,0,0,1,.33,1.257,10.649,10.649,0,0,1-.133,1.665,1.456,1.456,0,0,0,.657,1.433,1.6,1.6,0,0,0,.8.094,5.7,5.7,0,0,1-1.531.835,2.338,2.338,0,0,1-1.708-.057c-.51-.246-.894-.73-1.437-.892-.293-.088-.608-.073-.9-.151a1.485,1.485,0,0,1-.775-.506c-.31-.39-.438-.951-.876-1.189a6.182,6.182,0,0,0-.677-.221,1.514,1.514,0,0,1-.841-1.121,4.138,4.138,0,0,1,.035-1.451,36.246,36.246,0,0,1,.79-3.84,3.817,3.817,0,0,1,.62-1.181c.294-.423.574-.86.892-1.264,2.154-2.745,7.657-13.082,7.657-13.082l-7.658-9.883s-4.037-8.15.024-13.612" transform="translate(-85.677 -68.946)" fill="#f0f0f0"/>
            <path id="Trazado_115249" data-name="Trazado 115249" d="M152.644,119.9c1.19.312,3.513.642,5.237,1.927s3.179,3.887,4.623,5.86,5.023,7.145,7.624,11.66,2.183,5.2,1.764,6.428-4.425,6.338-7.8,9.9a8.283,8.283,0,0,1-4.574-1.106,8.7,8.7,0,0,1-2.751-4l3.708-6.879-7.444-9.215a20.477,20.477,0,0,1-1.943-8.693,10.473,10.473,0,0,1,1.56-5.873" transform="translate(-86.251 -68.448)" fill="#e1e1e1"/>
            <g id="Grupo_80715" data-name="Grupo 80715" transform="translate(73.641 75.232)" opacity="0.1">
              <g id="Grupo_80714" data-name="Grupo 80714">
                <g id="Grupo_80713" data-name="Grupo 80713" clip-path="url(#clip-path-18)">
                  <path id="Trazado_115250" data-name="Trazado 115250" d="M172.19,175.317c1.906,1.868,5.091,2.106,6.181,2.039a6.8,6.8,0,0,1-6.76-.962Z" transform="translate(-171.61 -175.317)"/>
                </g>
              </g>
            </g>
            <path id="Trazado_115251" data-name="Trazado 115251" d="M244.451,6.429a12.863,12.863,0,0,1,3.66,8.741l-.054,1.476a12.895,12.895,0,0,1-25.7-.3l-.018-1.477a12.9,12.9,0,0,1,22.117-8.437" transform="translate(-126.926 -1.453)" fill="#fff"/>
            <path id="Trazado_115252" data-name="Trazado 115252" d="M223.944,4a14,14,0,0,0,17.8,21.485l3.96,1.8a.814.814,0,0,0,1.084-1.062l-1.716-4A14,14,0,0,0,223.944,4m19.018.964a12.863,12.863,0,0,1,3.675,8.735l-.051,1.476a12.894,12.894,0,0,1-25.7-.258l-.021-1.477a12.9,12.9,0,0,1,22.1-8.476" transform="translate(-125.451 0)" fill="#8c6df2"/>
            <path id="Trazado_115253" data-name="Trazado 115253" d="M239.418,31.247a1.962,1.962,0,0,1-1.432-.621l-4.446-4.747A1.962,1.962,0,1,1,236.4,23.2l2.888,3.083,6.832-8.653a1.961,1.961,0,1,1,3.079,2.431L240.957,30.5a1.957,1.957,0,0,1-1.456.744l-.083,0" transform="translate(-133.021 -9.637)" fill="#fdb74d"/>
            <path id="Trazado_115254" data-name="Trazado 115254" d="M281.5,453.7l-1.921-1.013,1.937-.488Z" transform="translate(-159.605 -258.15)" fill="#1a2e35"/>
            <path id="Trazado_115255" data-name="Trazado 115255" d="M238.523,451.7s23.264-9.835,23.509-8.269a2.314,2.314,0,0,1-.036.937c.021-.027.045-.054.064-.082l-.5,2.9a6.819,6.819,0,0,1-3.618,1.414c0-.14.011-1.007.015-1.5a11.659,11.659,0,0,0-2.056,1.029c-1.5.943-2.492,2.633-4.109,4.586-1.178,1.422-3.228,2.047-6.25,2.4-3.252.379-6.09-.322-6.872-1.218a2.323,2.323,0,0,1-.146-2.189" transform="translate(-136.048 -253.052)" fill="#fdb74d"/>
            <path id="Trazado_115256" data-name="Trazado 115256" d="M239.452,424.84c.227-.227,1.071-1.114,2.207-2.076a43.293,43.293,0,0,1,3.392-2.757,12.825,12.825,0,0,0,1.683-1.325c.412-.423.809-.861,1.178-1.322a25.187,25.187,0,0,0,2.9-4.662,11.7,11.7,0,0,0,.98-5.732c-.154-4.892-.5-6.665-.438-9.841l10.925,1.792c-.366,1.752-.812,5.67-1.032,7.666-.335,3.036-.787,3.314.313,6.379a8.927,8.927,0,0,1,.839,2.733,4.325,4.325,0,0,1-2.6,3.6c-1.143.6-2.446.838-3.557,1.482a11.366,11.366,0,0,0-2.937,2.753,11.263,11.263,0,0,1-2.555,2.807,10.056,10.056,0,0,1-3.78,1.2,20.066,20.066,0,0,1-5.038.124c-2.382-.25-4.137-1.17-2.482-2.824" transform="translate(-136.328 -226.712)" fill="#c76668"/>
            <path id="Trazado_115257" data-name="Trazado 115257" d="M248.178,440.5a4.309,4.309,0,0,0-3.558-.42c-1.731,1.306-3.166,2.469-4.179,3.282-1.229.987-2.306,1.888-2.293,3.054.021,1.83,7.068,2.566,11.06.935a4.923,4.923,0,0,0,2.853-2.381s-.515-2.574-3.883-4.47m13.593-6.218c-.572-1.192-.786-1.8-.786-1.8a7.27,7.27,0,0,0-2.862,7.6,5.244,5.244,0,0,0,3.521-2.273,3.318,3.318,0,0,0,.127-3.524" transform="translate(-135.955 -246.896)" fill="#fedc72"/>
            <path id="Trazado_115258" data-name="Trazado 115258" d="M337.392,443.934c-.641,1.052.24,4.99.118,7.8-.111,2.553-.6,6.538.058,9.52.671,3.056,3.245,6.272,6.731,3.441,2.16-1.755,3.02-3.853,3.282-7.53.182-2.555-.87-6.076-1.774-9.2-1.056-3.648-1.463-5.6-1.463-5.6Z" transform="translate(-192.476 -252.538)" fill="#fdb74d"/>
            <path id="Trazado_115259" data-name="Trazado 115259" d="M340.274,402c.307,5.95-.346,10.136-.35,13.948a26.791,26.791,0,0,0,.591,5.143c.523,2.427,1.4,5.8,1.775,7.374.519,2.2.91,3.582.172,6.06a2.913,2.913,0,0,1-.244.56c-1.044,2.046-3.732,3.609-4.6,3.371A1.491,1.491,0,0,1,336.1,439a2.043,2.043,0,0,1-.288-.067,2.193,2.193,0,0,1-.29-.114,2.957,2.957,0,0,1-1.456-1.858,5.324,5.324,0,0,1-.144-.537,19.016,19.016,0,0,1-.172-6.246c.055-1.385-.042-3.146-.185-5.378a101.791,101.791,0,0,0-1.548-12.584c-.6-2.335-1.344-5.263-2.13-8.385Z" transform="translate(-188.327 -229.494)" fill="#c76668"/>
            <path id="Trazado_115260" data-name="Trazado 115260" d="M347.738,469.6c-2.14-.92-8.321-.993-9.278,2.024,0,2.832,0,4.752,1.814,7.2,2.407,3.252,5.476-.248,6.644-2.464a11.374,11.374,0,0,0,.82-6.76" transform="translate(-193.221 -267.764)" fill="#fedc72"/>
            <path id="Trazado_115261" data-name="Trazado 115261" d="M291.642,206.527c3.061,5.368,7.184,12.828,7.448,24.915.351,16.109.568,27.649.663,29.591s1.38,5.49,2.533,15.041-.4,27.783-.4,27.783-1.092,2.158-4.746,2.547c-3.37.359-4.934-1.235-4.934-1.235s-5.066-25.587-6.442-31.329S279.745,243,279.745,243l-2.086,18.721a47.989,47.989,0,0,1,.229,13.67c-.889,8.407-3.719,24.616-3.719,24.616s-1.544,1.6-5.123,1.419a7.283,7.283,0,0,1-4.908-1.995s-2.806-32.074-2.964-41.584.487-36.565,3.245-50.694Z" transform="translate(-149.087 -117.903)" fill="#8c6df2"/>
            <path id="Trazado_115262" data-name="Trazado 115262" d="M271.142,248.188c1.135,3.869,5.773,6.154,8.076,6.666l2.41,12.691L281.4,285.5l2.086-18.721-2.242-13.541s-7.157-.9-10.1-5.053m23.33,45.886c-.932-4.925-2.116-16.126-2.775-21.109-.642-4.986-1.28-9.978-1.988-14.963.318,5.025.694,10.044,1.2,15.053s1.643,16.237,2.562,21.2c.981,4.955,1.97,9.869,3.02,14.793s2.134,9.832,3.3,14.732q-1.165-7.459-2.523-14.887c-.89-4.949-1.843-9.907-2.8-14.826M269.2,271.134,269.8,258c-.6,4.345-1.056,8.711-1.389,13.085s-.757,12.057-.7,16.491c.222,4.41.63,8.76,1.062,13.128s.941,8.718,1.529,13.064q-.293-6.573-.741-13.13l-.441-6.556c-.146-2.181-.316-4.374-.4-6.539s.156-7.667.219-9.85.167-4.373.251-6.561" transform="translate(-152.83 -141.686)" fill="#5038a1"/>
            <path id="Trazado_115263" data-name="Trazado 115263" d="M195.778,218.7a31.761,31.761,0,0,0-3.4-.889c-.872-.193-1.4.139-3.531,1.235-2.221,1.139-2.624,1.68-2.837,2.342a1.448,1.448,0,0,0,.527,1.616,1.27,1.27,0,0,0,.289,2.158,1.15,1.15,0,0,0,.4,1.876,1.562,1.562,0,0,0,1.055,2.178,23.032,23.032,0,0,0,3.392.555Z" transform="translate(-106.148 -124.318)" fill="#b0494c"/>
            <path id="Trazado_115264" data-name="Trazado 115264" d="M197.327,216.282l-19.343-174.1,1.484-.165,19.344,174.107c.044.587-1.433.724-1.485.155" transform="translate(-101.608 -23.988)" fill="#375a64"/>
            <path id="Trazado_115265" data-name="Trazado 115265" d="M181.813,45.36c6.853,1.633,11.645,5.456,15.676,15.091,2.861,6.84,8.3,14.633,13.213,14.734l-2.755,22.728a17.92,17.92,0,0,1-11.738-5.619c-5.558-5.656-6.287-15.481-10.945-15.875L183.047,56.47Z" transform="translate(-103.794 -25.895)" fill="#fedc72"/>
            <path id="Trazado_115266" data-name="Trazado 115266" d="M215.7,108.033c-.1-.17-.151-.36-.246-.532a4.892,4.892,0,0,0-.288-.406c-.185-.264-.379-.523-.566-.786q-.521-.729-1-1.486a28.481,28.481,0,0,1-1.74-3.163,33.481,33.481,0,0,1-2.419-7.452,27.792,27.792,0,0,1-.53-4.328c0-.068-.087-.086-.09-.008a25.847,25.847,0,0,0,.872,7.707,28.361,28.361,0,0,0,3.033,7.056q.541.9,1.153,1.758.3.421.626.825c.128.159.261.324.4.471.181.188.414.318.608.493a.119.119,0,0,0,.186-.149" transform="translate(-119.204 -51.278)" fill="#fdb74d"/>
            <path id="Trazado_115267" data-name="Trazado 115267" d="M191.558,78.9c-1.868-5.252-4.346-7.062-5.8-13.189s-3.94-20.348-3.94-20.348l1.235,11.11,2.216,19.949c4.658.393,5.387,10.219,10.945,15.875a17.921,17.921,0,0,0,11.739,5.619c-2.2-.419-5.028-.835-9.705-5.3-3.362-3.21-4.817-8.462-6.684-13.715" transform="translate(-103.794 -25.895)" fill="#fdb74d"/>
            <path id="Trazado_115268" data-name="Trazado 115268" d="M198.419,236.24c.418.023.977-.637,1.383-1.07s.921-.953.894-1.337c-.038-.539-.794-.569-.794-.569a2.655,2.655,0,0,0,.384-.319c.489-.447-.353-1.1-1.127-.841,0,0,.333-.183.348-.4a.986.986,0,0,0-1.03-.987c.552-.251.388-1.024.036-1.625a3.571,3.571,0,0,0-.412,0,13.556,13.556,0,0,0,.318,7.146" transform="translate(-112.894 -130.782)" fill="#b0494c"/>
            <g id="Grupo_80718" data-name="Grupo 80718" transform="translate(81.078 102.482)" opacity="0.3">
              <g id="Grupo_80717" data-name="Grupo 80717">
                <g id="Grupo_80716" data-name="Grupo 80716" clip-path="url(#clip-path-19)">
                  <path id="Trazado_115269" data-name="Trazado 115269" d="M188.941,239.063a11.065,11.065,0,0,0,1.513.481,15.072,15.072,0,0,0,1.544.343,2.312,2.312,0,0,0,1.475-.314c.476-.223.941-.48,1.4-.752a8.728,8.728,0,0,1-1.333.885,2.388,2.388,0,0,1-1.571.372,11.97,11.97,0,0,1-1.556-.392,7.015,7.015,0,0,1-1.471-.624" transform="translate(-188.941 -238.821)"/>
                </g>
              </g>
            </g>
            <g id="Grupo_80721" data-name="Grupo 80721" transform="translate(80.674 100.849)" opacity="0.3">
              <g id="Grupo_80720" data-name="Grupo 80720">
                <g id="Grupo_80719" data-name="Grupo 80719" clip-path="url(#clip-path-20)">
                  <path id="Trazado_115270" data-name="Trazado 115270" d="M193.589,235.488a11.711,11.711,0,0,1-1.358.552,1.946,1.946,0,0,1-.75.109,6.365,6.365,0,0,1-.724-.17,28.449,28.449,0,0,1-2.76-.964c.95.224,1.878.518,2.813.778a6.516,6.516,0,0,0,.691.181,2.169,2.169,0,0,0,.69-.077c.466-.115.928-.277,1.4-.409" transform="translate(-187.998 -235.015)"/>
                </g>
              </g>
            </g>
            <g id="Grupo_80724" data-name="Grupo 80724" transform="translate(80.385 98.691)" opacity="0.3">
              <g id="Grupo_80723" data-name="Grupo 80723">
                <g id="Grupo_80722" data-name="Grupo 80722" clip-path="url(#clip-path-21)">
                  <path id="Trazado_115271" data-name="Trazado 115271" d="M192.524,231.229a2.825,2.825,0,0,1-1.358.254,8.833,8.833,0,0,1-1.322-.41c-.852-.333-1.7-.674-2.519-1.089.878.266,1.729.6,2.587.908a11.35,11.35,0,0,0,1.28.445,3.446,3.446,0,0,0,1.332-.109" transform="translate(-187.325 -229.985)"/>
                </g>
              </g>
            </g>
            <path id="Trazado_115272" data-name="Trazado 115272" d="M179.12,40.156a1.645,1.645,0,1,1-1.474-1.8,1.645,1.645,0,0,1,1.474,1.8" transform="translate(-100.383 -21.893)" fill="#2b454e"/>
            <path id="Trazado_115273" data-name="Trazado 115273" d="M210.958,220.256s-5.578,2.079-9.143,3.449c-2.726,1.044-2.771,1.441-3.69,2.345-1.014,1.009-3.947,1.15-3.947,1.15V227.2l-.156-1.371a1.307,1.307,0,0,0,.407-.8.636.636,0,0,0-.552-.537l-.025-.206c.046-.035.106-.085.171-.146.3-.281.1-.627-.276-.8l-.131-1.155a8.425,8.425,0,0,1-1.125-1.346v-.01a3.063,3.063,0,0,1-.241-.548,3.317,3.317,0,0,0-.342,0,3.968,3.968,0,0,0-1.893.537,2.941,2.941,0,0,1-2.43,1.808c-.984-.03-.974-.487-.467-1.481a15.078,15.078,0,0,1,1.461-2.711,9.834,9.834,0,0,1,2.947-1.577c.542-.216,1.019-.4,1.305-.507a1.405,1.405,0,0,1,.136-.045,5.813,5.813,0,0,1,3.078.025,5.256,5.256,0,0,0,2.922-.171c.8-.216,5.056-2.505,5.056-2.505Z" transform="translate(-106.629 -121.971)" fill="#c76668"/>
            <path id="Trazado_115274" data-name="Trazado 115274" d="M206.855,235.2a7.13,7.13,0,0,1-3.635-.163.726.726,0,0,0-.378-.346l-.131-1.154a5.043,5.043,0,0,0,4.144,1.663" transform="translate(-115.724 -133.321)" fill="#b0494c"/>
            <path id="Trazado_115275" data-name="Trazado 115275" d="M221.01,215.011l-2.267,1.09a5.547,5.547,0,0,1,2.682,3.533,14.676,14.676,0,0,1,.262,4.339l2.638-.916a11.805,11.805,0,0,0-.523-4.4,8.644,8.644,0,0,0-2.791-3.641" transform="translate(-124.876 -122.746)" fill="#fdb74d"/>
            <path id="Trazado_115276" data-name="Trazado 115276" d="M245.3,143.214c-5.078.772-6.463,4.166-9.608,13.376-2.659,7.788-3.927,11.335-3.927,11.335l-9.784,6.408s4.022.984,3.424,8.046c0,0,5.317-1.854,11.518-4.044,3.419-1.208,3.4-2.892,4.928-6.439,1.746-4.058,3.988-11.692,3.988-11.692Z" transform="translate(-126.723 -81.758)" fill="#fedc72"/>
            <path id="Trazado_115277" data-name="Trazado 115277" d="M294.58,171.008c.947-1.613-2.629-6.59-2.187-11.17.281-2.911,2.5-8.986,2.5-8.986a25.361,25.361,0,0,1-5.083-18.929l-6.968,1.474-10.687,2.115-4.192,1.149a32.842,32.842,0,0,0-6.187,6.174c-3.055,4.315-3.043,9.874.078,13.424.033.689.416,10.236.072,14.1-.1,1.076-.754,2.437-.081,3.823,3.006,4.931,22.551,7.577,32.733-3.173" transform="translate(-148.145 -75.312)" fill="#fafafa"/>
            <path id="Trazado_115278" data-name="Trazado 115278" d="M272.021,66.837a8.311,8.311,0,0,0,1.942-.125,3.806,3.806,0,0,0,2.4-1.619,4.589,4.589,0,0,1,6.523-.179c.624.545,1.287,1.287,2.082,1.133.442-.085.962-.481,1.752-.714a3.185,3.185,0,0,1,3.318,1.18,4.891,4.891,0,0,1,.356,2.167,1.938,1.938,0,0,0,1.1,1.706,1.157,1.157,0,0,0,1.534-.944,1.79,1.79,0,0,1,.3,2.507,3.271,3.271,0,0,1-2.43,1.122c1.685-.022,3.457,1.571,2.961,3.423-.227.815-.9,1.477-.933,2.326-.038,1.055.873,2,1.032,3.036a3.622,3.622,0,0,1-.463,2.537,3.917,3.917,0,0,1-1.3,1.025,3.6,3.6,0,0,0-.918.591,2.714,2.714,0,0,0-.475.76,7.278,7.278,0,0,1-1.552,2.514,5.488,5.488,0,0,1-3.665.99,9.533,9.533,0,0,0-3.828.427,9.718,9.718,0,0,0-1.544.942c-1.574,1.069-3.522,1.962-5.332,1.375-.829-.269-1.535-.826-2.334-1.178a5.087,5.087,0,0,0-2.081-.424c-.757.006-1.449.291-2.2.316a3.01,3.01,0,0,1-2.417-1.185,3.794,3.794,0,0,1-.729-2.631,2.76,2.76,0,0,0-1.233,2.574,3.782,3.782,0,0,1-.848-4.413c.352-.7.918-1.265,1.268-1.962.643-1.283-.123-2.634-.708-3.784-.685-1.347-1.156-3.051-.312-4.3.8-1.184,2.5-1.522,3.233-2.749A7.19,7.19,0,0,0,267.1,70.6a4.3,4.3,0,0,1,2.558-3.52,6.817,6.817,0,0,1,2.366-.24" transform="translate(-149.959 -36.332)" fill="#12263f"/>
            <path id="Trazado_115279" data-name="Trazado 115279" d="M278.637,98.145a2.747,2.747,0,0,1-2.826-.634,3.98,3.98,0,0,1-1.387-4.691,2.366,2.366,0,0,1,2.773-1.4c1.308.169,1.578.778,2.1,1.506.538.747,2.234.434,1.452-2.67,2.016-1.3.2-4.338,1.169-5.963a4.86,4.86,0,0,1,5.634-1.937,3.941,3.941,0,0,1,4.047-.808c1.55.581,2.729,2.08,3.988,7.611,1.283,5.638.7,9.917-.458,11.3a5.46,5.46,0,0,1-4.045,1.832l.173,3.526s-2.012,5.185-8.884,5.531c-4.773.24-1.867-4.736-1.867-4.736l-.864-9.472s.069.649-1.007,1" transform="translate(-156.496 -46.414)" fill="#c76668"/>
            <path id="Trazado_115280" data-name="Trazado 115280" d="M300.5,124.015c-2.906.279-8.263.62-9.88-4.662a6.071,6.071,0,0,0,4.85,5.686,19.882,19.882,0,0,0,5.091.21Z" transform="translate(-165.911 -68.136)" fill="#b0494c"/>
            <path id="Trazado_115281" data-name="Trazado 115281" d="M271.6,140.283l-5.439,1.257c-3.763,3.345-7.7,8.529-7.637,12.751a11.8,11.8,0,0,0,2.37,6.94s.74,8.535.123,13.123-2.494,16.614-2.494,16.614a32.568,32.568,0,0,0,6.147,1.873c.565-5.869,1.412-27.3.865-32.385s-1.283-13.125,6.066-20.173" transform="translate(-147.586 -80.085)" fill="#d268cc"/>
            <path id="Trazado_115282" data-name="Trazado 115282" d="M271.6,140.283l-5.439,1.257c-3.763,3.345-7.7,8.529-7.637,12.751a11.8,11.8,0,0,0,2.37,6.94s.74,8.535.123,13.123-2.494,16.614-2.494,16.614a32.568,32.568,0,0,0,6.147,1.873c.565-5.869,1.412-27.3.865-32.385s-1.283-13.125,6.066-20.173" transform="translate(-147.586 -80.085)" fill="#fedc72"/>
            <path id="Trazado_115283" data-name="Trazado 115283" d="M268.885,163.6c-.438-1.326-.908-2.642-1.383-3.954s-.935-2.629-1.376-3.947a16.02,16.02,0,0,1-.542-1.99,2.166,2.166,0,0,1,.668-1.735,18.7,18.7,0,0,1,3-2.838l.1-.079-.033-.124a6.7,6.7,0,0,1-.167-2.211,5.754,5.754,0,0,1,.6-2.141,6.654,6.654,0,0,1,1.438-1.728,10.628,10.628,0,0,1,1.874-1.309,9.488,9.488,0,0,0-1.97,1.193,6.224,6.224,0,0,0-1.565,1.719,6.041,6.041,0,0,0-.715,2.231,6.592,6.592,0,0,0,.142,2.352l.067-.2a18.1,18.1,0,0,0-3.1,2.882,4.79,4.79,0,0,0-.584.922,1.523,1.523,0,0,0-.1.268.944.944,0,0,0-.066.288,1.881,1.881,0,0,0,.025.578,16.391,16.391,0,0,0,.58,2.04c.448,1.329.981,2.621,1.5,3.918s1.071,2.579,1.607,3.868" transform="translate(-151.375 -80.804)" fill="#fdb74d"/>
            <path id="Trazado_115284" data-name="Trazado 115284" d="M304.849,131.548a39.075,39.075,0,0,0-3.47,7.884c-1.9,5.489-3.752,10.489-3.32,15.4s1.7,32.343,1.7,32.343,8.778.03,14.954-2.581l-.883-8.278,2.41,7.56s4.011-1.689,5.058-2.8c-2.233-11.157-6-16.7-6.486-20.457-.334-2.583,1.992-7.747,3.413-14.106,1.171-5.24-6.166-17.185-6.166-17.185-1.156,1.014-3.4,1.786-7.206,2.217" transform="translate(-170.12 -73.833)" fill="#d268cc"/>
            <path id="Trazado_115285" data-name="Trazado 115285" d="M304.849,131.548a39.075,39.075,0,0,0-3.47,7.884c-1.9,5.489-3.752,10.489-3.32,15.4s1.7,32.343,1.7,32.343,8.778.03,14.954-2.581l-.883-8.278,2.41,7.56s4.011-1.689,5.058-2.8c-2.233-11.157-6-16.7-6.486-20.457-.334-2.583,1.992-7.747,3.413-14.106,1.171-5.24-6.166-17.185-6.166-17.185-1.156,1.014-3.4,1.786-7.206,2.217" transform="translate(-170.12 -73.833)" fill="#fedc72"/>
            <path id="Trazado_115286" data-name="Trazado 115286" d="M300.58,160.671a11.33,11.33,0,0,1,1.665-3.549c.706-1.108,1.493-2.164,2.3-3.2.4-.524.808-1.039,1.22-1.554l.621-.774c.1-.136.206-.254.312-.407a.674.674,0,0,0,.079-.122,1.663,1.663,0,0,0,.069-.193,1.378,1.378,0,0,0,.01-.334,5.969,5.969,0,0,0-.843-1.9c-.36-.569-.741-1.113-1.149-1.647l-.007.329,1.85-2.2.92-1.1.228-.278.114-.139a1,1,0,0,0,.154-.22,1.053,1.053,0,0,0,.017-.453c-.018-.128-.042-.251-.069-.373a22.222,22.222,0,0,0-.911-2.76c-.355-.9-.718-1.789-1.118-2.664.3.914.614,1.824.9,2.742a28.087,28.087,0,0,1,.759,2.759,1.8,1.8,0,0,1,.039.6c.03-.052-.022.029-.063.067l-.121.135-.242.269-.956,1.087-1.9,2.188-.136.156.129.173c.385.521.756,1.066,1.093,1.619a5.839,5.839,0,0,1,.79,1.683,1.193,1.193,0,0,1,0,.158.081.081,0,0,0-.01.042c0,.017-.037.057-.054.085-.08.12-.19.255-.285.383l-.607.781c-.406.523-.811,1.047-1.2,1.581a39.639,39.639,0,0,0-2.182,3.33,15.6,15.6,0,0,0-.883,1.788,6.948,6.948,0,0,0-.526,1.916" transform="translate(-171.596 -78.283)" fill="#fdb74d"/>
            <path id="Trazado_115287" data-name="Trazado 115287" d="M369.014,35.279A27.351,27.351,0,0,0,368.149,28c-.036-1.064-.481-1.356-.481-1.356a1.1,1.1,0,0,0-.78-1.094c-.134-.9-.667-.885-2.386-1.364s-3.71-1.11-4.34-.824-.93.934-.947,2.107a1.845,1.845,0,0,0-1.707.285c-.685.424-.984.8-.574,2.011s1.243,2,1.329,3.06a4.813,4.813,0,0,0,1.644,3.2,3.508,3.508,0,0,1,1.344,1.259c.256.539.231,1.045.058,2.511C361.164,39.012,358.827,51,358.827,51l9.244,2.283s.51-9.8.755-14.893c.059-1.223.16-2.583.189-3.109" transform="translate(-203.66 -13.294)" fill="#c76668"/>
            <path id="Trazado_115288" data-name="Trazado 115288" d="M368.665,25.776c-.716-.184-1.447-.313-2.17-.465-.381-.08-.762-.162-1.144-.239a2.23,2.23,0,0,0-1.044-.026,1.724,1.724,0,0,0-1.024,1.171,10.522,10.522,0,0,0-.493,1.991,1.455,1.455,0,0,0,.084,1,.691.691,0,0,0,.694.349c.14-.023.011-.227-.1-.209-.391.063-.506-.4-.492-.694a5.812,5.812,0,0,1,.149-.932,7.378,7.378,0,0,1,.475-1.566,1.481,1.481,0,0,1,1.031-.948,2.932,2.932,0,0,1,.986.087l.938.174c.7.13,1.4.284,2.11.38.037.005.035-.068,0-.076" transform="translate(-207.083 -14.269)" fill="#b0494c"/>
            <path id="Trazado_115289" data-name="Trazado 115289" d="M369.476,27.427a21.732,21.732,0,0,0-2.128-.481,9.923,9.923,0,0,0-1.059-.151,1.078,1.078,0,0,0-.761.212,2.7,2.7,0,0,0-.774,1.559c-.082.349-.146.7-.2,1.057a4.832,4.832,0,0,0-.12,1.056c.05.7.811,1.006,1.423.985.163-.006.062-.227-.067-.224a1.389,1.389,0,0,1-.91-.269.871.871,0,0,1-.2-.869,13.334,13.334,0,0,1,.34-1.832,2.318,2.318,0,0,1,.731-1.319,1.107,1.107,0,0,1,.8-.149c.3.029.594.067.89.107a19.591,19.591,0,0,1,2.037.406c.042.01.037-.078,0-.088" transform="translate(-208.045 -15.295)" fill="#b0494c"/>
            <path id="Trazado_115290" data-name="Trazado 115290" d="M369.466,30.1a2.085,2.085,0,0,0-.854.083,1.071,1.071,0,0,0-.519.5,4.77,4.77,0,0,0-.451,1.871,7.939,7.939,0,0,0-.058,1,.822.822,0,0,0,.343.668,3.813,3.813,0,0,0,2,.642c.148.008.075-.2-.04-.206a3.986,3.986,0,0,1-1.117-.221c-.285-.1-.769-.259-.914-.552a1.182,1.182,0,0,1-.049-.59c.011-.187.023-.375.038-.562a8,8,0,0,1,.15-1.077,2.835,2.835,0,0,1,.359-.976,1.029,1.029,0,0,1,.916-.4c.794-.014,1.575.1,2.365.143.005,0,.007-.011,0-.012a8.052,8.052,0,0,0-2.168-.305" transform="translate(-209.846 -17.179)" fill="#b0494c"/>
            <path id="Trazado_115291" data-name="Trazado 115291" d="M373.2,36.305a1.7,1.7,0,0,0-.222-.265.426.426,0,0,0,.01-.121c0-.045,0-.089-.006-.133a1.261,1.261,0,0,0-.049-.245,1.97,1.97,0,0,0-.188-.464c-.019-.032-.039.021-.03.042a1.273,1.273,0,0,1,.126.438c.005.072.006.143.006.215,0,.036,0,.072,0,.108,0,.011,0,.021,0,.031l-.017-.016a1.293,1.293,0,0,0-.472-.27c-.046-.012-.032.077-.006.092a2.641,2.641,0,0,1,.365.236,1.549,1.549,0,0,1,.313.373,1.494,1.494,0,0,1,.177.4.826.826,0,0,1,.027.5c-.043.115.177.238.223.11a.889.889,0,0,0-.021-.539,1.838,1.838,0,0,0-.227-.489" transform="translate(-212.55 -20.018)" fill="#b0494c"/>
            <path id="Trazado_115292" data-name="Trazado 115292" d="M372.572,39.932a1.855,1.855,0,0,0-.347-.041,2.317,2.317,0,0,0-.354.02,2.78,2.78,0,0,0-.741.191,3.083,3.083,0,0,0-1.151.819,2.829,2.829,0,0,0-.593,2.747c.012.042.053.022.048-.016a3.42,3.42,0,0,1,.727-2.537,3.04,3.04,0,0,1,1.053-.8,4.127,4.127,0,0,1,.658-.234,2.666,2.666,0,0,1,.29-.056c.129-.02.242-.031.407-.054.015,0,.018-.033,0-.036" transform="translate(-210.802 -22.772)" fill="#b0494c"/>
            <path id="Trazado_115293" data-name="Trazado 115293" d="M360.677,33.654a1.3,1.3,0,0,1-.9-.074c-.294-.122-.551-.318-.832-.466-.014-.007-.017.023-.01.03a1.9,1.9,0,0,0,1.84.717c.135-.042.012-.241-.1-.206" transform="translate(-204.908 -18.903)" fill="#b0494c"/>
            <path id="Trazado_115294" data-name="Trazado 115294" d="M363.208,29.425a1.108,1.108,0,0,0-.231-.489c-.043-.049-.076-.045-.053.022a1.482,1.482,0,0,1,.055.239,5.938,5.938,0,0,1,.081.681.037.037,0,0,0,.045,0c.024-.014.027-.036.058-.039s.052-.073.06-.1a.422.422,0,0,0,.012-.114,1.407,1.407,0,0,0-.027-.2" transform="translate(-207.183 -16.5)" fill="#b0494c"/>
            <path id="Trazado_115295" data-name="Trazado 115295" d="M362.659,35.187a.132.132,0,0,0-.155-.049,1.776,1.776,0,0,0-.719.534,1.673,1.673,0,0,0-.224.368,1.533,1.533,0,0,0-.078.2,2.3,2.3,0,0,0-.033.293c0,.027.03.063.042.023a1.24,1.24,0,0,1,.109-.212c.032-.064.061-.129.1-.191a2.172,2.172,0,0,1,.257-.348,1.856,1.856,0,0,1,.693-.483c.057-.023.037-.1.009-.141" transform="translate(-206.345 -20.055)" fill="#b0494c"/>
            <path id="Trazado_115296" data-name="Trazado 115296" d="M365.6,60.841l.434-2.767a7.557,7.557,0,0,0,3.608,2.387,6.422,6.422,0,0,0,4.274-.027l-.179,2.848a10.876,10.876,0,0,1-5.072-.407,6.021,6.021,0,0,1-3.065-2.034" transform="translate(-208.714 -33.153)" fill="#fdb74d"/>
            <path id="Trazado_115297" data-name="Trazado 115297" d="M330.174,90.1c2.485-3.077,4.556-4.087,5.815-5.651,2.051-2.549,6.268-9.429,6.268-9.429L345.151,60.7c.743,2.6,6.6,4.248,8.216,2.932,0,0-.214,5.031-.542,14.037-.113,3.1-.455,3.658-4.464,9.567-1.893,2.791-3.792,5.8-6.826,10.463-2.191,3.369-4.219,6.506-5.313,9.841-.294,1.417-3.217,1.387-5.216-3.164-2.205-5.021-1.249-12.532-.833-14.278" transform="translate(-188.166 -34.653)" fill="#fedc72"/>
          </g>
        </g>
      </g>
    </g>
  </g>
</svg>
