<svg xmlns="http://www.w3.org/2000/svg" xmlns:xlink="http://www.w3.org/1999/xlink" width="261.49" height="246.912" viewBox="0 0 261.49 246.912">
  <defs>
    <clipPath id="clip-path">
      <rect id="Rectángulo_34816" data-name="Rectángulo 34816" width="81.539" height="81.161" fill="none"/>
    </clipPath>
    <clipPath id="clip-path-2">
      <rect id="Rectángulo_34815" data-name="Rectángulo 34815" width="81.539" height="81.162" fill="none"/>
    </clipPath>
    <clipPath id="clip-path-4">
      <rect id="Rectángulo_34813" data-name="Rectángulo 34813" width="50.091" height="49.86" fill="none"/>
    </clipPath>
    <clipPath id="clip-path-5">
      <rect id="Rectángulo_34814" data-name="Rectángulo 34814" width="23.113" height="23.006" fill="none"/>
    </clipPath>
    <clipPath id="clip-path-6">
      <rect id="Rectángulo_34728" data-name="Rectángulo 34728" width="182.125" height="217.592" fill="none"/>
    </clipPath>
  </defs>
  <g id="Grupo_81220" data-name="Grupo 81220" transform="translate(-1053.51 -2172.51)">
    <g id="Grupo_80858" data-name="Grupo 80858" transform="translate(1053.51 2172.51)">
      <g id="Grupo_80857" data-name="Grupo 80857" clip-path="url(#clip-path)">
        <g id="Grupo_80856" data-name="Grupo 80856" transform="translate(0 0)">
          <g id="Grupo_80855" data-name="Grupo 80855" clip-path="url(#clip-path-2)">
            <g id="Grupo_80848" data-name="Grupo 80848" transform="translate(0 0)" opacity="0.17" style="isolation: isolate">
              <g id="Grupo_80847" data-name="Grupo 80847" transform="translate(0 0)">
                <g id="Grupo_80846" data-name="Grupo 80846" clip-path="url(#clip-path)">
                  <path id="Trazado_115734" data-name="Trazado 115734" d="M66.5,72.148a108.866,108.866,0,0,0,6.75-10.186c2.361-4.028,4.706-8.2,5.665-12.813.905-4.362,1.188-10.109-1.474-13.937C74.584,31.047,64.575,23.13,61.831,19.606c-2.227-2.859-6.495-9.85-7.791-14.761A4.913,4.913,0,0,0,49.9,1.25l-.094-.012a4.925,4.925,0,0,0-4.544,1.881c-1.421,1.866-4.269,4.353-9.68,5.291-5.42,1.01-12.8,1.663-14.315,2.065s-2.685,1.757-3.489,3.93-3.822,10.47-7.721,14.824A17.453,17.453,0,0,1,4.2,33.553,5,5,0,0,0,1.4,37l-.084.385A4.948,4.948,0,0,0,3.39,42.549,43.347,43.347,0,0,1,10.9,48.568c2.292,2.754,5.778,5.34,12.718,21.394.035.082.072.166.111.246.864,1.716,5.838,16.808,40.567,3.6A4.962,4.962,0,0,0,66.5,72.148Z" transform="translate(0.392 0.392)" fill="none" stroke="#5038a1" stroke-miterlimit="10" stroke-width="2.396"/>
                </g>
              </g>
            </g>
            <g id="Grupo_80851" data-name="Grupo 80851" transform="translate(16.563 16.452)" opacity="0.17" style="isolation: isolate">
              <g id="Grupo_80850" data-name="Grupo 80850">
                <g id="Grupo_80849" data-name="Grupo 80849" clip-path="url(#clip-path-4)">
                  <path id="Trazado_115735" data-name="Trazado 115735" d="M53.335,56.719a67.2,67.2,0,0,0,4.147-6.257,26.592,26.592,0,0,0,3.48-7.872c.556-2.679.73-6.21-.906-8.561-1.756-2.559-7.9-7.423-9.591-9.587a32.142,32.142,0,0,1-4.786-9.068,3.02,3.02,0,0,0-2.543-2.208l-.057-.008a3.027,3.027,0,0,0-2.792,1.156,9.086,9.086,0,0,1-5.947,3.25c-3.33.62-7.863,1.022-8.793,1.269A3.465,3.465,0,0,0,23.4,21.246c-.494,1.334-2.349,6.432-4.743,9.107a10.721,10.721,0,0,1-3.6,2.657,3.074,3.074,0,0,0-1.724,2.117l-.052.236a3.04,3.04,0,0,0,1.277,3.174,26.692,26.692,0,0,1,4.616,3.7c1.408,1.693,3.55,3.281,7.813,13.144.021.05.044.1.069.151.53,1.054,3.586,10.326,24.92,2.214A3.046,3.046,0,0,0,53.335,56.719Z" transform="translate(-12.24 -12.156)" fill="none" stroke="#5038a1" stroke-miterlimit="10" stroke-width="1.472"/>
                </g>
              </g>
            </g>
            <g id="Grupo_80854" data-name="Grupo 80854" transform="translate(30.773 30.566)" opacity="0.17" style="isolation: isolate">
              <g id="Grupo_80853" data-name="Grupo 80853">
                <g id="Grupo_80852" data-name="Grupo 80852" clip-path="url(#clip-path-5)">
                  <path id="Trazado_115736" data-name="Trazado 115736" d="M42.039,43.483A30.989,30.989,0,0,0,43.952,40.6a12.284,12.284,0,0,0,1.606-3.631,5.347,5.347,0,0,0-.418-3.951c-.811-1.181-3.648-3.425-4.426-4.423a14.852,14.852,0,0,1-2.208-4.184,1.392,1.392,0,0,0-1.173-1.019l-.027,0a1.4,1.4,0,0,0-1.287.533,4.194,4.194,0,0,1-2.744,1.5c-1.537.287-3.628.471-4.058.585a1.6,1.6,0,0,0-.989,1.113,14.949,14.949,0,0,1-2.188,4.2,4.944,4.944,0,0,1-1.66,1.226,1.415,1.415,0,0,0-.795.975l-.024.109a1.4,1.4,0,0,0,.589,1.465A12.352,12.352,0,0,1,26.278,36.8c.65.782,1.639,1.514,3.606,6.065a.671.671,0,0,0,.032.07c.244.486,1.654,4.764,11.5,1.021A1.4,1.4,0,0,0,42.039,43.483Z" transform="translate(-23.077 -22.92)" fill="none" stroke="#5038a1" stroke-miterlimit="10" stroke-width="0.679"/>
                </g>
              </g>
            </g>
          </g>
        </g>
      </g>
    </g>
    <g id="Grupo_80654" data-name="Grupo 80654" transform="translate(1089 2182.512)">
      <g id="Grupo_80653" data-name="Grupo 80653" clip-path="url(#clip-path-6)">
        <path id="Trazado_115124" data-name="Trazado 115124" d="M182.1,151.712A27.679,27.679,0,0,1,181,158.351a45.786,45.786,0,0,1-6.01,12.359c-.257.391-.524.781-.79,1.162a82.6,82.6,0,0,1-10.921,12.667c-.878.845-1.778,1.672-2.688,2.481-.413.368-.832.735-1.254,1.1a53.092,53.092,0,0,1-5.532,4.149,83.89,83.89,0,0,1-8.321,4.742c-3.051,1.544-6.175,2.968-9.29,4.415A302.7,302.7,0,0,1,94.917,217.01a13.965,13.965,0,0,1-7.806.051C65.255,210.853,48.788,204,36.419,197.01c-2.789-1.576-5.366-3.156-7.756-4.742q-3.963-2.626-7.236-5.247a73.924,73.924,0,0,1-10.5-10.076c-.45-.533-.878-1.061-1.291-1.585q-.9-1.151-1.7-2.288a43.578,43.578,0,0,1-6.7-13.981,36.749,36.749,0,0,1-.106-18.346c.028-.133.051-.248.069-.354.046-.253.1-.5.161-.749.432-1.819.836-3.584,1.227-5.3.032-.142.064-.28.092-.423l0,0c1.466-6.506,2.637-12.29,3.565-17.45.6-3.313,1.1-6.363,1.507-9.189v-.009c.064-.432.124-.859.184-1.282.234-1.663.436-3.235.611-4.742v0A133.157,133.157,0,0,0,9.578,84.761v0c0-1.626-.051-3.106-.119-4.475-.175-3.483-.492-6.244-.7-8.785-.051-.629-.1-1.241-.129-1.852C8.315,65.1,6.734,58.839,4.91,52.866c-.561-1.842-1.144-3.657-1.723-5.385-.487-1.461-.974-2.867-1.433-4.172A14,14,0,0,1,5.765,28.078l.841-.731A13.752,13.752,0,0,1,11.1,24.757a14.321,14.321,0,0,1,7.581-.5c.037.009.074.014.11.023,8.316,1.737,16.876,1.167,20.583.078A83.438,83.438,0,0,0,58.152,17.5c1.824-.882,3.62-1.8,5.357-2.72C71.944,10.3,79.038,5.639,81.914,3.769,87.4.2,92.349-.9,96.465.75s21.957,12.626,35.957,19.485c13.352,6.759,23.735,6.23,30.181,4.539.243-.06.478-.129.708-.193a13.677,13.677,0,0,1,7.043-.133h0a14.108,14.108,0,0,1,6.432,3.542c.064.06.129.124.193.184A13.894,13.894,0,0,1,180.3,43.318c-5.353,13.329-7.475,36.393-7.255,46.634.133,6.226,2.467,17.85,4.742,29.745.519,2.743,1.043,5.5,1.53,8.215.386,2.136.749,4.245,1.084,6.29.2,1.264.4,2.5.574,3.712q.214,1.447.391,2.83a70.262,70.262,0,0,1,.74,10.967" transform="translate(0 0)" fill="#8c6df2"/>
        <path id="Trazado_115125" data-name="Trazado 115125" d="M65.044,310.192H51.8a18.655,18.655,0,0,0-18.655,18.655v17.041H83.7V328.847a18.655,18.655,0,0,0-18.655-18.655" transform="translate(-17.915 -167.674)" fill="#fedc72"/>
        <path id="Trazado_115126" data-name="Trazado 115126" d="M285.118,310.192H271.871a18.655,18.655,0,0,0-18.655,18.655v17.041h50.557V328.847a18.655,18.655,0,0,0-18.655-18.655" transform="translate(-136.875 -167.674)" fill="#fedc72"/>
        <path id="Trazado_115127" data-name="Trazado 115127" d="M175.081,310.192H161.834a18.655,18.655,0,0,0-18.655,18.655v17.041h50.557V328.847a18.655,18.655,0,0,0-18.655-18.655" transform="translate(-77.395 -167.674)" fill="#fedc72"/>
        <path id="Trazado_115128" data-name="Trazado 115128" d="M85.536,260.316a14.874,14.874,0,1,1-14.874-14.874,14.874,14.874,0,0,1,14.874,14.874" transform="translate(-30.156 -132.673)" fill="#5038a1"/>
        <path id="Trazado_115129" data-name="Trazado 115129" d="M195.573,260.316A14.874,14.874,0,1,1,180.7,245.442a14.874,14.874,0,0,1,14.874,14.874" transform="translate(-89.636 -132.673)" fill="#5038a1"/>
        <path id="Trazado_115130" data-name="Trazado 115130" d="M40.679,132.354a21.816,21.816,0,1,1,26.675,21.266L62.495,164.2l-4.859-10.577a21.819,21.819,0,0,1-16.957-21.266" transform="translate(-21.989 -59.751)" fill="#5038a1"/>
        <path id="Trazado_115131" data-name="Trazado 115131" d="M305.61,260.316a14.874,14.874,0,1,1-14.874-14.874,14.874,14.874,0,0,1,14.874,14.874" transform="translate(-149.116 -132.673)" fill="#5038a1"/>
        <path id="Trazado_115132" data-name="Trazado 115132" d="M150.716,132.354a21.816,21.816,0,1,1,26.675,21.266l-4.86,10.577-4.859-10.577a21.819,21.819,0,0,1-16.957-21.266" transform="translate(-81.469 -59.751)" fill="#fedc72"/>
        <path id="Trazado_115133" data-name="Trazado 115133" d="M260.753,132.354a21.816,21.816,0,1,1,26.675,21.266l-4.86,10.577-4.859-10.577a21.819,21.819,0,0,1-16.957-21.266" transform="translate(-140.95 -59.751)" fill="#5038a1"/>
        <path id="Trazado_115134" data-name="Trazado 115134" d="M83.059,173.369a1.6,1.6,0,0,1-1.6-1.6v-.945a1.6,1.6,0,1,1,3.2,0v.945a1.6,1.6,0,0,1-1.6,1.6" transform="translate(-44.033 -91.473)" fill="#fdb74d"/>
        <path id="Trazado_115135" data-name="Trazado 115135" d="M83.059,149.3a1.6,1.6,0,0,1-1.6-1.6v-8.6a1.6,1.6,0,0,1,3.2,0v8.6a1.6,1.6,0,0,1-1.6,1.6" transform="translate(-44.033 -74.322)" fill="#fdb74d"/>
        <path id="Trazado_115136" data-name="Trazado 115136" d="M196.316,173.369a1.6,1.6,0,0,1-1.6-1.6v-.945a1.6,1.6,0,1,1,3.2,0v.945a1.6,1.6,0,0,1-1.6,1.6" transform="translate(-105.253 -91.473)" fill="#5038a1"/>
        <path id="Trazado_115137" data-name="Trazado 115137" d="M196.316,149.3a1.6,1.6,0,0,1-1.6-1.6v-8.6a1.6,1.6,0,0,1,3.2,0v8.6a1.6,1.6,0,0,1-1.6,1.6" transform="translate(-105.253 -74.322)" fill="#5038a1"/>
        <path id="Trazado_115138" data-name="Trazado 115138" d="M309.572,173.369a1.6,1.6,0,0,1-1.6-1.6v-.945a1.6,1.6,0,1,1,3.2,0v.945a1.6,1.6,0,0,1-1.6,1.6" transform="translate(-166.474 -91.473)" fill="#fdb74d"/>
        <path id="Trazado_115139" data-name="Trazado 115139" d="M309.572,149.3a1.6,1.6,0,0,1-1.6-1.6v-8.6a1.6,1.6,0,0,1,3.2,0v8.6a1.6,1.6,0,0,1-1.6,1.6" transform="translate(-166.474 -74.322)" fill="#fdb74d"/>
      </g>
    </g>
    <path id="Trazado_117359" data-name="Trazado 117359" d="M200.314,22.6a134.22,134.22,0,0,1-12.1,11.324,98.814,98.814,0,0,1-13.659,9.442,71.767,71.767,0,0,1-15.529,6.669,50.552,50.552,0,0,1-8.566,1.7c-.739.064-1.477.146-2.226.169-.374.016-.747.039-1.123.048l-1.131,0c-.759.007-1.49-.025-2.24-.039-.741-.046-1.489-.076-2.229-.148A62.382,62.382,0,0,1,124.429,47.5c-5.385-2.092-10.421-4.616-15.265-7.033-2.421-1.214-4.8-2.394-7.149-3.491-1.174-.555-2.335-1.074-3.491-1.583-.576-.243-1.152-.5-1.725-.728l-1.773-.72c-4.937-2-9.763-3.858-14.514-5.342-2.374-.743-4.724-1.393-7.035-1.914-1.155-.261-2.3-.492-3.431-.685s-2.25-.338-3.349-.451a32.252,32.252,0,0,0-11.844.717,21.549,21.549,0,0,0-2.42.831c-.385.155-.758.328-1.125.5l-.541.273c-.162.093-.326.178-.485.275a16.929,16.929,0,0,0-3.508,2.725c-.259.266-.513.536-.754.818l-.937,1.053c-.324.363-.613.742-.922,1.105s-.569.751-.856,1.118a28.327,28.327,0,0,0-2.737,4.583,25.378,25.378,0,0,0-1.71,4.709,25.645,25.645,0,0,0-.767,4.886,36.749,36.749,0,0,0,.935,10.485,55.008,55.008,0,0,0,3.88,11.046,59.244,59.244,0,0,0,2.85,5.369c.516.863,1.049,1.706,1.584,2.5.267.393.539.774.8,1.119.129.171.258.338.374.473a2.288,2.288,0,0,0,.16.176c.02.016.049.049.057.045l.01,0s.012.012,0-.019l-.057-.128A23.068,23.068,0,0,1,8.723,103.279l-.181-.347-.116-.237-.185-.4-.316-.712c-.2-.458-.377-.89-.551-1.319-.345-.855-.66-1.683-.966-2.505-.6-1.641-1.15-3.259-1.655-4.882-1.009-3.242-1.85-6.5-2.561-9.814A96.087,96.087,0,0,1,0,62.507a72.726,72.726,0,0,1,3.22-21.556A63.523,63.523,0,0,1,7.528,30.556a59.074,59.074,0,0,1,6.094-9.372,60.932,60.932,0,0,1,7.469-7.873c.672-.573,1.338-1.156,2.018-1.707S24.474,10.512,25.17,10l1.045-.762c.356-.257.671-.49,1.1-.786.8-.565,1.626-1.1,2.462-1.611A46.157,46.157,0,0,1,40.466,2.019c.467-.146.941-.274,1.412-.405s.918-.235,1.378-.344c.92-.211,1.841-.4,2.763-.559a49.031,49.031,0,0,1,5.5-.631A53.165,53.165,0,0,1,62.077.556a64.117,64.117,0,0,1,9.634,2.17A97.773,97.773,0,0,1,88.476,9.769c5.153,2.7,9.956,5.64,14.578,8.554l1.8,1.142c.619.392,1.215.793,1.821,1.19,1.19.8,2.367,1.608,3.506,2.421,2.291,1.624,4.485,3.261,6.65,4.851,4.324,3.186,8.492,6.249,12.79,8.84a51.046,51.046,0,0,0,13.391,5.92c.583.161,1.171.282,1.76.423l.888.172.446.087c.148.026.293.041.44.062l.882.119c.3.034.594.054.892.083.6.066,1.2.078,1.8.111s1.216.018,1.828.016c.613-.029,1.228-.022,1.845-.078l.927-.065c.31-.024.619-.063.929-.1.62-.061,1.239-.154,1.86-.248s1.239-.217,1.861-.323,1.238-.263,1.859-.4c.614-.163,1.232-.315,1.846-.487s1.229-.348,1.837-.551c1.222-.385,2.431-.823,3.627-1.3.6-.238,1.2-.479,1.788-.743l.889-.389.876-.418a65.587,65.587,0,0,0,13.17-8.35,64.352,64.352,0,0,0,10.889-11.232,2.73,2.73,0,1,1,4.169,3.512Z" transform="matrix(-0.998, -0.07, 0.07, -0.998, 1306.991, 2419.422)" fill="#fdb74d"/>
  </g>
</svg>
