<svg id="Grupo_80664" data-name="Grupo 80664" xmlns="http://www.w3.org/2000/svg" xmlns:xlink="http://www.w3.org/1999/xlink" width="203.783" height="243.468" viewBox="0 0 203.783 243.468">
  <defs>
    <clipPath id="clip-path">
      <rect id="Rectángulo_34730" data-name="Rectángulo 34730" width="203.783" height="243.468" fill="none"/>
    </clipPath>
  </defs>
  <g id="Grupo_80660" data-name="Grupo 80660" clip-path="url(#clip-path)">
    <path id="Trazado_115140" data-name="Trazado 115140" d="M203.758,169.754a30.969,30.969,0,0,1-1.239,7.429,51.231,51.231,0,0,1-6.724,13.829c-.288.437-.586.874-.884,1.3a92.427,92.427,0,0,1-12.22,14.173c-.982.946-1.99,1.871-3.007,2.776-.463.411-.93.823-1.4,1.229a59.417,59.417,0,0,1-6.19,4.642,93.873,93.873,0,0,1-9.31,5.305c-3.414,1.727-6.909,3.321-10.395,4.94A338.7,338.7,0,0,1,106.2,242.817a15.627,15.627,0,0,1-8.734.057c-24.455-6.945-42.88-14.616-56.72-22.435-3.121-1.763-6-3.532-8.678-5.305q-4.434-2.938-8.1-5.871a82.713,82.713,0,0,1-11.752-11.274c-.5-.6-.982-1.188-1.445-1.774q-1.01-1.288-1.907-2.56a48.76,48.76,0,0,1-7.5-15.644,41.119,41.119,0,0,1-.118-20.528c.031-.149.057-.278.077-.4.051-.283.113-.56.18-.838.483-2.036.936-4.01,1.373-5.933.036-.159.072-.314.1-.473l.005-.005c1.64-7.28,2.951-13.752,3.989-19.525.668-3.707,1.229-7.12,1.686-10.282v-.01c.072-.483.139-.961.206-1.434.262-1.861.488-3.619.684-5.305v-.005a148.993,148.993,0,0,0,1.162-18.435v-.005c-.005-1.82-.057-3.475-.134-5.007-.2-3.9-.55-6.986-.781-9.829-.057-.7-.108-1.388-.144-2.072C9.3,72.838,7.535,65.836,5.494,59.153c-.627-2.062-1.28-4.092-1.928-6.025-.545-1.635-1.09-3.208-1.6-4.668A15.662,15.662,0,0,1,6.45,31.418l.941-.817a15.388,15.388,0,0,1,5.028-2.9,16.024,16.024,0,0,1,8.482-.56c.041.01.082.015.123.026,9.305,1.943,18.883,1.306,23.031.087,6.668-1.357,14.045-4.3,21.011-7.67,2.041-.987,4.051-2.01,5.994-3.043C80.5,11.522,88.438,6.309,91.656,4.217,97.8.223,103.331-1.006,107.937.84s24.568,14.127,40.233,21.8c14.939,7.562,26.558,6.971,33.771,5.079.272-.067.535-.144.792-.216a15.3,15.3,0,0,1,7.881-.149h.005a15.786,15.786,0,0,1,7.2,3.964c.072.067.144.139.216.206a15.547,15.547,0,0,1,3.707,16.944c-5.989,14.914-8.364,40.721-8.117,52.18.149,6.966,2.761,19.972,5.305,33.282.581,3.069,1.167,6.159,1.712,9.192.432,2.391.838,4.75,1.213,7.038.226,1.414.442,2.8.643,4.154q.239,1.619.437,3.167a78.614,78.614,0,0,1,.828,12.271" transform="translate(0 0)" fill="#8c6df2"/>
    <path id="Trazado_115141" data-name="Trazado 115141" d="M68.838,310.192H54.016a20.874,20.874,0,0,0-20.874,20.874v19.068H89.711V331.066a20.874,20.874,0,0,0-20.874-20.874" transform="translate(-16.104 -150.725)" fill="#fedc72"/>
    <path id="Trazado_115142" data-name="Trazado 115142" d="M288.912,310.192H274.09a20.874,20.874,0,0,0-20.874,20.874v19.068h56.569V331.066a20.874,20.874,0,0,0-20.874-20.874" transform="translate(-123.04 -150.725)" fill="#fedc72"/>
    <path id="Trazado_115143" data-name="Trazado 115143" d="M178.875,310.192H164.053a20.874,20.874,0,0,0-20.874,20.874v19.068h56.569V331.066a20.874,20.874,0,0,0-20.874-20.874" transform="translate(-69.572 -150.725)" fill="#fedc72"/>
    <path id="Trazado_115144" data-name="Trazado 115144" d="M89.073,262.085A16.643,16.643,0,1,1,72.43,245.442a16.643,16.643,0,0,1,16.643,16.643" transform="translate(-27.107 -119.263)" fill="#5038a1"/>
    <path id="Trazado_115145" data-name="Trazado 115145" d="M199.11,262.085a16.643,16.643,0,1,1-16.643-16.643,16.643,16.643,0,0,1,16.643,16.643" transform="translate(-80.575 -119.263)" fill="#5038a1"/>
    <path id="Trazado_115146" data-name="Trazado 115146" d="M309.147,262.085A16.643,16.643,0,1,1,292.5,245.442a16.643,16.643,0,0,1,16.643,16.643" transform="translate(-134.043 -119.263)" fill="#5038a1"/>
    <path id="Trazado_115147" data-name="Trazado 115147" d="M150.716,142.318A31.78,31.78,0,1,1,189.575,173.3L182.5,188.705,175.417,173.3a31.785,31.785,0,0,1-24.7-30.979" transform="translate(-80.604 -74.839)" fill="#fedc72"/>
    <path id="Trazado_115148" data-name="Trazado 115148" d="M205.917,153.877l-18,18-18-18a9.6,9.6,0,0,1,0-13.576l0,0a9.6,9.6,0,0,1,13.57,0l4.427,4.427,4.435-4.431a9.6,9.6,0,0,1,13.569,13.577" transform="translate(-86.022 -83.752)" fill="#5038a1"/>
  </g>
</svg>
