<svg xmlns="http://www.w3.org/2000/svg" xmlns:xlink="http://www.w3.org/1999/xlink" width="421.667" height="345.225" viewBox="0 0 421.667 345.225">
  <defs>
    <clipPath id="clip-path">
      <rect id="Rectángulo_34816" data-name="Rectángulo 34816" width="81.539" height="81.161" fill="none"/>
    </clipPath>
    <clipPath id="clip-path-2">
      <rect id="Rectángulo_34815" data-name="Rectángulo 34815" width="81.539" height="81.162" fill="none"/>
    </clipPath>
    <clipPath id="clip-path-4">
      <rect id="Rectángulo_34813" data-name="Rectángulo 34813" width="50.091" height="49.86" fill="none"/>
    </clipPath>
    <clipPath id="clip-path-5">
      <rect id="Rectángulo_34814" data-name="Rectángulo 34814" width="23.113" height="23.006" fill="none"/>
    </clipPath>
    <clipPath id="clip-path-6">
      <rect id="Rectángulo_34819" data-name="Rectángulo 34819" width="15.453" height="15.453" fill="#fff"/>
    </clipPath>
    <clipPath id="clip-path-9">
      <rect id="Rectángulo_34823" data-name="Rectángulo 34823" width="180" height="180" fill="none"/>
    </clipPath>
    <clipPath id="clip-path-12">
      <rect id="Rectángulo_34820" data-name="Rectángulo 34820" width="166.016" height="164.847" transform="translate(2.885 2.034)" fill="none"/>
    </clipPath>
    <clipPath id="clip-path-13">
      <rect id="Rectángulo_34829" data-name="Rectángulo 34829" width="211.122" height="250.064" fill="none"/>
    </clipPath>
  </defs>
  <g id="Grupo_81218" data-name="Grupo 81218" transform="translate(2690.667 9894.225)">
    <g id="Grupo_80903" data-name="Grupo 80903" transform="translate(-2605.667 -9894.225)" style="mix-blend-mode: multiply;isolation: isolate">
      <g id="Grupo_80857" data-name="Grupo 80857" clip-path="url(#clip-path)">
        <g id="Grupo_80856" data-name="Grupo 80856" transform="translate(0 0)">
          <g id="Grupo_80855" data-name="Grupo 80855" clip-path="url(#clip-path-2)">
            <g id="Grupo_80848" data-name="Grupo 80848" transform="translate(0 0)" opacity="0.17" style="isolation: isolate">
              <g id="Grupo_80847" data-name="Grupo 80847" transform="translate(0 0)">
                <g id="Grupo_80846" data-name="Grupo 80846" clip-path="url(#clip-path)">
                  <path id="Trazado_115734" data-name="Trazado 115734" d="M66.5,72.148a108.866,108.866,0,0,0,6.75-10.186c2.361-4.028,4.706-8.2,5.665-12.813.905-4.362,1.188-10.109-1.474-13.937C74.584,31.047,64.575,23.13,61.831,19.606c-2.227-2.859-6.495-9.85-7.791-14.761A4.913,4.913,0,0,0,49.9,1.25l-.094-.012a4.925,4.925,0,0,0-4.544,1.881c-1.421,1.866-4.269,4.353-9.68,5.291-5.42,1.01-12.8,1.663-14.315,2.065s-2.685,1.757-3.489,3.93-3.822,10.47-7.721,14.824A17.453,17.453,0,0,1,4.2,33.553,5,5,0,0,0,1.4,37l-.084.385A4.948,4.948,0,0,0,3.39,42.549,43.347,43.347,0,0,1,10.9,48.568c2.292,2.754,5.778,5.34,12.718,21.394.035.082.072.166.111.246.864,1.716,5.838,16.808,40.567,3.6A4.962,4.962,0,0,0,66.5,72.148Z" transform="translate(0.392 0.392)" fill="none" stroke="#5038a1" stroke-miterlimit="10" stroke-width="2.396"/>
                </g>
              </g>
            </g>
            <g id="Grupo_80851" data-name="Grupo 80851" transform="translate(16.563 16.452)" opacity="0.17" style="isolation: isolate">
              <g id="Grupo_80850" data-name="Grupo 80850">
                <g id="Grupo_80849" data-name="Grupo 80849" clip-path="url(#clip-path-4)">
                  <path id="Trazado_115735" data-name="Trazado 115735" d="M53.335,56.719a67.2,67.2,0,0,0,4.147-6.257,26.592,26.592,0,0,0,3.48-7.872c.556-2.679.73-6.21-.906-8.561-1.756-2.559-7.9-7.423-9.591-9.587a32.142,32.142,0,0,1-4.786-9.068,3.02,3.02,0,0,0-2.543-2.208l-.057-.008a3.027,3.027,0,0,0-2.792,1.156,9.086,9.086,0,0,1-5.947,3.25c-3.33.62-7.863,1.022-8.793,1.269A3.465,3.465,0,0,0,23.4,21.246c-.494,1.334-2.349,6.432-4.743,9.107a10.721,10.721,0,0,1-3.6,2.657,3.074,3.074,0,0,0-1.724,2.117l-.052.236a3.04,3.04,0,0,0,1.277,3.174,26.692,26.692,0,0,1,4.616,3.7c1.408,1.693,3.55,3.281,7.813,13.144.021.05.044.1.069.151.53,1.054,3.586,10.326,24.92,2.214A3.046,3.046,0,0,0,53.335,56.719Z" transform="translate(-12.24 -12.156)" fill="none" stroke="#5038a1" stroke-miterlimit="10" stroke-width="1.472"/>
                </g>
              </g>
            </g>
            <g id="Grupo_80854" data-name="Grupo 80854" transform="translate(30.773 30.566)" opacity="0.17" style="isolation: isolate">
              <g id="Grupo_80853" data-name="Grupo 80853">
                <g id="Grupo_80852" data-name="Grupo 80852" clip-path="url(#clip-path-5)">
                  <path id="Trazado_115736" data-name="Trazado 115736" d="M42.039,43.483A30.989,30.989,0,0,0,43.952,40.6a12.284,12.284,0,0,0,1.606-3.631,5.347,5.347,0,0,0-.418-3.951c-.811-1.181-3.648-3.425-4.426-4.423a14.852,14.852,0,0,1-2.208-4.184,1.392,1.392,0,0,0-1.173-1.019l-.027,0a1.4,1.4,0,0,0-1.287.533,4.194,4.194,0,0,1-2.744,1.5c-1.537.287-3.628.471-4.058.585a1.6,1.6,0,0,0-.989,1.113,14.949,14.949,0,0,1-2.188,4.2,4.944,4.944,0,0,1-1.66,1.226,1.415,1.415,0,0,0-.795.975l-.024.109a1.4,1.4,0,0,0,.589,1.465A12.352,12.352,0,0,1,26.278,36.8c.65.782,1.639,1.514,3.606,6.065a.671.671,0,0,0,.032.07c.244.486,1.654,4.764,11.5,1.021A1.4,1.4,0,0,0,42.039,43.483Z" transform="translate(-23.077 -22.92)" fill="none" stroke="#5038a1" stroke-miterlimit="10" stroke-width="0.679"/>
                </g>
              </g>
            </g>
          </g>
        </g>
      </g>
    </g>
    <g id="Grupo_80902" data-name="Grupo 80902" transform="translate(-2634.571 -9744.453)" style="isolation: isolate">
      <g id="Grupo_80864" data-name="Grupo 80864" clip-path="url(#clip-path-6)">
        <g id="Grupo_80863" data-name="Grupo 80863" transform="translate(0 0)">
          <g id="Grupo_80862" data-name="Grupo 80862" clip-path="url(#clip-path-6)">
            <g id="Grupo_80861" data-name="Grupo 80861" style="mix-blend-mode: overlay;isolation: isolate">
              <g id="Grupo_80860" data-name="Grupo 80860">
                <g id="Grupo_80859" data-name="Grupo 80859" clip-path="url(#clip-path-6)">
                  <path id="Trazado_115737" data-name="Trazado 115737" d="M15.453,7.726A7.727,7.727,0,1,1,7.727,0a7.726,7.726,0,0,1,7.726,7.726" transform="translate(0 0)" fill="#fff"/>
                </g>
              </g>
            </g>
          </g>
        </g>
      </g>
    </g>
    <g id="Grupo_80900" data-name="Grupo 80900" transform="translate(-2449 -9729)">
      <g id="Grupo_80873" data-name="Grupo 80873" clip-path="url(#clip-path-9)">
        <g id="Grupo_80872" data-name="Grupo 80872">
          <g id="Grupo_80871" data-name="Grupo 80871" clip-path="url(#clip-path-9)">
            <g id="Grupo_80870" data-name="Grupo 80870" opacity="0.7">
              <g id="Grupo_80869" data-name="Grupo 80869">
                <g id="Grupo_80868" data-name="Grupo 80868" clip-path="url(#clip-path-9)">
                  <g id="Grupo_80867" data-name="Grupo 80867">
                    <g id="Grupo_80866" data-name="Grupo 80866" clip-path="url(#clip-path-12)">
                      <path id="Trazado_115738" data-name="Trazado 115738" d="M171.52,150a1.52,1.52,0,1,0-1.52,1.52,1.52,1.52,0,0,0,1.52-1.52" fill="#f2f2f2"/>
                      <path id="Trazado_115739" data-name="Trazado 115739" d="M171.52,130a1.52,1.52,0,1,0-1.52,1.52,1.52,1.52,0,0,0,1.52-1.52" fill="#f2f2f2"/>
                      <path id="Trazado_115740" data-name="Trazado 115740" d="M171.52,110a1.52,1.52,0,1,0-1.52,1.52,1.52,1.52,0,0,0,1.52-1.52" fill="#f2f2f2"/>
                      <path id="Trazado_115741" data-name="Trazado 115741" d="M171.52,90A1.52,1.52,0,1,0,170,91.52,1.52,1.52,0,0,0,171.52,90" fill="#f2f2f2"/>
                      <path id="Trazado_115742" data-name="Trazado 115742" d="M171.52,70A1.52,1.52,0,1,0,170,71.52,1.52,1.52,0,0,0,171.52,70" fill="#f2f2f2"/>
                      <path id="Trazado_115743" data-name="Trazado 115743" d="M171.52,50A1.52,1.52,0,1,0,170,51.52,1.52,1.52,0,0,0,171.52,50" fill="#f2f2f2"/>
                      <path id="Trazado_115744" data-name="Trazado 115744" d="M171.52,30A1.52,1.52,0,1,0,170,31.52,1.52,1.52,0,0,0,171.52,30" fill="#f2f2f2"/>
                      <path id="Trazado_115745" data-name="Trazado 115745" d="M171.52,10A1.52,1.52,0,1,0,170,11.52,1.52,1.52,0,0,0,171.52,10" fill="#f2f2f2"/>
                      <path id="Trazado_115746" data-name="Trazado 115746" d="M151.52,150a1.52,1.52,0,1,0-1.52,1.52,1.52,1.52,0,0,0,1.52-1.52" fill="#f2f2f2"/>
                      <path id="Trazado_115747" data-name="Trazado 115747" d="M151.52,130a1.52,1.52,0,1,0-1.52,1.52,1.52,1.52,0,0,0,1.52-1.52" fill="#f2f2f2"/>
                      <path id="Trazado_115748" data-name="Trazado 115748" d="M151.52,110a1.52,1.52,0,1,0-1.52,1.52,1.52,1.52,0,0,0,1.52-1.52" fill="#f2f2f2"/>
                      <path id="Trazado_115749" data-name="Trazado 115749" d="M151.52,90A1.52,1.52,0,1,0,150,91.52,1.52,1.52,0,0,0,151.52,90" fill="#f2f2f2"/>
                      <path id="Trazado_115750" data-name="Trazado 115750" d="M151.52,70A1.52,1.52,0,1,0,150,71.52,1.52,1.52,0,0,0,151.52,70" fill="#f2f2f2"/>
                      <path id="Trazado_115751" data-name="Trazado 115751" d="M151.52,50A1.52,1.52,0,1,0,150,51.52,1.52,1.52,0,0,0,151.52,50" fill="#f2f2f2"/>
                      <path id="Trazado_115752" data-name="Trazado 115752" d="M151.52,30A1.52,1.52,0,1,0,150,31.52,1.52,1.52,0,0,0,151.52,30" fill="#f2f2f2"/>
                      <path id="Trazado_115753" data-name="Trazado 115753" d="M151.52,10A1.52,1.52,0,1,0,150,11.52,1.52,1.52,0,0,0,151.52,10" fill="#f2f2f2"/>
                      <path id="Trazado_115754" data-name="Trazado 115754" d="M131.52,150a1.52,1.52,0,1,0-1.52,1.52,1.52,1.52,0,0,0,1.52-1.52" fill="#f2f2f2"/>
                      <path id="Trazado_115755" data-name="Trazado 115755" d="M131.52,130a1.52,1.52,0,1,0-1.52,1.52,1.52,1.52,0,0,0,1.52-1.52" fill="#f2f2f2"/>
                      <path id="Trazado_115756" data-name="Trazado 115756" d="M131.52,110a1.52,1.52,0,1,0-1.52,1.52,1.52,1.52,0,0,0,1.52-1.52" fill="#f2f2f2"/>
                      <path id="Trazado_115757" data-name="Trazado 115757" d="M131.52,90A1.52,1.52,0,1,0,130,91.52,1.52,1.52,0,0,0,131.52,90" fill="#f2f2f2"/>
                      <path id="Trazado_115758" data-name="Trazado 115758" d="M131.52,70A1.52,1.52,0,1,0,130,71.52,1.52,1.52,0,0,0,131.52,70" fill="#f2f2f2"/>
                      <path id="Trazado_115759" data-name="Trazado 115759" d="M131.52,50A1.52,1.52,0,1,0,130,51.52,1.52,1.52,0,0,0,131.52,50" fill="#f2f2f2"/>
                      <path id="Trazado_115760" data-name="Trazado 115760" d="M131.52,30A1.52,1.52,0,1,0,130,31.52,1.52,1.52,0,0,0,131.52,30" fill="#f2f2f2"/>
                      <path id="Trazado_115761" data-name="Trazado 115761" d="M131.52,10A1.52,1.52,0,1,0,130,11.52,1.52,1.52,0,0,0,131.52,10" fill="#f2f2f2"/>
                      <path id="Trazado_115762" data-name="Trazado 115762" d="M111.52,150a1.52,1.52,0,1,0-1.52,1.52,1.52,1.52,0,0,0,1.52-1.52" fill="#f2f2f2"/>
                      <path id="Trazado_115763" data-name="Trazado 115763" d="M111.52,130a1.52,1.52,0,1,0-1.52,1.52,1.52,1.52,0,0,0,1.52-1.52" fill="#f2f2f2"/>
                      <path id="Trazado_115764" data-name="Trazado 115764" d="M111.52,110a1.52,1.52,0,1,0-1.52,1.52,1.52,1.52,0,0,0,1.52-1.52" fill="#f2f2f2"/>
                      <path id="Trazado_115765" data-name="Trazado 115765" d="M111.52,90A1.52,1.52,0,1,0,110,91.52,1.52,1.52,0,0,0,111.52,90" fill="#f2f2f2"/>
                      <path id="Trazado_115766" data-name="Trazado 115766" d="M111.52,70A1.52,1.52,0,1,0,110,71.52,1.52,1.52,0,0,0,111.52,70" fill="#f2f2f2"/>
                      <path id="Trazado_115767" data-name="Trazado 115767" d="M111.52,50A1.52,1.52,0,1,0,110,51.52,1.52,1.52,0,0,0,111.52,50" fill="#f2f2f2"/>
                      <path id="Trazado_115768" data-name="Trazado 115768" d="M111.52,30A1.52,1.52,0,1,0,110,31.52,1.52,1.52,0,0,0,111.52,30" fill="#f2f2f2"/>
                      <path id="Trazado_115769" data-name="Trazado 115769" d="M111.52,10A1.52,1.52,0,1,0,110,11.52,1.52,1.52,0,0,0,111.52,10" fill="#f2f2f2"/>
                      <path id="Trazado_115770" data-name="Trazado 115770" d="M91.52,150A1.52,1.52,0,1,0,90,151.52,1.52,1.52,0,0,0,91.52,150" fill="#f2f2f2"/>
                      <path id="Trazado_115771" data-name="Trazado 115771" d="M91.52,130A1.52,1.52,0,1,0,90,131.52,1.52,1.52,0,0,0,91.52,130" fill="#f2f2f2"/>
                      <path id="Trazado_115772" data-name="Trazado 115772" d="M91.52,110A1.52,1.52,0,1,0,90,111.52,1.52,1.52,0,0,0,91.52,110" fill="#f2f2f2"/>
                      <path id="Trazado_115773" data-name="Trazado 115773" d="M91.52,90A1.52,1.52,0,1,0,90,91.52,1.52,1.52,0,0,0,91.52,90" fill="#f2f2f2"/>
                      <path id="Trazado_115774" data-name="Trazado 115774" d="M91.52,70A1.52,1.52,0,1,0,90,71.52,1.52,1.52,0,0,0,91.52,70" fill="#f2f2f2"/>
                      <path id="Trazado_115775" data-name="Trazado 115775" d="M91.52,50A1.52,1.52,0,1,0,90,51.52,1.52,1.52,0,0,0,91.52,50" fill="#f2f2f2"/>
                      <path id="Trazado_115776" data-name="Trazado 115776" d="M91.52,30A1.52,1.52,0,1,0,90,31.52,1.52,1.52,0,0,0,91.52,30" fill="#f2f2f2"/>
                      <path id="Trazado_115777" data-name="Trazado 115777" d="M91.52,10A1.52,1.52,0,1,0,90,11.52,1.52,1.52,0,0,0,91.52,10" fill="#f2f2f2"/>
                      <path id="Trazado_115778" data-name="Trazado 115778" d="M71.52,150A1.52,1.52,0,1,0,70,151.52,1.52,1.52,0,0,0,71.52,150" fill="#f2f2f2"/>
                      <path id="Trazado_115779" data-name="Trazado 115779" d="M71.52,130A1.52,1.52,0,1,0,70,131.52,1.52,1.52,0,0,0,71.52,130" fill="#f2f2f2"/>
                      <path id="Trazado_115780" data-name="Trazado 115780" d="M71.52,110A1.52,1.52,0,1,0,70,111.52,1.52,1.52,0,0,0,71.52,110" fill="#f2f2f2"/>
                      <path id="Trazado_115781" data-name="Trazado 115781" d="M71.52,90A1.52,1.52,0,1,0,70,91.52,1.52,1.52,0,0,0,71.52,90" fill="#f2f2f2"/>
                      <path id="Trazado_115782" data-name="Trazado 115782" d="M71.52,70A1.52,1.52,0,1,0,70,71.52,1.52,1.52,0,0,0,71.52,70" fill="#f2f2f2"/>
                      <path id="Trazado_115783" data-name="Trazado 115783" d="M71.52,50A1.52,1.52,0,1,0,70,51.52,1.52,1.52,0,0,0,71.52,50" fill="#f2f2f2"/>
                      <path id="Trazado_115784" data-name="Trazado 115784" d="M71.52,30A1.52,1.52,0,1,0,70,31.52,1.52,1.52,0,0,0,71.52,30" fill="#f2f2f2"/>
                      <path id="Trazado_115785" data-name="Trazado 115785" d="M71.52,10A1.52,1.52,0,1,0,70,11.52,1.52,1.52,0,0,0,71.52,10" fill="#f2f2f2"/>
                      <path id="Trazado_115786" data-name="Trazado 115786" d="M51.52,150A1.52,1.52,0,1,0,50,151.52,1.52,1.52,0,0,0,51.52,150" fill="#f2f2f2"/>
                      <path id="Trazado_115787" data-name="Trazado 115787" d="M51.52,130A1.52,1.52,0,1,0,50,131.52,1.52,1.52,0,0,0,51.52,130" fill="#f2f2f2"/>
                      <path id="Trazado_115788" data-name="Trazado 115788" d="M51.52,110A1.52,1.52,0,1,0,50,111.52,1.52,1.52,0,0,0,51.52,110" fill="#f2f2f2"/>
                      <path id="Trazado_115789" data-name="Trazado 115789" d="M51.52,90A1.52,1.52,0,1,0,50,91.52,1.52,1.52,0,0,0,51.52,90" fill="#f2f2f2"/>
                      <path id="Trazado_115790" data-name="Trazado 115790" d="M51.52,70A1.52,1.52,0,1,0,50,71.52,1.52,1.52,0,0,0,51.52,70" fill="#f2f2f2"/>
                      <path id="Trazado_115791" data-name="Trazado 115791" d="M51.52,50A1.52,1.52,0,1,0,50,51.52,1.52,1.52,0,0,0,51.52,50" fill="#f2f2f2"/>
                      <path id="Trazado_115792" data-name="Trazado 115792" d="M51.52,30A1.52,1.52,0,1,0,50,31.52,1.52,1.52,0,0,0,51.52,30" fill="#f2f2f2"/>
                      <path id="Trazado_115793" data-name="Trazado 115793" d="M51.52,10A1.52,1.52,0,1,0,50,11.52,1.52,1.52,0,0,0,51.52,10" fill="#f2f2f2"/>
                      <path id="Trazado_115794" data-name="Trazado 115794" d="M31.52,150A1.52,1.52,0,1,0,30,151.52,1.52,1.52,0,0,0,31.52,150" fill="#f2f2f2"/>
                      <path id="Trazado_115795" data-name="Trazado 115795" d="M31.52,130A1.52,1.52,0,1,0,30,131.52,1.52,1.52,0,0,0,31.52,130" fill="#f2f2f2"/>
                      <path id="Trazado_115796" data-name="Trazado 115796" d="M31.52,110A1.52,1.52,0,1,0,30,111.52,1.52,1.52,0,0,0,31.52,110" fill="#f2f2f2"/>
                      <path id="Trazado_115797" data-name="Trazado 115797" d="M31.52,90A1.52,1.52,0,1,0,30,91.52,1.52,1.52,0,0,0,31.52,90" fill="#f2f2f2"/>
                      <path id="Trazado_115798" data-name="Trazado 115798" d="M31.52,70A1.52,1.52,0,1,0,30,71.52,1.52,1.52,0,0,0,31.52,70" fill="#f2f2f2"/>
                      <path id="Trazado_115799" data-name="Trazado 115799" d="M31.52,50A1.52,1.52,0,1,0,30,51.52,1.52,1.52,0,0,0,31.52,50" fill="#f2f2f2"/>
                      <path id="Trazado_115800" data-name="Trazado 115800" d="M31.52,30A1.52,1.52,0,1,0,30,31.52,1.52,1.52,0,0,0,31.52,30" fill="#f2f2f2"/>
                      <path id="Trazado_115801" data-name="Trazado 115801" d="M31.52,10A1.52,1.52,0,1,0,30,11.52,1.52,1.52,0,0,0,31.52,10" fill="#f2f2f2"/>
                      <path id="Trazado_115802" data-name="Trazado 115802" d="M11.52,150A1.52,1.52,0,1,0,10,151.52,1.52,1.52,0,0,0,11.52,150" fill="#f2f2f2"/>
                      <path id="Trazado_115803" data-name="Trazado 115803" d="M11.52,130A1.52,1.52,0,1,0,10,131.52,1.52,1.52,0,0,0,11.52,130" fill="#f2f2f2"/>
                      <path id="Trazado_115804" data-name="Trazado 115804" d="M11.52,110A1.52,1.52,0,1,0,10,111.52,1.52,1.52,0,0,0,11.52,110" fill="#f2f2f2"/>
                      <path id="Trazado_115805" data-name="Trazado 115805" d="M11.52,90A1.52,1.52,0,1,0,10,91.52,1.52,1.52,0,0,0,11.52,90" fill="#f2f2f2"/>
                      <path id="Trazado_115806" data-name="Trazado 115806" d="M11.52,70A1.52,1.52,0,1,0,10,71.52,1.52,1.52,0,0,0,11.52,70" fill="#f2f2f2"/>
                      <path id="Trazado_115807" data-name="Trazado 115807" d="M11.52,50A1.52,1.52,0,1,0,10,51.52,1.52,1.52,0,0,0,11.52,50" fill="#f2f2f2"/>
                      <path id="Trazado_115808" data-name="Trazado 115808" d="M11.52,30A1.52,1.52,0,1,0,10,31.52,1.52,1.52,0,0,0,11.52,30" fill="#f2f2f2"/>
                      <path id="Trazado_115809" data-name="Trazado 115809" d="M11.52,10A1.52,1.52,0,1,0,10,11.52,1.52,1.52,0,0,0,11.52,10" fill="#f2f2f2"/>
                    </g>
                  </g>
                </g>
              </g>
            </g>
          </g>
        </g>
      </g>
    </g>
    <path id="Trazado_115853" data-name="Trazado 115853" d="M360.1,165.773a241.282,241.282,0,0,0-21.744-20.356A177.635,177.635,0,0,0,313.8,128.444a129.013,129.013,0,0,0-27.917-11.989,90.875,90.875,0,0,0-15.4-3.053c-1.328-.115-2.655-.262-4-.3-.672-.029-1.343-.071-2.019-.086L262.43,113c-1.365-.013-2.678.045-4.027.069-1.332.082-2.677.136-4.008.266-10.7.931-21.064,3.919-30.714,7.674-9.68,3.761-18.733,8.3-27.442,12.644-4.352,2.182-8.636,4.3-12.851,6.276-2.111,1-4.2,1.931-6.276,2.845-1.036.437-2.072.893-3.1,1.308l-3.187,1.294c-8.876,3.592-17.55,6.936-26.091,9.6-4.267,1.336-8.493,2.5-12.646,3.441-2.077.469-4.135.884-6.169,1.232s-4.045.608-6.02.811a57.978,57.978,0,0,1-21.291-1.288,38.739,38.739,0,0,1-4.35-1.493c-.693-.279-1.363-.59-2.023-.9l-.972-.491c-.292-.167-.585-.319-.872-.494a30.432,30.432,0,0,1-6.307-4.9c-.466-.478-.922-.963-1.355-1.47l-1.684-1.893c-.582-.653-1.1-1.334-1.658-1.987-.535-.666-1.023-1.35-1.539-2.011a50.924,50.924,0,0,1-4.921-8.239,45.623,45.623,0,0,1-3.074-8.465,46.1,46.1,0,0,1-1.38-8.783A66.063,66.063,0,0,1,70.156,99.2a98.886,98.886,0,0,1,6.976-19.857,106.5,106.5,0,0,1,5.123-9.651c.927-1.551,1.886-3.066,2.848-4.493.48-.707.968-1.391,1.435-2.011.233-.308.465-.607.672-.85a4.115,4.115,0,0,1,.287-.317c.036-.029.087-.089.1-.08l.018,0s.021-.021-.005.035l-.1.23a41.468,41.468,0,0,0-71.83-41.459l-.325.624-.208.427-.332.714-.568,1.28c-.358.824-.678,1.6-.99,2.37-.621,1.536-1.187,3.026-1.736,4.5-1.084,2.95-2.067,5.859-2.976,8.776-1.814,5.829-3.326,11.69-4.6,17.642A172.731,172.731,0,0,0,0,94.041a130.737,130.737,0,0,0,5.789,38.751,114.192,114.192,0,0,0,7.742,18.686,106.2,106.2,0,0,0,10.955,16.848,109.535,109.535,0,0,0,13.426,14.153c1.209,1.03,2.4,2.078,3.628,3.068,1.235.969,2.454,1.965,3.7,2.887l1.879,1.37c.64.462,1.207.882,1.973,1.412,1.442,1.015,2.923,1.976,4.426,2.9a82.975,82.975,0,0,0,19.218,8.666c.84.262,1.691.493,2.538.729.831.214,1.651.422,2.477.618,1.653.379,3.309.725,4.967,1.005a88.139,88.139,0,0,0,9.895,1.134,95.573,95.573,0,0,0,18.973-.855,115.261,115.261,0,0,0,17.318-3.9,175.764,175.764,0,0,0,30.139-12.661c9.264-4.854,17.9-10.139,26.206-15.377l3.241-2.053c1.112-.7,2.185-1.426,3.273-2.139,2.14-1.441,4.255-2.89,6.3-4.352,4.119-2.919,8.063-5.862,11.954-8.721,7.772-5.727,15.266-11.234,22.992-15.892a91.763,91.763,0,0,1,24.073-10.642c1.048-.289,2.105-.507,3.164-.761l1.6-.309.8-.156c.266-.047.527-.073.791-.111l1.585-.213c.531-.062,1.068-.1,1.6-.15,1.07-.119,2.157-.14,3.243-.2,1.089-.035,2.186-.032,3.286-.028,1.1.051,2.208.04,3.317.141l1.667.117c.557.042,1.113.114,1.67.171,1.115.109,2.228.278,3.343.447,1.119.146,2.227.389,3.346.581,1.115.214,2.225.473,3.341.712,1.1.293,2.214.566,3.319.875,1.1.333,2.209.626,3.3.991,2.2.693,4.371,1.479,6.52,2.345,1.077.428,2.153.861,3.214,1.336l1.6.7,1.575.751a117.9,117.9,0,0,1,23.675,15.01,115.682,115.682,0,0,1,19.575,20.191,4.907,4.907,0,1,0,7.494-6.313Z" transform="translate(-2318.897 -9572.127) rotate(177)" fill="#fdb74d"/>
    <g id="Grupo_80898" data-name="Grupo 80898" transform="translate(-2590.487 -9563.848)">
      <ellipse id="Elipse_4784" data-name="Elipse 4784" cx="96.209" cy="6.299" rx="96.209" ry="6.299" transform="translate(0 0)" fill="#8c6df2" opacity="0.25"/>
    </g>
    <g id="Grupo_80905" data-name="Grupo 80905" transform="translate(-2601.03 -9813.063)">
      <g id="Grupo_80905-2" data-name="Grupo 80905" clip-path="url(#clip-path-13)">
        <path id="Trazado_115854" data-name="Trazado 115854" d="M209.3,173.445v.005c-.005.312-.011.607-.021.9a31.809,31.809,0,0,1-1.273,7.63c-.053.174-.1.343-.153.512v.005a53.393,53.393,0,0,1-6.753,13.686c-.3.449-.6.9-.908,1.336a94.931,94.931,0,0,1-12.551,14.557q-.531.515-1.077,1.014c-.665.628-1.336,1.236-2.012,1.838-.475.422-.956.845-1.442,1.262q-1.529,1.315-3.131,2.508-1.584,1.18-3.226,2.26-1.117.729-2.255,1.42c-2.371,1.447-4.821,2.772-7.308,4.029-1.283.649-2.577,1.278-3.876,1.9-2.255,1.072-4.53,2.117-6.8,3.173-.206.1-.407.19-.613.28q-7.445,3.445-15.059,6.521h-.005q-1.521.626-3.057,1.22-4.736,1.869-9.525,3.6a.3.3,0,0,1-.063.021q-5.647,2.043-11.368,3.876c-.005.005-.005.005-.005,0s-.016.011-.026.011q-3.152,1.022-6.32,1.969c-.465.143-.924.28-1.389.417a16.05,16.05,0,0,1-8.971.058c-.554-.158-1.109-.317-1.658-.475q-3.224-.927-6.3-1.869c-.005-.005-.016-.005-.021-.011-8.063-2.466-15.434-5.016-22.172-7.625-.269-.1-.539-.206-.8-.312-.708-.275-1.415-.549-2.107-.829-1.705-.686-3.369-1.368-4.99-2.059-1.69-.713-3.327-1.431-4.926-2.16q-3.382-1.521-6.51-3.073l-1.774-.882q-3.675-1.869-7-3.749c-.359-.206-.718-.407-1.072-.612q-3.429-1.972-6.489-3.955c-.454-.29-.908-.586-1.352-.882q-4.554-3.018-8.316-6.03a84.956,84.956,0,0,1-12.071-11.579c-.517-.612-1.009-1.22-1.484-1.822q-1.038-1.323-1.959-2.63Q7.8,197.04,6.721,195.215c-.422-.7-.818-1.389-1.177-2.07-.005-.005-.011-.005-.016-.011v-.005a.019.019,0,0,1-.005-.016,47.023,47.023,0,0,1-4.113-10.281c-.132-.491-.248-.977-.359-1.457-.148-.634-.275-1.257-.385-1.869-.185-1.035-.327-2.043-.433-3.01A43.4,43.4,0,0,1,1.287,161.75c.032-.153.058-.285.079-.407.053-.29.116-.576.185-.861.5-2.091.961-4.119,1.41-6.093.037-.164.074-.322.106-.486l.005-.005c1.684-7.477,3.031-14.124,4.1-20.054.686-3.807,1.262-7.313,1.732-10.56v-.011c.074-.5.143-.987.211-1.473.079-.549.153-1.088.222-1.621.18-1.32.338-2.593.48-3.828v-.005q.214-1.814.385-3.506c.222-2.17.385-4.2.512-6.088v-.005c.153-2.392.243-4.578.275-6.584.021-.956.026-1.869.021-2.751v-.005c-.005-1.869-.058-3.569-.137-5.143-.011-.174-.016-.349-.026-.517-.18-3.274-.465-5.988-.681-8.48-.037-.37-.069-.734-.1-1.1-.058-.723-.111-1.426-.148-2.128-.021-.3-.048-.6-.074-.913v-.011A82.611,82.611,0,0,0,7.18,66.078c-.475-1.769-1-3.559-1.537-5.322-.644-2.117-1.315-4.2-1.98-6.188-.56-1.679-1.119-3.295-1.647-4.794a16.086,16.086,0,0,1,4.61-17.5l.966-.84a15.8,15.8,0,0,1,5.164-2.978,16.459,16.459,0,0,1,8.712-.576c.042.011.084.016.127.026,9.557,2,19.394,1.341,23.655.09C52.1,26.6,59.676,23.578,66.83,20.114c2.1-1.014,4.161-2.065,6.157-3.126C82.681,11.834,90.834,6.48,94.139,4.331c6.31-4.1,11.991-5.365,16.722-3.469s25.234,14.51,41.323,22.393c15.344,7.767,27.277,7.16,34.686,5.217.28-.069.549-.148.813-.222a15.719,15.719,0,0,1,8.095-.153h.005a16.214,16.214,0,0,1,7.392,4.071c.074.069.148.143.222.211a15.968,15.968,0,0,1,3.807,17.4q-.871,2.178-1.647,4.625v.005c-.549,1.721-1.056,3.532-1.531,5.4a190.362,190.362,0,0,0-5.159,43.562c.005.222.011.449.021.681v.005c.063,1.589.238,3.443.5,5.513.517,4.14,1.373,9.129,2.371,14.531v.005c.8,4.3,1.679,8.855,2.561,13.449.1.512.2,1.03.29,1.542v.005c.037.18.069.354.106.533.465,2.466.924,4.932,1.362,7.361.259,1.441.512,2.872.75,4.282v.005q.214,1.236.412,2.439a.1.1,0,0,1,.005.037v.005c.032.153.053.306.079.459q.119.76.238,1.5c0,.011.005.016.005.021.021.132.037.259.058.391a.09.09,0,0,1,.005.037c.121.781.243,1.552.354,2.313q.246,1.663.449,3.253a87.324,87.324,0,0,1,.871,11.7" transform="translate(0 0)" fill="#8c6df2"/>
        <path id="Trazado_115855" data-name="Trazado 115855" d="M353.2,189.375a3.522,3.522,0,0,1-2.461.993h-5.629l-13.153,13.153a3.549,3.549,0,0,1-5.021-5.016L340.1,185.347V172.621a3.548,3.548,0,1,1,7.1,0v10.645h3.548a3.516,3.516,0,0,1,1.964.591v.005c.063,1.589.238,3.443.5,5.513" transform="translate(-153.82 -79.799)" fill="#fdb74d"/>
        <path id="Trazado_115856" data-name="Trazado 115856" d="M207.177,58.357h-14.2a3.547,3.547,0,0,0-2.509,1.04L178.785,71.083l-7.1-7.1V58.357a3.549,3.549,0,0,0-7.1,0v7.1a3.547,3.547,0,0,0,1.04,2.509l9.607,9.607V93.847a3.549,3.549,0,0,0,7.1,0V77.571l12.117-12.116h12.726a3.549,3.549,0,0,0,0-7.1" transform="translate(-77.683 -25.868)" fill="#fdb74d"/>
        <path id="Trazado_115857" data-name="Trazado 115857" d="M115.5,309.148a52.541,52.541,0,0,1-.75,9.145,37.519,37.519,0,0,1-1.41,5.6,28.3,28.3,0,0,1-5.813,10.1,26.436,26.436,0,0,1-2.661,2.556h-.005a.005.005,0,0,0-.005.005,32.583,32.583,0,0,1-12.5,6.215c-.005-.005-.016-.005-.021-.011-8.063-2.466-15.434-5.016-22.172-7.625-.269-.1-.539-.206-.8-.312-.708-.275-1.415-.549-2.107-.829-1.705-.686-3.369-1.368-4.99-2.059-1.69-.713-3.327-1.431-4.926-2.16q-3.382-1.521-6.51-3.073l-1.774-.882q-3.675-1.869-7-3.749c-.359-.206-.718-.407-1.072-.612Q37.56,319.484,34.5,317.5c-.454-.29-.908-.586-1.352-.882q-4.554-3.018-8.316-6.03A84.957,84.957,0,0,1,12.762,299.01c-.517-.612-1.009-1.22-1.484-1.822q-1.038-1.323-1.959-2.63Q8,292.7,6.927,290.873l-1.045-.259c-.058-.6-.106-1.2-.148-1.811v-.016a.019.019,0,0,1-.005-.016,47.023,47.023,0,0,1-4.113-10.281c-.132-.491-.248-.977-.359-1.457-.148-.634-.275-1.257-.385-1.869-.185-1.035-.327-2.043-.433-3.01.216-.438.444-.871.681-1.309a91.975,91.975,0,0,1,5.412-8.918c.422-.618.85-1.236,1.288-1.853.032-.042.058-.085.09-.127.216-.3.433-.6.655-.9,1.156-1.6,2.371-3.189,3.627-4.768.48-.6.961-1.2,1.452-1.8q1.964-2.392,4.05-4.747c.269-.306.544-.613.818-.919.544-.613,1.1-1.22,1.653-1.827q.784-.855,1.579-1.7c.037-.037.069-.069.1-.106l.85-.9q1.695-1.782,3.432-3.527c.29-.29.576-.581.866-.866.581-.581,1.156-1.151,1.742-1.721s1.162-1.13,1.748-1.69a.487.487,0,0,1,.074-.074q.832-.8,1.674-1.589,1.045-.99,2.091-1.948h.005v-.005h.005c.285-.275.576-.544.866-.8l.032-.032c.5-.459,1-.913,1.5-1.368q1.03-.927,2.043-1.827l.116-.1c.808-.718,1.605-1.415,2.4-2.107,1.874-1.626,3.717-3.189,5.5-4.678,1.436-1.193,2.841-2.339,4.2-3.432,10.566-8.522,18.38-13.839,18.38-13.839s.66,2.709,1.943,7.355c.037.127.074.253.111.385s.074.269.111.407a.04.04,0,0,1,.011.026c.132.5.28,1.009.433,1.547.053.174.1.359.153.539.058.2.116.4.174.607.232.8.475,1.647.729,2.524.048.158.1.322.143.486.021.069.042.143.063.216s.042.148.063.227c.9,3.057,1.948,6.51,3.142,10.265q1.045,3.295,2.244,6.88c1.991,5.951,4.288,12.435,6.88,19.157,7.155-4.979,12.2-8.031,12.2-8.031s2.065,4.235,4.779,10.914c.148.359.3.723.449,1.1.058.158.121.317.19.48.253.644.517,1.3.787,1.991.127.338.264.686.4,1.035.063.174.132.354.2.528l.143.364c.158.412.312.834.47,1.257l.206.554q.586,1.576,1.177,3.242c.063.174.121.349.185.523v.005c.137.391.275.776.412,1.172.665,1.922,1.325,3.913,1.964,5.956.121.391.243.781.364,1.177.887,2.883,1.727,5.861,2.487,8.881.391,1.568.766,3.142,1.109,4.726v.005a96.352,96.352,0,0,1,2.418,19.975" transform="translate(-0.207 -95.658)" fill="#ea5b5a"/>
        <path id="Trazado_115858" data-name="Trazado 115858" d="M107.893,275l-3.707,5.56-.855,1.278q-.158.238-.333.459l-.016.016a.005.005,0,0,0-.005.005,7.04,7.04,0,0,1-3.126,2.255l-.892.322-6.1,2.223-21.163,7.693-4.018,1.463a7.064,7.064,0,0,0-4.552,5.365,7.091,7.091,0,0,0-.121,1.3V338.5c-1.69-.713-3.327-1.431-4.926-2.16q-3.382-1.521-6.51-3.073l-1.774-.882q-3.675-1.869-7-3.749c-.359-.206-.718-.407-1.072-.613q-3.429-1.972-6.489-3.955l1.943-12.609a7.1,7.1,0,0,0-5.3-7.963l-24.22-6.056-1.045-.259c-.058-.6-.106-1.2-.148-1.811,0-.005-.005-.01,0-.016a.019.019,0,0,1-.005-.016,47.023,47.023,0,0,1-4.113-10.281c-.132-.491-.248-.977-.359-1.457l4.451,1.114,2.313.581,19.711,4.926a7.1,7.1,0,0,0,8.813-6.632l.7-19.51a14.183,14.183,0,0,0-2.978-9.219l-7.4-9.515-.327-.422c1.336-1.336,2.682-2.656,4.029-3.944.523-.507,1.051-1,1.573-1.5.734-.692,1.457-1.368,2.186-2.049h.011v-.005c.3-.275.6-.549.892-.813l.005-.005a.114.114,0,0,1,.021-.026l.005-.005c.5-.449.993-.9,1.484-1.346.143-.127.28-.253.422-.38l.206.253.021.026,1.209,1.489.005.011,3.675,4.52a7.09,7.09,0,0,0,11.231-.28L72.04,216.6l.005-.005c.037.132.074.259.106.391s.074.269.111.407a.04.04,0,0,1,.011.026c.137.5.285,1.009.433,1.547.053.174.1.359.153.539.058.2.116.4.174.607.232.8.475,1.647.729,2.524.048.158.1.322.143.486.021.069.042.143.063.216s.048.148.069.222c.9,3.057,1.948,6.505,3.142,10.265l-.005.005L62.214,255.022a14.2,14.2,0,0,0-2.593,8.691l.433,12.065a7.1,7.1,0,0,0,9.584,6.394l.169-.063,1-.375.011-.005,9.33-3.5,2.936-1.1,9.362-3.511a7.2,7.2,0,0,0,2.793-1.906l8.036-8.966c.148.359.3.723.449,1.1.058.158.121.317.19.48.253.644.517,1.3.787,1.991.127.338.264.686.4,1.035.063.174.132.354.2.528.048.121.09.243.137.37q.238.618.475,1.251l.206.554q.586,1.576,1.177,3.242c.063.174.121.349.185.523v.005c.137.391.275.776.412,1.172" transform="translate(-0.938 -102.228)" fill="#e04b4b"/>
        <path id="Trazado_115859" data-name="Trazado 115859" d="M32.23,259.753c-.032.032-.063.069-.1.1-.5.533-.993,1.072-1.489,1.61-1.283,1.4-2.55,2.82-3.786,4.256-10.476,12.16-18.887,25.313-20.91,37.653-.1.576-.174,1.146-.243,1.716a32.943,32.943,0,0,0-.222,3.791q0,3.556.243,6.833a47.022,47.022,0,0,1-4.113-10.281c-.132-.491-.248-.977-.359-1.457-.148-.634-.275-1.257-.385-1.869-.185-1.035-.327-2.043-.433-3.01.216-.438.444-.871.681-1.309a91.972,91.972,0,0,1,5.412-8.918c.422-.618.85-1.236,1.288-1.853.032-.042.058-.084.09-.127.216-.3.433-.6.655-.9,1.156-1.6,2.371-3.189,3.627-4.768.48-.6.961-1.2,1.452-1.8q1.964-2.392,4.05-4.747c.269-.306.544-.612.818-.919.544-.612,1.1-1.22,1.653-1.827q.784-.855,1.579-1.7c.037-.037.069-.069.1-.106l.85-.9q1.695-1.782,3.432-3.527c.29-.29.576-.581.866-.866.581-.581,1.156-1.151,1.742-1.721s1.162-1.13,1.748-1.69a.949.949,0,0,1,.074-.069v-.005q.832-.8,1.674-1.589" transform="translate(-0.207 -122.599)" fill="#e04b4b"/>
        <path id="Trazado_115860" data-name="Trazado 115860" d="M170.872,441.613a26.778,26.778,0,0,1-3.664,5.153,24.832,24.832,0,0,1-2.64,2.529l-.005.005a32.513,32.513,0,0,1-12.493,6.231c-8.063-2.466-15.434-5.016-22.171-7.625-.269-.1-.539-.206-.8-.311-.708-.275-1.415-.549-2.107-.829h19.854q1.98,0,3.907-.1h.032a58.944,58.944,0,0,0,9.958-1.3,37.963,37.963,0,0,0,10.133-3.759" transform="translate(-59.936 -208.433)" fill="#e04b4b"/>
        <path id="Trazado_115861" data-name="Trazado 115861" d="M228.034,469.393a.019.019,0,0,1,.016.005c-.011,0-.021.005-.032.005a.041.041,0,0,1,.016-.01" transform="translate(-107.62 -221.545)" fill="#ea5b5a"/>
        <path id="Trazado_115862" data-name="Trazado 115862" d="M293.326,288.138v.005c-.005.311-.011.607-.021.9a31.81,31.81,0,0,1-1.273,7.63c-.053.174-.1.343-.153.512v.005a53.4,53.4,0,0,1-6.753,13.686c-.3.449-.6.9-.908,1.336a94.933,94.933,0,0,1-12.551,14.557q-.531.515-1.077,1.014c-.665.628-1.336,1.236-2.012,1.837-.475.422-.956.845-1.441,1.262q-1.529,1.315-3.131,2.508-1.584,1.18-3.226,2.26-1.117.729-2.255,1.42c-2.371,1.447-4.821,2.772-7.308,4.029-1.283.65-2.577,1.278-3.876,1.9-2.255,1.072-4.53,2.117-6.8,3.173-.206.1-.407.19-.613.28q-7.445,3.445-15.059,6.521h-.005q-1.521.626-3.057,1.22-4.736,1.869-9.525,3.6a.3.3,0,0,1-.063.021q-5.647,2.043-11.368,3.876c-.005.005-.005.005-.005,0s-.016.011-.026.011q-1.236-.341-2.424-.76a.337.337,0,0,1-.037-.011,31.01,31.01,0,0,1-9.679-5.344c-.011-.011-.021-.016-.026-.026-.465-.385-.913-.787-1.352-1.209-.222-.211-.438-.433-.655-.649-.053-.058-.111-.116-.164-.174-.037-.037-.079-.079-.116-.121-.127-.127-.243-.253-.359-.38-.407-.449-.8-.908-1.172-1.389l-.005-.005c-.148-.2-.3-.391-.449-.586s-.29-.4-.438-.607c-.216-.312-.428-.623-.634-.945-.164-.259-.327-.517-.481-.787-.037-.063-.074-.121-.111-.185a.227.227,0,0,0-.021-.037q-.285-.491-.554-1c-.18-.348-.359-.7-.533-1.061-.116-.243-.227-.486-.338-.734q-.135-.3-.269-.618a33.731,33.731,0,0,1-1.531-4.562c-.063-.232-.121-.47-.18-.713s-.111-.47-.164-.708c-.058-.264-.116-.533-.169-.808-.063-.3-.116-.607-.174-.914a1.251,1.251,0,0,1-.021-.148l-.005-.005c-.042-.232-.079-.47-.116-.713-.058-.343-.106-.686-.153-1.035-.042-.333-.084-.665-.121-1.009-.037-.322-.069-.644-.1-.972-.026-.269-.048-.533-.069-.808-.021-.259-.042-.523-.053-.792-.026-.391-.048-.792-.063-1.193-.011-.269-.021-.539-.026-.813-.011-.2-.016-.4-.016-.6-.005-.364-.011-.734-.011-1.1,0-.771.016-1.537.042-2.3q.071-2.107.28-4.166c.037-.407.084-.813.132-1.22.063-.554.132-1.109.211-1.658.037-.275.079-.549.121-.824.375-2.466.871-4.868,1.457-7.186.1-.38.2-.755.3-1.13s.206-.76.312-1.135.216-.75.327-1.119c.137-.454.275-.908.422-1.362.084-.28.174-.56.269-.834.116-.359.238-.718.359-1.077s.248-.708.37-1.056c.148-.417.3-.829.449-1.236s.306-.808.459-1.209c.2-.507.4-1,.6-1.494.623-1.537,1.273-3,1.927-4.4a.005.005,0,0,1,.005-.005c.174-.37.348-.734.528-1.093s.343-.7.512-1.04c.148-.3.3-.591.444-.882s.29-.576.438-.855c.586-1.125,1.172-2.186,1.737-3.179q.15-.269.3-.523c.185-.312.364-.618.539-.914v-.005a74.908,74.908,0,0,1,5.206-7.788s.18.359.517.977c.042.079.084.158.132.243s.1.174.148.264c.1.185.211.375.333.581,0,.005.005.011.005.016.164.28.343.576.533.892q.15.254.317.523c.554.9,1.22,1.917,1.975,2.983a36,36,0,0,0,8.237,8.649c6.674-17.308,22.847-33.049,33.767-42.226,2.075-1.748,3.955-3.253,5.549-4.488,1.051-.818,1.975-1.515,2.746-2.086.111-.079.216-.158.322-.238.121-.09.232-.174.343-.253.079-.058.164-.116.238-.174.232-.169.444-.322.628-.454.1-.069.19-.132.275-.2.127-.084.232-.164.322-.227.259-.185.4-.28.4-.28s.407.259,1.141.76l.375.253c.143.1.3.211.47.327.079.058.158.111.243.169.813.576,1.822,1.3,2.983,2.175.121.085.238.18.359.269.486.364,1,.755,1.531,1.172,2.08,1.616,4.5,3.591,7.1,5.9a130.888,130.888,0,0,1,12.467,12.577q1.141,1.323,2.255,2.7a.075.075,0,0,0,.011.016,98.7,98.7,0,0,1,6.563,9.1c.787,1.241,1.542,2.5,2.265,3.786.238.428.475.861.713,1.294a.267.267,0,0,0,.048.084l.523,1v.016c.6,1.162,1.188,2.339,1.727,3.538" transform="translate(-84.026 -114.693)" fill="#ea5b5a"/>
        <path id="Trazado_115863" data-name="Trazado 115863" d="M326.5,284.585v4.288a7.105,7.105,0,0,1-3.189,5.924l-22.795,15.038a7.1,7.1,0,0,0-3.158,6.569l1.547,16.992q-1.584,1.18-3.226,2.26-1.117.729-2.255,1.42c-2.371,1.447-4.821,2.772-7.308,4.029-1.283.65-2.577,1.278-3.876,1.9-2.255,1.072-4.53,2.117-6.8,3.173-.206.1-.407.19-.612.28l1.193-13.105a14.2,14.2,0,0,0-5.623-12.641l-18.428-13.824v-14.2l7.1,5.322,8.7,6.526a7.095,7.095,0,0,0,11.326-5.032l1.267-13.913V248.357c.644-.512,1.257-1,1.832-1.441,1.2-.929,2.239-1.711,3.063-2.329.121-.09.232-.174.343-.253.079-.058.164-.116.238-.174.232-.164.443-.317.628-.454.1-.069.19-.132.275-.2.127-.084.232-.164.322-.227.259-.185.4-.28.4-.28s.407.259,1.14.76l.375.253c.143.1.3.211.47.327.079.058.158.111.243.169.813.576,1.822,1.3,2.983,2.175.121.085.238.18.359.269.486.364,1,.755,1.531,1.172v37.463l.132,1.457a7.1,7.1,0,0,0,10.618,5.5c.121-.074.243-.148.364-.227l7-4.625a7.1,7.1,0,0,0,3.179-5.919V268.675c.169.2.327.4.491.607l.005.005a98.177,98.177,0,0,1,6.606,9.151q1.172,1.845,2.265,3.77c.238.428.475.861.713,1.294a.267.267,0,0,0,.048.084Z" transform="translate(-118.924 -114.693)" fill="#e04b4b"/>
        <path id="Trazado_115864" data-name="Trazado 115864" d="M281.2,245.929l-23.8-23.8v-9.178a3.549,3.549,0,0,0-7.1,0v7.1H234.026l-9.607-9.607a3.549,3.549,0,0,0-5.019,5.019l8.138,8.137-8.138,8.138a3.549,3.549,0,0,0,5.019,5.019l9.607-9.607h18.355l23.8,23.8a3.548,3.548,0,0,0,5.018-5.018" transform="translate(-103.062 -98.832)" fill="#fdb74d"/>
        <path id="Trazado_115865" data-name="Trazado 115865" d="M228.034,469.393a.019.019,0,0,1,.016.005c-.011,0-.021.005-.032.005a.041.041,0,0,1,.016-.01" transform="translate(-107.62 -221.545)" fill="#e04b4b"/>
        <path id="Trazado_115866" data-name="Trazado 115866" d="M222.413,384.579c.808.053,1.626.1,2.45.127q-1.521.626-3.057,1.22-4.736,1.869-9.525,3.6a.3.3,0,0,1-.063.021q-5.647,2.043-11.368,3.876c-.005.005-.005.005-.005,0s-.016.01-.026.01q-1.236-.341-2.424-.76a.345.345,0,0,1-.037-.011,31.011,31.011,0,0,1-9.679-5.344c-.011-.011-.021-.016-.026-.026-.465-.385-.913-.787-1.352-1.209s-.882-.866-1.294-1.325-.8-.908-1.172-1.389l-.005-.005c-.148-.2-.3-.391-.449-.586s-.29-.4-.438-.607a27.807,27.807,0,0,1-2.334-4.013c-.116-.243-.227-.486-.338-.734q-.135-.3-.269-.618a33.731,33.731,0,0,1-1.531-4.562c-.063-.232-.121-.47-.18-.713s-.111-.47-.164-.708c-.058-.264-.116-.533-.169-.808-.063-.3-.116-.607-.174-.913a1.253,1.253,0,0,1-.021-.148l-.005-.005c-.042-.232-.079-.47-.116-.713-.058-.343-.106-.686-.153-1.035-.042-.333-.084-.665-.121-1.008-.037-.322-.069-.644-.1-.972-.026-.269-.048-.533-.069-.808-.021-.259-.042-.523-.053-.792-.026-.391-.048-.792-.063-1.193-.011-.269-.021-.539-.026-.813-.011-.2-.016-.4-.016-.6-.005-.364-.011-.734-.011-1.1,0-.771.016-1.537.042-2.3q.071-2.107.28-4.166c.037-.407.084-.813.132-1.22.063-.554.132-1.109.211-1.658.037-.275.079-.549.121-.824.375-2.466.871-4.868,1.457-7.186.1-.38.2-.755.3-1.13s.206-.76.312-1.135.216-.75.327-1.119c.137-.454.275-.908.422-1.362.084-.28.174-.56.269-.834.116-.359.238-.718.359-1.077s.248-.707.37-1.056q.444-1.251.908-2.445c.2-.507.4-1,.6-1.494.623-1.537,1.273-3,1.927-4.4a.005.005,0,0,1,.005-.005c1.526-3.253,3.084-6.109,4.5-8.485v-.005a74.9,74.9,0,0,1,5.206-7.788s.18.359.517.977c.042.079.084.158.132.243s.1.174.148.264c.1.185.211.375.333.581,0,.005.005.011.005.016.164.275.338.576.533.892q.15.253.317.523a93.517,93.517,0,0,0-4.816,11.426c-.275.787-.533,1.584-.787,2.392q-.776,2.479-1.415,5.106a75.11,75.11,0,0,0-1.484,7.894,67.353,67.353,0,0,0-.581,8.723,49.191,49.191,0,0,0,1.336,11.917,29.082,29.082,0,0,0,7.149,13.475,26.9,26.9,0,0,0,5.386,4.324,37.3,37.3,0,0,0,12.461,4.647h.011c.19.042.38.079.576.111a.067.067,0,0,0,.032.005,58.806,58.806,0,0,0,6.785.84" transform="translate(-84.026 -146.419)" fill="#e04b4b"/>
        <path id="Trazado_115867" data-name="Trazado 115867" d="M334.568,275.451v.005c-.005.312-.011.607-.021.9a31.81,31.81,0,0,1-1.273,7.63c-.053.174-.1.343-.153.512v.005l-19.162,12.641a7.1,7.1,0,0,0-3.163,6.569l1.035,11.384c-.665.628-1.336,1.236-2.012,1.837-.475.422-.956.845-1.441,1.262q-1.529,1.315-3.131,2.508-1.584,1.18-3.226,2.26-1.117.729-2.255,1.42c-2.371,1.447-4.821,2.772-7.308,4.029-1.283.649-2.577,1.278-3.876,1.9l1.236-13.6a7.1,7.1,0,0,0-2.809-6.32l-21.6-16.2V280l10.65,7.989,5.148,3.86a6.615,6.615,0,0,0,.713.47,7.1,7.1,0,0,0,10.618-5.5l1.262-13.913V216.123l4.588,4.589,5.021,5.016L308,230.316v42.59l.132,1.457a7.1,7.1,0,0,0,10.983,5.275l7-4.625a7.1,7.1,0,0,0,3.184-5.919V255.159l1.853-1.236.011-.005.935-.623q.214,1.236.412,2.439a.1.1,0,0,1,.005.037v.005c.032.153.053.306.079.459q.119.76.238,1.5c0,.011.005.016.005.021.021.132.037.259.058.391a.09.09,0,0,1,.005.037c.121.781.243,1.552.354,2.313q.246,1.663.449,3.253a87.314,87.314,0,0,1,.871,11.7" transform="translate(-125.268 -102.006)" fill="#fedc72"/>
        <path id="Trazado_115868" data-name="Trazado 115868" d="M300.463,373.821l-.7,7.667c-2.371,1.447-4.821,2.772-7.308,4.029-1.283.65-2.577,1.278-3.876,1.9l1.236-13.6a7.1,7.1,0,0,0-2.809-6.32l-21.6-16.2V337.1l10.65,7.989v2.661a7.017,7.017,0,0,0,.412,2.371,7.1,7.1,0,0,0,2.424,3.305L297.654,367.5a7.084,7.084,0,0,1,2.809,6.32" transform="translate(-125.268 -159.106)" fill="#fdb74d"/>
        <path id="Trazado_115869" data-name="Trazado 115869" d="M380.479,267.125a11.4,11.4,0,0,1-2.878.5c-.116.005-.238.011-.359.011s-.243.011-.364.011a10.274,10.274,0,0,1-6.563-2.07.078.078,0,0,1-.011-.016.109.109,0,0,1-.032-.021l-.005-.005c-.169-.137-.333-.28-.491-.433a9.238,9.238,0,0,1-1.727-2.244,17.314,17.314,0,0,1-1.822-8.517c0-6.88,5.254-15.038,8.38-19.283.8,4.3,1.679,8.855,2.561,13.449.1.512.2,1.03.29,1.542v.005c.037.18.069.354.106.533.465,2.466.924,4.932,1.362,7.361.259,1.441.512,2.872.75,4.282v.005q.214,1.236.412,2.439a.1.1,0,0,1,.005.037v.005c.032.153.053.306.079.459q.119.76.238,1.5c0,.011.005.016.005.021.021.132.037.259.058.391a.09.09,0,0,1,.005.037" transform="translate(-172.853 -110.941)" fill="#ea5b5a"/>
        <path id="Trazado_115870" data-name="Trazado 115870" d="M380.474,267.088a10.935,10.935,0,0,1-2.872.533c-.116.005-.238.011-.359.011s-.243.011-.364.011a10.274,10.274,0,0,1-6.563-2.07.078.078,0,0,1-.011-.016.109.109,0,0,1-.032-.021l-.005-.005c-.169-.137-.333-.28-.491-.433a9.238,9.238,0,0,1-1.727-2.244,17.314,17.314,0,0,1-1.822-8.517c0-6.88,5.254-15.038,8.38-19.283.8,4.3,1.679,8.855,2.561,13.449.1.512.2,1.03.29,1.542v.005c-.026.116-.058.232-.079.349-.085.333-.153.665-.211,1-.063.317-.111.634-.153.945-.026.2-.048.4-.069.6-.016.158-.026.311-.037.47s-.016.3-.021.444-.011.322-.011.48c0,.412.011.813.026,1.2q.008.293.032.57c.011.19.026.375.042.554.042.454.09.887.158,1.3.021.158.042.312.074.465s.058.3.084.449c.058.3.127.581.2.861.042.148.079.3.121.438a11.974,11.974,0,0,0,1.114,2.682,9.3,9.3,0,0,0,1.362,1.848v.005c.032.153.053.306.079.459q.119.76.238,1.5c0,.011.005.016.005.021.021.132.037.259.058.391" transform="translate(-172.853 -110.941)" fill="#e04b4b"/>
        <path id="Trazado_115871" data-name="Trazado 115871" d="M224.166,386.747a28.057,28.057,0,0,1-1.753,10.476c-.19.465-.391.913-.607,1.346q-4.736,1.869-9.525,3.6a.3.3,0,0,1-.063.021q-5.647,2.044-11.368,3.876c-.005.005-.005.005-.005,0q-1.243-.341-2.434-.76a.048.048,0,0,1-.037-.016,30.848,30.848,0,0,1-9.684-5.333h-.005c-.011-.011-.021-.016-.026-.026-.465-.385-.919-.787-1.357-1.2s-.871-.866-1.283-1.325c-.412-.444-.8-.908-1.183-1.389l-.005-.005c-.148-.2-.3-.391-.449-.586s-.29-.4-.438-.607a28.829,28.829,0,0,1-2.334-4.013c-.116-.243-.227-.486-.338-.734q-.135-.3-.269-.618a33.733,33.733,0,0,1-1.531-4.562c-.063-.232-.121-.47-.18-.713s-.111-.47-.164-.708c-.058-.264-.116-.533-.169-.808-.063-.3-.116-.607-.174-.913a1.25,1.25,0,0,1-.021-.148l-.005-.005c-.042-.232-.079-.47-.116-.713-.058-.343-.106-.686-.153-1.035-.042-.333-.084-.665-.121-1.009-.037-.322-.069-.644-.1-.972-.026-.269-.048-.533-.069-.808-.021-.259-.042-.523-.053-.792-.026-.391-.048-.792-.063-1.193-.011-.269-.021-.539-.026-.813-.011-.2-.016-.4-.016-.6-.005-.364-.011-.734-.011-1.1,0-.771.016-1.537.042-2.3q.071-2.107.28-4.166c.037-.407.084-.813.132-1.22.063-.554.132-1.109.211-1.658.037-.275.079-.549.121-.824.375-2.466.871-4.868,1.457-7.186.1-.38.2-.755.3-1.13s.206-.76.312-1.135.216-.75.327-1.119c.137-.454.275-.908.422-1.362.084-.28.174-.56.269-.834.116-.359.238-.718.359-1.077s.248-.708.37-1.056c.3-.829.6-1.637.913-2.434q.293-.76.6-1.5c.634-1.542,1.283-3.02,1.943-4.42.343-.729.681-1.431,1.024-2.117.053.127.106.253.164.38.581,1.383,1.209,2.83,1.869,4.335q.768,1.735,1.6,3.559c.681,1.484,1.394,3.01,2.138,4.562.755,1.573,1.542,3.173,2.355,4.784a15.783,15.783,0,0,1,1.669-2.054v-.005a33.53,33.53,0,0,1,7.429-5.592,50.132,50.132,0,0,1,5.639-2.82s14.193,26.121,14.193,42.585" transform="translate(-84.026 -159.064)" fill="#e04b4b"/>
        <path id="Trazado_115872" data-name="Trazado 115872" d="M383.588,279.969a6.363,6.363,0,0,1-1.072.491,1.558,1.558,0,0,1-.264.09,4.187,4.187,0,0,1-.438.132c-.074.021-.148.042-.222.058-.026.005-.058.005-.084.011a7.463,7.463,0,0,1-1.093.153c-.121.005-.243.011-.364.011a7.1,7.1,0,0,1-7.1-7.1c0-3.918,7.1-10.645,7.1-10.645s.211.206.5.5c.058.053.116.116.185.185.465,2.466.924,4.932,1.362,7.361.259,1.441.512,2.872.75,4.282v.005q.214,1.236.412,2.439a.1.1,0,0,1,.005.037v.005c.032.153.053.306.079.459q.119.76.238,1.5c0,.011.005.016.005.021" transform="translate(-176.024 -124.213)" fill="#fedc72"/>
        <path id="Trazado_115873" data-name="Trazado 115873" d="M383.582,279.948a6.4,6.4,0,0,1-1.067.512,1.558,1.558,0,0,1-.264.09,4.187,4.187,0,0,1-.438.132c-.074.021-.148.042-.222.058-.026.005-.058.005-.084.011a10.983,10.983,0,0,1-1.457.164,7.1,7.1,0,0,1-7.1-7.1c0-3.918,7.1-10.645,7.1-10.645s.211.206.5.5c-.079.333-.148.665-.211,1-.063.317-.111.634-.153.945-.026.2-.048.4-.069.6-.016.158-.026.311-.037.47s-.016.3-.021.444-.011.322-.011.481c0,.412.011.813.026,1.2q.008.293.032.57c.01.19.026.375.042.554.042.454.09.887.158,1.3.021.158.048.311.074.465s.058.3.084.449c.063.3.132.581.2.861.042.148.079.3.121.438a12.293,12.293,0,0,0,1.125,2.677,9.373,9.373,0,0,0,1.346,1.816.1.1,0,0,1,.005.037v.005c.032.153.053.306.079.459q.119.76.238,1.5" transform="translate(-176.024 -124.213)" fill="#fdb74d"/>
        <path id="Trazado_115874" data-name="Trazado 115874" d="M16.264,130.364A82.611,82.611,0,0,0,13.6,117.327l8.744-8.744-3.094,13.934c0,.005-.005.005-.005.011l-2.661,11.986c-.037-.37-.069-.734-.1-1.1-.058-.723-.111-1.426-.148-2.128-.021-.3-.048-.6-.074-.913Z" transform="translate(-6.418 -51.249)" fill="#fedc72"/>
        <path id="Trazado_115875" data-name="Trazado 115875" d="M122.987,197.306v12.049a7.1,7.1,0,0,1-1.188,3.934l-5.5,8.242-6.215,9.325c-.069.1-.137.2-.211.3a6.789,6.789,0,0,1-1.151,1.214,7.1,7.1,0,0,1-2.123,1.225l-.892.322-5,1.822h-.005l-1.1.4-6.083,2.212-19.1,6.943a7.1,7.1,0,0,0-4.673,6.669v38.45c-.708-.275-1.415-.549-2.107-.829-1.706-.686-3.369-1.368-4.99-2.059-1.69-.713-3.327-1.431-4.926-2.16q-3.382-1.521-6.51-3.073l-1.774-.882q-3.675-1.869-7-3.749c-.359-.206-.718-.407-1.072-.612l2.55-16.564a7.079,7.079,0,0,0-1.98-6.077q-.1-.1-.206-.206a7.16,7.16,0,0,0-3.11-1.679L6.137,244.395H6.121c0-.005-.005-.011,0-.016a.019.019,0,0,1-.005-.016A47.023,47.023,0,0,1,2,234.083c-.132-.491-.248-.977-.359-1.457-.148-.634-.275-1.257-.385-1.869l5.08,1.267,1.056.264,25.635,6.41,2.186.549a7.04,7.04,0,0,0,5.93-1.183h.011a5.208,5.208,0,0,0,.591-.491,7.714,7.714,0,0,0,.544-.554,3.26,3.26,0,0,0,.248-.3l.174-.238a11.778,11.778,0,0,0,.322-.491c.053-.084.1-.169.148-.253a3.179,3.179,0,0,0,.18-.354c.058-.121.111-.238.158-.364.037-.084.069-.174.1-.264s.063-.18.09-.269c.048-.148.09-.3.121-.444.032-.116.058-.232.079-.354.021-.106.037-.211.053-.322a6.936,6.936,0,0,0,.069-.75l.7-19.51a14.217,14.217,0,0,0-2.983-9.219L31.033,190.114,30.948,190,30.943,190v-.005l-2.651-3.406-.137-.174-7.936-10.207-9.425-12.118c.222-2.17.385-4.2.512-6.088v-.005c.153-2.392.243-4.578.275-6.584.021-.956.026-1.869.021-2.751v-.005c-.005-1.869-.058-3.569-.137-5.143-.011-.174-.016-.348-.026-.517.048.063.1.127.148.19l5.085,6.257v.005l3.443,4.235,5.544,6.822,12.488,15.371v.005h.005v.005l2.5,3.073.037.048.982,1.209,2.529,3.115.016.021,5.544,6.822a7.089,7.089,0,0,0,11.231-.28l12.694-17.308.005-.005,19.531-26.633a7.1,7.1,0,0,0,1.373-4.2V108.583l3.554,3.554,7.1,7.091,1.468,1.468a7.1,7.1,0,0,1,2.08,5.021v19.648a7.112,7.112,0,0,1-1.3,4.1L79.072,189.729,68.966,204.044a14.194,14.194,0,0,0-2.587,8.691l.428,12.065A7.059,7.059,0,0,0,70,230.476c.148.1.306.19.465.28a6.85,6.85,0,0,0,1.389.586,6.974,6.974,0,0,0,3.543.148,7.209,7.209,0,0,0,1-.3l.158-.058,3.469-1.3,8.411-3.152,6.157-2.313,4.6-1.727a7.118,7.118,0,0,0,2.793-1.906l3.1-3.464.005-.005Z" transform="translate(-0.594 -51.249)" fill="#fedc72"/>
        <path id="Trazado_115876" data-name="Trazado 115876" d="M16.264,130.364A82.611,82.611,0,0,0,13.6,117.327l8.744-8.744-3.094,13.934c0,.005-.005.005-.005.011a6.9,6.9,0,0,0-.977,1.838Z" transform="translate(-6.418 -51.249)" fill="#fdb74d"/>
        <path id="Trazado_115877" data-name="Trazado 115877" d="M63.9,251.387l-.7,19.51a7.1,7.1,0,0,1-8.813,6.632l-4.71-1.183h-.011q.309-.23.6-.491a7.722,7.722,0,0,0,.544-.554c.084-.1.169-.2.248-.3l.174-.238a11.7,11.7,0,0,0,.322-.491c.053-.084.1-.169.148-.253.063-.116.121-.232.18-.354a3.8,3.8,0,0,0,.158-.364c.037-.085.069-.174.1-.264s.063-.18.09-.269c.048-.148.09-.3.121-.444.032-.116.058-.232.079-.354.021-.106.037-.211.053-.322a6.937,6.937,0,0,0,.069-.75l.7-19.51a14.218,14.218,0,0,0-2.983-9.219L39.557,228.4l-.084-.111-.005-.005v-.005l-2.651-3.406-.137-.174-7.936-10.207-9.425-12.118c.222-2.17.385-4.2.512-6.088v-.005c.153-2.392.243-4.578.275-6.584l1.954,2.513,7.862,10.106,1.072,1.378,5.872,7.556.005.005.053.063,8.718,11.215.011.005.2.259.021.021.993,1.278.011.011,14.045,18.064a14.188,14.188,0,0,1,2.983,9.219" transform="translate(-9.118 -89.532)" fill="#fdb74d"/>
        <path id="Trazado_115878" data-name="Trazado 115878" d="M54.572,369.69,51.219,391.5l-1.774-.882q-3.675-1.869-7-3.749c-.359-.206-.718-.407-1.072-.612l2.55-16.564a7.079,7.079,0,0,0-1.98-6.077q-.1-.1-.206-.206a7.16,7.16,0,0,0-3.11-1.679L6.137,353.6H6.121c0-.005-.005-.011,0-.016a.019.019,0,0,1-.005-.016A47.023,47.023,0,0,1,2,343.29c-.132-.491-.248-.977-.359-1.457-.148-.634-.275-1.257-.385-1.869l5.08,1.267,1.056.264,1.014,2.033,3.1,6.2a7.083,7.083,0,0,0,4.625,3.712l33.144,8.285a7.088,7.088,0,0,1,5.291,7.962" transform="translate(-0.594 -160.456)" fill="#fdb74d"/>
        <path id="Trazado_115879" data-name="Trazado 115879" d="M135.719,343.912l-19.1,6.944a7.1,7.1,0,0,0-4.673,6.669v38.45c-.708-.275-1.415-.549-2.107-.829-1.706-.686-3.369-1.368-4.99-2.059-1.69-.713-3.327-1.431-4.926-2.16-2.255-1.014-4.425-2.043-6.51-3.073l-1.774-.882a43.086,43.086,0,0,1-.982-9.573c0-5.064,1.885-10.814,4.794-16.664,4.166-8.385,10.423-16.971,16.2-24.041.174-.222.354-.438.533-.655l.005-.005a5.242,5.242,0,0,0,.47.28,6.905,6.905,0,0,0,1.378.591,6.975,6.975,0,0,0,3.543.148,7.212,7.212,0,0,0,1-.3l.158-.058,3.469-1.3,8.411-3.152c1.156,2.825,2.524,6.025,4.076,9.457q.5,1.093,1.014,2.212" transform="translate(-42.789 -156.813)" fill="#fdb74d"/>
        <path id="Trazado_115880" data-name="Trazado 115880" d="M228.034,469.393a.019.019,0,0,1,.016.005c-.011,0-.021.005-.032.005a.041.041,0,0,1,.016-.01" transform="translate(-107.62 -221.545)" fill="#ea5b5a"/>
        <path id="Trazado_115881" data-name="Trazado 115881" d="M182.176,374.1a29.039,29.039,0,0,1-1.441,9.636,16.876,16.876,0,0,1-3.348,5.782.3.3,0,0,1-.063.021q-5.647,2.043-11.368,3.876c-.005.005-.005.005-.005,0s-.016.01-.026.01q-3.152,1.022-6.32,1.97H147.586q-3.224-.927-6.3-1.869c-.005-.005-.016-.005-.021-.011-8.063-2.466-15.434-5.016-22.172-7.625-.269-.1-.539-.206-.8-.312-.708-.275-1.415-.549-2.107-.829-1.706-.686-3.369-1.368-4.99-2.059-1.69-.713-3.327-1.431-4.926-2.16a37.809,37.809,0,0,1-2.17-13.528c0-6.363,2.983-13.813,7.218-21.179.829-1.436,1.705-2.872,2.614-4.3a163.277,163.277,0,0,1,11.162-15.223c1.1-1.352,2.191-2.651,3.247-3.881,6.246-7.292,11.247-12.2,11.247-12.2s.011.032.032.09a.6.6,0,0,0,.026.069c.021.058.048.137.079.227.021.069.048.137.079.222.354,1,1.146,3.184,2.329,6.2q.459,1.172,1,2.5c1.1,2.762,2.455,6.009,4.023,9.547.322.729.649,1.473.993,2.223.164.364.327.729.5,1.093,0,.005,0,.005.005.011,1.394,3.063,2.936,6.294,4.6,9.578a14.235,14.235,0,0,1,1.119-1.452,24.574,24.574,0,0,1,3.622-3.332c.956-.723,1.943-1.394,2.915-2a51.192,51.192,0,0,1,7.075-3.686s.56,1.035,1.463,2.82c3.622,7.192,12.736,26.575,12.736,39.765" transform="translate(-49.132 -146.419)" fill="#ea5b5a"/>
        <path id="Trazado_115882" data-name="Trazado 115882" d="M180.819,383.412c-.037.106-.074.216-.116.322a16.754,16.754,0,0,1-3.379,5.808q-5.647,2.043-11.368,3.876c-.005.005-.005.005-.005,0s-.016.01-.026.01q-3.152,1.022-6.32,1.97H147.586q-3.224-.927-6.3-1.869c-.005-.005-.016-.005-.021-.011-8.063-2.466-15.434-5.016-22.172-7.625-.269-.1-.539-.206-.8-.312-.708-.275-1.415-.549-2.107-.829-1.706-.686-3.369-1.368-4.99-2.059-1.69-.713-3.327-1.431-4.926-2.16a37.809,37.809,0,0,1-2.17-13.528c0-6.363,2.983-13.813,7.218-21.179.829-1.436,1.705-2.872,2.614-4.3a163.277,163.277,0,0,1,11.162-15.223c1.1-1.352,2.191-2.651,3.247-3.881,6.246-7.292,11.247-12.2,11.247-12.2s.011.032.032.09a.6.6,0,0,0,.026.069c.021.058.048.137.079.227.021.069.048.137.079.222-2.677,3.094-5.623,6.658-8.528,10.492q-1.362,1.806-2.714,3.68a112.792,112.792,0,0,0-8.675,14c-3.1,6.088-5.143,12.092-5.143,17.356,0,6.986,1.288,12.4,3.548,16.538q.436.8.919,1.537c.011.011.016.016.016.026,3.205,4.853,7.915,7.693,13.491,9.108l.644.158c.216.058.433.106.655.148.438.1.882.18,1.331.259s.9.148,1.357.211c.238.032.475.063.713.09.116.016.232.026.348.042.253.026.507.053.766.074.465.048.94.085,1.415.111h.032c.121.011.243.016.37.021.28.016.56.026.84.037.338.016.671.021,1.009.026.312.01.628.01.94.01h28.392a30.211,30.211,0,0,0,8.591-1.13h.011c.232-.063.465-.137.692-.211" transform="translate(-49.132 -146.419)" fill="#e04b4b"/>
        <path id="Trazado_115883" data-name="Trazado 115883" d="M180.665,420.152a19.282,19.282,0,0,1-.174,2.666,11.381,11.381,0,0,1-4.288,7.9c-.005.005-.011.011-.016.011a13.391,13.391,0,0,1-5.861,2.408.414.414,0,0,0-.074.011c-.19.032-.38.063-.576.09-.18.026-.364.053-.554.074-.069.011-.143.016-.216.026-.153.016-.312.032-.47.042H168.4c-.206.021-.417.032-.623.042s-.433.021-.649.026-.438.011-.66.011h-6.2q-3.224-.927-6.3-1.869c-.005-.005-.016-.005-.021-.011-8.063-2.466-15.434-5.016-22.172-7.625-.1-.364-.2-.745-.28-1.141a24.988,24.988,0,0,1-.523-5.328c0-.2.005-.407.016-.612a16.173,16.173,0,0,1,.9-4.383c3.638-10.582,16.828-21.622,16.828-21.622s3.992,7.545,7.825,16.136l.005.005c.19.438.385.871.576,1.31,2.809-3.95,7.8-7.334,10.677-9.082,1.336-.808,2.212-1.267,2.212-1.267a64.261,64.261,0,0,1,6.347,9.145,33.985,33.985,0,0,1,3.976,9.921,16.289,16.289,0,0,1,.322,3.11" transform="translate(-61.819 -184.485)" fill="#fedc72"/>
        <path id="Trazado_115884" data-name="Trazado 115884" d="M180.438,442.132a11.446,11.446,0,0,1-4.272,7.889l-.016.016a13.5,13.5,0,0,1-5.824,2.418.414.414,0,0,0-.074.011c-.19.032-.38.063-.576.09-.18.026-.364.053-.554.074-.069.011-.143.016-.216.026-.153.016-.312.032-.47.042H168.4c-.206.021-.417.032-.623.042s-.433.021-.649.026-.438.011-.66.011h-6.2q-3.224-.927-6.3-1.869c-.005-.005-.016-.005-.021-.011-8.063-2.466-15.434-5.016-22.172-7.625-.1-.364-.2-.745-.28-1.141a24.988,24.988,0,0,1-.523-5.328c0-.2.005-.407.016-.613a16.485,16.485,0,0,1,.919-4.356c.005-.016.011-.026.016-.042,3.195,4.858,7.9,7.709,13.475,9.151l.644.158c.216.053.438.1.655.148.438.1.882.18,1.331.259s.9.148,1.357.211c.238.032.475.063.713.09.116.016.232.026.349.042.253.026.507.053.766.074.465.048.94.085,1.415.111h.032c.121.011.243.016.37.021.28.016.56.026.84.037.338.016.671.021,1.009.026.312.011.628.011.94.011h24.616Z" transform="translate(-61.819 -203.798)" fill="#fdb74d"/>
        <path id="Trazado_115885" data-name="Trazado 115885" d="M59.761,178.053a32.892,32.892,0,0,1-.639,6.738c-1.125,5.391-3.686,8.976-7.155,11.247a18.881,18.881,0,0,1-5.227,2.3c-.211.058-.428.116-.644.169s-.428.106-.649.148c-.655.143-1.32.264-2,.359-.269.037-.539.074-.808.106-.058.005-.111.016-.169.021h-.011c-.248.026-.5.048-.75.074-.232.016-.47.037-.708.053-.28.016-.554.032-.834.042-.2.011-.4.016-.6.021-.18.005-.364.011-.549.005h-.053c-.164.005-.333.011-.5.011-.818,0-1.632-.021-2.424-.074-9.071-.56-16.421-4.478-18.364-15.159.18-1.32.338-2.593.48-3.828v-.005q.214-1.814.385-3.506c.222-2.17.385-4.2.512-6.088v-.005a36.775,36.775,0,0,1,2.228-4.071c.09-.143.185-.29.275-.433s.169-.259.253-.385c.121-.19.243-.375.37-.565.158-.232.317-.465.48-.7.121-.174.243-.349.37-.523.106-.153.211-.3.322-.449s.216-.3.327-.449l.333-.444c.132-.174.264-.354.407-.533v-.005c.206-.269.417-.533.628-.8l.069-.084c.211-.269.428-.539.644-.808q.547-.665,1.109-1.331l.755-.882.032-.032c.243-.28.5-.565.745-.845a2.18,2.18,0,0,1,.148-.164c.3-.338.6-.671.908-1s.613-.665.924-.993.618-.66.935-.987.628-.649.945-.972.628-.644.95-.961l.459-.459c1.119-1.109,2.249-2.186,3.363-3.231.4-.37.8-.739,1.193-1.1l.7-.634c7.35-6.674,13.734-11.374,13.734-11.374s7.1,26.126,7.1,42.59" transform="translate(-8.344 -63.936)" fill="#ea5b5a"/>
        <path id="Trazado_115886" data-name="Trazado 115886" d="M58.4,197.523a16.006,16.006,0,0,1-6.447,8.66,18.618,18.618,0,0,1-5.217,2.313c-.211.063-.433.121-.649.169l-.639.158c-.655.143-1.32.264-2,.359-.269.037-.539.074-.808.106l-.169.016h-.005v.005h-.005c-.248.026-.5.048-.75.074-.232.016-.47.037-.708.053-.28.016-.554.032-.834.042-.2.011-.4.016-.6.021-.18.005-.364.011-.549.005h-.053c-.164.005-.333.011-.5.011-.818,0-1.632-.021-2.424-.074-9.071-.56-16.421-4.478-18.364-15.159.18-1.32.338-2.593.48-3.828v-.005q.214-1.814.385-3.506c.222-2.17.385-4.2.512-6.088v-.005a36.77,36.77,0,0,1,2.228-4.071c.09-.143.185-.29.275-.433s.169-.259.253-.385c.121-.19.243-.375.37-.565.158-.232.317-.465.48-.7.121-.174.243-.348.37-.523.106-.153.211-.3.322-.449s.216-.3.327-.449l.333-.444c.132-.174.264-.354.407-.533v-.005c.206-.269.417-.533.628-.8l.069-.084c.211-.269.428-.539.644-.808q.547-.665,1.109-1.331l.755-.882.032-.032c.243-.28.5-.565.745-.845a2.17,2.17,0,0,1,.148-.164c.3-.338.6-.671.908-1s.613-.665.924-.993.618-.66.935-.987.628-.649.945-.972.628-.644.95-.961l.459-.459c1.119-1.109,2.249-2.186,3.363-3.231.4-.37.8-.739,1.193-1.1l.7-.634c-5.835,6.579-10.56,13.607-11.062,19.531-.032.348-.048.7-.048,1.035a29.428,29.428,0,0,0,1.331,9.314,18.657,18.657,0,0,0,.766,1.959v.016a15.556,15.556,0,0,0,6.236,7.028,20.841,20.841,0,0,0,7.487,2.566c.486.084.977.148,1.473.2.248.032.5.053.75.074a.09.09,0,0,0,.037.005H45.9v.005q1.489.119,3.041.127h.169a33.318,33.318,0,0,0,5.813-.475,24.939,24.939,0,0,0,3.474-.866" transform="translate(-8.344 -74.102)" fill="#e04b4b"/>
        <path id="Trazado_115887" data-name="Trazado 115887" d="M58.177,211.417c0,9.8-4.767,13.309-10.647,13.309s-10.647-3.508-10.647-13.309,14.2-22.182,14.2-22.182,7.1,12.381,7.1,22.182" transform="translate(-17.408 -89.315)" fill="#fedc72"/>
        <path id="Trazado_115888" data-name="Trazado 115888" d="M58.007,227.3c-8.384-.034-15.593-2.573-19.007-10.046a16.668,16.668,0,0,0-2.117,7.389c0,9.8,4.767,13.309,10.647,13.309,5.3,0,9.666-2.9,10.477-10.652" transform="translate(-17.408 -102.538)" fill="#fdb74d"/>
        <path id="Trazado_115889" data-name="Trazado 115889" d="M323.77,71.136a3.548,3.548,0,1,0,5.018-5.018l-3.549-3.549a3.549,3.549,0,0,0-5.018,5.019Z" transform="translate(-150.648 -29.041)" fill="#ea5b5a"/>
        <path id="Trazado_115890" data-name="Trazado 115890" d="M289.124,125.947a3.537,3.537,0,0,0,2.509-1.04l3.549-3.549a3.549,3.549,0,0,0-5.019-5.018l-3.549,3.549a3.549,3.549,0,0,0,2.509,6.059" transform="translate(-134.786 -54.419)" fill="#ea5b5a"/>
        <path id="Trazado_115891" data-name="Trazado 115891" d="M101.964,77.857a3.548,3.548,0,0,0,5.018-5.018l-3.549-3.549a3.549,3.549,0,0,0-5.018,5.019Z" transform="translate(-45.959 -32.213)" fill="#ea5b5a"/>
        <path id="Trazado_115892" data-name="Trazado 115892" d="M26.989,72.176a3.547,3.547,0,0,0,3.549-3.549V65.078a3.549,3.549,0,0,0-7.1,0v3.549a3.547,3.547,0,0,0,3.549,3.549" transform="translate(-11.063 -29.041)" fill="#ea5b5a"/>
        <path id="Trazado_115893" data-name="Trazado 115893" d="M389.944,112.5a3.547,3.547,0,0,0,3.549-3.549v-3.549a3.549,3.549,0,1,0-7.1,0v3.549a3.547,3.547,0,0,0,3.549,3.549" transform="translate(-182.371 -48.075)" fill="#ea5b5a"/>
        <path id="Trazado_115894" data-name="Trazado 115894" d="M188.3,149.659a3.547,3.547,0,0,1-3.549-3.549v-7.1a3.549,3.549,0,1,1,7.1,0v7.1a3.547,3.547,0,0,1-3.549,3.549" transform="translate(-87.2 -63.936)" fill="#fff"/>
      </g>
    </g>
  </g>
</svg>
