<svg xmlns="http://www.w3.org/2000/svg" xmlns:xlink="http://www.w3.org/1999/xlink" width="371.77" height="273.171" viewBox="0 0 371.77 273.171">
  <defs>
    <clipPath id="clip-path">
      <rect id="Rectángulo_34816" data-name="Rectángulo 34816" width="81.539" height="81.161" fill="none"/>
    </clipPath>
    <clipPath id="clip-path-2">
      <rect id="Rectángulo_34815" data-name="Rectángulo 34815" width="81.539" height="81.162" fill="none"/>
    </clipPath>
    <clipPath id="clip-path-4">
      <rect id="Rectángulo_34813" data-name="Rectángulo 34813" width="50.091" height="49.86" fill="none"/>
    </clipPath>
    <clipPath id="clip-path-5">
      <rect id="Rectángulo_34814" data-name="Rectángulo 34814" width="23.113" height="23.006" fill="none"/>
    </clipPath>
    <clipPath id="clip-path-6">
      <rect id="Rectángulo_34819" data-name="Rectángulo 34819" width="15.453" height="15.453" fill="#fff"/>
    </clipPath>
    <clipPath id="clip-path-9">
      <rect id="Rectángulo_34834" data-name="Rectángulo 34834" width="209.304" height="250.064" fill="none"/>
    </clipPath>
  </defs>
  <g id="Grupo_81219" data-name="Grupo 81219" transform="translate(2690.667 9324.131)">
    <g id="Grupo_80910" data-name="Grupo 80910" transform="translate(-2641.799 -9324.131)" style="mix-blend-mode: multiply;isolation: isolate">
      <g id="Grupo_80857" data-name="Grupo 80857" clip-path="url(#clip-path)">
        <g id="Grupo_80856" data-name="Grupo 80856" transform="translate(0 0)">
          <g id="Grupo_80855" data-name="Grupo 80855" clip-path="url(#clip-path-2)">
            <g id="Grupo_80848" data-name="Grupo 80848" transform="translate(0 0)" opacity="0.17" style="isolation: isolate">
              <g id="Grupo_80847" data-name="Grupo 80847" transform="translate(0 0)">
                <g id="Grupo_80846" data-name="Grupo 80846" clip-path="url(#clip-path)">
                  <path id="Trazado_115734" data-name="Trazado 115734" d="M66.5,72.148a108.866,108.866,0,0,0,6.75-10.186c2.361-4.028,4.706-8.2,5.665-12.813.905-4.362,1.188-10.109-1.474-13.937C74.584,31.047,64.575,23.13,61.831,19.606c-2.227-2.859-6.495-9.85-7.791-14.761A4.913,4.913,0,0,0,49.9,1.25l-.094-.012a4.925,4.925,0,0,0-4.544,1.881c-1.421,1.866-4.269,4.353-9.68,5.291-5.42,1.01-12.8,1.663-14.315,2.065s-2.685,1.757-3.489,3.93-3.822,10.47-7.721,14.824A17.453,17.453,0,0,1,4.2,33.553,5,5,0,0,0,1.4,37l-.084.385A4.948,4.948,0,0,0,3.39,42.549,43.347,43.347,0,0,1,10.9,48.568c2.292,2.754,5.778,5.34,12.718,21.394.035.082.072.166.111.246.864,1.716,5.838,16.808,40.567,3.6A4.962,4.962,0,0,0,66.5,72.148Z" transform="translate(0.392 0.392)" fill="none" stroke="#5038a1" stroke-miterlimit="10" stroke-width="2.396"/>
                </g>
              </g>
            </g>
            <g id="Grupo_80851" data-name="Grupo 80851" transform="translate(16.563 16.452)" opacity="0.17" style="isolation: isolate">
              <g id="Grupo_80850" data-name="Grupo 80850">
                <g id="Grupo_80849" data-name="Grupo 80849" clip-path="url(#clip-path-4)">
                  <path id="Trazado_115735" data-name="Trazado 115735" d="M53.335,56.719a67.2,67.2,0,0,0,4.147-6.257,26.592,26.592,0,0,0,3.48-7.872c.556-2.679.73-6.21-.906-8.561-1.756-2.559-7.9-7.423-9.591-9.587a32.142,32.142,0,0,1-4.786-9.068,3.02,3.02,0,0,0-2.543-2.208l-.057-.008a3.027,3.027,0,0,0-2.792,1.156,9.086,9.086,0,0,1-5.947,3.25c-3.33.62-7.863,1.022-8.793,1.269A3.465,3.465,0,0,0,23.4,21.246c-.494,1.334-2.349,6.432-4.743,9.107a10.721,10.721,0,0,1-3.6,2.657,3.074,3.074,0,0,0-1.724,2.117l-.052.236a3.04,3.04,0,0,0,1.277,3.174,26.692,26.692,0,0,1,4.616,3.7c1.408,1.693,3.55,3.281,7.813,13.144.021.05.044.1.069.151.53,1.054,3.586,10.326,24.92,2.214A3.046,3.046,0,0,0,53.335,56.719Z" transform="translate(-12.24 -12.156)" fill="none" stroke="#5038a1" stroke-miterlimit="10" stroke-width="1.472"/>
                </g>
              </g>
            </g>
            <g id="Grupo_80854" data-name="Grupo 80854" transform="translate(30.773 30.566)" opacity="0.17" style="isolation: isolate">
              <g id="Grupo_80853" data-name="Grupo 80853">
                <g id="Grupo_80852" data-name="Grupo 80852" clip-path="url(#clip-path-5)">
                  <path id="Trazado_115736" data-name="Trazado 115736" d="M42.039,43.483A30.989,30.989,0,0,0,43.952,40.6a12.284,12.284,0,0,0,1.606-3.631,5.347,5.347,0,0,0-.418-3.951c-.811-1.181-3.648-3.425-4.426-4.423a14.852,14.852,0,0,1-2.208-4.184,1.392,1.392,0,0,0-1.173-1.019l-.027,0a1.4,1.4,0,0,0-1.287.533,4.194,4.194,0,0,1-2.744,1.5c-1.537.287-3.628.471-4.058.585a1.6,1.6,0,0,0-.989,1.113,14.949,14.949,0,0,1-2.188,4.2,4.944,4.944,0,0,1-1.66,1.226,1.415,1.415,0,0,0-.795.975l-.024.109a1.4,1.4,0,0,0,.589,1.465A12.352,12.352,0,0,1,26.278,36.8c.65.782,1.639,1.514,3.606,6.065a.671.671,0,0,0,.032.07c.244.486,1.654,4.764,11.5,1.021A1.4,1.4,0,0,0,42.039,43.483Z" transform="translate(-23.077 -22.92)" fill="none" stroke="#5038a1" stroke-miterlimit="10" stroke-width="0.679"/>
                </g>
              </g>
            </g>
          </g>
        </g>
      </g>
    </g>
    <g id="Grupo_80911" data-name="Grupo 80911" transform="translate(-2634.571 -9242.204)" style="isolation: isolate">
      <g id="Grupo_80864" data-name="Grupo 80864" clip-path="url(#clip-path-6)">
        <g id="Grupo_80863" data-name="Grupo 80863" transform="translate(0 0)">
          <g id="Grupo_80862" data-name="Grupo 80862" clip-path="url(#clip-path-6)">
            <g id="Grupo_80861" data-name="Grupo 80861" style="mix-blend-mode: overlay;isolation: isolate">
              <g id="Grupo_80860" data-name="Grupo 80860">
                <g id="Grupo_80859" data-name="Grupo 80859" clip-path="url(#clip-path-6)">
                  <path id="Trazado_115737" data-name="Trazado 115737" d="M15.453,7.726A7.727,7.727,0,1,1,7.727,0a7.726,7.726,0,0,1,7.726,7.726" transform="translate(0 0)" fill="#fff"/>
                </g>
              </g>
            </g>
          </g>
        </g>
      </g>
    </g>
    <path id="Trazado_115895" data-name="Trazado 115895" d="M360.1,165.773a241.282,241.282,0,0,0-21.744-20.356A177.635,177.635,0,0,0,313.8,128.444a129.013,129.013,0,0,0-27.917-11.989,90.875,90.875,0,0,0-15.4-3.053c-1.328-.115-2.655-.262-4-.3-.672-.029-1.343-.071-2.019-.086L262.43,113c-1.365-.013-2.678.045-4.027.069-1.332.082-2.677.136-4.008.266-10.7.931-21.064,3.919-30.714,7.674-9.68,3.761-18.733,8.3-27.442,12.644-4.352,2.182-8.636,4.3-12.851,6.276-2.111,1-4.2,1.931-6.276,2.845-1.036.437-2.072.893-3.1,1.308l-3.187,1.294c-8.876,3.592-17.55,6.936-26.091,9.6-4.267,1.336-8.493,2.5-12.646,3.441-2.077.469-4.135.884-6.169,1.232s-4.045.608-6.02.811a57.978,57.978,0,0,1-21.291-1.288,38.739,38.739,0,0,1-4.35-1.493c-.693-.279-1.363-.59-2.023-.9l-.972-.491c-.292-.167-.585-.319-.872-.494a30.432,30.432,0,0,1-6.307-4.9c-.466-.478-.922-.963-1.355-1.47l-1.684-1.893c-.582-.653-1.1-1.334-1.658-1.987-.535-.666-1.023-1.35-1.539-2.011a50.924,50.924,0,0,1-4.921-8.239,45.623,45.623,0,0,1-3.074-8.465,46.1,46.1,0,0,1-1.38-8.783A66.063,66.063,0,0,1,70.156,99.2a98.886,98.886,0,0,1,6.976-19.857,106.5,106.5,0,0,1,5.123-9.651c.927-1.551,1.886-3.066,2.848-4.493.48-.707.968-1.391,1.435-2.011.233-.308.465-.607.672-.85a4.115,4.115,0,0,1,.287-.317c.036-.029.087-.089.1-.08l.018,0s.021-.021-.005.035l-.1.23a41.468,41.468,0,0,0-71.83-41.459l-.325.624-.208.427-.332.714-.568,1.28c-.358.824-.678,1.6-.99,2.37-.621,1.536-1.187,3.026-1.736,4.5-1.084,2.95-2.067,5.859-2.976,8.776-1.814,5.829-3.326,11.69-4.6,17.642A172.731,172.731,0,0,0,0,94.041a130.737,130.737,0,0,0,5.789,38.751,114.192,114.192,0,0,0,7.742,18.686,106.2,106.2,0,0,0,10.955,16.848,109.535,109.535,0,0,0,13.426,14.153c1.209,1.03,2.4,2.078,3.628,3.068,1.235.969,2.454,1.965,3.7,2.887l1.879,1.37c.64.462,1.207.882,1.973,1.412,1.442,1.015,2.923,1.976,4.426,2.9a82.975,82.975,0,0,0,19.218,8.666c.84.262,1.691.493,2.538.729.831.214,1.651.422,2.477.618,1.653.379,3.309.725,4.967,1.005a88.139,88.139,0,0,0,9.895,1.134,95.573,95.573,0,0,0,18.973-.855,115.261,115.261,0,0,0,17.318-3.9,175.764,175.764,0,0,0,30.139-12.661c9.264-4.854,17.9-10.139,26.206-15.377l3.241-2.053c1.112-.7,2.185-1.426,3.273-2.139,2.14-1.441,4.255-2.89,6.3-4.352,4.119-2.919,8.063-5.862,11.954-8.721,7.772-5.727,15.266-11.234,22.992-15.892a91.763,91.763,0,0,1,24.073-10.642c1.048-.289,2.105-.507,3.164-.761l1.6-.309.8-.156c.266-.047.527-.073.791-.111l1.585-.213c.531-.062,1.068-.1,1.6-.15,1.07-.119,2.157-.14,3.243-.2,1.089-.035,2.186-.032,3.286-.028,1.1.051,2.208.04,3.317.141l1.667.117c.557.042,1.113.114,1.67.171,1.115.109,2.228.278,3.343.447,1.119.146,2.227.389,3.346.581,1.115.214,2.225.473,3.341.712,1.1.293,2.214.566,3.319.875,1.1.333,2.209.626,3.3.991,2.2.693,4.371,1.479,6.52,2.345,1.077.428,2.153.861,3.214,1.336l1.6.7,1.575.751a117.9,117.9,0,0,1,23.675,15.01,115.682,115.682,0,0,1,19.575,20.191,4.907,4.907,0,1,0,7.494-6.313Z" transform="translate(-2318.897 -9069.878) rotate(177)" fill="#fdb74d"/>
    <g id="Grupo_80917" data-name="Grupo 80917" transform="translate(-2601.03 -9310.814)">
      <g id="Grupo_80917-2" data-name="Grupo 80917" clip-path="url(#clip-path-9)">
        <path id="Trazado_115896" data-name="Trazado 115896" d="M209.3,173.445v.005c-.005.312-.011.607-.021.9a31.809,31.809,0,0,1-1.273,7.63c-.053.174-.1.343-.153.512v.005a50.642,50.642,0,0,1-5.518,11.759c-.407.649-.818,1.294-1.236,1.927-.3.449-.6.9-.908,1.336a94.933,94.933,0,0,1-12.551,14.557q-.531.515-1.077,1.014c-.665.628-1.336,1.236-2.012,1.837-.306.269-.613.544-.924.808-.174.158-.343.306-.517.454q-1.529,1.315-3.131,2.508-1.584,1.18-3.226,2.26-1.117.729-2.255,1.42c-2.371,1.447-4.821,2.772-7.308,4.029-1.283.649-2.577,1.278-3.876,1.9-2.255,1.072-4.53,2.117-6.8,3.173-.206.1-.407.19-.613.28q-4.111,1.9-8.274,3.691-3.374,1.457-6.785,2.83h-.005q-1.521.626-3.057,1.22-4.736,1.869-9.525,3.6a.3.3,0,0,1-.063.021q-5.647,2.043-11.368,3.876c-.005.005-.005.005-.005,0s-.016.011-.026.011q-3.152,1.022-6.32,1.97c-.465.143-.924.28-1.389.417a16.05,16.05,0,0,1-8.971.058c-.554-.158-1.109-.317-1.658-.475q-3.224-.927-6.3-1.869c-.005-.005-.016-.005-.021-.011-8.063-2.466-15.434-5.016-22.172-7.625-.269-.1-.539-.206-.8-.312-.708-.275-1.415-.549-2.107-.829-1.705-.686-3.369-1.368-4.99-2.059-.644-.275-1.283-.544-1.911-.818q-1.537-.665-3.015-1.341-3.382-1.521-6.51-3.073l-1.774-.882q-3.675-1.869-7-3.749c-.359-.206-.718-.407-1.072-.613q-3.429-1.972-6.489-3.955c-.454-.29-.908-.586-1.352-.882Q29,218.348,25.65,215.74c-.348-.269-.686-.539-1.024-.808a84.955,84.955,0,0,1-12.071-11.579c-.517-.612-1.009-1.22-1.484-1.822q-1.038-1.323-1.959-2.63Q7.8,197.04,6.721,195.215l-.285-.475c-.317-.533-.613-1.067-.892-1.595-.005-.005-.011-.005-.016-.011v-.005a.019.019,0,0,1-.005-.016,47.023,47.023,0,0,1-4.113-10.281c-.132-.491-.248-.977-.359-1.457-.148-.634-.275-1.257-.385-1.869-.185-1.035-.327-2.043-.433-3.01A43.4,43.4,0,0,1,1.287,161.75c.032-.153.058-.285.079-.407.053-.29.116-.576.185-.861.5-2.091.961-4.119,1.41-6.093.037-.164.074-.322.106-.486l.005-.005c.792-3.5,1.5-6.811,2.149-9.958.734-3.58,1.378-6.938,1.948-10.1.686-3.807,1.262-7.313,1.732-10.56v-.011c.074-.5.143-.987.211-1.473.011-.063.021-.132.026-.2-.005-.005,0-.005,0-.011a.048.048,0,0,0,.005-.026c.069-.47.132-.929.19-1.389.18-1.32.338-2.593.48-3.828v-.005q.214-1.814.385-3.506c.222-2.17.385-4.2.512-6.088v-.005c.153-2.392.243-4.578.275-6.584.021-.956.026-1.869.021-2.751v-.005c-.005-1.869-.058-3.569-.137-5.143-.011-.174-.016-.348-.026-.517-.18-3.274-.465-5.988-.681-8.48-.037-.37-.069-.734-.1-1.1-.058-.723-.111-1.426-.148-2.128-.021-.3-.048-.6-.074-.913v-.011A82.612,82.612,0,0,0,7.18,66.078c-.475-1.769-1-3.559-1.537-5.322-.644-2.117-1.315-4.2-1.98-6.188-.56-1.679-1.119-3.295-1.647-4.794a16.086,16.086,0,0,1,4.61-17.5l.966-.84a15.8,15.8,0,0,1,5.164-2.978,16.459,16.459,0,0,1,8.712-.576c.042.011.084.016.127.026,9.557,2,19.394,1.341,23.655.09C52.1,26.6,59.676,23.578,66.83,20.114c2.1-1.014,4.161-2.065,6.157-3.126C82.681,11.834,90.834,6.48,94.139,4.331c6.31-4.1,11.991-5.365,16.722-3.469s25.234,14.51,41.323,22.393c15.344,7.767,27.277,7.16,34.686,5.217.28-.069.549-.148.813-.222a15.718,15.718,0,0,1,8.095-.153h.005a16.214,16.214,0,0,1,7.392,4.071c.074.069.148.143.222.211a15.968,15.968,0,0,1,3.807,17.4q-.871,2.178-1.647,4.625v.005c-.549,1.721-1.056,3.532-1.531,5.4a177.341,177.341,0,0,0-4.124,24.2c-.312,2.936-.549,5.771-.718,8.411-.158,2.418-.259,4.678-.306,6.706-.037,1.563-.037,2.989-.011,4.245.005.222.011.449.021.681v.005c.053,1.346.185,2.888.385,4.588.037.3.074.613.111.924.517,4.14,1.373,9.129,2.371,14.531v.005c.28,1.5.565,3.031.861,4.583.364,1.9.734,3.839,1.109,5.792.2,1.019.4,2.043.591,3.073.1.512.2,1.03.29,1.542v.005c.037.18.069.354.106.533.465,2.466.924,4.932,1.362,7.361.259,1.441.512,2.872.75,4.282v.005q.214,1.236.412,2.439a.1.1,0,0,1,.005.037v.005c.032.153.053.306.079.459q.119.76.238,1.5c0,.011.005.016.005.021.021.132.037.259.058.391a.09.09,0,0,1,.005.037c.121.781.243,1.552.354,2.313q.246,1.663.449,3.253a87.329,87.329,0,0,1,.871,11.7" transform="translate(0 0)" fill="#8c6df2"/>
        <rect id="Rectángulo_34831" data-name="Rectángulo 34831" width="12.913" height="54.883" transform="translate(25.869 149.536) rotate(-10)" fill="#fcab68"/>
        <path id="Trazado_115897" data-name="Trazado 115897" d="M64.938,372.065l12.717-2.242-2.267-12.858a52,52,0,0,1-12.8,1.75Z" transform="translate(-29.538 -168.48)" fill="#ea8e49"/>
        <path id="Trazado_115898" data-name="Trazado 115898" d="M65.957,303.035,61.71,278.954,48.993,281.2l4.359,24.72a23.062,23.062,0,0,0,12.6-2.881" transform="translate(-23.124 -131.661)" fill="#ea8e49"/>
        <path id="Trazado_115899" data-name="Trazado 115899" d="M212.459,166.4,142.92,208.2a6.457,6.457,0,0,0,2.2,11.893l5.253.926L204.262,188.4a6.457,6.457,0,0,1,8.374,1.477l39.48,49.078,5.252.926a6.457,6.457,0,0,0,6.14-10.421Z" transform="translate(-65.976 -78.537)" fill="#5038a1"/>
        <path id="Trazado_115900" data-name="Trazado 115900" d="M284.183,198.1a3.223,3.223,0,0,1-2.511-1.2l-3.268-4.036a3.229,3.229,0,1,1,5.019-4.064l3.268,4.036a3.228,3.228,0,0,1-2.508,5.26" transform="translate(-131.062 -88.544)" fill="#fff"/>
        <path id="Trazado_115901" data-name="Trazado 115901" d="M155.843,208.2,216.7,171.621l-4.227-5.221-69.54,41.8a6.457,6.457,0,0,0,2.206,11.893l5.252.926,4.334-2.624a6.447,6.447,0,0,1,1.122-10.2" transform="translate(-65.981 -78.538)" fill="#12263f"/>
        <path id="Trazado_115902" data-name="Trazado 115902" d="M204.711,207.233l-53.885,32.616-10.09,57.228,101.739,17.939,10.091-57.228-39.48-49.078a6.456,6.456,0,0,0-8.374-1.477" transform="translate(-66.425 -97.369)" fill="#dbe6fd"/>
        <path id="Trazado_115903" data-name="Trazado 115903" d="M213.773,209.564l-.687-.854a6.457,6.457,0,0,0-8.374-1.477l-53.885,32.616L149.3,248.5l-6.866,38.939-1.7,9.634,101.739,17.939,4.857-27.546c-1.193.074-2.379.161-3.614.161-8.518,0-16.125-1.827-21.156-4.694a6.176,6.176,0,0,0-6.114,0c-5.031,2.867-12.638,4.694-21.156,4.694-8.467,0-16.034-1.806-21.065-4.642a6.311,6.311,0,0,0-6.212-.048q-.874.5-1.848.95a6.447,6.447,0,0,1-8.949-7.046L161.7,251.39a25.824,25.824,0,0,1,12.061-17.61L202.2,216.57a6.441,6.441,0,0,1,7.658,1.825l39.479,49.078,1.475.26,1.754-9.945Z" transform="translate(-66.424 -97.369)" fill="#bbcff2"/>
        <path id="Trazado_115904" data-name="Trazado 115904" d="M238.793,322.982l-12.717-2.242a6.457,6.457,0,0,0-7.48,5.237L212.99,357.77l25.435,4.485,5.606-31.794a6.457,6.457,0,0,0-5.237-7.48" transform="translate(-100.527 -151.336)" fill="#5038a1"/>
        <path id="Trazado_115905" data-name="Trazado 115905" d="M229.394,358.872a52.884,52.884,0,0,1-13.265-1.629l-3.139,17.8,12.717,2.242,12.717,2.242,3.916-22.2a53.15,53.15,0,0,1-12.947,1.547" transform="translate(-100.527 -168.612)" fill="#12263f"/>
        <rect id="Rectángulo_34832" data-name="Rectángulo 34832" width="12.914" height="12.914" transform="translate(91.513 176.515) rotate(-80)" fill="#a7d0e1"/>
        <rect id="Rectángulo_34833" data-name="Rectángulo 34833" width="12.914" height="12.914" transform="translate(155.1 187.727) rotate(-80)" fill="#a7d0e1"/>
        <path id="Trazado_115906" data-name="Trazado 115906" d="M294.795,351.229a6.158,6.158,0,0,0-.631-.257l-.424,2.407,12.717,2.243.087-.492a36.729,36.729,0,0,1-11.749-3.9" transform="translate(-138.64 -165.652)" fill="#80bbce"/>
        <path id="Trazado_115907" data-name="Trazado 115907" d="M260.25,261.784a9.685,9.685,0,1,1-7.856-11.22,9.686,9.686,0,0,1,7.856,11.22" transform="translate(-113.759 -118.191)" fill="#a7d0e1"/>
        <path id="Trazado_115908" data-name="Trazado 115908" d="M71.86,85.536a12.766,12.766,0,0,0-1.7.171,12.8,12.8,0,0,0-22.431,0,12.775,12.775,0,0,0-1.7-.171,12.913,12.913,0,1,0,0,25.827H71.86a12.913,12.913,0,1,0,0-25.827" transform="translate(-15.632 -37.324)" fill="#dbe6fd"/>
        <path id="Trazado_115909" data-name="Trazado 115909" d="M81.545,107.761H55.718A12.823,12.823,0,0,1,43.152,91.967a12.9,12.9,0,0,0,2.88,25.478H71.86a12.9,12.9,0,0,0,12.565-10.033,12.845,12.845,0,0,1-2.88.348" transform="translate(-15.632 -43.407)" fill="#bbcff2"/>
        <path id="Trazado_115910" data-name="Trazado 115910" d="M304.2,73.308a12.764,12.764,0,0,0-1.7.171,12.8,12.8,0,0,0-22.431,0,12.774,12.774,0,0,0-1.7-.171,12.913,12.913,0,1,0,0,25.827H304.2a12.913,12.913,0,1,0,0-25.827" transform="translate(-125.291 -31.552)" fill="#dbe6fd"/>
        <path id="Trazado_115911" data-name="Trazado 115911" d="M313.883,95.533H288.056A12.823,12.823,0,0,1,275.49,79.739a12.9,12.9,0,0,0,2.88,25.478H304.2a12.9,12.9,0,0,0,12.565-10.033,12.875,12.875,0,0,1-2.88.348" transform="translate(-125.291 -37.635)" fill="#bbcff2"/>
        <path id="Trazado_115912" data-name="Trazado 115912" d="M208.088,365.186c-.407.649-.818,1.294-1.236,1.927-.3.449-.6.9-.908,1.336a94.937,94.937,0,0,1-12.551,14.557q-.531.515-1.077,1.014c-.665.628-1.336,1.236-2.012,1.837-.306.269-.613.544-.924.808-.174.158-.343.306-.517.454q-1.529,1.315-3.131,2.508-1.584,1.18-3.226,2.26-1.117.729-2.255,1.42c-2.371,1.447-4.821,2.772-7.308,4.029-1.283.649-2.577,1.278-3.876,1.9-2.255,1.072-4.53,2.117-6.8,3.173-.206.1-.407.19-.613.28q-4.111,1.9-8.274,3.691H65.9q-1.537-.665-3.015-1.341-3.382-1.521-6.51-3.073l-1.774-.882q-3.675-1.869-7-3.749c-.359-.206-.718-.407-1.072-.613q-3.429-1.972-6.489-3.955c-.454-.29-.908-.586-1.352-.882q-3.944-2.614-7.292-5.222c-.348-.269-.686-.539-1.024-.808a84.955,84.955,0,0,1-12.071-11.579c-.517-.612-1.009-1.22-1.484-1.822q-1.038-1.323-1.959-2.63-1.315-1.861-2.392-3.686l-.285-.475a6.415,6.415,0,0,1,7.112-1.383,48.1,48.1,0,0,0,18.465,3.358c.729,0,1.452-.016,2.165-.042h.005a50.14,50.14,0,0,0,12.752-2.033,31.212,31.212,0,0,0,6.22-2.608,6.222,6.222,0,0,1,6.146,0,40.063,40.063,0,0,0,15.587,4.419c1.8.174,3.654.264,5.555.264,8.506,0,16.1-1.822,21.137-4.683a6.232,6.232,0,0,1,6.151,0,31.658,31.658,0,0,0,6.78,2.777h.005a52.173,52.173,0,0,0,14.352,1.906,54.166,54.166,0,0,0,11.754-1.241,34.272,34.272,0,0,0,9.383-3.443,6.232,6.232,0,0,1,6.151,0c5.032,2.862,12.63,4.683,21.137,4.683.829,0,1.653-.016,2.461-.053a46.321,46.321,0,0,0,16-3.305,6.4,6.4,0,0,1,6.579.9" transform="translate(-5.753 -170.926)" fill="#fedc72"/>
        <path id="Trazado_115913" data-name="Trazado 115913" d="M206.556,403.982c-.174.158-.343.306-.517.454q-1.529,1.315-3.131,2.508-1.584,1.18-3.226,2.26-1.117.729-2.255,1.42c-2.371,1.447-4.821,2.772-7.308,4.029-1.283.649-2.577,1.278-3.876,1.9-2.255,1.072-4.53,2.117-6.8,3.173-.206.1-.407.19-.613.28q-4.111,1.9-8.274,3.691H83.079q-1.537-.665-3.015-1.341-3.382-1.521-6.51-3.073l-1.774-.882q-3.675-1.869-7-3.749c-.359-.206-.718-.407-1.072-.613q-3.429-1.972-6.489-3.955c-.454-.29-.908-.586-1.352-.882q-3.944-2.614-7.292-5.222a57.674,57.674,0,0,0,6.363.348c8.512,0,16.11-1.822,21.142-4.684a6.222,6.222,0,0,1,6.146,0c5.032,2.862,12.63,4.684,21.142,4.684s16.1-1.822,21.137-4.684a6.232,6.232,0,0,1,6.151,0c5.032,2.862,12.63,4.684,21.137,4.684a47.709,47.709,0,0,0,18.692-3.464h.005a25.609,25.609,0,0,0,2.439-1.22,6.232,6.232,0,0,1,6.151,0c4.842,2.751,12.055,4.541,20.17,4.673.317.005.644.011.966.011a57.191,57.191,0,0,0,6.336-.348" transform="translate(-22.928 -188.243)" fill="#fdb74d"/>
        <path id="Trazado_115914" data-name="Trazado 115914" d="M60.1,232.635c2.786,15.8-6.342,30.622-20.389,33.1S12.02,257.408,9.234,241.6s6.342-30.622,20.389-33.1,27.694,8.326,30.48,24.129" transform="translate(-4.122 -98.244)" fill="#72aa65"/>
        <path id="Trazado_115915" data-name="Trazado 115915" d="M49.4,258.649c-14.047,2.477-27.694-8.326-30.48-24.129a30.944,30.944,0,0,1,3.5-20.859c-9.8,5.412-15.461,17.647-13.187,30.545,2.786,15.8,16.433,26.606,30.48,24.129A24.491,24.491,0,0,0,56.6,256.095a23.168,23.168,0,0,1-7.2,2.554" transform="translate(-4.122 -100.843)" fill="#599149"/>
        <path id="Trazado_115916" data-name="Trazado 115916" d="M89.093,171.737a3.228,3.228,0,0,0,0,4.565l6.457,6.457a3.228,3.228,0,1,0,4.565-4.565l-6.457-6.457a3.228,3.228,0,0,0-4.565,0" transform="translate(-41.604 -80.61)" fill="#a7d0e1"/>
        <path id="Trazado_115917" data-name="Trazado 115917" d="M352.343,219.444a3.228,3.228,0,0,0,4.565-4.565l-6.457-6.457a3.228,3.228,0,0,0-4.565,4.565Z" transform="translate(-162.805 -97.925)" fill="#a7d0e1"/>
        <path id="Trazado_115918" data-name="Trazado 115918" d="M122.892,167.3a3.228,3.228,0,0,0,4.565-4.565l-3.228-3.228a3.228,3.228,0,0,0-4.565,4.565Z" transform="translate(-56.033 -74.839)" fill="#a7d0e1"/>
        <path id="Trazado_115919" data-name="Trazado 115919" d="M125.778,208.422a3.228,3.228,0,0,0,0,4.565l3.228,3.228a3.228,3.228,0,1,0,4.565-4.565l-3.228-3.228a3.228,3.228,0,0,0-4.565,0" transform="translate(-58.918 -97.925)" fill="#a7d0e1"/>
        <path id="Trazado_115920" data-name="Trazado 115920" d="M125.175,284.417a3.228,3.228,0,0,0,2.283-5.511l-3.228-3.228a3.228,3.228,0,0,0-4.565,4.565l3.228,3.228a3.219,3.219,0,0,0,2.283.946" transform="translate(-56.033 -129.668)" fill="#a7d0e1"/>
        <path id="Trazado_115921" data-name="Trazado 115921" d="M107.435,318.477a3.228,3.228,0,0,0,0,4.565l3.228,3.228a3.228,3.228,0,0,0,4.565-4.565L112,318.477a3.228,3.228,0,0,0-4.565,0" transform="translate(-50.261 -149.869)" fill="#a7d0e1"/>
        <path id="Trazado_115922" data-name="Trazado 115922" d="M52.408,159.509a3.228,3.228,0,0,0,0,4.565l6.457,6.457a3.228,3.228,0,0,0,4.565-4.565l-6.457-6.457a3.228,3.228,0,0,0-4.565,0" transform="translate(-24.289 -74.839)" fill="#a7d0e1"/>
        <path id="Trazado_115923" data-name="Trazado 115923" d="M153.805,198.215a3.228,3.228,0,0,0,4.565-4.565l-9.685-9.685a3.228,3.228,0,1,0-4.565,4.565Z" transform="translate(-67.576 -86.382)" fill="#a7d0e1"/>
        <path id="Trazado_115924" data-name="Trazado 115924" d="M150.576,146.074a3.228,3.228,0,1,0,4.565-4.565l-6.457-6.457a3.228,3.228,0,1,0-4.565,4.565Z" transform="translate(-67.575 -63.296)" fill="#a7d0e1"/>
        <path id="Trazado_115925" data-name="Trazado 115925" d="M372.969,195.933a3.228,3.228,0,0,0,2.283-5.511l-6.457-6.457a3.228,3.228,0,0,0-4.565,4.565l6.457,6.457a3.218,3.218,0,0,0,2.283.946" transform="translate(-171.463 -86.382)" fill="#a7d0e1"/>
        <path id="Trazado_115926" data-name="Trazado 115926" d="M184.033,179.53a3.228,3.228,0,0,0,4.565-4.565l-3.228-3.228A3.228,3.228,0,1,0,180.8,176.3Z" transform="translate(-84.89 -80.61)" fill="#a7d0e1"/>
        <path id="Trazado_115927" data-name="Trazado 115927" d="M331.776,186.648a3.228,3.228,0,1,0,4.565-4.565l-3.228-3.228a3.228,3.228,0,1,0-4.565,4.565Z" transform="translate(-154.622 -83.97)" fill="#a7d0e1"/>
        <path id="Trazado_115928" data-name="Trazado 115928" d="M297.977,148.284a3.228,3.228,0,0,0,0,4.565l3.228,3.228a3.228,3.228,0,0,0,4.565-4.565l-3.228-3.228a3.228,3.228,0,0,0-4.565,0" transform="translate(-140.193 -69.541)" fill="#a7d0e1"/>
        <path id="Trazado_115929" data-name="Trazado 115929" d="M232.946,136.731a3.228,3.228,0,0,0,4.565-4.565l-3.228-3.228a3.228,3.228,0,0,0-4.565,4.565Z" transform="translate(-107.976 -60.41)" fill="#a7d0e1"/>
        <path id="Trazado_115930" data-name="Trazado 115930" d="M333.056,156.02a3.228,3.228,0,0,0,2.283-5.511l-3.228-3.228a3.228,3.228,0,0,0-4.565,4.565l3.228,3.228a3.219,3.219,0,0,0,2.283.946" transform="translate(-154.149 -69.067)" fill="#a7d0e1"/>
        <path id="Trazado_115931" data-name="Trazado 115931" d="M374.908,238.993a3.228,3.228,0,0,0-4.565,4.565l3.228,3.228a3.228,3.228,0,1,0,4.565-4.565Z" transform="translate(-174.348 -112.354)" fill="#a7d0e1"/>
        <path id="Trazado_115932" data-name="Trazado 115932" d="M208.832,161.531a3.228,3.228,0,0,0,4.565-4.565l-9.685-9.685a3.228,3.228,0,0,0-4.565,4.565Z" transform="translate(-93.547 -69.067)" fill="#a7d0e1"/>
        <path id="Trazado_115933" data-name="Trazado 115933" d="M358.115,147.281a3.228,3.228,0,0,0,0,4.565l9.685,9.685a3.228,3.228,0,1,0,4.565-4.565l-9.685-9.685a3.228,3.228,0,0,0-4.565,0" transform="translate(-168.577 -69.067)" fill="#a7d0e1"/>
        <path id="Trazado_115934" data-name="Trazado 115934" d="M27.691,333.672a3.228,3.228,0,0,0,2.282-5.511l-9.685-9.685a3.228,3.228,0,0,0-4.565,4.565l9.684,9.685a3.219,3.219,0,0,0,2.283.946" transform="translate(-6.975 -149.868)" fill="#a7d0e1"/>
      </g>
    </g>
  </g>
</svg>
