<svg xmlns="http://www.w3.org/2000/svg" xmlns:xlink="http://www.w3.org/1999/xlink" width="420" height="114.37" viewBox="0 0 420 114.37">
  <defs>
    <clipPath id="clip-path">
      <rect id="Rectángulo_34805" data-name="Rectángulo 34805" width="70.258" height="95.537" fill="none"/>
    </clipPath>
    <clipPath id="clip-path-2">
      <path id="Trazado_115728" data-name="Trazado 115728" d="M69.424,0a.819.819,0,0,0-.467.157A175.309,175.309,0,0,0,47.8,18.589a231.872,231.872,0,0,0-18.47,21.25A250.155,250.155,0,0,0,13.366,63.153,183.8,183.8,0,0,0,.37,88.64c-.045.112-.091.238-.129.355A5.02,5.02,0,0,0,0,90.505v.044a5.015,5.015,0,0,0,4.987,4.987h.05a5.012,5.012,0,0,0,4.743-3.48l.025-.078A175.288,175.288,0,0,1,20.289,66.992a243.365,243.365,0,0,1,13.78-23.778A227.23,227.23,0,0,1,50.545,21.108,172.582,172.582,0,0,1,69.967,1.443l.007-.006A.818.818,0,0,0,69.455,0Z" fill="#fedc72"/>
    </clipPath>
  </defs>
  <g id="Grupo_81218" data-name="Grupo 81218" transform="translate(-1000 -2081.054)">
    <rect id="Rectángulo_5116" data-name="Rectángulo 5116" width="356" height="86.896" rx="20" transform="translate(1064 2086.104)" fill="#8c6df2" opacity="0.25"/>
    <g id="Grupo_80920" data-name="Grupo 80920" transform="translate(1034.237 2081.054) rotate(21)">
      <g id="Grupo_80827" data-name="Grupo 80827" clip-path="url(#clip-path)">
        <g id="Grupo_80826" data-name="Grupo 80826">
          <g id="Grupo_80825" data-name="Grupo 80825" clip-path="url(#clip-path-2)">
            <rect id="Rectángulo_34804" data-name="Rectángulo 34804" width="87.609" height="108.7" transform="translate(-8.653 -6.674)" fill="#fedc72"/>
          </g>
        </g>
      </g>
    </g>
  </g>
</svg>
