<svg xmlns="http://www.w3.org/2000/svg" xmlns:xlink="http://www.w3.org/1999/xlink" width="421.667" height="345.225" viewBox="0 0 421.667 345.225">
  <defs>
    <clipPath id="clip-path">
      <rect id="Rectángulo_34816" data-name="Rectángulo 34816" width="81.539" height="81.161" fill="none"/>
    </clipPath>
    <clipPath id="clip-path-2">
      <rect id="Rectángulo_34815" data-name="Rectángulo 34815" width="81.539" height="81.162" fill="none"/>
    </clipPath>
    <clipPath id="clip-path-4">
      <rect id="Rectángulo_34813" data-name="Rectángulo 34813" width="50.091" height="49.86" fill="none"/>
    </clipPath>
    <clipPath id="clip-path-5">
      <rect id="Rectángulo_34814" data-name="Rectángulo 34814" width="23.113" height="23.006" fill="none"/>
    </clipPath>
    <clipPath id="clip-path-6">
      <rect id="Rectángulo_34819" data-name="Rectángulo 34819" width="15.453" height="15.453" fill="#fff"/>
    </clipPath>
    <clipPath id="clip-path-9">
      <rect id="Rectángulo_34823" data-name="Rectángulo 34823" width="180" height="180" fill="none"/>
    </clipPath>
    <clipPath id="clip-path-12">
      <rect id="Rectángulo_34820" data-name="Rectángulo 34820" width="166.016" height="164.847" transform="translate(2.885 2.034)" fill="none"/>
    </clipPath>
    <clipPath id="clip-path-13">
      <rect id="Rectángulo_34766" data-name="Rectángulo 34766" width="208.596" height="249.218" fill="none"/>
    </clipPath>
  </defs>
  <g id="Grupo_81217" data-name="Grupo 81217" transform="translate(-1020 -1455.775)">
    <g id="Grupo_80858" data-name="Grupo 80858" transform="translate(1105 1455.775)" style="mix-blend-mode: multiply;isolation: isolate">
      <g id="Grupo_80857" data-name="Grupo 80857" clip-path="url(#clip-path)">
        <g id="Grupo_80856" data-name="Grupo 80856" transform="translate(0 0)">
          <g id="Grupo_80855" data-name="Grupo 80855" clip-path="url(#clip-path-2)">
            <g id="Grupo_80848" data-name="Grupo 80848" transform="translate(0 0)" opacity="0.17" style="isolation: isolate">
              <g id="Grupo_80847" data-name="Grupo 80847" transform="translate(0 0)">
                <g id="Grupo_80846" data-name="Grupo 80846" clip-path="url(#clip-path)">
                  <path id="Trazado_115734" data-name="Trazado 115734" d="M66.5,72.148a108.866,108.866,0,0,0,6.75-10.186c2.361-4.028,4.706-8.2,5.665-12.813.905-4.362,1.188-10.109-1.474-13.937C74.584,31.047,64.575,23.13,61.831,19.606c-2.227-2.859-6.495-9.85-7.791-14.761A4.913,4.913,0,0,0,49.9,1.25l-.094-.012a4.925,4.925,0,0,0-4.544,1.881c-1.421,1.866-4.269,4.353-9.68,5.291-5.42,1.01-12.8,1.663-14.315,2.065s-2.685,1.757-3.489,3.93-3.822,10.47-7.721,14.824A17.453,17.453,0,0,1,4.2,33.553,5,5,0,0,0,1.4,37l-.084.385A4.948,4.948,0,0,0,3.39,42.549,43.347,43.347,0,0,1,10.9,48.568c2.292,2.754,5.778,5.34,12.718,21.394.035.082.072.166.111.246.864,1.716,5.838,16.808,40.567,3.6A4.962,4.962,0,0,0,66.5,72.148Z" transform="translate(0.392 0.392)" fill="none" stroke="#5038a1" stroke-miterlimit="10" stroke-width="2.396"/>
                </g>
              </g>
            </g>
            <g id="Grupo_80851" data-name="Grupo 80851" transform="translate(16.563 16.452)" opacity="0.17" style="isolation: isolate">
              <g id="Grupo_80850" data-name="Grupo 80850">
                <g id="Grupo_80849" data-name="Grupo 80849" clip-path="url(#clip-path-4)">
                  <path id="Trazado_115735" data-name="Trazado 115735" d="M53.335,56.719a67.2,67.2,0,0,0,4.147-6.257,26.592,26.592,0,0,0,3.48-7.872c.556-2.679.73-6.21-.906-8.561-1.756-2.559-7.9-7.423-9.591-9.587a32.142,32.142,0,0,1-4.786-9.068,3.02,3.02,0,0,0-2.543-2.208l-.057-.008a3.027,3.027,0,0,0-2.792,1.156,9.086,9.086,0,0,1-5.947,3.25c-3.33.62-7.863,1.022-8.793,1.269A3.465,3.465,0,0,0,23.4,21.246c-.494,1.334-2.349,6.432-4.743,9.107a10.721,10.721,0,0,1-3.6,2.657,3.074,3.074,0,0,0-1.724,2.117l-.052.236a3.04,3.04,0,0,0,1.277,3.174,26.692,26.692,0,0,1,4.616,3.7c1.408,1.693,3.55,3.281,7.813,13.144.021.05.044.1.069.151.53,1.054,3.586,10.326,24.92,2.214A3.046,3.046,0,0,0,53.335,56.719Z" transform="translate(-12.24 -12.156)" fill="none" stroke="#5038a1" stroke-miterlimit="10" stroke-width="1.472"/>
                </g>
              </g>
            </g>
            <g id="Grupo_80854" data-name="Grupo 80854" transform="translate(30.773 30.566)" opacity="0.17" style="isolation: isolate">
              <g id="Grupo_80853" data-name="Grupo 80853">
                <g id="Grupo_80852" data-name="Grupo 80852" clip-path="url(#clip-path-5)">
                  <path id="Trazado_115736" data-name="Trazado 115736" d="M42.039,43.483A30.989,30.989,0,0,0,43.952,40.6a12.284,12.284,0,0,0,1.606-3.631,5.347,5.347,0,0,0-.418-3.951c-.811-1.181-3.648-3.425-4.426-4.423a14.852,14.852,0,0,1-2.208-4.184,1.392,1.392,0,0,0-1.173-1.019l-.027,0a1.4,1.4,0,0,0-1.287.533,4.194,4.194,0,0,1-2.744,1.5c-1.537.287-3.628.471-4.058.585a1.6,1.6,0,0,0-.989,1.113,14.949,14.949,0,0,1-2.188,4.2,4.944,4.944,0,0,1-1.66,1.226,1.415,1.415,0,0,0-.795.975l-.024.109a1.4,1.4,0,0,0,.589,1.465A12.352,12.352,0,0,1,26.278,36.8c.65.782,1.639,1.514,3.606,6.065a.671.671,0,0,0,.032.07c.244.486,1.654,4.764,11.5,1.021A1.4,1.4,0,0,0,42.039,43.483Z" transform="translate(-23.077 -22.92)" fill="none" stroke="#5038a1" stroke-miterlimit="10" stroke-width="0.679"/>
                </g>
              </g>
            </g>
          </g>
        </g>
      </g>
    </g>
    <g id="Grupo_80865" data-name="Grupo 80865" transform="translate(1076.096 1605.547)" style="isolation: isolate">
      <g id="Grupo_80864" data-name="Grupo 80864" clip-path="url(#clip-path-6)">
        <g id="Grupo_80863" data-name="Grupo 80863" transform="translate(0 0)">
          <g id="Grupo_80862" data-name="Grupo 80862" clip-path="url(#clip-path-6)">
            <g id="Grupo_80861" data-name="Grupo 80861" style="mix-blend-mode: overlay;isolation: isolate">
              <g id="Grupo_80860" data-name="Grupo 80860">
                <g id="Grupo_80859" data-name="Grupo 80859" clip-path="url(#clip-path-6)">
                  <path id="Trazado_115737" data-name="Trazado 115737" d="M15.453,7.726A7.727,7.727,0,1,1,7.727,0a7.726,7.726,0,0,1,7.726,7.726" transform="translate(0 0)" fill="#fff"/>
                </g>
              </g>
            </g>
          </g>
        </g>
      </g>
    </g>
    <g id="Grupo_80866" data-name="Grupo 80866" transform="translate(1261.667 1621)">
      <g id="Grupo_80873" data-name="Grupo 80873" clip-path="url(#clip-path-9)">
        <g id="Grupo_80872" data-name="Grupo 80872">
          <g id="Grupo_80871" data-name="Grupo 80871" clip-path="url(#clip-path-9)">
            <g id="Grupo_80870" data-name="Grupo 80870" opacity="0.7">
              <g id="Grupo_80869" data-name="Grupo 80869">
                <g id="Grupo_80868" data-name="Grupo 80868" clip-path="url(#clip-path-9)">
                  <g id="Grupo_80867" data-name="Grupo 80867">
                    <g id="Grupo_80866-2" data-name="Grupo 80866" clip-path="url(#clip-path-12)">
                      <path id="Trazado_115738" data-name="Trazado 115738" d="M171.52,150a1.52,1.52,0,1,0-1.52,1.52,1.52,1.52,0,0,0,1.52-1.52" fill="#f2f2f2"/>
                      <path id="Trazado_115739" data-name="Trazado 115739" d="M171.52,130a1.52,1.52,0,1,0-1.52,1.52,1.52,1.52,0,0,0,1.52-1.52" fill="#f2f2f2"/>
                      <path id="Trazado_115740" data-name="Trazado 115740" d="M171.52,110a1.52,1.52,0,1,0-1.52,1.52,1.52,1.52,0,0,0,1.52-1.52" fill="#f2f2f2"/>
                      <path id="Trazado_115741" data-name="Trazado 115741" d="M171.52,90A1.52,1.52,0,1,0,170,91.52,1.52,1.52,0,0,0,171.52,90" fill="#f2f2f2"/>
                      <path id="Trazado_115742" data-name="Trazado 115742" d="M171.52,70A1.52,1.52,0,1,0,170,71.52,1.52,1.52,0,0,0,171.52,70" fill="#f2f2f2"/>
                      <path id="Trazado_115743" data-name="Trazado 115743" d="M171.52,50A1.52,1.52,0,1,0,170,51.52,1.52,1.52,0,0,0,171.52,50" fill="#f2f2f2"/>
                      <path id="Trazado_115744" data-name="Trazado 115744" d="M171.52,30A1.52,1.52,0,1,0,170,31.52,1.52,1.52,0,0,0,171.52,30" fill="#f2f2f2"/>
                      <path id="Trazado_115745" data-name="Trazado 115745" d="M171.52,10A1.52,1.52,0,1,0,170,11.52,1.52,1.52,0,0,0,171.52,10" fill="#f2f2f2"/>
                      <path id="Trazado_115746" data-name="Trazado 115746" d="M151.52,150a1.52,1.52,0,1,0-1.52,1.52,1.52,1.52,0,0,0,1.52-1.52" fill="#f2f2f2"/>
                      <path id="Trazado_115747" data-name="Trazado 115747" d="M151.52,130a1.52,1.52,0,1,0-1.52,1.52,1.52,1.52,0,0,0,1.52-1.52" fill="#f2f2f2"/>
                      <path id="Trazado_115748" data-name="Trazado 115748" d="M151.52,110a1.52,1.52,0,1,0-1.52,1.52,1.52,1.52,0,0,0,1.52-1.52" fill="#f2f2f2"/>
                      <path id="Trazado_115749" data-name="Trazado 115749" d="M151.52,90A1.52,1.52,0,1,0,150,91.52,1.52,1.52,0,0,0,151.52,90" fill="#f2f2f2"/>
                      <path id="Trazado_115750" data-name="Trazado 115750" d="M151.52,70A1.52,1.52,0,1,0,150,71.52,1.52,1.52,0,0,0,151.52,70" fill="#f2f2f2"/>
                      <path id="Trazado_115751" data-name="Trazado 115751" d="M151.52,50A1.52,1.52,0,1,0,150,51.52,1.52,1.52,0,0,0,151.52,50" fill="#f2f2f2"/>
                      <path id="Trazado_115752" data-name="Trazado 115752" d="M151.52,30A1.52,1.52,0,1,0,150,31.52,1.52,1.52,0,0,0,151.52,30" fill="#f2f2f2"/>
                      <path id="Trazado_115753" data-name="Trazado 115753" d="M151.52,10A1.52,1.52,0,1,0,150,11.52,1.52,1.52,0,0,0,151.52,10" fill="#f2f2f2"/>
                      <path id="Trazado_115754" data-name="Trazado 115754" d="M131.52,150a1.52,1.52,0,1,0-1.52,1.52,1.52,1.52,0,0,0,1.52-1.52" fill="#f2f2f2"/>
                      <path id="Trazado_115755" data-name="Trazado 115755" d="M131.52,130a1.52,1.52,0,1,0-1.52,1.52,1.52,1.52,0,0,0,1.52-1.52" fill="#f2f2f2"/>
                      <path id="Trazado_115756" data-name="Trazado 115756" d="M131.52,110a1.52,1.52,0,1,0-1.52,1.52,1.52,1.52,0,0,0,1.52-1.52" fill="#f2f2f2"/>
                      <path id="Trazado_115757" data-name="Trazado 115757" d="M131.52,90A1.52,1.52,0,1,0,130,91.52,1.52,1.52,0,0,0,131.52,90" fill="#f2f2f2"/>
                      <path id="Trazado_115758" data-name="Trazado 115758" d="M131.52,70A1.52,1.52,0,1,0,130,71.52,1.52,1.52,0,0,0,131.52,70" fill="#f2f2f2"/>
                      <path id="Trazado_115759" data-name="Trazado 115759" d="M131.52,50A1.52,1.52,0,1,0,130,51.52,1.52,1.52,0,0,0,131.52,50" fill="#f2f2f2"/>
                      <path id="Trazado_115760" data-name="Trazado 115760" d="M131.52,30A1.52,1.52,0,1,0,130,31.52,1.52,1.52,0,0,0,131.52,30" fill="#f2f2f2"/>
                      <path id="Trazado_115761" data-name="Trazado 115761" d="M131.52,10A1.52,1.52,0,1,0,130,11.52,1.52,1.52,0,0,0,131.52,10" fill="#f2f2f2"/>
                      <path id="Trazado_115762" data-name="Trazado 115762" d="M111.52,150a1.52,1.52,0,1,0-1.52,1.52,1.52,1.52,0,0,0,1.52-1.52" fill="#f2f2f2"/>
                      <path id="Trazado_115763" data-name="Trazado 115763" d="M111.52,130a1.52,1.52,0,1,0-1.52,1.52,1.52,1.52,0,0,0,1.52-1.52" fill="#f2f2f2"/>
                      <path id="Trazado_115764" data-name="Trazado 115764" d="M111.52,110a1.52,1.52,0,1,0-1.52,1.52,1.52,1.52,0,0,0,1.52-1.52" fill="#f2f2f2"/>
                      <path id="Trazado_115765" data-name="Trazado 115765" d="M111.52,90A1.52,1.52,0,1,0,110,91.52,1.52,1.52,0,0,0,111.52,90" fill="#f2f2f2"/>
                      <path id="Trazado_115766" data-name="Trazado 115766" d="M111.52,70A1.52,1.52,0,1,0,110,71.52,1.52,1.52,0,0,0,111.52,70" fill="#f2f2f2"/>
                      <path id="Trazado_115767" data-name="Trazado 115767" d="M111.52,50A1.52,1.52,0,1,0,110,51.52,1.52,1.52,0,0,0,111.52,50" fill="#f2f2f2"/>
                      <path id="Trazado_115768" data-name="Trazado 115768" d="M111.52,30A1.52,1.52,0,1,0,110,31.52,1.52,1.52,0,0,0,111.52,30" fill="#f2f2f2"/>
                      <path id="Trazado_115769" data-name="Trazado 115769" d="M111.52,10A1.52,1.52,0,1,0,110,11.52,1.52,1.52,0,0,0,111.52,10" fill="#f2f2f2"/>
                      <path id="Trazado_115770" data-name="Trazado 115770" d="M91.52,150A1.52,1.52,0,1,0,90,151.52,1.52,1.52,0,0,0,91.52,150" fill="#f2f2f2"/>
                      <path id="Trazado_115771" data-name="Trazado 115771" d="M91.52,130A1.52,1.52,0,1,0,90,131.52,1.52,1.52,0,0,0,91.52,130" fill="#f2f2f2"/>
                      <path id="Trazado_115772" data-name="Trazado 115772" d="M91.52,110A1.52,1.52,0,1,0,90,111.52,1.52,1.52,0,0,0,91.52,110" fill="#f2f2f2"/>
                      <path id="Trazado_115773" data-name="Trazado 115773" d="M91.52,90A1.52,1.52,0,1,0,90,91.52,1.52,1.52,0,0,0,91.52,90" fill="#f2f2f2"/>
                      <path id="Trazado_115774" data-name="Trazado 115774" d="M91.52,70A1.52,1.52,0,1,0,90,71.52,1.52,1.52,0,0,0,91.52,70" fill="#f2f2f2"/>
                      <path id="Trazado_115775" data-name="Trazado 115775" d="M91.52,50A1.52,1.52,0,1,0,90,51.52,1.52,1.52,0,0,0,91.52,50" fill="#f2f2f2"/>
                      <path id="Trazado_115776" data-name="Trazado 115776" d="M91.52,30A1.52,1.52,0,1,0,90,31.52,1.52,1.52,0,0,0,91.52,30" fill="#f2f2f2"/>
                      <path id="Trazado_115777" data-name="Trazado 115777" d="M91.52,10A1.52,1.52,0,1,0,90,11.52,1.52,1.52,0,0,0,91.52,10" fill="#f2f2f2"/>
                      <path id="Trazado_115778" data-name="Trazado 115778" d="M71.52,150A1.52,1.52,0,1,0,70,151.52,1.52,1.52,0,0,0,71.52,150" fill="#f2f2f2"/>
                      <path id="Trazado_115779" data-name="Trazado 115779" d="M71.52,130A1.52,1.52,0,1,0,70,131.52,1.52,1.52,0,0,0,71.52,130" fill="#f2f2f2"/>
                      <path id="Trazado_115780" data-name="Trazado 115780" d="M71.52,110A1.52,1.52,0,1,0,70,111.52,1.52,1.52,0,0,0,71.52,110" fill="#f2f2f2"/>
                      <path id="Trazado_115781" data-name="Trazado 115781" d="M71.52,90A1.52,1.52,0,1,0,70,91.52,1.52,1.52,0,0,0,71.52,90" fill="#f2f2f2"/>
                      <path id="Trazado_115782" data-name="Trazado 115782" d="M71.52,70A1.52,1.52,0,1,0,70,71.52,1.52,1.52,0,0,0,71.52,70" fill="#f2f2f2"/>
                      <path id="Trazado_115783" data-name="Trazado 115783" d="M71.52,50A1.52,1.52,0,1,0,70,51.52,1.52,1.52,0,0,0,71.52,50" fill="#f2f2f2"/>
                      <path id="Trazado_115784" data-name="Trazado 115784" d="M71.52,30A1.52,1.52,0,1,0,70,31.52,1.52,1.52,0,0,0,71.52,30" fill="#f2f2f2"/>
                      <path id="Trazado_115785" data-name="Trazado 115785" d="M71.52,10A1.52,1.52,0,1,0,70,11.52,1.52,1.52,0,0,0,71.52,10" fill="#f2f2f2"/>
                      <path id="Trazado_115786" data-name="Trazado 115786" d="M51.52,150A1.52,1.52,0,1,0,50,151.52,1.52,1.52,0,0,0,51.52,150" fill="#f2f2f2"/>
                      <path id="Trazado_115787" data-name="Trazado 115787" d="M51.52,130A1.52,1.52,0,1,0,50,131.52,1.52,1.52,0,0,0,51.52,130" fill="#f2f2f2"/>
                      <path id="Trazado_115788" data-name="Trazado 115788" d="M51.52,110A1.52,1.52,0,1,0,50,111.52,1.52,1.52,0,0,0,51.52,110" fill="#f2f2f2"/>
                      <path id="Trazado_115789" data-name="Trazado 115789" d="M51.52,90A1.52,1.52,0,1,0,50,91.52,1.52,1.52,0,0,0,51.52,90" fill="#f2f2f2"/>
                      <path id="Trazado_115790" data-name="Trazado 115790" d="M51.52,70A1.52,1.52,0,1,0,50,71.52,1.52,1.52,0,0,0,51.52,70" fill="#f2f2f2"/>
                      <path id="Trazado_115791" data-name="Trazado 115791" d="M51.52,50A1.52,1.52,0,1,0,50,51.52,1.52,1.52,0,0,0,51.52,50" fill="#f2f2f2"/>
                      <path id="Trazado_115792" data-name="Trazado 115792" d="M51.52,30A1.52,1.52,0,1,0,50,31.52,1.52,1.52,0,0,0,51.52,30" fill="#f2f2f2"/>
                      <path id="Trazado_115793" data-name="Trazado 115793" d="M51.52,10A1.52,1.52,0,1,0,50,11.52,1.52,1.52,0,0,0,51.52,10" fill="#f2f2f2"/>
                      <path id="Trazado_115794" data-name="Trazado 115794" d="M31.52,150A1.52,1.52,0,1,0,30,151.52,1.52,1.52,0,0,0,31.52,150" fill="#f2f2f2"/>
                      <path id="Trazado_115795" data-name="Trazado 115795" d="M31.52,130A1.52,1.52,0,1,0,30,131.52,1.52,1.52,0,0,0,31.52,130" fill="#f2f2f2"/>
                      <path id="Trazado_115796" data-name="Trazado 115796" d="M31.52,110A1.52,1.52,0,1,0,30,111.52,1.52,1.52,0,0,0,31.52,110" fill="#f2f2f2"/>
                      <path id="Trazado_115797" data-name="Trazado 115797" d="M31.52,90A1.52,1.52,0,1,0,30,91.52,1.52,1.52,0,0,0,31.52,90" fill="#f2f2f2"/>
                      <path id="Trazado_115798" data-name="Trazado 115798" d="M31.52,70A1.52,1.52,0,1,0,30,71.52,1.52,1.52,0,0,0,31.52,70" fill="#f2f2f2"/>
                      <path id="Trazado_115799" data-name="Trazado 115799" d="M31.52,50A1.52,1.52,0,1,0,30,51.52,1.52,1.52,0,0,0,31.52,50" fill="#f2f2f2"/>
                      <path id="Trazado_115800" data-name="Trazado 115800" d="M31.52,30A1.52,1.52,0,1,0,30,31.52,1.52,1.52,0,0,0,31.52,30" fill="#f2f2f2"/>
                      <path id="Trazado_115801" data-name="Trazado 115801" d="M31.52,10A1.52,1.52,0,1,0,30,11.52,1.52,1.52,0,0,0,31.52,10" fill="#f2f2f2"/>
                      <path id="Trazado_115802" data-name="Trazado 115802" d="M11.52,150A1.52,1.52,0,1,0,10,151.52,1.52,1.52,0,0,0,11.52,150" fill="#f2f2f2"/>
                      <path id="Trazado_115803" data-name="Trazado 115803" d="M11.52,130A1.52,1.52,0,1,0,10,131.52,1.52,1.52,0,0,0,11.52,130" fill="#f2f2f2"/>
                      <path id="Trazado_115804" data-name="Trazado 115804" d="M11.52,110A1.52,1.52,0,1,0,10,111.52,1.52,1.52,0,0,0,11.52,110" fill="#f2f2f2"/>
                      <path id="Trazado_115805" data-name="Trazado 115805" d="M11.52,90A1.52,1.52,0,1,0,10,91.52,1.52,1.52,0,0,0,11.52,90" fill="#f2f2f2"/>
                      <path id="Trazado_115806" data-name="Trazado 115806" d="M11.52,70A1.52,1.52,0,1,0,10,71.52,1.52,1.52,0,0,0,11.52,70" fill="#f2f2f2"/>
                      <path id="Trazado_115807" data-name="Trazado 115807" d="M11.52,50A1.52,1.52,0,1,0,10,51.52,1.52,1.52,0,0,0,11.52,50" fill="#f2f2f2"/>
                      <path id="Trazado_115808" data-name="Trazado 115808" d="M11.52,30A1.52,1.52,0,1,0,10,31.52,1.52,1.52,0,0,0,11.52,30" fill="#f2f2f2"/>
                      <path id="Trazado_115809" data-name="Trazado 115809" d="M11.52,10A1.52,1.52,0,1,0,10,11.52,1.52,1.52,0,0,0,11.52,10" fill="#f2f2f2"/>
                    </g>
                  </g>
                </g>
              </g>
            </g>
          </g>
        </g>
      </g>
    </g>
    <path id="Trazado_115813" data-name="Trazado 115813" d="M360.1,165.773a241.282,241.282,0,0,0-21.744-20.356A177.635,177.635,0,0,0,313.8,128.444a129.013,129.013,0,0,0-27.917-11.989,90.875,90.875,0,0,0-15.4-3.053c-1.328-.115-2.655-.262-4-.3-.672-.029-1.343-.071-2.019-.086L262.43,113c-1.365-.013-2.678.045-4.027.069-1.332.082-2.677.136-4.008.266-10.7.931-21.064,3.919-30.714,7.674-9.68,3.761-18.733,8.3-27.442,12.644-4.352,2.182-8.636,4.3-12.851,6.276-2.111,1-4.2,1.931-6.276,2.845-1.036.437-2.072.893-3.1,1.308l-3.187,1.294c-8.876,3.592-17.55,6.936-26.091,9.6-4.267,1.336-8.493,2.5-12.646,3.441-2.077.469-4.135.884-6.169,1.232s-4.045.608-6.02.811a57.978,57.978,0,0,1-21.291-1.288,38.739,38.739,0,0,1-4.35-1.493c-.693-.279-1.363-.59-2.023-.9l-.972-.491c-.292-.167-.585-.319-.872-.494a30.432,30.432,0,0,1-6.307-4.9c-.466-.478-.922-.963-1.355-1.47l-1.684-1.893c-.582-.653-1.1-1.334-1.658-1.987-.535-.666-1.023-1.35-1.539-2.011a50.924,50.924,0,0,1-4.921-8.239,45.623,45.623,0,0,1-3.074-8.465,46.1,46.1,0,0,1-1.38-8.783A66.063,66.063,0,0,1,70.156,99.2a98.886,98.886,0,0,1,6.976-19.857,106.5,106.5,0,0,1,5.123-9.651c.927-1.551,1.886-3.066,2.848-4.493.48-.707.968-1.391,1.435-2.011.233-.308.465-.607.672-.85a4.115,4.115,0,0,1,.287-.317c.036-.029.087-.089.1-.08l.018,0s.021-.021-.005.035l-.1.23a41.468,41.468,0,0,0-71.83-41.459l-.325.624-.208.427-.332.714-.568,1.28c-.358.824-.678,1.6-.99,2.37-.621,1.536-1.187,3.026-1.736,4.5-1.084,2.95-2.067,5.859-2.976,8.776-1.814,5.829-3.326,11.69-4.6,17.642A172.731,172.731,0,0,0,0,94.041a130.737,130.737,0,0,0,5.789,38.751,114.192,114.192,0,0,0,7.742,18.686,106.2,106.2,0,0,0,10.955,16.848,109.535,109.535,0,0,0,13.426,14.153c1.209,1.03,2.4,2.078,3.628,3.068,1.235.969,2.454,1.965,3.7,2.887l1.879,1.37c.64.462,1.207.882,1.973,1.412,1.442,1.015,2.923,1.976,4.426,2.9a82.975,82.975,0,0,0,19.218,8.666c.84.262,1.691.493,2.538.729.831.214,1.651.422,2.477.618,1.653.379,3.309.725,4.967,1.005a88.139,88.139,0,0,0,9.895,1.134,95.573,95.573,0,0,0,18.973-.855,115.261,115.261,0,0,0,17.318-3.9,175.764,175.764,0,0,0,30.139-12.661c9.264-4.854,17.9-10.139,26.206-15.377l3.241-2.053c1.112-.7,2.185-1.426,3.273-2.139,2.14-1.441,4.255-2.89,6.3-4.352,4.119-2.919,8.063-5.862,11.954-8.721,7.772-5.727,15.266-11.234,22.992-15.892a91.763,91.763,0,0,1,24.073-10.642c1.048-.289,2.105-.507,3.164-.761l1.6-.309.8-.156c.266-.047.527-.073.791-.111l1.585-.213c.531-.062,1.068-.1,1.6-.15,1.07-.119,2.157-.14,3.243-.2,1.089-.035,2.186-.032,3.286-.028,1.1.051,2.208.04,3.317.141l1.667.117c.557.042,1.113.114,1.67.171,1.115.109,2.228.278,3.343.447,1.119.146,2.227.389,3.346.581,1.115.214,2.225.473,3.341.712,1.1.293,2.214.566,3.319.875,1.1.333,2.209.626,3.3.991,2.2.693,4.371,1.479,6.52,2.345,1.077.428,2.153.861,3.214,1.336l1.6.7,1.575.751a117.9,117.9,0,0,1,23.675,15.01,115.682,115.682,0,0,1,19.575,20.191,4.907,4.907,0,1,0,7.494-6.313Z" transform="translate(1391.77 1777.873) rotate(177)" fill="#fdb74d"/>
    <g id="Grupo_80845" data-name="Grupo 80845" transform="translate(1120.18 1786.152)">
      <ellipse id="Elipse_4784" data-name="Elipse 4784" cx="96.209" cy="6.299" rx="96.209" ry="6.299" transform="translate(0 0)" fill="#8c6df2" opacity="0.25"/>
    </g>
    <g id="Grupo_80892" data-name="Grupo 80892" transform="translate(1112.163 1536.936)">
      <g id="Grupo_80746" data-name="Grupo 80746" clip-path="url(#clip-path-13)">
        <path id="Trazado_115586" data-name="Trazado 115586" d="M208.571,173.763c-.305,7.883-3.863,15.287-8.151,21.76a93.739,93.739,0,0,1-13.414,15.84c-1.468,1.41-2.978,2.773-4.515,4.1a60.813,60.813,0,0,1-6.336,4.752c-6.32,4.162-13.256,7.278-20.17,10.488a346.689,346.689,0,0,1-47.271,17.85,16,16,0,0,1-8.941.058C69.1,239.9,47.7,230.075,32.831,220.214a94.641,94.641,0,0,1-20.318-17.55c-.516-.61-1.005-1.216-1.479-1.815C-4.042,181.678.42,165.391,1.283,161.2c.032-.153.058-.284.079-.405.053-.289.116-.574.184-.858,13.024-55.123,8.967-68.584,8.341-80.171C9.319,71.6,5.188,58.608,2.009,49.6A16.032,16.032,0,0,1,6.6,32.16l.963-.837a16.181,16.181,0,0,1,13.956-3.515C31.047,29.8,40.85,29.144,45.1,27.9,63.642,24.124,87.538,8.405,93.821,4.317S105.772-1.03,110.487.859s25.149,14.461,41.183,22.317c15.866,8.03,28.074,7.078,35.379,4.978a15.947,15.947,0,0,1,15.44,3.9c.074.068.147.142.221.21A15.914,15.914,0,0,1,206.5,49.615c-6.131,15.266-8.562,41.683-8.309,53.412.247,11.509,7.067,39.136,9.53,58.175a80.468,80.468,0,0,1,.847,12.561" transform="translate(0 0)" fill="#8c6df2"/>
        <path id="Trazado_115587" data-name="Trazado 115587" d="M192.985,133.765,156.9,178.62l8.134,44.913h97.37l-12.52-61.309-49.248-29.809a5.9,5.9,0,0,0-7.654,1.35" transform="translate(-74.335 -62.33)" fill="#dbe6fd"/>
        <rect id="Rectángulo_34763" data-name="Rectángulo 34763" width="11.802" height="11.802" transform="matrix(0.985, -0.174, 0.174, 0.985, 155.379, 121.428)" fill="#a7d0e1"/>
        <path id="Trazado_115588" data-name="Trazado 115588" d="M182.573,94.971l-46.657,57.635a5.9,5.9,0,0,0,5.611,9.525l4.8-.847,36.083-44.855a5.9,5.9,0,0,1,7.653-1.35l49.248,29.809,4.8-.846a5.9,5.9,0,0,0,2.015-10.869Z" transform="translate(-63.761 -44.994)" fill="#5038a1"/>
        <path id="Trazado_115589" data-name="Trazado 115589" d="M250.069,124.546a2.929,2.929,0,0,1-1.517-.422l-4.909-2.951a2.95,2.95,0,0,1,3.04-5.057l4.909,2.951a2.951,2.951,0,0,1-1.523,5.479" transform="translate(-114.753 -54.812)" fill="#fff"/>
        <path id="Trazado_115590" data-name="Trazado 115590" d="M144.768,152.606,188.527,98.55l-5.954-3.579-46.657,57.635a5.9,5.9,0,0,0,5.611,9.525l4.666-.823a5.9,5.9,0,0,1-1.426-8.7" transform="translate(-63.761 -44.994)" fill="#12263f"/>
        <path id="Trazado_115591" data-name="Trazado 115591" d="M262.406,223.533l-1.808-8.852H210.365A47.167,47.167,0,0,1,166.536,184.9a11.756,11.756,0,0,1,1.823-11.674l24.626-30.613a5.9,5.9,0,0,1,7.654-1.349l49.248,29.809,1.744-.307-1.744-8.544-49.248-29.809a5.9,5.9,0,0,0-7.654,1.349l-29.957,37.241L156.9,178.62l1.309,7.225,6.826,37.688Z" transform="translate(-74.335 -62.33)" fill="#bbcff2"/>
        <rect id="Rectángulo_34764" data-name="Rectángulo 34764" width="11.802" height="11.802" transform="matrix(0.985, -0.174, 0.174, 0.985, 97.264, 131.675)" fill="#a7d0e1"/>
        <path id="Trazado_115592" data-name="Trazado 115592" d="M185.008,251.223l1.957,11.1,7.287-1.285a47.273,47.273,0,0,1-9.243-9.812" transform="translate(-87.651 -119.022)" fill="#80bbce"/>
        <path id="Trazado_115593" data-name="Trazado 115593" d="M243.077,179.335a8.852,8.852,0,1,1-10.254-7.18,8.852,8.852,0,0,1,10.254,7.18" transform="translate(-106.838 -81.497)" fill="#a7d0e1"/>
        <path id="Trazado_115594" data-name="Trazado 115594" d="M218.5,318.894c-.305,7.883-3.863,15.287-8.151,21.76a93.736,93.736,0,0,1-13.414,15.839c-1.468,1.41-2.978,2.773-4.515,4.1a60.821,60.821,0,0,1-6.336,4.752H42.764a94.642,94.642,0,0,1-20.318-17.55c-.516-.61-1.005-1.216-1.479-1.815V306.333H79.98l11.8,11.8-5.9,5.9,8.851,8.851v14.755l8.851-8.851v-11.8l-2.952-2.952v-17.7H217.657a80.474,80.474,0,0,1,.847,12.561" transform="translate(-9.934 -145.131)" fill="#fedc72"/>
        <path id="Trazado_115595" data-name="Trazado 115595" d="M187.006,356.493c-1.468,1.41-2.978,2.773-4.515,4.1a60.817,60.817,0,0,1-6.336,4.752H32.831a94.642,94.642,0,0,1-20.318-17.55c-.516-.61-1.005-1.216-1.479-1.815C-4.042,326.809.42,310.522,1.283,306.333h18.6a50.163,50.163,0,0,0,50.16,50.16Z" transform="translate(0 -145.131)" fill="#fdb74d"/>
        <rect id="Rectángulo_34765" data-name="Rectángulo 34765" width="11.802" height="47.209" transform="translate(31.69 113.993)" fill="#fedc72"/>
        <path id="Trazado_115596" data-name="Trazado 115596" d="M60.22,239.113a16.186,16.186,0,0,0,11.8,0V216.622H60.22Z" transform="translate(-28.53 -102.629)" fill="#fdb74d"/>
        <path id="Trazado_115597" data-name="Trazado 115597" d="M73.493,175.893c0,14.666-9.247,26.555-20.654,26.555s-20.654-11.889-20.654-26.555,9.247-26.555,20.654-26.555,20.654,11.889,20.654,26.555" transform="translate(-15.248 -70.752)" fill="#72aa65"/>
        <path id="Trazado_115598" data-name="Trazado 115598" d="M61.691,195.352c-11.407,0-20.654-11.889-20.654-26.555a31.666,31.666,0,0,1,4.055-15.754c-7.565,3.942-12.906,13.465-12.906,24.606,0,14.666,9.247,26.555,20.654,26.555,6.813,0,12.837-4.26,16.6-10.8a16.674,16.674,0,0,1-7.748,1.95" transform="translate(-15.248 -72.507)" fill="#599149"/>
        <path id="Trazado_115599" data-name="Trazado 115599" d="M259.729,273.209H235.77l-4.9-27.824a5.884,5.884,0,0,1,4.78-6.816l11.626-2.065a5.92,5.92,0,0,1,6.845,4.78Z" transform="translate(-109.338 -112.006)" fill="#5038a1"/>
        <path id="Trazado_115600" data-name="Trazado 115600" d="M248.229,288.228a47.147,47.147,0,0,1-11.406-1.428l1.809,10.279h23.959l-1.555-8.852Z" transform="translate(-112.199 -135.877)" fill="#12263f"/>
        <path id="Trazado_115601" data-name="Trazado 115601" d="M108.026,102.853a2.941,2.941,0,0,0,2.086-.865l2.951-2.951a7.129,7.129,0,0,0,0-10.073,1.224,1.224,0,0,1,0-1.729l2.951-2.951a2.95,2.95,0,0,0-4.172-4.172l-2.951,2.951a7.129,7.129,0,0,0,0,10.073,1.224,1.224,0,0,1,0,1.729l-2.951,2.951a2.951,2.951,0,0,0,2.086,5.037" transform="translate(-49.782 -37.545)" fill="#fedc72"/>
        <path id="Trazado_115602" data-name="Trazado 115602" d="M128.369,97.816a2.95,2.95,0,0,0,4.173,4.173l2.951-2.951a7.131,7.131,0,0,0,0-10.074,1.223,1.223,0,0,1,0-1.729l2.951-2.951a2.95,2.95,0,0,0-4.172-4.172l-2.951,2.951a7.131,7.131,0,0,0,0,10.074,1.223,1.223,0,0,1,0,1.729Z" transform="translate(-60.408 -37.545)" fill="#fedc72"/>
        <path id="Trazado_115603" data-name="Trazado 115603" d="M187.958,69.416a2.941,2.941,0,0,0,2.086-.865L193,65.6a7.129,7.129,0,0,0,0-10.073,1.224,1.224,0,0,1,0-1.729l2.951-2.951a2.95,2.95,0,0,0-4.172-4.172l-2.951,2.951a7.13,7.13,0,0,0,0,10.074,1.224,1.224,0,0,1,0,1.729l-2.951,2.951a2.951,2.951,0,0,0,2.086,5.037" transform="translate(-87.651 -21.704)" fill="#fedc72"/>
        <path id="Trazado_115604" data-name="Trazado 115604" d="M208.3,64.379a2.95,2.95,0,1,0,4.172,4.172l2.951-2.951a7.131,7.131,0,0,0,0-10.074,1.223,1.223,0,0,1,0-1.729l2.95-2.951a2.95,2.95,0,0,0-4.172-4.172l-2.95,2.951a7.131,7.131,0,0,0,0,10.074,1.224,1.224,0,0,1,0,1.729Z" transform="translate(-98.277 -21.704)" fill="#fedc72"/>
        <path id="Trazado_115605" data-name="Trazado 115605" d="M117.155,259.686a2.95,2.95,0,0,0,4.173,4.172l2.951-2.951a2.95,2.95,0,1,0-4.172-4.173Z" transform="translate(-55.095 -121.224)" fill="#fedc72"/>
        <path id="Trazado_115606" data-name="Trazado 115606" d="M359.773,200.666a2.95,2.95,0,0,0-4.172,0l-2.951,2.951a2.95,2.95,0,0,0,4.172,4.172l2.951-2.951a2.95,2.95,0,0,0,0-4.172" transform="translate(-166.665 -94.66)" fill="#fedc72"/>
        <path id="Trazado_115607" data-name="Trazado 115607" d="M144.619,278.593v-2.951a2.951,2.951,0,0,0-5.9,0v2.951a2.951,2.951,0,0,0,5.9,0" transform="translate(-65.72 -129.193)" fill="#fedc72"/>
        <path id="Trazado_115608" data-name="Trazado 115608" d="M356.822,228.7a2.95,2.95,0,1,0-4.172,4.172l2.951,2.951a2.95,2.95,0,0,0,4.172-4.173Z" transform="translate(-166.665 -107.942)" fill="#fedc72"/>
        <path id="Trazado_115609" data-name="Trazado 115609" d="M177.9,203.147a2.948,2.948,0,0,0,1.213,1.9l10.255,7.181a2.951,2.951,0,0,0,3.386-4.835l-7.839-5.488,3.1-4.419a2.95,2.95,0,0,0-.536-3.965l-7.088-5.87-3.7,4.6,4.928,4.081-3.227,4.606a2.961,2.961,0,0,0-.488,2.206" transform="translate(-83.708 -88.906)" fill="#bbcff2"/>
        <path id="Trazado_115610" data-name="Trazado 115610" d="M40.743,338.791h10.58l5.037,5.037a2.95,2.95,0,1,0,4.172-4.172l-3.815-3.815,15.617-15.618a2.95,2.95,0,0,0,0-4.173l-9.716-9.716H54.274l11.8,11.8L51.323,332.89H40.743a2.951,2.951,0,1,0,0,5.9" transform="translate(-17.905 -145.132)" fill="#fdb74d"/>
        <path id="Trazado_115611" data-name="Trazado 115611" d="M234.35,381.9a2.95,2.95,0,1,0-4.172-4.172l-3.815,3.815-2.951-2.95v-7.63a2.951,2.951,0,0,0-5.9,0v5.9H214.56a2.951,2.951,0,0,0,0,5.9h4.68l4.172,4.172v7.63h5.9v-7.63Z" transform="translate(-100.254 -174.353)" fill="#fdb74d"/>
        <path id="Trazado_115612" data-name="Trazado 115612" d="M312.653,283.7l-2.35-13.324,4.087-5.835a2.951,2.951,0,1,0-4.835-3.386l-4.087,5.835-4.607.812a2.951,2.951,0,0,0,1.026,5.812l2.9-.512,1.98,11.23h5.865a2.789,2.789,0,0,0,.016-.633" transform="translate(-141.384 -123.132)" fill="#bbcff2"/>
        <path id="Trazado_115613" data-name="Trazado 115613" d="M295.376,306.335l-8.852,8.852h-4.68a2.951,2.951,0,1,0,0,5.9h4.68l7.124,7.123v7.63a2.953,2.953,0,0,0,.864,2.086l8.851,8.852a2.951,2.951,0,0,0,4.173-4.173l-7.988-7.987v-4.68h5.9a2.951,2.951,0,1,0,0-5.9h-7.63l-5.9-5.9,11.8-11.8Z" transform="translate(-132.131 -145.132)" fill="#fdb74d"/>
      </g>
    </g>
  </g>
</svg>
