<svg id="Grupo_80905" data-name="Grupo 80905" xmlns="http://www.w3.org/2000/svg" xmlns:xlink="http://www.w3.org/1999/xlink" width="231.114" height="273.744" viewBox="0 0 231.114 273.744">
  <defs>
    <clipPath id="clip-path">
      <rect id="Rectángulo_34829" data-name="Rectángulo 34829" width="231.114" height="273.744" fill="none"/>
    </clipPath>
  </defs>
  <g id="Grupo_80905-2" data-name="Grupo 80905" clip-path="url(#clip-path)">
    <path id="Trazado_115854" data-name="Trazado 115854" d="M229.12,189.869v.006c-.006.341-.012.665-.023.988a34.82,34.82,0,0,1-1.393,8.352c-.058.191-.11.376-.168.561v.006a58.449,58.449,0,0,1-7.393,14.982c-.324.491-.659.983-.994,1.462a103.92,103.92,0,0,1-13.74,15.936q-.581.564-1.179,1.11c-.728.688-1.462,1.353-2.2,2.012-.52.462-1.046.925-1.578,1.381q-1.673,1.439-3.428,2.746-1.734,1.292-3.532,2.474-1.222.8-2.468,1.555c-2.6,1.584-5.277,3.035-8,4.41-1.4.711-2.821,1.4-4.243,2.081-2.468,1.173-4.959,2.318-7.445,3.474-.225.1-.445.208-.671.306q-8.15,3.772-16.485,7.139h-.006q-1.665.685-3.347,1.335-5.185,2.046-10.427,3.936a.328.328,0,0,1-.069.023q-6.182,2.237-12.445,4.243c-.006.006-.006.006-.006,0s-.017.012-.029.012q-3.451,1.118-6.919,2.156c-.509.156-1.012.306-1.52.457a17.57,17.57,0,0,1-9.821.064c-.607-.173-1.214-.347-1.815-.52q-3.529-1.014-6.9-2.046c-.006-.006-.017-.006-.023-.012-8.826-2.7-16.9-5.491-24.271-8.347-.295-.11-.59-.225-.879-.341-.775-.3-1.549-.6-2.306-.907-1.867-.751-3.688-1.5-5.462-2.254-1.85-.78-3.642-1.566-5.393-2.364q-3.7-1.665-7.127-3.364l-1.942-.965q-4.023-2.046-7.659-4.1c-.393-.225-.786-.445-1.173-.67q-3.754-2.159-7.1-4.329c-.5-.318-.994-.642-1.48-.965q-4.985-3.3-9.1-6.6a93,93,0,0,1-13.214-12.676c-.566-.67-1.1-1.335-1.624-1.994q-1.136-1.448-2.144-2.879Q8.536,215.7,7.357,213.7c-.462-.763-.9-1.52-1.289-2.266-.006-.006-.012-.006-.017-.012v-.006a.021.021,0,0,1-.006-.017,51.475,51.475,0,0,1-4.5-11.254c-.145-.538-.272-1.069-.393-1.6-.162-.694-.3-1.376-.422-2.046-.2-1.133-.358-2.237-.474-3.295a47.508,47.508,0,0,1,1.156-16.144c.035-.168.064-.312.087-.445.058-.318.127-.63.2-.942.543-2.289,1.052-4.509,1.543-6.67.04-.179.081-.353.116-.532l.006-.006c1.844-8.185,3.318-15.462,4.485-21.953.751-4.168,1.381-8.006,1.9-11.56v-.012c.081-.543.156-1.081.231-1.613.087-.6.168-1.191.243-1.775.2-1.445.37-2.838.526-4.191v-.006q.234-1.985.422-3.838c.243-2.376.422-4.6.561-6.665v-.006c.168-2.618.266-5.011.3-7.208.023-1.046.029-2.046.023-3.011v-.006c-.006-2.046-.064-3.907-.15-5.63-.012-.191-.017-.382-.029-.566-.2-3.584-.509-6.555-.746-9.283-.04-.4-.075-.8-.1-1.2-.064-.792-.121-1.561-.162-2.329-.023-.324-.052-.659-.081-1v-.012A90.434,90.434,0,0,0,7.86,72.335c-.52-1.936-1.092-3.9-1.682-5.826-.705-2.318-1.439-4.6-2.168-6.774-.613-1.838-1.225-3.607-1.8-5.248A17.61,17.61,0,0,1,7.253,35.324l1.058-.919a17.3,17.3,0,0,1,5.653-3.26,18.017,18.017,0,0,1,9.537-.63c.046.012.092.017.139.029,10.462,2.185,21.231,1.468,25.9.1,7.5-1.526,15.791-4.832,23.624-8.624,2.295-1.11,4.555-2.26,6.74-3.422,10.612-5.641,19.537-11.5,23.155-13.855C109.961.25,116.18-1.131,121.36.944S148.983,16.828,166.6,25.458c16.8,8.5,29.86,7.838,37.97,5.711.306-.075.6-.162.89-.243a17.207,17.207,0,0,1,8.861-.168h.006a17.749,17.749,0,0,1,8.092,4.457c.081.075.162.156.243.231A17.48,17.48,0,0,1,226.825,54.5q-.954,2.384-1.8,5.063v.006c-.6,1.884-1.156,3.867-1.676,5.913a208.387,208.387,0,0,0-5.647,47.687c.006.243.012.491.023.746v.006c.069,1.74.26,3.769.543,6.035.566,4.532,1.5,9.994,2.6,15.907v.006c.873,4.711,1.838,9.693,2.8,14.722.1.561.214,1.127.318,1.688v.006c.04.2.075.387.116.584.509,2.7,1.012,5.4,1.491,8.058.283,1.578.561,3.144.821,4.688v.006q.234,1.353.451,2.67a.112.112,0,0,1,.006.04v.006c.035.168.058.335.087.5q.13.832.26,1.647c0,.012.006.017.006.023.023.144.04.283.064.428a.1.1,0,0,1,.006.04c.133.855.266,1.7.387,2.532q.269,1.821.491,3.561a95.594,95.594,0,0,1,.954,12.8" transform="translate(0 0)" fill="#8c6df2"/>
    <path id="Trazado_115855" data-name="Trazado 115855" d="M355.789,191.3a3.856,3.856,0,0,1-2.694,1.087h-6.162l-14.4,14.4a3.885,3.885,0,0,1-5.5-5.491l14.4-14.4v-13.93a3.884,3.884,0,1,1,7.769,0V184.61H353.1a3.849,3.849,0,0,1,2.15.647v.006c.069,1.74.26,3.769.543,6.035" transform="translate(-137.525 -71.346)" fill="#fdb74d"/>
    <path id="Trazado_115856" data-name="Trazado 115856" d="M211.21,58.693H195.67a3.883,3.883,0,0,0-2.747,1.138L180.13,72.624l-7.77-7.77V58.693a3.885,3.885,0,0,0-7.77,0v7.77a3.883,3.883,0,0,0,1.138,2.747l10.517,10.517V97.544a3.885,3.885,0,0,0,7.77,0V79.727l13.264-13.264H211.21a3.885,3.885,0,0,0,0-7.77" transform="translate(-69.454 -23.128)" fill="#fdb74d"/>
    <path id="Trazado_115857" data-name="Trazado 115857" d="M126.4,319.23a57.517,57.517,0,0,1-.821,10.011,41.073,41.073,0,0,1-1.543,6.127,30.978,30.978,0,0,1-6.364,11.058,28.936,28.936,0,0,1-2.913,2.8h-.006a.006.006,0,0,0-.006.006,35.669,35.669,0,0,1-13.682,6.8c-.006-.006-.017-.006-.023-.012-8.826-2.7-16.9-5.491-24.271-8.347-.295-.11-.59-.225-.879-.341-.775-.3-1.549-.6-2.306-.907-1.867-.751-3.688-1.5-5.462-2.254-1.85-.78-3.642-1.566-5.393-2.364q-3.7-1.665-7.127-3.364c-.653-.324-1.3-.647-1.942-.965q-4.023-2.046-7.659-4.1c-.393-.225-.786-.445-1.173-.67q-3.754-2.159-7.1-4.329c-.5-.318-.994-.642-1.48-.965q-4.985-3.3-9.1-6.6a93,93,0,0,1-13.214-12.676c-.566-.671-1.1-1.335-1.624-1.994q-1.136-1.448-2.144-2.879-1.439-2.038-2.618-4.035L6.4,298.942c-.064-.653-.116-1.312-.162-1.983v-.017a.021.021,0,0,1-.006-.017,51.476,51.476,0,0,1-4.5-11.254c-.145-.538-.272-1.069-.393-1.6-.162-.694-.3-1.376-.422-2.046-.2-1.133-.358-2.237-.474-3.295.237-.48.486-.954.746-1.433a100.686,100.686,0,0,1,5.925-9.763c.462-.676.931-1.353,1.41-2.029.035-.046.064-.092.1-.139.237-.329.474-.659.717-.988,1.266-1.751,2.6-3.491,3.971-5.219.526-.659,1.052-1.312,1.59-1.971q2.15-2.619,4.433-5.2c.295-.335.6-.671.9-1.006.6-.671,1.2-1.335,1.809-2q.858-.936,1.728-1.861c.04-.04.075-.075.11-.116l.931-.983q1.855-1.951,3.757-3.861c.318-.318.63-.636.948-.948.636-.636,1.266-1.26,1.907-1.884s1.272-1.237,1.913-1.85a.533.533,0,0,1,.081-.081q.91-.876,1.832-1.74,1.144-1.084,2.289-2.133h.006v-.006h.006c.312-.3.63-.6.948-.879l.035-.035c.549-.5,1.1-1,1.642-1.5q1.127-1.014,2.237-2l.127-.11c.884-.786,1.757-1.549,2.624-2.306,2.052-1.78,4.069-3.491,6.023-5.121,1.572-1.306,3.11-2.561,4.6-3.757,11.566-9.329,20.121-15.15,20.121-15.15s.723,2.965,2.127,8.052c.04.139.081.277.121.422s.081.295.121.445a.044.044,0,0,1,.012.029c.145.543.306,1.1.474,1.694.058.191.11.393.168.59.064.22.127.439.191.665.254.879.52,1.8.8,2.763.052.173.1.353.156.532.023.075.046.156.069.237s.046.162.069.249c.983,3.347,2.133,7.127,3.439,11.237q1.144,3.607,2.457,7.532c2.179,6.514,4.694,13.612,7.532,20.971,7.832-5.451,13.352-8.792,13.352-8.792s2.26,4.636,5.231,11.948c.162.393.324.792.491,1.2.064.173.133.347.208.526.277.705.566,1.428.861,2.179.139.37.289.751.439,1.133.069.191.145.387.22.578l.156.4c.173.451.341.913.514,1.376l.225.607q.642,1.725,1.289,3.549c.069.191.133.382.2.572v.006c.15.428.3.85.451,1.283.728,2.1,1.451,4.283,2.15,6.52.133.428.266.855.4,1.289.971,3.156,1.89,6.416,2.722,9.722.428,1.717.838,3.439,1.214,5.173v.006A105.476,105.476,0,0,1,126.4,319.23" transform="translate(-0.185 -85.524)" fill="#ea5b5a"/>
    <path id="Trazado_115858" data-name="Trazado 115858" d="M117.921,280.528l-4.058,6.087-.936,1.4q-.173.26-.364.5l-.017.017a.006.006,0,0,0-.006.006,7.706,7.706,0,0,1-3.422,2.468l-.977.353-6.682,2.433-23.167,8.422-4.4,1.6a7.733,7.733,0,0,0-4.983,5.873,7.763,7.763,0,0,0-.133,1.428v38.93c-1.85-.78-3.642-1.566-5.393-2.364q-3.7-1.665-7.127-3.364c-.653-.324-1.3-.647-1.942-.965q-4.023-2.046-7.659-4.1c-.393-.225-.786-.445-1.173-.671q-3.754-2.159-7.1-4.329l2.127-13.8a7.769,7.769,0,0,0-5.8-8.717L8.2,305.1l-1.144-.283c-.064-.653-.116-1.312-.162-1.983,0-.006-.006-.012,0-.017a.021.021,0,0,1-.006-.017,51.476,51.476,0,0,1-4.5-11.254c-.145-.538-.272-1.069-.393-1.6l4.873,1.22,2.532.636L30.97,297.2a7.775,7.775,0,0,0,9.647-7.26l.763-21.358a15.527,15.527,0,0,0-3.26-10.092l-8.1-10.416-.358-.462c1.462-1.462,2.936-2.907,4.41-4.318.572-.555,1.15-1.1,1.722-1.642.8-.757,1.6-1.5,2.393-2.243H38.2V239.4c.329-.3.653-.6.977-.89l.006-.006a.125.125,0,0,1,.023-.029l.006-.006c.543-.491,1.087-.988,1.624-1.474.156-.139.306-.277.462-.416l.225.277.023.029,1.324,1.63.006.012,4.023,4.948a7.761,7.761,0,0,0,12.294-.306L78.674,216.6l.006-.006c.04.145.081.283.116.428s.081.295.121.445a.044.044,0,0,1,.012.029c.15.543.312,1.1.474,1.694.058.191.11.393.168.59.064.22.127.439.191.665.254.879.52,1.8.8,2.763.052.173.1.353.156.532.023.075.046.156.069.237s.052.162.075.243c.983,3.347,2.133,7.121,3.439,11.237l-.006.006-16.375,23.2a15.543,15.543,0,0,0-2.838,9.514l.474,13.208a7.771,7.771,0,0,0,10.491,7l.185-.069,1.092-.41.012-.006,10.214-3.826,3.214-1.208,10.248-3.844a7.887,7.887,0,0,0,3.058-2.087l8.8-9.815c.162.393.324.792.491,1.2.064.173.133.347.208.526.277.705.566,1.428.861,2.179.139.37.289.751.439,1.133.069.191.145.387.22.578.052.133.1.266.15.4q.26.676.52,1.37l.225.607q.642,1.725,1.289,3.549c.069.191.133.382.2.572v.006c.15.428.3.85.451,1.283" transform="translate(-0.839 -91.398)" fill="#e04b4b"/>
    <path id="Trazado_115859" data-name="Trazado 115859" d="M35.241,259.753c-.035.035-.069.075-.1.11-.543.584-1.087,1.173-1.63,1.763-1.4,1.532-2.792,3.087-4.144,4.659C17.894,279.6,8.686,293.995,6.473,307.5c-.1.63-.191,1.254-.266,1.879a36.062,36.062,0,0,0-.243,4.15q0,3.893.266,7.48a51.474,51.474,0,0,1-4.5-11.254c-.145-.537-.272-1.069-.393-1.6-.162-.694-.3-1.376-.422-2.046-.2-1.133-.358-2.237-.474-3.295.237-.48.486-.954.746-1.434a100.682,100.682,0,0,1,5.925-9.763c.462-.676.931-1.353,1.41-2.029.035-.046.064-.092.1-.139.237-.329.474-.659.717-.988,1.266-1.751,2.6-3.491,3.971-5.22.526-.659,1.052-1.312,1.59-1.971q2.15-2.618,4.433-5.2c.295-.335.6-.67.9-1.006.6-.671,1.2-1.335,1.809-2q.858-.936,1.728-1.861c.04-.04.075-.075.11-.116l.931-.983q1.855-1.951,3.757-3.861c.318-.318.63-.636.948-.948.636-.636,1.266-1.26,1.907-1.884s1.272-1.237,1.913-1.85a1.044,1.044,0,0,1,.081-.075v-.006q.91-.876,1.832-1.74" transform="translate(-0.185 -109.611)" fill="#e04b4b"/>
    <path id="Trazado_115860" data-name="Trazado 115860" d="M175.027,441.613a29.313,29.313,0,0,1-4.011,5.641,27.185,27.185,0,0,1-2.89,2.769l-.006.006a35.592,35.592,0,0,1-13.676,6.821c-8.826-2.7-16.9-5.491-24.271-8.347-.295-.11-.59-.225-.879-.341-.775-.3-1.549-.6-2.306-.908h21.734q2.168,0,4.277-.1h.035a64.529,64.529,0,0,0,10.9-1.422,41.556,41.556,0,0,0,11.092-4.115" transform="translate(-53.587 -186.353)" fill="#e04b4b"/>
    <path id="Trazado_115861" data-name="Trazado 115861" d="M228.035,469.393a.021.021,0,0,1,.017.006c-.012,0-.023.006-.035.006a.046.046,0,0,1,.017-.011" transform="translate(-96.219 -198.075)" fill="#ea5b5a"/>
    <path id="Trazado_115862" data-name="Trazado 115862" d="M304.244,292.412v.006c-.006.341-.012.665-.023.988a34.82,34.82,0,0,1-1.393,8.352c-.058.191-.11.376-.168.561v.006a58.451,58.451,0,0,1-7.393,14.982c-.324.491-.659.983-.994,1.462a103.923,103.923,0,0,1-13.739,15.936q-.581.564-1.179,1.11c-.728.688-1.462,1.353-2.2,2.012-.52.462-1.046.925-1.578,1.381q-1.673,1.439-3.428,2.746-1.734,1.292-3.532,2.474-1.222.8-2.468,1.555c-2.6,1.584-5.277,3.035-8,4.41-1.4.711-2.821,1.4-4.243,2.081-2.468,1.173-4.959,2.318-7.445,3.474-.225.1-.445.208-.671.306q-8.15,3.772-16.485,7.139H229.3q-1.665.685-3.347,1.335-5.185,2.046-10.427,3.936a.329.329,0,0,1-.069.023q-6.182,2.237-12.445,4.243c-.006.006-.006.006-.006,0s-.017.012-.029.012q-1.353-.373-2.653-.832a.378.378,0,0,1-.04-.012,33.947,33.947,0,0,1-10.6-5.85c-.012-.012-.023-.017-.029-.029-.509-.422-1-.861-1.48-1.324-.243-.231-.48-.474-.717-.711-.058-.064-.121-.127-.179-.191-.04-.04-.087-.087-.127-.133-.139-.139-.266-.277-.393-.416-.445-.491-.879-.994-1.283-1.52l-.006-.006c-.162-.214-.329-.428-.491-.642s-.318-.439-.48-.665c-.237-.341-.468-.682-.694-1.035-.179-.283-.358-.566-.526-.861-.04-.069-.081-.133-.121-.2a.247.247,0,0,0-.023-.04q-.312-.538-.607-1.092c-.2-.381-.393-.769-.584-1.162-.127-.266-.249-.532-.37-.8q-.147-.329-.295-.676a36.928,36.928,0,0,1-1.676-4.994c-.069-.254-.133-.514-.2-.78s-.121-.514-.179-.775c-.064-.289-.127-.584-.185-.884-.069-.33-.127-.665-.191-1a1.372,1.372,0,0,1-.023-.162l-.006-.006c-.046-.254-.087-.514-.127-.78-.064-.376-.116-.751-.168-1.133-.046-.364-.092-.728-.133-1.1-.04-.353-.075-.705-.11-1.064-.029-.295-.052-.584-.075-.884-.023-.283-.046-.572-.058-.867-.029-.428-.052-.867-.069-1.306-.012-.295-.023-.59-.029-.89-.012-.214-.017-.434-.017-.653-.006-.4-.012-.8-.012-1.208,0-.844.017-1.682.046-2.514q.078-2.306.306-4.561c.04-.445.092-.89.145-1.335.069-.607.144-1.214.231-1.815.04-.3.087-.6.133-.9.41-2.7.954-5.329,1.6-7.867.1-.416.214-.827.324-1.237s.225-.832.341-1.243.237-.821.358-1.225c.15-.5.3-.994.462-1.491.092-.306.191-.613.295-.913.127-.393.26-.786.393-1.179s.272-.775.4-1.156c.162-.457.329-.907.491-1.353s.335-.884.5-1.324c.214-.555.434-1.1.659-1.636.682-1.682,1.393-3.289,2.11-4.815a.006.006,0,0,1,.006-.006c.191-.4.382-.8.578-1.2s.376-.763.561-1.139c.162-.324.324-.647.486-.965s.318-.63.48-.936c.642-1.231,1.283-2.393,1.9-3.48q.165-.295.329-.572c.2-.341.4-.676.59-1v-.006a82,82,0,0,1,5.7-8.526s.2.393.566,1.069c.046.087.092.173.145.266s.1.191.162.289c.11.2.231.41.364.636,0,.006.006.012.006.017.179.306.376.63.584.977q.165.278.347.572c.607.983,1.335,2.1,2.162,3.266a39.413,39.413,0,0,0,9.017,9.468c7.306-18.947,25.011-36.178,36.964-46.224,2.272-1.913,4.329-3.561,6.075-4.913,1.15-.9,2.162-1.659,3.006-2.283.121-.087.237-.173.353-.26.133-.1.254-.191.376-.277.087-.064.179-.127.26-.191.254-.185.486-.353.688-.5.11-.075.208-.145.3-.214.139-.092.254-.179.353-.249.283-.2.433-.306.433-.306s.445.283,1.249.832l.41.277c.156.11.329.231.514.358.087.064.173.121.266.185.89.63,1.994,1.422,3.266,2.381.133.093.26.2.393.295.532.4,1.092.827,1.676,1.283,2.277,1.769,4.925,3.931,7.769,6.457a143.286,143.286,0,0,1,13.647,13.768q1.249,1.448,2.468,2.959a.081.081,0,0,0,.012.017,108.047,108.047,0,0,1,7.185,9.959c.861,1.358,1.688,2.734,2.48,4.144.26.468.52.942.78,1.416a.291.291,0,0,0,.052.092l.572,1.092v.017c.659,1.272,1.3,2.561,1.89,3.873" transform="translate(-75.124 -102.543)" fill="#ea5b5a"/>
    <path id="Trazado_115863" data-name="Trazado 115863" d="M333.555,288.522v4.694a7.778,7.778,0,0,1-3.491,6.485l-24.953,16.462a7.775,7.775,0,0,0-3.457,7.191l1.694,18.6q-1.734,1.292-3.532,2.474-1.223.8-2.468,1.555c-2.6,1.584-5.277,3.035-8,4.41-1.4.711-2.821,1.4-4.243,2.081-2.468,1.173-4.959,2.318-7.445,3.474-.225.1-.445.208-.671.306l1.306-14.346a15.541,15.541,0,0,0-6.156-13.838l-20.173-15.133V297.395l7.769,5.826,9.526,7.144a7.767,7.767,0,0,0,12.4-5.508l1.387-15.231V248.864c.705-.561,1.376-1.092,2.006-1.578,1.318-1.017,2.451-1.873,3.352-2.549.133-.1.254-.191.376-.277.087-.064.179-.127.26-.191.254-.179.485-.347.688-.5.11-.075.208-.145.3-.214.139-.092.254-.179.353-.249.283-.2.434-.306.434-.306s.445.283,1.248.832l.41.277c.156.11.329.231.514.358.087.064.173.121.266.185.89.63,1.994,1.422,3.266,2.381.133.093.26.2.393.295.532.4,1.092.827,1.676,1.283v41.01l.145,1.6a7.769,7.769,0,0,0,11.624,6.023c.133-.081.266-.162.4-.249l7.659-5.063a7.771,7.771,0,0,0,3.48-6.48V271.106c.185.22.358.439.538.665l.006.006a107.47,107.47,0,0,1,7.231,10.017q1.283,2.02,2.48,4.127c.26.468.52.942.78,1.416a.291.291,0,0,0,.052.092Z" transform="translate(-106.326 -102.543)" fill="#e04b4b"/>
    <path id="Trazado_115864" data-name="Trazado 115864" d="M287.154,249.388,261.1,223.33V213.284a3.885,3.885,0,0,0-7.77,0v7.77H235.509l-10.517-10.517a3.885,3.885,0,0,0-5.494,5.494l8.908,8.908-8.908,8.908a3.885,3.885,0,0,0,5.494,5.494l10.517-10.517H255.6l26.058,26.057a3.884,3.884,0,0,0,5.493-5.493" transform="translate(-92.144 -88.363)" fill="#fdb74d"/>
    <path id="Trazado_115865" data-name="Trazado 115865" d="M228.035,469.393a.021.021,0,0,1,.017.006c-.012,0-.023.006-.035.006a.046.046,0,0,1,.017-.011" transform="translate(-96.219 -198.075)" fill="#e04b4b"/>
    <path id="Trazado_115866" data-name="Trazado 115866" d="M226.616,391.62c.884.058,1.78.1,2.682.139q-1.665.685-3.347,1.335-5.185,2.046-10.427,3.936a.326.326,0,0,1-.069.023q-6.182,2.237-12.445,4.243c-.006.006-.006.006-.006,0s-.017.011-.029.011q-1.353-.373-2.653-.832a.372.372,0,0,1-.04-.012,33.948,33.948,0,0,1-10.6-5.85c-.012-.012-.023-.017-.029-.029-.509-.422-1-.861-1.48-1.324s-.965-.948-1.416-1.451-.879-.994-1.283-1.52l-.006-.006c-.162-.214-.329-.428-.491-.642s-.318-.439-.48-.665a30.44,30.44,0,0,1-2.555-4.393c-.127-.266-.249-.532-.37-.8q-.147-.329-.295-.676a36.927,36.927,0,0,1-1.676-4.994c-.069-.254-.133-.514-.2-.78s-.121-.514-.179-.775c-.064-.289-.127-.584-.185-.884-.069-.329-.127-.665-.191-1a1.373,1.373,0,0,1-.023-.162l-.006-.006c-.046-.254-.087-.514-.127-.78-.064-.376-.116-.751-.168-1.133-.046-.364-.092-.728-.133-1.1-.04-.353-.075-.705-.11-1.064-.029-.295-.052-.584-.075-.884-.023-.283-.046-.572-.058-.867-.029-.428-.052-.867-.069-1.306-.012-.295-.023-.59-.029-.89-.012-.214-.017-.434-.017-.653-.006-.4-.012-.8-.012-1.208,0-.844.017-1.682.046-2.514q.078-2.306.306-4.561c.04-.445.092-.89.145-1.335.069-.607.144-1.214.231-1.815.04-.3.087-.6.133-.9.41-2.7.954-5.329,1.6-7.867.1-.416.214-.827.324-1.237s.225-.832.341-1.243.237-.821.358-1.225c.15-.5.3-.994.462-1.491.092-.306.191-.613.295-.913.127-.393.26-.786.393-1.179s.272-.775.4-1.156q.486-1.37.994-2.676c.214-.555.434-1.1.659-1.636.682-1.682,1.393-3.289,2.11-4.815a.006.006,0,0,1,.006-.006c1.67-3.561,3.376-6.688,4.925-9.289v-.006a81.993,81.993,0,0,1,5.7-8.526s.2.393.566,1.069c.046.087.092.173.145.266s.1.191.162.289c.11.2.231.41.364.636,0,.006.006.012.006.017.179.3.37.63.584.977q.165.277.347.572a102.369,102.369,0,0,0-5.272,12.508c-.3.861-.584,1.734-.861,2.618q-.85,2.714-1.549,5.589a82.219,82.219,0,0,0-1.624,8.641,73.732,73.732,0,0,0-.636,9.549A53.849,53.849,0,0,0,191.149,366a31.836,31.836,0,0,0,7.826,14.751,29.444,29.444,0,0,0,5.9,4.734,40.833,40.833,0,0,0,13.641,5.087h.012c.208.046.416.087.63.121a.074.074,0,0,0,.035.006,64.381,64.381,0,0,0,7.428.919" transform="translate(-75.124 -130.908)" fill="#e04b4b"/>
    <path id="Trazado_115867" data-name="Trazado 115867" d="M341.117,281.069v.006c-.006.341-.012.665-.023.988a34.822,34.822,0,0,1-1.393,8.352c-.058.191-.11.376-.168.561v.006L318.557,304.82a7.768,7.768,0,0,0-3.462,7.191l1.133,12.462c-.728.688-1.462,1.353-2.2,2.011-.52.462-1.046.925-1.578,1.381q-1.673,1.439-3.428,2.746-1.734,1.292-3.532,2.474-1.223.8-2.468,1.555c-2.6,1.584-5.277,3.035-8,4.41-1.4.711-2.821,1.4-4.243,2.081l1.353-14.884a7.768,7.768,0,0,0-3.075-6.919l-23.647-17.734V286.052l11.659,8.745,5.636,4.225a7.246,7.246,0,0,0,.78.514,7.772,7.772,0,0,0,11.624-6.023l1.381-15.231v-62.16l5.023,5.023,5.5,5.491,5.023,5.023v46.623l.145,1.6a7.77,7.77,0,0,0,12.023,5.774l7.659-5.063a7.777,7.777,0,0,0,3.485-6.48V258.856l2.029-1.353.012-.006,1.023-.682q.234,1.353.451,2.67a.111.111,0,0,1,.006.04v.006c.035.168.058.335.087.5q.13.832.26,1.647c0,.012.006.017.006.023.023.145.04.283.064.428a.1.1,0,0,1,.006.04c.133.855.266,1.7.387,2.532q.269,1.821.491,3.561a95.579,95.579,0,0,1,.954,12.8" transform="translate(-111.997 -91.2)" fill="#fedc72"/>
    <path id="Trazado_115868" data-name="Trazado 115868" d="M303.783,377.3l-.763,8.393c-2.6,1.584-5.277,3.035-8,4.41-1.4.711-2.821,1.4-4.243,2.081L292.13,377.3a7.768,7.768,0,0,0-3.075-6.919l-23.647-17.734V337.1l11.659,8.745v2.913a7.682,7.682,0,0,0,.451,2.6,7.769,7.769,0,0,0,2.653,3.618l20.537,15.4a7.755,7.755,0,0,1,3.075,6.919" transform="translate(-111.997 -142.251)" fill="#fdb74d"/>
    <path id="Trazado_115869" data-name="Trazado 115869" d="M381.829,270.162a12.478,12.478,0,0,1-3.15.543c-.127.006-.26.012-.393.012s-.266.012-.4.012a11.247,11.247,0,0,1-7.185-2.266.086.086,0,0,1-.012-.017.118.118,0,0,1-.035-.023l-.006-.006c-.185-.15-.364-.306-.538-.474a10.113,10.113,0,0,1-1.89-2.457,18.954,18.954,0,0,1-1.994-9.323c0-7.532,5.751-16.462,9.173-21.109.873,4.711,1.838,9.693,2.8,14.722.1.561.214,1.127.318,1.688v.006c.04.2.075.387.116.584.509,2.7,1.012,5.4,1.491,8.058.283,1.578.561,3.144.821,4.688v.006q.234,1.353.451,2.67a.113.113,0,0,1,.006.04v.006c.035.168.058.335.087.5q.13.832.26,1.647c0,.012.006.017.006.023.023.145.041.283.064.428a.1.1,0,0,1,.006.04" transform="translate(-154.541 -99.188)" fill="#ea5b5a"/>
    <path id="Trazado_115870" data-name="Trazado 115870" d="M381.823,270.121a11.969,11.969,0,0,1-3.144.584c-.127.006-.26.012-.393.012s-.266.012-.4.012a11.247,11.247,0,0,1-7.185-2.266.086.086,0,0,1-.012-.017.118.118,0,0,1-.035-.023l-.006-.006c-.185-.15-.364-.306-.538-.474a10.113,10.113,0,0,1-1.89-2.457,18.954,18.954,0,0,1-1.994-9.323c0-7.532,5.751-16.462,9.173-21.109.873,4.711,1.838,9.693,2.8,14.722.1.561.214,1.127.318,1.688v.006c-.029.127-.064.254-.087.382-.092.364-.168.728-.231,1.092-.069.347-.121.694-.168,1.035-.029.22-.052.439-.075.659-.017.173-.029.341-.04.514s-.017.324-.023.486-.012.353-.012.526c0,.451.012.89.029,1.312q.009.321.035.624c.012.208.029.41.046.607.046.5.1.971.173,1.428.023.173.046.341.081.509s.064.329.092.491c.064.324.139.636.22.942.046.162.087.324.133.48a13.107,13.107,0,0,0,1.22,2.936,10.186,10.186,0,0,0,1.491,2.023v.006c.035.168.058.335.087.5q.13.832.26,1.647c0,.012.006.017.006.023.023.145.041.283.064.428" transform="translate(-154.541 -99.188)" fill="#e04b4b"/>
    <path id="Trazado_115871" data-name="Trazado 115871" d="M228.535,391.457a30.714,30.714,0,0,1-1.919,11.468c-.208.509-.428,1-.665,1.474q-5.185,2.046-10.427,3.936a.327.327,0,0,1-.069.023q-6.182,2.237-12.445,4.243c-.006.006-.006.006-.006,0q-1.361-.373-2.665-.832a.052.052,0,0,1-.04-.017,33.769,33.769,0,0,1-10.6-5.838h-.006c-.012-.012-.023-.017-.029-.029-.509-.422-1.006-.861-1.486-1.318s-.954-.948-1.4-1.451c-.451-.486-.879-.994-1.295-1.52l-.006-.006c-.162-.214-.329-.428-.491-.642s-.318-.439-.48-.665a31.559,31.559,0,0,1-2.555-4.393c-.127-.266-.249-.532-.37-.8q-.147-.329-.295-.676a36.931,36.931,0,0,1-1.676-4.994c-.069-.254-.133-.514-.2-.78s-.121-.514-.179-.775c-.064-.289-.127-.584-.185-.884-.069-.329-.127-.665-.191-1a1.37,1.37,0,0,1-.023-.162l-.006-.006c-.046-.254-.087-.514-.127-.78-.064-.376-.116-.751-.168-1.133-.046-.364-.092-.728-.133-1.1-.04-.353-.075-.705-.11-1.064-.029-.295-.052-.584-.075-.884-.023-.283-.046-.572-.058-.867-.029-.428-.052-.867-.069-1.306-.012-.295-.023-.59-.029-.89-.012-.214-.017-.434-.017-.653-.006-.4-.012-.8-.012-1.208,0-.844.017-1.682.046-2.514q.078-2.306.306-4.56c.04-.445.092-.89.145-1.335.069-.607.144-1.214.231-1.815.04-.3.087-.6.133-.9.41-2.7.954-5.329,1.6-7.867.1-.416.214-.827.324-1.237s.225-.832.341-1.243.237-.821.358-1.225c.15-.5.3-.994.462-1.491.092-.306.191-.613.295-.913.127-.393.26-.786.393-1.179s.272-.775.4-1.156c.324-.908.659-1.792,1-2.665q.321-.832.659-1.647c.694-1.688,1.4-3.306,2.127-4.838.376-.8.746-1.566,1.121-2.318.058.139.116.277.179.416.636,1.514,1.324,3.1,2.046,4.746q.841,1.9,1.751,3.9c.746,1.624,1.526,3.295,2.341,4.994.827,1.722,1.688,3.474,2.578,5.237a17.28,17.28,0,0,1,1.827-2.249v-.006a36.7,36.7,0,0,1,8.133-6.121A54.879,54.879,0,0,1,213,344.839s15.537,28.595,15.537,46.617" transform="translate(-75.124 -142.213)" fill="#e04b4b"/>
    <path id="Trazado_115872" data-name="Trazado 115872" d="M384.6,281.56a6.966,6.966,0,0,1-1.173.538,1.706,1.706,0,0,1-.289.1,4.578,4.578,0,0,1-.48.144c-.081.023-.162.046-.243.064-.029.006-.064.006-.092.012a8.165,8.165,0,0,1-1.2.168c-.133.006-.266.012-.4.012a7.768,7.768,0,0,1-7.774-7.769c0-4.289,7.774-11.653,7.774-11.653s.231.225.549.543c.064.058.127.127.2.2.509,2.7,1.012,5.4,1.491,8.058.283,1.578.561,3.144.821,4.688v.006q.234,1.352.451,2.67a.113.113,0,0,1,.006.04v.006c.035.168.058.335.087.5q.13.832.26,1.647c0,.012.006.017.006.023" transform="translate(-157.377 -111.054)" fill="#fedc72"/>
    <path id="Trazado_115873" data-name="Trazado 115873" d="M384.589,281.537a7,7,0,0,1-1.168.561,1.706,1.706,0,0,1-.289.1,4.578,4.578,0,0,1-.48.144c-.081.023-.162.046-.243.064-.029.006-.064.006-.092.012a12.021,12.021,0,0,1-1.6.179,7.768,7.768,0,0,1-7.774-7.769c0-4.289,7.774-11.653,7.774-11.653s.231.225.549.543c-.087.364-.162.728-.231,1.092-.069.347-.121.694-.168,1.035-.029.22-.052.439-.075.659-.017.173-.029.341-.04.514s-.017.324-.023.486-.012.353-.012.526c0,.451.012.89.029,1.312q.009.321.035.624c.011.208.029.41.046.607.046.5.1.971.173,1.428.023.173.052.341.081.509s.064.33.092.491c.069.324.145.636.22.942.046.162.087.324.133.48a13.459,13.459,0,0,0,1.231,2.931,10.262,10.262,0,0,0,1.474,1.988.113.113,0,0,1,.006.04v.006c.035.168.058.335.087.5q.13.832.26,1.647" transform="translate(-157.377 -111.054)" fill="#fdb74d"/>
    <path id="Trazado_115874" data-name="Trazado 115874" d="M16.517,132.426A90.434,90.434,0,0,0,13.6,118.155l9.572-9.572-3.387,15.254c0,.006-.006.006-.006.012l-2.913,13.121c-.04-.4-.075-.8-.1-1.2-.064-.792-.121-1.561-.162-2.329-.023-.324-.052-.659-.081-1Z" transform="translate(-5.738 -45.82)" fill="#fedc72"/>
    <path id="Trazado_115875" data-name="Trazado 115875" d="M134.514,205.707V218.9a7.771,7.771,0,0,1-1.3,4.306l-6.017,9.023-6.8,10.208c-.075.11-.15.22-.231.324a7.432,7.432,0,0,1-1.26,1.329,7.767,7.767,0,0,1-2.324,1.341l-.977.353-5.474,1.994h-.006l-1.2.439-6.659,2.422-20.907,7.6a7.771,7.771,0,0,0-5.115,7.3V307.63c-.775-.3-1.549-.6-2.306-.907-1.867-.751-3.688-1.5-5.462-2.254-1.85-.78-3.642-1.566-5.393-2.364q-3.7-1.665-7.127-3.364l-1.942-.965q-4.023-2.046-7.659-4.1c-.393-.225-.786-.445-1.173-.67l2.792-18.132a7.749,7.749,0,0,0-2.168-6.653q-.1-.113-.225-.225a7.838,7.838,0,0,0-3.4-1.838L6.6,257.255H6.582c0-.006-.006-.012,0-.017a.021.021,0,0,1-.006-.017,51.477,51.477,0,0,1-4.5-11.254c-.145-.538-.272-1.069-.393-1.6-.162-.694-.3-1.376-.422-2.046l5.561,1.387L7.975,244l28.063,7.017,2.393.6a7.707,7.707,0,0,0,6.491-1.295h.012a5.7,5.7,0,0,0,.647-.538,8.451,8.451,0,0,0,.6-.607,3.57,3.57,0,0,0,.272-.329l.191-.26a12.924,12.924,0,0,0,.353-.538c.058-.092.11-.185.162-.277a3.482,3.482,0,0,0,.2-.387c.064-.133.121-.26.173-.4.04-.092.075-.191.11-.289s.069-.2.1-.295c.052-.162.1-.324.133-.486.035-.127.064-.254.087-.387.023-.116.04-.231.058-.353a7.592,7.592,0,0,0,.075-.821L48.846,223A15.564,15.564,0,0,0,45.58,212.91L33.852,197.835l-.092-.121-.006-.006V197.7l-2.9-3.728-.15-.191L22.015,182.61,11.7,169.344c.243-2.376.422-4.6.561-6.665v-.006c.168-2.618.266-5.011.3-7.208.023-1.046.029-2.046.023-3.011v-.006c-.006-2.046-.064-3.907-.15-5.63-.012-.191-.017-.382-.029-.566.052.069.1.139.162.208l5.566,6.85v.006l3.769,4.636,6.069,7.468,13.67,16.826v.006h.006v.006l2.74,3.364.04.052L45.5,187l2.769,3.41.017.023,6.069,7.468a7.76,7.76,0,0,0,12.294-.306l13.9-18.947.006-.006,21.381-29.155a7.777,7.777,0,0,0,1.5-4.6V108.583l3.89,3.89,7.769,7.763,1.607,1.607a7.774,7.774,0,0,1,2.277,5.5v21.508a7.785,7.785,0,0,1-1.422,4.485l-31.115,44.08-11.063,15.67a15.538,15.538,0,0,0-2.832,9.514l.468,13.208a7.728,7.728,0,0,0,3.491,6.214c.162.11.335.208.509.306a7.5,7.5,0,0,0,1.52.642,7.635,7.635,0,0,0,3.879.162,7.889,7.889,0,0,0,1.1-.324l.173-.064,3.8-1.428,9.208-3.451,6.74-2.532,5.04-1.89a7.791,7.791,0,0,0,3.058-2.087l3.4-3.792.006-.006Z" transform="translate(-0.531 -45.82)" fill="#fedc72"/>
    <path id="Trazado_115876" data-name="Trazado 115876" d="M16.517,132.426A90.434,90.434,0,0,0,13.6,118.155l9.572-9.572-3.387,15.254c0,.006-.006.006-.006.012a7.559,7.559,0,0,0-1.069,2.012Z" transform="translate(-5.738 -45.82)" fill="#fdb74d"/>
    <path id="Trazado_115877" data-name="Trazado 115877" d="M68.12,257.229l-.763,21.358a7.769,7.769,0,0,1-9.647,7.26l-5.156-1.295h-.012q.338-.251.659-.538a8.449,8.449,0,0,0,.6-.607c.092-.11.185-.22.272-.329l.191-.26a12.829,12.829,0,0,0,.353-.538c.058-.092.11-.185.162-.277.069-.127.133-.254.2-.387a4.156,4.156,0,0,0,.173-.4c.04-.093.075-.191.11-.289s.069-.2.1-.295c.052-.162.1-.324.133-.486.035-.127.064-.254.087-.387.023-.116.04-.231.058-.353a7.594,7.594,0,0,0,.075-.821l.763-21.358A15.564,15.564,0,0,0,53.2,247.137L41.473,232.062l-.092-.121-.006-.006v-.006l-2.9-3.728-.15-.191-8.688-11.173L19.318,203.571c.243-2.376.422-4.6.561-6.665V196.9c.168-2.618.266-5.011.3-7.208l2.139,2.751,8.607,11.063,1.173,1.509,6.428,8.271.006.006.058.069,9.543,12.277.012.006.214.283.023.023,1.087,1.4.012.012,15.375,19.774a15.531,15.531,0,0,1,3.266,10.092" transform="translate(-8.152 -80.047)" fill="#fdb74d"/>
    <path id="Trazado_115878" data-name="Trazado 115878" d="M59.621,372.505l-3.67,23.872-1.942-.965q-4.023-2.046-7.659-4.1c-.393-.225-.786-.445-1.173-.67l2.792-18.133a7.749,7.749,0,0,0-2.168-6.653q-.1-.113-.225-.225a7.838,7.838,0,0,0-3.4-1.838L6.6,354.893H6.582c0-.006-.006-.012,0-.017a.021.021,0,0,1-.006-.017,51.475,51.475,0,0,1-4.5-11.254c-.145-.538-.272-1.069-.393-1.6-.162-.694-.3-1.376-.422-2.046l5.561,1.387,1.156.289,1.11,2.225,3.4,6.792a7.753,7.753,0,0,0,5.063,4.063l36.282,9.069a7.759,7.759,0,0,1,5.792,8.716" transform="translate(-0.531 -143.458)" fill="#fdb74d"/>
    <path id="Trazado_115879" data-name="Trazado 115879" d="M139.986,345.017l-20.907,7.6a7.771,7.771,0,0,0-5.115,7.3V402.01c-.775-.3-1.549-.6-2.306-.907-1.867-.751-3.688-1.5-5.462-2.254-1.85-.78-3.642-1.566-5.393-2.364-2.468-1.11-4.844-2.237-7.127-3.364l-1.942-.965a47.166,47.166,0,0,1-1.075-10.479c0-5.543,2.064-11.838,5.248-18.242,4.561-9.179,11.41-18.578,17.739-26.317.191-.243.387-.48.584-.717l.006-.006a5.742,5.742,0,0,0,.514.306,7.658,7.658,0,0,0,5.387.809,7.894,7.894,0,0,0,1.1-.324l.173-.064,3.8-1.428,9.208-3.451c1.266,3.092,2.763,6.6,4.462,10.352q.546,1.2,1.11,2.422" transform="translate(-38.256 -140.2)" fill="#fdb74d"/>
    <path id="Trazado_115880" data-name="Trazado 115880" d="M228.035,469.393a.021.021,0,0,1,.017.006c-.012,0-.023.006-.035.006a.046.046,0,0,1,.017-.011" transform="translate(-96.219 -198.075)" fill="#ea5b5a"/>
    <path id="Trazado_115881" data-name="Trazado 115881" d="M189.57,380.152a31.789,31.789,0,0,1-1.578,10.549,18.474,18.474,0,0,1-3.665,6.329.327.327,0,0,1-.069.023q-6.182,2.237-12.445,4.243c-.006.006-.006.006-.006,0s-.017.011-.029.011q-3.451,1.118-6.919,2.156H151.7q-3.529-1.014-6.9-2.046c-.006-.006-.017-.006-.023-.012-8.826-2.7-16.9-5.491-24.271-8.347-.295-.11-.59-.225-.879-.341-.775-.3-1.549-.6-2.306-.908-1.867-.751-3.688-1.5-5.462-2.254-1.85-.78-3.642-1.566-5.393-2.364a41.389,41.389,0,0,1-2.376-14.809c0-6.965,3.266-15.121,7.9-23.184.907-1.572,1.867-3.144,2.861-4.705a178.738,178.738,0,0,1,12.219-16.664c1.208-1.48,2.4-2.9,3.555-4.248,6.838-7.982,12.312-13.358,12.312-13.358s.012.035.035.1a.651.651,0,0,0,.029.075c.023.064.052.15.087.249.023.075.052.15.087.243.387,1.092,1.254,3.485,2.549,6.792q.5,1.283,1.092,2.74c1.208,3.023,2.688,6.578,4.4,10.451.353.8.711,1.613,1.087,2.433.179.4.358.8.543,1.2,0,.006,0,.006.006.012,1.526,3.352,3.214,6.89,5.035,10.485a15.58,15.58,0,0,1,1.225-1.59,26.9,26.9,0,0,1,3.965-3.647c1.046-.792,2.127-1.526,3.191-2.191a56.04,56.04,0,0,1,7.745-4.035s.613,1.133,1.6,3.087c3.965,7.873,13.942,29.092,13.942,43.531" transform="translate(-43.927 -130.908)" fill="#ea5b5a"/>
    <path id="Trazado_115882" data-name="Trazado 115882" d="M188.084,390.342c-.04.116-.081.237-.127.353a18.34,18.34,0,0,1-3.7,6.358q-6.182,2.237-12.445,4.243c-.006.006-.006.006-.006,0s-.017.011-.029.011q-3.451,1.118-6.919,2.156H151.7q-3.529-1.014-6.9-2.046c-.006-.006-.017-.006-.023-.012-8.826-2.7-16.9-5.491-24.271-8.347-.295-.11-.59-.225-.879-.341-.775-.3-1.549-.6-2.306-.908-1.867-.751-3.688-1.5-5.462-2.254-1.85-.78-3.642-1.566-5.393-2.364a41.389,41.389,0,0,1-2.376-14.809c0-6.965,3.266-15.121,7.9-23.184.907-1.572,1.867-3.144,2.861-4.705a178.738,178.738,0,0,1,12.219-16.664c1.208-1.48,2.4-2.9,3.555-4.248,6.838-7.982,12.312-13.358,12.312-13.358s.012.035.035.1a.651.651,0,0,0,.029.075c.023.064.052.15.087.249.023.075.052.15.087.243-2.931,3.387-6.156,7.289-9.335,11.485q-1.491,1.977-2.971,4.029a123.473,123.473,0,0,0-9.5,15.323c-3.393,6.665-5.63,13.237-5.63,19,0,7.647,1.41,13.578,3.884,18.1q.477.876,1.006,1.682c.012.012.017.017.017.029,3.509,5.312,8.665,8.422,14.768,9.971l.705.173c.237.064.474.116.717.162.48.1.965.2,1.457.283s.988.162,1.486.231c.26.035.52.069.78.1.127.017.254.029.381.046.277.029.555.058.838.081.509.052,1.029.093,1.549.121h.035c.133.012.266.017.4.023.306.017.613.029.919.04.37.017.734.023,1.1.029.341.011.688.011,1.029.011h31.08a33.072,33.072,0,0,0,9.4-1.237h.012c.254-.069.509-.15.757-.231" transform="translate(-43.927 -130.908)" fill="#e04b4b"/>
    <path id="Trazado_115883" data-name="Trazado 115883" d="M185.37,422.924a21.107,21.107,0,0,1-.191,2.919,12.458,12.458,0,0,1-4.694,8.653c-.006.006-.012.012-.017.012a14.659,14.659,0,0,1-6.416,2.636.452.452,0,0,0-.081.012c-.208.035-.416.069-.63.1-.2.029-.4.058-.607.081-.075.012-.156.017-.237.029-.168.017-.341.035-.514.046h-.035c-.225.023-.457.035-.682.046s-.474.023-.711.029-.48.012-.723.012h-6.786q-3.529-1.014-6.9-2.046c-.006-.006-.017-.006-.023-.012-8.826-2.7-16.9-5.491-24.271-8.347-.11-.4-.214-.815-.306-1.249a27.354,27.354,0,0,1-.572-5.832c0-.22.006-.445.017-.67a17.7,17.7,0,0,1,.988-4.8c3.983-11.584,18.421-23.67,18.421-23.67s4.37,8.26,8.566,17.664l.006.006c.208.48.422.954.63,1.434,3.075-4.324,8.537-8.029,11.688-9.942,1.462-.884,2.422-1.387,2.422-1.387a70.346,70.346,0,0,1,6.948,10.011,37.2,37.2,0,0,1,4.352,10.861,17.831,17.831,0,0,1,.353,3.4" transform="translate(-55.27 -164.941)" fill="#fedc72"/>
    <path id="Trazado_115884" data-name="Trazado 115884" d="M185.121,443.111a12.53,12.53,0,0,1-4.676,8.636l-.017.017a14.774,14.774,0,0,1-6.376,2.647.452.452,0,0,0-.081.012c-.208.035-.416.069-.63.1-.2.029-.4.058-.607.081-.075.012-.156.017-.237.029-.168.017-.341.035-.514.046h-.035c-.225.023-.457.035-.682.046s-.474.023-.711.029-.48.012-.723.012h-6.786q-3.529-1.014-6.9-2.046c-.006-.006-.017-.006-.023-.012-8.826-2.7-16.9-5.491-24.271-8.347-.11-.4-.214-.815-.306-1.249a27.354,27.354,0,0,1-.572-5.832c0-.22.006-.445.017-.671A18.046,18.046,0,0,1,132,431.839c.006-.017.012-.029.017-.046,3.5,5.318,8.647,8.439,14.751,10.017l.705.173c.237.058.48.11.717.162.48.1.965.2,1.457.283s.988.162,1.485.231c.26.035.52.069.78.1.127.017.254.029.382.046.277.029.555.058.838.081.509.052,1.029.093,1.549.121h.035c.133.012.266.017.4.023.306.017.613.029.919.04.37.017.734.023,1.1.029.341.012.688.012,1.029.012h26.947Z" transform="translate(-55.27 -182.209)" fill="#fdb74d"/>
    <path id="Trazado_115885" data-name="Trazado 115885" d="M63.746,182.086a36.007,36.007,0,0,1-.7,7.376c-1.231,5.9-4.035,9.826-7.832,12.312a20.668,20.668,0,0,1-5.722,2.52c-.231.064-.468.127-.705.185s-.468.116-.711.162c-.717.156-1.445.289-2.191.393-.295.04-.59.081-.884.116-.064.006-.121.017-.185.023H44.8c-.272.029-.543.052-.821.081-.254.017-.514.04-.775.058-.306.017-.607.035-.913.046-.22.012-.439.017-.659.023-.2.006-.4.012-.6.006h-.058c-.179.006-.364.012-.543.012-.9,0-1.786-.023-2.653-.081-9.93-.613-17.976-4.9-20.1-16.595.2-1.445.37-2.838.526-4.191v-.006q.234-1.986.422-3.838c.243-2.376.422-4.6.561-6.665v-.006a40.258,40.258,0,0,1,2.439-4.457c.1-.156.2-.318.3-.474s.185-.283.277-.422c.133-.208.266-.41.4-.618.173-.254.347-.509.526-.763.133-.191.266-.382.4-.572.116-.168.231-.329.353-.491s.237-.324.358-.491l.364-.486c.145-.191.289-.387.445-.584v-.006c.225-.295.457-.584.688-.879l.075-.092c.231-.295.468-.59.705-.884q.6-.728,1.214-1.457l.827-.965.035-.035c.266-.306.543-.618.815-.925a2.385,2.385,0,0,1,.162-.179c.329-.37.659-.734.994-1.1s.671-.728,1.012-1.087.676-.723,1.023-1.081.688-.711,1.035-1.064.688-.705,1.04-1.052l.5-.5c1.225-1.214,2.462-2.393,3.682-3.537.439-.4.873-.809,1.306-1.208l.763-.694c8.046-7.306,15.034-12.451,15.034-12.451s7.774,28.6,7.774,46.623" transform="translate(-7.46 -57.163)" fill="#ea5b5a"/>
    <path id="Trazado_115886" data-name="Trazado 115886" d="M62.255,201.36a17.522,17.522,0,0,1-7.058,9.48,20.381,20.381,0,0,1-5.711,2.532c-.231.069-.474.133-.711.185l-.7.173c-.717.156-1.445.289-2.191.393-.295.04-.59.081-.884.116l-.185.017H44.81v.006H44.8c-.272.029-.543.052-.821.081-.254.017-.514.04-.775.058-.306.017-.607.035-.913.046-.22.012-.439.017-.659.023-.2.006-.4.012-.6.006h-.058c-.179.006-.364.012-.543.012-.9,0-1.786-.023-2.653-.081-9.93-.613-17.976-4.9-20.1-16.595.2-1.445.37-2.838.526-4.191v-.006q.234-1.985.422-3.838c.243-2.376.422-4.6.561-6.665v-.006a40.252,40.252,0,0,1,2.439-4.456c.1-.156.2-.318.3-.474s.185-.283.277-.422c.133-.208.266-.41.4-.618.173-.254.347-.509.526-.763.133-.191.266-.381.4-.572.116-.168.231-.329.353-.491s.237-.324.358-.491l.364-.486c.145-.191.289-.387.445-.584v-.006c.225-.295.457-.584.688-.879l.075-.092c.231-.295.468-.59.705-.884q.6-.728,1.214-1.457l.827-.965.035-.035c.266-.306.543-.618.815-.925a2.379,2.379,0,0,1,.162-.179c.329-.37.659-.734.994-1.1s.671-.728,1.012-1.087.676-.723,1.023-1.081.688-.711,1.035-1.064.688-.705,1.04-1.052l.5-.5c1.225-1.214,2.462-2.393,3.682-3.537.439-.4.873-.809,1.306-1.208l.763-.694c-6.387,7.2-11.56,14.9-12.109,21.381-.035.382-.052.763-.052,1.133a32.215,32.215,0,0,0,1.457,10.2,20.424,20.424,0,0,0,.838,2.144v.017a17.029,17.029,0,0,0,6.826,7.693,22.814,22.814,0,0,0,8.2,2.809c.532.092,1.069.162,1.613.22.272.035.543.058.821.081a.1.1,0,0,0,.04.006h.006v.006q1.63.13,3.329.139h.185a36.473,36.473,0,0,0,6.364-.52,27.3,27.3,0,0,0,3.8-.948" transform="translate(-7.46 -66.252)" fill="#e04b4b"/>
    <path id="Trazado_115887" data-name="Trazado 115887" d="M60.193,213.517c0,10.729-5.218,14.569-11.655,14.569s-11.655-3.84-11.655-14.569,15.54-24.282,15.54-24.282,7.77,13.553,7.77,24.282" transform="translate(-15.564 -79.854)" fill="#fedc72"/>
    <path id="Trazado_115888" data-name="Trazado 115888" d="M60.008,228.248c-9.178-.037-17.07-2.816-20.807-11a18.246,18.246,0,0,0-2.318,8.088c0,10.728,5.218,14.569,11.655,14.569,5.805,0,10.581-3.177,11.47-11.66" transform="translate(-15.564 -91.676)" fill="#fdb74d"/>
    <path id="Trazado_115889" data-name="Trazado 115889" d="M324.2,72.046a3.884,3.884,0,0,0,5.493-5.493l-3.885-3.885a3.885,3.885,0,0,0-5.494,5.494Z" transform="translate(-134.689 -25.964)" fill="#ea5b5a"/>
    <path id="Trazado_115890" data-name="Trazado 115890" d="M289.46,126.955a3.872,3.872,0,0,0,2.747-1.138l3.885-3.885a3.885,3.885,0,1,0-5.494-5.494l-3.885,3.885a3.885,3.885,0,0,0,2.747,6.632" transform="translate(-120.507 -48.654)" fill="#ea5b5a"/>
    <path id="Trazado_115891" data-name="Trazado 115891" d="M102.4,78.767a3.884,3.884,0,0,0,5.493-5.493l-3.885-3.885a3.885,3.885,0,1,0-5.493,5.494Z" transform="translate(-41.091 -28.8)" fill="#ea5b5a"/>
    <path id="Trazado_115892" data-name="Trazado 115892" d="M27.325,73.184A3.883,3.883,0,0,0,31.21,69.3V65.414a3.885,3.885,0,0,0-7.77,0V69.3a3.883,3.883,0,0,0,3.885,3.885" transform="translate(-9.891 -25.964)" fill="#ea5b5a"/>
    <path id="Trazado_115893" data-name="Trazado 115893" d="M390.28,113.512a3.883,3.883,0,0,0,3.885-3.885v-3.885a3.885,3.885,0,1,0-7.77,0v3.885a3.883,3.883,0,0,0,3.885,3.885" transform="translate(-163.051 -42.982)" fill="#ea5b5a"/>
    <path id="Trazado_115894" data-name="Trazado 115894" d="M188.639,151a3.883,3.883,0,0,1-3.885-3.885v-7.77a3.885,3.885,0,1,1,7.77,0v7.77A3.883,3.883,0,0,1,188.639,151" transform="translate(-77.963 -57.163)" fill="#fff"/>
  </g>
</svg>
