<svg xmlns="http://www.w3.org/2000/svg" xmlns:xlink="http://www.w3.org/1999/xlink" width="305.179" height="220.518" viewBox="0 0 305.179 220.518">
  <defs>
    <clipPath id="clip-path">
      <rect id="Rectángulo_33882" data-name="Rectángulo 33882" width="255.494" height="172.691" fill="none"/>
    </clipPath>
    <clipPath id="clip-path-2">
      <rect id="Rectángulo_34824" data-name="Rectángulo 34824" width="304.932" height="220.518" fill="none"/>
    </clipPath>
  </defs>
  <g id="Grupo_81217" data-name="Grupo 81217" transform="translate(-179.667 -1964.741)">
    <path id="Rectangle" d="M24,0H44A150,150,0,0,1,194,150v26a24,24,0,0,1-24,24H24A24,24,0,0,1,0,176V24A24,24,0,0,1,24,0Z" transform="translate(179.667 1975.217)" fill="#fedc72" opacity="0.25"/>
    <g id="Grupo_80398" data-name="Grupo 80398" transform="translate(220.464 1999.758)">
      <g id="Grupo_80397" data-name="Grupo 80397" transform="translate(0 0)" clip-path="url(#clip-path)">
        <path id="Trazado_113775" data-name="Trazado 113775" d="M227.081,163.307h13.964V137.165h-1.006a4.464,4.464,0,0,0-4.2,2.948l-2.1,5.819-6.657,8.281Z" transform="translate(14.449 8.728)" fill="#fedc72"/>
        <path id="Trazado_113776" data-name="Trazado 113776" d="M203.572,149.53l25.006,3.9v9.093H203.572Z" transform="translate(12.953 9.515)" fill="#fdd7c5"/>
        <path id="Trazado_113777" data-name="Trazado 113777" d="M132.173,98.636l21.92-50.661-8.769-1.949-29.226,38Z" transform="translate(7.387 2.929)" fill="#fdd7c5"/>
        <path id="Trazado_113778" data-name="Trazado 113778" d="M62.514,133.746l69.171-42.379,65.761,66.248-33.124-6.82L131.2,127.9l-28.253,30.2Z" transform="translate(3.978 5.814)" fill="#5038a1"/>
        <path id="Trazado_113779" data-name="Trazado 113779" d="M141.5,53.5c.384.789.674,1.235,2.362,1.1,1.321-.105,2.646-.283,3.956-.49a20.174,20.174,0,0,0,6.861-2.184,3.738,3.738,0,0,0,1.072-.642,7.67,7.67,0,0,0,1.389-1.807q.748-1.211,1.487-2.425,1.493-2.441,2.964-4.893,5.929-9.874,11.574-19.916a.493.493,0,0,0,.049-.13.476.476,0,0,0,.155-.337,2.162,2.162,0,0,0-1.159-1.915,3.371,3.371,0,0,0-2.47-.236,21.425,21.425,0,0,0-2.779.943c-.945.352-1.885.713-2.823,1.09a35.417,35.417,0,0,0-4.644,2.071,7.774,7.774,0,0,0-1.9,1.515,14.941,14.941,0,0,0-1.415,2.041c-4.189,6.7-8.418,14.669-12.912,21.185-1.152,1.669-2.19,4.164-1.769,5.03" transform="translate(8.998 1.241)" fill="#fedc72"/>
        <path id="Trazado_113780" data-name="Trazado 113780" d="M167.811,21.525,153.2,47.343,143.577,49.9,158.19,25.575Z" transform="translate(9.136 1.37)" fill="#fdb74d"/>
        <path id="Trazado_113781" data-name="Trazado 113781" d="M159.813,32.245l4.236,2.965A2.14,2.14,0,0,0,166.5,31.7l-4.236-2.964a2.14,2.14,0,1,0-2.454,3.506" transform="translate(10.111 1.804)" fill="#fdd7c5"/>
        <path id="Trazado_113782" data-name="Trazado 113782" d="M156.7,36.5l6.341,2.651A2.139,2.139,0,1,0,164.7,35.2l-6.34-2.651A2.14,2.14,0,1,0,156.7,36.5" transform="translate(9.887 2.061)" fill="#fdd7c5"/>
        <path id="Trazado_113783" data-name="Trazado 113783" d="M156.238,40.659l4.3,1.8a2.14,2.14,0,0,0,1.651-3.948l-4.3-1.8a2.14,2.14,0,1,0-1.651,3.948" transform="translate(9.858 2.325)" fill="#fdd7c5"/>
        <path id="Trazado_113784" data-name="Trazado 113784" d="M157.828,45.711l1.436.6a2.14,2.14,0,0,0,1.651-3.948l-1.436-.6a2.14,2.14,0,0,0-1.651,3.948" transform="translate(9.959 2.647)" fill="#fdd7c5"/>
        <path id="Trazado_113785" data-name="Trazado 113785" d="M85.5,52.439,121.06,79.718,134.7,97.254l-2.926,4.389a10.419,10.419,0,0,1-12.891,3.746L84.039,89.947Z" transform="translate(5.347 3.337)" fill="#fdb74d"/>
        <path id="Trazado_113786" data-name="Trazado 113786" d="M85.768,47.25s-10.23,4.628-17.536,2.923-20.215-7.794-8.281-25.087S77.487,9.255,84.063,6.819s18.754-10.23,20.7-5.115-1.461,11.2-2.923,13.639S85.768,47.25,85.768,47.25" transform="translate(3.506 0)" fill="#5038a1"/>
        <path id="Trazado_113787" data-name="Trazado 113787" d="M112.728,27.072c-1.08-.975-3.673-3.489-5.308-5.263-1.916-7.089-3.932-13.8-3.932-13.8s-.28,5.695-7.55,6.577c-8.037.975-2.436,19-10.716,15.831-.051-.019-4.955-4.823-4.967-4.364a6.194,6.194,0,0,0-5.871,10.683A6.352,6.352,0,0,0,80.329,38c-.421,3.533-1.359,10.017-2.9,13.614a107.844,107.844,0,0,1-6.089,11.448l16.806-2.435L94.477,42.6S111.283,46.984,110.8,37a55.271,55.271,0,0,0-1.548-8.1,8.036,8.036,0,0,0,3.48-1.821" transform="translate(4.539 0.51)" fill="#fdd7c5"/>
        <path id="Trazado_113788" data-name="Trazado 113788" d="M102.919,23.673a1.348,1.348,0,0,1-.737,1.7c-.585.128-1.2-.428-1.38-1.24a1.348,1.348,0,0,1,.737-1.7c.585-.128,1.2.428,1.38,1.24" transform="translate(6.411 1.426)" fill="#010101"/>
        <path id="Trazado_113789" data-name="Trazado 113789" d="M82.57,36.591a3.035,3.035,0,1,1-3.036-3.036,3.035,3.035,0,0,1,3.036,3.036" transform="translate(4.868 2.135)" fill="#fff"/>
        <path id="Trazado_113790" data-name="Trazado 113790" d="M80.507,31.639l-.058,0a.733.733,0,0,1-.672-.788c-.017-.195-.611-.847-1.969-1.516a9.277,9.277,0,0,0-1.686-.7.732.732,0,0,1,.366-1.418,10.331,10.331,0,0,1,1.968.806c1.323.652,2.88,1.692,2.781,2.945a.733.733,0,0,1-.73.674" transform="translate(4.809 1.73)" fill="#efaf9b"/>
        <path id="Trazado_113791" data-name="Trazado 113791" d="M98.572,20.908a.733.733,0,0,1-1.065-.919,6.781,6.781,0,0,1,2.184-2.665.732.732,0,0,1,.859,1.186A5.309,5.309,0,0,0,98.84,20.6a.737.737,0,0,1-.268.311" transform="translate(6.2 1.094)" fill="#10101a"/>
        <path id="Trazado_113792" data-name="Trazado 113792" d="M100.446,42.505a18.656,18.656,0,0,1-9.253-2.385.732.732,0,1,1,.755-1.255,16.9,16.9,0,0,0,12.287,1.683.733.733,0,0,1,.408,1.407,15.2,15.2,0,0,1-4.2.55" transform="translate(5.78 2.466)" fill="#efaf9b"/>
        <path id="Trazado_113793" data-name="Trazado 113793" d="M65.862,50.486a14.2,14.2,0,0,1-6.868-1.5c-4.389-2.371-7.234-8.06-7.08-14.157.162-6.331,3.222-11.615,5.761-14.933A32.873,32.873,0,0,1,83.908,6.672a.732.732,0,0,1-.02,1.465C74.358,8,65,12.735,58.838,20.782c-2.407,3.146-5.308,8.142-5.459,14.08-.138,5.472,2.456,10.749,6.311,12.831,2.9,1.568,6.331,1.424,9.315,1.167,2.512-.217,5.05-.538,7.541-.954a.732.732,0,1,1,.241,1.444c-2.529.422-5.105.749-7.657.969-1.048.09-2.149.167-3.269.167" transform="translate(3.303 0.424)" fill="#5038a1"/>
        <path id="Trazado_113794" data-name="Trazado 113794" d="M101.359,32.856a10.573,10.573,0,0,0-5.179,1.738.416.416,0,0,0,.491.672,10,10,0,0,1,6.744-1.505.415.415,0,1,0,.117-.822,10.49,10.49,0,0,0-2.174-.083" transform="translate(6.109 2.089)" fill="#f6ae94"/>
        <path id="Trazado_113795" data-name="Trazado 113795" d="M102.54,22.967a.514.514,0,0,0,.234-.275.5.5,0,0,0-.123-.383,1.331,1.331,0,0,0-.651-.514,1.46,1.46,0,0,0-1.064.158,3.1,3.1,0,0,0-.873.65,1.028,1.028,0,0,0-.292.5c-.212,1.164,2.373.14,2.77-.135" transform="translate(6.348 1.384)" fill="#fdd7c5"/>
        <path id="Trazado_113796" data-name="Trazado 113796" d="M46.7,124.778l-10.246,24.3a11.619,11.619,0,0,0,10.706,16.133H214.265V151.57L87.939,129.811l-10.393-12.34Z" transform="translate(2.26 7.475)" fill="#8c6df2"/>
        <path id="Trazado_113797" data-name="Trazado 113797" d="M38.992,121.431,25.331,158.138,15.1,156.189,0,164.958H34.585l18.7-33.2Z" transform="translate(0 7.727)" fill="#fdd7c5"/>
        <path id="Trazado_113798" data-name="Trazado 113798" d="M81.284,125.912l3.41-4.628,17.154-26.559A17.672,17.672,0,0,0,101.43,74.1L87.878,56.033a15.314,15.314,0,0,0-26.6,3.847L35.458,129.245,49.222,139.57l4.621-9.68,7.06,2.45c5.409,1.876,16.357-2.356,20.38-6.428" transform="translate(2.256 3.175)" fill="#fedc72"/>
        <path id="Trazado_113799" data-name="Trazado 113799" d="M48.36,137.571a.72.72,0,0,1-.32-.074.732.732,0,0,1-.338-.979L74.493,81.473a.732.732,0,0,1,1.317.641L49.018,137.159a.731.731,0,0,1-.658.412" transform="translate(3.031 5.158)" fill="#fff"/>
        <path id="Trazado_113800" data-name="Trazado 113800" d="M138.825,53.959l3.593-19.931,10.392-3.572a5.881,5.881,0,0,1-1.2,5.3c-2.07,2.436-3.837,2.313-3.837,2.313s.366,6.637-2.009,9.682a38.384,38.384,0,0,1-6.941,6.211" transform="translate(8.833 1.938)" fill="#fdd7c5"/>
        <path id="Trazado_113801" data-name="Trazado 113801" d="M15.626,162.683c-1.182,0-3.056-.222-3.393-1.572-.332-1.327,1.811-2.609,6.37-3.809a.732.732,0,0,1,.372,1.417c-2.431.64-4.786,1.6-5.265,2.123a4.833,4.833,0,0,0,2.734.337l7.866,0a.733.733,0,0,1,0,1.466H16.516c-.149.015-.478.043-.89.043" transform="translate(0.776 10.008)" fill="#efaf9b"/>
        <path id="Trazado_113802" data-name="Trazado 113802" d="M234.931,151.161a.733.733,0,0,1-.473-.173l-3.4-2.889a.733.733,0,1,1,.948-1.118l3.4,2.889a.732.732,0,0,1-.474,1.291" transform="translate(14.685 9.342)" fill="#fff"/>
        <path id="Trazado_113803" data-name="Trazado 113803" d="M236.229,149.253a.734.734,0,0,1-.474-.173l-3.4-2.889a.733.733,0,1,1,.949-1.118l3.4,2.889a.733.733,0,0,1-.474,1.291" transform="translate(14.768 9.22)" fill="#fff"/>
        <path id="Trazado_113804" data-name="Trazado 113804" d="M230.013,157.138a1.98,1.98,0,0,1-1.394-.654,3.652,3.652,0,0,1-1.012-2.475,7.107,7.107,0,0,1,1.475-4.092,4.881,4.881,0,0,1-1.07-2.9.731.731,0,0,1,1.017-.692,3.25,3.25,0,0,1,1.883,3.556c1.161,1.95,1.619,4.7.3,6.566a1.724,1.724,0,0,1-.437.456,1.341,1.341,0,0,1-.766.232m-.057-5.928a5.626,5.626,0,0,0-.883,2.786,2.168,2.168,0,0,0,.6,1.472.783.783,0,0,0,.3.2c.012-.015.028-.035.047-.064.8-1.129.606-2.94-.064-4.394" transform="translate(14.483 9.307)" fill="#fff"/>
      </g>
    </g>
    <g id="Grupo_80921" data-name="Grupo 80921" transform="translate(179.913 1964.741)">
      <g id="Grupo_80876" data-name="Grupo 80876" transform="translate(0)" clip-path="url(#clip-path-2)">
        <path id="Trazado_115811" data-name="Trazado 115811" d="M121.9,28.524C83.558,72.563,46.56,117.979,11.72,164.827A6.485,6.485,0,1,1,1.459,156.9c27.993-34.063,57.4-66.779,87.313-99.124,9.983-10.738,20.045-21.4,30.309-31.886a1.932,1.932,0,0,1,2.824,2.633" transform="translate(0 -6.579)" fill="#12263f"/>
        <line id="Línea_148" data-name="Línea 148" y1="31.753" x2="24.96" transform="translate(38.309 182.952)" fill="none" stroke="#8c6df2" stroke-linecap="round" stroke-linejoin="round" stroke-width="14"/>
      </g>
    </g>
  </g>
</svg>
