<svg xmlns="http://www.w3.org/2000/svg" xmlns:xlink="http://www.w3.org/1999/xlink" width="349.228" height="194.833" viewBox="0 0 349.228 194.833">
  <defs>
    <clipPath id="clip-path">
      <rect id="Rectángulo_33888" data-name="Rectángulo 33888" width="230.022" height="145.135" fill="none"/>
    </clipPath>
    <clipPath id="clip-path-3">
      <rect id="Rectángulo_33883" data-name="Rectángulo 33883" width="21.026" height="14.539" fill="none"/>
    </clipPath>
    <clipPath id="clip-path-4">
      <rect id="Rectángulo_34805" data-name="Rectángulo 34805" width="70.258" height="95.537" fill="none"/>
    </clipPath>
    <clipPath id="clip-path-5">
      <path id="Trazado_115728" data-name="Trazado 115728" d="M69.424,0a.819.819,0,0,0-.467.157A175.309,175.309,0,0,0,47.8,18.589a231.872,231.872,0,0,0-18.47,21.25A250.155,250.155,0,0,0,13.366,63.153,183.8,183.8,0,0,0,.37,88.64c-.045.112-.091.238-.129.355A5.02,5.02,0,0,0,0,90.505v.044a5.015,5.015,0,0,0,4.987,4.987h.05a5.012,5.012,0,0,0,4.743-3.48l.025-.078A175.288,175.288,0,0,1,20.289,66.992a243.365,243.365,0,0,1,13.78-23.778A227.23,227.23,0,0,1,50.545,21.108,172.582,172.582,0,0,1,69.967,1.443l.007-.006A.818.818,0,0,0,69.455,0Z" fill="#fedc72"/>
    </clipPath>
    <clipPath id="clip-path-6">
      <rect id="Rectángulo_34803" data-name="Rectángulo 34803" width="21.744" height="21.744" fill="none"/>
    </clipPath>
    <clipPath id="clip-path-7">
      <rect id="Rectángulo_34802" data-name="Rectángulo 34802" width="21.743" height="21.743" fill="none"/>
    </clipPath>
  </defs>
  <g id="Grupo_81220" data-name="Grupo 81220" transform="translate(-623.317 -2327.591)">
    <ellipse id="Elipse_4711" data-name="Elipse 4711" cx="115" cy="5.5" rx="115" ry="5.5" transform="translate(684.667 2511.424)" fill="#5038a1"/>
    <g id="Grupo_80405" data-name="Grupo 80405" transform="translate(684.978 2375.084)">
      <g id="Grupo_80410" data-name="Grupo 80410" clip-path="url(#clip-path)">
        <g id="Grupo_80409" data-name="Grupo 80409">
          <g id="Grupo_80408" data-name="Grupo 80408" clip-path="url(#clip-path)">
            <path id="Trazado_113805" data-name="Trazado 113805" d="M189.6,99.827c.071,1.669,8.835,20.662,8.835,20.662s5.645-2.005,6.023-2.783-7.222-21.9-7.39-22.265-7.6,1.221-7.467,4.387" transform="translate(-69.933 -35.184)" fill="#474f7c"/>
            <path id="Trazado_113806" data-name="Trazado 113806" d="M203.688,114.294s-5.586,1.461-7.4,3.132l-.862-1.9s4.6-2.93,7.562-3.273Z" transform="translate(-72.08 -41.404)" fill="#fedc72"/>
            <path id="Trazado_113807" data-name="Trazado 113807" d="M206.951,122.945c2.884,10.489.379,12.965.379,12.965l-1.631-.124s-3.671-1.526-7.051-8.191c1.363-1.228,4.388-4,8.3-4.65" transform="translate(-73.27 -45.347)" fill="#30302e"/>
            <path id="Trazado_113808" data-name="Trazado 113808" d="M211.451,70.415c-8.134-2.94-22.257,17.89-21.849,20.1.2,1.069,5.624,4.04,6.99,2.828s21.2-20.631,14.859-22.924" transform="translate(-69.93 -25.867)" fill="#474f7c"/>
            <path id="Trazado_113809" data-name="Trazado 113809" d="M211.38,86.621a20.879,20.879,0,0,1-7.093-6.4L203.094,81.4s2.725,4.7,7.424,6.239Z" transform="translate(-74.909 -29.587)" fill="#fedc72"/>
            <path id="Trazado_113810" data-name="Trazado 113810" d="M207.817,90.6l-1.169,1.3s-5.5-2.446-7.621-6.141l1.124-1.253s3.148,4.753,7.665,6.093" transform="translate(-73.409 -31.169)" fill="#fedc72"/>
            <path id="Trazado_113811" data-name="Trazado 113811" d="M203.213,145.467a3.825,3.825,0,0,0,5.006-3.256,1.783,1.783,0,0,0-.373-2c-.9-.637-1.6.586-2.379.731-.582.109-1.559-.485-2.061.122a.8.8,0,0,0-.1.17c-.461-.187-.931-.221-1.193.209a.809.809,0,0,0-.125.476,1.239,1.239,0,0,0-.857.9c-.391,1.352.956,2.316,2.086,2.645" transform="translate(-74.158 -51.649)" fill="#30302e"/>
            <path id="Trazado_113812" data-name="Trazado 113812" d="M261.662,225.231H243.94c-.855-2.992.376-4.6.376-4.6,1.36.907,7.788.423,7.788.423a5.9,5.9,0,0,0,2.925.7c4.38-.813,6.053,1.924,6.632,3.473" transform="translate(-89.864 -81.378)" fill="#30302e"/>
            <path id="Trazado_113813" data-name="Trazado 113813" d="M236.689,186.577l-5.332-44.058H227.3l-3.213-13.853s19.359-3.3,19.88-1.864,2.891,46.866.935,59.509c0,0-4.529,1.586-8.209.266" transform="translate(-82.651 -46.636)" fill="#393f6d"/>
            <path id="Trazado_113814" data-name="Trazado 113814" d="M261.153,228.935H244.43a3.073,3.073,0,0,1-.312-1.016h17.72l.008.016a.739.739,0,0,1-.694,1" transform="translate(-90.041 -84.066)" fill="#1b1b1b"/>
            <path id="Trazado_113815" data-name="Trazado 113815" d="M258.538,223.521a.341.341,0,0,1-.093-.014.3.3,0,0,1-.2-.382,2.544,2.544,0,0,1,1.2-1.221.3.3,0,1,1,.277.542,1.976,1.976,0,0,0-.893.865.3.3,0,0,1-.29.211" transform="translate(-95.247 -81.835)" fill="#1b1b1b"/>
            <path id="Trazado_113816" data-name="Trazado 113816" d="M256.137,223.143a.306.306,0,0,1-.268-.451,3.863,3.863,0,0,1,1.231-1.341.3.3,0,0,1,.319.518,3.3,3.3,0,0,0-1.016,1.115.307.307,0,0,1-.268.159" transform="translate(-94.361 -81.627)" fill="#1b1b1b"/>
            <path id="Trazado_113817" data-name="Trazado 113817" d="M252.268,213.9s-5.108,1.025-9.154-.218l-.166-1.372s7.69.177,9.448-.426Z" transform="translate(-89.609 -78.152)" fill="#fedc72"/>
            <path id="Trazado_113818" data-name="Trazado 113818" d="M196.9,225.231h17.721c.855-2.992-.376-4.6-.376-4.6-1.361.907-7.788.423-7.788.423a5.9,5.9,0,0,1-2.925.7c-4.38-.813-6.053,1.924-6.632,3.473" transform="translate(-72.627 -81.378)" fill="#30302e"/>
            <path id="Trazado_113819" data-name="Trazado 113819" d="M240.1,33.36s3.271,1.5,1.982,2.751-30.628-1.135-33.113-5.819c0,0,16.04-1.529,31.131,3.067" transform="translate(-77.078 -11.083)" fill="#e3a100" fill-rule="evenodd"/>
            <path id="Trazado_113820" data-name="Trazado 113820" d="M219.84,185.892l5.7-45.23H229.6l3.212-13.853s-19.357-3.3-19.879-1.864-3.258,48.038-1.3,60.681c0,0,4.529,1.586,8.209.266" transform="translate(-77.802 -45.952)" fill="#393f6d"/>
            <path id="Trazado_113821" data-name="Trazado 113821" d="M233.591,60.294l.658,5.3a4.956,4.956,0,0,1-3.971,2.455,2.763,2.763,0,0,1-2.888-2.362l.466-5.393Z" transform="translate(-83.871 -22.239)" fill="#f0c5ad"/>
            <path id="Trazado_113822" data-name="Trazado 113822" d="M217.637,38.474c0,7.252,2.457,13.132,9.92,13.132,5.478,0,9.92-5.88,9.92-13.132s-4.442-13.133-9.92-13.133-9.92,5.88-9.92,13.133" transform="translate(-80.273 -9.347)" fill="#f9d1ba"/>
            <path id="Trazado_113823" data-name="Trazado 113823" d="M219.919,28.98a22.116,22.116,0,0,0-3.144,9.755s-3.445-5.518.416-12.687Z" transform="translate(-79.434 -9.608)" fill="#685656"/>
            <path id="Trazado_113824" data-name="Trazado 113824" d="M237.218,35.253s-.759-6.061-3.888-6.55-8.906.242-11.852,0c-5.5-.451-3.321-5.861-2.941-7.523,0,0,8.535-.493,11.854.289s10.525,2.705,9.339,13.718c0,0-1.564-1.5-2.512.066" transform="translate(-80.331 -7.756)" fill="#685656"/>
            <path id="Trazado_113825" data-name="Trazado 113825" d="M249.305,48.807s-2.3,6.021-4.1,6.95c0,0,1.82-4.29,2.054-5.129a5.489,5.489,0,0,0,2.051-1.822" transform="translate(-90.44 -18.002)" fill="#685656"/>
            <path id="Trazado_113826" data-name="Trazado 113826" d="M197.556,228.935H214.28a3.117,3.117,0,0,0,.312-1.016H196.871l-.007.016a.737.737,0,0,0,.692,1" transform="translate(-72.593 -84.066)" fill="#1b1b1b"/>
            <path id="Trazado_113827" data-name="Trazado 113827" d="M209.6,223.521a.334.334,0,0,0,.093-.014.305.305,0,0,0,.2-.382,2.539,2.539,0,0,0-1.2-1.221.3.3,0,1,0-.276.542,1.976,1.976,0,0,1,.893.865.3.3,0,0,0,.289.211" transform="translate(-76.81 -81.835)" fill="#1b1b1b"/>
            <path id="Trazado_113828" data-name="Trazado 113828" d="M211.95,223.143a.3.3,0,0,0,.145-.038.3.3,0,0,0,.122-.413,3.863,3.863,0,0,0-1.231-1.341.3.3,0,0,0-.321.518,3.308,3.308,0,0,1,1.017,1.115.307.307,0,0,0,.268.159" transform="translate(-77.649 -81.627)" fill="#1b1b1b"/>
            <path id="Trazado_113829" data-name="Trazado 113829" d="M246.375,43.082s2.749-1.466,3.509,0-1.137,6.061-3.509,5.083,0-5.083,0-5.083" transform="translate(-90.485 -15.65)" fill="#f9d1ba"/>
            <path id="Trazado_113830" data-name="Trazado 113830" d="M225.25,44.986a1.18,1.18,0,1,1-1.078-1.415,1.263,1.263,0,0,1,1.078,1.415" transform="translate(-82.22 -16.07)" fill="#1c1a21"/>
            <path id="Trazado_113831" data-name="Trazado 113831" d="M237.447,45.3a1.18,1.18,0,1,1-1.078-1.414,1.263,1.263,0,0,1,1.078,1.414" transform="translate(-86.718 -16.184)" fill="#1c1a21"/>
            <path id="Trazado_113832" data-name="Trazado 113832" d="M238.827,41.236a1.448,1.448,0,0,0-.542-.9,1.934,1.934,0,0,0-.936-.413,1.767,1.767,0,0,0-1.815.769,6.311,6.311,0,0,0,.9.288c.26.056.492.114.726.145s.471.063.735.081.55.03.932.027" transform="translate(-86.875 -14.718)" fill="#685656"/>
            <path id="Trazado_113833" data-name="Trazado 113833" d="M222.509,40.263c.382,0,.662-.012.932-.026s.5-.049.735-.081.466-.09.726-.145a6.3,6.3,0,0,0,.9-.288,1.768,1.768,0,0,0-1.815-.77,1.951,1.951,0,0,0-.936.412,1.458,1.458,0,0,0-.542.9" transform="translate(-82.07 -14.359)" fill="#685656"/>
            <path id="Trazado_113834" data-name="Trazado 113834" d="M228.754,52a3.238,3.238,0,0,0,.435-.028.3.3,0,0,0-.085-.6,1.753,1.753,0,0,1-1.118-.156.251.251,0,0,1-.086-.206,1.836,1.836,0,0,1,1.053-1.466.3.3,0,0,0-.254-.554,2.417,2.417,0,0,0-1.408,2.02.852.852,0,0,0,.3.665,1.84,1.84,0,0,0,1.167.328" transform="translate(-83.835 -18.059)" fill="#f6ae94"/>
            <path id="Trazado_113835" data-name="Trazado 113835" d="M214.151,19.825S217.62,5.356,228.175,6.662s10.544,15.207,10.544,15.207-23.43-.894-24.567-2.044" transform="translate(-78.988 -2.427)" fill="#ffe37d" fill-rule="evenodd"/>
            <path id="Trazado_113836" data-name="Trazado 113836" d="M223.615,9.566a37.789,37.789,0,0,0-2.345,12.729l-.711-.117s-.427-9.349,2.22-12.236Z" transform="translate(-81.342 -3.528)" fill="#ffbf24" fill-rule="evenodd"/>
            <path id="Trazado_113837" data-name="Trazado 113837" d="M221.9,20.473s-.87-8.268,2.518-12.924a5.294,5.294,0,0,1,3.278-1.9c2.405-.53,6.653-.281,8.175,2.463,0,0-7.218,7.9-6.979,12.7,0,0-2.443-1.3-6.992-.344" transform="translate(-81.809 -2.001)" fill="#ffe37d" fill-rule="evenodd"/>
            <path id="Trazado_113838" data-name="Trazado 113838" d="M238.718,28.943s-15.937-1.318-24.567-2.044l.223-.7s5.439-1.847,24.268,2.022Z" transform="translate(-78.988 -9.5)" fill="#ffbf24" fill-rule="evenodd"/>
            <path id="Trazado_113839" data-name="Trazado 113839" d="M244.477,13.074a11.234,11.234,0,0,1,3.568,6.614s-2.456-4.6-4.527-5.175c0,0,.191-1.5.959-1.439" transform="translate(-89.819 -4.822)" fill="#fff" fill-rule="evenodd"/>
            <path id="Trazado_113840" data-name="Trazado 113840" d="M230.7,16.965c-.1,1.8-1.3,3.205-2.689,3.129s-2.426-1.6-2.326-3.407,1.3-3.205,2.688-3.127,2.427,1.6,2.328,3.406" transform="translate(-83.241 -5)" fill="#ffbc37" fill-rule="evenodd"/>
            <path id="Trazado_113841" data-name="Trazado 113841" d="M228.621,13.092a9.207,9.207,0,0,1,1.334-2.061c.588-.526.265,2.556.265,2.556Z" transform="translate(-84.325 -4.047)" fill="#ffbc37" fill-rule="evenodd"/>
            <path id="Trazado_113842" data-name="Trazado 113842" d="M240.061,9.683s-6.686,7.407-6.9,11.341l1.595.088s-.36-3.543,6.074-10.809Z" transform="translate(-85.999 -3.571)" fill="#ffbf24" fill-rule="evenodd"/>
            <path id="Trazado_113843" data-name="Trazado 113843" d="M236.622,29.467s-17.881-3.182-24.567-2.044c-2.67.889-5.327,1.594-2.111,2.912,0,0-1.633-.978.109-1.164a119.074,119.074,0,0,1,27.83,2.679c4.255.869,4.017,3.2,4.017,3.2,3.239-1.828-5.276-5.586-5.276-5.586" transform="translate(-76.892 -10.024)" fill="#ffe37d" fill-rule="evenodd"/>
            <path id="Trazado_113844" data-name="Trazado 113844" d="M238.269,81.521c-3.422-8.115-.319-9.222-.319-9.222-1.572-2.218-5.453-3.625-9.7-4.157l-.235-1.187a20.535,20.535,0,0,1-7.712,0L220,68.232h0c-3.025.493-5.516,1.535-6.575,3.16-3,4.6-4.457,40.679-4.457,40.679,15.347,4.008,31.624,1.717,31.624,1.717Z" transform="translate(-77.078 -24.696)" fill="#48548b"/>
            <path id="Trazado_113845" data-name="Trazado 113845" d="M212.275,89.607l-.552,4.943s11.721,3.927,28.007,1.526V93.155s-18.128,0-27.455-3.548" transform="translate(-78.092 -33.051)" fill="#fedc72"/>
            <path id="Trazado_113846" data-name="Trazado 113846" d="M213.109,84.82s18.581,4.255,26.788,4.085l-.1-1.43S222.288,86.09,213.38,83.1Z" transform="translate(-78.603 -30.651)" fill="#fedc72"/>
            <path id="Trazado_113847" data-name="Trazado 113847" d="M230.609,67.513s-3.283,36.94-2.261,46.814l-1.392-.152S226.8,85.51,229.3,67.442Z" transform="translate(-83.71 -24.875)" fill="#393f6d"/>
            <path id="Trazado_113848" data-name="Trazado 113848" d="M226.445,81.3a.953.953,0,1,0-.953.952.953.953,0,0,0,.953-.952" transform="translate(-82.819 -29.635)" fill="#393f6d" fill-rule="evenodd"/>
            <path id="Trazado_113849" data-name="Trazado 113849" d="M225.363,89.815a.952.952,0,1,0-.952.953.952.952,0,0,0,.952-.953" transform="translate(-82.421 -32.776)" fill="#393f6d" fill-rule="evenodd"/>
            <path id="Trazado_113850" data-name="Trazado 113850" d="M224.3,102.917a.952.952,0,1,0-.952.952.952.952,0,0,0,.952-.952" transform="translate(-82.03 -37.609)" fill="#393f6d" fill-rule="evenodd"/>
            <path id="Trazado_113851" data-name="Trazado 113851" d="M223.854,114.3a.952.952,0,1,0-.952.952.952.952,0,0,0,.952-.952" transform="translate(-81.864 -41.808)" fill="#393f6d" fill-rule="evenodd"/>
            <path id="Trazado_113852" data-name="Trazado 113852" d="M223.677,125.11a.953.953,0,1,0-.952.953.953.953,0,0,0,.952-.953" transform="translate(-81.799 -45.795)" fill="#393f6d" fill-rule="evenodd"/>
            <path id="Trazado_113853" data-name="Trazado 113853" d="M211.326,213.8s5.127,1.131,9.173-.112l.174-1.371s-7.7.177-9.454-.427Z" transform="translate(-77.906 -78.152)" fill="#fedc72"/>
            <path id="Trazado_113854" data-name="Trazado 113854" d="M272.375,101.99c-.072,1.669-8.836,20.662-8.836,20.662s-5.646-2.005-6.022-2.784,7.221-21.9,7.389-22.265,7.6,1.221,7.469,4.387" transform="translate(-94.978 -35.981)" fill="#474f7c"/>
            <path id="Trazado_113855" data-name="Trazado 113855" d="M262.153,116.458s5.585,1.461,7.4,3.132l.862-1.9s-4.6-2.93-7.562-3.273Z" transform="translate(-96.693 -42.201)" fill="#fedc72"/>
            <path id="Trazado_113856" data-name="Trazado 113856" d="M258.057,125.109c-2.885,10.488-.379,12.965-.379,12.965l1.631-.124s3.671-1.526,7.051-8.191c-1.364-1.228-4.389-4-8.3-4.65" transform="translate(-94.67 -46.145)" fill="#30302e"/>
            <path id="Trazado_113857" data-name="Trazado 113857" d="M245.717,72.578c8.132-2.94,22.255,17.89,21.85,20.1-.2,1.07-5.624,4.04-6.991,2.828s-21.2-20.632-14.859-22.924" transform="translate(-90.17 -26.665)" fill="#474f7c"/>
            <path id="Trazado_113858" data-name="Trazado 113858" d="M254.446,88.785a20.886,20.886,0,0,0,7.094-6.4l1.195,1.184s-2.726,4.7-7.426,6.238Z" transform="translate(-93.85 -30.385)" fill="#fedc72"/>
            <path id="Trazado_113859" data-name="Trazado 113859" d="M257.718,92.761l1.17,1.3s5.5-2.446,7.62-6.141l-1.124-1.254s-3.148,4.755-7.665,6.094" transform="translate(-95.057 -31.966)" fill="#fedc72"/>
            <path id="Trazado_113860" data-name="Trazado 113860" d="M265.283,144.986a1.243,1.243,0,0,0-.856-.9.819.819,0,0,0-.126-.476c-.261-.429-.731-.4-1.192-.208a.835.835,0,0,0-.1-.17c-.5-.608-1.479-.014-2.062-.122-.781-.145-1.479-1.368-2.378-.731a1.78,1.78,0,0,0-.373,2,3.823,3.823,0,0,0,5.006,3.254c1.13-.326,2.476-1.29,2.086-2.643" transform="translate(-95.182 -52.446)" fill="#30302e"/>
            <path id="Trazado_113861" data-name="Trazado 113861" d="M235.588,34.681c-2-2.245-13.925-5.129-19.589-1.712,0,0-3.236,4.3-3.063,8.795s.747,7.5,3.492,7.083,6.916-10.5,8.748-8.329,5.243,8.821,8.162,8.361,4.25-11.945,2.251-14.2m-2.711,11.786c-2.266.353-5.266-6.93-7.455-7.242-4.116-.585-6.9,7.3-9.034,7.622s-2.165-2.838-1.965-6.356a18.139,18.139,0,0,1,2.383-7.1c4.411-2.651,16.265.273,17.823,2.025s.521,10.694-1.751,11.047" transform="translate(-78.537 -11.58)" fill="#ff6621"/>
            <g id="Grupo_80407" data-name="Grupo 80407" transform="translate(135.806 20.751)" opacity="0.37">
              <g id="Grupo_80406" data-name="Grupo 80406">
                <g id="Grupo_80405-2" data-name="Grupo 80405" clip-path="url(#clip-path-3)">
                  <path id="Trazado_113862" data-name="Trazado 113862" d="M233.7,47.014c-2.266.353-5.258-6.991-7.455-7.242-4.471-.509-6.9,7.3-9.034,7.622s-2.165-2.838-1.965-6.356a18.139,18.139,0,0,1,2.383-7.1c4.411-2.651,16.265.273,17.823,2.025s.521,10.694-1.751,11.047" transform="translate(-215.17 -32.877)" fill="#e5f0fa"/>
                </g>
              </g>
            </g>
            <path id="Trazado_113863" data-name="Trazado 113863" d="M227.782,45.375c-1.5.143-6.559,4.485-5.949,8.926A6.7,6.7,0,0,0,228,60.041c2.818-.011,5.381-7.071,5.1-8.515s-3.276-6.346-5.323-6.151" transform="translate(-81.802 -16.734)" fill="#444"/>
            <path id="Trazado_113864" data-name="Trazado 113864" d="M239.128,58.919a4.555,4.555,0,0,0-.814-4.284l.121-.434-1.472-.413c-1.846-.518-3.87.937-4.52,3.252s.318,4.612,2.164,5.131l1.473.414.122-.434a4.554,4.554,0,0,0,2.926-3.233" transform="translate(-85.66 -19.801)" fill="#bbb"/>
            <path id="Trazado_113865" data-name="Trazado 113865" d="M241.1,59.473c-.65,2.315-2.674,3.771-4.52,3.252s-2.815-2.816-2.165-5.13,2.674-3.771,4.52-3.253,2.815,2.817,2.165,5.131" transform="translate(-86.388 -20.005)" fill="#d1d1d1"/>
            <path id="Trazado_113866" data-name="Trazado 113866" d="M219.177,58.919a4.551,4.551,0,0,1,.814-4.284l-.121-.434,1.473-.413c1.845-.518,3.869.937,4.519,3.252s-.319,4.612-2.164,5.131l-1.473.414-.122-.434a4.553,4.553,0,0,1-2.926-3.233" transform="translate(-80.767 -19.801)" fill="#bbb"/>
            <path id="Trazado_113867" data-name="Trazado 113867" d="M217.2,59.473c.65,2.315,2.674,3.771,4.52,3.252s2.815-2.816,2.165-5.13-2.674-3.771-4.52-3.253-2.814,2.817-2.164,5.131" transform="translate(-80.039 -20.005)" fill="#d1d1d1"/>
            <path id="Trazado_113868" data-name="Trazado 113868" d="M296.237,101.3c-.074,1.669-9.371,21.3-9.371,21.3s-5.641-2.014-6.017-2.794,7.257-21.888,7.426-22.253,8.1.583,7.963,3.748" transform="translate(-103.584 -35.953)" fill="#fb5d30"/>
            <path id="Trazado_113869" data-name="Trazado 113869" d="M285.51,116.407s5.583,1.469,7.4,3.143l.865-1.9s-4.6-2.938-7.556-3.285Z" transform="translate(-105.308 -42.183)" fill="#fdda66"/>
            <path id="Trazado_113870" data-name="Trazado 113870" d="M287.024,126.99s-6.878-4.464-10.025-4.21c0,0,.057,5.7-2,8.348-1.145.439-3.076,1.3-3.075,2.417,0,.519.411.731.874.682a1.237,1.237,0,0,0,.58-.219c.267-.176.967-1.4,1.308-.352.107.329-1.279,1.193-1.573,1.383a11.829,11.829,0,0,0-1.23.838c-.457.382-1.958,1.494-2.035,2.118a.831.831,0,0,0,.411.877c-.383.314-.714.7-.556,1.115.267.7,1.188.487,1.846.24a.53.53,0,0,0,.348.564c.547.243,1.3-.322,1.854-.791,0,.377.352.548.936.3a9.737,9.737,0,0,0,3.694-3.882c.045-.112.084-.232.125-.35a40.083,40.083,0,0,0,8.52-9.08" transform="translate(-99.462 -45.282)" fill="#303030"/>
            <path id="Trazado_113871" data-name="Trazado 113871" d="M279.529,224.708c3.215-.078,8.219-.494,12.193-.87l.1-.011c1.8-.167,3.375-.328,4.468-.444l.06-3.751a20.72,20.72,0,0,1-6.767-.877s-6.074,3.853-8.363,4.6a2.415,2.415,0,0,0-1.69,1.353" transform="translate(-103.102 -80.686)" fill="#626264"/>
            <path id="Trazado_113872" data-name="Trazado 113872" d="M279.468,227.412c3.215-.078,8.219-.494,12.193-.87,1.722-.161,3.526-.344,4.568-.455l-.013.863a1.081,1.081,0,0,1-1.009,1.064,31.125,31.125,0,0,1-5.263.011,63.339,63.339,0,0,1-10.519.418,1.678,1.678,0,0,1,.044-1.03" transform="translate(-103.041 -83.39)" fill="#454545"/>
            <path id="Trazado_113873" data-name="Trazado 113873" d="M321.735,217.813c5.334-.724,6.392-3,7.739-5.175a6.894,6.894,0,0,1,1.312-2.093l.071-.06c1.322-1.062,2.478-2.005,3.274-2.663l-1.9-2.973a33.1,33.1,0,0,1-6.542,3.415,9.645,9.645,0,0,1-.748,5.339c-.614,1.168-2.456,2.147-2.922,2.733-.652.819-.4,1.011-.288,1.477" transform="translate(-118.617 -75.557)" fill="#626264"/>
            <path id="Trazado_113874" data-name="Trazado 113874" d="M326.666,217.772c1.546-1.2,2.679-4.125,4.07-5.371l0-.01c1.322-1.061,2.684-2.174,3.48-2.831l.393.615a1.079,1.079,0,0,1-.277,1.46A23.829,23.829,0,0,1,331,213.71s-1.8,3.734-3.8,5.228a30.74,30.74,0,0,1-4.909,1.566,2.576,2.576,0,0,1-.473-.954,23.438,23.438,0,0,0,4.848-1.778" transform="translate(-118.7 -77.294)" fill="#454545"/>
            <path id="Trazado_113875" data-name="Trazado 113875" d="M296.565,119.134s-8.787,16.841,1.76,33.129c2.38,3.676,16.757,25.088,16.757,25.088l7.5-4.115s-10.338-18.391-11.681-21.1c-1.387-2.8-3.171-28.631-3.888-30.362s-3.5-5.3-10.449-2.638" transform="translate(-108.12 -43.589)" fill="#eb5321"/>
            <path id="Trazado_113876" data-name="Trazado 113876" d="M305.489,122.96c-4.541,4.7-8.118,22.739-8.777,25.725s-3.755,33.564-3.755,33.564l8.989.441s4.984-27.765,6.132-30.007,15.391-24.219,15.545-30.561-13.646-3.806-18.134.838" transform="translate(-108.055 -43.644)" fill="#fb5d30"/>
            <path id="Trazado_113877" data-name="Trazado 113877" d="M293.81,210.069l9.388.892-.315,1.711-9.286-.531Z" transform="translate(-108.29 -77.482)" fill="#fdda66"/>
            <path id="Trazado_113878" data-name="Trazado 113878" d="M324.25,203.595l7.492-4.688-1.048-1.871-7.535,4.932Z" transform="translate(-119.194 -72.675)" fill="#fdda66"/>
            <path id="Trazado_113879" data-name="Trazado 113879" d="M298.952,66.318c7.352,4.554,1.82,29.319-1.62,29-1.083-.1-7.7-1.239-7.6-3.063s3.486-29.494,9.218-25.942" transform="translate(-106.865 -24.345)" fill="#fb5d30"/>
            <path id="Trazado_113880" data-name="Trazado 113880" d="M293.222,85.111a19.38,19.38,0,0,0,9.208,1.618l-.188,1.671s-5.207.872-9.331-1.857Z" transform="translate(-108.038 -31.392)" fill="#fdda66"/>
            <path id="Trazado_113881" data-name="Trazado 113881" d="M292.169,90.13l-.321,1.718s5.2,2.767,9.417,2.136l.287-1.659s-5.53.516-9.383-2.2" transform="translate(-107.645 -33.244)" fill="#fdda66"/>
            <path id="Trazado_113882" data-name="Trazado 113882" d="M323.571,27.936s3.271,1.5,1.982,2.752-30.629-1.135-33.112-5.819c0,0,16.04-1.529,31.13,3.067" transform="translate(-107.864 -9.083)" fill="#913333" fill-rule="evenodd"/>
            <path id="Trazado_113883" data-name="Trazado 113883" d="M329.04,45.323a1.842,1.842,0,0,0,2.193-1.83c1.024.344,1.749-1.195,1.494-1.991a1.517,1.517,0,0,0,.959-2.476,2.02,2.02,0,0,0,1.252-1.252,1.954,1.954,0,0,0-.7-2.084,1.333,1.333,0,0,0-.109-2.352c1.358-.778,1.414-2.85-.158-3.282a1.492,1.492,0,0,0-1.031-2.346.228.228,0,0,0-.083-.045c-.749-.183-2.059-.508-2.414.415A32.449,32.449,0,0,0,329.7,31.9c-.689,2.812-2.2,5.53-2.54,8.412-.178,1.525.082,4.421,1.879,5.013" transform="translate(-120.653 -10.127)" fill="#c36733" fill-rule="evenodd"/>
            <path id="Trazado_113884" data-name="Trazado 113884" d="M317.059,54.87l.658,5.3a4.956,4.956,0,0,1-3.972,2.455,2.764,2.764,0,0,1-2.887-2.363l.465-5.392Z" transform="translate(-114.657 -20.238)" fill="#f0c5ad"/>
            <path id="Trazado_113885" data-name="Trazado 113885" d="M298.869,30.052a2.457,2.457,0,0,0-.6,2.166.9.9,0,0,0,.784.613,1.187,1.187,0,0,0,.673,1.719c1.435.542,2.6-1.678,3.031-2.7.677-1.6,1.23-3.906.571-5.593a2.3,2.3,0,0,0-2.876-1.5.126.126,0,0,0-.069.057c-.876.2-2.162.533-2.318,1.484a1.9,1.9,0,0,0,.706,1.626c-1.24.17-1.065,1.956.1,2.128" transform="translate(-109.884 -9.083)" fill="#c36733" fill-rule="evenodd"/>
            <path id="Trazado_113886" data-name="Trazado 113886" d="M301.1,33.05c0,7.253,2.456,13.133,9.92,13.133,5.478,0,9.92-5.88,9.92-13.133s-4.441-13.132-9.92-13.132S301.1,25.8,301.1,33.05" transform="translate(-111.06 -7.347)" fill="#f9d1ba"/>
            <path id="Trazado_113887" data-name="Trazado 113887" d="M303.388,23.557a22.123,22.123,0,0,0-3.144,9.753s-3.445-5.517.415-12.686Z" transform="translate(-110.22 -7.607)" fill="#c36733"/>
            <path id="Trazado_113888" data-name="Trazado 113888" d="M320.686,29.83s-.757-6.06-3.887-6.55-8.906.242-11.854,0c-5.5-.451-3.319-5.861-2.941-7.523,0,0,8.536-.493,11.855.289s10.523,2.7,9.339,13.719c0,0-1.564-1.5-2.513.064" transform="translate(-111.118 -5.755)" fill="#c36733"/>
            <path id="Trazado_113889" data-name="Trazado 113889" d="M329.843,37.659s2.75-1.466,3.509,0-1.138,6.062-3.509,5.084,0-5.084,0-5.084" transform="translate(-121.271 -13.65)" fill="#f9d1ba"/>
            <path id="Trazado_113890" data-name="Trazado 113890" d="M308.719,39.562a1.18,1.18,0,1,1-1.077-1.414,1.264,1.264,0,0,1,1.077,1.414" transform="translate(-113.006 -14.07)" fill="#1c1a21"/>
            <path id="Trazado_113891" data-name="Trazado 113891" d="M320.915,39.871a1.18,1.18,0,1,1-1.078-1.414,1.264,1.264,0,0,1,1.078,1.414" transform="translate(-117.505 -14.184)" fill="#1c1a21"/>
            <path id="Trazado_113892" data-name="Trazado 113892" d="M312.475,52.627a6.23,6.23,0,0,0,2.925-.758.305.305,0,0,0-.285-.54,5.26,5.26,0,0,1-5.767-.33.3.3,0,0,0-.39.467,5.947,5.947,0,0,0,3.516,1.161" transform="translate(-113.917 -18.785)" fill="#f6ae94"/>
            <path id="Trazado_113893" data-name="Trazado 113893" d="M322.3,35.813a1.462,1.462,0,0,0-.542-.9,1.957,1.957,0,0,0-.936-.413,1.768,1.768,0,0,0-1.816.77,6.424,6.424,0,0,0,.9.288c.261.056.492.115.726.145s.471.062.735.081.55.03.933.026" transform="translate(-117.661 -12.717)" fill="#c36733"/>
            <path id="Trazado_113894" data-name="Trazado 113894" d="M305.975,34.84c.382,0,.663-.011.932-.027s.5-.049.735-.081.467-.089.726-.145a6.4,6.4,0,0,0,.9-.288,1.768,1.768,0,0,0-1.815-.77,1.949,1.949,0,0,0-.935.413,1.459,1.459,0,0,0-.543.9" transform="translate(-112.856 -12.359)" fill="#c36733"/>
            <path id="Trazado_113895" data-name="Trazado 113895" d="M297.618,14.4s3.47-14.468,14.024-13.163,10.543,15.208,10.543,15.208-23.43-.894-24.567-2.045" transform="translate(-109.774 -0.426)" fill="#ff5451" fill-rule="evenodd"/>
            <path id="Trazado_113896" data-name="Trazado 113896" d="M307.083,4.142a37.813,37.813,0,0,0-2.345,12.73l-.712-.117s-.425-9.35,2.221-12.238Z" transform="translate(-112.128 -1.528)" fill="#f44" fill-rule="evenodd"/>
            <path id="Trazado_113897" data-name="Trazado 113897" d="M305.368,15.049s-.87-8.269,2.518-12.925a5.3,5.3,0,0,1,3.279-1.9c2.405-.531,6.652-.282,8.174,2.463,0,0-7.218,7.9-6.978,12.7,0,0-2.443-1.3-6.993-.344" transform="translate(-112.595 0)" fill="#ff7171" fill-rule="evenodd"/>
            <path id="Trazado_113898" data-name="Trazado 113898" d="M322.185,23.52S306.25,22.2,297.618,21.475l.223-.7s5.439-1.847,24.269,2.021Z" transform="translate(-109.774 -7.499)" fill="#f44" fill-rule="evenodd"/>
            <path id="Trazado_113899" data-name="Trazado 113899" d="M327.946,7.649a11.241,11.241,0,0,1,3.567,6.615s-2.456-4.6-4.527-5.174c0,0,.191-1.5.96-1.441" transform="translate(-120.606 -2.821)" fill="#ffacac" fill-rule="evenodd"/>
            <path id="Trazado_113900" data-name="Trazado 113900" d="M314.173,11.541c-.1,1.8-1.3,3.205-2.689,3.129s-2.428-1.6-2.326-3.407,1.3-3.205,2.687-3.127,2.427,1.6,2.328,3.406" transform="translate(-114.028 -2.999)" fill="#fdda66" fill-rule="evenodd"/>
            <path id="Trazado_113901" data-name="Trazado 113901" d="M312.09,7.669a9.178,9.178,0,0,1,1.334-2.06c.588-.527.265,2.555.265,2.555Z" transform="translate(-115.112 -2.046)" fill="#fdda66" fill-rule="evenodd"/>
            <path id="Trazado_113902" data-name="Trazado 113902" d="M323.528,4.26s-6.686,7.406-6.9,11.341l1.595.088s-.36-3.543,6.074-10.809Z" transform="translate(-116.785 -1.571)" fill="#f44" fill-rule="evenodd"/>
            <path id="Trazado_113903" data-name="Trazado 113903" d="M320.09,24.043S302.21,20.861,295.522,22c-2.67.89-5.326,1.594-2.11,2.913,0,0-1.633-.978.109-1.163a118.992,118.992,0,0,1,27.83,2.679c4.255.869,4.017,3.2,4.017,3.2,3.238-1.828-5.278-5.586-5.278-5.586" transform="translate(-107.678 -8.023)" fill="#ff5451" fill-rule="evenodd"/>
            <path id="Trazado_113904" data-name="Trazado 113904" d="M312.852,158.555H340.9a2.007,2.007,0,0,1,.619.1h0l.043.018c.044.015.086.031.128.049l1.752.677-.631.654a1.957,1.957,0,0,1,.061.475v18.747a1.972,1.972,0,0,1-1.972,1.972H313.827l.177.591-1.821-.708h0a1.971,1.971,0,0,1-1.3-1.854V160.527a1.972,1.972,0,0,1,1.972-1.972" transform="translate(-114.665 -58.482)" fill="#91cecc"/>
            <path id="Trazado_113905" data-name="Trazado 113905" d="M315.727,182.361h28.049a1.972,1.972,0,0,0,1.972-1.972V161.642a1.972,1.972,0,0,0-1.972-1.972H315.727a1.971,1.971,0,0,0-1.972,1.972v18.747a1.971,1.971,0,0,0,1.972,1.972" transform="translate(-115.726 -58.893)" fill="#bbf1f1"/>
            <path id="Trazado_113906" data-name="Trazado 113906" d="M313.755,170.057s5.822,3.027,16,3.091,16-3.091,16-3.091v-8.415a1.972,1.972,0,0,0-1.972-1.972H315.727a1.971,1.971,0,0,0-1.972,1.972Z" transform="translate(-115.726 -58.893)" fill="#a7dddc"/>
            <path id="Trazado_113907" data-name="Trazado 113907" d="M330.472,156.973h1.245v-1.234a.78.78,0,0,1,.78-.779h5.559a.78.78,0,0,1,.781.779v1.234h1.245v-1.234a2.028,2.028,0,0,0-2.026-2.025H332.5a2.027,2.027,0,0,0-2.025,2.025Z" transform="translate(-121.892 -56.696)" fill="#91cecc"/>
            <path id="Trazado_113908" data-name="Trazado 113908" d="M341.426,174.356a5.606,5.606,0,1,0-5.605,5.605,5.606,5.606,0,0,0,5.605-5.605" transform="translate(-121.797 -62.242)" fill="#df5a57"/>
            <path id="Trazado_113909" data-name="Trazado 113909" d="M339.713,174.949h-1.787v-1.788a.756.756,0,0,0-1.513,0v1.788h-1.787a.756.756,0,0,0,0,1.512h1.787v1.787a.756.756,0,0,0,1.513,0v-1.787h1.787a.756.756,0,1,0,0-1.512" transform="translate(-123.145 -63.59)" fill="#fff"/>
            <path id="Trazado_113910" data-name="Trazado 113910" d="M321.736,76.1c-3.421-8.114-.318-9.221-.318-9.221-1.572-2.218-5.454-3.625-9.7-4.157l-.235-1.187a20.55,20.55,0,0,1-7.712,0l-.293,1.277v0c-3.025.493-5.516,1.534-6.575,3.159-3,4.6-4.456,40.679-4.456,40.679,15.347,4.008,31.622,1.717,31.622,1.717Z" transform="translate(-107.864 -22.696)" fill="#ff6621"/>
            <path id="Trazado_113911" data-name="Trazado 113911" d="M295.742,84.185l-.55,4.943s11.721,3.927,28.006,1.525v-2.92s-18.127,0-27.455-3.548" transform="translate(-108.879 -31.051)" fill="#ffe37d"/>
            <path id="Trazado_113912" data-name="Trazado 113912" d="M296.578,79.4s18.579,4.254,26.787,4.086l-.1-1.431s-17.5-1.385-26.413-4.375Z" transform="translate(-109.39 -28.651)" fill="#ffe37d"/>
            <path id="Trazado_113913" data-name="Trazado 113913" d="M314.077,62.09s-3.283,36.94-2.26,46.814l-1.394-.152s-.157-28.665,2.344-46.732Z" transform="translate(-114.496 -22.876)" fill="#eb5321"/>
            <path id="Trazado_113914" data-name="Trazado 113914" d="M309.912,75.874a.952.952,0,1,0-.952.953.952.952,0,0,0,.952-.953" transform="translate(-113.606 -27.634)" fill="#eb5321" fill-rule="evenodd"/>
            <path id="Trazado_113915" data-name="Trazado 113915" d="M308.831,84.392a.952.952,0,1,0-.953.952.954.954,0,0,0,.953-.952" transform="translate(-113.207 -30.775)" fill="#eb5321" fill-rule="evenodd"/>
            <path id="Trazado_113916" data-name="Trazado 113916" d="M307.772,97.494a.952.952,0,1,0-.952.952.951.951,0,0,0,.952-.952" transform="translate(-112.817 -35.609)" fill="#eb5321" fill-rule="evenodd"/>
            <path id="Trazado_113917" data-name="Trazado 113917" d="M307.321,108.879a.952.952,0,1,0-.952.952.952.952,0,0,0,.952-.952" transform="translate(-112.65 -39.808)" fill="#eb5321" fill-rule="evenodd"/>
            <path id="Trazado_113918" data-name="Trazado 113918" d="M307.145,119.687a.952.952,0,1,0-.952.952.951.951,0,0,0,.952-.952" transform="translate(-112.585 -43.794)" fill="#eb5321" fill-rule="evenodd"/>
            <path id="Trazado_113919" data-name="Trazado 113919" d="M348.571,109.1c.211,1.657-5.616,22.582-5.616,22.582s-5.9-1.028-6.4-1.731,3.434-22.8,3.537-23.19,8.084-.8,8.483,2.34" transform="translate(-124.117 -39.28)" fill="#fb5d30"/>
            <path id="Trazado_113920" data-name="Trazado 113920" d="M338.569,126.586s5.751.5,7.824,1.84l.53-2.019s-5.032-2.112-8-1.954Z" transform="translate(-124.878 -45.9)" fill="#fdda66"/>
            <path id="Trazado_113921" data-name="Trazado 113921" d="M332.569,66.008c8.635.48,15.417,30.249,13.068,30.4-1.086.069-7.592-1.834-8.376-3.485s-11.425-27.288-4.692-26.913" transform="translate(-121.846 -24.345)" fill="#fb5d30"/>
            <path id="Trazado_113922" data-name="Trazado 113922" d="M333.482,85.526a20.873,20.873,0,0,0,9.034-3.114l.635,1.557s-4.349,3.254-9.276,2.832Z" transform="translate(-123.002 -30.397)" fill="#fdda66"/>
            <path id="Trazado_113923" data-name="Trazado 113923" d="M335,90.6l.565,1.654s6.02-.095,9.417-2.665l-.542-1.594S339.685,91.132,335,90.6" transform="translate(-123.563 -32.455)" fill="#fdda66"/>
            <path id="Trazado_113924" data-name="Trazado 113924" d="M333.9,130.287c-.863.964.5,4.587-1.337,8.305-.516,1.046-.7,1.56-1.19,1.617-1.156.133-2.1.18-2.52,1.416a.391.391,0,0,0,.375.491,14.932,14.932,0,0,0,1.8-.093l0,.006q-.4,2.594-.76,5.187c-.037.264.165.588.478.477a4.682,4.682,0,0,0,1.505-.857,1.35,1.35,0,0,0,2.046.512,1.291,1.291,0,0,0,1.792.3c.026.088.052.175.077.263a.392.392,0,0,0,.374.285c2.152-.136,2.09-3.914,2.442-5.739,2.972-5.237,3.848-8.126,4.352-10.348-.989-1.349-7.066-2.284-9.434-1.827" transform="translate(-121.286 -48.012)" fill="#303030" fill-rule="evenodd"/>
            <path id="Trazado_113925" data-name="Trazado 113925" d="M301.43,46.116s.386,2.231,1.765,1.475a8.141,8.141,0,0,1,4.378-1.12s.208.892,2.446.687c0,0,2.6,1.236,4.464,2.236,3.52,1.883,6.192-3.18,6.192-3.18s-1.3,9.94-10.4,9.542c-8.446-.37-8.845-9.639-8.845-9.639" transform="translate(-111.18 -17.009)" fill="#c36733"/>
            <path id="Trazado_113926" data-name="Trazado 113926" d="M312.223,46.577a3.238,3.238,0,0,0,.435-.028.3.3,0,0,0-.084-.6,1.749,1.749,0,0,1-1.118-.158.243.243,0,0,1-.087-.205,1.837,1.837,0,0,1,1.053-1.466.3.3,0,0,0-.254-.554,2.412,2.412,0,0,0-1.408,2.02.857.857,0,0,0,.3.666,1.844,1.844,0,0,0,1.167.327" transform="translate(-114.621 -16.058)" fill="#f6ae94"/>
            <path id="Trazado_113927" data-name="Trazado 113927" d="M312.683,54.594a9.233,9.233,0,0,1-3.362-.718l.246-.557c.034.015,3.361,1.46,5.422.028l.348.5a4.6,4.6,0,0,1-2.655.746" transform="translate(-114.09 -19.666)" fill="#f6ae94"/>
            <path id="Trazado_113928" data-name="Trazado 113928" d="M149.141,224.708c-3.214-.078-8.218-.494-12.193-.87l-.1-.011c-1.8-.167-3.375-.328-4.467-.444l-.061-3.751a20.72,20.72,0,0,0,6.767-.877s6.074,3.853,8.363,4.6a2.414,2.414,0,0,1,1.69,1.353" transform="translate(-48.805 -80.686)" fill="#626264"/>
            <path id="Trazado_113929" data-name="Trazado 113929" d="M149.177,227.412c-3.214-.078-8.218-.494-12.193-.87h0c-1.723-.161-3.526-.344-4.567-.455l.013.863a1.08,1.08,0,0,0,1.008,1.064,31.125,31.125,0,0,0,5.263.011,63.348,63.348,0,0,0,10.52.418,1.676,1.676,0,0,0-.044-1.03" transform="translate(-48.841 -83.39)" fill="#454545"/>
            <path id="Trazado_113930" data-name="Trazado 113930" d="M109.439,217.813c-5.335-.724-6.392-3-7.739-5.175a6.894,6.894,0,0,0-1.312-2.093l-.072-.06c-1.322-1.062-2.478-2.005-3.273-2.663l1.9-2.973a33.127,33.127,0,0,0,6.543,3.415,9.648,9.648,0,0,0,.747,5.339c.614,1.168,2.457,2.147,2.922,2.733.653.819.4,1.011.288,1.477" transform="translate(-35.793 -75.557)" fill="#626264"/>
            <path id="Trazado_113931" data-name="Trazado 113931" d="M104.26,217.772c-1.545-1.2-2.679-4.125-4.07-5.371l0-.01c-1.322-1.061-2.685-2.174-3.48-2.831l-.393.615a1.078,1.078,0,0,0,.279,1.46,23.731,23.731,0,0,0,3.33,2.076s1.8,3.734,3.8,5.228a30.762,30.762,0,0,0,4.909,1.566,2.571,2.571,0,0,0,.473-.954,23.441,23.441,0,0,1-4.849-1.778" transform="translate(-35.463 -77.294)" fill="#454545"/>
            <path id="Trazado_113932" data-name="Trazado 113932" d="M124.725,119.134s8.787,16.841-1.759,33.129c-2.381,3.676-16.757,25.088-16.757,25.088l-7.5-4.115s10.338-18.391,11.681-21.1c1.388-2.8,3.171-28.631,3.889-30.362s3.5-5.3,10.448-2.638" transform="translate(-36.407 -43.589)" fill="#393f6d"/>
            <path id="Trazado_113933" data-name="Trazado 113933" d="M115.09,122.96c4.541,4.7,8.118,22.739,8.777,25.725s3.754,33.564,3.754,33.564l-8.988.441s-4.985-27.765-6.132-30.007-15.393-24.219-15.546-30.561,13.647-3.806,18.135.838" transform="translate(-35.761 -43.644)" fill="#474f7c"/>
            <path id="Trazado_113934" data-name="Trazado 113934" d="M139.079,210.069l-9.388.892.315,1.711,9.286-.531Z" transform="translate(-47.836 -77.482)" fill="#fedc72"/>
            <path id="Trazado_113935" data-name="Trazado 113935" d="M109.234,203.595l-7.492-4.688,1.048-1.871,7.536,4.932Z" transform="translate(-37.527 -72.675)" fill="#fedc72"/>
            <path id="Trazado_113936" data-name="Trazado 113936" d="M138.289,114.579c1.348-.988,12.513-19.619,12.513-19.619s-4.809-3.574-5.665-3.454-14.176,18.189-14.385,18.53,4.984,6.416,7.538,4.542" transform="translate(-48.224 -33.75)" fill="#474f7c"/>
            <path id="Trazado_113937" data-name="Trazado 113937" d="M142.682,103.845s4.322,3.827,6.721,4.407l-1.1,1.774s-5-2.2-6.928-4.46Z" transform="translate(-52.145 -38.302)" fill="#fedc72"/>
            <path id="Trazado_113938" data-name="Trazado 113938" d="M132.236,66.988c-7.812,3.713-5.055,28.938-1.6,29.007,1.088.022,7.792-.379,7.891-2.2s-.2-29.7-6.29-26.8" transform="translate(-46.916 -24.63)" fill="#474f7c"/>
            <path id="Trazado_113939" data-name="Trazado 113939" d="M138.534,86.817a19.378,19.378,0,0,1-9.331.588l0,1.681s5.08,1.444,9.479-.812Z" transform="translate(-47.655 -32.022)" fill="#fedc72"/>
            <path id="Trazado_113940" data-name="Trazado 113940" d="M138.882,91.922l.128,1.743s-5.48,2.175-9.6,1.081l-.1-1.681s5.437,1.125,9.568-1.142" transform="translate(-47.696 -33.905)" fill="#fedc72"/>
            <path id="Trazado_113941" data-name="Trazado 113941" d="M95.4,27.936s-3.271,1.5-1.982,2.752,30.629-1.135,33.112-5.819c0,0-16.04-1.529-31.131,3.067" transform="translate(-34.346 -9.083)" fill="#e69719" fill-rule="evenodd"/>
            <path id="Trazado_113942" data-name="Trazado 113942" d="M106.642,40.31c-.336-2.882-1.852-5.6-2.539-8.411a32.586,32.586,0,0,0-.744-3.819c-.355-.923-1.665-.6-2.414-.415a.224.224,0,0,0-.084.044,1.491,1.491,0,0,0-1.03,2.346c-1.572.433-1.517,2.5-.16,3.282a1.333,1.333,0,0,0-.109,2.353,1.953,1.953,0,0,0-.7,2.083,2.014,2.014,0,0,0,1.25,1.252,1.517,1.517,0,0,0,.96,2.476c-.256.8.47,2.335,1.493,1.991a1.842,1.842,0,0,0,2.193,1.83c1.8-.592,2.056-3.488,1.878-5.013" transform="translate(-36.387 -10.127)" fill="#eb5321" fill-rule="evenodd"/>
            <path id="Trazado_113943" data-name="Trazado 113943" d="M117.433,54.87l-.658,5.3a4.954,4.954,0,0,0,3.971,2.455,2.763,2.763,0,0,0,2.887-2.363l-.465-5.392Z" transform="translate(-43.071 -20.238)" fill="#f0c5ad"/>
            <path id="Trazado_113944" data-name="Trazado 113944" d="M136.394,27.924a1.9,1.9,0,0,0,.7-1.626c-.157-.952-1.441-1.289-2.318-1.484a.123.123,0,0,0-.069-.057,2.3,2.3,0,0,0-2.876,1.5c-.659,1.688-.105,3.993.572,5.593.432,1.019,1.6,3.24,3.03,2.7a1.187,1.187,0,0,0,.673-1.719.9.9,0,0,0,.784-.613,2.457,2.457,0,0,0-.6-2.166c1.161-.172,1.336-1.957.1-2.128" transform="translate(-48.517 -9.083)" fill="#eb5321" fill-rule="evenodd"/>
            <path id="Trazado_113945" data-name="Trazado 113945" d="M125.8,33.05c0,7.253-2.457,13.133-9.921,13.133-5.478,0-9.919-5.88-9.919-13.133s4.441-13.132,9.919-13.132S125.8,25.8,125.8,33.05" transform="translate(-39.083 -7.347)" fill="#f9d1ba"/>
            <path id="Trazado_113946" data-name="Trazado 113946" d="M132.449,23.557a22.134,22.134,0,0,1,3.144,9.753s3.445-5.517-.416-12.686Z" transform="translate(-48.853 -7.607)" fill="#eb5321"/>
            <path id="Trazado_113947" data-name="Trazado 113947" d="M104.919,29.83s.758-6.06,3.887-6.55,8.906.242,11.853,0c5.5-.451,3.32-5.861,2.942-7.523,0,0-8.536-.493-11.855.289s-10.524,2.7-9.339,13.719c0,0,1.565-1.5,2.513.064" transform="translate(-37.724 -5.755)" fill="#eb5321"/>
            <path id="Trazado_113948" data-name="Trazado 113948" d="M105.892,37.659s-2.75-1.466-3.509,0,1.137,6.062,3.509,5.084,0-5.084,0-5.084" transform="translate(-37.701 -13.65)" fill="#f9d1ba"/>
            <path id="Trazado_113949" data-name="Trazado 113949" d="M128.413,39.562a1.18,1.18,0,1,0,1.078-1.414,1.264,1.264,0,0,0-1.078,1.414" transform="translate(-47.363 -14.07)" fill="#1c1a21"/>
            <path id="Trazado_113950" data-name="Trazado 113950" d="M116.218,39.871a1.18,1.18,0,1,0,1.078-1.414,1.264,1.264,0,0,0-1.078,1.414" transform="translate(-42.865 -14.184)" fill="#1c1a21"/>
            <path id="Trazado_113951" data-name="Trazado 113951" d="M114.282,35.813a1.45,1.45,0,0,1,.542-.9,1.947,1.947,0,0,1,.935-.413,1.768,1.768,0,0,1,1.816.77,6.3,6.3,0,0,1-.9.288c-.259.056-.492.115-.726.145s-.47.062-.735.081-.55.03-.932.026" transform="translate(-42.152 -12.717)" fill="#eb5321"/>
            <path id="Trazado_113952" data-name="Trazado 113952" d="M130.6,34.84c-.382,0-.663-.011-.932-.027s-.5-.049-.735-.081-.466-.089-.725-.145a6.322,6.322,0,0,1-.9-.288,1.766,1.766,0,0,1,1.814-.77,1.946,1.946,0,0,1,.936.413,1.456,1.456,0,0,1,.543.9" transform="translate(-46.956 -12.359)" fill="#eb5321"/>
            <path id="Trazado_113953" data-name="Trazado 113953" d="M125.016,46.577a3.215,3.215,0,0,1-.434-.028.3.3,0,1,1,.084-.6,1.749,1.749,0,0,0,1.118-.158.247.247,0,0,0,.087-.205,1.839,1.839,0,0,0-1.053-1.466.3.3,0,0,1,.253-.554,2.413,2.413,0,0,1,1.409,2.02.856.856,0,0,1-.3.666,1.842,1.842,0,0,1-1.166.327" transform="translate(-45.854 -16.058)" fill="#f6ae94"/>
            <path id="Trazado_113954" data-name="Trazado 113954" d="M126.525,14.4S123.055-.067,112.5,1.238s-10.543,15.208-10.543,15.208,23.43-.894,24.567-2.045" transform="translate(-37.606 -0.426)" fill="#ffe37d" fill-rule="evenodd"/>
            <path id="Trazado_113955" data-name="Trazado 113955" d="M129.616,4.142a37.778,37.778,0,0,1,2.345,12.73l.712-.117s.426-9.35-2.221-12.238Z" transform="translate(-47.808 -1.528)" fill="#ffbc37" fill-rule="evenodd"/>
            <path id="Trazado_113956" data-name="Trazado 113956" d="M124.908,15.049s.87-8.269-2.518-12.925a5.3,5.3,0,0,0-3.279-1.9c-2.4-.531-6.652-.282-8.174,2.463,0,0,7.218,7.9,6.978,12.7,0,0,2.443-1.3,6.992-.344" transform="translate(-40.918 0)" fill="#ffe37d" fill-rule="evenodd"/>
            <path id="Trazado_113957" data-name="Trazado 113957" d="M101.958,23.52s15.936-1.318,24.567-2.045l-.223-.7s-5.439-1.847-24.268,2.021Z" transform="translate(-37.606 -7.499)" fill="#ffbc37" fill-rule="evenodd"/>
            <path id="Trazado_113958" data-name="Trazado 113958" d="M107.909,7.649a11.241,11.241,0,0,0-3.567,6.615s2.455-4.6,4.527-5.174c0,0-.191-1.5-.959-1.441" transform="translate(-38.486 -2.821)" fill="#fff" fill-rule="evenodd"/>
            <path id="Trazado_113959" data-name="Trazado 113959" d="M121.39,11.541c.1,1.8,1.3,3.205,2.688,3.129s2.427-1.6,2.327-3.407-1.3-3.205-2.688-3.127-2.426,1.6-2.327,3.406" transform="translate(-44.771 -2.999)" fill="#ffbc37" fill-rule="evenodd"/>
            <path id="Trazado_113960" data-name="Trazado 113960" d="M125.424,7.669a9.169,9.169,0,0,0-1.333-2.06c-.588-.527-.265,2.555-.265,2.555Z" transform="translate(-45.64 -2.046)" fill="#ffbc37" fill-rule="evenodd"/>
            <path id="Trazado_113961" data-name="Trazado 113961" d="M110.49,4.26s6.685,7.406,6.9,11.341l-1.6.088s.361-3.543-6.074-10.809Z" transform="translate(-40.47 -1.571)" fill="#ffbc37" fill-rule="evenodd"/>
            <path id="Trazado_113962" data-name="Trazado 113962" d="M98.445,24.043S116.326,20.861,123.012,22c2.67.89,5.326,1.594,2.111,2.913,0,0,1.633-.978-.108-1.163a118.985,118.985,0,0,0-27.83,2.679c-4.256.869-4.017,3.2-4.017,3.2-3.238-1.828,5.277-5.586,5.277-5.586" transform="translate(-34.093 -8.023)" fill="#ffe37d" fill-rule="evenodd"/>
            <path id="Trazado_113963" data-name="Trazado 113963" d="M145.417,93.4s4.626-2.841,5.688-6.024c0,0,6.338-1.931,6.206-.153A40.075,40.075,0,0,1,154.484,99.4s-7.531-3.242-9.067-6" transform="translate(-53.636 -31.895)" fill="#303030"/>
            <path id="Trazado_113964" data-name="Trazado 113964" d="M98.285,76.1c3.421-8.114.319-9.221.319-9.221,1.572-2.218,5.453-3.625,9.7-4.157l.235-1.187a20.547,20.547,0,0,0,7.712,0l.294,1.277v0c3.025.493,5.516,1.534,6.575,3.159,3,4.6,4.457,40.679,4.457,40.679-15.347,4.008-31.623,1.717-31.623,1.717Z" transform="translate(-35.393 -22.696)" fill="#48548b"/>
            <path id="Trazado_113965" data-name="Trazado 113965" d="M126.392,84.185l.551,4.943s-11.721,3.927-28.006,1.525v-2.92s18.126,0,27.455-3.548" transform="translate(-36.492 -31.051)" fill="#fedc72"/>
            <path id="Trazado_113966" data-name="Trazado 113966" d="M126.269,79.4s-18.58,4.254-26.788,4.086l.1-1.431S117.09,80.668,126,77.678Z" transform="translate(-36.693 -28.651)" fill="#fedc72"/>
            <path id="Trazado_113967" data-name="Trazado 113967" d="M122.288,62.09s3.283,36.94,2.26,46.814l1.393-.152S126.1,80.088,123.6,62.02Z" transform="translate(-45.105 -22.876)" fill="#393f6d"/>
            <path id="Trazado_113968" data-name="Trazado 113968" d="M127.475,75.874a.952.952,0,1,1,.953.953.953.953,0,0,1-.953-.953" transform="translate(-47.018 -27.634)" fill="#393f6d" fill-rule="evenodd"/>
            <path id="Trazado_113969" data-name="Trazado 113969" d="M128.557,84.392a.952.952,0,1,1,.952.952.953.953,0,0,1-.952-.952" transform="translate(-47.417 -30.775)" fill="#393f6d" fill-rule="evenodd"/>
            <path id="Trazado_113970" data-name="Trazado 113970" d="M129.616,97.494a.952.952,0,1,1,.952.952.952.952,0,0,1-.952-.952" transform="translate(-47.808 -35.609)" fill="#393f6d" fill-rule="evenodd"/>
            <path id="Trazado_113971" data-name="Trazado 113971" d="M130.066,108.879a.952.952,0,1,1,.952.952.953.953,0,0,1-.952-.952" transform="translate(-47.974 -39.808)" fill="#393f6d" fill-rule="evenodd"/>
            <path id="Trazado_113972" data-name="Trazado 113972" d="M130.242,119.687a.952.952,0,1,1,.952.952.952.952,0,0,1-.952-.952" transform="translate(-48.039 -43.794)" fill="#393f6d" fill-rule="evenodd"/>
            <path id="Trazado_113973" data-name="Trazado 113973" d="M83.683,109.63c1.058,1.293,20.254,11.457,20.254,11.457s3.314-4.991,3.148-5.839S88.173,102.053,87.82,101.862s-6.144,5.316-4.137,7.768" transform="translate(-30.71 -37.569)" fill="#474f7c"/>
            <path id="Trazado_113974" data-name="Trazado 113974" d="M104.718,112.927s-3.592,4.518-4.045,6.945l-1.83-1s1.929-5.107,4.089-7.155Z" transform="translate(-36.457 -41.205)" fill="#fedc72"/>
            <path id="Trazado_113975" data-name="Trazado 113975" d="M96.723,66.008c-8.636.48-15.417,30.249-13.068,30.4,1.085.069,7.591-1.834,8.375-3.485s11.425-27.288,4.693-26.913" transform="translate(-30.682 -24.345)" fill="#474f7c"/>
            <path id="Trazado_113976" data-name="Trazado 113976" d="M99.368,85.526a20.871,20.871,0,0,1-9.034-3.114L89.7,83.969s4.348,3.254,9.276,2.832Z" transform="translate(-33.085 -30.397)" fill="#fedc72"/>
            <path id="Trazado_113977" data-name="Trazado 113977" d="M97.663,90.6,97.1,92.251s-6.02-.095-9.416-2.665l.543-1.594s4.759,3.141,9.439,2.605" transform="translate(-32.34 -32.455)" fill="#fedc72"/>
            <path id="Trazado_113978" data-name="Trazado 113978" d="M142.24,78.968l-26.872,47.869a4.479,4.479,0,0,0,5.128,1.914l.108-.033,24.582-48.789s.457-3.189-2.946-.96" transform="translate(-42.552 -28.835)" fill="#7b5a43" fill-rule="evenodd"/>
            <path id="Trazado_113979" data-name="Trazado 113979" d="M157.981,69.253l-2.234,4.784c1.555-.41,3.675,1.538,3.675,1.538,1.637.476,5.365,5.915,7.511,9.225.954,1.476,1.595,2.532,1.595,2.532a20.692,20.692,0,0,0,9.928-12.964,31.076,31.076,0,0,0-2.86-1.835c-9.2-5.265-22.51-7.724-22.51-7.724l-1.1,1.814Z" transform="translate(-56.06 -23.904)" fill="#ff5451" fill-rule="evenodd"/>
            <path id="Trazado_113980" data-name="Trazado 113980" d="M163.339,78.277l2.68-6.142L162.611,77.7Z" transform="translate(-59.977 -26.606)" fill="#f13a3b" fill-rule="evenodd"/>
            <path id="Trazado_113981" data-name="Trazado 113981" d="M160.924,70l1.509-2.944-.852-.226-1.612,2.751Z" transform="translate(-59.003 -24.648)" fill="#f13a3b" fill-rule="evenodd"/>
            <path id="Trazado_113982" data-name="Trazado 113982" d="M175.664,89.314c.954,1.476,1.595,2.532,1.595,2.532a20.689,20.689,0,0,0,9.928-12.964,31.2,31.2,0,0,0-2.859-1.835,23.353,23.353,0,0,1-8.664,12.268" transform="translate(-64.792 -28.418)" fill="#cddee7" fill-rule="evenodd"/>
            <path id="Trazado_113983" data-name="Trazado 113983" d="M122.152,54.682a7.761,7.761,0,0,1-3.868-1.017.3.3,0,0,1,.326-.515,7.323,7.323,0,0,0,5,.773.3.3,0,1,1,.126.6,7.684,7.684,0,0,1-1.584.165" transform="translate(-43.576 -19.587)" fill="#f6ae94"/>
            <path id="Trazado_113984" data-name="Trazado 113984" d="M104.866,124.486c1.978,1.674,7.194,2.715,13.129,1.6,1.664.826,5.3,3.233,6.717,1.6a.393.393,0,0,0,0-.47q-.083-.111-.163-.22a1.29,1.29,0,0,0,.844-1.61,1.351,1.351,0,0,0,.834-1.939,1.953,1.953,0,0,0,1.352-.855c.142-.3-.414-1.193-.646-1.324-1.522-.856-2.251-.871-3.784-1.707l-.01,0c.415-.437,1.306-1.488,1.675-1.986a.392.392,0,0,0-.164-.6c-1.239-.413-2.355.918-3.161,1.755-1.559,1.619-1.129.163-3.088,1.211-1.616-1.037-5.175-3.242-9.817-5.769-2.283,2.879-4.81,9.543-3.718,10.311" transform="translate(-38.582 -42.112)" fill="#303030" fill-rule="evenodd"/>
            <path id="Trazado_113985" data-name="Trazado 113985" d="M160.606,88.7a.223.223,0,0,0-.115-.135.921.921,0,0,0,.621-.452c.114-.306-.121-.6-.3-.819a.226.226,0,0,0-.028-.026c.6-.116,1.152-.379,1.217-.925.063-.518-.336-.789-.848-.943a2.779,2.779,0,0,0,.594-.234.91.91,0,0,0-.148-1.6,6.518,6.518,0,0,0-2.022-.093,2.834,2.834,0,0,0-1.32.323c-.6.454.069,1.022.559,1.332-.583-.039-1.139.074-1.093.8a1.311,1.311,0,0,0,.655,1.063,1.714,1.714,0,0,0-.765.257c-.551.379-.045,1,.357,1.262a1.989,1.989,0,0,0,.612.258.341.341,0,0,0-.1.1c-.22.349.206.793.483.957a1.072,1.072,0,0,0,1.639-1.127" transform="translate(-58.045 -30.776)" fill="#303030"/>
            <path id="Trazado_113986" data-name="Trazado 113986" d="M126.616,84.744a2.294,2.294,0,0,0-.383-1.152,2.35,2.35,0,0,0-2.353-.971c-.018-.063-.037-.125-.055-.191a12.56,12.56,0,0,1-.194-1.714,1.989,1.989,0,0,0,.666-2.284,3.236,3.236,0,0,0-2.675-2.179,1.083,1.083,0,0,0-.949-.637c-.033,0-.062,0-.093,0a.752.752,0,0,0-1.043.092l-.036.041a2.258,2.258,0,0,0-.846-.092,1.753,1.753,0,0,0-.491.116,3.223,3.223,0,0,0-1.541-1.129l-.045-.048a.86.86,0,0,0-1.192,0,1.688,1.688,0,0,0-.436.649,1.2,1.2,0,0,0-.174.593,1.452,1.452,0,0,0-.531-.014,1.362,1.362,0,0,0-.815.448,1.529,1.529,0,0,0-.454.376,3.148,3.148,0,0,0-3.437,1.426,2.1,2.1,0,0,0-.186,1.288,2.714,2.714,0,0,0-1.914,2.665,1.809,1.809,0,0,0,.92,1.457,2.142,2.142,0,0,0,.608,2.208,2.116,2.116,0,0,0,1.765.525,2.648,2.648,0,0,0,3.572,1.928,2.956,2.956,0,0,0,5.266-.53,2.216,2.216,0,0,0,1.336-.637,2.486,2.486,0,0,0,.514,2.04,2.137,2.137,0,0,0,2.766.192,2.792,2.792,0,0,0,.875-.817,2.568,2.568,0,0,0,.737-.215,2.229,2.229,0,0,0,.82-3.435" transform="translate(-39.624 -27.426)" fill="#e5f0fa"/>
            <path id="Trazado_113987" data-name="Trazado 113987" d="M134.733,76.29c-.8-1.715-2.69-2.289-3.986-.713-.013.016-.023.034-.035.05a3.219,3.219,0,0,0-3.268-.593,2.4,2.4,0,0,0-1.472,2.138,2.36,2.36,0,0,0,.315,1.251c.013.02.089.107.186.213a1.586,1.586,0,0,0,.172.406,3.588,3.588,0,1,0,6.518,2.862,3.315,3.315,0,0,0,.121-.982,2.047,2.047,0,0,0,.256-.175,3.759,3.759,0,0,0,1.194-4.457" transform="translate(-46.463 -27.535)" fill="#e5f0fa"/>
            <path id="Trazado_113988" data-name="Trazado 113988" d="M45.965,94.194c3.392.232,17.5-.607,17.5-.607a65.392,65.392,0,0,1-.276,7.133s-16.734,1.437-18.812.947c-7.054-1.667-1.809-7.706,1.584-7.474" transform="translate(-15.08 -34.519)" fill="#ff4545" fill-rule="evenodd"/>
            <path id="Trazado_113989" data-name="Trazado 113989" d="M68.144,93.923s.4,4.416-.665,7.268l-2.8.206a40.472,40.472,0,0,0,.67-7.336,10.581,10.581,0,0,1,2.794-.138" transform="translate(-23.857 -34.63)" fill="#fdda66" fill-rule="evenodd"/>
            <path id="Trazado_113990" data-name="Trazado 113990" d="M62.085,94.278s-.1,5.53-.749,7.378l-1.105.138.687-7.467Z" transform="translate(-22.216 -34.774)" fill="#fdda66" fill-rule="evenodd"/>
            <path id="Trazado_113991" data-name="Trazado 113991" d="M58.924,224.237c-3.508-.086-8.969-.539-13.305-.95l-.109-.012c-1.959-.181-3.683-.357-4.876-.484l-.066-4.094a22.6,22.6,0,0,0,7.385-.956,89.454,89.454,0,0,0,8.8,4.2,4.267,4.267,0,0,1,2.176,2.3" transform="translate(-14.963 -80.312)" fill="#393f6d"/>
            <path id="Trazado_113992" data-name="Trazado 113992" d="M45.548,226.226l.109.013c4.335.411,9.8.864,13.305.949a1.893,1.893,0,0,1,.088.952.213.213,0,0,1-.2.183c-4.052.253-12.368-.2-16.172-.432a15.5,15.5,0,0,1-1.626-.085.405.405,0,0,1-.36-.4l-.025-1.667c1.192.128,2.917.3,4.876.484" transform="translate(-15.002 -83.263)" fill="#272d4c"/>
            <path id="Trazado_113993" data-name="Trazado 113993" d="M26.942,221.665c-3.392-.9-8.6-2.608-12.721-4.017l-.1-.037c-1.864-.632-3.5-1.2-4.628-1.6l.887-4a22.588,22.588,0,0,0,7.4.788,89.553,89.553,0,0,0,7.578,6.13,4.263,4.263,0,0,1,1.584,2.737" transform="translate(-3.5 -78.198)" fill="#393f6d"/>
            <path id="Trazado_113994" data-name="Trazado 113994" d="M13.9,219.949l.1.037c4.122,1.409,9.329,3.12,12.721,4.017a1.9,1.9,0,0,1-.135.947.214.214,0,0,1-.233.133c-4-.7-11.984-3.067-15.628-4.18a15.709,15.709,0,0,1-1.561-.461.4.4,0,0,1-.258-.471l.364-1.625c1.129.4,2.764.971,4.628,1.6" transform="translate(-3.282 -80.535)" fill="#272d4c"/>
            <path id="Trazado_113995" data-name="Trazado 113995" d="M40.862,91.852c-2.379-1.975-3.355-5.639-5.238-10.391-2.6-6.556-2.083-5.515-1.351-8.44a3.511,3.511,0,0,1,5.824-1.7c2.527,2.465,2.917,1.789,3.279,4.958.366,3.2,2.622,8.87,3.671,11.948,1.316,3.858-2.366,6.8-6.185,3.627" transform="translate(-12.422 -25.947)" fill="#ff4545" fill-rule="evenodd"/>
            <path id="Trazado_113996" data-name="Trazado 113996" d="M8.728,35.353s-3.271,1.5-1.982,2.752,30.628-1.135,33.113-5.819c0,0-16.04-1.527-31.131,3.067" transform="translate(-2.377 -11.818)" fill="#913333" fill-rule="evenodd"/>
            <path id="Trazado_113997" data-name="Trazado 113997" d="M46.836,117.287s.828,28.23.918,32.9c.09,4.613-.09,18.975-.268,28.564-3.386,2.308-9.854.829-9.854.829s.446-25.021.629-28.185c.227-3.948-3.771-34.748-3.3-36.653s10.98-8.638,11.873,2.547" transform="translate(-12.881 -40.937)" fill="#ec4c4c"/>
            <path id="Trazado_113998" data-name="Trazado 113998" d="M30.68,120.73a18.8,18.8,0,0,0-2.417,1.217c-.523.4-2.639,22.859-3.21,27.881-.364,3.2-3.728,22.652-5.478,25.7A12.222,12.222,0,0,1,9.49,174.232s4.06-23.923,4.711-26.5c.985-3.895-3.027-30.645.06-36.419s15.408-1.645,16,.465.421,8.948.421,8.948" transform="translate(-3.5 -39.972)" fill="#ec4c4c"/>
            <path id="Trazado_113999" data-name="Trazado 113999" d="M29.753,61.917,29.1,65.606s2.075,2.968,4.683,2.968,2.27-3.023,2.27-3.023l-.564-3.634Z" transform="translate(-10.733 -22.838)" fill="#f0c5ad"/>
            <path id="Trazado_114000" data-name="Trazado 114000" d="M34.439,44.224c.076-2.21,1.575-2.41,2.421-3.31,2.1-2.237,1.668-5.051,1.341-7.864-.867-1.881-1.988-3.764-2.326-5.77a7.165,7.165,0,0,0-.717-2.892c-.964-1.43-3.008-1.426-4.718-1.645a11.87,11.87,0,0,1-5.218-2.008l-.011.369a39.986,39.986,0,0,0-6.036.079c-1.732.154-1.76,1.039-2.4,2.655-.625,1.577-.335,3.14-1.7,4.152-.406.3-2.309.666-2.74.93-1.434.875-1.223,3.051-.468,4.552A3.331,3.331,0,0,1,12.385,35c-.009.3-1.647,4.469-.184,5.709,1.064.9,2.4.762,3.073,2.166.8,1.692-.659,3.863,1.76,4.4,2.127.469,4.307-.6,6.467-.182a5.5,5.5,0,0,1,1.707.7,7.732,7.732,0,0,1-1.328-1.654,1.116,1.116,0,0,1,1.926-1.125,5.625,5.625,0,0,0,3.9,2.747c1.984.328,4.669-1.61,4.736-3.534" transform="translate(-4.159 -7.648)" fill="#fd7f41"/>
            <path id="Trazado_114001" data-name="Trazado 114001" d="M19.673,35.8s-.227,14.287,8.474,15.742c8.819,1.476,11.962-11.532,11.411-16.627S23.235,23.676,19.673,35.8" transform="translate(-7.256 -10.606)" fill="#f9d1ba" fill-rule="evenodd"/>
            <path id="Trazado_114002" data-name="Trazado 114002" d="M20.5,45.079s-3.952-1.674-3.072,2.226c.605,2.684,2.722,2.363,3.822.555a1.912,1.912,0,0,0-.75-2.782" transform="translate(-6.38 -16.495)" fill="#f9d1ba" fill-rule="evenodd"/>
            <path id="Trazado_114003" data-name="Trazado 114003" d="M35.3,90.582a22.188,22.188,0,0,1,.213-4.74,18.434,18.434,0,0,1,1.17-3.159.187.187,0,0,1,.03-.048,13.447,13.447,0,0,0,1.281-5.544,13.718,13.718,0,0,0-3.871-9.113c-.2-.222-.41-.427-.617-.632-.677-.114-1.873-.289-2.814-.425l-.3-1.668s-6.065.891-8.653-.215V66.99c-3.521.9-6.792,1.722-6.792,1.722,3.87,4.234-.344,10.749-.344,10.749,2.278,4.157,1.368,7.448,1.077,10.171-.134,1.269-4.2,11.555-4.4,12.606,5.494,1.442,22.58,2.075,28.869-.913-.48-1.714-4.59-8.245-4.85-10.742" transform="translate(-4.159 -23.989)" fill="#ff5451" fill-rule="evenodd"/>
            <path id="Trazado_114004" data-name="Trazado 114004" d="M29.935,29.233a7.917,7.917,0,0,0,5.09,3.344c3.267.456.684,3.5,2.583,4.331s3.191,1.215,2.887,2.659-1.063,7.826,3.116,5.547c0,0-2.051-.533-1.748-1.6a13.846,13.846,0,0,1,3.116-5.092c1.671-1.669.151-5.014-2.432-6.837s-22.489-6.914-23.553-6-2.128,4.635-1.519,6.838,1.532,5.2,1.532,5.2,4.091-7.027,10.929-8.4" transform="translate(-6.38 -9.398)" fill="#fd7f41" fill-rule="evenodd"/>
            <path id="Trazado_114005" data-name="Trazado 114005" d="M40.793,44.1a1.18,1.18,0,1,0,1.078-1.414A1.264,1.264,0,0,0,40.793,44.1" transform="translate(-15.045 -15.743)" fill="#1c1a21"/>
            <path id="Trazado_114006" data-name="Trazado 114006" d="M28.6,44.406a1.18,1.18,0,1,0,1.078-1.414A1.264,1.264,0,0,0,28.6,44.406" transform="translate(-10.546 -15.856)" fill="#1c1a21"/>
            <path id="Trazado_114007" data-name="Trazado 114007" d="M34.484,57.162A5.945,5.945,0,0,0,38,56a.3.3,0,0,0-.389-.468,5.256,5.256,0,0,1-5.767.331.3.3,0,0,0-.284.539,6.207,6.207,0,0,0,2.926.759" transform="translate(-11.58 -20.457)" fill="#f6ae94"/>
            <path id="Trazado_114008" data-name="Trazado 114008" d="M26.661,40.35c.382,0,.663-.011.932-.027s.5-.048.735-.081.466-.088.726-.145a6.44,6.44,0,0,0,.9-.288,1.768,1.768,0,0,0-1.816-.769,1.945,1.945,0,0,0-.935.412,1.458,1.458,0,0,0-.542.9" transform="translate(-9.834 -14.391)" fill="#fd7f41"/>
            <path id="Trazado_114009" data-name="Trazado 114009" d="M42.98,39.376a1.456,1.456,0,0,0-.542-.9,1.943,1.943,0,0,0-.935-.413,1.766,1.766,0,0,0-1.816.77,6.456,6.456,0,0,0,.9.288c.259.056.491.114.725.145s.471.062.735.081.552.03.933.027" transform="translate(-14.638 -14.032)" fill="#fd7f41"/>
            <path id="Trazado_114010" data-name="Trazado 114010" d="M37.395,51.113a1.844,1.844,0,0,0,1.168-.328.858.858,0,0,0,.295-.665A2.415,2.415,0,0,0,37.45,48.1a.3.3,0,1,0-.253.553,1.839,1.839,0,0,1,1.052,1.466.248.248,0,0,1-.086.206,1.785,1.785,0,0,1-1.117.157.307.307,0,0,0-.344.259.3.3,0,0,0,.261.343,3.179,3.179,0,0,0,.433.028" transform="translate(-13.536 -17.731)" fill="#f6ae94"/>
            <path id="Trazado_114011" data-name="Trazado 114011" d="M39.851,21.818S36.38,7.349,25.826,8.655,15.284,23.862,15.284,23.862s23.429-.894,24.567-2.044" transform="translate(-5.637 -3.162)" fill="#ff5451" fill-rule="evenodd"/>
            <path id="Trazado_114012" data-name="Trazado 114012" d="M42.942,11.559a37.818,37.818,0,0,1,2.345,12.73L46,24.171s.425-9.35-2.221-12.236Z" transform="translate(-15.839 -4.263)" fill="#f44" fill-rule="evenodd"/>
            <path id="Trazado_114013" data-name="Trazado 114013" d="M38.234,22.466S39.1,14.2,35.715,9.542a5.286,5.286,0,0,0-3.278-1.9c-2.4-.53-6.652-.281-8.174,2.462,0,0,7.218,7.9,6.978,12.705,0,0,2.443-1.3,6.993-.345" transform="translate(-8.949 -2.736)" fill="#ff7171" fill-rule="evenodd"/>
            <path id="Trazado_114014" data-name="Trazado 114014" d="M15.284,30.937s15.936-1.319,24.567-2.044l-.223-.7s-5.439-1.848-24.269,2.02Z" transform="translate(-5.637 -10.236)" fill="#f44" fill-rule="evenodd"/>
            <path id="Trazado_114015" data-name="Trazado 114015" d="M21.234,15.067a11.234,11.234,0,0,0-3.567,6.615s2.455-4.6,4.527-5.175c0,0-.191-1.5-.959-1.44" transform="translate(-6.516 -5.557)" fill="#ffacac" fill-rule="evenodd"/>
            <path id="Trazado_114016" data-name="Trazado 114016" d="M34.714,18.957c.1,1.806,1.3,3.206,2.688,3.13s2.427-1.6,2.326-3.406-1.3-3.206-2.687-3.129-2.427,1.6-2.327,3.405" transform="translate(-12.802 -5.735)" fill="#fdda66" fill-rule="evenodd"/>
            <path id="Trazado_114017" data-name="Trazado 114017" d="M38.749,15.085a9.235,9.235,0,0,0-1.333-2.061c-.588-.526-.266,2.556-.266,2.556Z" transform="translate(-13.67 -4.782)" fill="#fdda66" fill-rule="evenodd"/>
            <path id="Trazado_114018" data-name="Trazado 114018" d="M23.815,11.676s6.685,7.408,6.9,11.342l-1.6.088s.361-3.543-6.074-10.809Z" transform="translate(-8.501 -4.307)" fill="#f44" fill-rule="evenodd"/>
            <path id="Trazado_114019" data-name="Trazado 114019" d="M11.77,31.461s17.88-3.183,24.567-2.044c2.671.89,5.326,1.594,2.111,2.912,0,0,1.633-.978-.109-1.163a119.024,119.024,0,0,0-27.83,2.679c-4.255.87-4.017,3.2-4.017,3.2-3.238-1.828,5.278-5.586,5.278-5.586" transform="translate(-2.124 -10.759)" fill="#ff5451" fill-rule="evenodd"/>
            <path id="Trazado_114020" data-name="Trazado 114020" d="M11.031,202.245a28.9,28.9,0,0,0,10.592,2.389l.511-2.15s-7.943-1.479-10.675-2.731Z" transform="translate(-4.069 -73.677)" fill="#ffe37d"/>
            <path id="Trazado_114021" data-name="Trazado 114021" d="M12.038,197.016l10.79,2.477.265-1.238-10.806-2.681Z" transform="translate(-4.44 -72.136)" fill="#ffe37d"/>
            <path id="Trazado_114022" data-name="Trazado 114022" d="M39.37,209.8s6.163,1.064,9.844-.536l.027-1.782s-8.389.732-9.826,0Z" transform="translate(-14.521 -76.529)" fill="#ffe37d"/>
            <path id="Trazado_114023" data-name="Trazado 114023" d="M39.444,204.2H49.3l-.064-1.369-9.87.5Z" transform="translate(-14.521 -74.812)" fill="#ffe37d"/>
            <path id="Trazado_114024" data-name="Trazado 114024" d="M39.133,75.075s-6.122,3.7-20,2.631l-.783,2.816s17.243.605,21.793-2.9a17.309,17.309,0,0,0-1.014-2.551" transform="translate(-6.77 -27.691)" fill="#fdda66" fill-rule="evenodd"/>
            <path id="Trazado_114025" data-name="Trazado 114025" d="M40.071,81.432s-7.649,3.108-22.108,2.4L17.3,85.5s19.736-.441,22.86-3.391Z" transform="translate(-6.379 -30.035)" fill="#fdda66" fill-rule="evenodd"/>
            <path id="Trazado_114026" data-name="Trazado 114026" d="M34.955,75.5a1.141,1.141,0,1,1,1.454.7,1.142,1.142,0,0,1-1.454-.7" transform="translate(-12.869 -27.286)" fill="#ec4c4c"/>
            <path id="Trazado_114027" data-name="Trazado 114027" d="M36.763,90.608a1.142,1.142,0,1,1,1.455.7,1.142,1.142,0,0,1-1.455-.7" transform="translate(-13.536 -32.86)" fill="#ec4c4c"/>
            <path id="Trazado_114028" data-name="Trazado 114028" d="M36.087,101.707a1.141,1.141,0,1,1,1.454.7,1.141,1.141,0,0,1-1.454-.7" transform="translate(-13.287 -36.954)" fill="#ec4c4c"/>
            <path id="Trazado_114029" data-name="Trazado 114029" d="M36.763,113.877a1.142,1.142,0,1,1,1.455.7,1.142,1.142,0,0,1-1.455-.7" transform="translate(-13.536 -41.442)" fill="#ec4c4c"/>
            <path id="Trazado_114030" data-name="Trazado 114030" d="M.217,96.085C-.619,93.108,1.149,89.676,2.3,84.7,3.882,77.824,6.264,73.8,8.526,71.809a3.512,3.512,0,0,1,5.761,1.906c.681,3.464-1.164,8.3-2.665,11.114-1.517,2.844-2.877,8.79-3.761,11.921-1.107,3.923-6.3,4.115-7.644-.665" transform="translate(0 -26.162)" fill="#ff4545" fill-rule="evenodd"/>
            <path id="Trazado_114031" data-name="Trazado 114031" d="M38.742,65.647a8.12,8.12,0,0,0,0,2.366c.216.811,5.169,10,3.708,17.147S43.963,103.1,43.963,103.1l-1.809.218s-2.707-10.028-1.341-17.828-2.912-17.2-2.912-17.2V65.72Z" transform="translate(-13.979 -24.213)" fill="#ff4545"/>
            <path id="Trazado_114032" data-name="Trazado 114032" d="M7.056,105.183c3.141,1.3,13.143,3.475,13.143,3.475s-.562,5.382-1.685,7.651c0,0-13.532-3.42-15.344-4.549-6.154-3.831.746-7.88,3.887-6.577" transform="translate(-0.258 -38.704)" fill="#ff4545" fill-rule="evenodd"/>
            <path id="Trazado_114033" data-name="Trazado 114033" d="M23.77,109.145s-.083,4.869-1.148,7.665l-2.43-.644s1.638-5.959.955-7.7Z" transform="translate(-7.448 -40.008)" fill="#fdda66" fill-rule="evenodd"/>
            <path id="Trazado_114034" data-name="Trazado 114034" d="M17.085,115.444s1.719-4.6,1.422-7.55l-1.279-.323s-1.133,6.651-1.532,7.494Z" transform="translate(-5.789 -39.677)" fill="#fdda66" fill-rule="evenodd"/>
            <path id="Trazado_114035" data-name="Trazado 114035" d="M72.568,89.745s4.512,2.1,7.484,1.306l2.965-1.681,2.523-.555,2.075,4.269s-2.882,1.838-4.308,2.636a36.745,36.745,0,0,1-10.745,3.993s-1.327-7.4.006-9.969" transform="translate(-26.547 -32.759)" fill="#303030"/>
            <path id="Trazado_114036" data-name="Trazado 114036" d="M68.137,124.449l-2.884.516a1.092,1.092,0,0,1-1.268-.883l-1.295-7.228a1.093,1.093,0,0,1,.883-1.268l2.884-.516a1.092,1.092,0,0,1,1.267.882l1.3,7.229a1.093,1.093,0,0,1-.883,1.268" transform="translate(-23.116 -42.436)" fill="#4c4c4c" fill-rule="evenodd"/>
            <path id="Trazado_114037" data-name="Trazado 114037" d="M71.236,109.323a11.43,11.43,0,0,0,6.026-1.875c3.014-1.854,2.789-5.748,2.609-8.878-.1-1.71-.211-3.65.351-4.265.061-.064.221-.24.752-.256L80.9,91.818a3.158,3.158,0,0,0-2.329.981c-1.2,1.31-1.07,3.54-.933,5.9.162,2.8.328,5.694-1.549,6.848-4.757,2.925-7.845.795-7.876.773l-1.3,1.818a7.812,7.812,0,0,0,4.316,1.185" transform="translate(-24.683 -33.866)" fill="#9cb8d8"/>
            <path id="Trazado_114038" data-name="Trazado 114038" d="M54.824,113.28s-13.348,1.021-17.843,5.428a2.55,2.55,0,0,0,3.164,3.95c2.924-1.81,11.346-5.865,14.351-5.169Z" transform="translate(-13.37 -41.782)" fill="#626264" fill-rule="evenodd"/>
            <path id="Trazado_114039" data-name="Trazado 114039" d="M74.52,150.824l-9.273,1.662a1.4,1.4,0,0,1-1.63-1.135l-4.073-22.741a3.521,3.521,0,0,1,2.844-4.085l5.108-.915a3.52,3.52,0,0,1,4.086,2.845L75.654,149.2a1.4,1.4,0,0,1-1.135,1.629" transform="translate(-21.942 -45.572)" fill="#ff5451" fill-rule="evenodd"/>
            <rect id="Rectángulo_33884" data-name="Rectángulo 33884" width="12.229" height="3.566" transform="matrix(0.984, -0.176, 0.176, 0.984, 38.306, 86.972)" fill="#ffe37d"/>
            <rect id="Rectángulo_33885" data-name="Rectángulo 33885" width="12.229" height="1.199" transform="translate(39.137 91.612) rotate(-10.154)" fill="#ffe37d"/>
            <rect id="Rectángulo_33886" data-name="Rectángulo 33886" width="12.23" height="1.2" transform="matrix(0.984, -0.176, 0.176, 0.984, 41.159, 102.898)" fill="#ffe37d"/>
            <path id="Trazado_114040" data-name="Trazado 114040" d="M87.1,86.687c2.6-3.439,15.326-7.885,15.326-7.885s4.729,4.34,2.584,10.549l-16.048.912a2.314,2.314,0,0,1-2.281-1.329,2.149,2.149,0,0,1,.419-2.246" transform="translate(-31.913 -29.065)" fill="#4c4c4c" fill-rule="evenodd"/>
            <path id="Trazado_114041" data-name="Trazado 114041" d="M61.96,115.693a3.043,3.043,0,1,1,3.779,2.061,3.044,3.044,0,0,1-3.779-2.061" transform="translate(-22.808 -41.233)" fill="#809bb6" fill-rule="evenodd"/>
            <path id="Trazado_114042" data-name="Trazado 114042" d="M27.282,117.806c.935.653,3.065-.018,4.061-.251a17.289,17.289,0,0,0,4.936-2.057c.781,1.513,1.917,4.588,3.846,4.152a.362.362,0,0,0,.256-.348c0-.085,0-.168,0-.251a1.184,1.184,0,0,0,1.5-.733,1.239,1.239,0,0,0,1.668-.98,4.293,4.293,0,0,0,1.546.365c.3.016.4-.321.3-.544q-.989-2.189-2.01-4.363l-.005-.008a13.526,13.526,0,0,0,1.609-.384.359.359,0,0,0,.2-.529c-.691-.977-1.532-.775-2.583-.593-2.03.35-3.973-.786-5.988-1.074-1.958-.28-6.876-1.345-8.8-1.459-1.577,1.725-.926,7.9-.535,9.057" transform="translate(-9.889 -40.111)" fill="#303030" fill-rule="evenodd"/>
            <path id="Trazado_114043" data-name="Trazado 114043" d="M91.409,94.93a.357.357,0,0,1,.246-.256.589.589,0,0,1,.692.186.389.389,0,0,1,.192-.151.541.541,0,0,1,.249-.03.849.849,0,0,1,1,.415c-.145-.4-.132-.857.374-.978a.932.932,0,0,1,.8.206.358.358,0,0,1,.244-.381c.043-.209.2-.357.569-.353a1.132,1.132,0,0,1,.626.2.3.3,0,0,1,.294.093c.38.4,1.235,1.486.709,2.059-.4.43-.92.136-1.34-.283a.62.62,0,0,1-.316.495,1.291,1.291,0,0,1-1.3-.234,1.723,1.723,0,0,1-1.664-.136.728.728,0,0,1-.513.274.932.932,0,0,1-.856-1.122" transform="translate(-33.71 -34.519)" fill="#303030" fill-rule="evenodd"/>
            <path id="Trazado_114044" data-name="Trazado 114044" d="M90.871,87.586c.2-.3.134-.661.537-.815a.666.666,0,0,1,.423-.015.5.5,0,0,1,.294.108,1.934,1.934,0,0,1,1.086,1.1.674.674,0,0,1-.1.749.662.662,0,0,1-.817.032,3.022,3.022,0,0,1-.711-.783c-.022-.03-.042-.062-.064-.092-.011.019-.015.041-.027.059-.251.38-.879.042-.625-.341" transform="translate(-33.495 -31.989)" fill="#303030" fill-rule="evenodd"/>
          </g>
        </g>
      </g>
    </g>
    <g id="Grupo_80927" data-name="Grupo 80927" transform="translate(641.546 2327.591) rotate(11)">
      <g id="Grupo_80827" data-name="Grupo 80827" clip-path="url(#clip-path-4)">
        <g id="Grupo_80826" data-name="Grupo 80826">
          <g id="Grupo_80825" data-name="Grupo 80825" clip-path="url(#clip-path-5)">
            <rect id="Rectángulo_34804" data-name="Rectángulo 34804" width="87.609" height="108.7" transform="translate(-8.653 -6.674)" fill="#fedc72"/>
          </g>
        </g>
      </g>
    </g>
    <g id="Grupo_80926" data-name="Grupo 80926" transform="matrix(0.966, -0.259, 0.259, 0.966, 945.915, 2386.845)" style="isolation: isolate">
      <g id="Grupo_80823" data-name="Grupo 80823" clip-path="url(#clip-path-6)">
        <g id="Grupo_80822" data-name="Grupo 80822" transform="translate(0 0.001)">
          <g id="Grupo_80821" data-name="Grupo 80821" clip-path="url(#clip-path-7)">
            <g id="Grupo_80820" data-name="Grupo 80820" transform="translate(0 -0.001)" style="mix-blend-mode: overlay;isolation: isolate">
              <g id="Grupo_80819" data-name="Grupo 80819" transform="translate(0 0)">
                <g id="Grupo_80818" data-name="Grupo 80818" clip-path="url(#clip-path-6)">
                  <path id="Trazado_115727" data-name="Trazado 115727" d="M15.376,6.366V3.594A3.6,3.6,0,0,0,11.78,0H9.962a3.6,3.6,0,0,0-3.6,3.594V6.366H3.594A3.6,3.6,0,0,0,0,9.962V11.78a3.6,3.6,0,0,0,3.594,3.6H6.366v2.772a3.6,3.6,0,0,0,3.6,3.594H11.78a3.6,3.6,0,0,0,3.6-3.594V15.376h2.772a3.6,3.6,0,0,0,3.594-3.6V9.962a3.6,3.6,0,0,0-3.594-3.6Z" transform="translate(0 0)" fill="#fff" fill-rule="evenodd"/>
                </g>
              </g>
            </g>
          </g>
        </g>
      </g>
    </g>
  </g>
</svg>
