<svg xmlns="http://www.w3.org/2000/svg" xmlns:xlink="http://www.w3.org/1999/xlink" width="298.17" height="161.089" viewBox="0 0 298.17 161.089">
  <defs>
    <clipPath id="clip-path">
      <rect id="Rectángulo_34816" data-name="Rectángulo 34816" width="95.467" height="95.026" fill="none"/>
    </clipPath>
    <clipPath id="clip-path-4">
      <rect id="Rectángulo_34813" data-name="Rectángulo 34813" width="58.648" height="58.377" fill="none"/>
    </clipPath>
    <clipPath id="clip-path-5">
      <rect id="Rectángulo_34814" data-name="Rectángulo 34814" width="27.061" height="26.936" fill="none"/>
    </clipPath>
    <clipPath id="clip-path-6">
      <rect id="Rectángulo_33897" data-name="Rectángulo 33897" width="215.978" height="135.595" fill="none"/>
    </clipPath>
  </defs>
  <g id="Grupo_81221" data-name="Grupo 81221" transform="translate(-1036.497 -2360.335)">
    <g id="Grupo_80924" data-name="Grupo 80924" transform="translate(1036.497 2360.335)" opacity="0.25" style="mix-blend-mode: multiply;isolation: isolate">
      <g id="Grupo_80857" data-name="Grupo 80857" clip-path="url(#clip-path)">
        <g id="Grupo_80856" data-name="Grupo 80856" transform="translate(0 0)">
          <g id="Grupo_80855" data-name="Grupo 80855" clip-path="url(#clip-path)">
            <g id="Grupo_80848" data-name="Grupo 80848" transform="translate(0 0)" opacity="0.17" style="isolation: isolate">
              <g id="Grupo_80847" data-name="Grupo 80847" transform="translate(0 0)">
                <g id="Grupo_80846" data-name="Grupo 80846" clip-path="url(#clip-path)">
                  <path id="Trazado_115734" data-name="Trazado 115734" d="M77.658,84.268a127.462,127.462,0,0,0,7.9-11.925c2.764-4.716,5.51-9.6,6.633-15,1.06-5.107,1.391-11.835-1.726-16.318C87.121,36.146,75.4,26.876,72.188,22.751c-2.607-3.347-7.6-11.532-9.122-17.283a5.753,5.753,0,0,0-4.845-4.209l-.11-.014a5.766,5.766,0,0,0-5.32,2.2c-1.664,2.185-5,5.1-11.333,6.2-6.346,1.182-14.986,1.947-16.761,2.418s-3.143,2.057-4.085,4.6-4.475,12.258-9.04,17.356A20.434,20.434,0,0,1,4.716,39.08,5.855,5.855,0,0,0,1.43,43.114c-.033.149-.065.3-.1.451a5.794,5.794,0,0,0,2.433,6.049c2.865,1.925,6.866,4.8,8.8,7.047,2.683,3.224,6.765,6.253,14.89,25.049.04.1.084.194.131.287,1.012,2.009,6.835,19.679,47.5,4.219A5.809,5.809,0,0,0,77.658,84.268Z" transform="translate(0.663 0.663)" fill="none" stroke="#5038a1" stroke-miterlimit="10" stroke-width="2.396"/>
                </g>
              </g>
            </g>
            <g id="Grupo_80851" data-name="Grupo 80851" transform="translate(19.392 19.262)" opacity="0.17" style="isolation: isolate">
              <g id="Grupo_80850" data-name="Grupo 80850">
                <g id="Grupo_80849" data-name="Grupo 80849" clip-path="url(#clip-path-4)">
                  <path id="Trazado_115735" data-name="Trazado 115735" d="M60.189,64.165a78.684,78.684,0,0,0,4.856-7.326,31.135,31.135,0,0,0,4.074-9.217c.651-3.137.855-7.27-1.061-10.024C66,34.6,58.8,28.907,56.828,26.373c-1.6-2.056-4.671-7.085-5.6-10.617a3.536,3.536,0,0,0-2.977-2.586l-.067-.009a3.544,3.544,0,0,0-3.269,1.353,10.638,10.638,0,0,1-6.963,3.805c-3.9.726-9.206,1.2-10.3,1.485s-1.931,1.265-2.509,2.826-2.75,7.531-5.553,10.662A12.552,12.552,0,0,1,15.378,36.4a3.6,3.6,0,0,0-2.018,2.478c-.02.092-.04.183-.061.277a3.559,3.559,0,0,0,1.495,3.717A31.252,31.252,0,0,1,20.2,47.2c1.649,1.983,4.156,3.841,9.147,15.389.025.059.051.12.081.177.62,1.234,4.2,12.09,29.177,2.592A3.566,3.566,0,0,0,60.189,64.165Z" transform="translate(-12.073 -11.989)" fill="none" stroke="#5038a1" stroke-miterlimit="10" stroke-width="1.472"/>
                </g>
              </g>
            </g>
            <g id="Grupo_80854" data-name="Grupo 80854" transform="translate(36.029 35.787)" opacity="0.17" style="isolation: isolate">
              <g id="Grupo_80853" data-name="Grupo 80853">
                <g id="Grupo_80852" data-name="Grupo 80852" clip-path="url(#clip-path-5)">
                  <path id="Trazado_115736" data-name="Trazado 115736" d="M45.2,46.919a36.282,36.282,0,0,0,2.241-3.381,14.383,14.383,0,0,0,1.88-4.251c.3-1.448.393-3.356-.489-4.626-.949-1.383-4.271-4.01-5.182-5.179a17.389,17.389,0,0,1-2.586-4.9,1.63,1.63,0,0,0-1.374-1.193l-.031,0a1.635,1.635,0,0,0-1.507.625,4.911,4.911,0,0,1-3.213,1.756c-1.8.336-4.248.552-4.752.685a1.874,1.874,0,0,0-1.158,1.3,17.5,17.5,0,0,1-2.562,4.921,5.789,5.789,0,0,1-1.944,1.436,1.656,1.656,0,0,0-.931,1.142l-.028.127a1.641,1.641,0,0,0,.69,1.715,14.462,14.462,0,0,1,2.492,2c.761.915,1.919,1.773,4.222,7.1a.786.786,0,0,0,.037.082c.286.569,1.936,5.578,13.462,1.195A1.641,1.641,0,0,0,45.2,46.919Z" transform="translate(-23 -22.843)" fill="none" stroke="#5038a1" stroke-miterlimit="10" stroke-width="0.679"/>
                </g>
              </g>
            </g>
          </g>
        </g>
      </g>
    </g>
    <g id="Grupo_80412" data-name="Grupo 80412" transform="translate(1105 2374.856)">
      <g id="Grupo_80413" data-name="Grupo 80413" transform="translate(0 0)" clip-path="url(#clip-path-6)">
        <path id="Trazado_114077" data-name="Trazado 114077" d="M67.255,49.343h65.173a4.663,4.663,0,0,1,1.439.232h0l.1.041c.1.035.2.072.3.114l4.071,1.574-1.467,1.519a4.545,4.545,0,0,1,.141,1.1V97.485a4.583,4.583,0,0,1-4.583,4.583H69.521l.412,1.373L65.7,101.8v0a4.579,4.579,0,0,1-3.031-4.309V53.924a4.581,4.581,0,0,1,4.583-4.581" transform="translate(29.239 23.021)" fill="#91cecc"/>
        <path id="Trazado_114078" data-name="Trazado 114078" d="M70.128,103.183H135.3a4.581,4.581,0,0,0,4.581-4.583V55.039a4.581,4.581,0,0,0-4.581-4.581H70.128a4.58,4.58,0,0,0-4.581,4.581V98.6a4.581,4.581,0,0,0,4.581,4.583" transform="translate(30.58 23.541)" fill="#bbf1f1"/>
        <path id="Trazado_114079" data-name="Trazado 114079" d="M65.547,74.593s13.527,7.034,37.169,7.183,37.168-7.183,37.168-7.183V55.039a4.581,4.581,0,0,0-4.581-4.581H70.128a4.58,4.58,0,0,0-4.581,4.581Z" transform="translate(30.58 23.541)" fill="#a7dddc"/>
        <path id="Trazado_114080" data-name="Trazado 114080" d="M82.265,52.074h2.893V49.207a1.811,1.811,0,0,1,1.813-1.81H99.888a1.813,1.813,0,0,1,1.814,1.81v2.867H104.6V49.207a4.711,4.711,0,0,0-4.708-4.7H86.971a4.71,4.71,0,0,0-4.706,4.7Z" transform="translate(38.38 20.762)" fill="#91cecc"/>
        <path id="Trazado_114081" data-name="Trazado 114081" d="M108.058,72.563A13.025,13.025,0,1,0,95.034,85.588a13.028,13.028,0,0,0,13.024-13.024" transform="translate(38.26 27.778)" fill="#df5a57"/>
        <path id="Trazado_114082" data-name="Trazado 114082" d="M99.238,69.1H95.086V64.948a1.758,1.758,0,0,0-3.517,0V69.1h-4.15a1.757,1.757,0,0,0,0,3.514h4.15V76.77a1.758,1.758,0,0,0,3.517,0V72.617h4.152a1.757,1.757,0,1,0,0-3.514" transform="translate(39.965 29.482)" fill="#fff"/>
        <path id="Trazado_114083" data-name="Trazado 114083" d="M110.614,23.061a5.1,5.1,0,0,0-.851-2.558,5.219,5.219,0,0,0-5.224-2.156c-.04-.139-.082-.276-.122-.424a27.56,27.56,0,0,1-.431-3.8,4.419,4.419,0,0,0,1.478-5.07,7.19,7.19,0,0,0-5.939-4.838A2.4,2.4,0,0,0,97.419,2.8c-.075,0-.138,0-.207,0A1.671,1.671,0,0,0,94.9,3c-.028.029-.053.06-.081.091a5,5,0,0,0-1.879-.2,3.87,3.87,0,0,0-1.09.255A7.153,7.153,0,0,0,88.425.641c-.035-.035-.066-.073-.1-.107a1.908,1.908,0,0,0-2.646,0,3.754,3.754,0,0,0-.969,1.442,2.667,2.667,0,0,0-.386,1.315,3.235,3.235,0,0,0-1.179-.029,3.029,3.029,0,0,0-1.813.993,3.438,3.438,0,0,0-1.008.833c-2.989-.375-6.227.3-7.63,3.168a4.683,4.683,0,0,0-.414,2.861c-2.423,1.118-4.491,2.907-4.249,5.917a4.011,4.011,0,0,0,2.041,3.234,4.758,4.758,0,0,0,1.349,4.9,4.7,4.7,0,0,0,3.919,1.166c.824,3.436,4.59,5.859,7.931,4.279a6.564,6.564,0,0,0,11.693-1.178,4.923,4.923,0,0,0,2.967-1.414,5.529,5.529,0,0,0,1.141,4.53c1.637,1.826,4.19,1.606,6.142.425a6.225,6.225,0,0,0,1.943-1.814,5.7,5.7,0,0,0,1.635-.478c2.959-1.4,3.973-5.511,1.821-7.627" transform="translate(31.73 0.001)" fill="#e5f0fa"/>
        <path id="Trazado_114084" data-name="Trazado 114084" d="M105.185,3.917c-1.78-3.807-5.972-5.083-8.851-1.582-.029.037-.051.076-.079.113C94.068.969,91.772-.063,89,1.129a5.321,5.321,0,0,0-3.269,4.747,5.216,5.216,0,0,0,.7,2.778c.026.044.2.236.412.471a3.469,3.469,0,0,0,.383.9c-1.993,3.542-1.21,8.516,2.487,10.773a8.078,8.078,0,0,0,11.983-4.42,7.313,7.313,0,0,0,.268-2.181,4.736,4.736,0,0,0,.57-.387,8.347,8.347,0,0,0,2.65-9.9" transform="translate(39.996 0.132)" fill="#e5f0fa"/>
        <path id="Trazado_114085" data-name="Trazado 114085" d="M37.38,59.747l-6.4,1.145a2.427,2.427,0,0,1-2.816-1.961L25.287,42.883a2.426,2.426,0,0,1,1.961-2.814l6.4-1.145a2.424,2.424,0,0,1,2.813,1.958L39.34,56.932a2.423,2.423,0,0,1-1.959,2.814" transform="translate(11.78 18.142)" fill="#4c4c4c" fill-rule="evenodd"/>
        <path id="Trazado_114086" data-name="Trazado 114086" d="M38.891,55.549a25.377,25.377,0,0,0,13.378-4.164c6.692-4.114,6.193-12.762,5.791-19.71-.22-3.8-.469-8.1.78-9.468.135-.144.49-.532,1.669-.569l-.154-4.954a6.991,6.991,0,0,0-5.171,2.178c-2.663,2.907-2.376,7.858-2.072,13.1.358,6.214.727,12.639-3.441,15.2-10.562,6.5-17.42,1.767-17.486,1.716l-2.879,4.039a17.376,17.376,0,0,0,9.584,2.631" transform="translate(13.673 7.784)" fill="#9cb8d8"/>
        <path id="Trazado_114087" data-name="Trazado 114087" d="M41.242,37.191S11.606,39.458,1.628,49.242a5.66,5.66,0,0,0,7.023,8.77c6.492-4.018,25.189-13.02,31.862-11.476Z" transform="translate(0 17.351)" fill="#4c4c4c" fill-rule="evenodd"/>
        <path id="Trazado_114088" data-name="Trazado 114088" d="M55.579,107.552l-20.589,3.69a3.119,3.119,0,0,1-3.619-2.52L22.329,58.234a7.814,7.814,0,0,1,6.313-9.069l11.341-2.033a7.817,7.817,0,0,1,9.072,6.316L58.1,103.934a3.118,3.118,0,0,1-2.52,3.618" transform="translate(10.36 21.932)" fill="#ff5451" fill-rule="evenodd"/>
        <rect id="Rectángulo_33894" data-name="Rectángulo 33894" width="27.151" height="7.919" transform="translate(34.253 88.899) rotate(-10.151)" fill="#ffe37d"/>
        <rect id="Rectángulo_33895" data-name="Rectángulo 33895" width="27.152" height="2.663" transform="matrix(0.984, -0.176, 0.176, 0.984, 36.098, 99.2)" fill="#ffe37d"/>
        <rect id="Rectángulo_33896" data-name="Rectángulo 33896" width="27.153" height="2.664" transform="translate(40.585 124.257) rotate(-10.154)" fill="#ffe37d"/>
        <path id="Trazado_114089" data-name="Trazado 114089" d="M49.317,21.753C55.083,14.118,83.345,4.247,83.345,4.247s10.5,9.637,5.737,23.419L53.451,29.691a5.139,5.139,0,0,1-5.065-2.952c-.559-1.308-.573-3,.931-4.986" transform="translate(22.412 1.982)" fill="#4c4c4c" fill-rule="evenodd"/>
        <path id="Trazado_114090" data-name="Trazado 114090" d="M24.725,44.434a6.757,6.757,0,1,1,8.39,4.576,6.757,6.757,0,0,1-8.39-4.576" transform="translate(11.406 16.688)" fill="#809bb6" fill-rule="evenodd"/>
        <path id="Trazado_114091" data-name="Trazado 114091" d="M140.938,25.16l3.875,98.974A8.08,8.08,0,0,1,135,123l-.145-.141.559-98.574s1.883-5.5,5.523.876" transform="translate(62.916 10.302)" fill="#7b5a43" fill-rule="evenodd"/>
        <path id="Trazado_114092" data-name="Trazado 114092" d="M151.334,20.638,151,30.159c-2.163-1.934-7.167-.546-7.167-.546-3.021-.579-13.478,5.1-19.641,8.657-2.745,1.587-4.642,2.757-4.642,2.757-9.562-14.85-5.307-28.98-5.307-28.98a56.071,56.071,0,0,1,6.1-.6c19.108-.9,42.509,6.07,42.509,6.07l.271,3.814Z" transform="translate(52.857 5.302)" fill="#ff5451" fill-rule="evenodd"/>
        <path id="Trazado_114093" data-name="Trazado 114093" d="M134.116,27.647l.738-12.07.908,11.74Z" transform="translate(62.57 7.268)" fill="#f13a3b" fill-rule="evenodd"/>
        <path id="Trazado_114094" data-name="Trazado 114094" d="M139.235,19.587l-.007-5.97,1.555.336.331,5.744Z" transform="translate(64.956 6.353)" fill="#f13a3b" fill-rule="evenodd"/>
        <path id="Trazado_114095" data-name="Trazado 114095" d="M124.188,38.243C121.444,39.831,119.546,41,119.546,41c-9.562-14.85-5.307-28.98-5.307-28.98a56.075,56.075,0,0,1,6.1-.6c-.884,4.954-1.921,16.16,3.848,26.823" transform="translate(52.857 5.328)" fill="#cddee7" fill-rule="evenodd"/>
        <path id="Trazado_114096" data-name="Trazado 114096" d="M12.511,35.708s-3.938,3.228-1.726,4.476S52.3,27.658,54.021,20.356c0,0-22.5,3.655-41.51,15.352" transform="translate(4.717 9.497)" fill="#fdb74d" fill-rule="evenodd"/>
        <path id="Trazado_114097" data-name="Trazado 114097" d="M47.366,23.961S37.433,5.4,23.456,10.967s-8.983,24.594-8.983,24.594,31.749-9.618,32.893-11.6" transform="translate(6.347 4.631)" fill="#fedc72" fill-rule="evenodd"/>
        <path id="Trazado_114098" data-name="Trazado 114098" d="M27.215,10.629s5.7,7.846,7.77,16.584l.933-.416s-2.767-12.95-7.424-15.952Z" transform="translate(12.697 4.959)" fill="#fdb74d" fill-rule="evenodd"/>
        <path id="Trazado_114099" data-name="Trazado 114099" d="M39.781,27.5S38.01,15.873,31.7,10.712a7.491,7.491,0,0,0-5.167-1.427c-3.482.138-9.207,2-10.307,6.3,0,0,12.711,8.229,14.1,14.89,0,0,2.879-2.652,9.447-2.976" transform="translate(7.572 4.328)" fill="#ffe37d" fill-rule="evenodd"/>
        <path id="Trazado_114100" data-name="Trazado 114100" d="M14.246,31.378s21.338-7.515,32.893-11.6l-.556-.88s-8.107-.581-32.493,11.46Z" transform="translate(6.574 8.815)" fill="#fdb74d" fill-rule="evenodd"/>
        <path id="Trazado_114101" data-name="Trazado 114101" d="M17.024,15.736A15.891,15.891,0,0,0,14.51,26.067s1.713-7.18,4.342-8.705c0,0-.8-1.981-1.829-1.626" transform="translate(6.73 7.322)" fill="#fff" fill-rule="evenodd"/>
        <path id="Trazado_114102" data-name="Trazado 114102" d="M23.91,19.22c.783,2.434,2.932,3.92,4.8,3.319s2.747-3.061,1.964-5.5-2.932-3.92-4.8-3.32-2.747,3.062-1.964,5.5" transform="translate(11.022 6.341)" fill="#ffbc37" fill-rule="evenodd"/>
        <path id="Trazado_114103" data-name="Trazado 114103" d="M26.983,14.69a13.04,13.04,0,0,0-2.564-2.342c-.994-.51.553,3.593.553,3.593Z" transform="translate(11.237 5.741)" fill="#ffbc37" fill-rule="evenodd"/>
        <path id="Trazado_114104" data-name="Trazado 114104" d="M16.493,13.577S28.3,21.322,30,26.628l-2.151.692S27.076,22.341,15.666,14.7Z" transform="translate(7.309 6.335)" fill="#fdb74d" fill-rule="evenodd"/>
        <path id="Trazado_114105" data-name="Trazado 114105" d="M16.307,31.1S39.641,20.333,49.2,19.5c3.974.261,7.849.183,3.919,3.138,0,0,1.9-1.83-.551-1.461A168.433,168.433,0,0,0,15.436,34.81c-5.513,2.715-4.351,5.821-4.351,5.821C6,39.29,16.307,31.1,16.307,31.1" transform="translate(4.513 9.096)" fill="#fedc72" fill-rule="evenodd"/>
      </g>
    </g>
    <ellipse id="Elipse_4713" data-name="Elipse 4713" cx="115" cy="5.5" rx="115" ry="5.5" transform="translate(1104.667 2510.424)" fill="#fdb74d"/>
  </g>
</svg>
