<svg xmlns="http://www.w3.org/2000/svg" xmlns:xlink="http://www.w3.org/1999/xlink" width="197.294" height="191.57" viewBox="0 0 197.294 191.57">
  <defs>
    <clipPath id="clip-path">
      <rect id="Rectángulo_34816" data-name="Rectángulo 34816" width="67.441" height="67.129" fill="none"/>
    </clipPath>
    <clipPath id="clip-path-4">
      <rect id="Rectángulo_34813" data-name="Rectángulo 34813" width="41.431" height="41.239" fill="none"/>
    </clipPath>
    <clipPath id="clip-path-5">
      <rect id="Rectángulo_34814" data-name="Rectángulo 34814" width="19.117" height="19.028" fill="none"/>
    </clipPath>
    <clipPath id="clip-path-6">
      <rect id="Rectángulo_34827" data-name="Rectángulo 34827" width="176.367" height="176.445" fill="none"/>
    </clipPath>
  </defs>
  <g id="Grupo_81220" data-name="Grupo 81220" transform="translate(2805.778 10451)">
    <g id="Grupo_81219" data-name="Grupo 81219">
      <g id="Grupo_80887" data-name="Grupo 80887" transform="translate(-2805.778 -10451)">
        <g id="Grupo_80857" data-name="Grupo 80857" clip-path="url(#clip-path)">
          <g id="Grupo_80856" data-name="Grupo 80856" transform="translate(0 0)">
            <g id="Grupo_80855" data-name="Grupo 80855" clip-path="url(#clip-path)">
              <g id="Grupo_80848" data-name="Grupo 80848" transform="translate(0 0)" opacity="0.17" style="isolation: isolate">
                <g id="Grupo_80847" data-name="Grupo 80847" transform="translate(0 0)">
                  <g id="Grupo_80846" data-name="Grupo 80846" clip-path="url(#clip-path)">
                    <path id="Trazado_115734" data-name="Trazado 115734" d="M55.211,59.881a90.044,90.044,0,0,0,5.583-8.425c1.953-3.331,3.892-6.779,4.686-10.6.749-3.608.982-8.361-1.219-11.528C61.9,25.886,53.618,19.338,51.348,16.424,49.506,14.059,45.976,8.277,44.9,4.214a4.064,4.064,0,0,0-3.422-2.974l-.078-.01a4.073,4.073,0,0,0-3.758,1.555c-1.176,1.543-3.531,3.6-8.006,4.376C25.155,8,19.051,8.538,17.8,8.871s-2.221,1.453-2.886,3.25S11.751,20.78,8.526,24.382a14.435,14.435,0,0,1-4.843,3.577,4.136,4.136,0,0,0-2.322,2.85l-.069.318A4.093,4.093,0,0,0,3.011,35.4a35.853,35.853,0,0,1,6.214,4.978c1.9,2.278,4.779,4.417,10.519,17.7.029.068.059.137.092.2.715,1.419,4.829,13.9,33.553,2.98A4.1,4.1,0,0,0,55.211,59.881Z" transform="translate(0.117 0.117)" fill="none" stroke="#5038a1" stroke-miterlimit="10" stroke-width="2.396"/>
                  </g>
                </g>
              </g>
              <g id="Grupo_80851" data-name="Grupo 80851" transform="translate(13.699 13.608)" opacity="0.17" style="isolation: isolate">
                <g id="Grupo_80850" data-name="Grupo 80850">
                  <g id="Grupo_80849" data-name="Grupo 80849" clip-path="url(#clip-path-4)">
                    <path id="Trazado_115735" data-name="Trazado 115735" d="M46.4,49.183a55.585,55.585,0,0,0,3.43-5.175A22,22,0,0,0,52.707,37.5c.46-2.216.6-5.136-.75-7.081-1.452-2.116-6.538-6.139-7.933-7.929a26.585,26.585,0,0,1-3.958-7.5,2.5,2.5,0,0,0-2.1-1.826l-.047-.007a2.5,2.5,0,0,0-2.309.956A7.515,7.515,0,0,1,30.688,16.8c-2.754.513-6.5.845-7.273,1.049a2.866,2.866,0,0,0-1.773,2c-.408,1.1-1.943,5.32-3.923,7.532a8.867,8.867,0,0,1-2.976,2.2,2.543,2.543,0,0,0-1.426,1.751l-.043.2a2.514,2.514,0,0,0,1.056,2.626A22.077,22.077,0,0,1,18.149,37.2c1.165,1.4,2.936,2.713,6.462,10.871.018.042.036.085.057.125.438.872,2.966,8.541,20.612,1.831A2.519,2.519,0,0,0,46.4,49.183Z" transform="translate(-12.409 -12.325)" fill="none" stroke="#5038a1" stroke-miterlimit="10" stroke-width="1.472"/>
                  </g>
                </g>
              </g>
              <g id="Grupo_80854" data-name="Grupo 80854" transform="translate(25.452 25.281)" opacity="0.17" style="isolation: isolate">
                <g id="Grupo_80853" data-name="Grupo 80853">
                  <g id="Grupo_80852" data-name="Grupo 80852" clip-path="url(#clip-path-5)">
                    <path id="Trazado_115736" data-name="Trazado 115736" d="M38.838,40.006a25.632,25.632,0,0,0,1.583-2.389,10.161,10.161,0,0,0,1.328-3,4.423,4.423,0,0,0-.346-3.268c-.671-.977-3.017-2.833-3.661-3.658a12.284,12.284,0,0,1-1.826-3.461,1.152,1.152,0,0,0-.97-.843l-.022,0a1.155,1.155,0,0,0-1.065.441,3.469,3.469,0,0,1-2.27,1.24c-1.271.237-3,.39-3.357.484a1.324,1.324,0,0,0-.818.921,12.364,12.364,0,0,1-1.81,3.476,4.09,4.09,0,0,1-1.373,1.014,1.17,1.17,0,0,0-.657.807l-.02.09a1.159,1.159,0,0,0,.487,1.212,10.216,10.216,0,0,1,1.761,1.41c.538.647,1.356,1.252,2.982,5.016a.555.555,0,0,0,.026.058c.2.4,1.368,3.941,9.51.844A1.159,1.159,0,0,0,38.838,40.006Z" transform="translate(-23.155 -22.998)" fill="none" stroke="#5038a1" stroke-miterlimit="10" stroke-width="0.679"/>
                  </g>
                </g>
              </g>
            </g>
          </g>
        </g>
      </g>
    </g>
    <g id="Grupo_80891" data-name="Grupo 80891" transform="translate(-2784.851 -10435.874)">
      <g id="Grupo_80891-2" data-name="Grupo 80891" clip-path="url(#clip-path-6)">
        <path id="Trazado_115818" data-name="Trazado 115818" d="M114.48,175.975a245.276,245.276,0,0,0,33.467-12.64c6.6-3.063,13.21-6,18.769-10.789a69.7,69.7,0,0,0,12.692-14.118c3.037-4.58,5.555-9.825,5.769-15.4.446-11.574-7.122-39.841-7.345-50.079-.181-8.305,1.542-27.01,5.883-37.816a11.267,11.267,0,0,0-2.688-12.28l-.156-.151a11.288,11.288,0,0,0-10.932-2.763c-5.169,1.485-13.813,2.159-25.048-3.524C133.54,10.846,119.072,1.943,115.734.607s-7.345-.445-11.8,2.448S82.57,17.078,69.439,19.749c-3.007.884-9.947,1.347-16.692-.063a11.461,11.461,0,0,0-9.879,2.492l-.681.592a11.352,11.352,0,0,0-3.253,12.35c2.25,6.373,5.174,15.571,5.577,21.355.444,8.2,3.317,17.735-5.905,56.763-.047.2-.095.4-.13.606-.761,4.339-12.28,38.906,69.676,62.173a11.355,11.355,0,0,0,6.329-.041" transform="translate(-23.534 0)" fill="#8c6df2"/>
        <path id="Trazado_115819" data-name="Trazado 115819" d="M215.581,377.568H198.513l8.534-56.893h11.378Z" transform="translate(-124.553 -201.201)" fill="#fdb74d"/>
        <path id="Trazado_115820" data-name="Trazado 115820" d="M212.736,343.433c1.55,0,3.064-.062,4.559-.154l1.13-22.6H207.047l-8.534,56.893h17.068l.427-8.534h-2.355a5.689,5.689,0,0,1-5.626-6.533l2.869-19.128c.616.016,1.215.059,1.84.059" transform="translate(-124.553 -201.201)" fill="#fedc72"/>
        <path id="Trazado_115821" data-name="Trazado 115821" d="M213.339,203.906c0,21.995-15.283,28.446-34.136,28.446s-34.135-6.451-34.135-28.446,26.662-51.2,45.514-51.2,22.757,29.208,22.757,51.2" transform="translate(-91.02 -95.81)" fill="#72aa65"/>
        <path id="Trazado_115822" data-name="Trazado 115822" d="M290.554,186.986a2.847,2.847,0,0,1-2.655-1.822,25.756,25.756,0,0,0-2.582-5.121,2.844,2.844,0,0,1,4.714-3.184,31.461,31.461,0,0,1,3.177,6.258,2.847,2.847,0,0,1-2.654,3.87" transform="translate(-178.711 -110.18)" fill="#fff"/>
        <path id="Trazado_115823" data-name="Trazado 115823" d="M187.737,241.244c-18.852,0-34.136-6.452-34.136-28.446,0-10.45,6.023-22.522,14.361-32.322-12.443,10.488-22.9,27.085-22.9,40.856,0,21.995,15.283,28.446,34.136,28.446,13.476,0,25.093-3.333,30.643-13.246-5.958,3.4-13.669,4.712-22.109,4.712" transform="translate(-91.02 -113.235)" fill="#599149"/>
        <path id="Trazado_115824" data-name="Trazado 115824" d="M237.588,0h25.6l-8.534,17.068h8.534l-25.6,51.2,2.845-39.825H229.054Z" transform="translate(-143.715 0)" fill="#fdb74d"/>
        <path id="Trazado_115825" data-name="Trazado 115825" d="M246.833,49.781l1.773-24.828a4.706,4.706,0,0,0-4.694-5.041h0a4.706,4.706,0,0,1-4.507-6.058L243.562,0h-5.973l-8.534,28.446h11.379l-2.845,39.825Z" transform="translate(-143.715)" fill="#fedc72"/>
        <path id="Trazado_115826" data-name="Trazado 115826" d="M84.82,92.456a2.844,2.844,0,0,0,0,4.023l5.689,5.689a2.844,2.844,0,0,0,4.023-4.023l-5.689-5.689a2.844,2.844,0,0,0-4.023,0" transform="translate(-52.696 -57.487)" fill="#f3f9ff"/>
        <path id="Trazado_115827" data-name="Trazado 115827" d="M380.644,18.181a2.844,2.844,0,0,0,4.023-4.023l-5.69-5.689a2.844,2.844,0,0,0-4.022,4.023Z" transform="translate(-234.735 -4.791)" fill="#f3f9ff"/>
        <path id="Trazado_115828" data-name="Trazado 115828" d="M46.645,145.9a2.844,2.844,0,0,0,0,4.023l5.689,5.689a2.844,2.844,0,0,0,4.023-4.023L50.667,145.9a2.844,2.844,0,0,0-4.023,0" transform="translate(-28.743 -91.02)" fill="#f3f9ff"/>
        <path id="Trazado_115829" data-name="Trazado 115829" d="M179.286,7.7a2.844,2.844,0,0,0,4.023-4.023L180.464.834a2.844,2.844,0,1,0-4.022,4.023Z" transform="translate(-110.181 0)" fill="#f3f9ff"/>
        <path id="Trazado_115830" data-name="Trazado 115830" d="M354.894,137.5a2.844,2.844,0,0,0,4.023-4.023l-2.845-2.845a2.844,2.844,0,0,0-4.022,4.023Z" transform="translate(-220.363 -81.439)" fill="#f3f9ff"/>
        <path id="Trazado_115831" data-name="Trazado 115831" d="M356.905,207.047a2.845,2.845,0,0,0,2.011-4.856l-2.845-2.845a2.844,2.844,0,1,0-4.022,4.023l2.845,2.845a2.835,2.835,0,0,0,2.011.833" transform="translate(-220.363 -124.553)" fill="#f3f9ff"/>
        <path id="Trazado_115832" data-name="Trazado 115832" d="M76.417,240.367l-2.845-2.845a2.844,2.844,0,1,0-4.023,4.022l2.845,2.845a2.844,2.844,0,0,0,4.023-4.023" transform="translate(-43.115 -148.505)" fill="#f3f9ff"/>
        <path id="Trazado_115833" data-name="Trazado 115833" d="M67.6,10.546a2.844,2.844,0,1,0,4.023-4.023L65.937.834a2.844,2.844,0,1,0-4.022,4.023Z" transform="translate(-38.324 0)" fill="#f3f9ff"/>
        <path id="Trazado_115834" data-name="Trazado 115834" d="M17.9,60.1a2.844,2.844,0,0,0,4.023-4.023L4.856,39.009A2.844,2.844,0,0,0,.834,43.032Z" transform="translate(0 -23.953)" fill="#f3f9ff"/>
        <path id="Trazado_115835" data-name="Trazado 115835" d="M426.455,63.992a2.844,2.844,0,1,0,4.023-4.023l-5.69-5.689a2.844,2.844,0,1,0-4.022,4.023Z" transform="translate(-263.477 -33.534)" fill="#f3f9ff"/>
        <path id="Trazado_115836" data-name="Trazado 115836" d="M3.678,137.5A2.844,2.844,0,0,0,7.7,133.475l-2.845-2.845a2.844,2.844,0,0,0-4.022,4.023Z" transform="translate(0 -81.439)" fill="#f3f9ff"/>
        <path id="Trazado_115837" data-name="Trazado 115837" d="M443.672,130.631a2.844,2.844,0,0,0,0,4.023l2.845,2.845a2.844,2.844,0,0,0,4.023-4.023l-2.845-2.845a2.844,2.844,0,0,0-4.023,0" transform="translate(-277.85 -81.439)" fill="#f3f9ff"/>
        <path id="Trazado_115838" data-name="Trazado 115838" d="M368.219,82.106a2.844,2.844,0,1,0,4.023-4.023l-8.534-8.534a2.844,2.844,0,0,0-4.022,4.023Z" transform="translate(-225.154 -43.115)" fill="#f3f9ff"/>
        <path id="Trazado_115839" data-name="Trazado 115839" d="M157.279,54.41a2.844,2.844,0,1,0,4.023-4.023L149.923,39.009a2.844,2.844,0,1,0-4.023,4.022Z" transform="translate(-91.02 -23.953)" fill="#f3f9ff"/>
        <path id="Trazado_115840" data-name="Trazado 115840" d="M16.234,203.09,4.856,191.712a2.844,2.844,0,0,0-4.022,4.023l11.378,11.379a2.844,2.844,0,0,0,4.023-4.023" transform="translate(0 -119.763)" fill="#f3f9ff"/>
        <path id="Trazado_115841" data-name="Trazado 115841" d="M413.2,179.352a2.845,2.845,0,0,0,2.011-4.856l-5.689-5.69a2.844,2.844,0,0,0-4.023,4.023l5.69,5.689a2.835,2.835,0,0,0,2.011.833" transform="translate(-253.897 -105.391)" fill="#f3f9ff"/>
        <path id="Trazado_115842" data-name="Trazado 115842" d="M430.478,227.941l-5.689-5.689a2.844,2.844,0,0,0-4.023,4.022l5.689,5.69a2.844,2.844,0,1,0,4.023-4.023" transform="translate(-263.478 -138.924)" fill="#f3f9ff"/>
        <path id="Trazado_115843" data-name="Trazado 115843" d="M165.193,115.361a2.844,2.844,0,1,0-4.023,4.023l5.69,5.689a2.844,2.844,0,0,0,4.022-4.023Z" transform="translate(-100.6 -71.858)" fill="#f3f9ff"/>
        <path id="Trazado_115844" data-name="Trazado 115844" d="M4.855,336.78A2.844,2.844,0,1,0,.833,340.8l5.69,5.689a2.844,2.844,0,0,0,4.022-4.023Z" transform="translate(0 -210.783)" fill="#f3f9ff"/>
        <path id="Trazado_115845" data-name="Trazado 115845" d="M43.031,283.334a2.844,2.844,0,1,0-4.023,4.023l11.379,11.378a2.844,2.844,0,1,0,4.023-4.022Z" transform="translate(-23.952 -177.249)" fill="#f3f9ff"/>
        <path id="Trazado_115846" data-name="Trazado 115846" d="M96.477,359.685a2.844,2.844,0,0,0-4.023,4.023l5.69,5.689a2.844,2.844,0,1,0,4.022-4.023Z" transform="translate(-57.486 -225.154)" fill="#f3f9ff"/>
        <path id="Trazado_115847" data-name="Trazado 115847" d="M117.438,197.4l-5.689-5.689a2.844,2.844,0,0,0-4.023,4.022l5.689,5.69a2.844,2.844,0,0,0,4.023-4.023" transform="translate(-67.067 -119.763)" fill="#f3f9ff"/>
        <path id="Trazado_115848" data-name="Trazado 115848" d="M417.153,290.969a2.844,2.844,0,1,0-4.023,4.023l5.69,5.689a2.844,2.844,0,0,0,4.022-4.023Z" transform="translate(-258.687 -182.039)" fill="#f3f9ff"/>
        <path id="Trazado_115849" data-name="Trazado 115849" d="M359.685,275.7a2.844,2.844,0,0,0,0,4.023l2.845,2.845a2.844,2.844,0,1,0,4.023-4.023l-2.845-2.845a2.844,2.844,0,0,0-4.023,0" transform="translate(-225.154 -172.458)" fill="#f3f9ff"/>
        <path id="Trazado_115850" data-name="Trazado 115850" d="M363.707,344.415a2.844,2.844,0,0,0-4.023,4.023l11.379,11.378a2.844,2.844,0,1,0,4.023-4.022Z" transform="translate(-225.154 -215.573)" fill="#f3f9ff"/>
        <path id="Trazado_115851" data-name="Trazado 115851" d="M447.693,352.05a2.844,2.844,0,0,0-4.023,4.023l5.69,5.689a2.844,2.844,0,0,0,4.022-4.023Z" transform="translate(-277.849 -220.363)" fill="#f3f9ff"/>
        <path id="Trazado_115852" data-name="Trazado 115852" d="M444.57,13.39a2.844,2.844,0,0,0,4.023-4.023L440.059.834a2.844,2.844,0,0,0-4.022,4.023Z" transform="translate(-273.059 0)" fill="#f3f9ff"/>
      </g>
    </g>
  </g>
</svg>
