<svg xmlns="http://www.w3.org/2000/svg" xmlns:xlink="http://www.w3.org/1999/xlink" width="295" height="152.417" viewBox="0 0 295 152.417">
  <defs>
    <clipPath id="clip-path">
      <rect id="Rectángulo_34800" data-name="Rectángulo 34800" width="73.698" height="81.858" fill="none"/>
    </clipPath>
    <clipPath id="clip-path-4">
      <rect id="Rectángulo_34803" data-name="Rectángulo 34803" width="21.744" height="21.744" fill="none"/>
    </clipPath>
    <clipPath id="clip-path-5">
      <rect id="Rectángulo_34802" data-name="Rectángulo 34802" width="21.743" height="21.743" fill="none"/>
    </clipPath>
    <clipPath id="clip-path-7">
      <rect id="Rectángulo_34720" data-name="Rectángulo 34720" width="127.574" height="152.417" fill="none"/>
    </clipPath>
  </defs>
  <g id="Grupo_81217" data-name="Grupo 81217" transform="translate(-180 -374.952)">
    <rect id="Rectángulo_34715" data-name="Rectángulo 34715" width="210" height="47" transform="translate(180 404)" fill="#fedc72" opacity="0.25"/>
    <g id="Grupo_80830" data-name="Grupo 80830" transform="translate(180 437.142)" style="mix-blend-mode: multiply;isolation: isolate">
      <g id="Grupo_80816" data-name="Grupo 80816" clip-path="url(#clip-path)">
        <g id="Grupo_80815" data-name="Grupo 80815">
          <g id="Grupo_80814" data-name="Grupo 80814" clip-path="url(#clip-path)">
            <g id="Grupo_80813" data-name="Grupo 80813" style="mix-blend-mode: overlay;isolation: isolate">
              <g id="Grupo_80812" data-name="Grupo 80812">
                <g id="Grupo_80811" data-name="Grupo 80811" clip-path="url(#clip-path)">
                  <path id="Trazado_115726" data-name="Trazado 115726" d="M73.7,60.991a60.907,60.907,0,0,1-3.662,20.867H5.59A5.339,5.339,0,0,1,0,76.812V1.328a61.077,61.077,0,0,1,66.237,30.41A60.719,60.719,0,0,1,73.7,60.991" transform="translate(0)" fill="#8c6df2"/>
                </g>
              </g>
            </g>
          </g>
        </g>
      </g>
    </g>
    <g id="Grupo_80831" data-name="Grupo 80831" transform="matrix(0.966, -0.259, 0.259, 0.966, 420.991, 402.89)" style="isolation: isolate">
      <g id="Grupo_80823" data-name="Grupo 80823" clip-path="url(#clip-path-4)">
        <g id="Grupo_80822" data-name="Grupo 80822" transform="translate(0 0.001)">
          <g id="Grupo_80821" data-name="Grupo 80821" clip-path="url(#clip-path-5)">
            <g id="Grupo_80820" data-name="Grupo 80820" transform="translate(0 -0.001)" style="mix-blend-mode: overlay;isolation: isolate">
              <g id="Grupo_80819" data-name="Grupo 80819" transform="translate(0 0)">
                <g id="Grupo_80818" data-name="Grupo 80818" clip-path="url(#clip-path-4)">
                  <path id="Trazado_115727" data-name="Trazado 115727" d="M15.376,6.366V3.594A3.6,3.6,0,0,0,11.78,0H9.962a3.6,3.6,0,0,0-3.6,3.594V6.366H3.594A3.6,3.6,0,0,0,0,9.962V11.78a3.6,3.6,0,0,0,3.594,3.6H6.366v2.772a3.6,3.6,0,0,0,3.6,3.594H11.78a3.6,3.6,0,0,0,3.6-3.594V15.376h2.772a3.6,3.6,0,0,0,3.594-3.6V9.962a3.6,3.6,0,0,0-3.594-3.6Z" transform="translate(0 0)" fill="#fdb74d" fill-rule="evenodd"/>
                </g>
              </g>
            </g>
          </g>
        </g>
      </g>
    </g>
    <rect id="Rectángulo_34806" data-name="Rectángulo 34806" width="114" height="21" transform="translate(361 498)" fill="#8c6df2" opacity="0.4" style="mix-blend-mode: multiply;isolation: isolate"/>
    <g id="Grupo_80645" data-name="Grupo 80645" transform="translate(285 374.952)">
      <g id="Grupo_80645-2" data-name="Grupo 80645" clip-path="url(#clip-path-7)">
        <path id="Trazado_115062" data-name="Trazado 115062" d="M127.558,106.27a19.387,19.387,0,0,1-.776,4.65,32.072,32.072,0,0,1-4.21,8.657,57.329,57.329,0,0,1-8.2,9.687c-.9.863-1.822,1.7-2.761,2.507a37.19,37.19,0,0,1-3.875,2.906A58.762,58.762,0,0,1,101.9,138c-2.137,1.081-4.325,2.079-6.507,3.093a212.03,212.03,0,0,1-28.91,10.917,9.782,9.782,0,0,1-5.468.035C45.709,147.7,34.175,142.9,25.511,138c-1.954-1.1-3.759-2.211-5.433-3.321A57.88,57.88,0,0,1,7.652,123.946c-.315-.373-.615-.743-.9-1.11a31.464,31.464,0,0,1-5.89-11.4A25.742,25.742,0,0,1,.784,98.588c.019-.093.035-.174.048-.248.032-.177.071-.351.113-.525.3-1.274.586-2.51.859-3.714.023-.1.045-.2.064-.3l0,0C2.9,89.245,3.72,85.194,4.37,81.579c.418-2.32.769-4.457,1.056-6.437v-.006A104.431,104.431,0,0,0,6.709,59.373v0c0-1.139-.035-2.176-.084-3.135-.122-2.44-.344-4.374-.489-6.153-.035-.441-.068-.869-.09-1.3A59.134,59.134,0,0,0,3.44,37.031c-.393-1.291-.8-2.562-1.207-3.772-.341-1.023-.682-2.008-1-2.922a9.8,9.8,0,0,1,2.81-10.669l.589-.512a9.633,9.633,0,0,1,3.148-1.815,10.032,10.032,0,0,1,5.31-.351c.026.006.051.01.077.016,5.825,1.217,11.821.817,14.418.055a58.446,58.446,0,0,0,13.153-4.8c1.278-.618,2.536-1.258,3.753-1.905C50.4,7.213,55.364,3.95,57.379,2.64,61.225.139,64.688-.63,67.571.526S82.952,9.37,92.758,14.175c9.352,4.734,16.626,4.364,21.141,3.18.171-.042.335-.09.5-.135a9.581,9.581,0,0,1,4.934-.093h0a9.883,9.883,0,0,1,4.506,2.481c.045.042.09.087.135.129a9.733,9.733,0,0,1,2.32,10.608c-3.749,9.336-5.236,25.492-5.082,32.666.093,4.361,1.728,12.5,3.321,20.836.364,1.921.731,3.856,1.072,5.754.27,1.5.525,2.974.76,4.406.142.885.277,1.754.4,2.6q.15,1.014.274,1.982a49.212,49.212,0,0,1,.518,7.682" transform="translate(0 0)" fill="#8c6df2"/>
        <path id="Trazado_115063" data-name="Trazado 115063" d="M74.521,70.57a2,2,0,0,0,0,2.831l4,4a2,2,0,1,0,2.831-2.831l-4-4a2,2,0,0,0-2.831,0" transform="translate(-50.14 -47.46)" fill="#f3f9ff"/>
        <path id="Trazado_115064" data-name="Trazado 115064" d="M43.417,114.116a2,2,0,0,0,0,2.831l4,4a2,2,0,0,0,2.831-2.831l-4-4a2,2,0,0,0-2.831,0" transform="translate(-29.046 -76.992)" fill="#f3f9ff"/>
        <path id="Trazado_115065" data-name="Trazado 115065" d="M294.256,106.507a2,2,0,1,0,2.831-2.831l-2-2a2,2,0,1,0-2.831,2.831Z" transform="translate(-197.799 -68.554)" fill="#f3f9ff"/>
        <path id="Trazado_115066" data-name="Trazado 115066" d="M295.672,163.083a2,2,0,0,0,1.415-3.418l-2-2a2,2,0,1,0-2.831,2.831l2,2a2,2,0,0,0,1.415.587" transform="translate(-197.799 -106.524)" fill="#f3f9ff"/>
        <path id="Trazado_115067" data-name="Trazado 115067" d="M66.912,190.769l-2-2a2,2,0,1,0-2.831,2.831l2,2a2,2,0,0,0,2.831-2.831" transform="translate(-41.702 -127.618)" fill="#f3f9ff"/>
        <path id="Trazado_115068" data-name="Trazado 115068" d="M33.584,59.311a2,2,0,0,1-2.829,0l-6.6-6.6a10.032,10.032,0,0,1,5.31-.351l4.116,4.116a2,2,0,0,1,0,2.832" transform="translate(-16.382 -35.372)" fill="#f3f9ff"/>
        <path id="Trazado_115069" data-name="Trazado 115069" d="M359.317,55.437a2,2,0,0,1-2.832,0l-2.578-2.581c.171-.042.335-.09.5-.135a9.58,9.58,0,0,1,4.934-.093h0a2,2,0,0,1-.023,2.81" transform="translate(-240.008 -35.501)" fill="#f3f9ff"/>
        <path id="Trazado_115070" data-name="Trazado 115070" d="M11.9,106.508a2,2,0,0,1-2.832,0l-.92-.92c-.393-1.291-.8-2.562-1.207-3.772a1.681,1.681,0,0,1,.126-.138,2,2,0,0,1,2.832,0l2,2a2,2,0,0,1,0,2.829" transform="translate(-4.704 -68.556)" fill="#f3f9ff"/>
        <path id="Trazado_115071" data-name="Trazado 115071" d="M366.905,101.674a2,2,0,0,0,0,2.831l2,2a2,2,0,0,0,2.831-2.831l-2-2a2,2,0,0,0-2.831,0" transform="translate(-248.425 -68.554)" fill="#f3f9ff"/>
        <path id="Trazado_115072" data-name="Trazado 115072" d="M304.48,60.744a2,2,0,1,0,2.831-2.831l-6.006-6.006a2,2,0,1,0-2.831,2.831Z" transform="translate(-202.017 -34.803)" fill="#f3f9ff"/>
        <path id="Trazado_115073" data-name="Trazado 115073" d="M137.072,41.754a2,2,0,0,1-2.832,0l-7.673-7.676c1.278-.618,2.536-1.258,3.753-1.905l6.752,6.749a2,2,0,0,1,0,2.832" transform="translate(-85.833 -21.819)" fill="#f3f9ff"/>
        <path id="Trazado_115074" data-name="Trazado 115074" d="M26.128,165.506a2,2,0,0,1-2.832,0l-3.74-3.74c-.122-2.44-.344-4.374-.489-6.153l7.061,7.064a2,2,0,0,1,0,2.829" transform="translate(-12.931 -105.532)" fill="#f3f9ff"/>
        <path id="Trazado_115075" data-name="Trazado 115075" d="M341.22,140.2a2,2,0,0,0,1.415-3.418l-4-4a2,2,0,0,0-2.831,2.831l4,4a2,2,0,0,0,1.415.587" transform="translate(-227.331 -89.649)" fill="#f3f9ff"/>
        <path id="Trazado_115076" data-name="Trazado 115076" d="M355.078,180.329l-4-4a2,2,0,0,0-2.831,2.831l4,4a2,2,0,1,0,2.831-2.831" transform="translate(-235.768 -119.18)" fill="#f3f9ff"/>
        <path id="Trazado_115077" data-name="Trazado 115077" d="M139.561,89.232a2,2,0,0,0-2.831,2.831l4,4a2,2,0,0,0,2.831-2.831Z" transform="translate(-92.328 -60.116)" fill="#f3f9ff"/>
        <path id="Trazado_115078" data-name="Trazado 115078" d="M8.922,269.639a2,2,0,0,0-2.831,2.831l4,4a2,2,0,1,0,2.831-2.831Z" transform="translate(-3.733 -182.462)" fill="#f3f9ff"/>
        <path id="Trazado_115079" data-name="Trazado 115079" d="M40.027,226.093a2,2,0,0,0-2.831,2.831l8.009,8.008a2,2,0,1,0,2.831-2.831Z" transform="translate(-24.827 -152.931)" fill="#f3f9ff"/>
        <path id="Trazado_115080" data-name="Trazado 115080" d="M83.573,288.3a2,2,0,0,0-2.831,2.831l4,4a2,2,0,0,0,2.831-2.831Z" transform="translate(-54.359 -195.119)" fill="#f3f9ff"/>
        <path id="Trazado_115081" data-name="Trazado 115081" d="M100.019,155.445l-4-4a2,2,0,0,0-2.831,2.831l4,4a2,2,0,1,0,2.831-2.831" transform="translate(-62.797 -102.304)" fill="#f3f9ff"/>
        <path id="Trazado_115082" data-name="Trazado 115082" d="M344.852,232.314a2,2,0,1,0-2.831,2.831l4,4a2,2,0,1,0,2.831-2.831Z" transform="translate(-231.549 -157.15)" fill="#f3f9ff"/>
        <path id="Trazado_115083" data-name="Trazado 115083" d="M298.475,219.872a2,2,0,0,0,0,2.831l2,2a2,2,0,1,0,2.831-2.831l-2-2a2,2,0,0,0-2.831,0" transform="translate(-202.018 -148.712)" fill="#f3f9ff"/>
        <path id="Trazado_115084" data-name="Trazado 115084" d="M301.305,275.86a2,2,0,1,0-2.831,2.831l8.008,8.008a2,2,0,0,0,2.831-2.831Z" transform="translate(-202.017 -186.681)" fill="#f3f9ff"/>
        <path id="Trazado_115085" data-name="Trazado 115085" d="M369.736,282.081a2,2,0,0,0-2.831,2.831l4,4a2,2,0,1,0,2.831-2.831Z" transform="translate(-248.425 -190.9)" fill="#f3f9ff"/>
        <path id="Trazado_115086" data-name="Trazado 115086" d="M270.061,216.964l-1.152,6.524-40.966-7.222-.183-.032-12.346-2.179-4.116-.724.508-2.88,2.034-11.525a4.177,4.177,0,0,1,4.84-3.389l.74.132a4.178,4.178,0,0,0,4.618-2.6l4.01-10.276a8.354,8.354,0,0,1,9.237-5.191l2.015.354h0l17.408,3.07a8.355,8.355,0,0,1,6.9,8.039l.251,11.026a4.179,4.179,0,0,0,3.453,4.02l.508.09c.364,1.921.731,3.856,1.072,5.754.27,1.5.525,2.974.76,4.406.142.885.277,1.754.4,2.6" transform="translate(-143.295 -120.358)" fill="#dbe6fd"/>
        <path id="Trazado_115087" data-name="Trazado 115087" d="M365.936,264.109a2.091,2.091,0,0,1-1.04-.277,10.526,10.526,0,0,1-2.606-2.118,2.09,2.09,0,0,1,3.118-2.783,6.272,6.272,0,0,0,1.573,1.278,2.089,2.089,0,0,1-1.045,3.9" transform="translate(-245.333 -175.125)" fill="#fff"/>
        <path id="Trazado_115088" data-name="Trazado 115088" d="M270.061,216.964l-1.152,6.524-40.966-7.222-.183-.032-12.346-2.179-4.116-.724.508-2.88,2.034-11.525a4.177,4.177,0,0,1,4.84-3.389l.74.132a4.178,4.178,0,0,0,4.618-2.6l4.01-10.276a8.354,8.354,0,0,1,9.237-5.191l2.015.354a8.363,8.363,0,0,0-4.985,4.837l-4.007,10.276a4.18,4.18,0,0,1-4.618,2.6l-.743-.132a4.181,4.181,0,0,0-4.84,3.389l-1.506,8.551a4.179,4.179,0,0,0,3.907,4.911.7.7,0,0,0,.084,0c.19,0,.377,0,.57,0,.389,0,.776-.006,1.155-.019.126,0,.251-.006.377-.013l.209-.01q.623-.024,1.226-.077.483-.039.956-.087h.029a25.669,25.669,0,0,0,9.732-2.829,4.02,4.02,0,0,1,3.968,0c3.257,1.854,8.175,3.035,13.684,3.035a31.108,31.108,0,0,0,11.953-2.176,4.123,4.123,0,0,1,2.449-.261c.27,1.5.525,2.974.76,4.406.142.885.277,1.754.4,2.6" transform="translate(-143.295 -120.358)" fill="#bbcff2"/>
        <path id="Trazado_115089" data-name="Trazado 115089" d="M236.23,282.394a6.268,6.268,0,1,1-5.084-7.261,6.268,6.268,0,0,1,5.084,7.261" transform="translate(-151.766 -186.521)" fill="#5038a1"/>
        <path id="Trazado_115090" data-name="Trazado 115090" d="M228.969,293.514a6.236,6.236,0,0,0,6.585-9.129,37.156,37.156,0,0,1-3.924.207,35.469,35.469,0,0,1-6.837-.656,6.271,6.271,0,0,0,4.176,9.577" transform="translate(-151.766 -192.557)" fill="#12263f"/>
        <path id="Trazado_115091" data-name="Trazado 115091" d="M325,207.776a4.179,4.179,0,0,0-3.451-3.986l-8.055-1.42-2.54,14.4,14.4,2.54Z" transform="translate(-210.877 -137.241)" fill="#a7d0e1"/>
        <path id="Trazado_115092" data-name="Trazado 115092" d="M321.7,205.88a4.179,4.179,0,0,1,3.451,3.986l.269,8.695,4.267.752-.357-11.536a4.179,4.179,0,0,0-3.451-3.986l-8.055-1.42-.483,2.741Z" transform="translate(-215.21 -137.241)" fill="#80bbce"/>
        <path id="Trazado_115093" data-name="Trazado 115093" d="M275.086,197.822a4.179,4.179,0,0,0-4.606,2.565L266.2,211.106l14.4,2.54,2.54-14.4Z" transform="translate(-180.527 -134.113)" fill="#a7d0e1"/>
        <path id="Trazado_115094" data-name="Trazado 115094" d="M284.63,197.823a4.17,4.17,0,0,0-4.358,2.074c.06.008.119.005.18.016l3.94.695a4.179,4.179,0,0,1,3.389,4.841l-1.33,7.547,3.7.652,2.54-14.4Z" transform="translate(-190.071 -134.114)" fill="#80bbce"/>
        <path id="Trazado_115095" data-name="Trazado 115095" d="M66.048,187.574l-4.084,1.439-12.259,4.322-8.078,2.848-16.043,5.658h-.006l-.393.138v0l-10.81,3.811-1.448.508-4.087,1.442L5.9,199.926h0l-.084-.232c1.027-4.557,1.847-8.609,2.5-12.223a4.156,4.156,0,0,0,1.468-3.836l-.412-2.6v-.006a104.431,104.431,0,0,0,1.284-15.763v0a8.721,8.721,0,0,1,3.016-1.809l19.291-6.8c.122-.042.241-.084.364-.119s.241-.071.364-.1a9.02,9.02,0,0,1,1.5-.254,8.77,8.77,0,0,1,8.178,4.013l5.967,9.5a4.418,4.418,0,0,0,5.2,1.77l.737-.261a4.389,4.389,0,0,1,5.574,2.52Z" transform="translate(-3.945 -105.892)" fill="#dbe6fd"/>
        <path id="Trazado_115096" data-name="Trazado 115096" d="M41.621,196.193l-16.043,5.658h-.006l-.393.138v0L14.368,205.8l-1.448.508v0l-4.087,1.439-2.938-7.817-.087-.229,0,0c1.027-4.557,1.847-8.609,2.5-12.223a4.156,4.156,0,0,0,1.468-3.836l-.412-2.6v-.006a104.431,104.431,0,0,0,1.284-15.763v0a8.721,8.721,0,0,1,3.016-1.809l19.291-6.8c.122-.042.241-.084.364-.119s.241-.071.364-.1a8.866,8.866,0,0,1,5.355.286l-19.1,6.736a8.4,8.4,0,0,0-5.626,9.192l1.735,10.991a4.2,4.2,0,0,1-2.81,4.6l-.737.261a4.177,4.177,0,0,0-2.6,5.4l.183.486a4.183,4.183,0,0,0,2.913,2.6,32.533,32.533,0,0,0,5.593.866h.01c.508.039,1.027.064,1.551.077h0c.322.01.647.013.975.013,5.513,0,10.437-1.181,13.691-3.038a4.026,4.026,0,0,1,3.984.016,18.806,18.806,0,0,0,2.822,1.278" transform="translate(-3.938 -105.902)" fill="#bbcff2"/>
        <path id="Trazado_115097" data-name="Trazado 115097" d="M39.334,289.8a6.266,6.266,0,0,1-3.9,8.1,6.583,6.583,0,0,1-8.361-3.777,6.267,6.267,0,0,1,3.9-8.1,6.583,6.583,0,0,1,8.361,3.777" transform="translate(-18.093 -193.715)" fill="#12263f"/>
        <path id="Trazado_115098" data-name="Trazado 115098" d="M153.609,249.513a6.266,6.266,0,0,1-3.9,8.1,6.583,6.583,0,0,1-8.361-3.777,6.267,6.267,0,0,1,3.9-8.1,6.583,6.583,0,0,1,8.361,3.777" transform="translate(-95.591 -166.39)" fill="#5038a1"/>
        <path id="Trazado_115099" data-name="Trazado 115099" d="M80.3,179.178a4.42,4.42,0,0,0-5.184-1.74l-8,2.821,5.206,13.855,14.3-5.043Z" transform="translate(-45.518 -120.16)" fill="#a7d0e1"/>
        <path id="Trazado_115100" data-name="Trazado 115100" d="M73.03,181.616a4.42,4.42,0,0,1,5.184,1.74l4.529,7.084,3.885-1.37L80.3,179.178a4.42,4.42,0,0,0-5.184-1.74l-8,2.821,1.142,3.039Z" transform="translate(-45.519 -120.16)" fill="#80bbce"/>
        <path id="Trazado_115101" data-name="Trazado 115101" d="M36.235,189.558a4.2,4.2,0,0,0-2.816,4.561l1.719,11.516,14.3-5.043-5.206-13.855Z" transform="translate(-22.633 -126.639)" fill="#a7d0e1"/>
        <path id="Trazado_115102" data-name="Trazado 115102" d="M34.153,193.737l4.138-1.459a4.178,4.178,0,0,1,5.3,2.471l2.624,6.983,3.231-1.14-5.206-13.855-8,2.82a4.2,4.2,0,0,0-2.819,4.517,4.493,4.493,0,0,1,.73-.339" transform="translate(-22.64 -126.639)" fill="#80bbce"/>
        <path id="Trazado_115103" data-name="Trazado 115103" d="M127.558,301.52a19.387,19.387,0,0,1-.776,4.651,32.072,32.072,0,0,1-4.21,8.657,57.33,57.33,0,0,1-8.2,9.687c-.9.863-1.822,1.7-2.761,2.507a37.2,37.2,0,0,1-3.875,2.906,58.765,58.765,0,0,1-5.828,3.321H25.511c-1.954-1.1-3.759-2.211-5.433-3.321A57.88,57.88,0,0,1,7.652,319.2c-.315-.373-.615-.743-.9-1.11a31.464,31.464,0,0,1-5.89-11.4,25.742,25.742,0,0,1-.074-12.851c.019-.093.035-.174.048-.248.032-.177.071-.351.113-.525.3-1.274.586-2.51.859-3.714a1.557,1.557,0,0,1,.151-.068h0a4.124,4.124,0,0,1,3.276.006A24.593,24.593,0,0,0,9.316,290.6a35.081,35.081,0,0,0,7.869.863,36.914,36.914,0,0,0,4.02-.216c.142-.016.286-.032.428-.052h.006a25.191,25.191,0,0,0,9.227-2.765,4.022,4.022,0,0,1,3.978,0c3.257,1.851,8.175,3.032,13.681,3.032s10.424-1.181,13.678-3.032a4.028,4.028,0,0,1,3.981,0,21.932,21.932,0,0,0,5.867,2.179,34.849,34.849,0,0,0,7.814.853,36.9,36.9,0,0,0,4.586-.283c.068-.006.132-.016.2-.026a24.893,24.893,0,0,0,8.9-2.723,4.028,4.028,0,0,1,3.981,0c3.257,1.851,8.175,3.032,13.678,3.032a31.108,31.108,0,0,0,11.953-2.176,4.116,4.116,0,0,1,3.209-.035c.142.885.277,1.754.4,2.6q.15,1.014.274,1.983a49.212,49.212,0,0,1,.518,7.682" transform="translate(0 -195.25)" fill="#fedc72"/>
        <path id="Trazado_115104" data-name="Trazado 115104" d="M128.591,341.388a32.072,32.072,0,0,1-4.21,8.657,57.329,57.329,0,0,1-8.2,9.687c-.9.863-1.822,1.7-2.761,2.507a37.2,37.2,0,0,1-3.875,2.906,58.766,58.766,0,0,1-5.828,3.321H27.319c-1.954-1.1-3.759-2.211-5.433-3.321A57.88,57.88,0,0,1,9.461,354.412c-.315-.373-.615-.743-.9-1.11a31.464,31.464,0,0,1-5.89-11.4,4.137,4.137,0,0,1,4.377-.686,31.079,31.079,0,0,0,11.95,2.176c5.507,0,10.424-1.181,13.681-3.032a4.022,4.022,0,0,1,3.978,0c3.257,1.851,8.175,3.032,13.681,3.032s10.424-1.181,13.678-3.032a4.028,4.028,0,0,1,3.981,0c3.257,1.851,8.175,3.032,13.681,3.032s10.421-1.181,13.678-3.032a4.028,4.028,0,0,1,3.981,0c3.257,1.851,8.175,3.032,13.678,3.032a31.108,31.108,0,0,0,11.953-2.176,4.116,4.116,0,0,1,3.627.167" transform="translate(-1.809 -230.467)" fill="#fdb74d"/>
      </g>
    </g>
  </g>
</svg>
