<svg xmlns="http://www.w3.org/2000/svg" width="820" height="181.615" viewBox="0 0 820 181.615">
  <g id="Grupo_81217" data-name="Grupo 81217" transform="translate(-390 -2340.828)">
    <g id="Grupo_80460" data-name="Grupo 80460" transform="translate(390 2340.828)">
      <path id="Rectángulo_4912" data-name="Rectángulo 4912" d="M12,0H185.415a0,0,0,0,1,0,0V53.167a0,0,0,0,1,0,0H12a12,12,0,0,1-12-12V12A12,12,0,0,1,12,0Z" fill="#e8e8e8" opacity="0.7"/>
    </g>
    <g id="Grupo_80461" data-name="Grupo 80461" transform="translate(787.7 2393.996) rotate(180)">
      <rect id="Rectángulo_4912-2" data-name="Rectángulo 4912" width="212.889" height="53.167" transform="translate(0)" fill="#fedc72" opacity="0.3"/>
    </g>
    <g id="Grupo_80462" data-name="Grupo 80462" transform="translate(998.85 2393.996) rotate(180)">
      <rect id="Rectángulo_4912-3" data-name="Rectángulo 4912" width="218.623" height="53.167" transform="translate(0)" fill="#fedc72"/>
    </g>
    <g id="Grupo_80463" data-name="Grupo 80463" transform="translate(1210 2393.996) rotate(180)">
      <path id="Rectángulo_4912-4" data-name="Rectángulo 4912" d="M12,0H218.623a0,0,0,0,1,0,0V53.167a0,0,0,0,1,0,0H12a12,12,0,0,1-12-12V12A12,12,0,0,1,12,0Z" transform="translate(0)" fill="#fdb74d"/>
    </g>
    <path id="Trazado_117369" data-name="Trazado 117369" d="M17.3,16.176V21H13.871V6.781h5.674a6.608,6.608,0,0,1,2.886.6,4.526,4.526,0,0,1,1.943,1.709,4.667,4.667,0,0,1,.688,2.515,4.114,4.114,0,0,1-1.489,3.325,6.179,6.179,0,0,1-4.087,1.245Zm0-2.646h2.246a2.118,2.118,0,0,0,1.519-.5,1.85,1.85,0,0,0,.522-1.406,2.287,2.287,0,0,0-.537-1.592,1.9,1.9,0,0,0-1.465-.605H17.3Zm8.9,2.09A6.236,6.236,0,0,1,26.81,12.8a4.4,4.4,0,0,1,1.768-1.9,5.323,5.323,0,0,1,2.705-.664,4.858,4.858,0,0,1,3.74,1.47,5.64,5.64,0,0,1,1.367,4v.117a5.472,5.472,0,0,1-1.372,3.921A4.871,4.871,0,0,1,31.3,21.2a4.927,4.927,0,0,1-3.623-1.353,5.29,5.29,0,0,1-1.475-3.667Zm3.291.205a3.932,3.932,0,0,0,.459,2.148,1.529,1.529,0,0,0,1.357.684q1.758,0,1.8-2.705v-.332q0-2.842-1.816-2.842-1.65,0-1.787,2.451Zm11.377-5.391.107,1.24a3.583,3.583,0,0,1,3.018-1.436,3.015,3.015,0,0,1,2.466.986,4.7,4.7,0,0,1,.845,2.969V21H44V14.33a1.783,1.783,0,0,0-.322-1.177,1.491,1.491,0,0,0-1.172-.376,1.569,1.569,0,0,0-1.436.762V21H37.777V10.434Zm7.842,5.205a6.455,6.455,0,0,1,1.084-3.955,3.568,3.568,0,0,1,3.027-1.445A3.035,3.035,0,0,1,55.2,11.352V6h3.3V21H55.541l-.166-1.133A3.116,3.116,0,0,1,52.8,21.2a3.562,3.562,0,0,1-2.988-1.445A6.659,6.659,0,0,1,48.705,15.639ZM52,15.844q0,2.813,1.641,2.813a1.62,1.62,0,0,0,1.563-.918V13.715a1.576,1.576,0,0,0-1.543-.937q-1.523,0-1.65,2.461ZM65.482,21.2a5.432,5.432,0,0,1-3.936-1.45,5.008,5.008,0,0,1-1.5-3.774V15.7a6.489,6.489,0,0,1,.6-2.861A4.395,4.395,0,0,1,62.4,10.917a5.292,5.292,0,0,1,2.734-.679,4.574,4.574,0,0,1,3.516,1.382,5.43,5.43,0,0,1,1.289,3.853v1.279H63.393a2.372,2.372,0,0,0,.771,1.4,2.3,2.3,0,0,0,1.543.508,2.958,2.958,0,0,0,2.441-1.094l1.5,1.777a4.2,4.2,0,0,1-1.743,1.353A5.891,5.891,0,0,1,65.482,21.2Zm-.371-8.418q-1.445,0-1.719,1.914h3.32v-.254a1.63,1.63,0,0,0-.4-1.226A1.593,1.593,0,0,0,65.111,12.777Zm12.539.635-1.084-.078a1.947,1.947,0,0,0-1.992.977V21H71.283V10.434h3.086l.107,1.357a2.548,2.548,0,0,1,2.314-1.553,3.209,3.209,0,0,1,.918.117ZM84.5,21a3.716,3.716,0,0,1-.312-.947A3.06,3.06,0,0,1,81.644,21.2a3.749,3.749,0,0,1-2.539-.9,2.875,2.875,0,0,1-1.045-2.271,2.955,2.955,0,0,1,1.27-2.6,6.468,6.468,0,0,1,3.691-.879h1.016v-.559q0-1.462-1.26-1.462a1.03,1.03,0,0,0-1.172,1.158H78.314a2.95,2.95,0,0,1,1.3-2.487,5.479,5.479,0,0,1,3.325-.956,4.8,4.8,0,0,1,3.193.986,3.429,3.429,0,0,1,1.2,2.705v4.678a4.79,4.79,0,0,0,.449,2.227V21Zm-2.061-2.148a1.836,1.836,0,0,0,1.021-.264,1.653,1.653,0,0,0,.581-.6V16.3H83.08q-1.719,0-1.719,1.543a.942.942,0,0,0,.3.728A1.1,1.1,0,0,0,82.435,18.852Zm11.191-.2A1.464,1.464,0,0,0,94.7,18.28a1.379,1.379,0,0,0,.371-1.05h3.086a3.653,3.653,0,0,1-1.245,2.852A4.631,4.631,0,0,1,93.705,21.2a4.689,4.689,0,0,1-3.633-1.445,5.7,5.7,0,0,1-1.328-4v-.137a6.436,6.436,0,0,1,.591-2.827,4.3,4.3,0,0,1,1.7-1.885,5.081,5.081,0,0,1,2.637-.659,4.573,4.573,0,0,1,3.271,1.143,4.053,4.053,0,0,1,1.211,3.1H95.072a1.806,1.806,0,0,0-.4-1.26,1.382,1.382,0,0,0-1.074-.439q-1.279,0-1.494,1.631a11.508,11.508,0,0,0-.068,1.426,4.52,4.52,0,0,0,.381,2.207A1.319,1.319,0,0,0,93.627,18.656ZM103.021,21h-3.3V10.434h3.3Zm-3.5-13.291a1.469,1.469,0,0,1,.508-1.152,2.159,2.159,0,0,1,2.637,0,1.469,1.469,0,0,1,.508,1.152,1.469,1.469,0,0,1-.508,1.152,2.159,2.159,0,0,1-2.637,0A1.469,1.469,0,0,1,99.525,7.709Zm5.107,7.91a6.236,6.236,0,0,1,.615-2.817,4.4,4.4,0,0,1,1.768-1.9,5.323,5.323,0,0,1,2.705-.664,4.858,4.858,0,0,1,3.74,1.47,5.64,5.64,0,0,1,1.367,4v.117a5.472,5.472,0,0,1-1.372,3.921,4.871,4.871,0,0,1-3.716,1.45,4.927,4.927,0,0,1-3.623-1.353,5.29,5.29,0,0,1-1.475-3.667Zm3.291.205a3.932,3.932,0,0,0,.459,2.148,1.529,1.529,0,0,0,1.357.684q1.758,0,1.8-2.705v-.332q0-2.842-1.816-2.842-1.65,0-1.787,2.451ZM110.17,6h3.477l-2.715,3.066-2.686,0Zm9.131,4.434.107,1.24a3.583,3.583,0,0,1,3.018-1.436,3.015,3.015,0,0,1,2.466.986,4.7,4.7,0,0,1,.845,2.969V21h-3.3V14.33a1.783,1.783,0,0,0-.322-1.177,1.491,1.491,0,0,0-1.172-.376,1.569,1.569,0,0,0-1.436.762V21h-3.291V10.434Z" transform="translate(402.272 2353.522)" fill="#12263f"/>
    <path id="Trazado_117370" data-name="Trazado 117370" d="M45.081,21H43.206V6.781h1.875Zm4.854-10.566.059,1.328a3.851,3.851,0,0,1,3.164-1.523q3.35,0,3.379,3.779V21H54.729V14.008a2.432,2.432,0,0,0-.522-1.689,2.094,2.094,0,0,0-1.6-.547,2.607,2.607,0,0,0-1.543.469,3.183,3.183,0,0,0-1.035,1.23V21H48.225V10.434ZM60.149,21V11.83h-1.67v-1.4h1.67V9.35a3.6,3.6,0,0,1,.908-2.627,3.431,3.431,0,0,1,2.568-.928,4.77,4.77,0,0,1,1.24.165l-.1,1.456a5.189,5.189,0,0,0-.977-.088,1.763,1.763,0,0,0-1.357.514,2.086,2.086,0,0,0-.479,1.474v1.117h2.256v1.4H61.956V21Zm10.439.2a4.617,4.617,0,0,1-3.5-1.411,5.237,5.237,0,0,1-1.348-3.774v-.332a6.341,6.341,0,0,1,.6-2.808,4.685,4.685,0,0,1,1.68-1.934,4.223,4.223,0,0,1,2.339-.7,3.957,3.957,0,0,1,3.2,1.357,5.877,5.877,0,0,1,1.143,3.887v.752H67.551a3.756,3.756,0,0,0,.913,2.524,2.87,2.87,0,0,0,2.222.962,3.147,3.147,0,0,0,1.621-.391,4.073,4.073,0,0,0,1.162-1.035l1.1.859A4.437,4.437,0,0,1,70.588,21.2Zm-.225-9.473a2.41,2.41,0,0,0-1.836.8,3.869,3.869,0,0,0-.918,2.231H72.9v-.137a3.441,3.441,0,0,0-.742-2.134A2.269,2.269,0,0,0,70.364,11.723Zm11.543.332a5.414,5.414,0,0,0-.889-.068A2.381,2.381,0,0,0,78.606,13.5V21H76.8V10.434h1.758l.029,1.221a2.813,2.813,0,0,1,2.52-1.416,1.846,1.846,0,0,1,.8.137ZM85.53,21H83.723V10.434H85.53ZM83.577,7.631a1.078,1.078,0,0,1,.269-.742,1.008,1.008,0,0,1,.8-.3,1.024,1.024,0,0,1,.8.3,1.067,1.067,0,0,1,.273.742,1.032,1.032,0,0,1-.273.732,1.043,1.043,0,0,1-.8.293,1.026,1.026,0,0,1-.8-.293A1.043,1.043,0,0,1,83.577,7.631Zm4.365,7.988a6.241,6.241,0,0,1,.61-2.793,4.553,4.553,0,0,1,1.7-1.914,4.626,4.626,0,0,1,2.485-.674,4.456,4.456,0,0,1,3.491,1.494,5.748,5.748,0,0,1,1.333,3.975v.127A6.3,6.3,0,0,1,96.97,18.6a4.486,4.486,0,0,1-1.689,1.909,4.679,4.679,0,0,1-2.524.684A4.445,4.445,0,0,1,89.275,19.7a5.719,5.719,0,0,1-1.333-3.955Zm1.816.215a4.52,4.52,0,0,0,.815,2.822,2.763,2.763,0,0,0,4.37-.015,4.943,4.943,0,0,0,.811-3.022,4.513,4.513,0,0,0-.825-2.817,2.623,2.623,0,0,0-2.192-1.079,2.594,2.594,0,0,0-2.158,1.064A4.906,4.906,0,0,0,89.758,15.834Zm15.176-3.779a5.414,5.414,0,0,0-.889-.068,2.381,2.381,0,0,0-2.412,1.514V21H99.827V10.434h1.758l.029,1.221a2.813,2.813,0,0,1,2.52-1.416,1.846,1.846,0,0,1,.8.137ZM118.069,21a3.8,3.8,0,0,1-.254-1.113,4.031,4.031,0,0,1-3.008,1.309,3.73,3.73,0,0,1-2.563-.884,2.859,2.859,0,0,1-1-2.241,2.987,2.987,0,0,1,1.255-2.563,5.916,5.916,0,0,1,3.53-.913h1.758v-.83a2.029,2.029,0,0,0-.566-1.509,2.276,2.276,0,0,0-1.67-.562,2.634,2.634,0,0,0-1.621.488,1.439,1.439,0,0,0-.654,1.182h-1.816a2.493,2.493,0,0,1,.562-1.528,3.832,3.832,0,0,1,1.523-1.167,5.125,5.125,0,0,1,2.114-.43,4.177,4.177,0,0,1,2.861.913,3.294,3.294,0,0,1,1.074,2.515v4.863a5.946,5.946,0,0,0,.371,2.314V21Zm-3-1.377a3.175,3.175,0,0,0,1.611-.439,2.658,2.658,0,0,0,1.1-1.143V15.873H116.37q-3.32,0-3.32,1.943a1.645,1.645,0,0,0,.566,1.328A2.177,2.177,0,0,0,115.071,19.623ZM124.387,21h-1.807V6h1.807Zm13.594,0h-1.816V8.959L132.522,10.3V8.656L137.7,6.713h.283Zm6.123-7.129.723-7.09h7.285v1.67H146.36l-.43,3.877a4.588,4.588,0,0,1,2.373-.615A3.923,3.923,0,0,1,151.389,13a5.033,5.033,0,0,1,1.143,3.472,4.858,4.858,0,0,1-1.187,3.462A4.325,4.325,0,0,1,148.03,21.2a4.494,4.494,0,0,1-3.076-1.045A4.171,4.171,0,0,1,143.6,17.26h1.709a2.869,2.869,0,0,0,.869,1.841,2.7,2.7,0,0,0,1.855.62,2.438,2.438,0,0,0,1.978-.859,3.593,3.593,0,0,0,.718-2.373,3.3,3.3,0,0,0-.776-2.29,2.641,2.641,0,0,0-2.065-.864,2.978,2.978,0,0,0-1.855.518l-.479.391Zm10.244-4.355a2.885,2.885,0,0,1,.815-2.109,3.064,3.064,0,0,1,4.2,0,2.985,2.985,0,0,1,.806,2.163v.693a2.848,2.848,0,0,1-.815,2.1,2.811,2.811,0,0,1-2.075.815,2.873,2.873,0,0,1-2.1-.815,2.908,2.908,0,0,1-.83-2.173Zm1.348.748a1.848,1.848,0,0,0,.43,1.258,1.45,1.45,0,0,0,1.152.494,1.422,1.422,0,0,0,1.118-.48,1.908,1.908,0,0,0,.425-1.312V9.51a1.894,1.894,0,0,0-.42-1.263,1.557,1.557,0,0,0-2.285,0,1.954,1.954,0,0,0-.42,1.3Zm5.576,7.25a2.869,2.869,0,0,1,.815-2.1,3.084,3.084,0,0,1,4.194,0,2.944,2.944,0,0,1,.82,2.178v.693a2.869,2.869,0,0,1-.815,2.1,2.806,2.806,0,0,1-2.085.825,2.873,2.873,0,0,1-2.1-.815,2.908,2.908,0,0,1-.83-2.173Zm1.348.758a1.862,1.862,0,0,0,.43,1.267,1.45,1.45,0,0,0,1.152.494,1.412,1.412,0,0,0,1.123-.484,1.942,1.942,0,0,0,.42-1.317v-.724a1.857,1.857,0,0,0-.425-1.263,1.561,1.561,0,0,0-2.266,0,1.884,1.884,0,0,0-.435,1.307Zm-4.932,1.654-1.025-.645,6.943-11.113,1.025.645Z" transform="translate(573.631 2353.522)" fill="#12263f"/>
    <path id="Trazado_117371" data-name="Trazado 117371" d="M44.509,21V6.781h4.014A6.461,6.461,0,0,1,51.8,7.6a5.548,5.548,0,0,1,2.2,2.334,7.6,7.6,0,0,1,.786,3.477v.908a7.624,7.624,0,0,1-.776,3.525A5.461,5.461,0,0,1,51.8,20.17a6.873,6.873,0,0,1-3.354.83ZM46.384,8.314V19.467h1.973a4.292,4.292,0,0,0,3.374-1.349,5.573,5.573,0,0,0,1.206-3.841v-.831A5.661,5.661,0,0,0,51.8,9.678a4.049,4.049,0,0,0-3.228-1.364ZM61.726,21.2a4.617,4.617,0,0,1-3.5-1.411,5.237,5.237,0,0,1-1.348-3.774v-.332a6.341,6.341,0,0,1,.6-2.808,4.685,4.685,0,0,1,1.68-1.934,4.223,4.223,0,0,1,2.339-.7A3.957,3.957,0,0,1,64.7,11.6a5.877,5.877,0,0,1,1.143,3.887v.752H58.689a3.756,3.756,0,0,0,.913,2.524,2.87,2.87,0,0,0,2.222.962,3.147,3.147,0,0,0,1.621-.391,4.073,4.073,0,0,0,1.162-1.035l1.1.859A4.437,4.437,0,0,1,61.726,21.2ZM61.5,11.723a2.41,2.41,0,0,0-1.836.8,3.868,3.868,0,0,0-.918,2.231H64.04v-.137a3.441,3.441,0,0,0-.742-2.134A2.269,2.269,0,0,0,61.5,11.723ZM69.9,21H68.093V6H69.9Zm13.594,0H81.677V8.959L78.035,10.3V8.656L83.21,6.713h.283ZM95.876,6.771V8.3h-.332a4.757,4.757,0,0,0-3.359,1.25,5.2,5.2,0,0,0-1.445,3.408,3.856,3.856,0,0,1,3.066-1.289,3.687,3.687,0,0,1,2.964,1.309,5.047,5.047,0,0,1,1.108,3.379,5.031,5.031,0,0,1-1.2,3.516A4.119,4.119,0,0,1,93.474,21.2a4.059,4.059,0,0,1-3.311-1.567,6.212,6.212,0,0,1-1.27-4.038V14.9a9.36,9.36,0,0,1,1.675-6,6.151,6.151,0,0,1,4.985-2.124ZM93.5,13.178a3.036,3.036,0,0,0-2.793,1.953v.664a4.664,4.664,0,0,0,.791,2.832A2.37,2.37,0,0,0,93.474,19.7a2.3,2.3,0,0,0,1.919-.9,3.728,3.728,0,0,0,.7-2.354,3.729,3.729,0,0,0-.708-2.368A2.269,2.269,0,0,0,93.5,13.178ZM111.677,21a3.8,3.8,0,0,1-.254-1.113,4.031,4.031,0,0,1-3.008,1.309,3.73,3.73,0,0,1-2.563-.884,2.859,2.859,0,0,1-1-2.241,2.987,2.987,0,0,1,1.255-2.563,5.916,5.916,0,0,1,3.53-.913h1.758v-.83a2.029,2.029,0,0,0-.566-1.509,2.276,2.276,0,0,0-1.67-.562,2.634,2.634,0,0,0-1.621.488,1.439,1.439,0,0,0-.654,1.182h-1.816a2.493,2.493,0,0,1,.562-1.528,3.832,3.832,0,0,1,1.523-1.167,5.125,5.125,0,0,1,2.114-.43,4.177,4.177,0,0,1,2.861.913,3.294,3.294,0,0,1,1.074,2.515v4.863a5.946,5.946,0,0,0,.371,2.314V21Zm-3-1.377a3.175,3.175,0,0,0,1.611-.439,2.658,2.658,0,0,0,1.1-1.143V15.873h-1.416q-3.32,0-3.32,1.943a1.645,1.645,0,0,0,.566,1.328A2.177,2.177,0,0,0,108.679,19.623ZM118,21h-1.807V6H118Zm10.283-7.988h1.357a2.984,2.984,0,0,0,2.012-.674,2.251,2.251,0,0,0,.732-1.768,2.205,2.205,0,0,0-2.49-2.5,2.59,2.59,0,0,0-1.87.669,2.341,2.341,0,0,0-.7,1.772h-1.807A3.627,3.627,0,0,1,126.75,7.7a4.5,4.5,0,0,1,3.14-1.118,4.447,4.447,0,0,1,3.154,1.064,3.845,3.845,0,0,1,1.143,2.959,3.121,3.121,0,0,1-.6,1.8,3.626,3.626,0,0,1-1.636,1.3,3.494,3.494,0,0,1,1.812,1.23,3.417,3.417,0,0,1,.64,2.1,3.879,3.879,0,0,1-1.25,3.037A4.681,4.681,0,0,1,129.9,21.2a4.8,4.8,0,0,1-3.257-1.084,3.6,3.6,0,0,1-1.255-2.861H127.2a2.324,2.324,0,0,0,.732,1.8,2.786,2.786,0,0,0,1.963.674,2.734,2.734,0,0,0,2-.684,2.635,2.635,0,0,0,.693-1.963,2.391,2.391,0,0,0-.762-1.9,3.319,3.319,0,0,0-2.2-.684h-1.357Zm9.434.859.723-7.09h7.285v1.67h-5.752l-.43,3.877a4.588,4.588,0,0,1,2.373-.615A3.923,3.923,0,0,1,145,13a5.033,5.033,0,0,1,1.143,3.472,4.858,4.858,0,0,1-1.187,3.462,4.325,4.325,0,0,1-3.315,1.265,4.494,4.494,0,0,1-3.076-1.045A4.171,4.171,0,0,1,137.2,17.26h1.709a2.869,2.869,0,0,0,.869,1.841,2.7,2.7,0,0,0,1.855.62,2.438,2.438,0,0,0,1.978-.859,3.593,3.593,0,0,0,.718-2.373,3.3,3.3,0,0,0-.776-2.29,2.641,2.641,0,0,0-2.065-.864,2.978,2.978,0,0,0-1.855.518l-.479.391Zm15.2-4.355a2.885,2.885,0,0,1,.815-2.109,3.064,3.064,0,0,1,4.2,0,2.985,2.985,0,0,1,.806,2.163v.693a2.848,2.848,0,0,1-.815,2.1,2.811,2.811,0,0,1-2.075.815,2.873,2.873,0,0,1-2.1-.815,2.908,2.908,0,0,1-.83-2.173Zm1.348.748a1.848,1.848,0,0,0,.43,1.258,1.45,1.45,0,0,0,1.152.494,1.422,1.422,0,0,0,1.118-.48,1.908,1.908,0,0,0,.425-1.312V9.51a1.894,1.894,0,0,0-.42-1.263,1.557,1.557,0,0,0-2.285,0,1.954,1.954,0,0,0-.42,1.3Zm5.576,7.25a2.869,2.869,0,0,1,.815-2.1,3.084,3.084,0,0,1,4.194,0,2.944,2.944,0,0,1,.82,2.178v.693a2.869,2.869,0,0,1-.815,2.1,2.806,2.806,0,0,1-2.085.825,2.873,2.873,0,0,1-2.1-.815,2.908,2.908,0,0,1-.83-2.173Zm1.348.758a1.862,1.862,0,0,0,.43,1.267,1.45,1.45,0,0,0,1.152.494,1.412,1.412,0,0,0,1.123-.484,1.942,1.942,0,0,0,.42-1.317v-.724a1.857,1.857,0,0,0-.425-1.263,1.561,1.561,0,0,0-2.266,0,1.884,1.884,0,0,0-.435,1.307Zm-4.932,1.654-1.025-.645,6.943-11.113,1.025.645Z" transform="translate(784.89 2353.522)" fill="#12263f"/>
    <path id="Trazado_117372" data-name="Trazado 117372" d="M39.436,14.662a8.817,8.817,0,0,1-3.511-1.7,3.256,3.256,0,0,1-1.1-2.5,3.439,3.439,0,0,1,1.343-2.778,5.337,5.337,0,0,1,3.491-1.1,5.825,5.825,0,0,1,2.612.566A4.3,4.3,0,0,1,44.05,8.715a4,4,0,0,1,.63,2.178H42.8a2.6,2.6,0,0,0-.82-2.034,3.336,3.336,0,0,0-2.314-.74,3.415,3.415,0,0,0-2.163.611,2.04,2.04,0,0,0-.776,1.7,1.835,1.835,0,0,0,.737,1.472,7.232,7.232,0,0,0,2.51,1.1,11.645,11.645,0,0,1,2.773,1.1,4.209,4.209,0,0,1,1.484,1.4,3.577,3.577,0,0,1,.483,1.885,3.322,3.322,0,0,1-1.348,2.769,5.746,5.746,0,0,1-3.6,1.04,6.683,6.683,0,0,1-2.734-.562A4.6,4.6,0,0,1,35.066,19.1a3.754,3.754,0,0,1-.688-2.217h1.885a2.449,2.449,0,0,0,.952,2.036,4.009,4.009,0,0,0,2.544.747,3.685,3.685,0,0,0,2.275-.605,1.967,1.967,0,0,0,.791-1.65,1.931,1.931,0,0,0-.732-1.616A8.444,8.444,0,0,0,39.436,14.662Zm13.916,5.293a3.837,3.837,0,0,1-3.1,1.24,3.285,3.285,0,0,1-2.573-.981,4.248,4.248,0,0,1-.894-2.905V10.434H48.6V17.26q0,2.4,1.953,2.4A2.7,2.7,0,0,0,53.3,18.119V10.434H55.11V21H53.391ZM66.78,15.834a6.327,6.327,0,0,1-1.1,3.887A3.537,3.537,0,0,1,62.688,21.2a3.875,3.875,0,0,1-3.027-1.221v5.088H57.854V10.434H59.5l.088,1.172a3.722,3.722,0,0,1,3.066-1.367,3.6,3.6,0,0,1,3.013,1.436,6.4,6.4,0,0,1,1.108,3.994Zm-1.807-.205a4.669,4.669,0,0,0-.762-2.822,2.454,2.454,0,0,0-2.09-1.035,2.656,2.656,0,0,0-2.461,1.455v5.049a2.661,2.661,0,0,0,2.48,1.445,2.442,2.442,0,0,0,2.065-1.03A5.1,5.1,0,0,0,64.973,15.629ZM73.459,21.2a4.617,4.617,0,0,1-3.5-1.411,5.237,5.237,0,0,1-1.348-3.774v-.332a6.341,6.341,0,0,1,.6-2.808,4.685,4.685,0,0,1,1.68-1.934,4.223,4.223,0,0,1,2.339-.7,3.957,3.957,0,0,1,3.2,1.357,5.877,5.877,0,0,1,1.143,3.887v.752H70.422a3.756,3.756,0,0,0,.913,2.524,2.87,2.87,0,0,0,2.222.962,3.147,3.147,0,0,0,1.621-.391,4.073,4.073,0,0,0,1.162-1.035l1.1.859A4.437,4.437,0,0,1,73.459,21.2Zm-.225-9.473a2.41,2.41,0,0,0-1.836.8,3.869,3.869,0,0,0-.918,2.231h5.293v-.137a3.441,3.441,0,0,0-.742-2.134A2.269,2.269,0,0,0,73.235,11.723Zm11.543.332a5.414,5.414,0,0,0-.889-.068A2.381,2.381,0,0,0,81.477,13.5V21H79.67V10.434h1.758l.029,1.221a2.813,2.813,0,0,1,2.52-1.416,1.846,1.846,0,0,1,.8.137ZM88.4,21H86.594V10.434H88.4ZM86.448,7.631a1.078,1.078,0,0,1,.269-.742,1.008,1.008,0,0,1,.8-.3,1.024,1.024,0,0,1,.8.3,1.067,1.067,0,0,1,.273.742,1.032,1.032,0,0,1-.273.732,1.043,1.043,0,0,1-.8.293,1.026,1.026,0,0,1-.8-.293A1.043,1.043,0,0,1,86.448,7.631Zm4.365,7.988a6.241,6.241,0,0,1,.61-2.793,4.553,4.553,0,0,1,1.7-1.914,4.626,4.626,0,0,1,2.485-.674A4.456,4.456,0,0,1,99.1,11.732a5.748,5.748,0,0,1,1.333,3.975v.127a6.3,6.3,0,0,1-.591,2.769,4.486,4.486,0,0,1-1.689,1.909,4.679,4.679,0,0,1-2.524.684A4.445,4.445,0,0,1,92.146,19.7a5.719,5.719,0,0,1-1.333-3.955Zm1.816.215a4.52,4.52,0,0,0,.815,2.822,2.763,2.763,0,0,0,4.37-.015,4.943,4.943,0,0,0,.811-3.022A4.513,4.513,0,0,0,97.8,12.8a2.623,2.623,0,0,0-2.192-1.079,2.594,2.594,0,0,0-2.158,1.064A4.906,4.906,0,0,0,92.629,15.834Zm15.176-3.779a5.414,5.414,0,0,0-.889-.068A2.381,2.381,0,0,0,104.5,13.5V21H102.7V10.434h1.758l.029,1.221A2.813,2.813,0,0,1,107,10.238a1.846,1.846,0,0,1,.8.137ZM120.94,21a3.8,3.8,0,0,1-.254-1.113,4.031,4.031,0,0,1-3.008,1.309,3.73,3.73,0,0,1-2.563-.884,2.859,2.859,0,0,1-1-2.241,2.987,2.987,0,0,1,1.255-2.563,5.916,5.916,0,0,1,3.53-.913h1.758v-.83a2.029,2.029,0,0,0-.566-1.509,2.276,2.276,0,0,0-1.67-.562,2.634,2.634,0,0,0-1.621.488,1.439,1.439,0,0,0-.654,1.182h-1.816a2.493,2.493,0,0,1,.562-1.528,3.832,3.832,0,0,1,1.523-1.167,5.125,5.125,0,0,1,2.114-.43,4.177,4.177,0,0,1,2.861.913,3.294,3.294,0,0,1,1.074,2.515v4.863a5.946,5.946,0,0,0,.371,2.314V21Zm-3-1.377a3.175,3.175,0,0,0,1.611-.439,2.658,2.658,0,0,0,1.1-1.143V15.873h-1.416q-3.32,0-3.32,1.943a1.645,1.645,0,0,0,.566,1.328A2.177,2.177,0,0,0,117.942,19.623ZM127.258,21h-1.807V6h1.807Zm10.283-7.988H138.9a2.984,2.984,0,0,0,2.012-.674,2.251,2.251,0,0,0,.732-1.768,2.205,2.205,0,0,0-2.49-2.5,2.59,2.59,0,0,0-1.87.669,2.341,2.341,0,0,0-.7,1.772h-1.807A3.627,3.627,0,0,1,136.013,7.7a4.5,4.5,0,0,1,3.14-1.118,4.447,4.447,0,0,1,3.154,1.064,3.845,3.845,0,0,1,1.143,2.959,3.121,3.121,0,0,1-.6,1.8,3.626,3.626,0,0,1-1.636,1.3,3.494,3.494,0,0,1,1.812,1.23,3.417,3.417,0,0,1,.64,2.1,3.879,3.879,0,0,1-1.25,3.037,4.681,4.681,0,0,1-3.252,1.123,4.8,4.8,0,0,1-3.257-1.084,3.6,3.6,0,0,1-1.255-2.861h1.816a2.324,2.324,0,0,0,.732,1.8,2.786,2.786,0,0,0,1.963.674,2.734,2.734,0,0,0,2-.684,2.635,2.635,0,0,0,.693-1.963,2.391,2.391,0,0,0-.762-1.9,3.319,3.319,0,0,0-2.2-.684h-1.357Zm9.434.859.723-7.09h7.285v1.67h-5.752l-.43,3.877a4.588,4.588,0,0,1,2.373-.615A3.923,3.923,0,0,1,154.26,13a5.033,5.033,0,0,1,1.143,3.472,4.858,4.858,0,0,1-1.187,3.462A4.325,4.325,0,0,1,150.9,21.2a4.494,4.494,0,0,1-3.076-1.045,4.171,4.171,0,0,1-1.357-2.891h1.709a2.869,2.869,0,0,0,.869,1.841,2.7,2.7,0,0,0,1.855.62,2.438,2.438,0,0,0,1.978-.859,3.593,3.593,0,0,0,.718-2.373,3.3,3.3,0,0,0-.776-2.29,2.641,2.641,0,0,0-2.065-.864,2.978,2.978,0,0,0-1.855.518l-.479.391Zm15.2-4.355a2.885,2.885,0,0,1,.815-2.109,3.064,3.064,0,0,1,4.2,0,2.985,2.985,0,0,1,.806,2.163v.693a2.848,2.848,0,0,1-.815,2.1,2.811,2.811,0,0,1-2.075.815,2.873,2.873,0,0,1-2.1-.815,2.908,2.908,0,0,1-.83-2.173Zm1.348.748a1.848,1.848,0,0,0,.43,1.258,1.45,1.45,0,0,0,1.152.494,1.422,1.422,0,0,0,1.118-.48,1.908,1.908,0,0,0,.425-1.312V9.51a1.894,1.894,0,0,0-.42-1.263,1.557,1.557,0,0,0-2.285,0,1.954,1.954,0,0,0-.42,1.3Zm5.576,7.25a2.869,2.869,0,0,1,.815-2.1,3.084,3.084,0,0,1,4.194,0,2.944,2.944,0,0,1,.82,2.178v.693a2.869,2.869,0,0,1-.815,2.1,2.806,2.806,0,0,1-2.085.825,2.873,2.873,0,0,1-2.1-.815,2.908,2.908,0,0,1-.83-2.173Zm1.348.758a1.862,1.862,0,0,0,.43,1.267,1.45,1.45,0,0,0,1.152.494,1.412,1.412,0,0,0,1.123-.484,1.942,1.942,0,0,0,.42-1.317v-.724a1.857,1.857,0,0,0-.425-1.263,1.561,1.561,0,0,0-2.266,0,1.884,1.884,0,0,0-.435,1.307Zm-4.932,1.654-1.025-.645,6.943-11.113,1.025.645Z" transform="translate(995.994 2351.229)" fill="#12263f"/>
    <g id="Grupo_80460-2" data-name="Grupo 80460" transform="translate(390 2405.053)">
      <path id="Rectángulo_4912-5" data-name="Rectángulo 4912" d="M12,0H185.415a0,0,0,0,1,0,0V53.167a0,0,0,0,1,0,0H12a12,12,0,0,1-12-12V12A12,12,0,0,1,12,0Z" fill="#e8e8e8" opacity="0.7"/>
    </g>
    <g id="Grupo_80461-2" data-name="Grupo 80461" transform="translate(787.7 2458.221) rotate(180)">
      <rect id="Rectángulo_4912-6" data-name="Rectángulo 4912" width="212.889" height="53.167" transform="translate(0)" fill="#fedc72" opacity="0.3"/>
    </g>
    <g id="Grupo_80462-2" data-name="Grupo 80462" transform="translate(998.85 2458.221) rotate(180)">
      <rect id="Rectángulo_4912-7" data-name="Rectángulo 4912" width="218.623" height="53.167" transform="translate(0)" fill="#fedc72"/>
    </g>
    <g id="Grupo_80463-2" data-name="Grupo 80463" transform="translate(1210 2458.221) rotate(180)">
      <path id="Rectángulo_4912-8" data-name="Rectángulo 4912" d="M12,0H218.623a0,0,0,0,1,0,0V53.167a0,0,0,0,1,0,0H12a12,12,0,0,1-12-12V12A12,12,0,0,1,12,0Z" transform="translate(0)" fill="#fdb74d"/>
    </g>
    <path id="Trazado_117365" data-name="Trazado 117365" d="M23.615,21H20.207l-5.039-8.848V21H11.74V6.781h3.428L20.2,15.629V6.781h3.418ZM29.1,21H25.8V10.434h3.3Zm-3.5-13.291a1.469,1.469,0,0,1,.508-1.152,2.159,2.159,0,0,1,2.637,0,1.469,1.469,0,0,1,.508,1.152,1.469,1.469,0,0,1-.508,1.152,2.159,2.159,0,0,1-2.637,0A1.469,1.469,0,0,1,25.607,7.709Zm9.736,9.375,1.67-6.65H40.48L37.033,21H33.674L30.226,10.434H33.7ZM46.574,21.2a5.432,5.432,0,0,1-3.936-1.45,5.008,5.008,0,0,1-1.5-3.774V15.7a6.489,6.489,0,0,1,.6-2.861,4.395,4.395,0,0,1,1.753-1.919,5.292,5.292,0,0,1,2.734-.679,4.574,4.574,0,0,1,3.516,1.382,5.43,5.43,0,0,1,1.289,3.853v1.279H44.484a2.372,2.372,0,0,0,.771,1.4,2.3,2.3,0,0,0,1.543.508,2.958,2.958,0,0,0,2.441-1.094l1.5,1.777A4.2,4.2,0,0,1,49,20.692,5.891,5.891,0,0,1,46.574,21.2ZM46.2,12.777q-1.445,0-1.719,1.914H47.8v-.254a1.63,1.63,0,0,0-.4-1.226A1.593,1.593,0,0,0,46.2,12.777ZM55.822,21h-3.3V6h3.3Zm6.592-5.361A6.455,6.455,0,0,1,63.5,11.684a3.568,3.568,0,0,1,3.027-1.445,3.035,3.035,0,0,1,2.383,1.113V6h3.3V21H69.25l-.166-1.133A3.116,3.116,0,0,1,66.506,21.2a3.562,3.562,0,0,1-2.988-1.445A6.659,6.659,0,0,1,62.414,15.639Zm3.291.205q0,2.813,1.641,2.813a1.62,1.62,0,0,0,1.563-.918V13.715a1.576,1.576,0,0,0-1.543-.937q-1.523,0-1.65,2.461ZM79.191,21.2a5.432,5.432,0,0,1-3.936-1.45,5.008,5.008,0,0,1-1.5-3.774V15.7a6.489,6.489,0,0,1,.6-2.861,4.395,4.395,0,0,1,1.753-1.919,5.292,5.292,0,0,1,2.734-.679,4.574,4.574,0,0,1,3.516,1.382,5.43,5.43,0,0,1,1.289,3.853v1.279H77.1a2.372,2.372,0,0,0,.771,1.4,2.3,2.3,0,0,0,1.543.508,2.958,2.958,0,0,0,2.441-1.094l1.5,1.777a4.2,4.2,0,0,1-1.743,1.353A5.891,5.891,0,0,1,79.191,21.2Zm-.371-8.418q-1.445,0-1.719,1.914h3.32v-.254a1.63,1.63,0,0,0-.4-1.226A1.593,1.593,0,0,0,78.82,12.777Zm17.52.635-1.084-.078a1.947,1.947,0,0,0-1.992.977V21H89.972V10.434h3.086l.107,1.357a2.548,2.548,0,0,1,2.314-1.553,3.209,3.209,0,0,1,.918.117ZM101,21H97.7V10.434H101ZM97.5,7.709a1.469,1.469,0,0,1,.508-1.152,2.159,2.159,0,0,1,2.637,0,1.469,1.469,0,0,1,.508,1.152,1.469,1.469,0,0,1-.508,1.152,2.159,2.159,0,0,1-2.637,0A1.469,1.469,0,0,1,97.5,7.709ZM108.136,21.2a5.432,5.432,0,0,1-3.936-1.45,5.008,5.008,0,0,1-1.5-3.774V15.7a6.489,6.489,0,0,1,.6-2.861,4.395,4.395,0,0,1,1.753-1.919,5.292,5.292,0,0,1,2.734-.679A4.574,4.574,0,0,1,111.3,11.62a5.43,5.43,0,0,1,1.289,3.853v1.279h-6.543a2.372,2.372,0,0,0,.771,1.4,2.3,2.3,0,0,0,1.543.508,2.958,2.958,0,0,0,2.441-1.094l1.5,1.777a4.2,4.2,0,0,1-1.743,1.353A5.891,5.891,0,0,1,108.136,21.2Zm-.371-8.418q-1.445,0-1.719,1.914h3.32v-.254a1.63,1.63,0,0,0-.4-1.226A1.593,1.593,0,0,0,107.765,12.777Zm11.68,5.254a.76.76,0,0,0-.439-.674,6.684,6.684,0,0,0-1.67-.527,7.615,7.615,0,0,1-2.031-.718,3.4,3.4,0,0,1-1.221-1.079,2.577,2.577,0,0,1-.42-1.455,2.92,2.92,0,0,1,1.2-2.4,4.948,4.948,0,0,1,3.145-.942,5.482,5.482,0,0,1,3.359.947,2.962,2.962,0,0,1,1.27,2.49h-3.3q0-1.27-1.338-1.27a1.326,1.326,0,0,0-.869.288.892.892,0,0,0-.352.718.819.819,0,0,0,.43.713,4.06,4.06,0,0,0,1.372.449,11.857,11.857,0,0,1,1.655.42,3.007,3.007,0,0,1,2.383,2.939,2.767,2.767,0,0,1-1.284,2.354,5.631,5.631,0,0,1-3.325.908,5.747,5.747,0,0,1-2.422-.488,4.05,4.05,0,0,1-1.66-1.328,3.007,3.007,0,0,1-.6-1.768h3.076a1.272,1.272,0,0,0,.488,1.069,2.009,2.009,0,0,0,1.2.337,1.58,1.58,0,0,0,1.011-.273A.875.875,0,0,0,119.445,18.031Zm4.326-2.393a7.134,7.134,0,0,1,.527-2.832,4.245,4.245,0,0,1,1.514-1.9,3.99,3.99,0,0,1,2.295-.669,3.173,3.173,0,0,1,2.578,1.113l.117-.918h2.988V20.6a4.455,4.455,0,0,1-.649,2.427,4.167,4.167,0,0,1-1.88,1.582,6.91,6.91,0,0,1-2.852.552,5.961,5.961,0,0,1-2.251-.439,4.063,4.063,0,0,1-1.665-1.143l1.377-1.934a3.018,3.018,0,0,0,2.422,1.084,1.96,1.96,0,0,0,2.188-2.246V20.15a3.09,3.09,0,0,1-2.393,1.045,3.819,3.819,0,0,1-3.125-1.479,6.13,6.13,0,0,1-1.191-3.96Zm3.3.205a3.759,3.759,0,0,0,.488,2.056,1.541,1.541,0,0,0,1.367.757,1.748,1.748,0,0,0,1.553-.713V13.5a1.7,1.7,0,0,0-1.533-.723,1.551,1.551,0,0,0-1.377.786A4.287,4.287,0,0,0,127.072,15.844Zm8.174-.225a6.236,6.236,0,0,1,.615-2.817,4.4,4.4,0,0,1,1.768-1.9,5.323,5.323,0,0,1,2.705-.664,4.858,4.858,0,0,1,3.74,1.47,5.64,5.64,0,0,1,1.367,4v.117a5.472,5.472,0,0,1-1.372,3.921,4.871,4.871,0,0,1-3.716,1.45,4.927,4.927,0,0,1-3.623-1.353,5.29,5.29,0,0,1-1.475-3.667Zm3.291.205A3.932,3.932,0,0,0,139,17.973a1.529,1.529,0,0,0,1.357.684q1.758,0,1.8-2.705v-.332q0-2.842-1.816-2.842-1.65,0-1.787,2.451Z" transform="translate(402.272 2417.747)" fill="#12263f"/>
    <path id="Trazado_117366" data-name="Trazado 117366" d="M86.589,21V6.781h4.648a5.4,5.4,0,0,1,3.481.957,3.449,3.449,0,0,1,1.167,2.832,2.888,2.888,0,0,1-.566,1.763,3.672,3.672,0,0,1-1.543,1.187A3.3,3.3,0,0,1,95.6,14.745a3.517,3.517,0,0,1,.669,2.153,3.8,3.8,0,0,1-1.24,3.008A5.129,5.129,0,0,1,91.521,21Zm1.875-6.65v5.117h3.1a2.981,2.981,0,0,0,2.065-.679,2.384,2.384,0,0,0,.757-1.87q0-2.568-2.793-2.568Zm0-1.5H91.3a2.969,2.969,0,0,0,1.968-.617A2.067,2.067,0,0,0,94,10.556a2.033,2.033,0,0,0-.684-1.708,3.357,3.357,0,0,0-2.08-.533H88.464ZM105.281,21a3.8,3.8,0,0,1-.254-1.113,4.031,4.031,0,0,1-3.008,1.309,3.73,3.73,0,0,1-2.563-.884,2.859,2.859,0,0,1-1-2.241,2.987,2.987,0,0,1,1.255-2.563,5.916,5.916,0,0,1,3.53-.913H105v-.83a2.029,2.029,0,0,0-.566-1.509,2.276,2.276,0,0,0-1.67-.562,2.634,2.634,0,0,0-1.621.488,1.439,1.439,0,0,0-.654,1.182H98.669a2.493,2.493,0,0,1,.562-1.528,3.832,3.832,0,0,1,1.523-1.167,5.125,5.125,0,0,1,2.114-.43,4.177,4.177,0,0,1,2.861.913,3.294,3.294,0,0,1,1.074,2.515v4.863a5.946,5.946,0,0,0,.371,2.314V21Zm-3-1.377a3.175,3.175,0,0,0,1.611-.439,2.658,2.658,0,0,0,1.1-1.143V15.873h-1.416q-3.32,0-3.32,1.943a1.645,1.645,0,0,0,.566,1.328A2.177,2.177,0,0,0,102.283,19.623Zm9.219-9.189V22.221q0,3.047-2.764,3.047a3.371,3.371,0,0,1-1.1-.175V23.656a3.493,3.493,0,0,0,.82.078,1.227,1.227,0,0,0,.923-.327,1.619,1.619,0,0,0,.317-1.139V10.434Zm-1.992-2.8a1.083,1.083,0,0,1,.269-.737.987.987,0,0,1,.786-.308,1.024,1.024,0,0,1,.8.3,1.067,1.067,0,0,1,.273.742,1.032,1.032,0,0,1-.273.732,1.043,1.043,0,0,1-.8.293,1.01,1.01,0,0,1-.791-.293A1.054,1.054,0,0,1,109.509,7.631Zm4.424,7.988a6.241,6.241,0,0,1,.61-2.793,4.553,4.553,0,0,1,1.7-1.914,4.626,4.626,0,0,1,2.485-.674,4.456,4.456,0,0,1,3.491,1.494,5.748,5.748,0,0,1,1.333,3.975v.127a6.3,6.3,0,0,1-.591,2.769,4.486,4.486,0,0,1-1.689,1.909,4.679,4.679,0,0,1-2.524.684,4.445,4.445,0,0,1-3.481-1.494,5.719,5.719,0,0,1-1.333-3.955Zm1.816.215a4.52,4.52,0,0,0,.815,2.822,2.763,2.763,0,0,0,4.37-.015,4.943,4.943,0,0,0,.811-3.022,4.513,4.513,0,0,0-.825-2.817,2.623,2.623,0,0,0-2.192-1.079,2.594,2.594,0,0,0-2.158,1.064A4.906,4.906,0,0,0,115.749,15.834Z" transform="translate(573.631 2417.747)" fill="#12263f"/>
    <path id="Trazado_117367" data-name="Trazado 117367" d="M63.425,6.781l4.648,11.6,4.648-11.6h2.432V21H73.279V15.463l.176-5.977L68.787,21H67.351L62.693,9.516l.186,5.947V21H61V6.781ZM77.7,15.619a6.241,6.241,0,0,1,.61-2.793,4.553,4.553,0,0,1,1.7-1.914,4.626,4.626,0,0,1,2.485-.674,4.456,4.456,0,0,1,3.491,1.494,5.748,5.748,0,0,1,1.333,3.975v.127a6.3,6.3,0,0,1-.591,2.769,4.486,4.486,0,0,1-1.689,1.909,4.679,4.679,0,0,1-2.524.684A4.445,4.445,0,0,1,79.036,19.7,5.719,5.719,0,0,1,77.7,15.746Zm1.816.215a4.52,4.52,0,0,0,.815,2.822,2.763,2.763,0,0,0,4.37-.015,4.943,4.943,0,0,0,.811-3.022A4.513,4.513,0,0,0,84.69,12.8,2.623,2.623,0,0,0,82.5,11.723a2.594,2.594,0,0,0-2.158,1.064A4.906,4.906,0,0,0,79.519,15.834Zm9.629-.205A6.19,6.19,0,0,1,90.3,11.718a3.921,3.921,0,0,1,5.957-.21V6h1.807V21H96.4l-.088-1.133A3.679,3.679,0,0,1,93.3,21.2a3.609,3.609,0,0,1-2.993-1.5,6.26,6.26,0,0,1-1.157-3.926Zm1.807.205a4.687,4.687,0,0,0,.742,2.813,2.4,2.4,0,0,0,2.051,1.016,2.636,2.636,0,0,0,2.51-1.543V13.266a2.656,2.656,0,0,0-2.49-1.494A2.411,2.411,0,0,0,91.7,12.8,5.16,5.16,0,0,0,90.955,15.834Zm14.3,5.361a4.617,4.617,0,0,1-3.5-1.411,5.237,5.237,0,0,1-1.348-3.774v-.332a6.341,6.341,0,0,1,.6-2.808,4.685,4.685,0,0,1,1.68-1.934,4.223,4.223,0,0,1,2.339-.7,3.957,3.957,0,0,1,3.2,1.357,5.877,5.877,0,0,1,1.143,3.887v.752h-7.158a3.756,3.756,0,0,0,.913,2.524,2.87,2.87,0,0,0,2.222.962,3.147,3.147,0,0,0,1.621-.391,4.073,4.073,0,0,0,1.162-1.035l1.1.859A4.437,4.437,0,0,1,105.251,21.2Zm-.225-9.473a2.41,2.41,0,0,0-1.836.8,3.869,3.869,0,0,0-.918,2.231h5.293v-.137a3.441,3.441,0,0,0-.742-2.134A2.269,2.269,0,0,0,105.027,11.723Zm11.543.332a5.414,5.414,0,0,0-.889-.068,2.381,2.381,0,0,0-2.412,1.514V21h-1.807V10.434h1.758l.029,1.221a2.813,2.813,0,0,1,2.52-1.416,1.846,1.846,0,0,1,.8.137ZM124.363,21a3.8,3.8,0,0,1-.254-1.113A4.031,4.031,0,0,1,121.1,21.2a3.73,3.73,0,0,1-2.563-.884,2.859,2.859,0,0,1-1-2.241,2.987,2.987,0,0,1,1.255-2.563,5.916,5.916,0,0,1,3.53-.913h1.758v-.83a2.029,2.029,0,0,0-.566-1.509,2.276,2.276,0,0,0-1.67-.562,2.634,2.634,0,0,0-1.621.488,1.439,1.439,0,0,0-.654,1.182h-1.816a2.493,2.493,0,0,1,.562-1.528,3.832,3.832,0,0,1,1.523-1.167,5.125,5.125,0,0,1,2.114-.43,4.177,4.177,0,0,1,2.861.913,3.294,3.294,0,0,1,1.074,2.515v4.863a5.946,5.946,0,0,0,.371,2.314V21Zm-3-1.377a3.175,3.175,0,0,0,1.611-.439,2.658,2.658,0,0,0,1.1-1.143V15.873h-1.416q-3.32,0-3.32,1.943a1.645,1.645,0,0,0,.566,1.328A2.177,2.177,0,0,0,121.365,19.623Zm6.914-3.994a6.19,6.19,0,0,1,1.152-3.911,3.921,3.921,0,0,1,5.957-.21V6h1.807V21h-1.66l-.088-1.133a3.679,3.679,0,0,1-3.018,1.328,3.609,3.609,0,0,1-2.993-1.5,6.26,6.26,0,0,1-1.157-3.926Zm1.807.205a4.687,4.687,0,0,0,.742,2.813,2.4,2.4,0,0,0,2.051,1.016,2.636,2.636,0,0,0,2.51-1.543V13.266a2.656,2.656,0,0,0-2.49-1.494,2.411,2.411,0,0,0-2.07,1.025A5.16,5.16,0,0,0,130.085,15.834Zm9.434-.215a6.241,6.241,0,0,1,.61-2.793,4.553,4.553,0,0,1,1.7-1.914,4.626,4.626,0,0,1,2.485-.674,4.456,4.456,0,0,1,3.491,1.494,5.748,5.748,0,0,1,1.333,3.975v.127a6.3,6.3,0,0,1-.591,2.769,4.486,4.486,0,0,1-1.689,1.909,4.679,4.679,0,0,1-2.524.684,4.445,4.445,0,0,1-3.481-1.494,5.719,5.719,0,0,1-1.333-3.955Zm1.816.215a4.52,4.52,0,0,0,.815,2.822,2.763,2.763,0,0,0,4.37-.015,4.943,4.943,0,0,0,.811-3.022,4.513,4.513,0,0,0-.825-2.817,2.623,2.623,0,0,0-2.192-1.079,2.594,2.594,0,0,0-2.158,1.064A4.906,4.906,0,0,0,141.335,15.834Z" transform="translate(784.89 2417.747)" fill="#12263f"/>
    <path id="Trazado_117368" data-name="Trazado 117368" d="M96.374,17.279H90.417L89.08,21H87.146l5.43-14.219h1.641L99.656,21H97.732Zm-5.391-1.533h4.834L93.4,9.1ZM103.249,21h-1.807V6h1.807Zm5.342-13.125v2.559h1.973v1.4h-1.973v6.561a1.467,1.467,0,0,0,.264.953,1.11,1.11,0,0,0,.9.318,4.374,4.374,0,0,0,.859-.117V21a5.268,5.268,0,0,1-1.387.194,2.25,2.25,0,0,1-1.826-.732,3.147,3.147,0,0,1-.615-2.08V11.83h-1.924v-1.4h1.924V7.875ZM112,15.619a6.241,6.241,0,0,1,.61-2.793,4.553,4.553,0,0,1,1.7-1.914,4.626,4.626,0,0,1,2.485-.674,4.456,4.456,0,0,1,3.491,1.494,5.748,5.748,0,0,1,1.333,3.975v.127a6.3,6.3,0,0,1-.591,2.769,4.486,4.486,0,0,1-1.689,1.909,4.679,4.679,0,0,1-2.524.684,4.445,4.445,0,0,1-3.481-1.494A5.719,5.719,0,0,1,112,15.746Zm1.816.215a4.52,4.52,0,0,0,.815,2.822,2.763,2.763,0,0,0,4.37-.015,4.943,4.943,0,0,0,.811-3.022,4.513,4.513,0,0,0-.825-2.817,2.623,2.623,0,0,0-2.192-1.079,2.594,2.594,0,0,0-2.158,1.064A4.906,4.906,0,0,0,113.816,15.834Z" transform="translate(995.994 2415.453)" fill="#12263f"/>
    <g id="Grupo_80460-3" data-name="Grupo 80460" transform="translate(390 2469.276)">
      <path id="Rectángulo_4912-9" data-name="Rectángulo 4912" d="M12,0H185.415a0,0,0,0,1,0,0V53.167a0,0,0,0,1,0,0H12a12,12,0,0,1-12-12V12A12,12,0,0,1,12,0Z" fill="#e8e8e8" opacity="0.7"/>
    </g>
    <g id="Grupo_80461-3" data-name="Grupo 80461" transform="translate(787.7 2522.443) rotate(180)">
      <rect id="Rectángulo_4912-10" data-name="Rectángulo 4912" width="212.889" height="53.167" transform="translate(0)" fill="#f6f6f6"/>
    </g>
    <g id="Grupo_80462-3" data-name="Grupo 80462" transform="translate(992.098 2522.443) rotate(180)">
      <rect id="Rectángulo_4912-11" data-name="Rectángulo 4912" width="416.683" height="53.167" transform="translate(0)" fill="#f6f6f6"/>
    </g>
    <g id="Grupo_80463-3" data-name="Grupo 80463" transform="translate(1210 2522.443) rotate(180)">
      <path id="Rectángulo_4912-12" data-name="Rectángulo 4912" d="M12,0H218.623a0,0,0,0,1,0,0V53.167a0,0,0,0,1,0,0H12a12,12,0,0,1-12-12V12A12,12,0,0,1,12,0Z" transform="translate(0)" fill="#e8e8e8"/>
    </g>
    <path id="Trazado_117362" data-name="Trazado 117362" d="M22.59,16.186a5.193,5.193,0,0,1-.8,2.622,4.833,4.833,0,0,1-2.056,1.763,7,7,0,0,1-3.022.625A5.584,5.584,0,0,1,12.3,19.369a7.54,7.54,0,0,1-1.611-5.156v-.7a8.607,8.607,0,0,1,.728-3.657,5.513,5.513,0,0,1,2.095-2.422,5.844,5.844,0,0,1,3.164-.854,6.129,6.129,0,0,1,4.16,1.362,5.383,5.383,0,0,1,1.787,3.755H19.2a2.547,2.547,0,0,0-.654-1.865,2.691,2.691,0,0,0-1.875-.566,2.048,2.048,0,0,0-1.875.957,6.151,6.151,0,0,0-.625,3.057v1.006a6.806,6.806,0,0,0,.571,3.252,2.091,2.091,0,0,0,1.968.977,2.632,2.632,0,0,0,1.807-.557,2.363,2.363,0,0,0,.664-1.768ZM30.011,21a3.716,3.716,0,0,1-.312-.947A3.06,3.06,0,0,1,27.16,21.2a3.749,3.749,0,0,1-2.539-.9,2.875,2.875,0,0,1-1.045-2.271,2.955,2.955,0,0,1,1.27-2.6,6.468,6.468,0,0,1,3.691-.879h1.016v-.559q0-1.462-1.26-1.462a1.03,1.03,0,0,0-1.172,1.158H23.83a2.95,2.95,0,0,1,1.3-2.487,5.479,5.479,0,0,1,3.325-.956,4.8,4.8,0,0,1,3.193.986,3.429,3.429,0,0,1,1.2,2.705v4.678a4.79,4.79,0,0,0,.449,2.227V21Zm-2.061-2.148a1.836,1.836,0,0,0,1.021-.264,1.653,1.653,0,0,0,.581-.6V16.3H28.6q-1.719,0-1.719,1.543a.942.942,0,0,0,.3.728A1.1,1.1,0,0,0,27.951,18.852ZM38.508,7.807v2.627h1.738v2.285H38.508v4.834a1.234,1.234,0,0,0,.215.83,1.152,1.152,0,0,0,.85.234,4.828,4.828,0,0,0,.82-.059v2.354a6.074,6.074,0,0,1-1.855.283,3.448,3.448,0,0,1-2.51-.8,3.282,3.282,0,0,1-.811-2.432V12.719H33.869V10.434h1.348V7.807ZM46.652,21.2a5.432,5.432,0,0,1-3.936-1.45,5.008,5.008,0,0,1-1.5-3.774V15.7a6.489,6.489,0,0,1,.6-2.861,4.395,4.395,0,0,1,1.753-1.919,5.292,5.292,0,0,1,2.734-.679,4.574,4.574,0,0,1,3.516,1.382,5.43,5.43,0,0,1,1.289,3.853v1.279H44.562a2.372,2.372,0,0,0,.771,1.4,2.3,2.3,0,0,0,1.543.508,2.958,2.958,0,0,0,2.441-1.094l1.5,1.777a4.2,4.2,0,0,1-1.743,1.353A5.891,5.891,0,0,1,46.652,21.2Zm-.371-8.418q-1.445,0-1.719,1.914h3.32v-.254a1.63,1.63,0,0,0-.4-1.226A1.593,1.593,0,0,0,46.281,12.777Zm5.762,2.861a7.134,7.134,0,0,1,.527-2.832,4.245,4.245,0,0,1,1.514-1.9,3.99,3.99,0,0,1,2.295-.669,3.173,3.173,0,0,1,2.578,1.113l.117-.918h2.988V20.6a4.455,4.455,0,0,1-.649,2.427,4.167,4.167,0,0,1-1.88,1.582,6.91,6.91,0,0,1-2.852.552,5.961,5.961,0,0,1-2.251-.439,4.063,4.063,0,0,1-1.665-1.143l1.377-1.934a3.018,3.018,0,0,0,2.422,1.084,1.96,1.96,0,0,0,2.188-2.246V20.15A3.09,3.09,0,0,1,56.359,21.2a3.819,3.819,0,0,1-3.125-1.479,6.13,6.13,0,0,1-1.191-3.96Zm3.3.205a3.759,3.759,0,0,0,.488,2.056,1.541,1.541,0,0,0,1.367.757,1.748,1.748,0,0,0,1.553-.713V13.5a1.7,1.7,0,0,0-1.533-.723,1.551,1.551,0,0,0-1.377.786A4.287,4.287,0,0,0,55.344,15.844Zm8.174-.225a6.236,6.236,0,0,1,.615-2.817A4.4,4.4,0,0,1,65.9,10.9a5.323,5.323,0,0,1,2.705-.664,4.858,4.858,0,0,1,3.74,1.47,5.64,5.64,0,0,1,1.367,4v.117a5.472,5.472,0,0,1-1.372,3.921,4.871,4.871,0,0,1-3.716,1.45A4.927,4.927,0,0,1,65,19.843a5.29,5.29,0,0,1-1.475-3.667Zm3.291.205a3.932,3.932,0,0,0,.459,2.148,1.529,1.529,0,0,0,1.357.684q1.758,0,1.8-2.705v-.332q0-2.842-1.816-2.842-1.65,0-1.787,2.451Zm14.746-2.412-1.084-.078a1.947,1.947,0,0,0-1.992.977V21H75.187V10.434h3.086l.107,1.357A2.548,2.548,0,0,1,80.7,10.238a3.209,3.209,0,0,1,.918.117ZM86.213,21h-3.3V10.434h3.3Zm-3.5-13.291a1.469,1.469,0,0,1,.508-1.152,2.159,2.159,0,0,1,2.637,0,1.469,1.469,0,0,1,.508,1.152,1.469,1.469,0,0,1-.508,1.152,2.159,2.159,0,0,1-2.637,0A1.469,1.469,0,0,1,82.717,7.709Zm9.4,10.752h4.814V21H87.961V19.164l4.688-6.191H88.166V10.434h8.662v1.777ZM104.484,21a3.716,3.716,0,0,1-.312-.947,3.06,3.06,0,0,1-2.539,1.143,3.749,3.749,0,0,1-2.539-.9,2.875,2.875,0,0,1-1.045-2.271,2.955,2.955,0,0,1,1.27-2.6,6.468,6.468,0,0,1,3.691-.879h1.016v-.559q0-1.462-1.26-1.462a1.03,1.03,0,0,0-1.172,1.158H98.3a2.95,2.95,0,0,1,1.3-2.487,5.479,5.479,0,0,1,3.325-.956,4.8,4.8,0,0,1,3.193.986,3.429,3.429,0,0,1,1.2,2.705v4.678a4.79,4.79,0,0,0,.449,2.227V21Zm-2.061-2.148a1.836,1.836,0,0,0,1.021-.264,1.653,1.653,0,0,0,.581-.6V16.3h-.957q-1.719,0-1.719,1.543a.942.942,0,0,0,.3.728A1.1,1.1,0,0,0,102.424,18.852Zm11.191-.2a1.464,1.464,0,0,0,1.074-.376,1.379,1.379,0,0,0,.371-1.05h3.086a3.653,3.653,0,0,1-1.245,2.852,4.631,4.631,0,0,1-3.208,1.113,4.689,4.689,0,0,1-3.633-1.445,5.7,5.7,0,0,1-1.328-4v-.137a6.436,6.436,0,0,1,.591-2.827,4.3,4.3,0,0,1,1.7-1.885,5.081,5.081,0,0,1,2.637-.659,4.573,4.573,0,0,1,3.271,1.143,4.053,4.053,0,0,1,1.211,3.1H115.06a1.806,1.806,0,0,0-.4-1.26,1.382,1.382,0,0,0-1.074-.439q-1.279,0-1.494,1.631a11.508,11.508,0,0,0-.068,1.426,4.52,4.52,0,0,0,.381,2.207A1.319,1.319,0,0,0,113.615,18.656ZM123.01,21h-3.3V10.434h3.3Zm-3.5-13.291a1.469,1.469,0,0,1,.508-1.152,2.159,2.159,0,0,1,2.637,0,1.469,1.469,0,0,1,.508,1.152,1.469,1.469,0,0,1-.508,1.152,2.159,2.159,0,0,1-2.637,0A1.469,1.469,0,0,1,119.513,7.709Zm5.107,7.91a6.236,6.236,0,0,1,.615-2.817A4.4,4.4,0,0,1,127,10.9a5.323,5.323,0,0,1,2.705-.664,4.859,4.859,0,0,1,3.74,1.47,5.64,5.64,0,0,1,1.367,4v.117a5.472,5.472,0,0,1-1.372,3.921,4.871,4.871,0,0,1-3.716,1.45,4.927,4.927,0,0,1-3.623-1.353,5.29,5.29,0,0,1-1.475-3.667Zm3.291.205a3.931,3.931,0,0,0,.459,2.148,1.529,1.529,0,0,0,1.357.684q1.758,0,1.8-2.705v-.332q0-2.842-1.816-2.842-1.65,0-1.787,2.451ZM130.158,6h3.477L130.92,9.066l-2.686,0Zm9.131,4.434.107,1.24a3.583,3.583,0,0,1,3.018-1.436,3.015,3.015,0,0,1,2.466.986,4.7,4.7,0,0,1,.845,2.969V21h-3.3V14.33a1.783,1.783,0,0,0-.322-1.177,1.491,1.491,0,0,0-1.172-.376,1.569,1.569,0,0,0-1.436.762V21H136.2V10.434Z" transform="translate(402.272 2481.971)" fill="#12263f"/>
    <path id="Trazado_117363" data-name="Trazado 117363" d="M60.837,21H58.953L51.794,10.043V21H49.91V6.781h1.885l7.178,11.006V6.781h1.865Zm2.568-5.381a6.241,6.241,0,0,1,.61-2.793,4.553,4.553,0,0,1,1.7-1.914,4.626,4.626,0,0,1,2.485-.674,4.456,4.456,0,0,1,3.491,1.494,5.748,5.748,0,0,1,1.333,3.975v.127a6.3,6.3,0,0,1-.591,2.769,4.486,4.486,0,0,1-1.689,1.909,4.679,4.679,0,0,1-2.524.684A4.445,4.445,0,0,1,64.739,19.7a5.719,5.719,0,0,1-1.333-3.955Zm1.816.215a4.52,4.52,0,0,0,.815,2.822,2.763,2.763,0,0,0,4.37-.015,4.943,4.943,0,0,0,.811-3.022,4.513,4.513,0,0,0-.825-2.817A2.623,2.623,0,0,0,68.2,11.723a2.594,2.594,0,0,0-2.158,1.064A4.906,4.906,0,0,0,65.222,15.834ZM84.48,19.721a2.6,2.6,0,0,0,1.689-.586,2.061,2.061,0,0,0,.8-1.465h1.709a3.276,3.276,0,0,1-.625,1.729,4.116,4.116,0,0,1-1.538,1.309,4.438,4.438,0,0,1-2.036.488,4.353,4.353,0,0,1-3.433-1.44,5.737,5.737,0,0,1-1.274-3.94v-.3a6.361,6.361,0,0,1,.566-2.744A4.314,4.314,0,0,1,81.965,10.9a4.619,4.619,0,0,1,2.5-.664A4.238,4.238,0,0,1,87.424,11.3a3.8,3.8,0,0,1,1.255,2.764H86.97a2.49,2.49,0,0,0-.776-1.685,2.415,2.415,0,0,0-1.724-.659,2.529,2.529,0,0,0-2.134.991,4.655,4.655,0,0,0-.757,2.866v.342a4.562,4.562,0,0,0,.752,2.813A2.541,2.541,0,0,0,84.48,19.721Zm5.752-4.1a6.241,6.241,0,0,1,.61-2.793,4.553,4.553,0,0,1,1.7-1.914,4.626,4.626,0,0,1,2.485-.674,4.456,4.456,0,0,1,3.491,1.494,5.748,5.748,0,0,1,1.333,3.975v.127A6.3,6.3,0,0,1,99.26,18.6a4.486,4.486,0,0,1-1.689,1.909,4.679,4.679,0,0,1-2.524.684A4.445,4.445,0,0,1,91.565,19.7a5.719,5.719,0,0,1-1.333-3.955Zm1.816.215a4.52,4.52,0,0,0,.815,2.822,2.763,2.763,0,0,0,4.37-.015,4.943,4.943,0,0,0,.811-3.022,4.513,4.513,0,0,0-.825-2.817,2.623,2.623,0,0,0-2.192-1.079,2.594,2.594,0,0,0-2.158,1.064A4.906,4.906,0,0,0,92.048,15.834Zm11.768-5.4.049,1.172A3.9,3.9,0,0,1,107,10.238a3.021,3.021,0,0,1,3.018,1.7,4,4,0,0,1,1.372-1.23,4.052,4.052,0,0,1,2-.469q3.477,0,3.535,3.682V21h-1.807V14.027a2.426,2.426,0,0,0-.518-1.694,2.279,2.279,0,0,0-1.738-.562,2.4,2.4,0,0,0-1.67.6,2.436,2.436,0,0,0-.771,1.616V21H108.6V14.076a2.016,2.016,0,0,0-2.256-2.3,2.417,2.417,0,0,0-2.432,1.514V21h-1.807V10.434Zm24.756,5.4a6.327,6.327,0,0,1-1.1,3.887A3.537,3.537,0,0,1,124.48,21.2a3.875,3.875,0,0,1-3.027-1.221v5.088h-1.807V10.434h1.65l.088,1.172a3.722,3.722,0,0,1,3.066-1.367,3.6,3.6,0,0,1,3.013,1.436,6.4,6.4,0,0,1,1.108,3.994Zm-1.807-.205A4.669,4.669,0,0,0,126,12.807a2.454,2.454,0,0,0-2.09-1.035,2.656,2.656,0,0,0-2.461,1.455v5.049a2.661,2.661,0,0,0,2.48,1.445A2.442,2.442,0,0,0,126,18.69,5.1,5.1,0,0,0,126.765,15.629ZM132.83,21h-1.807V6h1.807Zm7.275.2a4.617,4.617,0,0,1-3.5-1.411,5.237,5.237,0,0,1-1.348-3.774v-.332a6.341,6.341,0,0,1,.6-2.808,4.685,4.685,0,0,1,1.68-1.934,4.223,4.223,0,0,1,2.339-.7,3.957,3.957,0,0,1,3.2,1.357,5.877,5.877,0,0,1,1.143,3.887v.752h-7.158a3.756,3.756,0,0,0,.913,2.524,2.87,2.87,0,0,0,2.222.962,3.147,3.147,0,0,0,1.621-.391,4.073,4.073,0,0,0,1.162-1.035l1.1.859A4.437,4.437,0,0,1,140.1,21.2Zm-.225-9.473a2.41,2.41,0,0,0-1.836.8,3.868,3.868,0,0,0-.918,2.231h5.293v-.137a3.441,3.441,0,0,0-.742-2.134A2.269,2.269,0,0,0,139.88,11.723Zm8.3-1.289V22.221q0,3.047-2.764,3.047a3.371,3.371,0,0,1-1.1-.175V23.656a3.493,3.493,0,0,0,.82.078,1.227,1.227,0,0,0,.923-.327,1.619,1.619,0,0,0,.317-1.139V10.434Zm-1.992-2.8a1.083,1.083,0,0,1,.269-.737.987.987,0,0,1,.786-.308,1.024,1.024,0,0,1,.8.3,1.067,1.067,0,0,1,.273.742,1.032,1.032,0,0,1-.273.732,1.043,1.043,0,0,1-.8.293,1.01,1.01,0,0,1-.791-.293A1.054,1.054,0,0,1,146.189,7.631Zm4.424,7.988a6.241,6.241,0,0,1,.61-2.793,4.553,4.553,0,0,1,1.7-1.914,4.626,4.626,0,0,1,2.485-.674,4.456,4.456,0,0,1,3.491,1.494,5.748,5.748,0,0,1,1.333,3.975v.127a6.3,6.3,0,0,1-.591,2.769,4.486,4.486,0,0,1-1.689,1.909,4.679,4.679,0,0,1-2.524.684,4.445,4.445,0,0,1-3.481-1.494,5.719,5.719,0,0,1-1.333-3.955Zm1.816.215a4.52,4.52,0,0,0,.815,2.822,2.763,2.763,0,0,0,4.37-.015,4.943,4.943,0,0,0,.811-3.022A4.513,4.513,0,0,0,157.6,12.8a2.623,2.623,0,0,0-2.192-1.079,2.594,2.594,0,0,0-2.158,1.064A4.906,4.906,0,0,0,152.429,15.834Z" transform="translate(573.631 2481.971)" fill="#12263f"/>
    <path id="Trazado_117364" data-name="Trazado 117364" d="M74.4,16.488a5.231,5.231,0,0,1-1.665,3.481A5.457,5.457,0,0,1,69.011,21.2a5.01,5.01,0,0,1-4.038-1.807,7.268,7.268,0,0,1-1.519-4.834V13.188A8.1,8.1,0,0,1,64.163,9.7a5.289,5.289,0,0,1,2.007-2.31,5.588,5.588,0,0,1,3.008-.806A5.138,5.138,0,0,1,72.81,7.851a5.294,5.294,0,0,1,1.592,3.5H72.517a4.085,4.085,0,0,0-1.06-2.468,3.206,3.206,0,0,0-2.28-.764A3.355,3.355,0,0,0,66.36,9.448a6.1,6.1,0,0,0-1.021,3.782v1.378a6.273,6.273,0,0,0,.967,3.685,3.124,3.124,0,0,0,2.705,1.368,3.608,3.608,0,0,0,2.4-.708,3.929,3.929,0,0,0,1.108-2.466Zm1.8-.869a6.241,6.241,0,0,1,.61-2.793,4.553,4.553,0,0,1,1.7-1.914,4.626,4.626,0,0,1,2.485-.674,4.456,4.456,0,0,1,3.491,1.494,5.748,5.748,0,0,1,1.333,3.975v.127a6.3,6.3,0,0,1-.591,2.769,4.486,4.486,0,0,1-1.689,1.909,4.679,4.679,0,0,1-2.524.684A4.445,4.445,0,0,1,77.532,19.7,5.719,5.719,0,0,1,76.2,15.746Zm1.816.215a4.52,4.52,0,0,0,.815,2.822,2.763,2.763,0,0,0,4.37-.015,4.943,4.943,0,0,0,.811-3.022,4.513,4.513,0,0,0-.825-2.817,2.623,2.623,0,0,0-2.192-1.079,2.594,2.594,0,0,0-2.158,1.064A4.906,4.906,0,0,0,78.015,15.834Zm11.768-5.4.049,1.172a3.9,3.9,0,0,1,3.135-1.367,3.021,3.021,0,0,1,3.018,1.7,4,4,0,0,1,1.372-1.23,4.052,4.052,0,0,1,2-.469q3.477,0,3.535,3.682V21h-1.807V14.027a2.426,2.426,0,0,0-.518-1.694,2.279,2.279,0,0,0-1.738-.562,2.4,2.4,0,0,0-1.67.6,2.436,2.436,0,0,0-.771,1.616V21H94.568V14.076a2.016,2.016,0,0,0-2.256-2.3,2.417,2.417,0,0,0-2.432,1.514V21H88.074V10.434Zm24.756,5.4a6.327,6.327,0,0,1-1.1,3.887,3.537,3.537,0,0,1-2.988,1.475,3.875,3.875,0,0,1-3.027-1.221v5.088h-1.807V10.434h1.65l.088,1.172a3.722,3.722,0,0,1,3.066-1.367,3.6,3.6,0,0,1,3.013,1.436,6.4,6.4,0,0,1,1.108,3.994Zm-1.807-.205a4.669,4.669,0,0,0-.762-2.822,2.454,2.454,0,0,0-2.09-1.035,2.656,2.656,0,0,0-2.461,1.455v5.049a2.661,2.661,0,0,0,2.48,1.445,2.442,2.442,0,0,0,2.065-1.03A5.1,5.1,0,0,0,112.732,15.629ZM118.8,21H116.99V6H118.8Zm7.275.2a4.617,4.617,0,0,1-3.5-1.411,5.237,5.237,0,0,1-1.348-3.774v-.332a6.341,6.341,0,0,1,.6-2.808,4.685,4.685,0,0,1,1.68-1.934,4.223,4.223,0,0,1,2.339-.7,3.957,3.957,0,0,1,3.2,1.357,5.877,5.877,0,0,1,1.143,3.887v.752h-7.158a3.756,3.756,0,0,0,.913,2.524,2.87,2.87,0,0,0,2.222.962,3.147,3.147,0,0,0,1.621-.391,4.073,4.073,0,0,0,1.162-1.035l1.1.859A4.437,4.437,0,0,1,126.072,21.2Zm-.225-9.473a2.41,2.41,0,0,0-1.836.8,3.869,3.869,0,0,0-.918,2.231h5.293v-.137a3.441,3.441,0,0,0-.742-2.134A2.269,2.269,0,0,0,125.847,11.723Zm8.3-1.289V22.221q0,3.047-2.764,3.047a3.371,3.371,0,0,1-1.1-.175V23.656a3.493,3.493,0,0,0,.82.078,1.227,1.227,0,0,0,.923-.327,1.619,1.619,0,0,0,.317-1.139V10.434Zm-1.992-2.8a1.083,1.083,0,0,1,.269-.737.987.987,0,0,1,.786-.308,1.024,1.024,0,0,1,.8.3,1.067,1.067,0,0,1,.273.742,1.032,1.032,0,0,1-.273.732,1.043,1.043,0,0,1-.8.293,1.01,1.01,0,0,1-.791-.293A1.054,1.054,0,0,1,132.156,7.631Zm4.424,7.988a6.241,6.241,0,0,1,.61-2.793,4.553,4.553,0,0,1,1.7-1.914,4.626,4.626,0,0,1,2.485-.674,4.456,4.456,0,0,1,3.491,1.494,5.748,5.748,0,0,1,1.333,3.975v.127a6.3,6.3,0,0,1-.591,2.769,4.486,4.486,0,0,1-1.689,1.909,4.679,4.679,0,0,1-2.524.684,4.445,4.445,0,0,1-3.481-1.494,5.719,5.719,0,0,1-1.333-3.955Zm1.816.215a4.52,4.52,0,0,0,.815,2.822,2.763,2.763,0,0,0,4.37-.015,4.943,4.943,0,0,0,.811-3.022,4.513,4.513,0,0,0-.825-2.817,2.623,2.623,0,0,0-2.192-1.079,2.594,2.594,0,0,0-2.158,1.064A4.906,4.906,0,0,0,138.4,15.834Z" transform="translate(995.994 2479.677)" fill="#12263f"/>
  </g>
</svg>
