<svg xmlns="http://www.w3.org/2000/svg" xmlns:xlink="http://www.w3.org/1999/xlink" width="364.539" height="394.623" viewBox="0 0 364.539 394.623">
  <defs>
    <clipPath id="clip-path">
      <rect id="Rectángulo_34841" data-name="Rectángulo 34841" width="281.812" height="387.362" fill="none"/>
    </clipPath>
  </defs>
  <g id="Grupo_81219" data-name="Grupo 81219" transform="translate(492.757 8499.258)">
    <path id="Trazado_116417" data-name="Trazado 116417" d="M316.442,145.677a212.024,212.024,0,0,0-19.108-17.888,156.1,156.1,0,0,0-21.577-14.916,113.373,113.373,0,0,0-24.532-10.535,79.857,79.857,0,0,0-13.532-2.683c-1.167-.1-2.333-.23-3.516-.267-.59-.025-1.18-.062-1.774-.075l-1.786-.007c-1.2-.011-2.354.039-3.539.061-1.171.072-2.353.12-3.522.234a98.547,98.547,0,0,0-26.991,6.744c-8.507,3.3-16.462,7.293-24.115,11.111-3.824,1.917-7.589,3.782-11.293,5.515-1.855.877-3.689,1.7-5.515,2.5-.91.384-1.82.785-2.724,1.149l-2.8,1.137c-7.8,3.156-15.423,6.1-22.928,8.44-3.75,1.174-7.463,2.2-11.113,3.024-1.825.412-3.634.777-5.421,1.082s-3.555.535-5.29.712a50.949,50.949,0,0,1-18.71-1.132,34.04,34.04,0,0,1-3.823-1.312c-.609-.246-1.2-.519-1.778-.794l-.854-.432c-.256-.146-.514-.281-.766-.435a26.743,26.743,0,0,1-5.542-4.305c-.41-.42-.811-.846-1.191-1.292l-1.48-1.663c-.511-.573-.969-1.173-1.457-1.746-.47-.585-.9-1.187-1.353-1.767a44.752,44.752,0,0,1-4.324-7.24,40.091,40.091,0,0,1-2.7-7.439,40.514,40.514,0,0,1-1.212-7.718,58.055,58.055,0,0,1,1.478-16.563,86.9,86.9,0,0,1,6.13-17.449,93.594,93.594,0,0,1,4.5-8.481c.815-1.363,1.658-2.695,2.5-3.948.422-.622.851-1.223,1.261-1.767.2-.27.408-.533.59-.747a3.615,3.615,0,0,1,.252-.279c.032-.025.077-.078.09-.07l.015,0s.019-.019,0,.031l-.089.2A36.441,36.441,0,1,0,13.78,18.231l-.286.549-.183.375-.292.627-.5,1.125c-.314.724-.6,1.406-.87,2.083-.546,1.35-1.043,2.659-1.526,3.958C9.172,29.54,8.309,32.1,7.51,34.66c-1.594,5.122-2.923,10.273-4.046,15.5A151.792,151.792,0,0,0,0,82.64a114.888,114.888,0,0,0,5.087,34.053,100.349,100.349,0,0,0,6.8,16.421,93.32,93.32,0,0,0,9.627,14.805,96.256,96.256,0,0,0,11.8,12.437c1.062.905,2.113,1.826,3.189,2.7,1.085.851,2.156,1.727,3.255,2.537l1.651,1.2c.562.406,1.061.775,1.734,1.241,1.267.892,2.569,1.736,3.889,2.545a72.915,72.915,0,0,0,16.888,7.615c.738.231,1.486.434,2.231.64.73.188,1.45.371,2.177.543,1.453.333,2.908.637,4.365.883a77.442,77.442,0,0,0,8.7,1,83.987,83.987,0,0,0,16.673-.752,101.285,101.285,0,0,0,15.219-3.428,154.458,154.458,0,0,0,26.485-11.126c8.141-4.265,15.728-8.91,23.029-13.513l2.848-1.8c.977-.619,1.92-1.253,2.877-1.88,1.88-1.266,3.739-2.54,5.538-3.824,3.62-2.565,7.085-5.151,10.505-7.663,6.83-5.033,13.416-9.872,20.2-13.965a80.639,80.639,0,0,1,21.155-9.352c.921-.254,1.85-.445,2.781-.669l1.4-.271.7-.137c.234-.041.463-.064.7-.1l1.393-.188c.467-.054.939-.086,1.409-.131.94-.1,1.9-.123,2.85-.175.957-.031,1.921-.028,2.888-.025.968.045,1.94.035,2.915.124l1.465.1c.489.037.978.1,1.467.15.98.1,1.958.244,2.938.392.983.128,1.957.342,2.941.51.98.188,1.955.416,2.936.626.97.257,1.946.5,2.916.769.964.293,1.941.55,2.9.871,1.931.609,3.841,1.3,5.73,2.061.946.376,1.892.756,2.824,1.174l1.4.615,1.384.66a103.61,103.61,0,0,1,20.805,13.19,101.657,101.657,0,0,1,17.2,17.743,4.312,4.312,0,1,0,6.586-5.547Z" transform="translate(-128.217 -8334.867) rotate(155)" fill="#fdb74d"/>
    <g id="Grupo_81001" data-name="Grupo 81001" transform="translate(-474.624 -8491.997)">
      <g id="Grupo_80940" data-name="Grupo 80940" clip-path="url(#clip-path)">
        <path id="Trazado_115935" data-name="Trazado 115935" d="M136.405,341.894c2.837-6.752,1.491-9.37-4.935-11.285-1.181-.352-2.309-2.325-2.659-3.748-1-4.059-2.026-6.895-6.758-9.121-5.417-2.548-11.612-5.186-13.991-12.8-1.3-4.168-7.2-6.922-11.1-10.236-.65-.553-1.9-.475-2.434-1.077-2.2-2.493-4.736-1.754-7.6-2.059-4.926-.525-9.623-3.787-14.26-6.2-2.628-1.368-4.87-3.462-7.448-4.95a3.184,3.184,0,0,0-3.012.288c-5.351,6.088-11.154,2.68-16.912,1.045-1.6-.456-3.292-.613-4.91-1.028-2.413-.618-5.021-.252-5.091-4.567-.032-1.946-4.034-5.017-6.607-5.472-4.646-.822-8.456-1.928-10.605-6.457-.338-.714-1.078-1.676-1.713-1.742-7.131-.735-10.426-6.4-16.375-12.258l11.64-3.073c-5.259-6.265-4.2-12,3.381-17.426l1.837,4.213q.134-1.125.268-2.25a63.5,63.5,0,0,0,8.017-3.31,17.484,17.484,0,0,0,5.68-4.806c3.738-5.372,6.764-11.257,10.678-16.485,1.988-2.656,3.815-4.215.226-6.887-.675-.5.085-2.931.2-4.812l-2.459,2.717c-3.555-3.078-5.486-6.174-.853-10.214.974-.85,1.421-2.861,1.326-4.285-.408-6.1-.982-12.191-1.8-18.245-.191-1.418-1.561-2.678-2.392-4.016,6.994-5.461,6.925-5.42,2.135-13.3-.572-.94.031-2.647.214-3.982.5-3.646,3.447-6.995-2.359-10.215-3.789-2.1-5.746-7.723-8.127-11.989-.56-1,.282-2.977.83-4.366.8-2.02,1.914-3.913,3.076-6.221l2.936,3.237c2.719-3.148,6.072-5.859,7.7-9.371.9-1.935-1.308-5.181-1.754-7.894-.454-2.767-5.631-4.846-.9-8.879,2.4,6.377,11.442,8.055,10.458,17.392,1.244-.477,3.544-1.087,3.5-1.383-.648-4.833-1.592-9.626-2.521-14.7A112.019,112.019,0,0,0,60.953,83.2a23.263,23.263,0,0,0,5.424-6.562c2.156-3.67,3.666-7.437,9.358-6.051,1.138.277,4.773-3.8,4.461-4.389-3.055-5.743,1.234-10.759,1.131-16.161-.2-10.52,9.169-13.329,15.948-17.868,1.553-1.039,4.777.42,6.117,1.684l3.319,5.723,1.61-.081c1-3.361,1.563-6.958,3.175-10,1.014-1.912,4.441-4.646,5.362-4.182,10.222,5.145,17.946.005,25.852-5.349a43.115,43.115,0,0,1,8.871-4.543c5.874-2.222,7.856-4.623,8.222-11.362,4.273,1.107,6.868-1.344,10.222-3.6,2.2-1.478,7.5.971,11.039,2.5,1.474.638,2,3.471,3.679,6.7-5.623,2.453-10.978,4.54-16.083,7.121-2.544,1.285-5.727,3.019-6.7,5.35-2.058,4.95-6.765,6.668-9.86,10.113C146.925,38,143.081,44.652,142,52.906c-.8,6.163-1.935,12.7-6.894,17.566-1.276,1.252-1.8,3.27-3.275,6.1l6.709-2.25c2.21,1.108,4.126,1.709,5.543,2.9a6.719,6.719,0,0,1,1.936,3.808,22.549,22.549,0,0,0,6.627,12.981c2.79,2.715,2.578,5.976,1.04,9.877-1.386,3.516-.811,7.818-1,11.777-.022.445.62,1.341.9,1.32,5.344-.408,5.784,4.249,7.871,7.311a5.5,5.5,0,0,0,3.577,2.278c6.572.409,13.164.554,19.751.626,1.257.014,2.508-.973,3.787-1.043a56.514,56.514,0,0,1,8.651.038,37.819,37.819,0,0,1,7.671,1.657,8.88,8.88,0,0,1,4.089,2.474c3.9,4.777,7.514,9.787,11.335,14.632,2.433,3.086,5.034,4.813,8.995,1.723,1.371-1.07,3.98-1.115,5.9-.822a48.887,48.887,0,0,0,23.949-2.278c2.463-.856,5.582.173,8.4.34l1.124,5.72c-3.263,7.19-7.542,13.371-8.719,20.1a51.359,51.359,0,0,0,1.183,22.165c1.944,6.872,6.737,12.938,10.585,19.909l-12.7,11.475c9.642,2.651,14.393,9.351,17.306,17.772,1.806,5.222,3.543,10.472,5.125,15.766.383,1.282.587,3.367-.118,4.033-.877.828-2.783.567-4.245.777-.164-1.341-.392-2.679-.48-4.025-.314-4.84.418-9.842-4.6-13.318-1.425-.988-1.45-4-2.26-6.524L256.358,247.2l-5.489-4.221c-.238,2.49-.4,4.192-.627,6.558-8.065,0-16.859.361-25.612-.09-11.425-.588-11.657-.644-11.619,10.448,0,1.156,0,2.312,0,3.8,2.189.273,4.316.608,6.457.794,9.226.8,9.227.784,9.739,9.208L208.4,276.211c0,5.809-.257,11,.156,16.141.125,1.554,1.844,3.328,3.291,4.362,3.763,2.688,7.833,4.394,7.427,10.628-.243,3.735,3.307,7.6,3.595,11.52.3,4.06-1.32,8.253-2.044,12.4-3.2,18.331-6.384,36.665-9.765,56.1-2.979-3.27-4.942-6.617-7.863-8.267-2.489-1.405-6.082-.856-10.267-1.282l15.646-25.064c-6.409-3.776-12.354-7.574-18.609-10.76a7.1,7.1,0,0,0-6.2.694c-3.489,2.633-6.2,1.707-9.287-.389s-5.963-4.467-9.193.615c-1.258,1.978-5.359,3.5-7.827,3.1-7.016-1.118-14.874,1.224-21.051-4.118" transform="translate(0 0)" fill="#8c6df2"/>
      </g>
    </g>
  </g>
</svg>
