<svg id="Grupo_81151" data-name="Grupo 81151" xmlns="http://www.w3.org/2000/svg" xmlns:xlink="http://www.w3.org/1999/xlink" width="428.75" height="323.005" viewBox="0 0 428.75 323.005">
  <defs>
    <clipPath id="clip-path">
      <rect id="Rectángulo_34982" data-name="Rectángulo 34982" width="428.75" height="323.005" fill="none"/>
    </clipPath>
    <clipPath id="clip-path-3">
      <rect id="Rectángulo_34927" data-name="Rectángulo 34927" width="22.906" height="30.05" fill="none"/>
    </clipPath>
    <clipPath id="clip-path-4">
      <rect id="Rectángulo_34928" data-name="Rectángulo 34928" width="3.978" height="4.111" fill="none"/>
    </clipPath>
    <clipPath id="clip-path-5">
      <rect id="Rectángulo_34929" data-name="Rectángulo 34929" width="11.953" height="15.783" fill="none"/>
    </clipPath>
    <clipPath id="clip-path-6">
      <rect id="Rectángulo_34930" data-name="Rectángulo 34930" width="8.986" height="9.077" fill="none"/>
    </clipPath>
    <clipPath id="clip-path-7">
      <rect id="Rectángulo_34931" data-name="Rectángulo 34931" width="11.811" height="10.26" fill="none"/>
    </clipPath>
    <clipPath id="clip-path-8">
      <rect id="Rectángulo_34932" data-name="Rectángulo 34932" width="38.673" height="47.789" fill="none"/>
    </clipPath>
    <clipPath id="clip-path-9">
      <rect id="Rectángulo_34933" data-name="Rectángulo 34933" width="6.283" height="10.546" fill="none"/>
    </clipPath>
    <clipPath id="clip-path-10">
      <rect id="Rectángulo_34934" data-name="Rectángulo 34934" width="5.51" height="33.927" fill="none"/>
    </clipPath>
    <clipPath id="clip-path-11">
      <rect id="Rectángulo_34935" data-name="Rectángulo 34935" width="8.646" height="13.434" fill="none"/>
    </clipPath>
    <clipPath id="clip-path-12">
      <rect id="Rectángulo_34936" data-name="Rectángulo 34936" width="6.116" height="6.205" fill="none"/>
    </clipPath>
    <clipPath id="clip-path-13">
      <rect id="Rectángulo_34937" data-name="Rectángulo 34937" width="10.025" height="15.177" fill="none"/>
    </clipPath>
    <clipPath id="clip-path-14">
      <rect id="Rectángulo_34938" data-name="Rectángulo 34938" width="12.735" height="10.785" fill="none"/>
    </clipPath>
    <clipPath id="clip-path-15">
      <rect id="Rectángulo_34939" data-name="Rectángulo 34939" width="9.005" height="13.992" fill="none"/>
    </clipPath>
    <clipPath id="clip-path-16">
      <rect id="Rectángulo_34940" data-name="Rectángulo 34940" width="6.37" height="6.462" fill="none"/>
    </clipPath>
    <clipPath id="clip-path-17">
      <rect id="Rectángulo_34941" data-name="Rectángulo 34941" width="7.432" height="9.393" fill="none"/>
    </clipPath>
    <clipPath id="clip-path-18">
      <rect id="Rectángulo_34942" data-name="Rectángulo 34942" width="7.3" height="7.717" fill="none"/>
    </clipPath>
    <clipPath id="clip-path-19">
      <rect id="Rectángulo_34943" data-name="Rectángulo 34943" width="6.443" height="14.947" fill="none"/>
    </clipPath>
    <clipPath id="clip-path-20">
      <rect id="Rectángulo_34944" data-name="Rectángulo 34944" width="5.732" height="6.808" fill="none"/>
    </clipPath>
    <clipPath id="clip-path-21">
      <rect id="Rectángulo_34945" data-name="Rectángulo 34945" width="8.732" height="38.614" fill="none"/>
    </clipPath>
    <clipPath id="clip-path-22">
      <rect id="Rectángulo_34946" data-name="Rectángulo 34946" width="7.407" height="9.66" fill="none"/>
    </clipPath>
    <clipPath id="clip-path-23">
      <rect id="Rectángulo_34947" data-name="Rectángulo 34947" width="9.004" height="13.992" fill="none"/>
    </clipPath>
    <clipPath id="clip-path-24">
      <rect id="Rectángulo_34948" data-name="Rectángulo 34948" width="6.37" height="6.463" fill="none"/>
    </clipPath>
    <clipPath id="clip-path-25">
      <rect id="Rectángulo_34949" data-name="Rectángulo 34949" width="6.38" height="7.45" fill="none"/>
    </clipPath>
    <clipPath id="clip-path-26">
      <rect id="Rectángulo_34950" data-name="Rectángulo 34950" width="9.279" height="8.404" fill="none"/>
    </clipPath>
    <clipPath id="clip-path-27">
      <rect id="Rectángulo_34951" data-name="Rectángulo 34951" width="7.062" height="28.143" fill="none"/>
    </clipPath>
    <clipPath id="clip-path-28">
      <rect id="Rectángulo_34952" data-name="Rectángulo 34952" width="8.671" height="9.711" fill="none"/>
    </clipPath>
    <clipPath id="clip-path-29">
      <rect id="Rectángulo_34953" data-name="Rectángulo 34953" width="6.294" height="7.104" fill="none"/>
    </clipPath>
    <clipPath id="clip-path-30">
      <rect id="Rectángulo_34954" data-name="Rectángulo 34954" width="6.204" height="48.521" fill="none"/>
    </clipPath>
    <clipPath id="clip-path-31">
      <rect id="Rectángulo_34955" data-name="Rectángulo 34955" width="9.115" height="98.863" fill="none"/>
    </clipPath>
    <clipPath id="clip-path-35">
      <rect id="Rectángulo_34959" data-name="Rectángulo 34959" width="220.131" height="7.911" fill="none"/>
    </clipPath>
    <clipPath id="clip-path-37">
      <rect id="Rectángulo_34961" data-name="Rectángulo 34961" width="11.862" height="11.862" fill="none"/>
    </clipPath>
    <clipPath id="clip-path-38">
      <rect id="Rectángulo_34962" data-name="Rectángulo 34962" width="9.242" height="9.242" fill="none"/>
    </clipPath>
    <clipPath id="clip-path-40">
      <rect id="Rectángulo_34964" data-name="Rectángulo 34964" width="40.588" height="24.956" fill="none"/>
    </clipPath>
    <clipPath id="clip-path-41">
      <rect id="Rectángulo_34966" data-name="Rectángulo 34966" width="40.588" height="1.334" fill="none"/>
    </clipPath>
    <clipPath id="clip-path-42">
      <rect id="Rectángulo_34968" data-name="Rectángulo 34968" width="42.018" height="6.663" fill="none"/>
    </clipPath>
    <clipPath id="clip-path-43">
      <rect id="Rectángulo_34970" data-name="Rectángulo 34970" width="49.735" height="12.924" fill="none"/>
    </clipPath>
    <clipPath id="clip-path-44">
      <rect id="Rectángulo_34973" data-name="Rectángulo 34973" width="68.309" height="17.75" fill="none"/>
    </clipPath>
    <clipPath id="clip-path-45">
      <rect id="Rectángulo_34974" data-name="Rectángulo 34974" width="6.476" height="6.476" fill="none"/>
    </clipPath>
    <clipPath id="clip-path-46">
      <rect id="Rectángulo_34975" data-name="Rectángulo 34975" width="5.045" height="5.045" fill="none"/>
    </clipPath>
    <clipPath id="clip-path-48">
      <rect id="Rectángulo_34978" data-name="Rectángulo 34978" width="22.157" height="0.729" fill="none"/>
    </clipPath>
  </defs>
  <g id="Grupo_81150" data-name="Grupo 81150" clip-path="url(#clip-path)">
    <rect id="Rectángulo_34912" data-name="Rectángulo 34912" width="428.75" height="0.214" transform="translate(0 284.278)" fill="#ececec"/>
    <rect id="Rectángulo_34913" data-name="Rectángulo 34913" width="28.402" height="0.214" transform="translate(357.388 298.08)" fill="#ececec"/>
    <rect id="Rectángulo_34914" data-name="Rectángulo 34914" width="25.914" height="0.214" transform="translate(205.495 295.465)" fill="#ececec"/>
    <rect id="Rectángulo_34915" data-name="Rectángulo 34915" width="59.93" height="0.214" transform="translate(296.6 290.117)" fill="#ececec"/>
    <rect id="Rectángulo_34916" data-name="Rectángulo 34916" width="143.321" height="0.214" transform="translate(44.984 291.558)" fill="#ececec"/>
    <rect id="Rectángulo_34917" data-name="Rectángulo 34917" width="5.43" height="0.214" transform="translate(195.939 291.558)" fill="#ececec"/>
    <path id="Trazado_117052" data-name="Trazado 117052" d="M151.511,380.085H249.69L248.225,499.73H150.046Z" transform="translate(-85.054 -215.453)" fill="#e1e1e1"/>
    <path id="Trazado_117053" data-name="Trazado 117053" d="M150.085,348.667h96.221L235.825,481.921H139.6Z" transform="translate(-79.135 -197.644)" fill="#f0f0f0"/>
    <path id="Trazado_117054" data-name="Trazado 117054" d="M138.617,348.667h96.221L224.357,481.921H128.136Z" transform="translate(-72.634 -197.644)" fill="#f5f5f5"/>
    <path id="Trazado_117055" data-name="Trazado 117055" d="M229.626,484.457l9.189-116.825H167.071l-9.189,116.825Z" transform="translate(-89.496 -208.394)" fill="#fff"/>
    <rect id="Rectángulo_34918" data-name="Rectángulo 34918" width="222.899" height="97.078" transform="translate(107.867 24.455)" fill="#e7e7e7"/>
    <rect id="Rectángulo_34919" data-name="Rectángulo 34919" width="225.494" height="97.078" transform="translate(102.997 24.455)" fill="#f0f0f0"/>
    <rect id="Rectángulo_34920" data-name="Rectángulo 34920" width="222.899" height="5.034" transform="translate(107.867 121.533)" fill="#e7e7e7"/>
    <rect id="Rectángulo_34921" data-name="Rectángulo 34921" width="225.494" height="5.034" transform="translate(94.884 121.533)" fill="#f0f0f0"/>
    <rect id="Rectángulo_34922" data-name="Rectángulo 34922" width="211.858" height="83.443" transform="translate(109.815 31.272)" fill="#fafafa"/>
    <path id="Trazado_117056" data-name="Trazado 117056" d="M304.254,155.642,337.613,72.2H366.9l-33.358,83.443Z" transform="translate(-172.468 -40.926)" fill="#fff"/>
    <path id="Trazado_117057" data-name="Trazado 117057" d="M534.671,155.642,568.029,72.2h29.282l-33.358,83.443Z" transform="translate(-303.08 -40.926)" fill="#fff"/>
    <path id="Trazado_117058" data-name="Trazado 117058" d="M386.382,155.642,419.74,72.2h11.416L397.8,155.642Z" transform="translate(-219.022 -40.926)" fill="#fff"/>
    <rect id="Rectángulo_34923" data-name="Rectángulo 34923" width="0.866" height="83.443" transform="translate(109.815 31.272)" fill="#e7e7e7"/>
    <rect id="Rectángulo_34924" data-name="Rectángulo 34924" width="11.39" height="109.181" transform="translate(366.695 168.071)" fill="#f0f0f0"/>
    <rect id="Rectángulo_34925" data-name="Rectángulo 34925" width="179.652" height="6.918" transform="translate(194.059 277.252)" fill="#f0f0f0"/>
    <rect id="Rectángulo_34926" data-name="Rectángulo 34926" width="177.009" height="109.181" transform="translate(189.685 168.071)" fill="#f5f5f5"/>
    <g id="Grupo_81149" data-name="Grupo 81149">
      <g id="Grupo_81148" data-name="Grupo 81148" clip-path="url(#clip-path)">
        <path id="Trazado_117059" data-name="Trazado 117059" d="M610.32,454.857H465.98a7.378,7.378,0,0,1-7.378-7.378V426.428a7.378,7.378,0,0,1,7.378-7.378H610.32a7.378,7.378,0,0,1,7.378,7.378V447.48a7.378,7.378,0,0,1-7.378,7.378" transform="translate(-259.96 -237.54)" fill="#f0f0f0"/>
        <path id="Trazado_117060" data-name="Trazado 117060" d="M610.32,562.2H465.98a7.378,7.378,0,0,1-7.378-7.378V533.773a7.378,7.378,0,0,1,7.378-7.378H610.32a7.378,7.378,0,0,1,7.378,7.378v21.052a7.378,7.378,0,0,1-7.378,7.378" transform="translate(-259.96 -298.389)" fill="#f0f0f0"/>
        <path id="Trazado_117061" data-name="Trazado 117061" d="M527.781,459.627H624.3a2.342,2.342,0,0,0,2.336-2.336v-.24a2.342,2.342,0,0,0-2.336-2.336h-96.52a2.342,2.342,0,0,0-2.336,2.336v.24a2.342,2.342,0,0,0,2.336,2.336" transform="translate(-297.851 -257.758)" fill="#f5f5f5"/>
        <path id="Trazado_117062" data-name="Trazado 117062" d="M527.781,566.971H624.3a2.342,2.342,0,0,0,2.336-2.336v-.24a2.342,2.342,0,0,0-2.336-2.336h-96.52a2.342,2.342,0,0,0-2.336,2.336v.24a2.342,2.342,0,0,0,2.336,2.336" transform="translate(-297.851 -318.606)" fill="#f5f5f5"/>
        <path id="Trazado_117063" data-name="Trazado 117063" d="M443.6,710.595c0,5.363-74.437,9.71-166.26,9.71s-166.26-4.347-166.26-9.71,74.437-9.71,166.26-9.71,166.26,4.347,166.26,9.71" transform="translate(-62.968 -397.299)" fill="#f5f5f5"/>
        <path id="Trazado_117064" data-name="Trazado 117064" d="M159.324,73.61c0,12.033-7.435,24.39-16.607,24.39S126.11,85.642,126.11,73.61s7.435-19.184,16.607-19.184,16.607,7.151,16.607,19.184" transform="translate(-71.486 -30.852)" fill="#fedc72"/>
        <path id="Trazado_117065" data-name="Trazado 117065" d="M147.431,202.175h-.823c0-4.1,2.154-6.164,4.238-8.156,2.048-1.958,3.984-3.808,3.984-7.562s-1.935-5.6-3.984-7.561c-2.083-1.991-4.238-4.051-4.238-8.156s2.154-6.163,4.238-8.154c2.048-1.958,3.984-3.807,3.984-7.561h.822c0,4.1-2.154,6.164-4.238,8.155-2.049,1.958-3.983,3.807-3.983,7.56s1.935,5.6,3.983,7.562c2.083,1.991,4.238,4.05,4.238,8.155s-2.154,6.165-4.238,8.156c-2.049,1.958-3.983,3.808-3.983,7.561" transform="translate(-83.105 -87.877)" fill="#1a2e35"/>
        <path id="Trazado_117066" data-name="Trazado 117066" d="M160.676,152.178l-2.884,5.961h5.769Z" transform="translate(-89.445 -86.263)" fill="#5038a1"/>
        <path id="Trazado_117067" data-name="Trazado 117067" d="M162.656,154.673H160.71a1.142,1.142,0,1,1,0-2.284h1.946a1.142,1.142,0,0,1,0,2.284" transform="translate(-90.452 -86.382)" fill="#1a2e35"/>
        <path id="Trazado_117068" data-name="Trazado 117068" d="M704.911,19.183c0,12.033-7.435,24.39-16.607,24.39S671.7,31.215,671.7,19.183,679.132,0,688.3,0s16.607,7.151,16.607,19.184" transform="translate(-380.754 0.001)" fill="#fedc72"/>
        <path id="Trazado_117069" data-name="Trazado 117069" d="M693.017,147.748H692.2c0-4.1,2.154-6.165,4.238-8.156,2.048-1.958,3.984-3.808,3.984-7.561s-1.935-5.6-3.984-7.562c-2.084-1.991-4.238-4.051-4.238-8.156s2.154-6.163,4.238-8.154c2.048-1.958,3.984-3.808,3.984-7.561h.822c0,4.1-2.154,6.163-4.238,8.155-2.049,1.958-3.984,3.807-3.984,7.56s1.935,5.6,3.984,7.562c2.083,1.991,4.238,4.05,4.238,8.156s-2.154,6.164-4.238,8.156c-2.049,1.958-3.984,3.808-3.984,7.561" transform="translate(-392.373 -57.024)" fill="#1a2e35"/>
        <path id="Trazado_117070" data-name="Trazado 117070" d="M706.263,97.751l-2.884,5.961h5.769Z" transform="translate(-398.713 -55.41)" fill="#5038a1"/>
        <path id="Trazado_117071" data-name="Trazado 117071" d="M708.243,100.246H706.3a1.142,1.142,0,1,1,0-2.284h1.946a1.142,1.142,0,1,1,0,2.284" transform="translate(-399.72 -55.53)" fill="#1a2e35"/>
        <path id="Trazado_117072" data-name="Trazado 117072" d="M369.491,105.489c0,8.3-5.128,16.82-11.453,16.82s-11.452-8.522-11.452-16.82,5.128-13.229,11.452-13.229,11.453,4.931,11.453,13.229" transform="translate(-196.464 -52.298)" fill="#5038a1"/>
        <g id="Grupo_81012" data-name="Grupo 81012" transform="translate(150.122 39.962)" opacity="0.7">
          <g id="Grupo_81011" data-name="Grupo 81011">
            <g id="Grupo_81010" data-name="Grupo 81010" clip-path="url(#clip-path-3)">
              <path id="Trazado_117073" data-name="Trazado 117073" d="M369.491,105.489c0,8.3-5.128,16.82-11.453,16.82s-11.452-8.522-11.452-16.82,5.128-13.229,11.452-13.229,11.453,4.931,11.453,13.229" transform="translate(-346.586 -92.26)" fill="#fedc72"/>
            </g>
          </g>
        </g>
        <path id="Trazado_117074" data-name="Trazado 117074" d="M378.608,194.151h-.567c0-2.589-1.335-3.864-2.747-5.215-1.437-1.374-2.922-2.794-2.922-5.624s1.486-4.251,2.923-5.625c1.412-1.351,2.747-2.626,2.747-5.214s-1.335-3.864-2.747-5.214c-1.437-1.373-2.922-2.793-2.922-5.624h.567c0,2.588,1.335,3.864,2.747,5.214,1.437,1.373,2.922,2.793,2.922,5.624s-1.486,4.251-2.922,5.624c-1.413,1.351-2.747,2.626-2.747,5.215s1.335,3.864,2.747,5.215c1.437,1.373,2.922,2.793,2.922,5.624" transform="translate(-211.08 -91.623)" fill="#1a2e35"/>
        <path id="Trazado_117075" data-name="Trazado 117075" d="M370.423,159.671l-1.989,4.111h3.978Z" transform="translate(-208.848 -90.51)" fill="#5038a1"/>
        <g id="Grupo_81015" data-name="Grupo 81015" transform="translate(159.586 69.161)" opacity="0.7">
          <g id="Grupo_81014" data-name="Grupo 81014">
            <g id="Grupo_81013" data-name="Grupo 81013" clip-path="url(#clip-path-4)">
              <path id="Trazado_117076" data-name="Trazado 117076" d="M370.423,159.671l-1.989,4.111h3.978Z" transform="translate(-368.434 -159.671)" fill="#fff"/>
            </g>
          </g>
        </g>
        <path id="Trazado_117077" data-name="Trazado 117077" d="M371.788,161.392h-1.342a.787.787,0,1,1,0-1.575h1.342a.787.787,0,1,1,0,1.575" transform="translate(-209.543 -90.593)" fill="#1a2e35"/>
        <path id="Trazado_117078" data-name="Trazado 117078" d="M215.791,197.854c-1.491-9.058,2.379-5.673,6.542-10.535,7.688-8.98,20.206-10.113,21.112-1.348.717,6.935-16.024,11.366-19.314,11.205,2.79,2.835,13.194,3.081,10.132,15.757s-4.662,14.732-3.048,25.348-34.3,34.782-41.151,7.567c-5.437-21.608,16.01-25.461,7.533-31.111s2.954-17.561,18.193-16.883" transform="translate(-107.231 -102.01)" fill="#1a2e35"/>
        <path id="Trazado_117079" data-name="Trazado 117079" d="M285.592,204.978l-12.9,1.769c-8.783,3.249,5.232,10.9,7.965,9.829-1.626,2.861-7.645,12.673-4.916,20.85,1.917,5.745,6.983,4.782,9.485,3.617,6.555-3.051,10.641-27.029.367-36.066" transform="translate(-152.956 -116.193)" fill="#1a2e35"/>
        <path id="Trazado_117080" data-name="Trazado 117080" d="M326.925,288.17c1.455,1,3.033,2.081,4.589,3.058,1.561,1,3.128,1.978,4.72,2.874s3.2,1.726,4.792,2.445a21.1,21.1,0,0,0,4.6,1.532l-.8.006a8.725,8.725,0,0,0,3.651-1.44,28.648,28.648,0,0,0,3.911-3.039c1.276-1.149,2.511-2.4,3.713-3.7,1.21-1.282,2.389-2.671,3.5-4l3.047,1.9a51.285,51.285,0,0,1-2.871,4.957,47.2,47.2,0,0,1-3.456,4.629,30.126,30.126,0,0,1-4.334,4.212,14.23,14.23,0,0,1-6.307,2.973l-.318.054-.486-.048a24.914,24.914,0,0,1-6.459-1.631,49.01,49.01,0,0,1-5.594-2.558c-1.782-.946-3.524-1.928-5.21-2.989-1.689-1.083-3.311-2.138-4.972-3.389Z" transform="translate(-182.885 -162.065)" fill="#ffb570"/>
        <path id="Trazado_117081" data-name="Trazado 117081" d="M313.959,284.66c6.464-.453,8.441,3.5,8.441,3.5l-6.332,12.243a17.979,17.979,0,0,1-4.729-6.771c-1.27-3.883-1.772-8.668,2.62-8.976" transform="translate(-175.979 -161.34)" fill="#5038a1"/>
        <g id="Grupo_81018" data-name="Grupo 81018" transform="translate(134.469 123.284)" opacity="0.8">
          <g id="Grupo_81017" data-name="Grupo 81017">
            <g id="Grupo_81016" data-name="Grupo 81016" clip-path="url(#clip-path-5)">
              <path id="Trazado_117082" data-name="Trazado 117082" d="M313.959,284.66c6.464-.453,8.441,3.5,8.441,3.5l-6.332,12.243a17.979,17.979,0,0,1-4.729-6.771c-1.27-3.883-1.772-8.668,2.62-8.976" transform="translate(-310.448 -284.624)" fill="#fff"/>
            </g>
          </g>
        </g>
        <path id="Trazado_117083" data-name="Trazado 117083" d="M407.036,280.027l1.752-5.933,4.858,5.6s-2.183,2.787-5.131,2.834Z" transform="translate(-230.73 -155.371)" fill="#ffb570"/>
        <path id="Trazado_117084" data-name="Trazado 117084" d="M415.855,264.935l2.831,4.83-2.748,4.737-4.858-5.6Z" transform="translate(-233.022 -150.179)" fill="#ffb570"/>
        <path id="Trazado_117085" data-name="Trazado 117085" d="M244.7,684.54l7,.67,3.567-16.31-7-.67Z" transform="translate(-138.711 -378.789)" fill="#ffb570"/>
        <path id="Trazado_117086" data-name="Trazado 117086" d="M98.042,643.047l5.3,4.714L115.965,637l-5.3-4.714Z" transform="translate(-55.576 -358.415)" fill="#ffb570"/>
        <path id="Trazado_117087" data-name="Trazado 117087" d="M101.453,655.444,96.761,649a.561.561,0,0,0-.725-.172L90.4,651.809a1.14,1.14,0,0,0-.35,1.662c1.675,2.218,2.595,3.2,4.658,6.037,1.27,1.743,3.821,5.784,5.575,8.191,1.714,2.354,4.226.8,3.712-.358-2.307-5.2-2.369-8.241-2.2-10.682a1.852,1.852,0,0,0-.346-1.215" transform="translate(-50.923 -367.754)" fill="#1a2e35"/>
        <path id="Trazado_117088" data-name="Trazado 117088" d="M248.563,702.542h-8.416a.7.7,0,0,0-.665.512l-1.83,6.658a1.041,1.041,0,0,0,1.027,1.332c2.941-.051,4.377-.223,8.078-.223,2.277,0,8.162.236,11.306.236,3.075,0,3.718-3.109,2.446-3.39-5.705-1.263-8.994-3-10.755-4.665a1.729,1.729,0,0,0-1.192-.46" transform="translate(-134.692 -398.239)" fill="#1a2e35"/>
        <g id="Grupo_81021" data-name="Grupo 81021" transform="translate(107.57 289.445)" opacity="0.2">
          <g id="Grupo_81020" data-name="Grupo 81020">
            <g id="Grupo_81019" data-name="Grupo 81019" clip-path="url(#clip-path-6)">
              <path id="Trazado_117089" data-name="Trazado 117089" d="M257.331,668.909l-1.837,8.407h-7.148l1.983-9.077Z" transform="translate(-248.345 -668.239)"/>
            </g>
          </g>
        </g>
        <g id="Grupo_81024" data-name="Grupo 81024" transform="translate(48.575 273.875)" opacity="0.2">
          <g id="Grupo_81023" data-name="Grupo 81023">
            <g id="Grupo_81022" data-name="Grupo 81022" clip-path="url(#clip-path-7)">
              <path id="Trazado_117090" data-name="Trazado 117090" d="M118.653,632.292l5.3,4.717-6.509,5.543-5.3-4.716Z" transform="translate(-112.145 -632.292)"/>
            </g>
          </g>
        </g>
        <path id="Trazado_117091" data-name="Trazado 117091" d="M279.933,278.584s3.159,1.69-9.86,41.8l-28.476-4.38c2.261-11.516,3.374-18.66,1.493-43.3a85.05,85.05,0,0,1,12.337.267,91.567,91.567,0,0,1,12.93,1.989c5.476,1.361,11.576,3.619,11.576,3.619" transform="translate(-136.95 -154.523)" fill="#5038a1"/>
        <g id="Grupo_81027" data-name="Grupo 81027" transform="translate(104.647 118.074)" opacity="0.8">
          <g id="Grupo_81026" data-name="Grupo 81026">
            <g id="Grupo_81025" data-name="Grupo 81025" clip-path="url(#clip-path-8)">
              <path id="Trazado_117092" data-name="Trazado 117092" d="M279.933,278.584s3.159,1.69-9.86,41.8l-28.476-4.38c2.261-11.516,3.374-18.66,1.493-43.3a85.05,85.05,0,0,1,12.337.267,91.567,91.567,0,0,1,12.93,1.989c5.476,1.361,11.576,3.619,11.576,3.619" transform="translate(-241.597 -272.597)" fill="#fff"/>
            </g>
          </g>
        </g>
        <path id="Trazado_117093" data-name="Trazado 117093" d="M277.048,240.311c.176,4.286-.183,12.034-3.521,14.363,0,0,1.82,6.089,9.788,13.5,7.377-6.388,3.142-11.51,3.142-11.51-4.469-1.822-3.82-5.245-2.514-8.354Z" transform="translate(-155.05 -136.221)" fill="#ffb570"/>
        <g id="Grupo_81030" data-name="Grupo 81030" transform="translate(122.607 104.962)" opacity="0.2">
          <g id="Grupo_81029" data-name="Grupo 81029">
            <g id="Grupo_81028" data-name="Grupo 81028" clip-path="url(#clip-path-9)">
              <path id="Trazado_117094" data-name="Trazado 117094" d="M283.2,242.325a17.655,17.655,0,0,0,.63,7.407c.517,1.645,2.467,2.659,4.568,3.139a11.512,11.512,0,0,1,.945-3.42Z" transform="translate(-283.062 -242.325)"/>
            </g>
          </g>
        </g>
        <path id="Trazado_117095" data-name="Trazado 117095" d="M266.187,214.005c2.09,6.723,2.83,9.613,7.136,12.273,6.475,4,14.276-.036,14.237-7.248-.035-6.492-3.447-16.4-10.793-17.477a9.6,9.6,0,0,0-10.58,12.452" transform="translate(-150.633 -114.188)" fill="#ffb570"/>
        <path id="Trazado_117096" data-name="Trazado 117096" d="M262.507,193.811c6.336-8.345,18.609-10.075,20.089-5.108a6.638,6.638,0,0,1-2.713,7.594c-4.951,3.7-12.573,3.708-14.929,3.593,1.57,1.4,1.2,12.842-3.715,8.272S259.3,197,259.3,197Z" transform="translate(-146.478 -105.399)" fill="#1a2e35"/>
        <path id="Trazado_117097" data-name="Trazado 117097" d="M263.858,238.712a5.145,5.145,0,0,0,2.65,2.9c1.639.754,2.742-.645,2.524-2.34-.2-1.526-1.286-3.757-3.046-3.8a2.311,2.311,0,0,0-2.128,3.236" transform="translate(-149.479 -133.48)" fill="#ffb570"/>
        <path id="Trazado_117098" data-name="Trazado 117098" d="M270.346,378.728s3.312,55.561-1.18,76.727c-4.672,22.016-13.791,53.486-13.791,53.486l-13.3-.643s6.435-39.927,8-56.945c2.153-23.46-.581-75.833-.581-75.833Z" transform="translate(-137.223 -212.866)" fill="#fdb74d"/>
        <g id="Grupo_81033" data-name="Grupo 81033" transform="translate(113.188 176.128)" opacity="0.2">
          <g id="Grupo_81032" data-name="Grupo 81032">
            <g id="Grupo_81031" data-name="Grupo 81031" clip-path="url(#clip-path-10)">
              <path id="Trazado_117099" data-name="Trazado 117099" d="M266.781,408.4c-.223-5.17-3.4,2.057-5.463,7.251v.185c.239,7.567.439,16.243.478,24.711,2.743-7.243,5.425-22.168,4.985-32.147" transform="translate(-261.318 -406.624)"/>
            </g>
          </g>
        </g>
        <path id="Trazado_117100" data-name="Trazado 117100" d="M239.931,675.578l15.157.733,1.789-5.541-16.427-1.282Z" transform="translate(-136.006 -379.502)" fill="#5038a1"/>
        <path id="Trazado_117101" data-name="Trazado 117101" d="M190.3,376.036s-15.123,44.407-26.6,69.7c-9.268,20.426-42.109,48.97-42.109,48.97l-7.461-6.309S137.871,455.859,144.279,442c20.509-44.35,13.986-57.884,25.063-69.19Z" transform="translate(-64.695 -211.331)" fill="#fdb74d"/>
        <path id="Trazado_117102" data-name="Trazado 117102" d="M112.709,634.129l8.344,7.367,4.238-3.069-9.83-8.388Z" transform="translate(-63.889 -357.14)" fill="#5038a1"/>
        <path id="Trazado_117103" data-name="Trazado 117103" d="M238.96,368.606l-1.676,2.352c-.13.182.073.42.4.47l29.863,4.594c.257.039.489-.054.53-.213l.649-2.509c.045-.174-.155-.357-.436-.4l-28.836-4.436a.523.523,0,0,0-.5.143" transform="translate(-134.483 -208.86)" fill="#5038a1"/>
        <path id="Trazado_117104" data-name="Trazado 117104" d="M247.681,372.746l-.772-.119c-.154-.024-.259-.121-.233-.217l.872-3.256c.026-.1.172-.154.326-.13l.772.119c.154.024.259.121.233.216l-.871,3.256c-.026.1-.172.154-.326.13" transform="translate(-139.827 -209.18)" fill="#1a2e35"/>
        <path id="Trazado_117105" data-name="Trazado 117105" d="M300.781,380.914l-.772-.119c-.154-.024-.259-.121-.233-.216l.872-3.256c.026-.1.172-.154.326-.13l.772.119c.154.024.259.121.233.216l-.872,3.256c-.026.1-.172.154-.326.13" transform="translate(-169.927 -213.81)" fill="#1a2e35"/>
        <path id="Trazado_117106" data-name="Trazado 117106" d="M274.231,376.83l-.772-.119c-.154-.024-.259-.121-.233-.216l.872-3.256c.026-.1.172-.154.326-.13l.772.119c.154.024.259.121.233.217l-.871,3.256c-.026.1-.172.154-.326.13" transform="translate(-154.877 -211.495)" fill="#1a2e35"/>
        <path id="Trazado_117107" data-name="Trazado 117107" d="M291.7,227.455c.136.556.541.934.9.846s.547-.612.411-1.167-.541-.934-.9-.846-.547.612-.411,1.167" transform="translate(-165.326 -128.265)" fill="#1a2e35"/>
        <path id="Trazado_117108" data-name="Trazado 117108" d="M306.2,223.906c.136.556.541.934.9.846s.548-.612.411-1.167-.541-.934-.9-.846-.547.612-.411,1.167" transform="translate(-173.548 -126.253)" fill="#1a2e35"/>
        <path id="Trazado_117109" data-name="Trazado 117109" d="M306.86,221.986l1.241-.711s-.43,1.211-1.241.711" transform="translate(-173.945 -125.431)" fill="#1a2e35"/>
        <path id="Trazado_117110" data-name="Trazado 117110" d="M302.969,228.594a15.28,15.28,0,0,0,2.85,3.062,2.463,2.463,0,0,1-1.891.857Z" transform="translate(-171.739 -129.579)" fill="#ff8935"/>
        <path id="Trazado_117111" data-name="Trazado 117111" d="M296.241,242.182a.168.168,0,0,0-.14-.3,4.546,4.546,0,0,1-4.011-.842.168.168,0,1,0-.229.245,4.8,4.8,0,0,0,4.32.924.17.17,0,0,0,.061-.029" transform="translate(-165.412 -136.609)" fill="#1a2e35"/>
        <path id="Trazado_117112" data-name="Trazado 117112" d="M285.822,222.113a.331.331,0,0,0,.107-.136,2.677,2.677,0,0,1,1.824-1.6.336.336,0,1,0-.113-.662,3.335,3.335,0,0,0-2.327,2,.336.336,0,0,0,.51.4" transform="translate(-161.715 -124.543)" fill="#1a2e35"/>
        <path id="Trazado_117113" data-name="Trazado 117113" d="M307.348,215.122a.306.306,0,0,0,.047-.042.336.336,0,0,0-.02-.475,3.336,3.336,0,0,0-2.94-.875.336.336,0,0,0,.165.651,2.664,2.664,0,0,1,2.32.719.336.336,0,0,0,.428.022" transform="translate(-172.427 -121.118)" fill="#1a2e35"/>
        <path id="Trazado_117114" data-name="Trazado 117114" d="M196.842,286.161c-1.243,1.933-2.494,3.636-3.827,5.382-1.318,1.734-2.713,3.408-4.169,5.04a67.719,67.719,0,0,1-9.639,9.117,37.567,37.567,0,0,1-5.841,3.7,17.681,17.681,0,0,1-7.319,1.837,16.334,16.334,0,0,1-7.273-1.551,16.614,16.614,0,0,1-3.093-1.822q-.715-.531-1.377-1.12a14.255,14.255,0,0,1-1.3-1.321l2.517-2.564c.293.188.749.46,1.138.68.407.229.826.44,1.25.631a18.546,18.546,0,0,0,2.584.927,12.646,12.646,0,0,0,5.124.3,12.964,12.964,0,0,0,4.7-1.754,34.936,34.936,0,0,0,4.65-3.31,55.992,55.992,0,0,0,4.354-4.036c1.411-1.417,2.769-2.911,4.08-4.454s2.573-3.138,3.821-4.743c1.229-1.6,2.455-3.3,3.54-4.878Z" transform="translate(-86.73 -159.975)" fill="#ffb570"/>
        <path id="Trazado_117115" data-name="Trazado 117115" d="M151.918,329.329l-4.969-1.383,3.484-5.2s3.363,1.888,3.781,4.807Z" transform="translate(-83.299 -182.947)" fill="#ffb570"/>
        <path id="Trazado_117116" data-name="Trazado 117116" d="M142.881,325.519l1.252-4.783,3.994.868-3.484,5.2Z" transform="translate(-80.993 -181.811)" fill="#ffb570"/>
        <g id="Grupo_81036" data-name="Grupo 81036" transform="translate(60.554 134.294)" opacity="0.4">
          <g id="Grupo_81035" data-name="Grupo 81035">
            <g id="Grupo_81034" data-name="Grupo 81034" clip-path="url(#clip-path-11)">
              <path id="Trazado_117117" data-name="Trazado 117117" d="M147.929,322.88l-5.4.594a.582.582,0,0,1-.636-.474l-2.083-11.5a.582.582,0,0,1,.509-.682l7.015-.772a.582.582,0,0,1,.645.555l.467,11.677a.582.582,0,0,1-.518.6" transform="translate(-139.801 -310.043)" fill="#5038a1"/>
            </g>
          </g>
        </g>
        <g id="Grupo_81039" data-name="Grupo 81039" transform="translate(62.306 140.735)" opacity="0.7">
          <g id="Grupo_81038" data-name="Grupo 81038">
            <g id="Grupo_81037" data-name="Grupo 81037" clip-path="url(#clip-path-12)">
              <path id="Trazado_117118" data-name="Trazado 117118" d="M143.845,325.226l1.067,5.892,5.049-.556-.226-5.649Z" transform="translate(-143.845 -324.913)" fill="#5038a1"/>
            </g>
          </g>
        </g>
        <path id="Trazado_117119" data-name="Trazado 117119" d="M159.484,325.838l-.878-3.7-1.973-2.1-.944.166.778,1.83a3.712,3.712,0,0,0,.386,3.434l.349.515Z" transform="translate(-88.253 -181.412)" fill="#ffb570"/>
        <path id="Trazado_117120" data-name="Trazado 117120" d="M239.15,272.8c-2.987.429-4.5,3.668-4.5,3.668l6.233,11.471s4.361-3.4,3.729-7.272c-.658-4.032-2.051-8.357-5.459-7.868" transform="translate(-133.011 -154.618)" fill="#5038a1"/>
        <g id="Grupo_81042" data-name="Grupo 81042" transform="translate(101.636 118.148)" opacity="0.8">
          <g id="Grupo_81041" data-name="Grupo 81041">
            <g id="Grupo_81040" data-name="Grupo 81040" clip-path="url(#clip-path-13)">
              <path id="Trazado_117121" data-name="Trazado 117121" d="M239.15,272.8c-2.987.429-4.5,3.668-4.5,3.668l6.233,11.471s4.361-3.4,3.729-7.272c-.658-4.032-2.051-8.357-5.459-7.868" transform="translate(-234.647 -272.766)" fill="#fff"/>
            </g>
          </g>
        </g>
        <path id="Trazado_117122" data-name="Trazado 117122" d="M118.222,668.666a1.371,1.371,0,0,0,.214-.17.573.573,0,0,0,.185-.548c-.185-.887-2.577-1.81-2.849-1.912a.166.166,0,0,0-.18.041.168.168,0,0,0-.034.182c.366.871,1.11,2.358,1.992,2.539a.884.884,0,0,0,.672-.13m-2.19-2.165c.946.4,2.162,1.048,2.259,1.515a.238.238,0,0,1-.09.238.632.632,0,0,1-.584.213c-.476-.1-1.058-.823-1.586-1.966" transform="translate(-65.497 -377.538)" fill="#5038a1"/>
        <path id="Trazado_117123" data-name="Trazado 117123" d="M118.743,665a.766.766,0,0,0,.159-.13.585.585,0,0,0,.046-.733.876.876,0,0,0-.6-.443c-1.006-.221-2.663.973-2.733,1.024a.168.168,0,0,0,.029.289,4.453,4.453,0,0,0,3.1-.008m-2.613-.223a3.75,3.75,0,0,1,2.146-.754.542.542,0,0,1,.378.278c.106.189.056.282,0,.342a3.613,3.613,0,0,1-2.572.164l.047-.03" transform="translate(-65.498 -376.204)" fill="#5038a1"/>
        <path id="Trazado_117124" data-name="Trazado 117124" d="M268.326,703.421a2.8,2.8,0,0,0,1.643-.393,1.049,1.049,0,0,0,.427-.809.486.486,0,0,0-.211-.457c-.763-.517-3.629.785-4.2,1.051a.168.168,0,0,0,.035.316,11.24,11.24,0,0,0,2.3.292m1.34-1.452a.6.6,0,0,1,.331.072.155.155,0,0,1,.064.16.714.714,0,0,1-.294.56c-.494.373-1.657.422-3.163.144a10.44,10.44,0,0,1,3.063-.935" transform="translate(-150.722 -397.728)" fill="#5038a1"/>
        <path id="Trazado_117125" data-name="Trazado 117125" d="M266.059,700.917a.172.172,0,0,0,.064-.013c.95-.388,2.865-1.924,2.758-2.718-.023-.174-.143-.392-.575-.443-1.664-.2-2.381,2.84-2.41,2.969a.167.167,0,0,0,.055.165.169.169,0,0,0,.109.04m2.093-2.848a.923.923,0,0,1,.113.007c.176.021.271.073.282.156.062.46-1.261,1.674-2.229,2.205.221-.734.826-2.368,1.833-2.368" transform="translate(-150.721 -395.513)" fill="#5038a1"/>
        <path id="Trazado_117126" data-name="Trazado 117126" d="M292.356,225.536l1.241-.712s-.43,1.211-1.241.712" transform="translate(-165.723 -127.442)" fill="#1a2e35"/>
        <path id="Trazado_117127" data-name="Trazado 117127" d="M566.45,685.022l6.233-1.718-2.32-14.89-6.233,1.718Z" transform="translate(-319.78 -378.893)" fill="#ffc3bd"/>
        <path id="Trazado_117128" data-name="Trazado 117128" d="M447.072,687.534h6.465l1.61-14.971h-6.465Z" transform="translate(-253.425 -381.245)" fill="#ffc3bd"/>
        <path id="Trazado_117129" data-name="Trazado 117129" d="M450.489,705.4h-7.882a.564.564,0,0,0-.551.441l-1.277,5.747a.95.95,0,0,0,.947,1.15c2.536-.043,4.386-.192,7.58-.192,1.965,0,7.891.2,10.6.2,2.654,0,3.068-2.683,1.957-2.926-4.981-1.09-8.735-2.592-10.33-4.026a1.568,1.568,0,0,0-1.05-.4" transform="translate(-249.845 -399.858)" fill="#1a2e35"/>
        <path id="Trazado_117130" data-name="Trazado 117130" d="M573.865,701.043l-6.807,1.876a.564.564,0,0,0-.413.572l.3,5.879a.94.94,0,0,0,1.2.862c2.444-.718,5.952-1.84,9.038-2.69,3.608-.995,6.779-1.657,11.01-2.823,2.559-.705,2.556-3.488,1.42-3.427-5.17.277-9.182,1.26-14.112-.176a2.991,2.991,0,0,0-1.635-.072" transform="translate(-321.205 -397.342)" fill="#1a2e35"/>
        <path id="Trazado_117131" data-name="Trazado 117131" d="M514.513,215.856c.4.131.967.312,1.471.459l1.573.462c1.056.3,2.122.573,3.191.82,2.138.5,4.28.913,6.4,1.192a38.815,38.815,0,0,0,6.217.357,20.626,20.626,0,0,0,2.9-.276,14.275,14.275,0,0,0,2.609-.639,5.411,5.411,0,0,0,.587-.226l.289-.117.072-.029c.013-.006.006,0,.01-.006h.011l.017.007c.015-.006.044-.029.066-.043l.15-.089c.137-.12.263-.192.422-.343a20.483,20.483,0,0,0,2.022-2.1c1.373-1.63,2.747-3.455,4.067-5.319,2.656-3.732,5.271-7.655,7.865-11.525L558.8,200.6a111.88,111.88,0,0,1-5.835,13.266,64.738,64.738,0,0,1-3.814,6.444,26.929,26.929,0,0,1-2.583,3.273c-.251.275-.586.574-.881.855l-.552.45-.288.224-.36.238-.366.23-.18.108-.127.066-.51.265c-.341.176-.683.355-1.029.495a25.729,25.729,0,0,1-8.288,2.022,42.387,42.387,0,0,1-7.923-.075,58.467,58.467,0,0,1-7.546-1.244q-1.847-.431-3.666-.95c-.606-.175-1.215-.351-1.82-.551-.622-.206-1.173-.394-1.889-.66Z" transform="translate(-289.742 -112.486)" fill="#ffc3bd"/>
        <path id="Trazado_117132" data-name="Trazado 117132" d="M499.409,244.4c2.88,5.469,21.326,8.707,21.326,8.707l4.7-15.542s-7.287-1.872-15.129-3.434c-5.262-1.048-14.035,4.318-10.9,10.269" transform="translate(-282.718 -132.641)" fill="#fedc72"/>
        <g id="Grupo_81045" data-name="Grupo 81045" transform="translate(221.556 108.906)" opacity="0.2">
          <g id="Grupo_81044" data-name="Grupo 81044">
            <g id="Grupo_81043" data-name="Grupo 81043" clip-path="url(#clip-path-14)">
              <path id="Trazado_117133" data-name="Trazado 117133" d="M517.7,251.626c2.3,1.521,5.467,6.766,6.536,10.589A63.932,63.932,0,0,1,511.5,258.1c1.39-2.7,4.308-7.72,6.2-6.47" transform="translate(-511.504 -251.43)"/>
            </g>
          </g>
        </g>
        <path id="Trazado_117134" data-name="Trazado 117134" d="M610.379,191.816l3.554-5.9,4.32,6.129a6.945,6.945,0,0,1-4.866,2.9Z" transform="translate(-345.996 -105.387)" fill="#ffc3bd"/>
        <path id="Trazado_117135" data-name="Trazado 117135" d="M622.156,177.781l3.22,5.492-2.471,4.16-4.32-6.129Z" transform="translate(-350.647 -100.776)" fill="#ffc3bd"/>
        <g id="Grupo_81048" data-name="Grupo 81048" transform="translate(269.889 74.014)" opacity="0.4">
          <g id="Grupo_81047" data-name="Grupo 81047">
            <g id="Grupo_81046" data-name="Grupo 81046" clip-path="url(#clip-path-15)">
              <path id="Trazado_117136" data-name="Trazado 117136" d="M623.63,184.245l5.623.619a.605.605,0,0,0,.662-.494l2.169-11.977a.606.606,0,0,0-.53-.71l-7.307-.8a.605.605,0,0,0-.671.578l-.486,12.162a.605.605,0,0,0,.539.626" transform="translate(-623.09 -170.876)" fill="#5038a1"/>
            </g>
          </g>
        </g>
        <g id="Grupo_81051" data-name="Grupo 81051" transform="translate(270.699 80.722)" opacity="0.7">
          <g id="Grupo_81050" data-name="Grupo 81050">
            <g id="Grupo_81049" data-name="Grupo 81049" clip-path="url(#clip-path-16)">
              <path id="Trazado_117137" data-name="Trazado 117137" d="M631.33,186.689l-1.111,6.137-5.259-.579.235-5.884Z" transform="translate(-624.96 -186.363)" fill="#5038a1"/>
            </g>
          </g>
        </g>
        <g id="Grupo_81054" data-name="Grupo 81054" transform="translate(244.348 289.525)" opacity="0.2">
          <g id="Grupo_81053" data-name="Grupo 81053">
            <g id="Grupo_81052" data-name="Grupo 81052" clip-path="url(#clip-path-17)">
              <path id="Trazado_117138" data-name="Trazado 117138" d="M570.358,668.424l1.2,7.675-6.235,1.718-1.2-7.675Z" transform="translate(-564.123 -668.424)"/>
            </g>
          </g>
        </g>
        <g id="Grupo_81057" data-name="Grupo 81057" transform="translate(194.422 291.322)" opacity="0.2">
          <g id="Grupo_81056" data-name="Grupo 81056">
            <g id="Grupo_81055" data-name="Grupo 81055" clip-path="url(#clip-path-18)">
              <path id="Trazado_117139" data-name="Trazado 117139" d="M449.694,672.572h6.468l-.833,7.717h-6.468Z" transform="translate(-448.861 -672.572)"/>
            </g>
          </g>
        </g>
        <path id="Trazado_117140" data-name="Trazado 117140" d="M441.976,235.06a145.333,145.333,0,0,1,4.108,21.266c.611,5.01.979,9.79,1.206,14.126.538,10.162.314,17.91.616,20.535,5.055-.35,24.106-1.675,34.493-2.4,4.7-36.775-4.272-55.722-4.272-55.722a67.53,67.53,0,0,0-8.257-1.021c-.584-.038-1.179-.058-1.782-.07a127.438,127.438,0,0,0-14.665,1.02c-.923.11-1.856.245-2.764.391-4.619.752-8.683,1.877-8.683,1.877" transform="translate(-250.536 -131.376)" fill="#fedc72"/>
        <path id="Trazado_117141" data-name="Trazado 117141" d="M464.784,232.791a127.586,127.586,0,0,1,14.667-1.02c.6.009,1.2.033,1.784.066a1.726,1.726,0,0,1,.205.016c1.044,2.163,2.562,11.2-2.247,11.866-6.528.9-14.073-7.336-17.172-10.535.9-.148,1.841-.288,2.762-.395" transform="translate(-261.899 -131.376)" fill="#fff"/>
        <g id="Grupo_81060" data-name="Grupo 81060" transform="translate(193.707 112.988)" opacity="0.2">
          <g id="Grupo_81059" data-name="Grupo 81059">
            <g id="Grupo_81058" data-name="Grupo 81058" clip-path="url(#clip-path-19)">
              <path id="Trazado_117142" data-name="Trazado 117142" d="M453.653,260.854a27.2,27.2,0,0,1-4.27,14.947c-.1-.985-.211-1.979-.333-2.983-.46-3.764-1.054-7.661-1.84-11.6Z" transform="translate(-447.21 -260.854)"/>
            </g>
          </g>
        </g>
        <path id="Trazado_117143" data-name="Trazado 117143" d="M468.709,195.784c1.254,4.654,2.781,13.234-.3,16.613a14.7,14.7,0,0,0,11.619,3.709c4.053-.371,4.059-3.223,3.045-4.732-5.348-.889-5.485-4.8-4.825-8.532Z" transform="translate(-265.519 -110.981)" fill="#ffc3bd"/>
        <g id="Grupo_81063" data-name="Grupo 81063" transform="translate(206.991 87.683)" opacity="0.2">
          <g id="Grupo_81062" data-name="Grupo 81062">
            <g id="Grupo_81061" data-name="Grupo 81061" clip-path="url(#clip-path-20)">
              <path id="Trazado_117144" data-name="Trazado 117144" d="M477.966,202.433l5.645,4.174a15.157,15.157,0,0,0-.271,2.634c-2.03-.15-4.945-2.164-5.306-4.253a7.094,7.094,0,0,1-.069-2.555" transform="translate(-477.879 -202.433)"/>
            </g>
          </g>
        </g>
        <path id="Trazado_117145" data-name="Trazado 117145" d="M461.822,167.649c2.194,6.029,3.172,9.67,7.206,11.9,6.068,3.361,12.816-1.694,12.468-8.258-.314-5.908-3.849-14.775-10.583-15.44a8.751,8.751,0,0,0-9.09,11.795" transform="translate(-261.474 -88.321)" fill="#ffc3bd"/>
        <path id="Trazado_117146" data-name="Trazado 117146" d="M488.837,193.967h0a4.705,4.705,0,0,1-4.273-.73.165.165,0,0,1,.215-.25,4.458,4.458,0,0,0,3.967.664.165.165,0,0,1,.095.316" transform="translate(-274.643 -109.373)" fill="#1a2e35"/>
        <path id="Trazado_117147" data-name="Trazado 117147" d="M456.591,181.228c3.868.881,2.854-9,.653-10.929s-7.462-.784-8.381,1.492,2.466,8.239,7.728,9.437" transform="translate(-254.355 -95.979)" fill="#1a2e35"/>
        <path id="Trazado_117148" data-name="Trazado 117148" d="M449.485,138.8s8.514-2.2,13.738-7.016c-6.476-5.407-17.392-15.09-17.392-15.09s1.99,13.257,3.654,22.106" transform="translate(-252.721 -66.149)" fill="#5038a1"/>
        <path id="Trazado_117149" data-name="Trazado 117149" d="M450.009,160.923c-3.149,0-.35-9.987,14.281-10.741s.517,10.726-14.281,10.741" transform="translate(-254.433 -85.111)" fill="#1a2e35"/>
        <path id="Trazado_117150" data-name="Trazado 117150" d="M466.9,153.393c.556-3.38,4.195-7.673,5.3-6.942s.967,5.8.967,5.8Z" transform="translate(-264.665 -82.969)" fill="#1a2e35"/>
        <path id="Trazado_117151" data-name="Trazado 117151" d="M474.616,149.927c1.311-3.165,5.831-6.518,6.74-5.555s-.378,5.865-.378,5.865Z" transform="translate(-269.038 -81.743)" fill="#1a2e35"/>
        <path id="Trazado_117152" data-name="Trazado 117152" d="M482.417,150.775c2.049-2.569,6.6-3.655,7.457-2.721s-.549,3.425-.549,3.425Z" transform="translate(-273.46 -83.738)" fill="#1a2e35"/>
        <path id="Trazado_117153" data-name="Trazado 117153" d="M459.377,194.311a6.1,6.1,0,0,0,4.409,1.5c2.133-.152,2.482-2.234,1.288-3.871-1.075-1.474-3.479-3.17-5.332-2.209a2.739,2.739,0,0,0-.365,4.576" transform="translate(-259.799 -107.393)" fill="#ffc3bd"/>
        <path id="Trazado_117154" data-name="Trazado 117154" d="M527.484,500.854l-10.554,2.9s-13.217-41.664-16.464-64.546c-.862-6.068-2.19-14.6-4.218-23.692-2.561-11.457-5.773-23.845-8.4-33.545-2.775-10.217-4.888-17.449-4.888-17.449l22.677-1.581s12.27,53.517,13.572,73.205c1.356,20.471,8.278,64.7,8.278,64.7" transform="translate(-273.766 -205.737)" fill="#5038a1"/>
        <path id="Trazado_117155" data-name="Trazado 117155" d="M527.484,500.854l-10.554,2.9s-13.217-41.664-16.464-64.546c-.862-6.068-2.19-14.6-4.218-23.692-2.561-11.457-5.773-23.845-8.4-33.545-2.775-10.217-4.888-17.449-4.888-17.449l22.677-1.581s12.27,53.517,13.572,73.205c1.356,20.471,8.278,64.7,8.278,64.7" transform="translate(-273.766 -205.737)" fill="#5038a1"/>
        <g id="Grupo_81066" data-name="Grupo 81066" transform="translate(214.079 171.169)" opacity="0.2">
          <g id="Grupo_81065" data-name="Grupo 81065">
            <g id="Grupo_81064" data-name="Grupo 81064" clip-path="url(#clip-path-21)">
              <path id="Trazado_117156" data-name="Trazado 117156" d="M502.644,433.791c-2.561-11.457-5.773-23.845-8.4-33.546l2.353-5.068c5.625,6.684,7.138,27.374,6.05,38.614" transform="translate(-494.241 -395.177)"/>
            </g>
          </g>
        </g>
        <path id="Trazado_117157" data-name="Trazado 117157" d="M470.947,364.914s-2.447,55.349-5.177,74.094c-2.989,20.527-10.579,65.39-10.579,65.39H443.351s-.2-42.538,3.51-62.42c4.224-22.648,1.828-75.51,1.828-75.51Z" transform="translate(-251.314 -206.853)" fill="#5038a1"/>
        <path id="Trazado_117158" data-name="Trazado 117158" d="M470.947,364.914s-2.447,55.349-5.177,74.094c-2.989,20.527-10.579,65.39-10.579,65.39H443.351s-.2-42.538,3.51-62.42c4.224-22.648,1.828-75.51,1.828-75.51Z" transform="translate(-251.314 -206.853)" fill="#5038a1"/>
        <path id="Trazado_117159" data-name="Trazado 117159" d="M455.715,681.722H441.772v-4.166l15.586-.271Z" transform="translate(-250.42 -383.922)" fill="#5038a1"/>
        <path id="Trazado_117160" data-name="Trazado 117160" d="M569.6,675.477l-11.912,3.283-1.717-4.105,13.581-3.764Z" transform="translate(-315.156 -380.297)" fill="#5038a1"/>
        <path id="Trazado_117161" data-name="Trazado 117161" d="M485.142,179.309c.148.5.533.827.86.73s.472-.58.324-1.081-.533-.827-.86-.73-.472.58-.324,1.08" transform="translate(-274.972 -101.02)" fill="#1a2e35"/>
        <path id="Trazado_117162" data-name="Trazado 117162" d="M498.19,175.448c.148.5.533.827.86.73s.472-.58.324-1.081-.533-.827-.86-.73-.472.581-.324,1.081" transform="translate(-282.368 -98.831)" fill="#1a2e35"/>
        <path id="Trazado_117163" data-name="Trazado 117163" d="M494.288,178.685a18.67,18.67,0,0,0,3.654,3.57c-.64,1.088-2.361,1.049-2.361,1.049Z" transform="translate(-280.189 -101.288)" fill="#ff847f"/>
        <path id="Trazado_117164" data-name="Trazado 117164" d="M479.473,174.662a.305.305,0,0,0,.253-.2,2.44,2.44,0,0,1,1.591-1.537.307.307,0,0,0,.233-.365.3.3,0,0,0-.365-.233,3.037,3.037,0,0,0-2.032,1.92.306.306,0,0,0,.32.412" transform="translate(-271.599 -97.681)" fill="#1a2e35"/>
        <path id="Trazado_117165" data-name="Trazado 117165" d="M499.044,168.694a.306.306,0,0,0,.192-.511,3.027,3.027,0,0,0-2.6-1.029.307.307,0,0,0-.253.352.312.312,0,0,0,.35.253,2.432,2.432,0,0,1,2.05.837.306.306,0,0,0,.26.1" transform="translate(-281.375 -94.74)" fill="#1a2e35"/>
        <path id="Trazado_117166" data-name="Trazado 117166" d="M465.793,705.862a1.959,1.959,0,0,0,1.245-.33.924.924,0,0,0,.317-.81.486.486,0,0,0-.262-.433c-.718-.369-2.8.914-3.036,1.061a.154.154,0,0,0,.045.279,7.643,7.643,0,0,0,1.691.232m.961-1.338a.439.439,0,0,1,.2.039c.041.021.089.061.1.18a.624.624,0,0,1-.208.556,3.113,3.113,0,0,1-2.3.117,6.185,6.185,0,0,1,2.208-.891" transform="translate(-263.011 -399.192)" fill="#5038a1"/>
        <path id="Trazado_117167" data-name="Trazado 117167" d="M464.138,703.649a.157.157,0,0,0,.073-.018c.669-.364,1.963-1.78,1.826-2.5a.5.5,0,0,0-.487-.4.842.842,0,0,0-.652.2c-.751.614-.906,2.479-.912,2.558a.153.153,0,0,0,.152.166m1.305-2.621a.544.544,0,0,1,.069,0c.2.024.216.116.224.155.081.425-.743,1.5-1.408,2a3.684,3.684,0,0,1,.764-2.026.542.542,0,0,1,.352-.134" transform="translate(-263.012 -397.207)" fill="#5038a1"/>
        <path id="Trazado_117168" data-name="Trazado 117168" d="M585.085,699.8a.117.117,0,0,0,.027,0c1.059-.077,2.914-.324,3.43-1.118a.857.857,0,0,0,.079-.794.486.486,0,0,0-.352-.326c-.866-.2-3.028,1.748-3.271,1.972a.153.153,0,0,0,.087.264m3.068-1.946a.322.322,0,0,1,.043.007.181.181,0,0,1,.136.132.559.559,0,0,1-.047.523c-.29.445-1.3.787-2.738.939.868-.752,2.1-1.656,2.606-1.6" transform="translate(-331.58 -395.41)" fill="#5038a1"/>
        <path id="Trazado_117169" data-name="Trazado 117169" d="M584.981,698.446a.152.152,0,0,0,.114-.034c.659-.545,1.778-2.3,1.47-2.977-.072-.158-.249-.332-.664-.261a1.12,1.12,0,0,0-.749.479,4.368,4.368,0,0,0-.305,2.667.153.153,0,0,0,.1.117.166.166,0,0,0,.037.008m1.148-2.98c.119.013.146.072.157.1.185.4-.536,1.742-1.176,2.415a3.6,3.6,0,0,1,.293-2.149.813.813,0,0,1,.549-.353.66.66,0,0,1,.177-.01" transform="translate(-331.476 -394.053)" fill="#5038a1"/>
        <path id="Trazado_117170" data-name="Trazado 117170" d="M429.724,253.48l-1.815,2.592q-.922,1.331-1.806,2.7c-1.189,1.808-2.333,3.641-3.447,5.48q-1.635,2.773-3.1,5.585c-.925,1.883-1.808,3.769-2.514,5.657l-.064.163-.022.07a1.276,1.276,0,0,1-.058.139c-.028.149-.072.278-.1.451-.061.351-.106.759-.14,1.2a22.785,22.785,0,0,0,0,2.9c.119,2.039.346,4.189.665,6.339.623,4.3,1.43,8.73,2.264,13.076l-4.606,1.531a95.475,95.475,0,0,1-4.876-13.038,60.346,60.346,0,0,1-1.618-7,31.377,31.377,0,0,1-.4-3.856,17.87,17.87,0,0,1,.05-2.178c.032-.387.1-.813.159-1.221l.153-.681.083-.339.07-.238a65.489,65.489,0,0,1,5.614-13.353c1.13-2.079,2.34-4.1,3.612-6.074q.963-1.476,1.969-2.925c.674-.985,1.343-1.892,2.132-2.909Z" transform="translate(-231.318 -140.32)" fill="#ffc3bd"/>
        <path id="Trazado_117171" data-name="Trazado 117171" d="M427.09,239.04c-6.059,1.222-11.374,16.042-11.374,16.042l12.646,10.3s4.143-7.533,7.458-14.8c3.611-7.917-1.39-13.022-8.729-11.542" transform="translate(-235.65 -135.356)" fill="#fedc72"/>
        <path id="Trazado_117172" data-name="Trazado 117172" d="M426.716,365.328l4.362,4.9-7.9,2.414s-2.786-5-.3-6.771Z" transform="translate(-239.126 -207.088)" fill="#ffc3bd"/>
        <path id="Trazado_117173" data-name="Trazado 117173" d="M433.2,382.037l-6.621,1.69-1.65-4.663,7.9-2.414Z" transform="translate(-240.87 -213.506)" fill="#ffc3bd"/>
        <path id="Trazado_117174" data-name="Trazado 117174" d="M618.918,186.671a15.188,15.188,0,0,1,3.391-1.252,18.189,18.189,0,0,1,2.07-.227s.57,1.743-2.381,2.253c-.927,1.192-4.135,2.75-4.135,2.75Z" transform="translate(-350.238 -104.977)" fill="#ffc3bd"/>
        <path id="Trazado_117175" data-name="Trazado 117175" d="M758.453,686.288h-6.241l-.267-14.453h6.241Z" transform="translate(-426.243 -380.832)" fill="#ff8b7b"/>
        <path id="Trazado_117176" data-name="Trazado 117176" d="M857.862,662.181l-6.049,1.537-6.256-13.323,6.049-1.537Z" transform="translate(-479.307 -367.807)" fill="#ff8b7b"/>
        <path id="Trazado_117177" data-name="Trazado 117177" d="M846.067,678.708l6.641-2.248a.528.528,0,0,1,.63.237l2.818,4.9a.944.944,0,0,1-.535,1.353c-2.331.745-3.5.989-6.421,1.978-1.8.608-6.92,2.758-9.4,3.6-2.427.822-3.576-1.524-2.63-2.092,4.242-2.547,7.006-5.222,8.053-7.037a1.549,1.549,0,0,1,.846-.691" transform="translate(-474.365 -383.438)" fill="#1a2e35"/>
        <path id="Trazado_117178" data-name="Trazado 117178" d="M735.912,703.535h6.816a.527.527,0,0,1,.521.426l1.1,5.548a.933.933,0,0,1-.925,1.11c-2.458-.042-6.007-.186-9.1-.186-3.613,0-4.369.2-8.607.2-2.562,0-3.21-2.591-2.132-2.825,4.908-1.068,6.528-1.183,10.812-3.784a2.95,2.95,0,0,1,1.515-.486" transform="translate(-409.884 -398.802)" fill="#1a2e35"/>
        <path id="Trazado_117179" data-name="Trazado 117179" d="M696.821,253.311l-4.874-7.5s-19.7,10.235-22.786,9.352c-4.2-1.2-8.419-.993-12.74-3.848-1.043.181-3.548,1.444-4.066,2.252,3.711,6.393,13.708,10.981,17.7,10.731,9.1-.569,26.765-10.987,26.765-10.987" transform="translate(-369.79 -139.339)" fill="#ff8b7b"/>
        <path id="Trazado_117180" data-name="Trazado 117180" d="M732.2,246.914c-1.6,5.749-17.571,14.653-17.571,14.653l-7.81-13s7.736-7.479,15.332-9.3c8.1-1.941,11.8,1.335,10.05,7.644" transform="translate(-400.661 -135.316)" fill="#5038a1"/>
        <g id="Grupo_81069" data-name="Grupo 81069" transform="translate(315.845 115.498)" opacity="0.2">
          <g id="Grupo_81068" data-name="Grupo 81068">
            <g id="Grupo_81067" data-name="Grupo 81067" clip-path="url(#clip-path-22)">
              <path id="Trazado_117181" data-name="Trazado 117181" d="M732.893,266.872a13.936,13.936,0,0,0-3.7,9.438c1.792-1.077,4.629-2.844,7.408-4.867-.765-3.074-2.693-5.565-3.7-4.571" transform="translate(-729.189 -266.65)"/>
            </g>
          </g>
        </g>
        <path id="Trazado_117182" data-name="Trazado 117182" d="M652.924,252.919l-4.248-5.414-3.938,6.349s1.129,1.564,4.283,1.964Z" transform="translate(-365.472 -140.299)" fill="#ff8b7b"/>
        <path id="Trazado_117183" data-name="Trazado 117183" d="M640.262,241.028l-2.825,5.548,3.162,3.607,3.938-6.349Z" transform="translate(-361.334 -136.627)" fill="#ff8b7b"/>
        <g id="Grupo_81072" data-name="Grupo 81072" transform="translate(273.259 103.314)" opacity="0.4">
          <g id="Grupo_81071" data-name="Grupo 81071">
            <g id="Grupo_81070" data-name="Grupo 81070" clip-path="url(#clip-path-23)">
              <path id="Trazado_117184" data-name="Trazado 117184" d="M639.336,251.889l-5.624.619a.606.606,0,0,1-.663-.494l-2.169-11.977a.605.605,0,0,1,.53-.71l7.307-.8a.606.606,0,0,1,.671.578l.486,12.162a.605.605,0,0,1-.539.626" transform="translate(-630.871 -238.519)" fill="#5038a1"/>
            </g>
          </g>
        </g>
        <g id="Grupo_81075" data-name="Grupo 81075" transform="translate(275.084 110.022)" opacity="0.7">
          <g id="Grupo_81074" data-name="Grupo 81074">
            <g id="Grupo_81073" data-name="Grupo 81073" clip-path="url(#clip-path-24)">
              <path id="Trazado_117185" data-name="Trazado 117185" d="M635.083,254.332l1.111,6.136,5.259-.578-.235-5.884Z" transform="translate(-635.083 -254.006)" fill="#5038a1"/>
            </g>
          </g>
        </g>
        <path id="Trazado_117186" data-name="Trazado 117186" d="M647.247,254.314a15.19,15.19,0,0,0-3.391-1.252,18.189,18.189,0,0,0-2.07-.227s-.57,1.743,2.381,2.253c.927,1.192,4.134,2.75,4.134,2.75Z" transform="translate(-363.774 -143.321)" fill="#ff8b7b"/>
        <g id="Grupo_81078" data-name="Grupo 81078" transform="translate(325.703 291.007)" opacity="0.2">
          <g id="Grupo_81077" data-name="Grupo 81077">
            <g id="Grupo_81076" data-name="Grupo 81076" clip-path="url(#clip-path-25)">
              <path id="Trazado_117187" data-name="Trazado 117187" d="M751.948,671.844l.136,7.45h6.244l-.136-7.45Z" transform="translate(-751.948 -671.844)"/>
            </g>
          </g>
        </g>
        <g id="Grupo_81081" data-name="Grupo 81081" transform="translate(366.251 281.054)" opacity="0.2">
          <g id="Grupo_81080" data-name="Grupo 81080">
            <g id="Grupo_81079" data-name="Grupo 81079" clip-path="url(#clip-path-26)">
              <path id="Trazado_117188" data-name="Trazado 117188" d="M851.61,648.865l-6.052,1.538,3.228,6.867,6.052-1.538Z" transform="translate(-845.559 -648.865)"/>
            </g>
          </g>
        </g>
        <path id="Trazado_117189" data-name="Trazado 117189" d="M736.924,237.458s-7.828,17.315-1.692,52.414h33.382c.356-5.124-2.251-28.591,3.283-52.736a86.208,86.208,0,0,0-11.14-1.411,122.517,122.517,0,0,0-14.191,0,63.463,63.463,0,0,0-9.642,1.732" transform="translate(-415.438 -133.504)" fill="#5038a1"/>
        <g id="Grupo_81084" data-name="Grupo 81084" transform="translate(348.876 105.917)" opacity="0.2">
          <g id="Grupo_81083" data-name="Grupo 81083">
            <g id="Grupo_81082" data-name="Grupo 81082" clip-path="url(#clip-path-27)">
              <path id="Trazado_117190" data-name="Trazado 117190" d="M805.633,248.206c-.653,3.973.367,13.481,3.882,24.467a159.946,159.946,0,0,1,2.993-28.026V244.6c-2.194-.224-6.253-.118-6.876,3.607" transform="translate(-805.448 -244.53)"/>
            </g>
          </g>
        </g>
        <path id="Trazado_117191" data-name="Trazado 117191" d="M777.031,205.358c-1.007,4.566-1.591,10.225,1.529,13.272,0,0-1.859,2.532-9.551,2.483-5.707-.036-4.639-2.483-4.639-2.483,5.121-1.216,5.01-7.512,4.21-11.06Z" transform="translate(-433.242 -116.408)" fill="#ff8b7b"/>
        <path id="Trazado_117192" data-name="Trazado 117192" d="M762.688,233.935c-.447-1.342,1.4-5.333,2.426-5.332,1.445,0,9.8,1.576,12.646.788s1.121,2.39.776,3.507-14.027,6.5-15.848,1.037" transform="translate(-432.294 -129.585)" fill="#5038a1"/>
        <g id="Grupo_81087" data-name="Grupo 81087" transform="translate(335.117 88.951)" opacity="0.2">
          <g id="Grupo_81086" data-name="Grupo 81086">
            <g id="Grupo_81085" data-name="Grupo 81085" clip-path="url(#clip-path-28)">
              <path id="Trazado_117193" data-name="Trazado 117193" d="M773.9,207.575a13.684,13.684,0,0,1-.218,7.5,8.281,8.281,0,0,0,2.291-.7c2.9-1.354,4.37-3.484,5.922-6.644.13-.809.286-1.6.458-2.368Z" transform="translate(-773.681 -205.36)"/>
            </g>
          </g>
        </g>
        <path id="Trazado_117194" data-name="Trazado 117194" d="M755.8,196.324a5.7,5.7,0,0,0,3.3,2.981c1.935.652,3.042-1.088,2.622-3-.378-1.72-1.84-4.134-3.839-3.956a2.713,2.713,0,0,0-2.082,3.974" transform="translate(-428.268 -109.029)" fill="#ff8b7b"/>
        <g id="Grupo_81090" data-name="Grupo 81090" transform="translate(327.249 83.311)" opacity="0.2">
          <g id="Grupo_81089" data-name="Grupo 81089">
            <g id="Grupo_81088" data-name="Grupo 81088" clip-path="url(#clip-path-29)">
              <path id="Trazado_117195" data-name="Trazado 117195" d="M755.8,196.324a5.7,5.7,0,0,0,3.3,2.981c1.935.652,3.042-1.088,2.622-3-.378-1.72-1.84-4.134-3.839-3.956a2.713,2.713,0,0,0-2.082,3.974" transform="translate(-755.517 -192.34)"/>
            </g>
          </g>
        </g>
        <path id="Trazado_117196" data-name="Trazado 117196" d="M760.3,174.5c-1.884,1.884-3.362,7.307-1.647,9.734s6.169-6.411,5.689-8.432-4.042-1.3-4.042-1.3" transform="translate(-429.614 -98.847)" fill="#1a2e35"/>
        <path id="Trazado_117197" data-name="Trazado 117197" d="M776.464,177.132c-1.139,6.147-1.5,9.8-4.972,12.648-5.225,4.29-12.4.667-13.1-5.661-.623-5.7,1.345-14.791,7.62-16.626a8.257,8.257,0,0,1,10.448,9.639" transform="translate(-429.838 -94.741)" fill="#ff8b7b"/>
        <path id="Trazado_117198" data-name="Trazado 117198" d="M776.26,177.17c-2.661-.619-3.309-6.26-1.45-9.345-2.877.233-15.52.524-15.178-5.5.274-4.83,5.18-6.8,8.769-3.654s12.359-1.2,13.123,4.9c3.745.411,2,15.29-5.264,13.6" transform="translate(-430.597 -89.08)" fill="#1a2e35"/>
        <path id="Trazado_117199" data-name="Trazado 117199" d="M808.087,167.827s1.571.157,1.347-3.68c1.593,1.167,2.267,3.86-1.347,3.68" transform="translate(-458.067 -93.047)" fill="#1a2e35"/>
        <path id="Trazado_117200" data-name="Trazado 117200" d="M796.627,200.859a5.992,5.992,0,0,1-3.942,2.222c-2.044.235-2.7-1.69-1.823-3.466.788-1.6,2.8-3.646,4.706-3.059,1.875.578,2.249,2.781,1.059,4.3" transform="translate(-448.088 -111.36)" fill="#ff8b7b"/>
        <path id="Trazado_117201" data-name="Trazado 117201" d="M757.881,361.005s-.664,7.846-1.508,18.485c-.962,12.054-2.147,27.7-2.854,39.627,0,.06-.009.111-.009.162-.136,2.265-.256,4.387-.349,6.329-.946,19.447-2.9,76.044-2.9,76.044H739.694S734.37,443.9,734.148,424.1c-.213-19.03,1.789-63.1,1.789-63.1Z" transform="translate(-416.146 -204.637)" fill="#fdb74d"/>
        <path id="Trazado_117202" data-name="Trazado 117202" d="M756.573,677.678c.049,0-.085,3.455-.085,3.455H744.3l-.418-3.881Z" transform="translate(-421.674 -383.903)" fill="#5038a1"/>
        <g id="Grupo_81093" data-name="Grupo 81093" transform="translate(334.023 166.122)" opacity="0.2">
          <g id="Grupo_81092" data-name="Grupo 81092">
            <g id="Grupo_81091" data-name="Grupo 81091" clip-path="url(#clip-path-30)">
              <path id="Trazado_117203" data-name="Trazado 117203" d="M777.36,392.255c-.963,12.054-2.147,27.7-2.854,39.627,0,.06-.009.111-.009.162-2.589-11.3-3.637-25.368-3.271-48.521Z" transform="translate(-771.156 -383.524)"/>
            </g>
          </g>
        </g>
        <path id="Trazado_117204" data-name="Trazado 117204" d="M765.645,361.005s5.914,45.1,9.364,62.965c3.778,19.568,25.337,69.434,25.337,69.434l11.079-2.815s-15.782-45.471-17.736-64.845c-2.122-21.027-6.5-64.739-6.5-64.739Z" transform="translate(-434.009 -204.637)" fill="#fdb74d"/>
        <path id="Trazado_117205" data-name="Trazado 117205" d="M853.045,653.468c.047-.012,1.263,2.975,1.263,2.975l-12.177,3.094-1.894-3.3Z" transform="translate(-476.291 -370.421)" fill="#5038a1"/>
        <path id="Trazado_117206" data-name="Trazado 117206" d="M776.845,190.689c-.062.5-.376.884-.7.85s-.538-.47-.475-.974.376-.884.7-.85.537.47.475.974" transform="translate(-439.685 -107.54)" fill="#1a2e35"/>
        <path id="Trazado_117207" data-name="Trazado 117207" d="M763.884,189.329c-.062.5-.376.884-.7.85s-.538-.47-.475-.974.376-.884.7-.85.538.47.475.974" transform="translate(-432.338 -106.769)" fill="#1a2e35"/>
        <path id="Trazado_117208" data-name="Trazado 117208" d="M765.685,191.617a18.7,18.7,0,0,1-2.906,4.059,2.819,2.819,0,0,0,2.317.7Z" transform="translate(-432.384 -108.619)" fill="#ff5551"/>
        <path id="Trazado_117209" data-name="Trazado 117209" d="M770.851,203.909a.145.145,0,0,1-.123-.167.151.151,0,0,1,.168-.127,4.025,4.025,0,0,0,3.436-1.121.147.147,0,0,1,.208-.016.149.149,0,0,1,.01.21,4.263,4.263,0,0,1-3.7,1.221" transform="translate(-436.89 -114.755)" fill="#1a2e35"/>
        <path id="Trazado_117210" data-name="Trazado 117210" d="M779.893,185.624a.284.284,0,0,1-.218-.141,2.271,2.271,0,0,0-1.746-1.183.291.291,0,0,1-.278-.307.3.3,0,0,1,.31-.288,2.829,2.829,0,0,1,2.224,1.47.3.3,0,0,1-.108.408.29.29,0,0,1-.183.041" transform="translate(-440.814 -104.134)" fill="#1a2e35"/>
        <path id="Trazado_117211" data-name="Trazado 117211" d="M759.88,183.029a.279.279,0,0,1-.121-.052.3.3,0,0,1-.06-.414,2.97,2.97,0,0,1,2.384-1.3.287.287,0,0,1,.275.309.3.3,0,0,1-.31.285,2.373,2.373,0,0,0-1.878,1.047.3.3,0,0,1-.29.121" transform="translate(-430.606 -102.751)" fill="#1a2e35"/>
        <path id="Trazado_117212" data-name="Trazado 117212" d="M819.908,260.787l-8.039,4.307s9.153,19.838,7.96,22.787c-1.623,4.014-2.91,11.417-6.423,15.223a8.642,8.642,0,0,0,1.694,4.238c7.007-2.746,13.966-15.751,14.1-19.671.3-8.939-9.288-26.885-9.288-26.885" transform="translate(-460.211 -147.828)" fill="#ff8b7b"/>
        <path id="Trazado_117213" data-name="Trazado 117213" d="M811.258,239.105c5.884.859,10.694,17.046,10.694,17.046l-11.123,11.28a147.788,147.788,0,0,1-7.74-16.959c-2.637-7.572,1.858-12.288,8.169-11.367" transform="translate(-454.798 -135.473)" fill="#5038a1"/>
        <path id="Trazado_117214" data-name="Trazado 117214" d="M852.057,683.92a1.858,1.858,0,0,1-1.232.082.87.87,0,0,1-.522-.649.484.484,0,0,1,.115-.48c.542-.557,2.822-.024,3.081.039a.147.147,0,0,1,.108.121.153.153,0,0,1-.07.149,7.384,7.384,0,0,1-1.48.738m-1.262-.936a.427.427,0,0,0-.171.1.185.185,0,0,0-.036.195.588.588,0,0,0,.35.449,2.985,2.985,0,0,0,2.132-.6,5.82,5.82,0,0,0-2.274-.137" transform="translate(-481.987 -386.947)" fill="#5038a1"/>
        <path id="Trazado_117215" data-name="Trazado 117215" d="M854.5,680.894a.151.151,0,0,1-.072.006c-.716-.128-2.306-1.034-2.388-1.741a.5.5,0,0,1,.331-.52.788.788,0,0,1,.652-.021c.863.333,1.54,2.006,1.568,2.077a.15.15,0,0,1-.023.151.148.148,0,0,1-.068.049m-1.946-2.013c-.021.007-.041.016-.062.026-.175.084-.165.174-.16.211.048.418,1.109,1.15,1.862,1.409-.226-.48-.726-1.419-1.28-1.632a.511.511,0,0,0-.36-.015" transform="translate(-482.981 -384.642)" fill="#5038a1"/>
        <path id="Trazado_117216" data-name="Trazado 117216" d="M744.325,703.982a2.323,2.323,0,0,1-1.507-.383.81.81,0,0,1-.259-.719.481.481,0,0,1,.253-.392c.767-.426,3.246.849,3.526,1a.144.144,0,0,1,.074.152.152.152,0,0,1-.12.125,10.725,10.725,0,0,1-1.968.223m-1.1-1.292a.592.592,0,0,0-.277.054.184.184,0,0,0-.1.159.53.53,0,0,0,.167.476c.376.341,1.4.4,2.785.17a7.978,7.978,0,0,0-2.577-.858" transform="translate(-420.92 -398.158)" fill="#5038a1"/>
        <path id="Trazado_117217" data-name="Trazado 117217" d="M748.317,701.844a.153.153,0,0,1-.06-.013c-.745-.338-2.2-1.687-2.073-2.394.031-.165.153-.372.56-.412a1.043,1.043,0,0,1,.813.253,4.127,4.127,0,0,1,.91,2.4.153.153,0,0,1-.065.134.149.149,0,0,1-.087.027m-1.461-2.53c-.029,0-.059,0-.089,0-.267.028-.286.132-.293.166-.078.424.91,1.484,1.667,1.946a3.381,3.381,0,0,0-.776-1.924.768.768,0,0,0-.509-.193" transform="translate(-422.973 -396.24)" fill="#5038a1"/>
        <path id="Trazado_117218" data-name="Trazado 117218" d="M810.57,356.526l-5.93-.458,2.967,6.564s5.2.228,6.168-3.746Z" transform="translate(-456.113 -201.839)" fill="#ff8b7b"/>
        <path id="Trazado_117219" data-name="Trazado 117219" d="M796.124,357.73l2.982,5.806,3.673-.9-2.967-6.564Z" transform="translate(-451.286 -201.839)" fill="#ff8b7b"/>
        <path id="Trazado_117220" data-name="Trazado 117220" d="M259.853,593.921H255.3V495.058h9.115Z" transform="translate(-144.715 -280.626)" fill="#5038a1"/>
        <g id="Grupo_81096" data-name="Grupo 81096" transform="translate(110.58 214.432)" opacity="0.6">
          <g id="Grupo_81095" data-name="Grupo 81095">
            <g id="Grupo_81094" data-name="Grupo 81094" clip-path="url(#clip-path-31)">
              <path id="Trazado_117221" data-name="Trazado 117221" d="M259.853,593.921H255.3V495.058h9.115Z" transform="translate(-255.295 -495.058)" fill="#fff"/>
            </g>
          </g>
        </g>
        <path id="Trazado_117222" data-name="Trazado 117222" d="M299.8,593.921h-4.558V495.058h9.115Z" transform="translate(-167.361 -280.626)" fill="#5038a1"/>
        <g id="Grupo_81099" data-name="Grupo 81099" transform="translate(127.885 214.432)" opacity="0.6">
          <g id="Grupo_81098" data-name="Grupo 81098">
            <g id="Grupo_81097" data-name="Grupo 81097" clip-path="url(#clip-path-31)">
              <path id="Trazado_117223" data-name="Trazado 117223" d="M299.8,593.921h-4.558V495.058h9.115Z" transform="translate(-295.246 -495.058)" fill="#fff"/>
            </g>
          </g>
        </g>
        <path id="Trazado_117224" data-name="Trazado 117224" d="M718.07,593.921h4.557V495.058h-9.115Z" transform="translate(-404.457 -280.626)" fill="#5038a1"/>
        <g id="Grupo_81102" data-name="Grupo 81102" transform="translate(309.055 214.432)" opacity="0.6">
          <g id="Grupo_81101" data-name="Grupo 81101">
            <g id="Grupo_81100" data-name="Grupo 81100" clip-path="url(#clip-path-31)">
              <path id="Trazado_117225" data-name="Trazado 117225" d="M718.07,593.921h4.557V495.058h-9.115Z" transform="translate(-713.513 -495.058)" fill="#fff"/>
            </g>
          </g>
        </g>
        <path id="Trazado_117226" data-name="Trazado 117226" d="M678.119,593.921h4.557V495.058h-9.115Z" transform="translate(-381.811 -280.626)" fill="#5038a1"/>
        <g id="Grupo_81105" data-name="Grupo 81105" transform="translate(291.751 214.432)" opacity="0.6">
          <g id="Grupo_81104" data-name="Grupo 81104">
            <g id="Grupo_81103" data-name="Grupo 81103" clip-path="url(#clip-path-31)">
              <path id="Trazado_117227" data-name="Trazado 117227" d="M678.119,593.921h4.557V495.058h-9.115Z" transform="translate(-673.562 -495.058)" fill="#fff"/>
            </g>
          </g>
        </g>
        <path id="Trazado_117228" data-name="Trazado 117228" d="M460.949,489.882c0,2.184-49.278,3.955-110.065,3.955s-110.065-1.771-110.065-3.955v-3.956H460.949Z" transform="translate(-136.509 -275.449)" fill="#5038a1"/>
        <g id="Grupo_81108" data-name="Grupo 81108" transform="translate(104.309 210.477)" opacity="0.2">
          <g id="Grupo_81107" data-name="Grupo 81107">
            <g id="Grupo_81106" data-name="Grupo 81106" clip-path="url(#clip-path-35)">
              <path id="Trazado_117229" data-name="Trazado 117229" d="M460.949,489.882c0,2.184-49.278,3.955-110.065,3.955s-110.065-1.771-110.065-3.955v-3.956H460.949Z" transform="translate(-240.818 -485.926)"/>
            </g>
          </g>
        </g>
        <path id="Trazado_117230" data-name="Trazado 117230" d="M460.949,480.751c0,2.184-49.278,3.955-110.065,3.955s-110.065-1.771-110.065-3.955S290.1,476.8,350.883,476.8s110.065,1.771,110.065,3.955" transform="translate(-136.509 -270.274)" fill="#5038a1"/>
        <g id="Grupo_81111" data-name="Grupo 81111" transform="translate(104.309 206.522)" opacity="0.6">
          <g id="Grupo_81110" data-name="Grupo 81110">
            <g id="Grupo_81109" data-name="Grupo 81109" clip-path="url(#clip-path-35)">
              <path id="Trazado_117231" data-name="Trazado 117231" d="M460.949,480.751c0,2.184-49.278,3.955-110.065,3.955s-110.065-1.771-110.065-3.955S290.1,476.8,350.883,476.8s110.065,1.771,110.065,3.955" transform="translate(-240.818 -476.796)" fill="#fff"/>
            </g>
          </g>
        </g>
        <path id="Trazado_117232" data-name="Trazado 117232" d="M376.54,407.885a5.931,5.931,0,1,1-5.931-5.931,5.931,5.931,0,0,1,5.931,5.931" transform="translate(-206.719 -227.849)" fill="#5038a1"/>
        <g id="Grupo_81114" data-name="Grupo 81114" transform="translate(157.959 174.105)" opacity="0.2">
          <g id="Grupo_81113" data-name="Grupo 81113">
            <g id="Grupo_81112" data-name="Grupo 81112" clip-path="url(#clip-path-37)">
              <path id="Trazado_117233" data-name="Trazado 117233" d="M376.54,407.885a5.931,5.931,0,1,1-5.931-5.931,5.931,5.931,0,0,1,5.931,5.931" transform="translate(-364.678 -401.954)"/>
            </g>
          </g>
        </g>
        <path id="Trazado_117234" data-name="Trazado 117234" d="M359.045,409.6a4.621,4.621,0,1,1-4.621-4.621,4.621,4.621,0,0,1,4.621,4.621" transform="translate(-198.287 -229.564)" fill="#5038a1"/>
        <g id="Grupo_81117" data-name="Grupo 81117" transform="translate(151.516 175.415)" opacity="0.2">
          <g id="Grupo_81116" data-name="Grupo 81116">
            <g id="Grupo_81115" data-name="Grupo 81115" clip-path="url(#clip-path-38)">
              <path id="Trazado_117235" data-name="Trazado 117235" d="M359.045,409.6a4.621,4.621,0,1,1-4.621-4.621,4.621,4.621,0,0,1,4.621,4.621" transform="translate(-349.803 -404.979)"/>
            </g>
          </g>
        </g>
        <path id="Trazado_117236" data-name="Trazado 117236" d="M394.845,409.6a4.621,4.621,0,1,1-4.621-4.621,4.621,4.621,0,0,1,4.621,4.621" transform="translate(-218.581 -229.564)" fill="#5038a1"/>
        <g id="Grupo_81120" data-name="Grupo 81120" transform="translate(167.022 175.415)" opacity="0.2">
          <g id="Grupo_81119" data-name="Grupo 81119">
            <g id="Grupo_81118" data-name="Grupo 81118" clip-path="url(#clip-path-38)">
              <path id="Trazado_117237" data-name="Trazado 117237" d="M394.845,409.6a4.621,4.621,0,1,1-4.621-4.621,4.621,4.621,0,0,1,4.621,4.621" transform="translate(-385.603 -404.979)"/>
            </g>
          </g>
        </g>
        <path id="Trazado_117238" data-name="Trazado 117238" d="M331.518,428.311h40.588v22.455a2.509,2.509,0,0,1-2.5,2.5H334.019a2.508,2.508,0,0,1-2.5-2.5Z" transform="translate(-187.922 -242.79)" fill="#5038a1"/>
        <g id="Grupo_81123" data-name="Grupo 81123" transform="translate(143.596 185.521)" opacity="0.1">
          <g id="Grupo_81122" data-name="Grupo 81122">
            <g id="Grupo_81121" data-name="Grupo 81121" clip-path="url(#clip-path-40)">
              <path id="Trazado_117239" data-name="Trazado 117239" d="M331.518,428.311h40.588v22.455a2.509,2.509,0,0,1-2.5,2.5H334.019a2.508,2.508,0,0,1-2.5-2.5Z" transform="translate(-331.518 -428.311)"/>
            </g>
          </g>
        </g>
        <g id="Grupo_81126" data-name="Grupo 81126" transform="translate(143.596 188.135)" opacity="0.2">
          <g id="Grupo_81125" data-name="Grupo 81125">
            <g id="Grupo_81124" data-name="Grupo 81124" clip-path="url(#clip-path-41)">
              <rect id="Rectángulo_34965" data-name="Rectángulo 34965" width="40.588" height="1.334"/>
            </g>
          </g>
        </g>
        <rect id="Rectángulo_34967" data-name="Rectángulo 34967" width="5.788" height="25.189" transform="translate(160.996 185.288)" fill="#fdb74d"/>
        <path id="Trazado_117240" data-name="Trazado 117240" d="M370.55,427.283H331.2a1.335,1.335,0,0,1-1.335-1.335v-2.783a2.552,2.552,0,0,1,2.545-2.544h36.928a2.552,2.552,0,0,1,2.544,2.544v2.783a1.335,1.335,0,0,1-1.335,1.335" transform="translate(-186.987 -238.43)" fill="#5038a1"/>
        <g id="Grupo_81129" data-name="Grupo 81129" transform="translate(142.881 182.19)" opacity="0.1">
          <g id="Grupo_81128" data-name="Grupo 81128">
            <g id="Grupo_81127" data-name="Grupo 81127" clip-path="url(#clip-path-42)">
              <path id="Trazado_117241" data-name="Trazado 117241" d="M370.55,427.283H331.2a1.335,1.335,0,0,1-1.335-1.335v-2.783a2.552,2.552,0,0,1,2.545-2.544h36.928a2.552,2.552,0,0,1,2.544,2.544v2.783a1.335,1.335,0,0,1-1.335,1.335" transform="translate(-329.868 -420.62)"/>
            </g>
          </g>
        </g>
        <rect id="Rectángulo_34969" data-name="Rectángulo 34969" width="6.384" height="6.663" transform="translate(160.698 182.19)" fill="#fdb74d"/>
        <path id="Trazado_117242" data-name="Trazado 117242" d="M486.005,361.062H441.3a1.543,1.543,0,0,0-1.543,1.543V383.66A1.543,1.543,0,0,0,441.3,385.2h44.71a1.543,1.543,0,0,0,1.543-1.543V362.605a1.543,1.543,0,0,0-1.543-1.543" transform="translate(-249.275 -204.669)" fill="#5038a1"/>
        <path id="Trazado_117243" data-name="Trazado 117243" d="M487.248,361.328v7.227a2.22,2.22,0,0,1-1.522,2.128c-2.15.68-2.9,2.171-6.213,2.171-4.289,0-4.289-2.5-8.572-2.5s-4.283,2.5-8.565,2.5-4.283-2.5-8.566-2.5-4.283,2.5-8.566,2.5c-3.308,0-4.062-1.49-6.208-2.17a2.22,2.22,0,0,1-1.522-2.127v-7.228a1.4,1.4,0,0,1,1.393-1.4h46.95a1.4,1.4,0,0,1,1.392,1.4" transform="translate(-248.006 -204.027)" fill="#5038a1"/>
        <g id="Grupo_81132" data-name="Grupo 81132" transform="translate(189.507 155.901)" opacity="0.6">
          <g id="Grupo_81131" data-name="Grupo 81131">
            <g id="Grupo_81130" data-name="Grupo 81130" clip-path="url(#clip-path-43)">
              <path id="Trazado_117244" data-name="Trazado 117244" d="M487.248,361.328v7.227a2.22,2.22,0,0,1-1.522,2.128c-2.15.68-2.9,2.171-6.213,2.171-4.289,0-4.289-2.5-8.572-2.5s-4.283,2.5-8.565,2.5-4.283-2.5-8.566-2.5-4.283,2.5-8.566,2.5c-3.308,0-4.062-1.49-6.208-2.17a2.22,2.22,0,0,1-1.522-2.127v-7.228a1.4,1.4,0,0,1,1.393-1.4h46.95a1.4,1.4,0,0,1,1.392,1.4" transform="translate(-437.513 -359.929)" fill="#fff"/>
            </g>
          </g>
        </g>
        <path id="Trazado_117245" data-name="Trazado 117245" d="M482.674,409.378H421.267a2.12,2.12,0,0,0-2.12,2.12v28.917a2.12,2.12,0,0,0,2.12,2.12h61.407a2.12,2.12,0,0,0,2.12-2.12V411.5a2.12,2.12,0,0,0-2.12-2.12" transform="translate(-237.595 -232.058)" fill="#5038a1"/>
        <rect id="Rectángulo_34971" data-name="Rectángulo 34971" width="65.646" height="4.383" transform="translate(181.552 197.329)" fill="#fdb74d"/>
        <rect id="Rectángulo_34972" data-name="Rectángulo 34972" width="47.797" height="2.954" transform="translate(190.476 170.747)" fill="#fdb74d"/>
        <path id="Trazado_117246" data-name="Trazado 117246" d="M484.382,409.742v9.926a3.049,3.049,0,0,1-2.091,2.922c-2.953.934-3.989,2.981-8.533,2.981-5.891,0-5.891-3.43-11.773-3.43s-5.883,3.43-11.765,3.43-5.883-3.43-11.765-3.43-5.882,3.43-11.765,3.43c-4.543,0-5.579-2.046-8.526-2.98a3.05,3.05,0,0,1-2.09-2.922v-9.927a1.916,1.916,0,0,1,1.912-1.921H482.47a1.916,1.916,0,0,1,1.912,1.921" transform="translate(-235.853 -231.175)" fill="#5038a1"/>
        <g id="Grupo_81135" data-name="Grupo 81135" transform="translate(180.22 176.646)" opacity="0.6">
          <g id="Grupo_81134" data-name="Grupo 81134">
            <g id="Grupo_81133" data-name="Grupo 81133" clip-path="url(#clip-path-44)">
              <path id="Trazado_117247" data-name="Trazado 117247" d="M484.382,409.742v9.926a3.049,3.049,0,0,1-2.091,2.922c-2.953.934-3.989,2.981-8.533,2.981-5.891,0-5.891-3.43-11.773-3.43s-5.883,3.43-11.765,3.43-5.883-3.43-11.765-3.43-5.882,3.43-11.765,3.43c-4.543,0-5.579-2.046-8.526-2.98a3.05,3.05,0,0,1-2.09-2.922v-9.927a1.916,1.916,0,0,1,1.912-1.921H482.47a1.916,1.916,0,0,1,1.912,1.921" transform="translate(-416.074 -407.821)" fill="#fff"/>
            </g>
          </g>
        </g>
        <path id="Trazado_117248" data-name="Trazado 117248" d="M465.986,339h-2.728a.351.351,0,0,0-.351.351v8.715h3.43v-8.715a.351.351,0,0,0-.351-.351" transform="translate(-262.401 -192.162)" fill="#5038a1"/>
        <path id="Trazado_117249" data-name="Trazado 117249" d="M464.8,328.224c-.884.072-2.165-.673-1.539-2.821.579-1.989,1.231-2.684.588-3.868,2.941,2.358,3.353,6.492.952,6.689" transform="translate(-262.508 -182.263)" fill="#fdb74d"/>
        <path id="Trazado_117250" data-name="Trazado 117250" d="M522.1,339h-2.728a.351.351,0,0,0-.351.351v8.715h3.43v-8.715A.351.351,0,0,0,522.1,339" transform="translate(-294.211 -192.162)" fill="#5038a1"/>
        <path id="Trazado_117251" data-name="Trazado 117251" d="M520.734,327.832c-.884.072-2.533-.816-1.539-2.821.673-1.357,1.854-2.984,1.211-4.167,2.941,2.358,2.73,6.791.328,6.988" transform="translate(-294.132 -181.872)" fill="#fdb74d"/>
        <path id="Trazado_117252" data-name="Trazado 117252" d="M494.044,330.58h-2.728a.351.351,0,0,0-.351.351v12.361h3.43V330.931a.351.351,0,0,0-.351-.351" transform="translate(-278.305 -187.391)" fill="#5038a1"/>
        <path id="Trazado_117253" data-name="Trazado 117253" d="M492.715,319.806c.884.073,2.165-.673,1.539-2.821-.579-1.989-1.231-2.684-.588-3.868-2.941,2.358-3.353,6.492-.952,6.689" transform="translate(-278.413 -177.492)" fill="#fdb74d"/>
        <path id="Trazado_117254" data-name="Trazado 117254" d="M614.387,401.754a3.238,3.238,0,1,1-3.238-3.238,3.238,3.238,0,0,1,3.238,3.238" transform="translate(-344.597 -225.9)" fill="#5038a1"/>
        <g id="Grupo_81138" data-name="Grupo 81138" transform="translate(263.314 172.616)" opacity="0.2">
          <g id="Grupo_81137" data-name="Grupo 81137">
            <g id="Grupo_81136" data-name="Grupo 81136" clip-path="url(#clip-path-45)">
              <path id="Trazado_117255" data-name="Trazado 117255" d="M614.387,401.754a3.238,3.238,0,1,1-3.238-3.238,3.238,3.238,0,0,1,3.238,3.238" transform="translate(-607.911 -398.516)"/>
            </g>
          </g>
        </g>
        <path id="Trazado_117256" data-name="Trazado 117256" d="M604.836,402.69a2.523,2.523,0,1,1-2.523-2.523,2.523,2.523,0,0,1,2.523,2.523" transform="translate(-339.994 -226.836)" fill="#5038a1"/>
        <g id="Grupo_81141" data-name="Grupo 81141" transform="translate(259.797 173.331)" opacity="0.2">
          <g id="Grupo_81140" data-name="Grupo 81140">
            <g id="Grupo_81139" data-name="Grupo 81139" clip-path="url(#clip-path-46)">
              <path id="Trazado_117257" data-name="Trazado 117257" d="M604.836,402.69a2.523,2.523,0,1,1-2.523-2.523,2.523,2.523,0,0,1,2.523,2.523" transform="translate(-599.791 -400.167)"/>
            </g>
          </g>
        </g>
        <path id="Trazado_117258" data-name="Trazado 117258" d="M624.378,402.69a2.523,2.523,0,1,1-2.523-2.523,2.523,2.523,0,0,1,2.523,2.523" transform="translate(-351.071 -226.836)" fill="#5038a1"/>
        <g id="Grupo_81144" data-name="Grupo 81144" transform="translate(268.262 173.331)" opacity="0.2">
          <g id="Grupo_81143" data-name="Grupo 81143">
            <g id="Grupo_81142" data-name="Grupo 81142" clip-path="url(#clip-path-46)">
              <path id="Trazado_117259" data-name="Trazado 117259" d="M624.378,402.69a2.523,2.523,0,1,1-2.523-2.523,2.523,2.523,0,0,1,2.523,2.523" transform="translate(-619.333 -400.167)"/>
            </g>
          </g>
        </g>
        <path id="Trazado_117260" data-name="Trazado 117260" d="M589.809,412.9h22.157v30.264a1.369,1.369,0,0,1-1.365,1.365H591.174a1.369,1.369,0,0,1-1.365-1.365Z" transform="translate(-334.336 -234.056)" fill="#5038a1"/>
        <path id="Trazado_117261" data-name="Trazado 117261" d="M589.809,412.9h22.157v30.264a1.369,1.369,0,0,1-1.365,1.365H591.174a1.369,1.369,0,0,1-1.365-1.365Z" transform="translate(-334.336 -234.056)" fill="#5038a1"/>
        <g id="Grupo_81147" data-name="Grupo 81147" transform="translate(255.473 180.274)" opacity="0.2">
          <g id="Grupo_81146" data-name="Grupo 81146">
            <g id="Grupo_81145" data-name="Grupo 81145" clip-path="url(#clip-path-48)">
              <rect id="Rectángulo_34977" data-name="Rectángulo 34977" width="22.157" height="0.728" transform="translate(0)"/>
            </g>
          </g>
        </g>
        <rect id="Rectángulo_34979" data-name="Rectángulo 34979" width="3.16" height="31.757" transform="translate(264.972 178.72)" fill="#fdb74d"/>
        <path id="Trazado_117262" data-name="Trazado 117262" d="M611.117,412.342H589.638a.729.729,0,0,1-.729-.729v-1.519A1.393,1.393,0,0,1,590.3,408.7h20.159a1.393,1.393,0,0,1,1.389,1.389v1.519a.729.729,0,0,1-.729.729" transform="translate(-333.825 -231.676)" fill="#5038a1"/>
        <rect id="Rectángulo_34980" data-name="Rectángulo 34980" width="3.485" height="3.637" transform="translate(264.81 177.029)" fill="#fdb74d"/>
      </g>
    </g>
  </g>
</svg>
