<svg xmlns="http://www.w3.org/2000/svg" xmlns:xlink="http://www.w3.org/1999/xlink" width="399.426" height="432.388" viewBox="0 0 399.426 432.388">
  <defs>
    <clipPath id="clip-path">
      <rect id="Rectángulo_34841" data-name="Rectángulo 34841" width="308.781" height="424.433" fill="none"/>
    </clipPath>
    <clipPath id="clip-path-2">
      <rect id="Rectángulo_34850" data-name="Rectángulo 34850" width="149.993" height="296.889" fill="none"/>
    </clipPath>
    <clipPath id="clip-path-4">
      <rect id="Rectángulo_34842" data-name="Rectángulo 34842" width="12.347" height="54.582" fill="none"/>
    </clipPath>
    <clipPath id="clip-path-5">
      <rect id="Rectángulo_34843" data-name="Rectángulo 34843" width="16.62" height="47.464" fill="none"/>
    </clipPath>
    <clipPath id="clip-path-6">
      <rect id="Rectángulo_34844" data-name="Rectángulo 34844" width="3.858" height="30.358" fill="none"/>
    </clipPath>
    <clipPath id="clip-path-7">
      <rect id="Rectángulo_34845" data-name="Rectángulo 34845" width="11.712" height="7.576" fill="none"/>
    </clipPath>
    <clipPath id="clip-path-8">
      <rect id="Rectángulo_34846" data-name="Rectángulo 34846" width="16.351" height="11.332" fill="none"/>
    </clipPath>
    <clipPath id="clip-path-9">
      <rect id="Rectángulo_34847" data-name="Rectángulo 34847" width="11.996" height="12.545" fill="none"/>
    </clipPath>
  </defs>
  <g id="Grupo_81217" data-name="Grupo 81217" transform="translate(-285.574 -2552.298)">
    <path id="Trazado_116026" data-name="Trazado 116026" d="M346.726,159.618a232.32,232.32,0,0,0-20.937-19.6,171.035,171.035,0,0,0-23.642-16.343,124.224,124.224,0,0,0-26.88-11.544,87.5,87.5,0,0,0-14.827-2.939c-1.278-.111-2.556-.252-3.852-.292-.647-.028-1.293-.068-1.944-.083l-1.957-.008c-1.314-.013-2.579.043-3.877.067-1.283.079-2.578.131-3.859.257a107.978,107.978,0,0,0-29.574,7.389c-9.321,3.621-18.037,7.991-26.423,12.174-4.19,2.1-8.316,4.144-12.374,6.043-2.032.96-4.042,1.859-6.043,2.739-1,.421-1.995.86-2.985,1.259l-3.069,1.246c-8.546,3.458-16.9,6.679-25.122,9.247-4.108,1.286-8.177,2.41-12.177,3.313-2,.452-3.981.851-5.94,1.186s-3.895.586-5.8.78a55.825,55.825,0,0,1-20.5-1.24,37.3,37.3,0,0,1-4.188-1.438c-.667-.269-1.312-.569-1.948-.87l-.936-.473c-.281-.16-.564-.308-.839-.476a29.3,29.3,0,0,1-6.073-4.717c-.449-.46-.888-.927-1.3-1.416l-1.621-1.822c-.56-.628-1.061-1.285-1.6-1.913-.515-.641-.985-1.3-1.482-1.936a49.035,49.035,0,0,1-4.738-7.933,43.929,43.929,0,0,1-2.959-8.151,44.391,44.391,0,0,1-1.328-8.457,63.611,63.611,0,0,1,1.619-18.148A95.215,95.215,0,0,1,74.268,76.4,102.55,102.55,0,0,1,79.2,67.107c.892-1.494,1.816-2.952,2.743-4.326.462-.681.932-1.34,1.382-1.937.224-.3.447-.584.647-.818a3.96,3.96,0,0,1,.276-.305c.035-.028.084-.085.1-.077l.017,0s.021-.021,0,.034l-.1.221A39.928,39.928,0,0,0,15.1,19.975l-.313.6-.2.411-.32.688-.547,1.233c-.345.794-.653,1.54-.953,2.282-.6,1.479-1.142,2.914-1.672,4.337-1.044,2.84-1.99,5.642-2.865,8.451-1.747,5.612-3.2,11.256-4.433,16.987A166.318,166.318,0,0,0,0,90.549a125.883,125.883,0,0,0,5.574,37.312,109.953,109.953,0,0,0,7.454,17.992,102.251,102.251,0,0,0,10.549,16.222A105.468,105.468,0,0,0,36.506,175.7c1.164.992,2.315,2,3.494,2.955,1.189.933,2.363,1.892,3.567,2.78l1.809,1.319c.616.445,1.162.849,1.9,1.36,1.389.977,2.814,1.9,4.262,2.789a79.894,79.894,0,0,0,18.5,8.344c.809.253,1.628.475,2.444.7.8.207,1.589.406,2.385.6,1.592.365,3.186.7,4.782.968a84.855,84.855,0,0,0,9.527,1.092,92.025,92.025,0,0,0,18.269-.823,110.979,110.979,0,0,0,16.675-3.756,169.239,169.239,0,0,0,29.02-12.191c8.92-4.674,17.233-9.763,25.233-14.806l3.12-1.977c1.071-.678,2.1-1.373,3.152-2.06,2.06-1.388,4.1-2.783,6.068-4.19,3.966-2.811,7.764-5.644,11.511-8.4,7.484-5.515,14.7-10.817,22.138-15.3a88.356,88.356,0,0,1,23.179-10.247c1.009-.278,2.027-.488,3.047-.733l1.538-.3.771-.151c.256-.045.508-.07.762-.107l1.526-.205c.511-.059,1.028-.094,1.544-.144,1.03-.115,2.077-.135,3.123-.191,1.048-.034,2.105-.03,3.164-.027,1.061.049,2.126.039,3.194.135l1.6.113c.536.041,1.071.11,1.608.165,1.073.1,2.145.267,3.219.43,1.077.14,2.145.375,3.222.559,1.073.206,2.143.455,3.217.685,1.063.282,2.132.545,3.2.843,1.057.321,2.127.6,3.179.954,2.115.667,4.208,1.425,6.278,2.258,1.037.412,2.073.829,3.095,1.286l1.538.674,1.516.723a113.527,113.527,0,0,1,22.8,14.453,111.388,111.388,0,0,1,18.848,19.441,4.725,4.725,0,1,0,7.216-6.078Z" transform="translate(685 2732.421) rotate(155)" fill="#fdb74d"/>
    <g id="Grupo_80941" data-name="Grupo 80941" transform="translate(305.442 2560.254)">
      <g id="Grupo_80940" data-name="Grupo 80940" clip-path="url(#clip-path)">
        <path id="Trazado_115935" data-name="Trazado 115935" d="M149.459,374.614c3.108-7.4,1.634-10.267-5.408-12.365-1.294-.385-2.531-2.548-2.914-4.106-1.094-4.448-2.22-7.554-7.4-9.993-5.935-2.792-12.723-5.682-15.329-14.027-1.426-4.567-7.891-7.585-12.157-11.216-.712-.606-2.084-.52-2.667-1.18-2.413-2.731-5.19-1.922-8.326-2.256-5.4-.575-10.544-4.15-15.625-6.795-2.879-1.5-5.337-3.793-8.16-5.424a3.488,3.488,0,0,0-3.3.316c-5.863,6.671-12.222,2.936-18.531,1.145-1.758-.5-3.607-.672-5.38-1.126-2.644-.677-5.5-.276-5.578-5-.035-2.133-4.42-5.5-7.24-6-5.09-.9-9.266-2.112-11.62-7.075-.371-.782-1.181-1.837-1.877-1.909C10.128,286.8,6.518,280.593,0,274.172L12.753,270.8c-5.763-6.865-4.6-13.146,3.7-19.094l2.013,4.617q.146-1.233.293-2.465c2.945-1.18,6.056-2.068,8.784-3.627a19.157,19.157,0,0,0,6.224-5.266c4.1-5.887,7.411-12.334,11.7-18.063,2.179-2.91,4.18-4.618.247-7.546-.739-.55.093-3.212.224-5.273l-2.694,2.977c-3.895-3.373-6.011-6.765-.934-11.192,1.068-.931,1.557-3.135,1.453-4.695-.447-6.68-1.076-13.357-1.969-19.991-.209-1.554-1.71-2.934-2.621-4.4,7.663-5.984,7.588-5.938,2.339-14.57-.627-1.03.034-2.9.235-4.363.548-3.995,3.777-7.664-2.585-11.192-4.152-2.3-6.3-8.462-8.905-13.136-.613-1.1.309-3.262.91-4.784.874-2.213,2.1-4.288,3.37-6.816l3.217,3.547c2.98-3.449,6.653-6.42,8.434-10.268.981-2.12-1.433-5.676-1.921-8.65-.5-3.031-6.17-5.31-.991-9.729,2.626,6.988,12.537,8.826,11.459,19.057,1.363-.522,3.883-1.191,3.839-1.515-.711-5.3-1.745-10.547-2.762-16.112a122.74,122.74,0,0,0,10.969-7.1,25.49,25.49,0,0,0,5.943-7.19c2.362-4.021,4.017-8.149,10.254-6.63,1.246.3,5.229-4.168,4.888-4.809-3.348-6.292,1.352-11.789,1.239-17.707-.219-11.527,10.046-14.6,17.474-19.578,1.7-1.139,5.235.46,6.7,1.845l3.637,6.271,1.764-.089c1.1-3.682,1.713-7.624,3.479-10.953,1.111-2.095,4.866-5.09,5.875-4.582,11.2,5.638,19.664.006,28.326-5.861a47.241,47.241,0,0,1,9.72-4.977c6.436-2.435,8.608-5.065,9.009-12.45,4.682,1.213,7.525-1.473,11.2-3.945,2.408-1.62,8.212,1.063,12.1,2.743,1.615.7,2.189,3.8,4.031,7.336-6.161,2.687-12.028,4.974-17.622,7.8-2.787,1.408-6.276,3.308-7.338,5.862-2.255,5.424-7.413,7.306-10.8,11.08-5.675,6.316-9.887,13.6-11.067,22.645-.88,6.752-2.12,13.919-7.553,19.247-1.4,1.371-1.973,3.583-3.589,6.681l7.351-2.465c2.421,1.214,4.521,1.872,6.073,3.18A7.362,7.362,0,0,1,160,88.784a24.706,24.706,0,0,0,7.262,14.224c3.057,2.974,2.825,6.548,1.14,10.822-1.519,3.853-.888,8.566-1.1,12.9-.024.488.68,1.47.986,1.446,5.855-.447,6.338,4.656,8.624,8.01a6.03,6.03,0,0,0,3.919,2.5c7.2.448,14.424.607,21.641.686,1.377.015,2.748-1.066,4.149-1.143a61.922,61.922,0,0,1,9.479.042,41.438,41.438,0,0,1,8.405,1.816,9.73,9.73,0,0,1,4.48,2.71c4.275,5.234,8.234,10.724,12.419,16.032,2.666,3.381,5.515,5.274,9.855,1.888,1.5-1.172,4.361-1.222,6.465-.9a53.566,53.566,0,0,0,26.241-2.5c2.7-.938,6.116.19,9.2.372l1.232,6.267c-3.576,7.878-8.264,14.651-9.554,22.019a56.274,56.274,0,0,0,1.3,24.286c2.13,7.53,7.382,14.176,11.6,21.814L283.82,244.653c10.565,2.9,15.771,10.246,18.962,19.473,1.979,5.722,3.882,11.475,5.616,17.274.42,1.4.643,3.689-.129,4.419-.961.908-3.049.621-4.651.851-.179-1.47-.43-2.935-.526-4.411-.344-5.3.458-10.784-5.036-14.593-1.561-1.082-1.589-4.378-2.476-7.148L280.891,270.86l-6.014-4.625c-.26,2.729-.439,4.593-.687,7.185-8.837,0-18.472.4-28.063-.1-12.518-.644-12.773-.705-12.731,11.448,0,1.267,0,2.533,0,4.162,2.4.3,4.729.666,7.075.87,10.109.876,10.11.859,10.671,10.089l-22.805,2.753c0,6.365-.282,12.055.171,17.686.137,1.7,2.021,3.647,3.606,4.779,4.123,2.945,8.583,4.815,8.138,11.645-.267,4.093,3.624,8.327,3.939,12.622.326,4.449-1.446,9.043-2.239,13.584-3.509,20.085-6.995,40.174-10.7,61.473-3.264-3.583-5.415-7.251-8.616-9.059-2.728-1.54-6.664-.938-11.25-1.4l17.144-27.462c-7.023-4.138-13.536-8.3-20.39-11.789-1.748-.89-5.181-.454-6.791.761-3.823,2.885-6.792,1.871-10.176-.426s-6.533-4.895-10.073.674c-1.378,2.168-5.872,3.83-8.576,3.4-7.688-1.225-16.3,1.341-23.066-4.512" transform="translate(0 0)" fill="#8c6df2"/>
      </g>
    </g>
    <g id="Grupo_80963" data-name="Grupo 80963" transform="translate(495 2687.798)">
      <g id="Grupo_80962" data-name="Grupo 80962" clip-path="url(#clip-path-2)">
        <g id="Grupo_80961" data-name="Grupo 80961">
          <g id="Grupo_80960" data-name="Grupo 80960" clip-path="url(#clip-path-2)">
            <path id="Trazado_115936" data-name="Trazado 115936" d="M88.2,26.723a3.817,3.817,0,0,1-1.975-2.349,3.824,3.824,0,0,0,2.974-3.58,10.451,10.451,0,0,0-.747-3.129,4.047,4.047,0,0,1,.047-3.141c.892-1.575,2.853-2.04,3.988-3.45a8.349,8.349,0,0,0,1.5-3.613,6.957,6.957,0,0,1,6.972-5.2c1.393.086,2.763.6,4.15.447,1.905-.216,3.451-1.65,5.3-2.172a5.824,5.824,0,0,1,5.256,1.136c1.018.862,1.72,2.064,2.8,2.852a16.369,16.369,0,0,0,4.013,1.647c1.357.517,2.735,1.463,2.992,2.893.277,1.542-.843,3.193-.22,4.63.291.668,1.429,1.813,1.664,2.5,1.077,3.173-1.353,5.293-.951,6.544,2.121,6.6-.469,9.455-2.649,9.7l-27.194-.58a7.713,7.713,0,0,1-10.242-4.595,4.413,4.413,0,0,0,2.333-.548" transform="translate(-27.206 -0.138)" fill="#e1e1e1"/>
            <path id="Trazado_115937" data-name="Trazado 115937" d="M146.078,46.212c-.141-.064-5.7-1.795-5.616,3.909s5.791,4.444,5.8,4.28-.182-8.189-.182-8.189" transform="translate(-78.085 -19.17)" fill="#ffc09d"/>
            <path id="Trazado_115938" data-name="Trazado 115938" d="M146.074,53.593c-.025-.018-.1.071-.265.15a.991.991,0,0,1-.742.026,2.457,2.457,0,0,1-1.17-2.189,3.284,3.284,0,0,1,.257-1.427,1.149,1.149,0,0,1,.736-.774.506.506,0,0,1,.59.264c.079.158.044.273.075.283s.121-.1.072-.333a.632.632,0,0,0-.23-.354.746.746,0,0,0-.551-.137,1.4,1.4,0,0,0-1.025.9A3.372,3.372,0,0,0,143.5,51.6a2.578,2.578,0,0,0,1.485,2.441,1.062,1.062,0,0,0,.906-.164c.175-.143.2-.271.183-.281" transform="translate(-79.672 -20.498)" fill="#ff9b6c"/>
            <path id="Trazado_115939" data-name="Trazado 115939" d="M120.66,41.734c.12-4.025-.307-12.332-.781-19.848A15.537,15.537,0,0,0,104.643,7.327l-.8-.015c-8.683.355-13.232,7.928-12.637,16.6l.755,28.628,14.865,9.219,5.237-4.1-.01-6.439s8.362-1.151,8.61-9.486" transform="translate(-23.781 -3.053)" fill="#ffc09d"/>
            <path id="Trazado_115940" data-name="Trazado 115940" d="M116.765,80.332a19.389,19.389,0,0,1-10.815-3.279s2.4,6.136,10.737,5.531Z" transform="translate(-28.487 -32.17)" fill="#ff9b6c"/>
            <path id="Trazado_115941" data-name="Trazado 115941" d="M99.15,42.454a1.191,1.191,0,0,1-1.169,1.181,1.14,1.14,0,0,1-1.209-1.1,1.191,1.191,0,0,1,1.168-1.182,1.14,1.14,0,0,1,1.21,1.1" transform="translate(-5.526 -17.267)" fill="#1a2e35"/>
            <path id="Trazado_115942" data-name="Trazado 115942" d="M120.762,42.454a1.191,1.191,0,0,1-1.169,1.181,1.14,1.14,0,0,1-1.209-1.1,1.191,1.191,0,0,1,1.168-1.182,1.14,1.14,0,0,1,1.21,1.1" transform="translate(-39.726 -17.267)" fill="#1a2e35"/>
            <path id="Trazado_115943" data-name="Trazado 115943" d="M100.911,37.844c-.15.153-1.04-.531-2.322-.55-1.28-.037-2.232.605-2.368.446-.067-.071.089-.348.5-.639a3.262,3.262,0,0,1,1.9-.549,3.135,3.135,0,0,1,1.845.631c.389.309.517.592.443.661" transform="translate(-6.978 -15.261)" fill="#1a2e35"/>
            <path id="Trazado_115944" data-name="Trazado 115944" d="M123.421,37.6c-.16.143-1.007-.6-2.283-.7-1.274-.118-2.265.463-2.391.3-.062-.075.109-.342.542-.606a3.269,3.269,0,0,1,1.93-.428,3.139,3.139,0,0,1,1.8.747c.367.333.478.624.4.687" transform="translate(-42.614 -15.096)" fill="#1a2e35"/>
            <path id="Trazado_115945" data-name="Trazado 115945" d="M104.438,48.1a8.469,8.469,0,0,1,2.087-.339c.328-.028.639-.088.7-.31a1.668,1.668,0,0,0-.2-.974l-.924-2.508a42.9,42.9,0,0,1-2.059-6.554,42.8,42.8,0,0,1,2.582,6.373q.462,1.32.883,2.522a1.893,1.893,0,0,1,.147,1.287.821.821,0,0,1-.546.469,2.188,2.188,0,0,1-.557.068,8.347,8.347,0,0,1-2.109-.034" transform="translate(-18.319 -15.621)" fill="#1a2e35"/>
            <path id="Trazado_115946" data-name="Trazado 115946" d="M124.26,30.077c-.16.334-1.417.041-2.931.069-1.514,0-2.765.315-2.931-.017-.073-.157.17-.462.691-.749a5.1,5.1,0,0,1,4.467-.04c.527.277.776.577.7.736" transform="translate(-43.237 -12.043)" fill="#e1e1e1"/>
            <path id="Trazado_115947" data-name="Trazado 115947" d="M100.248,30.637c-.231.287-1.108-.03-2.169-.063-1.06-.07-1.964.161-2.165-.147-.088-.149.058-.438.456-.707a3.141,3.141,0,0,1,3.492.169c.37.306.488.608.386.748" transform="translate(-6.145 -12.221)" fill="#e1e1e1"/>
            <path id="Trazado_115948" data-name="Trazado 115948" d="M119,4.862c-3.134-1.365-6.378-.821-9.775-.447a15.437,15.437,0,0,0-7.295,2.6,13.837,13.837,0,0,0-5.682,10.6,39.453,39.453,0,0,0,1.229,12.1,5.881,5.881,0,0,0-.16,3.126,2.024,2.024,0,0,0,2.433,1.443c1.148-.456,1.242-2.014,1.184-3.248a88.481,88.481,0,0,1,.4-12.483c.288-3.1,2.2-6.838,4.672-8.224,5.566-3.084,9.675.017,11.547.757,3.078-2.455,6.367-.871,8.116,1.418-.548-3.374-3.535-6.277-6.67-7.642" transform="translate(-31.696 -1.664)" fill="#e1e1e1"/>
            <path id="Trazado_115949" data-name="Trazado 115949" d="M109.526,16.321c-.012.19.355.428,1.093.543a7.185,7.185,0,0,0,3.083-.349,16.427,16.427,0,0,0,4-1.987c1.367-.887,2.732-1.915,4.184-2.741a9.226,9.226,0,0,1,4.161-1.353,8.685,8.685,0,0,1,3.558.607c2,.776,3.023,1.879,3.38,1.622.083-.058.107-.188.072-.391a2.479,2.479,0,0,0-.309-.8,6.705,6.705,0,0,0-2.167-2.25,8.861,8.861,0,0,0-4.514-1.478,9.083,9.083,0,0,0-2.872.333,12.357,12.357,0,0,0-2.748,1.169,34.665,34.665,0,0,0-4.31,3.094,26.9,26.9,0,0,1-3.243,2.278,16.008,16.008,0,0,1-2.379,1.117c-.6.224-.975.379-.987.589" transform="translate(-46.876 -3.228)" fill="#f5f5f5"/>
            <path id="Trazado_115950" data-name="Trazado 115950" d="M137.681,29.376a3.1,3.1,0,0,0,1.169.248,7.489,7.489,0,0,0,5.393-1.75,3.1,3.1,0,0,0,.8-.888,11.128,11.128,0,0,0-.929.726,8.553,8.553,0,0,1-5.254,1.7,11.014,11.014,0,0,0-1.179-.042" transform="translate(-75.251 -11.266)" fill="#fff"/>
            <path id="Trazado_115951" data-name="Trazado 115951" d="M138.164,36.693a1.523,1.523,0,0,0,.469-.109,12.793,12.793,0,0,0,1.231-.445,19.4,19.4,0,0,0,7-4.961,12.989,12.989,0,0,0,.828-1.014,1.536,1.536,0,0,0,.258-.407c-.037-.029-.472.5-1.237,1.279a23.316,23.316,0,0,1-6.935,4.913c-.993.461-1.632.7-1.617.743" transform="translate(-78.442 -12.424)" fill="#fff"/>
            <path id="Trazado_115952" data-name="Trazado 115952" d="M108.633,3.355c-.015.044.52.227,1.337.609A8.243,8.243,0,0,1,112.774,6a4.974,4.974,0,0,1,1.189,3.17,7.145,7.145,0,0,1-.234,1.425c.015.008.1-.111.2-.348a3.3,3.3,0,0,0,.241-1.069A4.869,4.869,0,0,0,113,5.807a7.543,7.543,0,0,0-2.945-2.033,4.873,4.873,0,0,0-1.42-.419" transform="translate(-27.466 -1.399)" fill="#fff"/>
            <path id="Trazado_115953" data-name="Trazado 115953" d="M106.97,0c-.029.044.471.334,1.1.993a6.6,6.6,0,0,1,1.658,3.068,6.591,6.591,0,0,1-.2,3.482c-.289.863-.618,1.338-.574,1.365.015.01.113-.1.26-.312a5.227,5.227,0,0,0,.509-.982A6.156,6.156,0,0,0,108.215.848a5.227,5.227,0,0,0-.878-.674c-.224-.133-.358-.188-.368-.172" transform="translate(-22.473 0)" fill="#fff"/>
            <path id="Trazado_115954" data-name="Trazado 115954" d="M138.616,48.8a4.176,4.176,0,0,0,3.473-2.272,18.776,18.776,0,0,1-1.594,1.354,18.828,18.828,0,0,1-1.879.919" transform="translate(-72.846 -19.425)" fill="#fff"/>
            <path id="Trazado_115955" data-name="Trazado 115955" d="M138.377,50.942a4.3,4.3,0,0,0,3.982-2.1,12.915,12.915,0,0,1-1.831,1.354,12.931,12.931,0,0,1-2.152.743" transform="translate(-72.975 -20.392)" fill="#fff"/>
            <path id="Trazado_115956" data-name="Trazado 115956" d="M90.091,17.641a1.613,1.613,0,0,0,.813-.284,4.092,4.092,0,0,0,2.022-3.484,1.615,1.615,0,0,0-.157-.847,6.017,6.017,0,0,0-.049.838,4.581,4.581,0,0,1-1.926,3.318c-.418.291-.72.412-.7.458" transform="translate(4.589 -5.438)" fill="#fff"/>
            <path id="Trazado_115957" data-name="Trazado 115957" d="M92.668,15.067a5.439,5.439,0,0,0,1.418-1.793,5.434,5.434,0,0,0,.825-2.131c-.08-.029-.46.911-1.079,1.986s-1.229,1.883-1.164,1.938" transform="translate(1.096 -4.652)" fill="#fff"/>
            <path id="Trazado_115958" data-name="Trazado 115958" d="M127.6,39.441c-.033.051.347.351.9.564a1.838,1.838,0,0,0,1.043.192,20.241,20.241,0,0,0-1.941-.756" transform="translate(-53.871 -16.463)" fill="#ff9b6c"/>
            <path id="Trazado_115959" data-name="Trazado 115959" d="M128.227,41.451a6.792,6.792,0,0,0,2.474-.157,6.826,6.826,0,0,0-2.474.157" transform="translate(-55.4 -17.216)" fill="#ff9b6c"/>
            <path id="Trazado_115960" data-name="Trazado 115960" d="M92.886,43.03c0,.063.305.116.683.12s.685-.045.686-.107-.305-.116-.683-.12-.685.044-.686.107" transform="translate(1.633 -17.921)" fill="#ff9b6c"/>
            <path id="Trazado_115961" data-name="Trazado 115961" d="M92.879,41.534c.033.054.294-.044.584-.22s.5-.36.468-.414-.294.045-.585.22-.5.361-.467.414" transform="translate(1.96 -17.07)" fill="#ff9b6c"/>
            <path id="Trazado_115962" data-name="Trazado 115962" d="M105.1,22.5c-.007.036.4.126,1.024.373s1.452.665,2.4,1.078a6.6,6.6,0,0,0,2.588.61,3.254,3.254,0,0,0,.806-.1c.185-.05.282-.095.278-.108-.009-.04-.415.082-1.08.048a7.459,7.459,0,0,1-2.5-.66c-.938-.406-1.786-.817-2.438-1.019A3.076,3.076,0,0,0,105.1,22.5" transform="translate(-23.426 -9.391)" fill="#ff9b6c"/>
            <path id="Trazado_115963" data-name="Trazado 115963" d="M105.446,22.174a7.5,7.5,0,0,0,5.209.762,26.2,26.2,0,0,1-2.641-.133,26.267,26.267,0,0,1-2.568-.629" transform="translate(-22.084 -9.255)" fill="#ff9b6c"/>
            <path id="Trazado_115964" data-name="Trazado 115964" d="M115.77,57.017c.056.029.255-.462.8-.676a2.461,2.461,0,0,1,1.042-.056c.014-.024-.084-.12-.29-.188a1.252,1.252,0,0,0-1.466.584c-.1.191-.109.328-.082.336" transform="translate(-35.042 -23.397)" fill="#ff9b6c"/>
            <path id="Trazado_115965" data-name="Trazado 115965" d="M117.663,56.34c.061.017.188-.527.732-.866a2.666,2.666,0,0,1,1.09-.314c.008-.026-.119-.1-.352-.115a1.49,1.49,0,0,0-1.431.927c-.08.219-.065.365-.038.368" transform="translate(-38.018 -22.98)" fill="#ff9b6c"/>
            <path id="Trazado_115966" data-name="Trazado 115966" d="M118.56,90c0,.012.1,0,.242-.091a1.173,1.173,0,0,0,.409-.575,4.852,4.852,0,0,0,.2-1,1.321,1.321,0,0,1,.513-.977,10.294,10.294,0,0,0,1.124-.515,1.677,1.677,0,0,0,.595-.865,1.134,1.134,0,0,0-.05-.941,2.456,2.456,0,0,1-.1.89,1.594,1.594,0,0,1-.565.746c-.279.217-.707.246-1.123.493a1.152,1.152,0,0,0-.446.534,2.369,2.369,0,0,0-.153.6,5.839,5.839,0,0,1-.147.982,1.291,1.291,0,0,1-.5.717" transform="translate(-40.779 -35.502)" fill="#ff9b6c"/>
            <path id="Trazado_115967" data-name="Trazado 115967" d="M122.985,88.552a1.406,1.406,0,0,0,.817-.532,2.2,2.2,0,0,0,.482-.965,2.1,2.1,0,0,0,.038-.647c-.023-.221-.072-.437-.079-.648a1.233,1.233,0,0,1,.545-1,5.175,5.175,0,0,0,.408-.4,1.256,1.256,0,0,0,.246-.457.815.815,0,0,0-.08-.73c-.124-.14-.234-.144-.235-.135s.082.057.162.186a.768.768,0,0,1,0,.629,1.131,1.131,0,0,1-.234.38c-.115.12-.257.237-.407.366a2.371,2.371,0,0,0-.443.467,1.118,1.118,0,0,0-.19.693c.009.243.062.461.085.665a2,2,0,0,1-.022.581,2.182,2.182,0,0,1-.4.905,4.051,4.051,0,0,1-.692.634" transform="translate(-47.134 -34.671)" fill="#ff9b6c"/>
            <path id="Trazado_115968" data-name="Trazado 115968" d="M111.781,60.049c-1.576,5.139-6.179.546-3.367-1.5a23.782,23.782,0,0,1,3.554,1.319" transform="translate(-24.606 -24.443)" fill="#ff9b6c"/>
            <path id="Trazado_115969" data-name="Trazado 115969" d="M110.075,62.236c-1.673.387-3.933-1.566-2.49-3.568.7-.2,2.092.8,2.8.924,2.007.758,2.079.592.143-.335-.879-.3-1.994-1.211-3.03-1.161-2.291,1.664.343,5.547,2.572,4.14" transform="translate(-24.053 -24.255)" fill="#1a2e35"/>
            <path id="Trazado_115970" data-name="Trazado 115970" d="M114.165,84.141l-7.239,7.305L94.039,83.338l-3.77,6.739,6.4,75.735,26.305.216-1.747-69.344Z" transform="translate(-25.558 -34.795)" fill="#f5f5f5"/>
            <path id="Trazado_115971" data-name="Trazado 115971" d="M52.762,176.236l1.509-16.264-15.04-52.186L34.338,126.6S31.2,159.524,31.2,160.2s3.808,6.943,3.808,6.943l-1.174,9.1Z" transform="translate(77.546 -45.002)" fill="#fedc72"/>
            <path id="Trazado_115972" data-name="Trazado 115972" d="M57.022,84.05l8.048,6.435,20.606,7.391-3.957,21.045-3.635,32.427-.577,14.977h-16.6l-1.213-27.238s3.058-38.977,1.49-46.144Z" transform="translate(31.103 -35.092)" fill="#fedc72"/>
            <path id="Trazado_115973" data-name="Trazado 115973" d="M151.19,83.339l-7.663,5.281-9.855,4.255S123.051,95.21,123.5,95.882s3.454,37.533,3.454,37.533l-1,32.614h34.816v-14.7l-10.811-57.1Z" transform="translate(-82.709 -34.795)" fill="#fedc72"/>
            <path id="Trazado_115974" data-name="Trazado 115974" d="M214.248,104.871c-1.47.4-9.927,16.032-9.927,16.032l-8.134,6.756-4.688-8.686-11.168.138-1.241,14.615s6.618,14.339,9.237,15.855,10.892-1.517,15.028-3.034,15.5-15.015,15.5-15.015Z" transform="translate(-173.18 -43.785)" fill="#fedc72"/>
            <path id="Trazado_115975" data-name="Trazado 115975" d="M39.608,203.551a18.346,18.346,0,0,0,1.635-2.02,21.639,21.639,0,0,1,4.4-4.327,11.861,11.861,0,0,1,5.685-2.142c1.574-.131,2.548.147,2.566.052.008-.03-.223-.131-.666-.24a7.436,7.436,0,0,0-1.922-.182,11.165,11.165,0,0,0-5.964,2.082,18.516,18.516,0,0,0-4.4,4.535,9.869,9.869,0,0,0-1.338,2.242" transform="translate(73.027 -81.285)" fill="#375a64"/>
            <path id="Trazado_115976" data-name="Trazado 115976" d="M47.986,196.526a24.983,24.983,0,0,1,4.715-4.139,24.96,24.96,0,0,1,5.817-2.352,4.811,4.811,0,0,0-1.876.182,13.907,13.907,0,0,0-7.65,4.715,4.839,4.839,0,0,0-1.006,1.594" transform="translate(63.526 -79.327)" fill="#375a64"/>
            <path id="Trazado_115977" data-name="Trazado 115977" d="M79.484,158.285a3.893,3.893,0,0,0,.4-.619c.245-.415.608-1.026,1.046-1.83.886-1.6,2.133-3.941,3.492-6.923a82.235,82.235,0,0,0,4.069-10.764,64.028,64.028,0,0,0,2.5-13.867,135.77,135.77,0,0,0,.055-15.261q-.075-1.731-.146-3.358a11.2,11.2,0,0,0-.453-3.15,4.366,4.366,0,0,0-.734-1.353,3.455,3.455,0,0,0-1.185-.888,2.461,2.461,0,0,0-2.644.234l.2.276,1.674-1.073.131-.084-.081-.126a14.009,14.009,0,0,0-1.937-2.247c-.608-.605-1.131-1.114-1.537-1.543s-.7-.772-.89-1.014a2.4,2.4,0,0,0-.294-.363,1.669,1.669,0,0,0,.224.413,9.993,9.993,0,0,0,.838,1.076c.391.45.9.979,1.488,1.6a14.4,14.4,0,0,1,1.844,2.238l.05-.209-1.693,1.042.2.276a2.107,2.107,0,0,1,2.259-.146,3.079,3.079,0,0,1,1.036.8,3.985,3.985,0,0,1,.645,1.231,10.906,10.906,0,0,1,.4,3.032q.058,1.625.119,3.358a143.908,143.908,0,0,1-.1,15.205,72.515,72.515,0,0,1-6.387,24.518c-1.311,2.989-2.5,5.35-3.334,6.979l-.957,1.875a3.909,3.909,0,0,0-.306.669" transform="translate(12.459 -39.384)" fill="#375a64"/>
            <path id="Trazado_115978" data-name="Trazado 115978" d="M144.612,158.392a4.013,4.013,0,0,0-.256-.7q-.315-.747-.829-1.974c-.723-1.713-1.751-4.2-2.973-7.286-2.431-6.184-5.509-14.835-8.543-24.511-1.825-5.784-3.473-11.265-4.923-16.082q-.543-1.8-1.048-3.482a11.155,11.155,0,0,1-.6-3.214c-.095-2.049,1.607-3.817,3.177-3.535l.041-.308-2.482-.2.113.1a3.552,3.552,0,0,1,.949-3.17,5.322,5.322,0,0,1,.965-.73,2.464,2.464,0,0,0-1.058.634,3.655,3.655,0,0,0-1.1,3.32l.016.09.1.01,2.477.257.041-.308c-1.833-.348-3.7,1.617-3.63,3.836a11.452,11.452,0,0,0,.585,3.342l1.019,3.493c1.414,4.828,3.042,10.317,4.869,16.107,3.037,9.685,6.177,18.333,8.7,24.491,1.268,3.076,2.35,5.542,3.131,7.231l.919,1.935a4,4,0,0,0,.353.66" transform="translate(-67.453 -38.951)" fill="#375a64"/>
            <path id="Trazado_115979" data-name="Trazado 115979" d="M126.364,212.54a11.85,11.85,0,0,0,4.944.456,11.878,11.878,0,0,0-4.944-.456" transform="translate(-54.921 -88.688)" fill="#375a64"/>
            <path id="Trazado_115980" data-name="Trazado 115980" d="M94.326,210.631c-.013.083.5.09.882.659a1.321,1.321,0,0,1,.207,1.054,1.2,1.2,0,0,1-2.082.256,1.32,1.32,0,0,1-.054-1.073c.236-.644.73-.775.7-.852.026-.063-.622-.07-1.036.7a1.63,1.63,0,0,0-.034,1.452,1.644,1.644,0,0,0,2.978-.365,1.629,1.629,0,0,0-.384-1.4c-.588-.648-1.216-.485-1.175-.43" transform="translate(0.048 -87.916)" fill="#375a64"/>
            <path id="Trazado_115981" data-name="Trazado 115981" d="M147.514,153.874a50.9,50.9,0,0,0,6.995,2.078,50.886,50.886,0,0,0,7.127,1.569,50.806,50.806,0,0,0-7-2.078,50.857,50.857,0,0,0-7.126-1.569" transform="translate(-97.568 -64.236)" fill="#375a64"/>
            <path id="Trazado_115982" data-name="Trazado 115982" d="M182.227,133.012a3.675,3.675,0,0,0,.4-1.036,18.1,18.1,0,0,0,.557-2.974,58.053,58.053,0,0,0,.066-9.946,28.944,28.944,0,0,0-.707-5.451,17.8,17.8,0,0,0-1.588-4.211,13.128,13.128,0,0,0-1.712-2.5,3.606,3.606,0,0,0-.8-.77,26.368,26.368,0,0,1,2.182,3.441,18.986,18.986,0,0,1,1.448,4.153,31.027,31.027,0,0,1,.653,5.373,72.46,72.46,0,0,1,.089,9.877,40.346,40.346,0,0,1-.587,4.045" transform="translate(-137.371 -44.307)" fill="#375a64"/>
            <path id="Trazado_115983" data-name="Trazado 115983" d="M189.379,132.956a11.118,11.118,0,0,1,7.65,5.68,2.979,2.979,0,0,0-.5-1.408,8.535,8.535,0,0,0-5.664-4.2,2.991,2.991,0,0,0-1.491-.068" transform="translate(-157.362 -55.487)" fill="#375a64"/>
            <path id="Trazado_115984" data-name="Trazado 115984" d="M214.86,155.5a13.983,13.983,0,0,0-.9-2.744c-.639-1.665-1.6-3.934-2.8-6.378s-2.408-4.595-3.335-6.118a14.07,14.07,0,0,0-1.621-2.391,17.828,17.828,0,0,0,1.3,2.575c.842,1.565,1.99,3.733,3.186,6.165s2.208,4.665,2.933,6.289a17.944,17.944,0,0,0,1.245,2.6" transform="translate(-184.98 -57.562)" fill="#375a64"/>
            <path id="Trazado_115985" data-name="Trazado 115985" d="M210.273,156.179a8.847,8.847,0,0,0-.524-2.369,17.779,17.779,0,0,0-2.576-5.276,13.06,13.06,0,0,0-4.47-3.811,7.337,7.337,0,0,0-2.268-.874,22.989,22.989,0,0,0,2.086,1.2,14.529,14.529,0,0,1,4.231,3.8,21.2,21.2,0,0,1,2.646,5.084,14.889,14.889,0,0,0,.875,2.248" transform="translate(-177.044 -60.056)" fill="#375a64"/>
            <path id="Trazado_115986" data-name="Trazado 115986" d="M221.626,161.368c-.013.025.188.178.625.26a3.024,3.024,0,0,0,1.828-.291,5.245,5.245,0,0,0,2-1.873,14.885,14.885,0,0,0,1.5-2.948,15.061,15.061,0,0,0,.947-5.891,6.6,6.6,0,0,0-.41-2.435c-.087.014.068.942.038,2.441a17.161,17.161,0,0,1-1.067,5.7c-.82,2.1-1.885,3.988-3.173,4.675a3.489,3.489,0,0,1-2.283.361" transform="translate(-207.639 -61.871)" fill="#375a64"/>
            <path id="Trazado_115987" data-name="Trazado 115987" d="M101.906,103.3s.409-3.828,2.2-4.067,5.263.12,5.383,4.067l-1.794,2.871s3.349,8.133,4.066,10.765,2.865,53.61,2.865,53.61L109,182.1l-6.086-11.734-1-55.016,2.323-8.7Z" transform="translate(-23.996 -41.405)" fill="#5038a1"/>
            <path id="Trazado_115988" data-name="Trazado 115988" d="M117.811,99.926c-.024.025.175.275.568.7s.981,1.021,1.739,1.727a50.11,50.11,0,0,0,6.379,5.013l.383.255.024-.46c0-.072.008-.151.012-.229a24.987,24.987,0,0,1,.509-4.454,7.314,7.314,0,0,1,1.525-3.225,9.006,9.006,0,0,1,2.665-2,2.174,2.174,0,0,0-.889.264,6.248,6.248,0,0,0-2.055,1.49,7.383,7.383,0,0,0-1.716,3.353,23,23,0,0,0-.564,4.543c0,.078-.009.158-.012.229l.407-.2a67.333,67.333,0,0,1-6.425-4.851c-1.568-1.334-2.5-2.206-2.551-2.152" transform="translate(-50.248 -40.601)" fill="#1a2e35"/>
            <path id="Trazado_115989" data-name="Trazado 115989" d="M99.265,97.236a25.268,25.268,0,0,1,2.09,1.482,11.017,11.017,0,0,1,3.284,5.294c.1.386.178.772.239,1.141l.091.553.326-.425c1.361-1.772,2.549-3.356,3.384-4.508a11.482,11.482,0,0,0,1.273-1.915,11.014,11.014,0,0,0-1.516,1.69c-.9,1.092-2.132,2.635-3.5,4.4l.418.129a11.483,11.483,0,0,0-.249-1.21,10.521,10.521,0,0,0-3.539-5.442,7.715,7.715,0,0,0-1.633-.991c-.415-.167-.652-.227-.662-.2" transform="translate(-17.782 -40.594)" fill="#1a2e35"/>
            <path id="Trazado_115990" data-name="Trazado 115990" d="M113.394,110.168c0,.145.763.278,1.71.3s1.717-.084,1.72-.229-.762-.277-1.71-.3-1.717.084-1.72.229" transform="translate(-32.883 -45.9)" fill="#1a2e35"/>
            <path id="Trazado_115991" data-name="Trazado 115991" d="M113.127,101.574a11.073,11.073,0,0,0,5.234,4.519,25.854,25.854,0,0,0-2.635-2.239,25.747,25.747,0,0,0-2.6-2.28" transform="translate(-34.261 -42.406)" fill="#1a2e35"/>
            <path id="Trazado_115992" data-name="Trazado 115992" d="M115.206,117.686a14.9,14.9,0,0,0-.27-3.929,14.921,14.921,0,0,0-.79-3.859,14.936,14.936,0,0,0,.27,3.929,14.912,14.912,0,0,0,.79,3.858" transform="translate(-31.728 -45.883)" fill="#1a2e35"/>
            <path id="Trazado_115993" data-name="Trazado 115993" d="M116.944,124.8a49.413,49.413,0,0,0,.03-7.2,49.386,49.386,0,0,0-.5-7.179,49.51,49.51,0,0,0-.03,7.2,49.485,49.485,0,0,0,.5,7.179" transform="translate(-34.849 -46.102)" fill="#1a2e35"/>
            <path id="Trazado_115994" data-name="Trazado 115994" d="M59.2,179.885a3.049,3.049,0,0,0,.064-.648c.021-.48.048-1.1.082-1.858.053-1.613.155-3.946.309-6.827.3-5.763.913-13.712,1.92-22.459s2.2-16.635,3.108-22.334c.454-2.8.826-5.09,1.094-6.748.117-.753.212-1.362.286-1.837a3,3,0,0,0,.064-.647,3.045,3.045,0,0,0-.168.628c-.1.47-.226,1.074-.383,1.82-.324,1.582-.758,3.879-1.259,6.723-1.007,5.687-2.248,13.575-3.264,22.336s-1.564,16.727-1.769,22.5c-.107,2.887-.153,5.224-.143,6.84.007.763.013,1.38.017,1.86a3.009,3.009,0,0,0,.041.649" transform="translate(49.404 -48.651)" fill="#375a64"/>
            <g id="Grupo_80944" data-name="Grupo 80944" transform="translate(92.173 66.138)" opacity="0.4">
              <g id="Grupo_80943" data-name="Grupo 80943">
                <g id="Grupo_80942" data-name="Grupo 80942" clip-path="url(#clip-path-4)">
                  <path id="Trazado_115995" data-name="Trazado 115995" d="M89.033,113.543c.924,9.092,1.849,18.244,1.114,27.354s-3.235,18.271-8.589,25.677a4.291,4.291,0,0,1-1.3,1.315,1.58,1.58,0,0,1-1.751-.057c-.818-.7-.341-2.017.175-2.96a88.705,88.705,0,0,0,10.351-51.329" transform="translate(-78.066 -113.543)" fill="#fdb74d"/>
                </g>
              </g>
            </g>
            <g id="Grupo_80947" data-name="Grupo 80947" transform="translate(60.692 72.919)" opacity="0.4">
              <g id="Grupo_80946" data-name="Grupo 80946">
                <g id="Grupo_80945" data-name="Grupo 80945" clip-path="url(#clip-path-5)">
                  <path id="Trazado_115996" data-name="Trazado 115996" d="M140.913,171.074c.123,1.019-1.131,1.763-2.131,1.534a4.514,4.514,0,0,1-2.356-1.881c-5.015-6.533-7.906-14.494-9.472-22.579s-1.874-14.732-2.179-22.962c4.019,16.719,11.571,37.79,16.621,46.857" transform="translate(-124.777 -125.185)" fill="#fdb74d"/>
                </g>
              </g>
            </g>
            <g id="Grupo_80950" data-name="Grupo 80950" transform="translate(43.442 78.092)" opacity="0.4">
              <g id="Grupo_80949" data-name="Grupo 80949">
                <g id="Grupo_80948" data-name="Grupo 80948" clip-path="url(#clip-path-6)">
                  <path id="Trazado_115997" data-name="Trazado 115997" d="M178.669,134.066s.366,10.817-2.371,12.592l.815,8.072s-.13,7.182-.267,9.694a33.152,33.152,0,0,0,3.3-14.595,99.13,99.13,0,0,0-1.241-15.029" transform="translate(-176.298 -134.066)" fill="#fdb74d"/>
                </g>
              </g>
            </g>
            <g id="Grupo_80953" data-name="Grupo 80953" transform="translate(7.151 75.189)" opacity="0.4">
              <g id="Grupo_80952" data-name="Grupo 80952">
                <g id="Grupo_80951" data-name="Grupo 80951" clip-path="url(#clip-path-7)">
                  <path id="Trazado_115998" data-name="Trazado 115998" d="M236.832,130.088a9.3,9.3,0,0,1-4.261,5.846,5.049,5.049,0,0,1-2.219.719,4.727,4.727,0,0,1-4.073-2.56,12.634,12.634,0,0,1-1.159-4.874l11.168-.138Z" transform="translate(-225.12 -129.081)"/>
                </g>
              </g>
            </g>
            <g id="Grupo_80956" data-name="Grupo 80956" transform="translate(112.686 111)" opacity="0.4">
              <g id="Grupo_80955" data-name="Grupo 80955">
                <g id="Grupo_80954" data-name="Grupo 80954" clip-path="url(#clip-path-8)">
                  <path id="Trazado_115999" data-name="Trazado 115999" d="M35.975,201.893a14.277,14.277,0,0,1,14.336-7.9,3.188,3.188,0,0,0,1.269.01.948.948,0,0,0,.743-.913,1.255,1.255,0,0,0-.507-.765c-2.813-2.425-7.31-2.249-10.342-.1a13.509,13.509,0,0,0-5.5,9.669" transform="translate(-35.975 -190.561)"/>
                </g>
              </g>
            </g>
            <g id="Grupo_80959" data-name="Grupo 80959" transform="translate(23.462 83.852)" opacity="0.4">
              <g id="Grupo_80958" data-name="Grupo 80958">
                <g id="Grupo_80957" data-name="Grupo 80957" clip-path="url(#clip-path-9)">
                  <path id="Trazado_116000" data-name="Trazado 116000" d="M196.7,143.955a17.793,17.793,0,0,1,11.712,10.593c.216.563.375,1.276-.048,1.7a1.163,1.163,0,0,1-1.578-.153,3.86,3.86,0,0,1-.774-1.566,17.65,17.65,0,0,0-9.379-10.355" transform="translate(-196.629 -143.955)"/>
                </g>
              </g>
            </g>
            <path id="Trazado_116001" data-name="Trazado 116001" d="M236.488,111.5l-.185-6.571a1.6,1.6,0,0,0-.122-.568l-1.487-3.558s6.036-6.882,6.359-7.731.125-1.746-1.372-1.122-6.359,5.113-6.359,5.113l-1.87-3.318s4.371-4.662,4.8-5.161.183-3.117-1.437-2.244a51.984,51.984,0,0,0-5.736,4.613l-1.122-1.122,3.242-4.987s1.122-1.746-.249-2.244-2,.5-2.993,1.62a37.348,37.348,0,0,0-2.537,3.552l-.962-.075-1.488-.359.115-1.733s2-2.886,2.335-3.529c.277-.528,1.122-1.769,0-2.268s-1.855-.6-2.45.422a6.218,6.218,0,0,1-1.228,1.318,8.415,8.415,0,0,0-1.994-1.364c-.888-.278-1.936.746-.9,3.588.17.469,1.186,5.7,1.186,5.7l.249,2.743,1.195,2.452,5.362,9.376-.2,6.4a6.4,6.4,0,0,0,.975,4.088,3.74,3.74,0,0,0,4.16,1.223,8.276,8.276,0,0,0,4.716-4.26" transform="translate(-218.419 -33.166)" fill="#ffc09d"/>
            <path id="Trazado_116002" data-name="Trazado 116002" d="M234.584,102.9a9.718,9.718,0,0,0,.367-1.423l.423-1.537c.08-.291.162-.6.234-.927a1.252,1.252,0,0,0,.029-.155.326.326,0,0,0-.016-.125.15.15,0,0,0-.019-.04.268.268,0,0,0-.232-.129.257.257,0,0,0-.179.076l-.01.01-.034.047-.031.065-.029.079a.389.389,0,0,0-.025.163l0,.03a.264.264,0,0,0,.385.175l.017-.012a.338.338,0,0,0,.062-.056.288.288,0,0,0,.03-.045l.024-.043.059-.105a2.878,2.878,0,0,1,.263-.389,22.677,22.677,0,0,1,2.544-2.4c.691-.591,1.1-.987,1.056-1.046a4.337,4.337,0,0,0-1.283.752,14.141,14.141,0,0,0-2.729,2.368,3.226,3.226,0,0,0-.311.466l-.062.115-.006.012a1.435,1.435,0,0,0,.142.088c.055.022.055.076.09.061.33.048.206.035.235.019l.013-.038v0c.036.02-.111-.059-.139-.068-.048-.016-.083-.069-.1-.054-.057.025-.066-.007-.179-.005s-.033-.006-.062,0l0,.023-.012.058c-.067.308-.133.611-.2.913-.134.587-.248,1.123-.317,1.579a2.76,2.76,0,0,0,0,1.5" transform="translate(-226.114 -39.708)" fill="#ff9b6c"/>
            <path id="Trazado_116003" data-name="Trazado 116003" d="M245.041,98.516a11.233,11.233,0,0,1,.432-3.155c.617-1.648,1.651-2.739,1.514-2.856a5.515,5.515,0,0,0-2.284,5.071c.091.62.284.954.338.94" transform="translate(-239.518 -38.619)" fill="#ff9b6c"/>
            <path id="Trazado_116004" data-name="Trazado 116004" d="M225.115,116.275a11.955,11.955,0,0,0,2.5-2.482,12,12,0,0,0,2.106-2.828,11.993,11.993,0,0,0-2.5,2.482,12,12,0,0,0-2.106,2.828" transform="translate(-210.859 -46.326)" fill="#ff9b6c"/>
            <path id="Trazado_116005" data-name="Trazado 116005" d="M228.831,111.45a10.358,10.358,0,0,0,2.508-2.079,10.338,10.338,0,0,0,2.141-2.455,20.224,20.224,0,0,0-4.649,4.535" transform="translate(-216.781 -44.635)" fill="#ff9b6c"/>
            <path id="Trazado_116006" data-name="Trazado 116006" d="M226.275,124.451c.022.048.566-.142,1.154-.821a4.718,4.718,0,0,0,1.117-3.236,4.432,4.432,0,0,0-.5-1.86c-.276-.517-.564-.929-.768-1.293-.429-.714-.469-1.233-.549-1.233s-.157.583.217,1.4a7.525,7.525,0,0,1,1.08,3.009,4.98,4.98,0,0,1-.885,2.985c-.465.68-.913.976-.862,1.05" transform="translate(-210.359 -48.434)" fill="#ff9b6c"/>
            <path id="Trazado_116007" data-name="Trazado 116007" d="M232.834,121.671A29.09,29.09,0,0,0,235,125.694a6.421,6.421,0,0,0,1.125,1.448,3.989,3.989,0,0,0,1.288.8c.832.3,1.387.147,1.374.09,0-.085-.522-.077-1.226-.431a5.228,5.228,0,0,1-2.114-2.188c-1.262-2.162-2.471-3.854-2.612-3.747" transform="translate(-224.415 -50.797)" fill="#ff9b6c"/>
            <path id="Trazado_116008" data-name="Trazado 116008" d="M244.91,89.763a9.237,9.237,0,0,0,.247-2.723l-.044.142A13.531,13.531,0,0,0,245.878,86c.573-1,1-1.922,1.346-2.576s.552-1.063.49-1.107-.386.3-.809.918-.921,1.53-1.48,2.5c-.243.417-.485.809-.718,1.159l-.046.07,0,.072a9.236,9.236,0,0,0,.247,2.723" transform="translate(-240.245 -34.368)" fill="#ff9b6c"/>
            <path id="Trazado_116009" data-name="Trazado 116009" d="M250.967,93.073c.048-.027-.08-.4-.126-1.1a27.437,27.437,0,0,1-.04-2.854V89.1l0-.027q-.231-1.28-.485-2.7l-.038-.2,0,.031a3.661,3.661,0,0,1,.99-2.1l1.2-1.7a7.083,7.083,0,0,0,1-1.636,7.128,7.128,0,0,0-1.29,1.416l-1.291,1.627a10.029,10.029,0,0,0-.735,1.022,2.467,2.467,0,0,0-.4,1.4v.016l0,.016c.012.064.025.133.038.2q.279,1.414.529,2.691l0-.05a15.974,15.974,0,0,0,.233,2.9c.13.709.368,1.088.413,1.058" transform="translate(-248.955 -33.721)" fill="#ff9b6c"/>
            <path id="Trazado_116010" data-name="Trazado 116010" d="M235.525,108.124c.147-.044-.047-.992.086-2.143.116-1.153.507-2.038.373-2.112-.111-.081-.762.776-.9,2.056a2.776,2.776,0,0,0,.437,2.2" transform="translate(-222.94 -43.364)" fill="#ff9b6c"/>
            <path id="Trazado_116011" data-name="Trazado 116011" d="M240.825,101.71a17.279,17.279,0,0,0,.514-2.229,17.31,17.31,0,0,0,.7-2.175c-.105-.088-.857.737-1.212,2.035a3.252,3.252,0,0,0-.007,2.368" transform="translate(-232.237 -40.624)" fill="#ff9b6c"/>
            <path id="Trazado_116012" data-name="Trazado 116012" d="M27.325,200.392a55.351,55.351,0,0,0-12.1-37.784l-.548.383a54.743,54.743,0,0,1,11.964,37.362Z" transform="translate(114.008 -67.89)" fill="#5038a1"/>
            <path id="Trazado_116013" data-name="Trazado 116013" d="M36.907,163.267l.129-.086a2.3,2.3,0,0,0,.588-3.355l-3.63-4.715a2.694,2.694,0,0,0-3.593-.549l-.129.086A2.3,2.3,0,0,0,29.685,158l3.63,4.715a2.694,2.694,0,0,0,3.593.549" transform="translate(94.876 -64.342)" fill="#5038a1"/>
            <rect id="Rectángulo_34848" data-name="Rectángulo 34848" width="127.227" height="165.696" transform="translate(22.766 131.092)" fill="#e6e6e6"/>
            <path id="Trazado_116014" data-name="Trazado 116014" d="M1.833,225.1s.036.158.123.454l.388,1.294q.132.43.285.935c.117.337.276.695.43,1.084a24.706,24.706,0,0,0,1.151,2.6l.755,1.481c.268.512.612,1.013.933,1.549A37.288,37.288,0,0,0,8.177,237.8a43.954,43.954,0,0,0,6.5,6.61,46.019,46.019,0,0,0,7.942,5.057,41.34,41.34,0,0,0,3.82,1.631c.615.219,1.195.465,1.776.638l1.678.485a29.09,29.09,0,0,0,2.926.689c.435.086.835.181,1.21.241l1.032.129,1.428.172c.326.037.5.048.5.048s-.17-.035-.495-.084l-1.421-.205-1.027-.144c-.373-.064-.772-.164-1.2-.254-.86-.2-1.856-.363-2.91-.712l-1.669-.494c-.578-.176-1.154-.425-1.766-.646-1.234-.42-2.474-1.032-3.8-1.639a46.522,46.522,0,0,1-7.9-5.047A44.47,44.47,0,0,1,8.319,237.7a37.661,37.661,0,0,1-2.284-3.272c-.323-.532-.669-1.03-.939-1.538l-.764-1.471a25.415,25.415,0,0,1-1.174-2.586c-.158-.386-.322-.741-.443-1.076l-.3-.928-.422-1.284c-.1-.293-.16-.445-.16-.445" transform="translate(111.935 -93.98)" fill="#4d4d4d"/>
            <path id="Trazado_116015" data-name="Trazado 116015" d="M1.093,225.743s.009.118.044.342l.165.977a11.345,11.345,0,0,0,.337,1.532,18.554,18.554,0,0,0,.6,2l.411,1.143c.147.4.348.792.531,1.21a27.659,27.659,0,0,0,1.339,2.6,32.515,32.515,0,0,0,4.062,5.4,34.072,34.072,0,0,0,5.239,4.437c.9.571,1.742,1.136,2.6,1.563.422.221.817.457,1.22.642l1.164.523a21.9,21.9,0,0,0,2.047.8,13.5,13.5,0,0,0,1.586.5l1.017.274c.233.061.358.083.358.083s-.118-.046-.347-.118l-1.005-.3a14.563,14.563,0,0,1-1.57-.529c-.6-.235-1.3-.461-2.028-.822l-1.153-.531c-.4-.188-.79-.426-1.209-.648-.847-.43-1.68-1-2.573-1.569a34.575,34.575,0,0,1-5.2-4.422,33.071,33.071,0,0,1-4.052-5.365,28.283,28.283,0,0,1-1.347-2.579c-.184-.415-.389-.807-.538-1.2s-.286-.771-.421-1.135a19.435,19.435,0,0,1-.622-1.98,12.138,12.138,0,0,1-.367-1.521l-.2-.969c-.047-.221-.082-.337-.082-.337" transform="translate(125.549 -94.25)" fill="#4d4d4d"/>
            <path id="Trazado_116016" data-name="Trazado 116016" d="M20.625,247.306a1.312,1.312,0,0,1,.567.317,1.427,1.427,0,0,1,.391.693,1.167,1.167,0,0,1-.245,1.058l.013-.007a25.983,25.983,0,0,1-4.9.39,8.962,8.962,0,0,1-3.258-.725,5.347,5.347,0,0,1-2.6-2.646,4,4,0,0,1-.354-1.969,2.933,2.933,0,0,1,.945-1.886c1.138-1.057,2.947-1.251,4.656-1.153a32.148,32.148,0,0,1,10.955,2.737,28.756,28.756,0,0,1,5.377,3.115,10.8,10.8,0,0,1,3.861,5,4.652,4.652,0,0,1-.082,3.168,5.126,5.126,0,0,1-2.211,2.5,14.154,14.154,0,0,1-7.117,1.442c-5.015-.118-10.368-.753-15.19-3.066a19.878,19.878,0,0,1-6.351-4.739,13.18,13.18,0,0,1-3.3-7.069,10.934,10.934,0,0,1,2.452-8.557,13.054,13.054,0,0,1,8.175-4.031,26.565,26.565,0,0,1,9.1.461c1.45.356,2.871.762,4.282,1.137,1.367.5,2.731.965,4.054,1.478a82.486,82.486,0,0,1,14.035,7.676c4.158,2.766,7.908,5.5,11.38,7.941,3.451,2.463,6.665,4.581,9.54,6.364a84.435,84.435,0,0,0,7.659,4.143l2.916,1.3c.865.331,1.609.585,2.2.8,1.194.429,1.824.645,1.824.645s-.622-.239-1.81-.678c-.592-.223-1.333-.482-2.195-.818l-2.906-1.309a85.779,85.779,0,0,1-7.634-4.164c-2.867-1.789-6.071-3.912-9.517-6.381-3.465-2.444-7.211-5.187-11.37-7.961a82.452,82.452,0,0,0-14.056-7.705c-1.327-.517-2.7-.984-4.066-1.487-1.417-.378-2.843-.786-4.3-1.145a26.755,26.755,0,0,0-9.17-.467A13.247,13.247,0,0,0,4.083,235.8a11.106,11.106,0,0,0-2.494,8.69,13.35,13.35,0,0,0,3.345,7.161,20.058,20.058,0,0,0,6.412,4.782c4.864,2.33,10.241,2.963,15.274,3.078a14.316,14.316,0,0,0,7.212-1.474,5.284,5.284,0,0,0,2.277-2.584,4.8,4.8,0,0,0,.083-3.266,10.945,10.945,0,0,0-3.921-5.071,28.812,28.812,0,0,0-5.413-3.127,32.265,32.265,0,0,0-11.012-2.731c-1.721-.094-3.567.1-4.744,1.2a3.033,3.033,0,0,0-.972,1.953,4.08,4.08,0,0,0,.368,2.015,5.441,5.441,0,0,0,2.651,2.684,9.044,9.044,0,0,0,3.293.72,25.561,25.561,0,0,0,4.914-.419h.008l.005-.006a1.2,1.2,0,0,0,.244-1.09,1.441,1.441,0,0,0-.407-.7,1.142,1.142,0,0,0-.583-.3" transform="translate(69.723 -96.653)" fill="#4d4d4d"/>
            <path id="Trazado_116017" data-name="Trazado 116017" d="M0,225.379s.417.174,1.217.488a17.594,17.594,0,0,1,3.238,1.83,19.219,19.219,0,0,1,4.023,4.128c1.351,1.785,2.713,3.935,4.45,6.168s3.549,4.725,5.581,7.354a60.268,60.268,0,0,0,7.122,7.922,39.2,39.2,0,0,0,4.632,3.561,44.094,44.094,0,0,0,5.394,2.961,57.911,57.911,0,0,0,12.421,3.981c8.827,1.834,17.484,1.914,25.27,1.962,7.8.006,14.833,0,20.712.479a29.049,29.049,0,0,1,13.109,4.033,23.247,23.247,0,0,1,2.978,2.19c.623.563.948.864.948.864s-.306-.317-.922-.89a22.341,22.341,0,0,0-2.963-2.222,28.932,28.932,0,0,0-13.139-4.1c-5.885-.5-12.923-.5-20.723-.518-7.784-.057-16.428-.142-25.229-1.972a57.862,57.862,0,0,1-12.38-3.964,44,44,0,0,1-5.373-2.945,39.1,39.1,0,0,1-4.614-3.539,60.371,60.371,0,0,1-7.116-7.892c-2.035-2.622-3.852-5.12-5.6-7.341s-3.109-4.366-4.472-6.151A19.155,19.155,0,0,0,4.5,227.642a17.137,17.137,0,0,0-3.268-1.807c-.807-.3-1.233-.455-1.233-.455" transform="translate(38.898 -94.098)" fill="#4d4d4d"/>
            <path id="Trazado_116018" data-name="Trazado 116018" d="M118.389,304.545s-.128-.491-.39-1.424a17.647,17.647,0,0,0-.542-1.708,24.241,24.241,0,0,0-.882-2.289,28.941,28.941,0,0,0-3.32-5.9,31.064,31.064,0,0,0-6.38-6.494,52.409,52.409,0,0,0-22.356-9.14c-4.557-.814-9.4-1.26-14.419-1.719a144.957,144.957,0,0,1-15.434-2,43.7,43.7,0,0,1-14.377-5.358,45.818,45.818,0,0,1-10.629-9.133,118.957,118.957,0,0,1-7.638-9.982c-2.257-3.217-4.331-6.234-6.337-8.918-1.008-1.339-1.967-2.614-2.95-3.769-.486-.58-.937-1.161-1.414-1.694l-1.407-1.531c-.879-1.011-1.815-1.851-2.65-2.646-.424-.391-.809-.787-1.213-1.127l-1.178-.942c-.757-.581-1.38-1.156-2.007-1.549L1.3,226.21c-.848-.55-1.3-.831-1.3-.831s.436.3,1.275.86l1.554,1.032c.623.4,1.241.976,1.993,1.56l1.171.947c.4.341.784.737,1.205,1.13.83.8,1.76,1.639,2.634,2.651l1.4,1.533c.475.533.922,1.114,1.406,1.7.978,1.156,1.933,2.432,2.936,3.772,2,2.686,4.063,5.706,6.315,8.927a118.485,118.485,0,0,0,7.634,10.006,45.905,45.905,0,0,0,10.664,9.175,43.824,43.824,0,0,0,14.438,5.386,144.316,144.316,0,0,0,15.457,2c5.015.457,9.857.9,14.4,1.707a52.41,52.41,0,0,1,22.3,9.077,30.249,30.249,0,0,1,9.717,12.317c.388.84.663,1.61.9,2.279.253.663.431,1.235.559,1.7.274.928.427,1.414.427,1.414" transform="translate(31.604 -94.098)" fill="#4d4d4d"/>
            <path id="Trazado_116019" data-name="Trazado 116019" d="M162.673,294.97a14.084,14.084,0,0,0,.241,2.222,9.819,9.819,0,0,0,.811,2.6,4.408,4.408,0,0,0,2.795,2.48,4.072,4.072,0,0,0,2.34-.049,6.044,6.044,0,0,0,2.187-1.308,9.584,9.584,0,0,0,1.715-2.112,9.36,9.36,0,0,0,.648-1.27c.185-.445.418-.883.564-1.36a24,24,0,0,0,.655-13.282,38.086,38.086,0,0,0-2.454-7.463,22.691,22.691,0,0,0-1.985-3.723,8.847,8.847,0,0,0-3.284-3.012,4.845,4.845,0,0,0-4.623.227,8.815,8.815,0,0,0-2.993,3.639,65.77,65.77,0,0,0-3.215,9.133,74.776,74.776,0,0,0-2.691,20.443q.024,2.686.242,5.413a25.253,25.253,0,0,0,.97,5.434,12.912,12.912,0,0,0,2.763,4.944,9.569,9.569,0,0,0,5.1,2.974,12.45,12.45,0,0,0,6.028-.319,18.584,18.584,0,0,0,5.3-2.59,49.791,49.791,0,0,0,4.5-3.565c1.431-1.235,2.847-2.467,4.183-3.754,2.654-2.564,5.008-5.464,6.072-8.808a19.509,19.509,0,0,0,.087-10.039,46.047,46.047,0,0,0-1.295-4.722c-.507-1.532-.972-3.054-1.556-4.515l-.826-2.19q-.458-1.069-.908-2.123c-.576-1.414-1.247-2.764-1.886-4.1A95.443,95.443,0,0,0,173.618,260a100.577,100.577,0,0,0-16.526-17.737c-2.23-1.845-4-3.233-5.256-4.115-1.238-.9-1.894-1.363-1.894-1.363s.64.484,1.87,1.391c1.245.889,3.01,2.287,5.23,4.137a101.312,101.312,0,0,1,16.465,17.757,95.541,95.541,0,0,1,8.5,14.164c.637,1.335,1.306,2.684,1.879,4.1l.9,2.12q.408,1.085.823,2.187c.581,1.46,1.044,2.979,1.549,4.509a46.147,46.147,0,0,1,1.287,4.709,19.357,19.357,0,0,1-.09,9.959c-1.053,3.3-3.385,6.181-6.032,8.735-1.332,1.282-2.746,2.512-4.177,3.747a49.86,49.86,0,0,1-4.482,3.551,18.415,18.415,0,0,1-5.245,2.564,12.259,12.259,0,0,1-5.93.316,9.381,9.381,0,0,1-4.995-2.916,12.743,12.743,0,0,1-2.726-4.878,25.119,25.119,0,0,1-.964-5.4q-.219-2.717-.243-5.4a74.712,74.712,0,0,1,2.675-20.4,65.732,65.732,0,0,1,3.2-9.108,8.669,8.669,0,0,1,2.931-3.578,4.672,4.672,0,0,1,4.462-.222,8.708,8.708,0,0,1,3.227,2.958,22.6,22.6,0,0,1,1.978,3.7,38.1,38.1,0,0,1,2.458,7.434,23.926,23.926,0,0,1-.624,13.226c-.144.475-.374.911-.557,1.355a9.3,9.3,0,0,1-.64,1.263,9.5,9.5,0,0,1-1.693,2.1,5.942,5.942,0,0,1-2.149,1.3,3.99,3.99,0,0,1-2.294.055,4.351,4.351,0,0,1-2.763-2.435,9.876,9.876,0,0,1-.825-2.583c-.139-.72-.186-1.277-.229-1.65s-.05-.566-.05-.566" transform="translate(-126.589 -98.859)" fill="#4d4d4d"/>
            <path id="Trazado_116020" data-name="Trazado 116020" d="M0,315.777s.249.2.737.559a21.737,21.737,0,0,0,2.236,1.454,33.488,33.488,0,0,0,9.252,3.523,72.2,72.2,0,0,0,14.743,1.6c5.584.175,11.758.046,18.138.94A49.065,49.065,0,0,1,62.1,329.529a40.771,40.771,0,0,1,11.115,9.052,35.856,35.856,0,0,1,5.143,7.981c.524.991.78,1.819,1.024,2.353.223.543.349.825.349.825s-.1-.289-.314-.836c-.232-.539-.478-1.372-.992-2.369a35.171,35.171,0,0,0-5.106-8.032,40.624,40.624,0,0,0-11.13-9.114,49.045,49.045,0,0,0-17.052-5.708c-6.4-.9-12.582-.762-18.162-.928a72.865,72.865,0,0,1-14.716-1.561,33.966,33.966,0,0,1-9.246-3.461,23.671,23.671,0,0,1-2.251-1.423c-.495-.353-.761-.531-.761-.531" transform="translate(70.262 -131.84)" fill="#4d4d4d"/>
            <path id="Trazado_116021" data-name="Trazado 116021" d="M73.159,429.692s-.785-.031-2.279-.072c-1.492-.065-3.7-.149-6.514-.476a58.8,58.8,0,0,1-10.1-1.993A67.775,67.775,0,0,1,41.763,422a64.317,64.317,0,0,1-19.784-15.258,68.191,68.191,0,0,1-5.715-7.423c-7.237-10.582-11.852-23.978-14-38.273A173.441,173.441,0,0,1,.53,341.755l-.094.09c13.008.164,25.228,2.134,35.5,5.844a69.446,69.446,0,0,1,24.25,14.429,53.668,53.668,0,0,1,6.974,7.9,61.334,61.334,0,0,1,4.42,6.481,16,16,0,0,1,1.8,4.5,9.415,9.415,0,0,1,.165,1.238c.02.281.035.424.035.424s0-.144-.018-.425A8.775,8.775,0,0,0,73.419,381a15.809,15.809,0,0,0-1.775-4.525,60.59,60.59,0,0,0-4.4-6.5,53.527,53.527,0,0,0-6.967-7.931A69.409,69.409,0,0,0,36,347.546c-10.294-3.727-22.536-5.707-35.561-5.876H.34l0,.091a172.869,172.869,0,0,0,1.736,19.313c2.147,14.313,6.774,27.735,14.037,38.335a68.223,68.223,0,0,0,5.733,7.435A64.356,64.356,0,0,0,41.7,422.113a67.678,67.678,0,0,0,12.537,5.132,58.522,58.522,0,0,0,10.122,1.967c2.822.316,5.029.389,6.522.443,1.495.03,2.28.037,2.28.037" transform="translate(76.21 -142.65)" fill="#4d4d4d"/>
            <path id="Trazado_116022" data-name="Trazado 116022" d="M32.086,392.03a19.417,19.417,0,0,0-1.36-1.65,9.045,9.045,0,0,0-2.008-1.687,5.464,5.464,0,0,0-1.583-.646,4.771,4.771,0,0,0-1.964.027,3.841,3.841,0,0,0-1.9,1.019,2.32,2.32,0,0,0-.6,2.142,5.805,5.805,0,0,0,1.178,2.208c.545.689,1.106,1.408,1.729,2.123a52.122,52.122,0,0,0,9.607,8.692,53.946,53.946,0,0,0,6.55,3.944c2.386,1.159,4.926,2.492,7.889,2.74a6.162,6.162,0,0,0,4.256-1.044,5.223,5.223,0,0,0,2.012-3.789c.284-2.959-.936-5.864-2.239-8.651-2.771-5.591-7.34-10.626-12.813-14.9a84.625,84.625,0,0,0-8.815-5.982,55.454,55.454,0,0,0-9.955-4.824,25.343,25.343,0,0,0-11.037-1.535,12.336,12.336,0,0,0-5.167,1.717,7.568,7.568,0,0,0-3.182,4.028,10.292,10.292,0,0,0-.2,4.949,21.7,21.7,0,0,0,1.456,4.678,63.527,63.527,0,0,0,4.423,8.464A72.491,72.491,0,0,0,19.616,407.9a82.35,82.35,0,0,0,12.361,9.815,99.134,99.134,0,0,0,20.77,10.2c2.59.934,4.645,1.548,6.036,1.965,1.4.4,2.136.595,2.136.595s-.729-.223-2.124-.629c-1.387-.428-3.437-1.051-6.022-2a99.842,99.842,0,0,1-20.719-10.236A82.357,82.357,0,0,1,19.73,407.8,72.415,72.415,0,0,1,8.521,393.969a63.412,63.412,0,0,1-4.405-8.445,21.534,21.534,0,0,1-1.443-4.643,10.134,10.134,0,0,1,.194-4.871,7.389,7.389,0,0,1,3.109-3.934,12.135,12.135,0,0,1,5.085-1.687,25.146,25.146,0,0,1,10.946,1.527,55.313,55.313,0,0,1,9.92,4.807,84.56,84.56,0,0,1,8.8,5.966c5.459,4.263,10.012,9.277,12.773,14.838,1.3,2.773,2.511,5.664,2.231,8.567a5.074,5.074,0,0,1-1.947,3.685A5.993,5.993,0,0,1,49.64,410.8c-2.915-.238-5.449-1.559-7.831-2.714a53.919,53.919,0,0,1-6.54-3.924,52.172,52.172,0,0,1-9.6-8.654c-.625-.711-1.187-1.428-1.732-2.114a5.729,5.729,0,0,1-1.17-2.17,2.24,2.24,0,0,1,.576-2.075,3.758,3.758,0,0,1,1.852-1,4.712,4.712,0,0,1,1.932-.034,5.4,5.4,0,0,1,1.566.631A9.077,9.077,0,0,1,30.7,390.4c.479.514.815.93,1.043,1.208s.345.419.345.419" transform="translate(87.743 -154.516)" fill="#4d4d4d"/>
            <path id="Trazado_116023" data-name="Trazado 116023" d="M61.2,392.076s.421-.216,1.212-.642l3.462-1.861c1.507-.8,3.359-1.771,5.551-2.821a59.852,59.852,0,0,1,7.661-3.115,34.021,34.021,0,0,1,9.943-1.554,26.774,26.774,0,0,1,5.588.571,21.6,21.6,0,0,1,5.534,2.031,24.448,24.448,0,0,1,8.806,8.526,45.086,45.086,0,0,1,5.092,11.924c1.246,4.262,2.2,8.49,3.49,12.489a58.227,58.227,0,0,0,4.921,11.1,60.547,60.547,0,0,0,6.435,9.064,72.31,72.31,0,0,0,6.947,6.91,80.759,80.759,0,0,0,11.7,8.284c1.462.874,2.638,1.488,3.434,1.906s1.216.634,1.216.634-.409-.234-1.2-.665-1.96-1.052-3.414-1.934a82.269,82.269,0,0,1-11.648-8.317,72.575,72.575,0,0,1-6.915-6.911,60.579,60.579,0,0,1-6.4-9.048,58.174,58.174,0,0,1-4.9-11.074c-1.281-3.989-2.237-8.217-3.485-12.486a45.187,45.187,0,0,0-5.115-11.966,24.6,24.6,0,0,0-8.878-8.578,21.756,21.756,0,0,0-5.584-2.042,26.913,26.913,0,0,0-5.626-.566,34.057,34.057,0,0,0-9.985,1.582,59.418,59.418,0,0,0-7.667,3.145c-2.19,1.06-4.036,2.039-5.539,2.85-3,1.629-4.637,2.563-4.637,2.563" transform="translate(-37.845 -159.462)" fill="#4d4d4d"/>
            <path id="Trazado_116024" data-name="Trazado 116024" d="M100.052,433.058s.2-.249.571-.73a6.9,6.9,0,0,1,.728-.856,10.7,10.7,0,0,1,1.1-1.083,18.985,18.985,0,0,1,8.938-4.292,24.13,24.13,0,0,1,6.986-.366,25.2,25.2,0,0,1,7.717,2.055,37.887,37.887,0,0,1,13.9,11.138,110.552,110.552,0,0,1,9.5,14.837,86.823,86.823,0,0,0,7.77,12.133,34.514,34.514,0,0,0,7.268,6.669c1.943,1.337,3.094,1.97,3.094,1.97s-.271-.182-.8-.515-1.3-.828-2.253-1.51a35.01,35.01,0,0,1-7.205-6.69,87.935,87.935,0,0,1-7.723-12.133,109.507,109.507,0,0,0-9.5-14.867,37.942,37.942,0,0,0-13.982-11.18,25.328,25.328,0,0,0-7.776-2.053,24.186,24.186,0,0,0-7.031.39,18.907,18.907,0,0,0-8.96,4.365,10.487,10.487,0,0,0-1.09,1.1,6.681,6.681,0,0,0-.716.87c-.359.489-.539.751-.539.751" transform="translate(-75.913 -177.644)" fill="#4d4d4d"/>
            <path id="Trazado_116025" data-name="Trazado 116025" d="M190.014,471.744a3.869,3.869,0,0,0-.7-.022,4.373,4.373,0,0,0-1.911.559,5.526,5.526,0,0,0-2.132,2.18,4.751,4.751,0,0,0-.333,3.858A6.7,6.7,0,0,0,188.2,481.9a7.637,7.637,0,0,0,5.714.62,8.989,8.989,0,0,0,6.187-6.762,9.782,9.782,0,0,0,.052-3.305,13.492,13.492,0,0,0-7.755-9.753,12.981,12.981,0,0,0-5.683-1.248,11.209,11.209,0,0,0-2.636.371,10.6,10.6,0,0,0-2.24.947,8.919,8.919,0,0,0-4.326,5.422,6.491,6.491,0,0,0-.193,1.867c.038.429.068.652.068.652a7.317,7.317,0,0,1,.2-2.5,8.91,8.91,0,0,1,4.324-5.33,10.473,10.473,0,0,1,2.212-.923,11.063,11.063,0,0,1,2.6-.355,12.842,12.842,0,0,1,5.6,1.247,13.349,13.349,0,0,1,7.645,9.632,9.636,9.636,0,0,1-.05,3.247,8.826,8.826,0,0,1-6.053,6.638,7.47,7.47,0,0,1-5.585-.593,6.587,6.587,0,0,1-3.212-3.494,4.661,4.661,0,0,1,.3-3.775,5.476,5.476,0,0,1,2.075-2.165,4.418,4.418,0,0,1,1.876-.583c.455-.03.7,0,.7-.015" transform="translate(-153.56 -192.661)" fill="#4d4d4d"/>
          </g>
        </g>
      </g>
    </g>
  </g>
</svg>
