<svg id="Grupo_81164" data-name="Grupo 81164" xmlns="http://www.w3.org/2000/svg" xmlns:xlink="http://www.w3.org/1999/xlink" width="85" height="70.136" viewBox="0 0 85 70.136">
  <defs>
    <clipPath id="clip-path">
      <rect id="Rectángulo_34997" data-name="Rectángulo 34997" width="85" height="70.136" fill="none"/>
    </clipPath>
  </defs>
  <g id="Grupo_81163" data-name="Grupo 81163" clip-path="url(#clip-path)">
    <path id="Trazado_117338" data-name="Trazado 117338" d="M200.172,58.437v50.647a4.276,4.276,0,0,1-4.252,4.3h-9.779a4.287,4.287,0,0,1-4.3-4.3V58.437a4.287,4.287,0,0,1,4.3-4.305h9.779a4.276,4.276,0,0,1,4.252,4.305" transform="translate(-152.478 -45.392)" fill="#fdb74d"/>
    <path id="Trazado_117339" data-name="Trazado 117339" d="M180.538,56.765v50.6a4.258,4.258,0,0,1-4.233,4.33h-9.78a4.278,4.278,0,0,1-4.33-4.33v-50.6a4.279,4.279,0,0,1,4.33-4.33h9.78a4.258,4.258,0,0,1,4.233,4.33" transform="translate(-136.007 -43.969)" fill="#fedc72"/>
    <path id="Trazado_117340" data-name="Trazado 117340" d="M214.529,350.768v7.055a4.288,4.288,0,0,1-4.233,4.33h-9.78a4.207,4.207,0,0,1-1.557-.292h8.174a4.258,4.258,0,0,0,4.233-4.33v-6.763Z" transform="translate(-166.836 -294.134)" fill="#c9d0d8"/>
    <path id="Trazado_117341" data-name="Trazado 117341" d="M196.963,350.768v6.763a4.258,4.258,0,0,1-4.233,4.33h-8.174a4.352,4.352,0,0,1-2.773-4.038v-7.055Z" transform="translate(-152.433 -294.134)" fill="#f2f2f2"/>
    <rect id="Rectángulo_34993" data-name="Rectángulo 34993" width="3.162" height="6.471" transform="translate(44.53 19.364)" fill="#c9d0d8"/>
    <rect id="Rectángulo_34994" data-name="Rectángulo 34994" width="15.18" height="6.471" transform="translate(29.35 19.364)" fill="#f2f2f2"/>
    <path id="Trazado_117342" data-name="Trazado 117342" d="M311.3,72.535l-1.362.341-8.417,2.238a4.476,4.476,0,0,1-5.5-3.163l-13.429-50.8a4.448,4.448,0,0,1,1.9-4.914,4.26,4.26,0,0,1,1.265-.584l9.828-2.579a4.419,4.419,0,0,1,5.4,3.162l13.429,50.844a4.457,4.457,0,0,1-3.114,5.449" transform="translate(-236.844 -10.84)" fill="#5038a1"/>
    <path id="Trazado_117343" data-name="Trazado 117343" d="M309.934,77.677l-8.417,2.238a4.477,4.477,0,0,1-5.5-3.163l-1.849-7.1L286,38.8l-1.752-6.52-1.654-6.325a4.448,4.448,0,0,1,1.9-4.914l8.466-2.238a4.411,4.411,0,0,1,5.4,3.211L299.96,28.1l1.751,6.568,8.174,30.847,1.946,7.3a4.378,4.378,0,0,1-1.9,4.866" transform="translate(-236.843 -15.642)" fill="#8c6df2"/>
    <path id="Trazado_117344" data-name="Trazado 117344" d="M453.8,316.913l-1.362.341a4.378,4.378,0,0,0,1.9-4.866l-1.946-7.3,2.676-.73,1.849,7.1a4.456,4.456,0,0,1-3.114,5.449" transform="translate(-379.35 -255.219)" fill="#c9d0d8"/>
    <path id="Trazado_117345" data-name="Trazado 117345" d="M393.593,72.926l1.752,6.52-2.676.73-1.751-6.568Z" transform="translate(-327.8 -61.151)" fill="#c9d0d8"/>
    <path id="Trazado_117346" data-name="Trazado 117346" d="M370.821,321.044l-8.417,2.238a4.477,4.477,0,0,1-5.5-3.163l-1.849-7.1,15.715-4.136,1.946,7.3a4.378,4.378,0,0,1-1.9,4.866" transform="translate(-297.73 -259.009)" fill="#f2f2f2"/>
    <path id="Trazado_117347" data-name="Trazado 117347" d="M311.048,83.713l-15.715,4.136-1.752-6.52L309.3,77.145Z" transform="translate(-246.18 -64.689)" fill="#f2f2f2"/>
    <path id="Trazado_117348" data-name="Trazado 117348" d="M84.886,4.817V61.694a4.828,4.828,0,0,1-4.817,4.817H69.122a4.838,4.838,0,0,1-4.866-4.817V4.817A4.838,4.838,0,0,1,69.122,0H80.069a4.828,4.828,0,0,1,4.817,4.817" transform="translate(-53.881)" fill="#fdb74d"/>
    <path id="Trazado_117349" data-name="Trazado 117349" d="M81.091,4.817V61.694a4.786,4.786,0,0,1-4.768,4.817h-7.2a4.838,4.838,0,0,1-4.866-4.817V4.817A4.838,4.838,0,0,1,69.122,0h7.2a4.786,4.786,0,0,1,4.768,4.817" transform="translate(-53.881)" fill="#fedc72"/>
    <path id="Trazado_117350" data-name="Trazado 117350" d="M147.553,332.988v7.931a4.828,4.828,0,0,1-4.817,4.817H138.99a4.787,4.787,0,0,0,4.768-4.817v-7.931Z" transform="translate(-116.549 -279.225)" fill="#efe8d3"/>
    <path id="Trazado_117351" data-name="Trazado 117351" d="M81.091,332.988v7.931a4.787,4.787,0,0,1-4.768,4.817h-7.2a4.838,4.838,0,0,1-4.866-4.817v-7.931Z" transform="translate(-53.881 -279.225)" fill="#f2f2f2"/>
    <path id="Trazado_117352" data-name="Trazado 117352" d="M85,392.8v.633a3.3,3.3,0,0,1-3.26,3.308H3.309A3.259,3.259,0,0,1,.195,394.5,2.616,2.616,0,0,1,0,393.432V392.8a3.281,3.281,0,0,1,3.309-3.308H81.74a3.7,3.7,0,0,1,1.022.146A3.32,3.32,0,0,1,85,392.8" transform="translate(0 -326.605)" fill="#5038a1"/>
    <path id="Trazado_117353" data-name="Trazado 117353" d="M82.908,390.659v.681a3.312,3.312,0,0,1-3.308,3.309H1.168a3.146,3.146,0,0,1-.973-.146A2.617,2.617,0,0,1,0,393.432V392.8a3.281,3.281,0,0,1,3.308-3.308H81.74a3.7,3.7,0,0,1,1.022.146,3.7,3.7,0,0,1,.146,1.022" transform="translate(0 -326.605)" fill="#8c6df2"/>
    <rect id="Rectángulo_34995" data-name="Rectángulo 34995" width="3.795" height="7.298" transform="translate(27.209 11.921)" fill="#efe8d3"/>
    <rect id="Rectángulo_34996" data-name="Rectángulo 34996" width="16.835" height="7.298" transform="translate(10.375 11.921)" fill="#f2f2f2"/>
  </g>
</svg>
