<svg xmlns="http://www.w3.org/2000/svg" xmlns:xlink="http://www.w3.org/1999/xlink" width="420.7" height="266.52" viewBox="0 0 420.7 266.52">
  <defs>
    <clipPath id="clip-path">
      <rect id="Rectángulo_34803" data-name="Rectángulo 34803" width="23.349" height="23.349" fill="#fff"/>
    </clipPath>
    <clipPath id="clip-path-2">
      <rect id="Rectángulo_34802" data-name="Rectángulo 34802" width="23.348" height="23.348" fill="#fff"/>
    </clipPath>
    <clipPath id="clip-path-4">
      <rect id="Rectángulo_34805" data-name="Rectángulo 34805" width="34.03" height="46.273" fill="none"/>
    </clipPath>
    <clipPath id="clip-path-5">
      <path id="Trazado_115728" data-name="Trazado 115728" d="M33.625,0A.4.4,0,0,0,33.4.076,84.911,84.911,0,0,0,23.15,9,112.306,112.306,0,0,0,14.2,19.3a121.162,121.162,0,0,0-7.73,11.292A89.022,89.022,0,0,0,.179,42.933c-.022.054-.044.115-.063.172A2.431,2.431,0,0,0,0,43.836v.021a2.429,2.429,0,0,0,2.415,2.416H2.44a2.428,2.428,0,0,0,2.3-1.685l.012-.038a84.9,84.9,0,0,1,5.078-12.1A117.874,117.874,0,0,1,16.5,20.931a110.06,110.06,0,0,1,7.98-10.707A83.59,83.59,0,0,1,33.888.7l0,0A.4.4,0,0,0,33.64,0Z" fill="#8c6df2"/>
    </clipPath>
    <clipPath id="clip-path-6">
      <rect id="Rectángulo_34805-2" data-name="Rectángulo 34805" width="96.338" height="131" fill="none"/>
    </clipPath>
    <clipPath id="clip-path-7">
      <path id="Trazado_115728-2" data-name="Trazado 115728" d="M95.194,0a1.123,1.123,0,0,0-.64.216A240.383,240.383,0,0,0,65.537,25.49,317.941,317.941,0,0,0,40.211,54.627,343.011,343.011,0,0,0,18.328,86.6,252.019,252.019,0,0,0,.507,121.543c-.062.154-.125.326-.177.486A6.884,6.884,0,0,0,0,124.1v.061A6.876,6.876,0,0,0,6.838,131h.069a6.873,6.873,0,0,0,6.5-4.771l.034-.107A240.355,240.355,0,0,1,27.82,91.86a333.7,333.7,0,0,1,18.894-32.6A311.577,311.577,0,0,1,69.307,28.943,236.644,236.644,0,0,1,95.938,1.979l.009-.008A1.121,1.121,0,0,0,95.236,0Z" fill="#fedc72"/>
    </clipPath>
    <clipPath id="clip-path-8">
      <rect id="Rectángulo_34989" data-name="Rectángulo 34989" width="234.548" height="266.52" fill="none"/>
    </clipPath>
  </defs>
  <g id="Grupo_81219" data-name="Grupo 81219" transform="translate(-895 -379.137)">
    <g id="Grupo_80527" data-name="Grupo 80527" transform="translate(0.7 19.067)">
      <ellipse id="Elipse_4784" data-name="Elipse 4784" cx="200" cy="106.5" rx="200" ry="106.5" transform="translate(915 399)" fill="#8c6df2" opacity="0.25"/>
    </g>
    <g id="Grupo_81162" data-name="Grupo 81162" transform="matrix(-0.966, -0.259, 0.259, -0.966, 1218.955, 481.336)" style="isolation: isolate">
      <g id="Grupo_80823" data-name="Grupo 80823" transform="translate(0 0)" clip-path="url(#clip-path)">
        <g id="Grupo_80822" data-name="Grupo 80822" transform="translate(0 0)">
          <g id="Grupo_80821" data-name="Grupo 80821" transform="translate(0 0)" clip-path="url(#clip-path-2)">
            <g id="Grupo_80820" data-name="Grupo 80820" transform="translate(0 0)" style="mix-blend-mode: overlay;isolation: isolate">
              <g id="Grupo_80819" data-name="Grupo 80819" transform="translate(0 0)">
                <g id="Grupo_80818" data-name="Grupo 80818" clip-path="url(#clip-path)">
                  <path id="Trazado_115727" data-name="Trazado 115727" d="M16.512,16.512v2.977a3.862,3.862,0,0,1-3.862,3.86H10.7a3.862,3.862,0,0,1-3.862-3.86V16.512H3.86A3.86,3.86,0,0,1,0,12.65V10.7A3.86,3.86,0,0,1,3.86,6.837H6.836V3.86A3.86,3.86,0,0,1,10.7,0H12.65a3.86,3.86,0,0,1,3.862,3.86V6.837h2.977a3.862,3.862,0,0,1,3.86,3.862V12.65a3.862,3.862,0,0,1-3.86,3.862Z" transform="translate(0 0.001)" fill="#fff" fill-rule="evenodd"/>
                </g>
              </g>
            </g>
          </g>
        </g>
      </g>
    </g>
    <g id="Grupo_80828" data-name="Grupo 80828" transform="translate(901.44 440.788) rotate(8)">
      <g id="Grupo_80827" data-name="Grupo 80827" clip-path="url(#clip-path-4)">
        <g id="Grupo_80826" data-name="Grupo 80826">
          <g id="Grupo_80825" data-name="Grupo 80825" clip-path="url(#clip-path-5)">
            <rect id="Rectángulo_34804" data-name="Rectángulo 34804" width="42.433" height="52.649" transform="translate(-4.191 -3.233)" fill="#8c6df2"/>
          </g>
        </g>
      </g>
    </g>
    <g id="Grupo_80829" data-name="Grupo 80829" transform="translate(1210 500.067)">
      <g id="Grupo_80827-2" data-name="Grupo 80827" clip-path="url(#clip-path-6)">
        <g id="Grupo_80826-2" data-name="Grupo 80826">
          <g id="Grupo_80825-2" data-name="Grupo 80825" clip-path="url(#clip-path-7)">
            <rect id="Rectángulo_34804-2" data-name="Rectángulo 34804" width="120.13" height="149.05" transform="translate(-11.865 -9.151)" fill="#fedc72"/>
          </g>
        </g>
      </g>
    </g>
    <g id="Grupo_81158" data-name="Grupo 81158" transform="translate(964.554 379.137)">
      <g id="Grupo_81159" data-name="Grupo 81159">
        <g id="Grupo_81158-2" data-name="Grupo 81158" clip-path="url(#clip-path-8)">
          <path id="Trazado_117291" data-name="Trazado 117291" d="M199.886,532.376c-20.283-16.22-43.422-55.044-43.422-55.044s9.914-10.138,12.506-10.176,50.383,47.371,51.163,48.29-12.825,22.863-20.246,16.93" transform="translate(-109.995 -328.414)" fill="#ff5c25"/>
          <path id="Trazado_117292" data-name="Trazado 117292" d="M231.921,534.965s-11.045,13.333-17.889,16.156l4.073,4.751s13.8-8.806,18.477-16.407Z" transform="translate(-150.466 -376.084)" fill="#fdda66"/>
          <path id="Trazado_117293" data-name="Trazado 117293" d="M318.765,401.92c16.137,19.189-21.477,82.418-30.67,78.446-2.893-1.249-20.1-10.372-18.166-15.306s36.247-78.1,48.835-63.14" transform="translate(-189.657 -281.137)" fill="#fedc72"/>
          <path id="Trazado_117294" data-name="Trazado 117294" d="M329.865,494.64a56.2,56.2,0,0,0,23.907,12.778l-2.025,4.432s-15.136-2.3-24.032-13.546Z" transform="translate(-230.386 -347.736)" fill="#fdb74d"/>
          <path id="Trazado_117295" data-name="Trazado 117295" d="M313.426,522.019l-2.432,4.442s11.837,12.329,24.014,14.4l2.286-4.314s-15.7-3.574-23.868-14.525" transform="translate(-218.631 -366.983)" fill="#fdda66"/>
          <path id="Trazado_117296" data-name="Trazado 117296" d="M435.719,161.33s9.482,4.355,5.743,7.978-88.8-3.294-96-16.872c0,0,46.5-4.432,90.259,8.894" transform="translate(-242.861 -106.666)" fill="#5038a1" fill-rule="evenodd"/>
          <path id="Trazado_117297" data-name="Trazado 117297" d="M476.918,338.085l1.907,15.367s-3.957,7.118-11.514,7.118a8.012,8.012,0,0,1-8.373-6.85l1.353-15.635Z" transform="translate(-322.637 -237.676)" fill="#f0c5ad"/>
          <path id="Trazado_117298" data-name="Trazado 117298" d="M398.844,160.8c0,21.026,7.121,38.073,28.761,38.073,15.883,0,28.761-17.047,28.761-38.073s-12.878-38.077-28.761-38.077S398.844,139.77,398.844,160.8" transform="translate(-280.39 -86.275)" fill="#f9d1ba"/>
          <path id="Trazado_117299" data-name="Trazado 117299" d="M398.034,135.577s-7.465,10.8-9.114,28.282c0,0-9.99-16,1.2-36.785Z" transform="translate(-270.529 -89.334)" fill="#685656"/>
          <path id="Trazado_117300" data-name="Trazado 117300" d="M456.131,137.387s-2.2-17.572-11.273-18.989-25.819.7-34.365,0c-15.944-1.308-9.625-16.993-8.526-21.813,0,0,24.745-1.43,34.369.838s30.514,7.843,27.077,39.774c0,0-4.534-4.346-7.282.189" transform="translate(-281.07 -67.588)" fill="#685656"/>
          <path id="Trazado_117301" data-name="Trazado 117301" d="M580.584,267.311s-6.657,17.456-11.9,20.151c0,0,5.277-12.438,5.953-14.87,0,0,4.151-2.075,5.945-5.281" transform="translate(-399.79 -187.922)" fill="#685656"/>
          <path id="Trazado_117302" data-name="Trazado 117302" d="M572.484,229.912s7.972-4.251,10.172,0-3.3,17.572-10.172,14.738,0-14.738,0-14.738" transform="translate(-400.313 -160.302)" fill="#f9d1ba"/>
          <path id="Trazado_117303" data-name="Trazado 117303" d="M438.137,239.14a3.421,3.421,0,1,1-3.126-4.1,3.662,3.662,0,0,1,3.126,4.1" transform="translate(-303.251 -165.228)" fill="#1c1a21"/>
          <path id="Trazado_117304" data-name="Trazado 117304" d="M513.28,241.046a3.423,3.423,0,1,1-3.127-4.1,3.663,3.663,0,0,1,3.127,4.1" transform="translate(-356.073 -166.569)" fill="#1c1a21"/>
          <path id="Trazado_117305" data-name="Trazado 117305" d="M518.668,216.314a4.2,4.2,0,0,0-1.573-2.6,5.639,5.639,0,0,0-2.713-1.2,5.124,5.124,0,0,0-5.261,2.231,17.9,17.9,0,0,0,2.607.835c.754.162,1.426.331,2.105.421s1.365.183,2.13.234c.783.045,1.594.087,2.7.077" transform="translate(-357.916 -149.354)" fill="#685656"/>
          <path id="Trazado_117306" data-name="Trazado 117306" d="M428.864,210.32c1.108.009,1.917-.034,2.7-.077s1.449-.139,2.13-.236,1.351-.257,2.105-.42a18.16,18.16,0,0,0,2.611-.835,5.122,5.122,0,0,0-5.263-2.23,5.616,5.616,0,0,0-2.713,1.2,4.2,4.2,0,0,0-1.571,2.6" transform="translate(-301.495 -145.139)" fill="#685656"/>
          <path id="Trazado_117307" data-name="Trazado 117307" d="M462.577,277.065a9.451,9.451,0,0,0,1.26-.081.882.882,0,0,0-.245-1.747c-.908.127-2.591.113-3.241-.452a.728.728,0,0,1-.25-.6c0-2.8,3.022-4.238,3.054-4.25a.884.884,0,0,0-.736-1.606c-.166.079-4.082,1.907-4.082,5.856a2.469,2.469,0,0,0,.859,1.93,5.325,5.325,0,0,0,3.381.949" transform="translate(-322.214 -188.583)" fill="#f6ae94"/>
          <path id="Trazado_117308" data-name="Trazado 117308" d="M377.363,45.521s10.058-41.95,40.659-38.164,30.569,44.092,30.569,44.092-67.933-2.593-71.229-5.928" transform="translate(-265.289 -5.002)" fill="#8c6df2" fill-rule="evenodd"/>
          <path id="Trazado_117309" data-name="Trazado 117309" d="M425.627,25.522s-7.234,18.512-6.8,36.9l-2.064-.337S415.53,34.981,423.2,26.61Z" transform="translate(-292.937 -17.942)" fill="#5038a1" fill-rule="evenodd"/>
          <path id="Trazado_117310" data-name="Trazado 117310" d="M424.8,43.632s-2.521-23.971,7.3-37.473c2.252-3.093,5.769-4.684,9.5-5.506,6.975-1.537,19.29-.815,23.7,7.141,0,0-20.93,22.9-20.233,36.835,0,0-7.086-3.763-20.272-1" transform="translate(-298.43 0)" fill="#8c6df2" fill-rule="evenodd"/>
          <path id="Trazado_117311" data-name="Trazado 117311" d="M448.592,134.518s-46.2-3.823-71.229-5.928l.647-2.034s15.769-5.357,70.362,5.86Z" transform="translate(-265.289 -88.071)" fill="#5038a1" fill-rule="evenodd"/>
          <path id="Trazado_117312" data-name="Trazado 117312" d="M462.976,59.987c-.29,5.231-3.778,9.293-7.8,9.071s-7.034-4.645-6.746-9.877,3.781-9.293,7.793-9.069,7.038,4.645,6.748,9.875" transform="translate(-315.24 -35.223)" fill="#fedc72" fill-rule="evenodd"/>
          <path id="Trazado_117313" data-name="Trazado 117313" d="M466.526,40.329s2.162-4.448,3.867-5.974.769,7.409.769,7.409Z" transform="translate(-327.971 -24.028)" fill="#fedc72" fill-rule="evenodd"/>
          <path id="Trazado_117314" data-name="Trazado 117314" d="M514.5,26.244s-19.384,21.475-20.013,32.88l4.627.257s-1.049-10.272,17.608-31.338Z" transform="translate(-347.625 -18.45)" fill="#5038a1" fill-rule="evenodd"/>
          <path id="Trazado_117315" data-name="Trazado 117315" d="M423.978,140.672s-51.843-9.227-71.229-5.928c-7.743,2.579-15.442,4.621-6.119,8.444,0,0-4.737-2.834.315-3.374,10.336-.366,41.6-.557,80.688,7.768,12.334,2.52,11.645,9.284,11.645,9.284,9.393-5.3-15.3-16.194-15.3-16.194" transform="translate(-240.676 -94.225)" fill="#8c6df2" fill-rule="evenodd"/>
          <path id="Trazado_117316" data-name="Trazado 117316" d="M430.365,421.36c-9.922-23.527-.924-26.738-.924-26.738-4.561-6.43-15.812-10.508-28.137-12.053l-.682-3.44c-10,2.509-22.36,0-22.36,0l-.854,3.7,0,0c-8.766,1.43-15.993,4.45-19.063,9.162-8.7,13.346-13.054,121.149-13.054,121.149,42.236,8.2,91.819,1.771,91.819,1.771Z" transform="translate(-242.827 -266.53)" fill="#fedc72"/>
          <path id="Trazado_117317" data-name="Trazado 117317" d="M364.005,518.7l-1.6,14.332s33.985,11.385,81.2,4.423v-8.469s-52.557-.011-79.6-10.286" transform="translate(-254.773 -364.652)" fill="#fdb74d"/>
          <path id="Trazado_117318" data-name="Trazado 117318" d="M370.949,483.6s53.871,12.336,77.667,11.845l-.3-4.144s-50.754-4.018-76.581-12.687Z" transform="translate(-260.78 -336.466)" fill="#fdb74d"/>
          <path id="Trazado_117319" data-name="Trazado 117319" d="M466.85,382.338s-9.52,108.175-6.557,137.088l-4.035-.446s-.457-83.94,6.792-136.85Z" transform="translate(-320.749 -268.64)" fill="#fdb74d"/>
          <path id="Trazado_117320" data-name="Trazado 117320" d="M446.9,464.4a2.763,2.763,0,1,0-2.765,2.761A2.763,2.763,0,0,0,446.9,464.4" transform="translate(-310.289 -324.534)" fill="#fdb74d" fill-rule="evenodd"/>
          <path id="Trazado_117321" data-name="Trazado 117321" d="M440.237,516.878a2.759,2.759,0,1,0-2.759,2.763,2.759,2.759,0,0,0,2.759-2.763" transform="translate(-305.611 -361.428)" fill="#fdb74d" fill-rule="evenodd"/>
          <path id="Trazado_117322" data-name="Trazado 117322" d="M433.706,597.611a2.761,2.761,0,1,0-2.761,2.761,2.761,2.761,0,0,0,2.761-2.761" transform="translate(-301.017 -418.184)" fill="#fdb74d" fill-rule="evenodd"/>
          <path id="Trazado_117323" data-name="Trazado 117323" d="M430.942,667.758a2.76,2.76,0,1,0-2.759,2.761,2.761,2.761,0,0,0,2.759-2.761" transform="translate(-299.075 -467.499)" fill="#fdb74d" fill-rule="evenodd"/>
          <path id="Trazado_117324" data-name="Trazado 117324" d="M429.847,734.356a2.763,2.763,0,1,0-2.763,2.763,2.764,2.764,0,0,0,2.763-2.763" transform="translate(-298.301 -514.318)" fill="#fdb74d" fill-rule="evenodd"/>
          <path id="Trazado_117325" data-name="Trazado 117325" d="M687.6,580.525c-.207,4.841-25.617,59.908-25.617,59.908s-16.37-5.817-17.458-8.072,20.937-63.5,21.423-64.556S688,571.347,687.6,580.525" transform="translate(-453.081 -399.066)" fill="#fedc72"/>
          <path id="Trazado_117326" data-name="Trazado 117326" d="M673.138,677.484s16.193,4.234,21.461,9.08l2.5-5.509s-13.35-8.5-21.924-9.491Z" transform="translate(-473.221 -472.114)" fill="#fdb74d"/>
          <path id="Trazado_117327" data-name="Trazado 117327" d="M643.367,737.452c-8.365,30.409-1.1,37.589-1.1,37.589l4.727-.359s10.644-4.425,20.446-23.748c-3.955-3.56-12.726-11.584-24.074-13.482" transform="translate(-449.461 -518.434)" fill="#444"/>
          <path id="Trazado_117328" data-name="Trazado 117328" d="M567.8,412.851c23.578-8.524,64.527,51.868,63.349,58.267-.57,3.1-16.307,11.714-20.271,8.2S549.409,419.5,567.8,412.851" transform="translate(-396.622 -289.659)" fill="#fedc72"/>
          <path id="Trazado_117329" data-name="Trazado 117329" d="M625.65,492.743s12.549-6.391,20.567-18.568l3.463,3.435s-7.9,13.619-21.529,18.085Z" transform="translate(-439.837 -333.349)" fill="#fdda66"/>
          <path id="Trazado_117330" data-name="Trazado 117330" d="M645.808,518.254l3.388,3.771s15.951-7.089,22.1-17.8l-3.26-3.637s-9.127,13.785-22.224,17.669" transform="translate(-454.008 -351.915)" fill="#fdb74d"/>
          <path id="Trazado_117331" data-name="Trazado 117331" d="M158.647,422.124s-11.2-8.524-20.316-17.273l-1.227-5.425a9.436,9.436,0,0,1,2.862-1.1c1.652-.271,3.8-.114,5.3-.979,2.1-1.209.58-3.616-1.162-4.223-2.679-.939-5.831.616-8.186,2.325l-.837-1.7a8.313,8.313,0,0,0-.821-4.087,3.8,3.8,0,0,0-5.935-.649,3.382,3.382,0,0,0-3.862,1.409,3.736,3.736,0,0,0-3.7.835.618.618,0,0,0-.1-.021,3.2,3.2,0,0,0-2,.491,2.747,2.747,0,0,0-.949,1.189,3.725,3.725,0,0,0-.925,3.4,7.739,7.739,0,0,0,2.464,4.811c1.51,4.034,3.861,8.687,5.795,10.024,4.795,20.619,11.867,29.219,11.867,29.219s18.445-9.365,21.728-18.249" transform="translate(-82.051 -272.585)" fill="#444"/>
          <path id="Trazado_117332" data-name="Trazado 117332" d="M668.848,850.81a3.6,3.6,0,0,0-2.484-2.618,2.386,2.386,0,0,0-.365-1.38c-.758-1.243-2.119-1.149-3.458-.6a2.334,2.334,0,0,0-.306-.5c-1.453-1.762-4.287-.039-5.976-.352-2.266-.42-4.287-3.969-6.893-2.12-1.8,1.28-1.657,3.8-1.083,5.8.162,6.68,7.457,11.485,14.516,9.436,3.276-.947,7.178-3.742,6.047-7.665" transform="translate(-455.478 -592.432)" fill="#444"/>
          <path id="Trazado_117333" data-name="Trazado 117333" d="M400.234,283.094s.123,7.581,4.123,5.388a32.033,32.033,0,0,1,13.875-3.86s.6,2.59,7.095,1.995c0,0,10.149,1.01,12.937,6.48s21.121-8.463,21.121-8.463-10.68,27.715-33.322,26.908c-24.493-.868-25.828-28.446-25.828-28.446" transform="translate(-281.367 -199.017)" fill="#685656"/>
          <path id="Trazado_117334" data-name="Trazado 117334" d="M449.064,316.772a16.241,16.241,0,0,0,17.7,1.064s-7.2,8.613-11.954,7.22-5.742-8.283-5.742-8.283" transform="translate(-315.695 -222.693)" fill="#fff"/>
          <path id="Trazado_117335" data-name="Trazado 117335" d="M90.732,521.129l-65.648,6.883A14.211,14.211,0,0,1,9.469,515.361L.079,425.8A14.21,14.21,0,0,1,12.73,410.185L78.378,403.3a14.21,14.21,0,0,1,15.615,12.651l9.39,89.561a14.211,14.211,0,0,1-12.651,15.615" transform="translate(0 -283.469)" fill="#8c6df2"/>
          <path id="Trazado_117336" data-name="Trazado 117336" d="M117.97,407.087a2.821,2.821,0,0,0,.75,1.355,2.7,2.7,0,0,0,1.236.494,23.5,23.5,0,0,0,11.319-1.028c1.6-.483,3.325-1.171,4.088-2.66.853-1.664.187-3.675-.551-5.393a3.359,3.359,0,0,0-1.18-1.663,3.3,3.3,0,0,0-1.644-.337,45.838,45.838,0,0,0-13.027,1.573,4.17,4.17,0,0,0-1.72.776c-1.432,1.265.241,5.358.729,6.882" transform="translate(-82.023 -279.686)" fill="#444"/>
        </g>
      </g>
      <text id="PERMISO_" data-name="PERMISO " transform="translate(11.439 164.949) rotate(-5.985)" fill="#f2f2f2" font-size="16" font-family="Roboto-Bold, Roboto" font-weight="700"><tspan x="0" y="0">PERMISO </tspan></text>
      <text id="PARA_" data-name="PARA " transform="translate(29.967 184.499) rotate(-5.985)" fill="#f2f2f2" font-size="16" font-family="Roboto-Bold, Roboto" font-weight="700"><tspan x="0" y="0" letter-spacing="-0.086em">P</tspan><tspan y="0">ARA </tspan></text>
      <text id="EVENTO" transform="translate(23.515 206.668) rotate(-5.985)" fill="#f2f2f2" font-size="16" font-family="Roboto-Bold, Roboto" font-weight="700"><tspan x="0" y="0">EVE</tspan><tspan y="0" letter-spacing="-0.014em">N</tspan><tspan y="0" letter-spacing="-0.013em">T</tspan><tspan y="0">O</tspan></text>
      <g id="Grupo_81161" data-name="Grupo 81161">
        <g id="Grupo_81160" data-name="Grupo 81160" clip-path="url(#clip-path-8)">
          <path id="Trazado_117337" data-name="Trazado 117337" d="M159.73,725.516l-7.98-6.326a3.219,3.219,0,1,1,4-5.044l5.458,4.327,9.923-12.518a3.219,3.219,0,1,1,5.044,4l-11.923,15.04a3.219,3.219,0,0,1-4.521.523" transform="translate(-105.824 -495.434)" fill="#fdb74d"/>
        </g>
      </g>
    </g>
  </g>
</svg>
