<svg id="Grupo_80635" data-name="Grupo 80635" xmlns="http://www.w3.org/2000/svg" xmlns:xlink="http://www.w3.org/1999/xlink" width="158.208" height="189.016" viewBox="0 0 158.208 189.016">
  <defs>
    <clipPath id="clip-path">
      <rect id="Rectángulo_34703" data-name="Rectángulo 34703" width="158.209" height="189.016" fill="none"/>
    </clipPath>
  </defs>
  <g id="Grupo_80635-2" data-name="Grupo 80635" clip-path="url(#clip-path)">
    <path id="Trazado_114932" data-name="Trazado 114932" d="M158.188,131.788c-.231,5.979-2.93,11.594-6.182,16.5a74.571,74.571,0,0,1-13.6,15.122c-5.955,5.133-13.039,8.278-20.1,11.558A262.942,262.942,0,0,1,82.452,188.51a12.131,12.131,0,0,1-6.781.044c-37.229-10.569-56.45-23.316-66.181-34.847C-3.728,138.046.567,124.628,1.034,121.954c.04-.22.088-.435.14-.651C11.051,79.5,7.974,69.287,7.5,60.5,7.068,54.3,3.935,44.45,1.524,37.622A12.159,12.159,0,0,1,5.009,24.391l.73-.635A12.272,12.272,0,0,1,16.324,21.09c7.224,1.509,14.659,1.014,17.88.068C48.268,18.3,66.392,6.375,71.158,3.274S80.221-.781,83.8.652s19.074,10.968,31.235,16.926c12.033,6.09,21.293,5.368,26.832,3.776a12.1,12.1,0,0,1,11.71,2.961c.056.052.112.108.168.16A12.069,12.069,0,0,1,156.62,37.63c-4.65,11.578-6.494,31.614-6.3,40.51.239,10.972,8.345,41.252,7.871,53.649" transform="translate(0 0)" fill="#8c6df2"/>
    <path id="Trazado_114933" data-name="Trazado 114933" d="M202.052,189.69l-40.544,34.65a4.192,4.192,0,0,0,2.805,7.373h4.12l30.8-26.995a4.333,4.333,0,0,1,5.631,0l30.8,26.995h4.12a4.192,4.192,0,0,0,2.805-7.373Z" transform="translate(-96.159 -113.982)" fill="#5038a1"/>
    <path id="Trazado_114934" data-name="Trazado 114934" d="M291.529,227.58a2.09,2.09,0,0,1-1.365-.5l-2.458-2.1a2.1,2.1,0,0,1,2.729-3.195l2.458,2.1a2.1,2.1,0,0,1-1.365,3.7" transform="translate(-172.436 -132.962)" fill="#fff"/>
    <path id="Trazado_114935" data-name="Trazado 114935" d="M167.81,224.34,205.2,192.384l-3.152-2.694-40.545,34.65a4.193,4.193,0,0,0,2.806,7.374h4.12l.448-.393a4.151,4.151,0,0,1-1.071-6.98" transform="translate(-96.159 -113.982)" fill="#12263f"/>
    <path id="Trazado_114936" data-name="Trazado 114936" d="M211.937,225.778l-30.851,26.995v33.618a4.2,4.2,0,0,0,4.2,4.2h58.832a4.2,4.2,0,0,0,4.2-4.2V252.773l-30.851-26.995a4.2,4.2,0,0,0-5.535,0" transform="translate(-108.812 -135.043)" fill="#dbe6fd"/>
    <path id="Trazado_114937" data-name="Trazado 114937" d="M211.89,232.081a4.332,4.332,0,0,1,5.631,0l30.8,26.995v-6.3l-30.851-27a4.2,4.2,0,0,0-5.535,0l-30.851,27v33.618a4.2,4.2,0,0,0,4.2,4.2h58.832a4.2,4.2,0,0,0,4.2-4.2v-2.1H212.6a25.214,25.214,0,0,1-25.213-25.214v-1.714a8.4,8.4,0,0,1,2.865-6.321Z" transform="translate(-108.813 -135.042)" fill="#bbcff2"/>
    <path id="Trazado_114938" data-name="Trazado 114938" d="M256.869,326.568h-8.4a4.2,4.2,0,0,0-4.2,4.2v21.012h16.809V330.77a4.2,4.2,0,0,0-4.2-4.2" transform="translate(-146.774 -196.231)" fill="#5038a1"/>
    <path id="Trazado_114939" data-name="Trazado 114939" d="M250.565,372.706a25.16,25.16,0,0,1-6.3-.827v7.13H261.07v-6.3Z" transform="translate(-146.773 -223.457)" fill="#12263f"/>
    <rect id="Rectángulo_34701" data-name="Rectángulo 34701" width="8.405" height="8.405" transform="translate(80.679 130.338)" fill="#a7d0e1"/>
    <path id="Trazado_114940" data-name="Trazado 114940" d="M202.145,335.988v4.645h2.662a25.157,25.157,0,0,1-2.662-4.645" transform="translate(-121.466 -201.891)" fill="#80bbce"/>
    <rect id="Rectángulo_34702" data-name="Rectángulo 34702" width="8.405" height="8.405" transform="translate(122.702 130.338)" fill="#a7d0e1"/>
    <path id="Trazado_114941" data-name="Trazado 114941" d="M262.133,269.7a6.3,6.3,0,1,1-6.3-6.3,6.3,6.3,0,0,1,6.3,6.3" transform="translate(-149.937 -158.27)" fill="#a7d0e1"/>
    <path id="Trazado_114942" data-name="Trazado 114942" d="M111.445,193.611H44.208V63.34H65.219c8.657,21.418,12.648,43.644,10.572,66.92a25.041,25.041,0,0,0,7.859,20.632c4.24,3.923,7.291,9.624,8.884,17.505,12.54,7.375,17.59,15.987,18.91,25.214" transform="translate(-26.564 -38.06)" fill="#fedc72"/>
    <path id="Trazado_114943" data-name="Trazado 114943" d="M84.879,193.6H17.645c-2.993-.5-5.564-1.177-8.154-1.844C-3.728,176.1.567,162.679,1.034,160c.04-.22.088-.435.14-.651,9.878-41.807,6.8-52.016,6.326-60.8-.431-6.2-3.564-16.048-5.975-22.877A12.158,12.158,0,0,1,3.085,64.561a61.8,61.8,0,0,1,14.56-1.229h6.3v65.135A58.834,58.834,0,0,0,82.78,187.3h.527a31.257,31.257,0,0,1,1.573,6.3" transform="translate(0 -38.051)" fill="#fdb74d"/>
    <path id="Trazado_114944" data-name="Trazado 114944" d="M140.626,116.291a8.315,8.315,0,0,0,.4-2.43,8.378,8.378,0,0,0-15.7-4.1,8.372,8.372,0,1,0,2.095,16.6,8.385,8.385,0,1,0,13.2-10.066" transform="translate(-70.852 -63.368)" fill="#fedc72"/>
    <path id="Trazado_114945" data-name="Trazado 114945" d="M141.025,131.131a8.367,8.367,0,0,1-7.3-4.314,8.306,8.306,0,0,1-9.293-10.1,8.34,8.34,0,0,0,2.99,16.408A8.363,8.363,0,0,0,142.9,130.9a8.387,8.387,0,0,1-1.874.227" transform="translate(-70.852 -70.131)" fill="#fdb74d"/>
    <path id="Trazado_114946" data-name="Trazado 114946" d="M184.2,201.258a6.278,6.278,0,0,0-11.13-4.01,6.281,6.281,0,0,0-3.541,12.04c-.007.127-.038.246-.038.374a6.3,6.3,0,1,0,12.607,0,6.235,6.235,0,0,0-.841-3.089,6.284,6.284,0,0,0,2.942-5.315" transform="translate(-99.322 -117.145)" fill="#fedc72"/>
    <path id="Trazado_114947" data-name="Trazado 114947" d="M175.8,206.522c0-.128.03-.247.038-.374a6.284,6.284,0,0,1-4.24-5.929,6.288,6.288,0,0,0-2.063,12.232c-.008.126-.038.246-.038.374a6.3,6.3,0,0,0,12.607,0,6.3,6.3,0,0,1-6.3-6.3" transform="translate(-99.322 -120.309)" fill="#fdb74d"/>
    <path id="Trazado_114948" data-name="Trazado 114948" d="M136.846,67.542a4.2,4.2,0,1,1-4.2-4.2,4.2,4.2,0,0,1,4.2,4.2" transform="translate(-77.179 -38.06)" fill="#fedc72"/>
    <path id="Trazado_114949" data-name="Trazado 114949" d="M221.078,151.775a4.2,4.2,0,1,1-4.2-4.2,4.2,4.2,0,0,1,4.2,4.2" transform="translate(-127.793 -88.675)" fill="#fedc72"/>
    <path id="Trazado_114950" data-name="Trazado 114950" d="M199.6,111.144a2.1,2.1,0,0,0,2.971-2.971l-2.1-2.1a2.1,2.1,0,0,0-2.971,2.971Z" transform="translate(-118.303 -63.367)" fill="#fedc72"/>
    <path id="Trazado_114951" data-name="Trazado 114951" d="M150.115,242.951a2.1,2.1,0,0,0,0,2.971l2.1,2.1a2.1,2.1,0,0,0,2.971-2.971l-2.1-2.1a2.1,2.1,0,0,0-2.971,0" transform="translate(-89.833 -145.617)" fill="#fedc72"/>
    <path id="Trazado_114952" data-name="Trazado 114952" d="M231.185,179.776l-2.1,2.1a2.1,2.1,0,0,0,2.971,2.971l2.1-2.1a2.1,2.1,0,1,0-2.971-2.971" transform="translate(-137.284 -107.656)" fill="#fedc72"/>
    <path id="Trazado_114953" data-name="Trazado 114953" d="M98.45,187.023l-6.892,6.871v11.745a2.1,2.1,0,1,1-4.2,0V193.894l-5.694-5.673a2.11,2.11,0,0,1,2.984-2.984l4.811,4.832,8.783-8.8c.126,1.912.189,3.824.21,5.757" transform="translate(-48.7 -108.921)" fill="#fdb74d"/>
    <path id="Trazado_114954" data-name="Trazado 114954" d="M58.916,107.267a2.108,2.108,0,0,1-2.1,2.1h-6.3a2.169,2.169,0,0,1-1.492-.609l-4.812-4.812V97.98l7.165,7.186h5.442a2.108,2.108,0,0,1,2.1,2.1" transform="translate(-26.564 -58.875)" fill="#fdb74d"/>
    <path id="Trazado_114955" data-name="Trazado 114955" d="M134.309,317.486c-7.06-3.719-12.9-3.32-18.2,1.2a2.1,2.1,0,0,1-2.732-3.194c5.589-4.749,11.955-5.9,18.952-3.446a41.982,41.982,0,0,1,1.324,5.043c.21.126.441.252.651.4" transform="translate(-67.687 -186.749)" fill="#fdb74d"/>
    <path id="Trazado_114956" data-name="Trazado 114956" d="M63.118,291.817a2.108,2.108,0,0,1-2.1,2.1H53.474l-9.266,9.287v-5.968l6.913-6.913a2.17,2.17,0,0,1,1.492-.609h8.4a2.108,2.108,0,0,1,2.1,2.1" transform="translate(-26.564 -174.087)" fill="#fdb74d"/>
  </g>
</svg>
