<svg id="Grupo_80654" data-name="Grupo 80654" xmlns="http://www.w3.org/2000/svg" xmlns:xlink="http://www.w3.org/1999/xlink" width="223.898" height="267.5" viewBox="0 0 223.898 267.5">
  <defs>
    <clipPath id="clip-path">
      <rect id="Rectángulo_34728" data-name="Rectángulo 34728" width="223.898" height="267.5" fill="none"/>
    </clipPath>
  </defs>
  <g id="Grupo_80653" data-name="Grupo 80653" clip-path="url(#clip-path)">
    <path id="Trazado_115124" data-name="Trazado 115124" d="M223.871,186.51a34.028,34.028,0,0,1-1.361,8.162,56.287,56.287,0,0,1-7.388,15.194c-.316.48-.644.96-.971,1.429a101.551,101.551,0,0,1-13.426,15.572c-1.079,1.039-2.186,2.056-3.3,3.05-.508.452-1.022.9-1.542,1.35a65.268,65.268,0,0,1-6.8,5.1,103.134,103.134,0,0,1-10.229,5.829c-3.751,1.9-7.591,3.649-11.421,5.428a372.125,372.125,0,0,1-50.739,19.159,17.168,17.168,0,0,1-9.6.062c-26.869-7.631-47.113-16.058-62.318-24.649-3.429-1.937-6.6-3.88-9.534-5.829q-4.872-3.228-8.9-6.45A90.88,90.88,0,0,1,13.43,217.531c-.554-.655-1.079-1.3-1.587-1.949q-1.11-1.415-2.1-2.813a53.573,53.573,0,0,1-8.241-17.188,45.178,45.178,0,0,1-.13-22.554c.034-.164.062-.305.085-.435.056-.311.124-.616.2-.921.531-2.237,1.028-4.406,1.508-6.518.04-.175.079-.345.113-.52l.006-.006c1.8-8,3.242-15.109,4.383-21.452.734-4.072,1.35-7.823,1.853-11.3v-.011c.079-.531.153-1.056.226-1.576.288-2.045.537-3.976.751-5.829v-.006A163.7,163.7,0,0,0,11.775,104.2V104.2c-.006-2-.062-3.818-.147-5.5-.215-4.281-.6-7.676-.859-10.8-.062-.774-.119-1.525-.158-2.276-.39-5.592-2.333-13.285-4.575-20.628-.689-2.265-1.406-4.5-2.118-6.62-.6-1.8-1.2-3.525-1.762-5.129A17.208,17.208,0,0,1,7.087,34.519l1.034-.9a16.906,16.906,0,0,1,5.524-3.186,17.606,17.606,0,0,1,9.32-.616c.045.011.09.017.136.028,10.224,2.135,20.746,1.435,25.3.1,7.326-1.491,15.431-4.722,23.085-8.427,2.242-1.084,4.451-2.209,6.586-3.344C88.446,12.66,97.167,6.932,100.7,4.633,107.453.245,113.53-1.105,118.591.922s26.993,15.522,44.2,23.955c16.414,8.309,29.179,7.659,37.1,5.581.3-.073.587-.158.87-.237a16.814,16.814,0,0,1,8.659-.164h.006a17.344,17.344,0,0,1,7.908,4.355c.079.073.158.153.237.226a17.081,17.081,0,0,1,4.072,18.617c-6.58,16.386-9.19,44.741-8.919,57.331.164,7.654,3.033,21.944,5.829,36.567.638,3.372,1.282,6.767,1.881,10.1.474,2.626.921,5.219,1.333,7.733.249,1.553.486,3.078.706,4.564q.263,1.779.48,3.479a86.38,86.38,0,0,1,.909,13.483" transform="translate(0 0)" fill="#8c6df2"/>
    <path id="Trazado_115125" data-name="Trazado 115125" d="M72.361,310.192H56.076a22.934,22.934,0,0,0-22.934,22.934v20.95H95.3v-20.95a22.934,22.934,0,0,0-22.934-22.934" transform="translate(-14.422 -134.985)" fill="#fedc72"/>
    <path id="Trazado_115126" data-name="Trazado 115126" d="M292.435,310.192H276.15a22.934,22.934,0,0,0-22.934,22.934v20.95h62.153v-20.95a22.934,22.934,0,0,0-22.934-22.934" transform="translate(-110.191 -134.985)" fill="#fedc72"/>
    <path id="Trazado_115127" data-name="Trazado 115127" d="M182.4,310.192H166.113a22.934,22.934,0,0,0-22.934,22.934v20.95h62.153v-20.95A22.934,22.934,0,0,0,182.4,310.192" transform="translate(-62.307 -134.985)" fill="#fedc72"/>
    <path id="Trazado_115128" data-name="Trazado 115128" d="M92.359,263.728a18.286,18.286,0,1,1-18.286-18.286,18.286,18.286,0,0,1,18.286,18.286" transform="translate(-24.277 -106.808)" fill="#5038a1"/>
    <path id="Trazado_115129" data-name="Trazado 115129" d="M202.4,263.728a18.286,18.286,0,1,1-18.286-18.286A18.286,18.286,0,0,1,202.4,263.728" transform="translate(-72.161 -106.808)" fill="#5038a1"/>
    <path id="Trazado_115130" data-name="Trazado 115130" d="M40.679,137.357A26.82,26.82,0,1,1,73.473,163.5l-5.974,13-5.974-13a26.824,26.824,0,0,1-20.846-26.143" transform="translate(-17.702 -48.102)" fill="#5038a1"/>
    <path id="Trazado_115131" data-name="Trazado 115131" d="M312.433,263.728a18.286,18.286,0,1,1-18.286-18.286,18.286,18.286,0,0,1,18.286,18.286" transform="translate(-120.045 -106.808)" fill="#5038a1"/>
    <path id="Trazado_115132" data-name="Trazado 115132" d="M150.716,137.357A26.82,26.82,0,1,1,183.51,163.5l-5.974,13-5.974-13a26.824,26.824,0,0,1-20.846-26.143" transform="translate(-65.586 -48.102)" fill="#fedc72"/>
    <path id="Trazado_115133" data-name="Trazado 115133" d="M260.753,137.357A26.82,26.82,0,1,1,293.547,163.5l-5.974,13-5.974-13a26.824,26.824,0,0,1-20.846-26.143" transform="translate(-113.471 -48.102)" fill="#5038a1"/>
    <path id="Trazado_115134" data-name="Trazado 115134" d="M83.426,174.32a1.967,1.967,0,0,1-1.967-1.967V171.19a1.967,1.967,0,1,1,3.934,0v1.162a1.967,1.967,0,0,1-1.967,1.967" transform="translate(-35.448 -73.64)" fill="#fdb74d"/>
    <path id="Trazado_115135" data-name="Trazado 115135" d="M83.426,152a1.967,1.967,0,0,1-1.967-1.967V139.46a1.967,1.967,0,0,1,3.934,0v10.577A1.967,1.967,0,0,1,83.426,152" transform="translate(-35.448 -59.832)" fill="#fdb74d"/>
    <path id="Trazado_115136" data-name="Trazado 115136" d="M196.683,174.32a1.967,1.967,0,0,1-1.967-1.967V171.19a1.967,1.967,0,1,1,3.934,0v1.162a1.967,1.967,0,0,1-1.967,1.967" transform="translate(-84.734 -73.64)" fill="#5038a1"/>
    <path id="Trazado_115137" data-name="Trazado 115137" d="M196.683,152a1.967,1.967,0,0,1-1.967-1.967V139.46a1.967,1.967,0,0,1,3.934,0v10.577A1.967,1.967,0,0,1,196.683,152" transform="translate(-84.734 -59.832)" fill="#5038a1"/>
    <path id="Trazado_115138" data-name="Trazado 115138" d="M309.939,174.32a1.967,1.967,0,0,1-1.967-1.967V171.19a1.967,1.967,0,0,1,3.935,0v1.162a1.967,1.967,0,0,1-1.967,1.967" transform="translate(-134.019 -73.64)" fill="#fdb74d"/>
    <path id="Trazado_115139" data-name="Trazado 115139" d="M309.939,152a1.967,1.967,0,0,1-1.967-1.967V139.46a1.967,1.967,0,0,1,3.935,0v10.577A1.967,1.967,0,0,1,309.939,152" transform="translate(-134.019 -59.832)" fill="#fdb74d"/>
  </g>
</svg>
