<svg xmlns="http://www.w3.org/2000/svg" xmlns:xlink="http://www.w3.org/1999/xlink" width="400" height="222" viewBox="0 0 400 222">
  <defs>
    <clipPath id="clip-path">
      <rect id="Rectángulo_34719" data-name="Rectángulo 34719" width="159.804" height="193.98" fill="none"/>
    </clipPath>
  </defs>
  <g id="Grupo_134193" data-name="Grupo 134193" transform="translate(-915 -393)">
    <circle id="Elipse_4970" data-name="Elipse 4970" cx="14" cy="14" r="14" transform="translate(1242 406)" fill="#8c6df2" opacity="0.7" style="isolation: isolate"/>
    <g id="Grupo_80527" data-name="Grupo 80527" transform="translate(980.831 392.999)">
      <ellipse id="Elipse_4784" data-name="Elipse 4784" cx="140.5" cy="106.5" rx="140.5" ry="106.5" transform="translate(0.169 0.001)" fill="#8c6df2" opacity="0.25"/>
    </g>
    <circle id="Elipse_4969" data-name="Elipse 4969" cx="54.5" cy="54.5" r="54.5" transform="translate(1206 506)" fill="#8c6df2" opacity="0.8" style="isolation: isolate"/>
    <path id="Trazado_117358" data-name="Trazado 117358" d="M366.324,36.728a236.514,236.514,0,0,1-22.12,18.4,182.935,182.935,0,0,1-24.979,15.341,140.421,140.421,0,0,1-28.4,10.836,102.766,102.766,0,0,1-15.665,2.759c-1.351.1-2.7.237-4.07.274-.683.026-1.366.064-2.053.078l-2.068.008c-1.388.012-2.725-.04-4.1-.063-1.355-.074-2.724-.123-4.077-.241a125.893,125.893,0,0,1-31.245-6.936c-9.848-3.4-19.057-7.5-27.916-11.428-4.427-1.972-8.786-3.89-13.073-5.673-2.147-.9-4.271-1.745-6.385-2.571-1.054-.4-2.107-.807-3.154-1.182l-3.242-1.169c-9.029-3.246-17.854-6.269-26.542-8.681-4.341-1.208-8.639-2.263-12.865-3.11q-3.169-.636-6.275-1.113-3.106-.459-6.124-.733a66.177,66.177,0,0,0-21.66,1.164,42.875,42.875,0,0,0-4.425,1.349c-.7.253-1.386.534-2.058.817l-.989.444c-.3.151-.6.289-.887.447a30.774,30.774,0,0,0-6.416,4.428c-.474.432-.938.87-1.379,1.329l-1.713,1.711c-.592.59-1.121,1.206-1.687,1.8-.544.6-1.041,1.22-1.566,1.817a45.271,45.271,0,0,0-5.006,7.447,38.372,38.372,0,0,0-3.127,7.652,37.4,37.4,0,0,0-1.4,7.939A53.288,53.288,0,0,0,71.37,96.9a82.96,82.96,0,0,0,7.1,17.948,93.174,93.174,0,0,0,5.212,8.724c.943,1.4,1.919,2.771,2.9,4.061.488.639.985,1.258,1.46,1.818.237.278.473.548.683.768a3.919,3.919,0,0,0,.292.287c.037.026.089.08.1.072l.018,0s.022.019-.005-.032l-.1-.208c11.646,17.928,4.73,40.851-15.448,51.2s-45.978,4.2-57.624-13.726l-.331-.564-.211-.386-.338-.645-.578-1.157c-.364-.745-.69-1.446-1.007-2.142-.632-1.389-1.207-2.735-1.766-4.071-1.1-2.666-2.1-5.3-3.027-7.933a166.2,166.2,0,0,1-4.684-15.946A139.451,139.451,0,0,1,0,101.564,106.053,106.053,0,0,1,5.891,66.539a97.164,97.164,0,0,1,7.876-16.889A95.643,95.643,0,0,1,24.912,34.421,105.161,105.161,0,0,1,38.57,21.629c1.229-.931,2.446-1.879,3.691-2.773,1.256-.876,2.5-1.776,3.768-2.609l1.912-1.238c.651-.418,1.228-.8,2.008-1.277,1.467-.917,2.973-1.786,4.5-2.618A89.92,89.92,0,0,1,74,3.281c.854-.237,1.72-.446,2.582-.659.845-.194,1.679-.381,2.52-.559,1.682-.343,3.366-.656,5.053-.909A100.489,100.489,0,0,1,94.222.13a109.3,109.3,0,0,1,19.3.773,129.915,129.915,0,0,1,17.618,3.526A191.683,191.683,0,0,1,161.8,15.873c9.424,4.387,18.207,9.164,26.659,13.9l3.3,1.856c1.131.637,2.223,1.289,3.33,1.934,2.177,1.3,4.329,2.612,6.411,3.934,4.19,2.638,8.2,5.3,12.161,7.882,7.907,5.177,15.53,10.154,23.389,14.364a99.617,99.617,0,0,0,24.489,9.619c1.066.261,2.142.458,3.219.688l1.625.279.815.141c.27.042.536.066.805.1l1.612.193c.54.056,1.086.088,1.631.135,1.088.108,2.194.127,3.3.18,1.108.032,2.224.029,3.343.026,1.121-.046,2.246-.036,3.374-.127l1.7-.106c.566-.038,1.132-.1,1.7-.155,1.134-.1,2.267-.251,3.4-.4,1.138-.132,2.266-.352,3.4-.525,1.134-.193,2.264-.428,3.4-.643,1.123-.265,2.253-.511,3.376-.791,1.116-.3,2.247-.566,3.359-.9q3.352-.939,6.633-2.119c1.1-.387,2.191-.778,3.27-1.207l1.625-.633,1.6-.679A122.909,122.909,0,0,0,338.81,49.25,111.472,111.472,0,0,0,358.724,31a5.416,5.416,0,0,1,6.988-.9,4.12,4.12,0,0,1,1.008,6.208,4.586,4.586,0,0,1-.372.393Z" transform="translate(915 403.718)" fill="#fdb74d"/>
    <g id="Grupo_80643" data-name="Grupo 80643" transform="translate(1033.009 408.831)">
      <g id="Grupo_80642" data-name="Grupo 80642" transform="translate(0 0)" clip-path="url(#clip-path)">
        <path id="Trazado_115055" data-name="Trazado 115055" d="M155.849,53.241l3.134-19.486a8.294,8.294,0,0,0-.7-4.884L148.249,7.8a8.3,8.3,0,0,0-10.2-4.275l-1.937.669A60.367,60.367,0,0,1,99.823,5.275L82.19.31a8.3,8.3,0,0,0-4.5,0L60.06,5.275A60.367,60.367,0,0,1,23.769,4.2L18.506,2.38A8.3,8.3,0,0,0,7.961,7.5L.458,29.138a8.292,8.292,0,0,0-.322,4.215l3.5,19.105A74.678,74.678,0,0,1,4.126,76.4L.738,100.311a66.371,66.371,0,0,0,35.716,68.512L56.1,178.776a75.889,75.889,0,0,1,18.284,12.979,8.061,8.061,0,0,0,11.154-.031,75.849,75.849,0,0,1,18.251-12.948l19.642-9.953a66.37,66.37,0,0,0,35.716-68.512l-3.5-24.744a74.68,74.68,0,0,1,.209-22.326" transform="translate(0)" fill="#fedc72"/>
        <path id="Trazado_115056" data-name="Trazado 115056" d="M128.292,168.384l-16.448,8.333a92.83,92.83,0,0,0-21.549,14.033,92.673,92.673,0,0,0-21.549-14.033l-16.44-8.333a54.2,54.2,0,0,1-29.469-43.238c-1.09-11.471,1.752-18.512,3.894-38.518a83.433,83.433,0,0,0-.779-25.957L22.634,42.564l5.9-17.024c26.409,9.018,40.964,3.037,61.758-2.827,18.543,5.226,34.843,11.6,58.814,3.831l8.037,16.876L154.2,61.714c-1.51,9.376-1.378,16.354-.257,25.817,1.371,11.612,3.8,24.5,4.027,30.552a54.217,54.217,0,0,1-29.68,50.3" transform="translate(-10.354 -10.407)" fill="#8c6df2"/>
        <path id="Trazado_115057" data-name="Trazado 115057" d="M128.5,226.123l-16.448,8.333A92.832,92.832,0,0,0,90.5,248.49a92.673,92.673,0,0,0-21.549-14.033l-16.44-8.333A54.2,54.2,0,0,1,23.04,182.885l32.624-31.361a7.317,7.317,0,0,1,1.02-1.013,7.807,7.807,0,0,1,5.3-1.784,33.56,33.56,0,0,0,51.283,6.861l2.562,5.015,6.285,12.305,10.724-7.85a7.78,7.78,0,0,1,8.917-.195l16.425,10.958a54.217,54.217,0,0,1-29.679,50.3" transform="translate(-10.557 -68.146)" fill="#afafaf"/>
        <path id="Trazado_115058" data-name="Trazado 115058" d="M144.279,160.6a39.012,39.012,0,0,1-58.471-8.987c-.226-.366-.452-.732-.67-1.106a7.807,7.807,0,0,1,5.3-1.784,33.56,33.56,0,0,0,51.283,6.861Z" transform="translate(-39.012 -68.146)" fill="#878787"/>
        <path id="Trazado_115059" data-name="Trazado 115059" d="M150.872,250.114V275.1a92.74,92.74,0,0,0-21.549,14.034A92.662,92.662,0,0,0,107.774,275.1v-18.87l10.646-9.984,2.336-8.832,21.027,4.937Z" transform="translate(-49.384 -108.786)" fill="#e6e6e6"/>
        <path id="Trazado_115060" data-name="Trazado 115060" d="M152.658,87.535a33.573,33.573,0,1,1-33.573-33.573,33.45,33.45,0,0,1,33.573,33.573" transform="translate(-39.182 -24.726)" fill="#5038a1"/>
        <path id="Trazado_115061" data-name="Trazado 115061" d="M150.756,90.418H137.064V76.727h-15.1V90.418H108.275v15.1h13.692v13.692h15.1V105.515h13.692Z" transform="translate(-49.613 -35.157)" fill="#fdb74d"/>
        <line id="Línea_145" data-name="Línea 145" y2="2.383" transform="translate(35.808 117.985)" fill="none" stroke="#4c4944" stroke-linecap="round" stroke-linejoin="round" stroke-width="7.187"/>
        <line id="Línea_146" data-name="Línea 146" y2="2.383" transform="translate(126.666 138.575)" fill="none" stroke="#4c4944" stroke-linecap="round" stroke-linejoin="round" stroke-width="7.187"/>
        <line id="Línea_147" data-name="Línea 147" y2="2.383" transform="translate(101.488 117.985)" fill="none" stroke="#4c4944" stroke-linecap="round" stroke-linejoin="round" stroke-width="7.187"/>
      </g>
    </g>
    <g id="Elipse_4972" data-name="Elipse 4972" transform="translate(940 529)">
      <circle id="Elipse_5297" data-name="Elipse 5297" cx="20.5" cy="20.5" r="20.5" transform="translate(0 0)" fill="none"/>
      <ellipse id="Elipse_5298" data-name="Elipse 5298" cx="20.5" cy="20" rx="20.5" ry="20" transform="translate(0 0)" fill="none" stroke="#fff" stroke-linecap="round" stroke-width="4" stroke-dasharray="3 8"/>
    </g>
  </g>
</svg>
