<svg id="Grupo_80890" data-name="Grupo 80890" xmlns="http://www.w3.org/2000/svg" xmlns:xlink="http://www.w3.org/1999/xlink" width="150.781" height="180.14" viewBox="0 0 150.781 180.14">
  <defs>
    <clipPath id="clip-path">
      <rect id="Rectángulo_34826" data-name="Rectángulo 34826" width="150.781" height="180.14" fill="none"/>
    </clipPath>
  </defs>
  <g id="Grupo_80890-2" data-name="Grupo 80890" clip-path="url(#clip-path)">
    <path id="Trazado_115815" data-name="Trazado 115815" d="M78.583,179.66a250.437,250.437,0,0,0,34.168-12.9c6.734-3.127,13.486-6.124,19.162-11.015a71.179,71.179,0,0,0,12.958-14.413c3.1-4.676,5.671-10.031,5.89-15.727.455-11.816-7.272-40.675-7.5-51.128-.184-8.479,1.575-27.575,6.006-38.608a11.5,11.5,0,0,0-2.745-12.537l-.16-.154A11.524,11.524,0,0,0,135.2,20.352c-5.277,1.516-14.1,2.2-25.572-3.6C98.042,11.073,83.272,1.983,79.864.62s-7.5-.455-12.044,2.5S46.005,17.435,32.6,20.162c-3.069.9-10.156,1.375-17.041-.065A11.7,11.7,0,0,0,5.471,22.641l-.7.6A11.591,11.591,0,0,0,1.454,35.854c2.3,6.507,5.282,15.9,5.694,21.8.453,8.377,3.386,18.106-6.029,57.952-.048.2-.1.412-.132.618-.777,4.43-12.537,39.721,71.135,63.475a11.591,11.591,0,0,0,6.461-.041" transform="translate(0 0)" fill="#8c6df2"/>
    <path id="Trazado_115816" data-name="Trazado 115816" d="M91.9,86.917c-11.873,23.747-29.463,55.032-40.478,77.062a15.992,15.992,0,0,0,14.3,23.146h80.956a15.994,15.994,0,0,0,14.3-23.146c-11.016-22.029-28.606-53.315-40.478-77.062a15.993,15.993,0,0,0-28.609,0Z" transform="translate(-30.819 -48.378)" fill="#fedc72" fill-rule="evenodd"/>
    <path id="Trazado_115817" data-name="Trazado 115817" d="M171.625,194.71v-5.577a7.237,7.237,0,0,0-7.236-7.236h-3.661a7.237,7.237,0,0,0-7.236,7.236v5.577h-5.577a7.236,7.236,0,0,0-7.236,7.236v3.661a7.236,7.236,0,0,0,7.236,7.236h5.577v5.579a7.235,7.235,0,0,0,7.236,7.234h3.661a7.235,7.235,0,0,0,7.236-7.234v-5.579H177.2a7.237,7.237,0,0,0,7.236-7.236v-3.661a7.237,7.237,0,0,0-7.236-7.236Z" transform="translate(-87.169 -112.708)" fill="#5038a1" fill-rule="evenodd"/>
  </g>
</svg>
