<svg id="Grupo_80892" data-name="Grupo 80892" xmlns="http://www.w3.org/2000/svg" xmlns:xlink="http://www.w3.org/1999/xlink" width="220.266" height="263.159" viewBox="0 0 220.266 263.159">
  <defs>
    <clipPath id="clip-path">
      <rect id="Rectángulo_34766" data-name="Rectángulo 34766" width="220.266" height="263.159" fill="none"/>
    </clipPath>
  </defs>
  <g id="Grupo_80746" data-name="Grupo 80746" clip-path="url(#clip-path)">
    <path id="Trazado_115586" data-name="Trazado 115586" d="M220.239,183.484c-.322,8.324-4.079,16.142-8.607,22.977a98.982,98.982,0,0,1-14.164,16.726c-1.55,1.489-3.145,2.928-4.768,4.329a64.215,64.215,0,0,1-6.69,5.018c-6.674,4.4-14,7.685-21.3,11.075a366.083,366.083,0,0,1-49.916,18.848,16.89,16.89,0,0,1-9.441.061c-32.39-9.2-54.989-19.571-70.687-29.984A99.936,99.936,0,0,1,13.213,214c-.545-.645-1.061-1.284-1.561-1.917C-4.268,191.841.444,174.643,1.355,170.22c.033-.161.061-.3.083-.428.056-.306.122-.606.194-.906C15.386,110.68,11.1,96.466,10.44,84.23c-.6-8.63-4.962-22.343-8.318-31.851a16.929,16.929,0,0,1,4.851-18.42l1.017-.884a17.086,17.086,0,0,1,14.736-3.712c10.058,2.1,20.41,1.411,24.894.094C67.2,25.474,92.435,8.876,99.07,4.558s12.619-5.646,17.6-3.651,26.555,15.27,43.487,23.566c16.753,8.48,29.645,7.474,37.358,5.257a16.84,16.84,0,0,1,16.3,4.123c.078.072.156.15.233.222a16.8,16.8,0,0,1,4.006,18.315c-6.474,16.12-9.041,44.015-8.774,56.4.261,12.152,7.463,41.325,10.063,61.429a84.968,84.968,0,0,1,.895,13.264" transform="translate(0 0)" fill="#8c6df2"/>
    <path id="Trazado_115587" data-name="Trazado 115587" d="M195,133.888l-38.1,47.365,8.59,47.425H268.308l-13.22-64.738-52-31.477A6.232,6.232,0,0,0,195,133.888" transform="translate(-69.716 -58.457)" fill="#dbe6fd"/>
    <rect id="Rectángulo_34763" data-name="Rectángulo 34763" width="12.462" height="12.463" transform="matrix(0.985, -0.174, 0.174, 0.985, 164.072, 128.221)" fill="#a7d0e1"/>
    <path id="Trazado_115588" data-name="Trazado 115588" d="M185.257,94.971,135.99,155.83a6.231,6.231,0,0,0,5.925,10.058l5.069-.894,38.1-47.364a6.231,6.231,0,0,1,8.082-1.425l52,31.476,5.069-.894a6.231,6.231,0,0,0,2.128-11.477Z" transform="translate(-59.799 -42.199)" fill="#5038a1"/>
    <path id="Trazado_115589" data-name="Trazado 115589" d="M250.508,125.042a3.093,3.093,0,0,1-1.6-.446l-5.183-3.116a3.115,3.115,0,0,1,3.21-5.34l5.183,3.116a3.116,3.116,0,0,1-1.608,5.786" transform="translate(-107.622 -51.406)" fill="#fff"/>
    <path id="Trazado_115590" data-name="Trazado 115590" d="M145.337,155.83l46.207-57.08-6.287-3.779L135.99,155.83a6.231,6.231,0,0,0,5.925,10.058l4.927-.869a6.225,6.225,0,0,1-1.505-9.189" transform="translate(-59.799 -42.199)" fill="#12263f"/>
    <path id="Trazado_115591" data-name="Trazado 115591" d="M268.308,228.678l-1.909-9.347H213.356a49.805,49.805,0,0,1-46.281-31.443A12.414,12.414,0,0,1,169,175.56l26-32.326a6.231,6.231,0,0,1,8.082-1.425l52,31.476,1.842-.325-1.842-9.022-52-31.476A6.231,6.231,0,0,0,195,133.887L163.37,173.212l-6.468,8.041,1.382,7.629,7.208,39.8Z" transform="translate(-69.716 -58.457)" fill="#bbcff2"/>
    <rect id="Rectángulo_34764" data-name="Rectángulo 34764" width="12.462" height="12.463" transform="matrix(0.985, -0.174, 0.174, 0.985, 102.705, 139.041)" fill="#a7d0e1"/>
    <path id="Trazado_115592" data-name="Trazado 115592" d="M185.008,251.223l2.066,11.717,7.694-1.356a49.918,49.918,0,0,1-9.76-10.361" transform="translate(-82.205 -111.626)" fill="#80bbce"/>
    <path id="Trazado_115593" data-name="Trazado 115593" d="M244.06,179.744a9.347,9.347,0,1,1-10.828-7.582,9.347,9.347,0,0,1,10.828,7.582" transform="translate(-100.199 -76.433)" fill="#a7d0e1"/>
    <path id="Trazado_115594" data-name="Trazado 115594" d="M229.555,319.6c-.322,8.324-4.079,16.142-8.607,22.977A98.98,98.98,0,0,1,206.784,359.3c-1.55,1.489-3.145,2.928-4.768,4.329a64.224,64.224,0,0,1-6.69,5.018H43.984a99.936,99.936,0,0,1-21.454-18.532c-.545-.645-1.061-1.284-1.561-1.917V306.333H83.281L95.745,318.8l-6.229,6.229,9.346,9.346v15.581l9.346-9.346V328.143l-3.117-3.117V306.333h123.57a84.974,84.974,0,0,1,.895,13.264" transform="translate(-9.317 -136.113)" fill="#fedc72"/>
    <path id="Trazado_115595" data-name="Trazado 115595" d="M197.468,359.3c-1.55,1.489-3.145,2.928-4.768,4.329a64.22,64.22,0,0,1-6.69,5.018H34.667a99.936,99.936,0,0,1-21.454-18.532c-.545-.645-1.061-1.284-1.561-1.917-15.92-20.243-11.208-37.441-10.3-41.864H21A52.969,52.969,0,0,0,73.964,359.3Z" transform="translate(0 -136.113)" fill="#fdb74d"/>
    <rect id="Rectángulo_34765" data-name="Rectángulo 34765" width="12.463" height="49.85" transform="translate(33.462 120.37)" fill="#fedc72"/>
    <path id="Trazado_115596" data-name="Trazado 115596" d="M60.22,240.371a17.092,17.092,0,0,0,12.463,0V216.622H60.22Z" transform="translate(-26.758 -96.252)" fill="#fdb74d"/>
    <path id="Trazado_115597" data-name="Trazado 115597" d="M75.8,177.379c0,15.486-9.764,28.041-21.809,28.041s-21.809-12.554-21.809-28.041,9.764-28.041,21.809-28.041S75.8,161.892,75.8,177.379" transform="translate(-14.301 -66.355)" fill="#72aa65"/>
    <path id="Trazado_115598" data-name="Trazado 115598" d="M63.341,197.718c-12.045,0-21.809-12.554-21.809-28.041a33.438,33.438,0,0,1,4.281-16.636c-7.988,4.163-13.628,14.218-13.628,25.983,0,15.487,9.764,28.041,21.809,28.041,7.194,0,13.555-4.5,17.528-11.406a17.607,17.607,0,0,1-8.181,2.059" transform="translate(-14.301 -68.001)" fill="#599149"/>
    <path id="Trazado_115599" data-name="Trazado 115599" d="M261.349,275.268h-25.3l-5.172-29.381a6.214,6.214,0,0,1,5.048-7.2l12.276-2.181a6.251,6.251,0,0,1,7.228,5.047Z" transform="translate(-102.544 -105.046)" fill="#5038a1"/>
    <path id="Trazado_115600" data-name="Trazado 115600" d="M248.867,288.308a49.784,49.784,0,0,1-12.044-1.508l1.91,10.854h25.3l-1.641-9.347Z" transform="translate(-105.228 -127.434)" fill="#12263f"/>
    <path id="Trazado_115601" data-name="Trazado 115601" d="M108.192,104.174a3.105,3.105,0,0,0,2.2-.913l3.116-3.116a7.528,7.528,0,0,0,0-10.637,1.293,1.293,0,0,1,0-1.826l3.116-3.116a3.115,3.115,0,1,0-4.405-4.406L109.1,83.277a7.528,7.528,0,0,0,0,10.637,1.293,1.293,0,0,1,0,1.826l-3.116,3.116a3.116,3.116,0,0,0,2.2,5.318" transform="translate(-46.688 -35.213)" fill="#fedc72"/>
    <path id="Trazado_115602" data-name="Trazado 115602" d="M128.417,98.855a3.115,3.115,0,0,0,4.406,4.406l3.116-3.116a7.53,7.53,0,0,0,0-10.637,1.292,1.292,0,0,1,0-1.825l3.116-3.116a3.115,3.115,0,1,0-4.406-4.406l-3.116,3.116a7.53,7.53,0,0,0,0,10.637,1.292,1.292,0,0,1,0,1.825Z" transform="translate(-56.654 -35.213)" fill="#fedc72"/>
    <path id="Trazado_115603" data-name="Trazado 115603" d="M188.123,70.737a3.105,3.105,0,0,0,2.2-.913l3.116-3.116a7.528,7.528,0,0,0,0-10.637,1.293,1.293,0,0,1,0-1.826l3.116-3.116a3.115,3.115,0,0,0-4.405-4.406l-3.116,3.116a7.529,7.529,0,0,0,0,10.637,1.292,1.292,0,0,1,0,1.826l-3.116,3.116a3.116,3.116,0,0,0,2.2,5.318" transform="translate(-82.204 -20.355)" fill="#fedc72"/>
    <path id="Trazado_115604" data-name="Trazado 115604" d="M208.349,65.418a3.115,3.115,0,1,0,4.405,4.406l3.116-3.116a7.53,7.53,0,0,0,0-10.637,1.291,1.291,0,0,1,0-1.825l3.115-3.116a3.115,3.115,0,1,0-4.406-4.406l-3.115,3.116a7.53,7.53,0,0,0,0,10.637,1.293,1.293,0,0,1,0,1.825Z" transform="translate(-92.17 -20.355)" fill="#fedc72"/>
    <path id="Trazado_115605" data-name="Trazado 115605" d="M117.2,259.9a3.115,3.115,0,0,0,4.406,4.406l3.116-3.116a3.115,3.115,0,1,0-4.406-4.406Z" transform="translate(-51.671 -113.692)" fill="#fedc72"/>
    <path id="Trazado_115606" data-name="Trazado 115606" d="M360.22,200.714a3.115,3.115,0,0,0-4.406,0L352.7,203.83a3.115,3.115,0,0,0,4.406,4.406l3.116-3.116a3.115,3.115,0,0,0,0-4.406" transform="translate(-156.309 -88.778)" fill="#fedc72"/>
    <path id="Trazado_115607" data-name="Trazado 115607" d="M144.949,278.923v-3.116a3.116,3.116,0,0,0-6.231,0v3.116a3.116,3.116,0,0,0,6.231,0" transform="translate(-61.637 -121.165)" fill="#fedc72"/>
    <path id="Trazado_115608" data-name="Trazado 115608" d="M357.1,228.749a3.115,3.115,0,0,0-4.406,4.406l3.116,3.116a3.115,3.115,0,0,0,4.406-4.406Z" transform="translate(-156.309 -101.235)" fill="#fedc72"/>
    <path id="Trazado_115609" data-name="Trazado 115609" d="M177.966,204.013a3.113,3.113,0,0,0,1.281,2.011l10.829,7.583a3.116,3.116,0,0,0,3.575-5.105l-8.278-5.8,3.27-4.666a3.115,3.115,0,0,0-.566-4.186l-7.484-6.2-3.906,4.855,5.2,4.31-3.408,4.863a3.126,3.126,0,0,0-.516,2.329" transform="translate(-78.507 -83.381)" fill="#bbcff2"/>
    <path id="Trazado_115610" data-name="Trazado 115610" d="M40.908,340.607H52.08l5.319,5.318A3.115,3.115,0,0,0,61.8,341.52l-4.029-4.029L74.267,321a3.115,3.115,0,0,0,0-4.406l-10.26-10.259H55.2L67.659,318.8,52.08,334.376H40.908a3.116,3.116,0,1,0,0,6.231" transform="translate(-16.792 -136.114)" fill="#fdb74d"/>
    <path id="Trazado_115611" data-name="Trazado 115611" d="M235.622,382.677a3.115,3.115,0,1,0-4.406-4.406l-4.028,4.028-3.116-3.116v-8.057a3.116,3.116,0,0,0-6.231,0v6.231h-3.116a3.116,3.116,0,0,0,0,6.231h4.942L224.072,388v8.057H230.3V388Z" transform="translate(-94.024 -163.519)" fill="#fdb74d"/>
    <path id="Trazado_115612" data-name="Trazado 115612" d="M313.449,285.035l-2.481-14.069,4.316-6.161a3.116,3.116,0,1,0-5.105-3.575l-4.315,6.162-4.864.857a3.116,3.116,0,0,0,1.083,6.137l3.066-.541,2.091,11.858h6.194a2.947,2.947,0,0,0,.017-.668" transform="translate(-132.599 -115.481)" fill="#bbcff2"/>
    <path id="Trazado_115613" data-name="Trazado 115613" d="M296.3,306.335l-9.347,9.347h-4.942a3.116,3.116,0,1,0,0,6.231h4.942l7.522,7.522v8.057a3.118,3.118,0,0,0,.912,2.2l9.346,9.347a3.116,3.116,0,1,0,4.406-4.406L300.7,336.2V331.26h6.231a3.116,3.116,0,1,0,0-6.231h-8.057l-6.231-6.231,12.463-12.463Z" transform="translate(-123.92 -136.114)" fill="#fdb74d"/>
  </g>
</svg>
