<svg xmlns="http://www.w3.org/2000/svg" xmlns:xlink="http://www.w3.org/1999/xlink" width="304.133" height="179.925" viewBox="0 0 304.133 179.925">
  <defs>
    <clipPath id="clip-path">
      <rect id="Rectángulo_34720" data-name="Rectángulo 34720" width="127.574" height="152.417" fill="none"/>
    </clipPath>
  </defs>
  <g id="Grupo_134194" data-name="Grupo 134194" transform="translate(-180 -392.074)">
    <rect id="Rectángulo_34715" data-name="Rectángulo 34715" width="210" height="17" transform="translate(180 414.274)" fill="#fedc72" opacity="0.25"/>
    <rect id="Rectángulo_34806" data-name="Rectángulo 34806" width="105" height="21" transform="translate(265 508.274)" fill="#8c6df2" opacity="0.4" style="mix-blend-mode: multiply;isolation: isolate"/>
    <path id="Trazado_117362" data-name="Trazado 117362" d="M.879,74.931a147.216,147.216,0,0,1,13.976-9.2,124.143,124.143,0,0,1,15.783-7.672,104.094,104.094,0,0,1,17.944-5.419,80.612,80.612,0,0,1,9.9-1.38c.853-.052,1.706-.118,2.572-.137.432-.013.863-.032,1.3-.039l1.307,0c.877-.006,1.722.02,2.588.031.856.037,1.721.061,2.576.12A97.715,97.715,0,0,1,88.562,54.7c6.222,1.7,12.041,3.751,17.639,5.715,2.8.986,5.551,1.945,8.26,2.837,1.357.451,2.7.873,4.034,1.286.666.2,1.332.4,1.993.591l2.049.585c5.705,1.624,11.281,3.135,16.771,4.341,2.743.6,5.459,1.132,8.129,1.555q2,.318,3.965.557t3.869.366a52.6,52.6,0,0,0,13.685-.582q1.467-.287,2.8-.675c.445-.126.876-.267,1.3-.409l.625-.222c.188-.075.376-.144.56-.224a20.239,20.239,0,0,0,4.054-2.214c.3-.216.593-.435.871-.665l1.082-.856c.374-.295.709-.6,1.066-.9s.657-.61.989-.909a23.123,23.123,0,0,0,3.163-3.724,17.184,17.184,0,0,0,1.976-3.826,15.232,15.232,0,0,0,.887-3.97,21.354,21.354,0,0,0-1.081-8.519,36.909,36.909,0,0,0-4.484-8.975,45.892,45.892,0,0,0-3.293-4.363c-.6-.7-1.213-1.386-1.831-2.031-.308-.32-.622-.629-.923-.909-.149-.139-.3-.274-.432-.384a2.31,2.31,0,0,0-.184-.143c-.023-.013-.056-.04-.066-.036l-.011,0s-.014-.01,0,.016l.065.1c-7.358-8.966-2.989-20.429,9.761-25.6S214.9.412,222.258,9.377l.209.282.133.193.214.323.365.579c.23.373.436.723.636,1.071.4.695.763,1.368,1.116,2.036.7,1.333,1.328,2.648,1.913,3.967A70.532,70.532,0,0,1,229.8,25.8a56.018,56.018,0,0,1,2.532,16.705,43.165,43.165,0,0,1-3.721,17.516,44.782,44.782,0,0,1-4.976,8.446,50.264,50.264,0,0,1-7.042,7.615,62.946,62.946,0,0,1-8.63,6.4c-.777.466-1.546.939-2.332,1.387s-1.577.888-2.381,1.3l-1.208.619c-.411.209-.776.4-1.268.638-.927.459-1.879.893-2.845,1.309a66.215,66.215,0,0,1-12.353,3.917c-.54.119-1.087.223-1.632.329s-1.061.191-1.592.279c-1.063.171-2.127.328-3.192.454-2.129.258-4.258.428-6.36.513a87.107,87.107,0,0,1-12.2-.387,101.432,101.432,0,0,1-11.132-1.763A142.533,142.533,0,0,1,130.1,85.361c-5.954-2.194-11.5-4.583-16.845-6.951l-2.083-.928c-.715-.318-1.4-.645-2.1-.967-1.375-.651-2.735-1.306-4.051-1.967-2.648-1.319-5.183-2.65-7.684-3.942-5-2.589-9.813-5.078-14.778-7.183a73.545,73.545,0,0,0-15.473-4.81c-.673-.131-1.353-.229-2.034-.344l-1.026-.14-.515-.071c-.171-.021-.339-.033-.509-.05l-1.019-.1c-.341-.028-.686-.044-1.031-.068-.688-.054-1.386-.063-2.085-.09s-1.405-.014-2.112-.013c-.708.023-1.419.018-2.132.064l-1.071.053c-.358.019-.715.052-1.073.077-.717.049-1.432.126-2.149.2s-1.432.176-2.151.263-1.43.214-2.148.322c-.709.132-1.423.256-2.133.4s-1.42.283-2.122.448q-2.118.47-4.191,1.06c-.692.193-1.384.389-2.066.6l-1.027.316-1.012.34a85.1,85.1,0,0,0-15.218,6.785A67.179,67.179,0,0,0,5.681,77.8a4.094,4.094,0,0,1-4.415.448c-1.4-.734-1.68-2.124-.637-3.1a2.637,2.637,0,0,1,.235-.2Z" transform="translate(260.796 418.274) rotate(16)" fill="#fdb74d"/>
    <g id="Grupo_80645" data-name="Grupo 80645" transform="translate(291.091 392.074)">
      <g id="Grupo_80645-2" data-name="Grupo 80645" clip-path="url(#clip-path)">
        <path id="Trazado_115062" data-name="Trazado 115062" d="M127.558,106.27a19.387,19.387,0,0,1-.776,4.65,32.072,32.072,0,0,1-4.21,8.657,57.329,57.329,0,0,1-8.2,9.687c-.9.863-1.822,1.7-2.761,2.507a37.19,37.19,0,0,1-3.875,2.906A58.762,58.762,0,0,1,101.9,138c-2.137,1.081-4.325,2.079-6.507,3.093a212.03,212.03,0,0,1-28.91,10.917,9.782,9.782,0,0,1-5.468.035C45.709,147.7,34.175,142.9,25.511,138c-1.954-1.1-3.759-2.211-5.433-3.321A57.88,57.88,0,0,1,7.652,123.946c-.315-.373-.615-.743-.9-1.11a31.464,31.464,0,0,1-5.89-11.4A25.742,25.742,0,0,1,.784,98.588c.019-.093.035-.174.048-.248.032-.177.071-.351.113-.525.3-1.274.586-2.51.859-3.714.023-.1.045-.2.064-.3l0,0C2.9,89.245,3.72,85.194,4.37,81.579c.418-2.32.769-4.457,1.056-6.437v-.006A104.431,104.431,0,0,0,6.709,59.373v0c0-1.139-.035-2.176-.084-3.135-.122-2.44-.344-4.374-.489-6.153-.035-.441-.068-.869-.09-1.3A59.134,59.134,0,0,0,3.44,37.031c-.393-1.291-.8-2.562-1.207-3.772-.341-1.023-.682-2.008-1-2.922a9.8,9.8,0,0,1,2.81-10.669l.589-.512a9.633,9.633,0,0,1,3.148-1.815,10.032,10.032,0,0,1,5.31-.351c.026.006.051.01.077.016,5.825,1.217,11.821.817,14.418.055a58.446,58.446,0,0,0,13.153-4.8c1.278-.618,2.536-1.258,3.753-1.905C50.4,7.213,55.364,3.95,57.379,2.64,61.225.139,64.688-.63,67.571.526S82.952,9.37,92.758,14.175c9.352,4.734,16.626,4.364,21.141,3.18.171-.042.335-.09.5-.135a9.581,9.581,0,0,1,4.934-.093h0a9.883,9.883,0,0,1,4.506,2.481c.045.042.09.087.135.129a9.733,9.733,0,0,1,2.32,10.608c-3.749,9.336-5.236,25.492-5.082,32.666.093,4.361,1.728,12.5,3.321,20.836.364,1.921.731,3.856,1.072,5.754.27,1.5.525,2.974.76,4.406.142.885.277,1.754.4,2.6q.15,1.014.274,1.982a49.212,49.212,0,0,1,.518,7.682" transform="translate(0 0)" fill="#8c6df2"/>
        <path id="Trazado_115063" data-name="Trazado 115063" d="M74.521,70.57a2,2,0,0,0,0,2.831l4,4a2,2,0,1,0,2.831-2.831l-4-4a2,2,0,0,0-2.831,0" transform="translate(-50.14 -47.46)" fill="#f3f9ff"/>
        <path id="Trazado_115064" data-name="Trazado 115064" d="M43.417,114.116a2,2,0,0,0,0,2.831l4,4a2,2,0,0,0,2.831-2.831l-4-4a2,2,0,0,0-2.831,0" transform="translate(-29.046 -76.992)" fill="#f3f9ff"/>
        <path id="Trazado_115065" data-name="Trazado 115065" d="M294.256,106.507a2,2,0,1,0,2.831-2.831l-2-2a2,2,0,1,0-2.831,2.831Z" transform="translate(-197.799 -68.554)" fill="#f3f9ff"/>
        <path id="Trazado_115066" data-name="Trazado 115066" d="M295.672,163.083a2,2,0,0,0,1.415-3.418l-2-2a2,2,0,1,0-2.831,2.831l2,2a2,2,0,0,0,1.415.587" transform="translate(-197.799 -106.524)" fill="#f3f9ff"/>
        <path id="Trazado_115067" data-name="Trazado 115067" d="M66.912,190.769l-2-2a2,2,0,1,0-2.831,2.831l2,2a2,2,0,0,0,2.831-2.831" transform="translate(-41.702 -127.618)" fill="#f3f9ff"/>
        <path id="Trazado_115068" data-name="Trazado 115068" d="M33.584,59.311a2,2,0,0,1-2.829,0l-6.6-6.6a10.032,10.032,0,0,1,5.31-.351l4.116,4.116a2,2,0,0,1,0,2.832" transform="translate(-16.382 -35.372)" fill="#f3f9ff"/>
        <path id="Trazado_115069" data-name="Trazado 115069" d="M359.317,55.437a2,2,0,0,1-2.832,0l-2.578-2.581c.171-.042.335-.09.5-.135a9.58,9.58,0,0,1,4.934-.093h0a2,2,0,0,1-.023,2.81" transform="translate(-240.008 -35.501)" fill="#f3f9ff"/>
        <path id="Trazado_115070" data-name="Trazado 115070" d="M11.9,106.508a2,2,0,0,1-2.832,0l-.92-.92c-.393-1.291-.8-2.562-1.207-3.772a1.681,1.681,0,0,1,.126-.138,2,2,0,0,1,2.832,0l2,2a2,2,0,0,1,0,2.829" transform="translate(-4.704 -68.556)" fill="#f3f9ff"/>
        <path id="Trazado_115071" data-name="Trazado 115071" d="M366.905,101.674a2,2,0,0,0,0,2.831l2,2a2,2,0,0,0,2.831-2.831l-2-2a2,2,0,0,0-2.831,0" transform="translate(-248.425 -68.554)" fill="#f3f9ff"/>
        <path id="Trazado_115072" data-name="Trazado 115072" d="M304.48,60.744a2,2,0,1,0,2.831-2.831l-6.006-6.006a2,2,0,1,0-2.831,2.831Z" transform="translate(-202.017 -34.803)" fill="#f3f9ff"/>
        <path id="Trazado_115073" data-name="Trazado 115073" d="M137.072,41.754a2,2,0,0,1-2.832,0l-7.673-7.676c1.278-.618,2.536-1.258,3.753-1.905l6.752,6.749a2,2,0,0,1,0,2.832" transform="translate(-85.833 -21.819)" fill="#f3f9ff"/>
        <path id="Trazado_115074" data-name="Trazado 115074" d="M26.128,165.506a2,2,0,0,1-2.832,0l-3.74-3.74c-.122-2.44-.344-4.374-.489-6.153l7.061,7.064a2,2,0,0,1,0,2.829" transform="translate(-12.931 -105.532)" fill="#f3f9ff"/>
        <path id="Trazado_115075" data-name="Trazado 115075" d="M341.22,140.2a2,2,0,0,0,1.415-3.418l-4-4a2,2,0,0,0-2.831,2.831l4,4a2,2,0,0,0,1.415.587" transform="translate(-227.331 -89.649)" fill="#f3f9ff"/>
        <path id="Trazado_115076" data-name="Trazado 115076" d="M355.078,180.329l-4-4a2,2,0,0,0-2.831,2.831l4,4a2,2,0,1,0,2.831-2.831" transform="translate(-235.768 -119.18)" fill="#f3f9ff"/>
        <path id="Trazado_115077" data-name="Trazado 115077" d="M139.561,89.232a2,2,0,0,0-2.831,2.831l4,4a2,2,0,0,0,2.831-2.831Z" transform="translate(-92.328 -60.116)" fill="#f3f9ff"/>
        <path id="Trazado_115078" data-name="Trazado 115078" d="M8.922,269.639a2,2,0,0,0-2.831,2.831l4,4a2,2,0,1,0,2.831-2.831Z" transform="translate(-3.733 -182.462)" fill="#f3f9ff"/>
        <path id="Trazado_115079" data-name="Trazado 115079" d="M40.027,226.093a2,2,0,0,0-2.831,2.831l8.009,8.008a2,2,0,1,0,2.831-2.831Z" transform="translate(-24.827 -152.931)" fill="#f3f9ff"/>
        <path id="Trazado_115080" data-name="Trazado 115080" d="M83.573,288.3a2,2,0,0,0-2.831,2.831l4,4a2,2,0,0,0,2.831-2.831Z" transform="translate(-54.359 -195.119)" fill="#f3f9ff"/>
        <path id="Trazado_115081" data-name="Trazado 115081" d="M100.019,155.445l-4-4a2,2,0,0,0-2.831,2.831l4,4a2,2,0,1,0,2.831-2.831" transform="translate(-62.797 -102.304)" fill="#f3f9ff"/>
        <path id="Trazado_115082" data-name="Trazado 115082" d="M344.852,232.314a2,2,0,1,0-2.831,2.831l4,4a2,2,0,1,0,2.831-2.831Z" transform="translate(-231.549 -157.15)" fill="#f3f9ff"/>
        <path id="Trazado_115083" data-name="Trazado 115083" d="M298.475,219.872a2,2,0,0,0,0,2.831l2,2a2,2,0,1,0,2.831-2.831l-2-2a2,2,0,0,0-2.831,0" transform="translate(-202.018 -148.712)" fill="#f3f9ff"/>
        <path id="Trazado_115084" data-name="Trazado 115084" d="M301.305,275.86a2,2,0,1,0-2.831,2.831l8.008,8.008a2,2,0,0,0,2.831-2.831Z" transform="translate(-202.017 -186.681)" fill="#f3f9ff"/>
        <path id="Trazado_115085" data-name="Trazado 115085" d="M369.736,282.081a2,2,0,0,0-2.831,2.831l4,4a2,2,0,1,0,2.831-2.831Z" transform="translate(-248.425 -190.9)" fill="#f3f9ff"/>
        <path id="Trazado_115086" data-name="Trazado 115086" d="M270.061,216.964l-1.152,6.524-40.966-7.222-.183-.032-12.346-2.179-4.116-.724.508-2.88,2.034-11.525a4.177,4.177,0,0,1,4.84-3.389l.74.132a4.178,4.178,0,0,0,4.618-2.6l4.01-10.276a8.354,8.354,0,0,1,9.237-5.191l2.015.354h0l17.408,3.07a8.355,8.355,0,0,1,6.9,8.039l.251,11.026a4.179,4.179,0,0,0,3.453,4.02l.508.09c.364,1.921.731,3.856,1.072,5.754.27,1.5.525,2.974.76,4.406.142.885.277,1.754.4,2.6" transform="translate(-143.295 -120.358)" fill="#dbe6fd"/>
        <path id="Trazado_115087" data-name="Trazado 115087" d="M365.936,264.109a2.091,2.091,0,0,1-1.04-.277,10.526,10.526,0,0,1-2.606-2.118,2.09,2.09,0,0,1,3.118-2.783,6.272,6.272,0,0,0,1.573,1.278,2.089,2.089,0,0,1-1.045,3.9" transform="translate(-245.333 -175.125)" fill="#fff"/>
        <path id="Trazado_115088" data-name="Trazado 115088" d="M270.061,216.964l-1.152,6.524-40.966-7.222-.183-.032-12.346-2.179-4.116-.724.508-2.88,2.034-11.525a4.177,4.177,0,0,1,4.84-3.389l.74.132a4.178,4.178,0,0,0,4.618-2.6l4.01-10.276a8.354,8.354,0,0,1,9.237-5.191l2.015.354a8.363,8.363,0,0,0-4.985,4.837l-4.007,10.276a4.18,4.18,0,0,1-4.618,2.6l-.743-.132a4.181,4.181,0,0,0-4.84,3.389l-1.506,8.551a4.179,4.179,0,0,0,3.907,4.911.7.7,0,0,0,.084,0c.19,0,.377,0,.57,0,.389,0,.776-.006,1.155-.019.126,0,.251-.006.377-.013l.209-.01q.623-.024,1.226-.077.483-.039.956-.087h.029a25.669,25.669,0,0,0,9.732-2.829,4.02,4.02,0,0,1,3.968,0c3.257,1.854,8.175,3.035,13.684,3.035a31.108,31.108,0,0,0,11.953-2.176,4.123,4.123,0,0,1,2.449-.261c.27,1.5.525,2.974.76,4.406.142.885.277,1.754.4,2.6" transform="translate(-143.295 -120.358)" fill="#bbcff2"/>
        <path id="Trazado_115089" data-name="Trazado 115089" d="M236.23,282.394a6.268,6.268,0,1,1-5.084-7.261,6.268,6.268,0,0,1,5.084,7.261" transform="translate(-151.766 -186.521)" fill="#5038a1"/>
        <path id="Trazado_115090" data-name="Trazado 115090" d="M228.969,293.514a6.236,6.236,0,0,0,6.585-9.129,37.156,37.156,0,0,1-3.924.207,35.469,35.469,0,0,1-6.837-.656,6.271,6.271,0,0,0,4.176,9.577" transform="translate(-151.766 -192.557)" fill="#12263f"/>
        <path id="Trazado_115091" data-name="Trazado 115091" d="M325,207.776a4.179,4.179,0,0,0-3.451-3.986l-8.055-1.42-2.54,14.4,14.4,2.54Z" transform="translate(-210.877 -137.241)" fill="#a7d0e1"/>
        <path id="Trazado_115092" data-name="Trazado 115092" d="M321.7,205.88a4.179,4.179,0,0,1,3.451,3.986l.269,8.695,4.267.752-.357-11.536a4.179,4.179,0,0,0-3.451-3.986l-8.055-1.42-.483,2.741Z" transform="translate(-215.21 -137.241)" fill="#80bbce"/>
        <path id="Trazado_115093" data-name="Trazado 115093" d="M275.086,197.822a4.179,4.179,0,0,0-4.606,2.565L266.2,211.106l14.4,2.54,2.54-14.4Z" transform="translate(-180.527 -134.113)" fill="#a7d0e1"/>
        <path id="Trazado_115094" data-name="Trazado 115094" d="M284.63,197.823a4.17,4.17,0,0,0-4.358,2.074c.06.008.119.005.18.016l3.94.695a4.179,4.179,0,0,1,3.389,4.841l-1.33,7.547,3.7.652,2.54-14.4Z" transform="translate(-190.071 -134.114)" fill="#80bbce"/>
        <path id="Trazado_115095" data-name="Trazado 115095" d="M66.048,187.574l-4.084,1.439-12.259,4.322-8.078,2.848-16.043,5.658h-.006l-.393.138v0l-10.81,3.811-1.448.508-4.087,1.442L5.9,199.926h0l-.084-.232c1.027-4.557,1.847-8.609,2.5-12.223a4.156,4.156,0,0,0,1.468-3.836l-.412-2.6v-.006a104.431,104.431,0,0,0,1.284-15.763v0a8.721,8.721,0,0,1,3.016-1.809l19.291-6.8c.122-.042.241-.084.364-.119s.241-.071.364-.1a9.02,9.02,0,0,1,1.5-.254,8.77,8.77,0,0,1,8.178,4.013l5.967,9.5a4.418,4.418,0,0,0,5.2,1.77l.737-.261a4.389,4.389,0,0,1,5.574,2.52Z" transform="translate(-3.945 -105.892)" fill="#dbe6fd"/>
        <path id="Trazado_115096" data-name="Trazado 115096" d="M41.621,196.193l-16.043,5.658h-.006l-.393.138v0L14.368,205.8l-1.448.508v0l-4.087,1.439-2.938-7.817-.087-.229,0,0c1.027-4.557,1.847-8.609,2.5-12.223a4.156,4.156,0,0,0,1.468-3.836l-.412-2.6v-.006a104.431,104.431,0,0,0,1.284-15.763v0a8.721,8.721,0,0,1,3.016-1.809l19.291-6.8c.122-.042.241-.084.364-.119s.241-.071.364-.1a8.866,8.866,0,0,1,5.355.286l-19.1,6.736a8.4,8.4,0,0,0-5.626,9.192l1.735,10.991a4.2,4.2,0,0,1-2.81,4.6l-.737.261a4.177,4.177,0,0,0-2.6,5.4l.183.486a4.183,4.183,0,0,0,2.913,2.6,32.533,32.533,0,0,0,5.593.866h.01c.508.039,1.027.064,1.551.077h0c.322.01.647.013.975.013,5.513,0,10.437-1.181,13.691-3.038a4.026,4.026,0,0,1,3.984.016,18.806,18.806,0,0,0,2.822,1.278" transform="translate(-3.938 -105.902)" fill="#bbcff2"/>
        <path id="Trazado_115097" data-name="Trazado 115097" d="M39.334,289.8a6.266,6.266,0,0,1-3.9,8.1,6.583,6.583,0,0,1-8.361-3.777,6.267,6.267,0,0,1,3.9-8.1,6.583,6.583,0,0,1,8.361,3.777" transform="translate(-18.093 -193.715)" fill="#12263f"/>
        <path id="Trazado_115098" data-name="Trazado 115098" d="M153.609,249.513a6.266,6.266,0,0,1-3.9,8.1,6.583,6.583,0,0,1-8.361-3.777,6.267,6.267,0,0,1,3.9-8.1,6.583,6.583,0,0,1,8.361,3.777" transform="translate(-95.591 -166.39)" fill="#5038a1"/>
        <path id="Trazado_115099" data-name="Trazado 115099" d="M80.3,179.178a4.42,4.42,0,0,0-5.184-1.74l-8,2.821,5.206,13.855,14.3-5.043Z" transform="translate(-45.518 -120.16)" fill="#a7d0e1"/>
        <path id="Trazado_115100" data-name="Trazado 115100" d="M73.03,181.616a4.42,4.42,0,0,1,5.184,1.74l4.529,7.084,3.885-1.37L80.3,179.178a4.42,4.42,0,0,0-5.184-1.74l-8,2.821,1.142,3.039Z" transform="translate(-45.519 -120.16)" fill="#80bbce"/>
        <path id="Trazado_115101" data-name="Trazado 115101" d="M36.235,189.558a4.2,4.2,0,0,0-2.816,4.561l1.719,11.516,14.3-5.043-5.206-13.855Z" transform="translate(-22.633 -126.639)" fill="#a7d0e1"/>
        <path id="Trazado_115102" data-name="Trazado 115102" d="M34.153,193.737l4.138-1.459a4.178,4.178,0,0,1,5.3,2.471l2.624,6.983,3.231-1.14-5.206-13.855-8,2.82a4.2,4.2,0,0,0-2.819,4.517,4.493,4.493,0,0,1,.73-.339" transform="translate(-22.64 -126.639)" fill="#80bbce"/>
        <path id="Trazado_115103" data-name="Trazado 115103" d="M127.558,301.52a19.387,19.387,0,0,1-.776,4.651,32.072,32.072,0,0,1-4.21,8.657,57.33,57.33,0,0,1-8.2,9.687c-.9.863-1.822,1.7-2.761,2.507a37.2,37.2,0,0,1-3.875,2.906,58.765,58.765,0,0,1-5.828,3.321H25.511c-1.954-1.1-3.759-2.211-5.433-3.321A57.88,57.88,0,0,1,7.652,319.2c-.315-.373-.615-.743-.9-1.11a31.464,31.464,0,0,1-5.89-11.4,25.742,25.742,0,0,1-.074-12.851c.019-.093.035-.174.048-.248.032-.177.071-.351.113-.525.3-1.274.586-2.51.859-3.714a1.557,1.557,0,0,1,.151-.068h0a4.124,4.124,0,0,1,3.276.006A24.593,24.593,0,0,0,9.316,290.6a35.081,35.081,0,0,0,7.869.863,36.914,36.914,0,0,0,4.02-.216c.142-.016.286-.032.428-.052h.006a25.191,25.191,0,0,0,9.227-2.765,4.022,4.022,0,0,1,3.978,0c3.257,1.851,8.175,3.032,13.681,3.032s10.424-1.181,13.678-3.032a4.028,4.028,0,0,1,3.981,0,21.932,21.932,0,0,0,5.867,2.179,34.849,34.849,0,0,0,7.814.853,36.9,36.9,0,0,0,4.586-.283c.068-.006.132-.016.2-.026a24.893,24.893,0,0,0,8.9-2.723,4.028,4.028,0,0,1,3.981,0c3.257,1.851,8.175,3.032,13.678,3.032a31.108,31.108,0,0,0,11.953-2.176,4.116,4.116,0,0,1,3.209-.035c.142.885.277,1.754.4,2.6q.15,1.014.274,1.983a49.212,49.212,0,0,1,.518,7.682" transform="translate(0 -195.25)" fill="#fedc72"/>
        <path id="Trazado_115104" data-name="Trazado 115104" d="M128.591,341.388a32.072,32.072,0,0,1-4.21,8.657,57.329,57.329,0,0,1-8.2,9.687c-.9.863-1.822,1.7-2.761,2.507a37.2,37.2,0,0,1-3.875,2.906,58.766,58.766,0,0,1-5.828,3.321H27.319c-1.954-1.1-3.759-2.211-5.433-3.321A57.88,57.88,0,0,1,9.461,354.412c-.315-.373-.615-.743-.9-1.11a31.464,31.464,0,0,1-5.89-11.4,4.137,4.137,0,0,1,4.377-.686,31.079,31.079,0,0,0,11.95,2.176c5.507,0,10.424-1.181,13.681-3.032a4.022,4.022,0,0,1,3.978,0c3.257,1.851,8.175,3.032,13.681,3.032s10.424-1.181,13.678-3.032a4.028,4.028,0,0,1,3.981,0c3.257,1.851,8.175,3.032,13.681,3.032s10.421-1.181,13.678-3.032a4.028,4.028,0,0,1,3.981,0c3.257,1.851,8.175,3.032,13.678,3.032a31.108,31.108,0,0,0,11.953-2.176,4.116,4.116,0,0,1,3.627.167" transform="translate(-1.809 -230.467)" fill="#fdb74d"/>
      </g>
    </g>
  </g>
</svg>
