<svg xmlns="http://www.w3.org/2000/svg" xmlns:xlink="http://www.w3.org/1999/xlink" width="79.925" height="381.726" viewBox="0 0 79.925 381.726">
  <defs>
    <clipPath id="clip-path">
      <rect id="Rectángulo_34984" data-name="Rectángulo 34984" width="79.925" height="101.243" fill="none"/>
    </clipPath>
    <clipPath id="clip-path-2">
      <rect id="Rectángulo_34685" data-name="Rectángulo 34685" width="40.796" height="34.047" transform="translate(0 0)" fill="none"/>
    </clipPath>
  </defs>
  <g id="Grupo_81217" data-name="Grupo 81217" transform="translate(-234.435 -661.828)">
    <g id="Grupo_81153" data-name="Grupo 81153" transform="translate(234.435 661.828)">
      <g id="Grupo_81152" data-name="Grupo 81152" transform="translate(0 0)" clip-path="url(#clip-path)">
        <path id="Trazado_117263" data-name="Trazado 117263" d="M91.147,33.3V54.62h-66.6V33.3a33.3,33.3,0,1,1,66.6,0" transform="translate(-17.883)" fill="#fedc72"/>
        <rect id="Rectángulo_34983" data-name="Rectángulo 34983" width="66.604" height="2.914" transform="translate(6.66 51.706)" fill="#fdb74d"/>
        <path id="Trazado_117264" data-name="Trazado 117264" d="M79.925,203.35v15.819a2.082,2.082,0,0,1-2.081,2.081H69.934v-2.5a4.164,4.164,0,0,0-4.163-4.163H47.322l-7.36-8.2-7.152,8.2H14.153a4.165,4.165,0,0,0-4.163,4.163v2.5H2.081A2.082,2.082,0,0,1,0,219.169V203.35a2.082,2.082,0,0,1,2.081-2.081H77.844a2.082,2.082,0,0,1,2.081,2.081" transform="translate(0 -146.649)" fill="#8c6df2"/>
        <path id="Trazado_117265" data-name="Trazado 117265" d="M91.849,223.528v2.5H88.935v-2.5a4.164,4.164,0,0,0-4.163-4.163H66.323l-7.36-8.205-7.152,8.205H33.154a4.164,4.164,0,0,0-4.163,4.163v2.5H26.077v-2.5a7.076,7.076,0,0,1,7.077-7.077H50.487l6.9-7.913a2.081,2.081,0,0,1,3.118-.025l7.118,7.938H84.772a7.076,7.076,0,0,1,7.077,7.077" transform="translate(-19 -151.425)" fill="#fdb74d"/>
        <path id="Trazado_117266" data-name="Trazado 117266" d="M96.759,232.489v24.977a4.164,4.164,0,0,1-4.163,4.163H40.978a4.164,4.164,0,0,1-4.163-4.163V232.489a4.164,4.164,0,0,1,4.163-4.163H59.635l7.152-8.205,7.36,8.205H92.6a4.164,4.164,0,0,1,4.163,4.163" transform="translate(-26.824 -160.385)" fill="#fedc72"/>
        <path id="Trazado_117267" data-name="Trazado 117267" d="M133.282,73.992h0a3.291,3.291,0,0,1-3.258-2.826l-1.914-13.4a3.291,3.291,0,0,1,3.258-3.757H135.2a3.291,3.291,0,0,1,3.258,3.757l-1.914,13.4a3.291,3.291,0,0,1-3.258,2.826" transform="translate(-93.319 -39.354)" fill="#5038a1"/>
        <path id="Trazado_117268" data-name="Trazado 117268" d="M141.647,143.241a3.33,3.33,0,1,1-3.33-3.33,3.33,3.33,0,0,1,3.33,3.33" transform="translate(-98.355 -101.942)" fill="#5038a1"/>
        <path id="Trazado_117269" data-name="Trazado 117269" d="M83.632,289.271H80.3a4.376,4.376,0,0,1-4.371-4.371v-3.33A4.376,4.376,0,0,1,80.3,277.2h3.33A4.376,4.376,0,0,1,88,281.57v3.33a4.376,4.376,0,0,1-4.371,4.371m-3.33-9.99a2.292,2.292,0,0,0-2.29,2.29v3.33a2.292,2.292,0,0,0,2.29,2.29h3.33a2.292,2.292,0,0,0,2.29-2.29v-3.33a2.292,2.292,0,0,0-2.29-2.29Z" transform="translate(-55.325 -201.974)"/>
        <path id="Trazado_117270" data-name="Trazado 117270" d="M83.631,313.815H80.3a4.376,4.376,0,0,1-4.371-4.371,1.041,1.041,0,0,1,2.081,0,2.292,2.292,0,0,0,2.29,2.289h3.33a2.292,2.292,0,0,0,2.29-2.289v-6.66a1.041,1.041,0,1,1,2.081,0v6.66a4.376,4.376,0,0,1-4.371,4.371" transform="translate(-55.324 -219.857)"/>
        <path id="Trazado_117271" data-name="Trazado 117271" d="M144.989,340.638h-6.66a1.041,1.041,0,1,1,0-2.081h6.66a1.041,1.041,0,1,1,0,2.081" transform="translate(-100.031 -246.68)"/>
        <path id="Trazado_117272" data-name="Trazado 117272" d="M141.659,295.932a1.041,1.041,0,0,1-1.041-1.041V280.753l-1.554,1.554a1.041,1.041,0,0,1-1.472-1.472l3.33-3.33a1.041,1.041,0,0,1,1.777.736v16.651a1.041,1.041,0,0,1-1.041,1.041" transform="translate(-100.031 -201.974)"/>
        <path id="Trazado_117273" data-name="Trazado 117273" d="M194.075,340.638h-6.661a1.041,1.041,0,1,1,0-2.081h6.661a1.041,1.041,0,0,1,0,2.081" transform="translate(-135.796 -246.68)"/>
        <path id="Trazado_117274" data-name="Trazado 117274" d="M190.745,295.932a1.041,1.041,0,0,1-1.041-1.041V280.753l-1.554,1.554a1.041,1.041,0,1,1-1.472-1.472l3.33-3.33a1.041,1.041,0,0,1,1.777.736v16.651a1.041,1.041,0,0,1-1.041,1.041" transform="translate(-135.797 -201.974)"/>
      </g>
    </g>
    <path id="Trazado_117362" data-name="Trazado 117362" d="M26.728-10.183a10.818,10.818,0,0,1-3.643,7.769A12.794,12.794,0,0,1,14.424.42,11.5,11.5,0,0,1,5.176-3.538Q1.806-7.5,1.806-14.4v-1.869a18.325,18.325,0,0,1,1.554-7.769A11.643,11.643,0,0,1,7.8-29.2a12.44,12.44,0,0,1,6.708-1.8,12.463,12.463,0,0,1,8.524,2.834A11.625,11.625,0,0,1,26.77-20.2h-6.3a6.385,6.385,0,0,0-1.648-4.294,6.1,6.1,0,0,0-4.315-1.333,5.352,5.352,0,0,0-4.714,2.257q-1.564,2.257-1.606,7v2.31q0,4.955,1.5,7.244a5.253,5.253,0,0,0,4.735,2.289,6.218,6.218,0,0,0,4.357-1.333,6.022,6.022,0,0,0,1.648-4.126Zm29.248-4.409a18.455,18.455,0,0,1-1.6,7.916,12.017,12.017,0,0,1-4.567,5.249A12.632,12.632,0,0,1,43,.42a12.718,12.718,0,0,1-6.782-1.827A12.135,12.135,0,0,1,31.6-6.624a17.927,17.927,0,0,1-1.659-7.8v-1.512a18.358,18.358,0,0,1,1.627-7.947,12.115,12.115,0,0,1,4.6-5.27,12.648,12.648,0,0,1,6.792-1.837,12.648,12.648,0,0,1,6.792,1.837,12.115,12.115,0,0,1,4.6,5.27,18.305,18.305,0,0,1,1.627,7.926Zm-6.383-1.386q0-4.808-1.722-7.307a5.611,5.611,0,0,0-4.913-2.5,5.613,5.613,0,0,0-4.892,2.467q-1.722,2.467-1.743,7.233v1.491a13.025,13.025,0,0,0,1.722,7.265A5.6,5.6,0,0,0,43-4.745a5.546,5.546,0,0,0,4.871-2.488q1.7-2.488,1.722-7.254ZM68.783-30.57,76.636-8.4,84.446-30.57h8.272V0H86.4V-8.356l.63-14.424L78.777,0H74.452l-8.23-22.76.63,14.4V0h-6.3V-30.57Zm35.735,19.8V0h-6.3V-30.57h11.926a13.8,13.8,0,0,1,6.057,1.26,9.283,9.283,0,0,1,4.021,3.58,9.982,9.982,0,0,1,1.407,5.281,8.778,8.778,0,0,1-3.076,7.086q-3.076,2.593-8.514,2.593Zm0-5.1h5.627a5.533,5.533,0,0,0,3.811-1.176,4.276,4.276,0,0,0,1.312-3.359,5.042,5.042,0,0,0-1.323-3.632,4.941,4.941,0,0,0-3.653-1.428h-5.774ZM132.254-5.06h13.375V0H125.956V-30.57h6.3Zm35.378-8.188H155.539V-5.06h14.193V0H149.24V-30.57h20.45v5.1H155.539v7.286h12.094Zm18.12-17.322h6.3V-9.406a10.121,10.121,0,0,1-1.291,5.155A8.763,8.763,0,0,1,187.117-.8,11.38,11.38,0,0,1,181.805.42q-4.85,0-7.559-2.467a8.964,8.964,0,0,1-2.708-6.981h6.341a4.915,4.915,0,0,0,.945,3.317,3.78,3.78,0,0,0,2.981,1.071,3.609,3.609,0,0,0,2.876-1.239,5.234,5.234,0,0,0,1.071-3.527Zm36.806,15.978a18.455,18.455,0,0,1-1.6,7.916A12.017,12.017,0,0,1,216.4-1.428,12.632,12.632,0,0,1,209.583.42,12.718,12.718,0,0,1,202.8-1.407a12.135,12.135,0,0,1-4.619-5.218,17.926,17.926,0,0,1-1.659-7.8v-1.512a18.358,18.358,0,0,1,1.627-7.947,12.115,12.115,0,0,1,4.6-5.27,12.648,12.648,0,0,1,6.792-1.837,12.648,12.648,0,0,1,6.792,1.837,12.115,12.115,0,0,1,4.6,5.27,18.306,18.306,0,0,1,1.627,7.926Zm-6.383-1.386q0-4.808-1.722-7.307a5.611,5.611,0,0,0-4.913-2.5,5.613,5.613,0,0,0-4.892,2.467q-1.722,2.467-1.743,7.233v1.491a13.025,13.025,0,0,0,1.722,7.265,5.6,5.6,0,0,0,4.955,2.583,5.546,5.546,0,0,0,4.871-2.488q1.7-2.488,1.722-7.254Z" transform="translate(289.46 1045.36) rotate(-90)" fill="#12263f"/>
    <g id="Grupo_81154" data-name="Grupo 81154" transform="matrix(-0.588, -0.809, 0.809, -0.588, 273.44, 816.09)">
      <g id="Grupo_80595" data-name="Grupo 80595" transform="translate(0 0)" clip-path="url(#clip-path-2)">
        <path id="Trazado_114749" data-name="Trazado 114749" d="M0,.754A34.388,34.388,0,0,1,18.87,15.021,20.546,20.546,0,0,0,15.9,17.608l11.287,2.325V7.942l-2.368,2.4S13.442-3.3,0,.754" transform="translate(3.878 7.164)" fill="#fdb74d"/>
        <path id="Trazado_114750" data-name="Trazado 114750" d="M0,.754A34.388,34.388,0,0,1,18.87,15.021,20.546,20.546,0,0,0,15.9,17.608l11.287,2.325V7.942l-2.368,2.4S13.442-3.3,0,.754Z" transform="translate(6.448 5.622)" fill="none" stroke="#fdb74d" stroke-linecap="round" stroke-linejoin="round" stroke-width="8"/>
      </g>
    </g>
  </g>
</svg>
