<svg xmlns="http://www.w3.org/2000/svg" xmlns:xlink="http://www.w3.org/1999/xlink" width="82.129" height="466.542" viewBox="0 0 82.129 466.542">
  <defs>
    <clipPath id="clip-path">
      <rect id="Rect치ngulo_34685" data-name="Rect치ngulo 34685" width="40.796" height="34.047" transform="translate(0 0)" fill="none"/>
    </clipPath>
    <clipPath id="clip-path-2">
      <rect id="Rect치ngulo_34987" data-name="Rect치ngulo 34987" width="82.129" height="99.693" fill="none"/>
    </clipPath>
  </defs>
  <g id="Grupo_81218" data-name="Grupo 81218" transform="translate(-1283.435 -655.045)">
    <path id="Trazado_117363" data-name="Trazado 117363" d="M27.589,0h-6.3L9.028-20.114V0h-6.3V-30.57h6.3L21.311-10.414V-30.57h6.278ZM58.2-14.592a18.455,18.455,0,0,1-1.6,7.916,12.017,12.017,0,0,1-4.567,5.249A12.632,12.632,0,0,1,45.226.42a12.718,12.718,0,0,1-6.782-1.827,12.135,12.135,0,0,1-4.619-5.218,17.926,17.926,0,0,1-1.659-7.8v-1.512a18.358,18.358,0,0,1,1.627-7.947,12.115,12.115,0,0,1,4.6-5.27,12.648,12.648,0,0,1,6.792-1.837,12.648,12.648,0,0,1,6.792,1.837,12.115,12.115,0,0,1,4.6,5.27A18.305,18.305,0,0,1,58.2-15.957Zm-6.383-1.386q0-4.808-1.722-7.307a5.611,5.611,0,0,0-4.913-2.5,5.613,5.613,0,0,0-4.892,2.467q-1.722,2.467-1.743,7.233v1.491a13.025,13.025,0,0,0,1.722,7.265,5.6,5.6,0,0,0,4.955,2.583A5.546,5.546,0,0,0,50.1-7.233q1.7-2.488,1.722-7.254Zm45.667,5.795a10.818,10.818,0,0,1-3.643,7.769A12.794,12.794,0,0,1,85.181.42a11.5,11.5,0,0,1-9.249-3.958Q72.563-7.5,72.563-14.4v-1.869a18.325,18.325,0,0,1,1.554-7.769A11.643,11.643,0,0,1,78.557-29.2a12.44,12.44,0,0,1,6.708-1.8,12.463,12.463,0,0,1,8.524,2.834A11.625,11.625,0,0,1,97.527-20.2h-6.3a6.384,6.384,0,0,0-1.648-4.294,6.1,6.1,0,0,0-4.315-1.333,5.352,5.352,0,0,0-4.714,2.257q-1.564,2.257-1.606,7v2.31q0,4.955,1.5,7.244a5.253,5.253,0,0,0,4.735,2.289,6.218,6.218,0,0,0,4.357-1.333,6.022,6.022,0,0,0,1.648-4.126Zm29.248-4.409a18.454,18.454,0,0,1-1.6,7.916,12.017,12.017,0,0,1-4.567,5.249A12.632,12.632,0,0,1,113.757.42a12.718,12.718,0,0,1-6.782-1.827,12.135,12.135,0,0,1-4.619-5.218,17.927,17.927,0,0,1-1.659-7.8v-1.512a18.357,18.357,0,0,1,1.627-7.947,12.115,12.115,0,0,1,4.6-5.27,12.648,12.648,0,0,1,6.792-1.837,12.648,12.648,0,0,1,6.792,1.837,12.115,12.115,0,0,1,4.6,5.27,18.305,18.305,0,0,1,1.627,7.926Zm-6.383-1.386q0-4.808-1.722-7.307a5.611,5.611,0,0,0-4.913-2.5,5.613,5.613,0,0,0-4.892,2.467q-1.722,2.467-1.743,7.233v1.491A13.025,13.025,0,0,0,108.8-7.328a5.6,5.6,0,0,0,4.955,2.583,5.546,5.546,0,0,0,4.871-2.488q1.7-2.488,1.722-7.254ZM139.54-30.57,147.393-8.4,155.2-30.57h8.272V0h-6.32V-8.356l.63-14.424L149.534,0h-4.325l-8.23-22.76.63,14.4V0h-6.3V-30.57Zm35.735,19.8V0h-6.3V-30.57H180.9a13.8,13.8,0,0,1,6.057,1.26,9.283,9.283,0,0,1,4.021,3.58,9.982,9.982,0,0,1,1.407,5.281,8.778,8.778,0,0,1-3.076,7.086q-3.076,2.593-8.514,2.593Zm0-5.1H180.9a5.533,5.533,0,0,0,3.811-1.176,4.276,4.276,0,0,0,1.312-3.359,5.042,5.042,0,0,0-1.323-3.632,4.941,4.941,0,0,0-3.653-1.428h-5.774ZM203.011-5.06h13.375V0H196.712V-30.57h6.3Zm35.378-8.188H226.3V-5.06h14.193V0H220V-30.57h20.45v5.1H226.3v7.286H238.39Zm18.12-17.322h6.3V-9.406a10.121,10.121,0,0,1-1.291,5.155A8.763,8.763,0,0,1,257.874-.8,11.38,11.38,0,0,1,252.562.42q-4.85,0-7.559-2.467a8.964,8.964,0,0,1-2.708-6.981h6.341a4.915,4.915,0,0,0,.945,3.317,3.78,3.78,0,0,0,2.981,1.071,3.609,3.609,0,0,0,2.876-1.239,5.234,5.234,0,0,0,1.071-3.527Zm36.806,15.978a18.454,18.454,0,0,1-1.6,7.916,12.017,12.017,0,0,1-4.567,5.249A12.632,12.632,0,0,1,280.34.42a12.718,12.718,0,0,1-6.782-1.827,12.135,12.135,0,0,1-4.619-5.218,17.927,17.927,0,0,1-1.659-7.8v-1.512a18.357,18.357,0,0,1,1.627-7.947,12.116,12.116,0,0,1,4.6-5.27A12.648,12.648,0,0,1,280.3-30.99a12.648,12.648,0,0,1,6.792,1.837,12.116,12.116,0,0,1,4.6,5.27,18.305,18.305,0,0,1,1.627,7.926Zm-6.383-1.386q0-4.808-1.722-7.307a5.611,5.611,0,0,0-4.913-2.5,5.613,5.613,0,0,0-4.892,2.467q-1.722,2.467-1.743,7.233v1.491a13.025,13.025,0,0,0,1.722,7.265,5.6,5.6,0,0,0,4.955,2.583,5.546,5.546,0,0,0,4.871-2.488q1.7-2.488,1.722-7.254Z" transform="translate(1341.46 948.36) rotate(-90)" fill="#12263f"/>
    <g id="Grupo_81155" data-name="Grupo 81155" transform="translate(1323.312 962.119) rotate(45)">
      <g id="Grupo_80595" data-name="Grupo 80595" transform="translate(0 0)" clip-path="url(#clip-path)">
        <path id="Trazado_114749" data-name="Trazado 114749" d="M0,.754A34.388,34.388,0,0,1,18.87,15.021,20.546,20.546,0,0,0,15.9,17.608l11.287,2.325V7.942l-2.368,2.4S13.442-3.3,0,.754" transform="translate(3.878 7.164)" fill="#fdb74d"/>
        <path id="Trazado_114750" data-name="Trazado 114750" d="M0,.754A34.388,34.388,0,0,1,18.87,15.021,20.546,20.546,0,0,0,15.9,17.608l11.287,2.325V7.942l-2.368,2.4S13.442-3.3,0,.754Z" transform="translate(6.448 5.622)" fill="none" stroke="#8c6df2" stroke-linecap="round" stroke-linejoin="round" stroke-width="8"/>
      </g>
    </g>
    <g id="Grupo_81157" data-name="Grupo 81157" transform="translate(1283.435 1021.895)">
      <g id="Grupo_81156" data-name="Grupo 81156" clip-path="url(#clip-path-2)">
        <path id="Trazado_117275" data-name="Trazado 117275" d="M69.166,83.1a33.921,33.921,0,0,1-5.733,3.664l-1.247.632L53.34,91.877c-.415.209-.821.426-1.225.649-.579.32-1.147.652-1.7,1a39.01,39.01,0,0,0-6.451,5.006,4.141,4.141,0,0,1-5.733.017,38.956,38.956,0,0,0-6.468-5.023q-.839-.522-1.7-1c-.409-.226-.819-.443-1.233-.652l-8.846-4.483-1.247-.632a33.959,33.959,0,0,1-7.175-4.873l0,0A34.1,34.1,0,0,1,.38,51.553l1.74-12.29a38.334,38.334,0,0,0-.251-12.3l-1.8-9.818a4.276,4.276,0,0,1,.167-2.166L4.092,3.856A4.263,4.263,0,0,1,9.51,1.222l2.7.933a31.01,31.01,0,0,0,18.653.554L39.93.159a4.286,4.286,0,0,1,2.311,0L51.3,2.709a31.01,31.01,0,0,0,18.653-.554l.994-.342a4.263,4.263,0,0,1,5.24,2.2l5.157,10.826a4.267,4.267,0,0,1,.362,2.512L80.1,27.362a38.382,38.382,0,0,0-.106,11.475l1.8,12.716A34.113,34.113,0,0,1,69.166,83.1" transform="translate(0 0)" fill="#fedc72"/>
        <path id="Trazado_117276" data-name="Trazado 117276" d="M76.917,97.575l-8.453,4.283a47.709,47.709,0,0,0-11.075,7.212,47.628,47.628,0,0,0-11.075-7.212l-8.449-4.283A27.854,27.854,0,0,1,22.72,75.354c-.56-5.9.9-9.514,2-19.8a42.879,42.879,0,0,0-.4-13.34l-1.705-9.306,3.034-8.749C39.222,28.8,46.7,25.724,57.389,22.71c9.53,2.686,17.907,5.964,30.226,1.969l4.13,8.673-1.513,9.4A43.626,43.626,0,0,0,90.1,56.022c.7,5.968,1.953,12.592,2.069,15.7A27.864,27.864,0,0,1,76.917,97.575" transform="translate(-16.305 -16.387)" fill="#8c6df2"/>
        <path id="Trazado_117277" data-name="Trazado 117277" d="M130.019,237.807v18.6c-.579.32-1.147.652-1.7,1H109.663q-.839-.522-1.7-1v-18.6a10.687,10.687,0,0,1,10.684-10.687h.682a10.687,10.687,0,0,1,10.687,10.687" transform="translate(-77.905 -163.881)" fill="#fedc72"/>
        <path id="Trazado_117278" data-name="Trazado 117278" d="M50.819,171.418v17.514H40.74l-1.247-.632a33.958,33.958,0,0,1-7.175-4.873l0,0c-.894-4.307-1.676-9.654-2.356-10.461-.181-.212-.351-.42-.515-.629q-.359-.459-.677-.91V144.1a3.39,3.39,0,0,1,.242-1.261v0a3.385,3.385,0,0,1,6.524,1.264V153.4c-4.99,4.338-.969,12.7,5.669,11.227l2.86.011a7,7,0,0,1,1.089.092,6.785,6.785,0,0,1,5.669,6.691" transform="translate(-20.757 -101.538)" fill="#fedc72"/>
        <path id="Trazado_117279" data-name="Trazado 117279" d="M209.217,144.1v26.842a32.854,32.854,0,0,1-4.344,5.043c-.217.206-.434,4.962-.654,8.648a33.92,33.92,0,0,1-5.733,3.664l-1.247.632H187.167V171.418a6.782,6.782,0,0,1,5.669-6.691,6.974,6.974,0,0,1,1.089-.092l2.86-.011c6.638,1.47,10.659-6.889,5.666-11.227V144.1a3.383,3.383,0,1,1,6.766,0" transform="translate(-135.052 -101.538)" fill="#fedc72"/>
        <path id="Trazado_117280" data-name="Trazado 117280" d="M137.24,187.006a6.488,6.488,0,1,1-6.488-6.488,6.488,6.488,0,0,1,6.488,6.488" transform="translate(-89.664 -130.255)" fill="#5038a1"/>
        <path id="Trazado_117281" data-name="Trazado 117281" d="M51.952,191.543a8.445,8.445,0,0,1-5.474,1.967,8.4,8.4,0,0,1-4.142-15.627v2.33c-4.991,4.337-.971,12.7,5.666,11.227l2.862.011a6.8,6.8,0,0,1,1.088.092" transform="translate(-27.559 -128.353)" fill="#fdb74d"/>
        <path id="Trazado_117282" data-name="Trazado 117282" d="M58.03,187.011a6.487,6.487,0,0,1-5.08,6.333c-6.637,1.47-10.657-6.889-5.666-11.227a6.487,6.487,0,0,1,10.747,4.893" transform="translate(-32.505 -130.258)" fill="#5038a1"/>
        <path id="Trazado_117283" data-name="Trazado 117283" d="M220.724,188.028A8.242,8.242,0,0,1,213,193.51a8.45,8.45,0,0,1-5.474-1.967,6.865,6.865,0,0,1,1.088-.092l2.862-.011c6.637,1.47,10.657-6.89,5.666-11.227v-2.33a8.25,8.25,0,0,1,3.583,10.144" transform="translate(-149.742 -128.354)" fill="#fdb74d"/>
        <path id="Trazado_117284" data-name="Trazado 117284" d="M203.465,187.011a6.487,6.487,0,0,0,5.08,6.333c6.637,1.47,10.657-6.889,5.666-11.227a6.487,6.487,0,0,0-10.747,4.893" transform="translate(-146.812 -130.258)" fill="#5038a1"/>
        <path id="Trazado_117285" data-name="Trazado 117285" d="M222.3,101.827c-1.074-.355-2.184-.665-2.807-3.349-.574,2.471-1.493,2.914-2.807,3.349,2.143.708,2.466,1.881,2.807,3.349.587-2.531,1.558-2.936,2.807-3.349" transform="translate(-156.351 -71.058)" fill="#f0c020"/>
        <path id="Trazado_117286" data-name="Trazado 117286" d="M216.923,103.474c-.311-1.342-.517-2.228-2.33-2.827a.722.722,0,0,1,0-1.37c1.092-.361,1.813-.6,2.33-2.827a.722.722,0,0,1,1.405,0c.529,2.278,1.319,2.494,2.331,2.827a.722.722,0,0,1,0,1.37c-1.053.348-1.814.6-2.33,2.827a.722.722,0,0,1-1.406,0m-.412-3.5a3.747,3.747,0,0,1,1.129,1.194,3.572,3.572,0,0,1,1.067-1.2,3.683,3.683,0,0,1-1.079-1.248,3.575,3.575,0,0,1-1.118,1.258" transform="translate(-154.485 -69.193)" fill="#fdb74d"/>
        <path id="Trazado_117287" data-name="Trazado 117287" d="M144.63,129.6c-.927-.307-1.885-.574-2.423-2.891-.5,2.134-1.289,2.516-2.423,2.891a3.218,3.218,0,0,1,2.423,2.891c.507-2.185,1.345-2.535,2.423-2.891" transform="translate(-100.863 -91.427)" fill="#fedc72"/>
        <path id="Trazado_117288" data-name="Trazado 117288" d="M139.989,131.021c-.268-1.158-.446-1.923-2.012-2.44a.623.623,0,0,1,0-1.183c.943-.312,1.565-.517,2.012-2.441a.623.623,0,0,1,1.213,0c.457,1.967,1.139,2.153,2.012,2.441a.623.623,0,0,1,0,1.183c-.909.3-1.566.517-2.012,2.44a.623.623,0,0,1-1.214,0M139.634,128a3.236,3.236,0,0,1,.975,1.031,3.083,3.083,0,0,1,.921-1.04,3.177,3.177,0,0,1-.931-1.077,3.089,3.089,0,0,1-.965,1.086" transform="translate(-99.252 -89.818)" fill="#fedc72"/>
        <path id="Trazado_117289" data-name="Trazado 117289" d="M72.656,101.827c-1.074-.355-2.184-.665-2.807-3.349-.574,2.471-1.493,2.914-2.807,3.349,2.143.708,2.466,1.881,2.807,3.349.587-2.531,1.558-2.936,2.807-3.349" transform="translate(-48.376 -71.058)" fill="#f0c020"/>
        <path id="Trazado_117290" data-name="Trazado 117290" d="M67.281,103.474c-.311-1.342-.517-2.228-2.33-2.827a.722.722,0,0,1,0-1.37c1.092-.361,1.813-.6,2.33-2.827a.722.722,0,0,1,1.405,0c.529,2.278,1.319,2.494,2.331,2.827a.722.722,0,0,1,0,1.37c-1.053.348-1.814.6-2.33,2.827a.722.722,0,0,1-1.406,0m-.412-3.5A3.747,3.747,0,0,1,68,101.173a3.572,3.572,0,0,1,1.067-1.2,3.684,3.684,0,0,1-1.079-1.248,3.575,3.575,0,0,1-1.118,1.258" transform="translate(-46.509 -69.193)" fill="#fdb74d"/>
      </g>
    </g>
  </g>
</svg>
