<svg xmlns="http://www.w3.org/2000/svg" width="89.834" height="89.834" viewBox="0 0 89.834 89.834">
  <g id="Grupo_134171" data-name="Grupo 134171" transform="translate(1128.903 477.489)">
    <circle id="Elipse_5764" data-name="Elipse 5764" cx="44.917" cy="44.917" r="44.917" transform="translate(-1128.903 -477.489)" fill="#5038a1"/>
    <g id="Grupo_134142" data-name="Grupo 134142" transform="translate(-1107.13 -458.559)">
      <path id="Trazado_191613" data-name="Trazado 191613" d="M-1040.911-399.847c.071.084.09.1.09.109,0,3.573.076,7.147-.024,10.716a4.222,4.222,0,0,1-4.419,3.948q-9.04.01-18.081,0-7.2,0-14.4,0a4.347,4.347,0,0,1-4.637-4.637q0-15.564,0-31.128v-.615h.6q5.2,0,10.394,0a4.341,4.341,0,0,0,4.6-4.618q0-5.17,0-10.34v-.633h.632q10.367,0,20.734,0a4.335,4.335,0,0,1,4.62,4.6q0,7.633.008,15.266a1.142,1.142,0,0,1-.364.9q-5.6,5.579-11.168,11.187a5.907,5.907,0,0,0-1.035,1.433q-1.7,3.29-3.321,6.62a3.443,3.443,0,0,0,3.256,5.018,4.084,4.084,0,0,0,1.493-.421q3.379-1.641,6.721-3.357a4.523,4.523,0,0,0,1.078-.8C-1043.055-397.66-1042-398.747-1040.911-399.847Zm-14.636-11.211c2.562,0,5.123,0,7.684,0a1.746,1.746,0,0,0,1.858-1.755,1.747,1.747,0,0,0-1.853-1.706q-7.684-.006-15.368,0a2.117,2.117,0,0,0-.787.15,1.718,1.718,0,0,0-1.019,1.9,1.751,1.751,0,0,0,1.747,1.408C-1060.705-411.053-1058.126-411.058-1055.547-411.058Zm-18.2-2.451c-.152-.163-.259-.284-.374-.4a1.75,1.75,0,0,0-2.549-.122,1.744,1.744,0,0,0,.071,2.549c.491.5.991,1,1.49,1.49a1.77,1.77,0,0,0,2.786-.014q1.571-1.562,3.133-3.134a1.766,1.766,0,0,0,.142-2.628,1.766,1.766,0,0,0-2.589.164C-1072.322-414.917-1073.011-414.236-1073.744-413.509Zm-.047,8.725a4.675,4.675,0,0,0-.415-.543,1.725,1.725,0,0,0-2.47-.031,1.725,1.725,0,0,0,.014,2.471c.511.534,1.04,1.049,1.565,1.568a1.76,1.76,0,0,0,2.747.007q1.593-1.578,3.172-3.171a1.763,1.763,0,0,0,.163-2.589,1.766,1.766,0,0,0-2.627.143C-1072.328-406.246-1073.013-405.562-1073.791-404.784Zm.007,8.654a4.9,4.9,0,0,0-.388-.5,1.733,1.733,0,0,0-2.509-.058,1.738,1.738,0,0,0,.061,2.512c.515.529,1.039,1.05,1.567,1.567a1.745,1.745,0,0,0,2.671-.005q1.634-1.614,3.248-3.248a1.749,1.749,0,0,0,.114-2.55,1.757,1.757,0,0,0-2.588.116C-1072.3-397.615-1072.986-396.927-1073.784-396.131Zm13.053-6.265c.848,0,1.695.008,2.542,0a1.743,1.743,0,0,0,1.79-1.713,1.74,1.74,0,0,0-1.81-1.747q-2.516-.014-5.031,0a1.741,1.741,0,0,0-1.818,1.74,1.75,1.75,0,0,0,1.838,1.721C-1062.39-402.39-1061.561-402.4-1060.731-402.4Zm-.884,8.662c.577,0,1.154.01,1.73,0a1.741,1.741,0,0,0,1.753-1.749,1.733,1.733,0,0,0-1.738-1.708q-1.731-.025-3.461,0a1.731,1.731,0,0,0-1.726,1.72,1.739,1.739,0,0,0,1.711,1.736C-1062.769-393.721-1062.192-393.735-1061.615-393.734Z" transform="translate(1082.383 437.045)" fill="#fedc72"/>
      <path id="Trazado_191614" data-name="Trazado 191614" d="M-1020.739-368.43c.1-.235.149-.38.218-.516q1.507-3.022,3.021-6.04a2.056,2.056,0,0,1,.373-.523q5.216-5.229,10.442-10.448c.063-.063.133-.117.152-.134l3.437,3.443c-.018.021-.1.13-.2.226q-5.163,5.167-10.331,10.33a2.074,2.074,0,0,1-.513.386q-3.111,1.57-6.231,3.123C-1020.458-368.54-1020.554-368.507-1020.739-368.43Z" transform="translate(1049.591 409.94)" fill="#fedc72"/>
      <path id="Trazado_191615" data-name="Trazado 191615" d="M-1068.889-434.5v2.552q0,3.653,0,7.3c0,.744-.316,1.075-1.037,1.076q-4.843.007-9.686,0c-.084,0-.168-.011-.2-.013Z" transform="translate(1081.017 435.689)" fill="#fedc72"/>
      <path id="Trazado_191616" data-name="Trazado 191616" d="M-981.389-391.468l-3.437-3.444c.7-.714,1.406-1.49,2.175-2.192a2.5,2.5,0,0,1,3.508.052,2.5,2.5,0,0,1-.132,3.464C-979.969-392.862-980.692-392.165-981.389-391.468Z" transform="translate(1030.487 416.165)" fill="#fedc72"/>
    </g>
  </g>
</svg>
