<svg id="Grupo_81219" data-name="Grupo 81219" xmlns="http://www.w3.org/2000/svg" xmlns:xlink="http://www.w3.org/1999/xlink" width="158.209" height="189.016" viewBox="0 0 158.209 189.016">
  <defs>
    <clipPath id="clip-path">
      <rect id="Rectángulo_34700" data-name="Rectángulo 34700" width="158.209" height="189.015" fill="none"/>
    </clipPath>
  </defs>
  <g id="Grupo_80634" data-name="Grupo 80634" clip-path="url(#clip-path)">
    <path id="Trazado_114929" data-name="Trazado 114929" d="M82.455,188.511a262.773,262.773,0,0,0,35.851-13.541c7.066-3.281,14.151-6.425,20.106-11.558a74.685,74.685,0,0,0,13.6-15.124c3.253-4.906,5.95-10.525,6.18-16.5.477-12.4-7.63-42.679-7.868-53.647-.194-8.9,1.653-28.934,6.3-40.51a12.07,12.07,0,0,0-2.88-13.155l-.168-.162a12.092,12.092,0,0,0-11.71-2.96c-5.537,1.591-14.8,2.313-26.832-3.775C102.873,11.618,87.375,2.081,83.8.651S75.93.174,71.161,3.273,48.272,18.294,34.2,21.156c-3.22.947-10.656,1.443-17.881-.068A12.277,12.277,0,0,0,5.74,23.757l-.73.634a12.162,12.162,0,0,0-3.484,13.23C3.936,44.448,7.068,54.3,7.5,60.5c.475,8.789,3.553,19-6.326,60.807-.051.214-.1.432-.139.649-.816,4.648-13.155,41.678,74.64,66.6a12.162,12.162,0,0,0,6.779-.044" transform="translate(0 0)" fill="#8c6df2"/>
    <path id="Trazado_114930" data-name="Trazado 114930" d="M93.982,87.352C81.524,112.269,63.068,145.1,51.509,168.211A16.78,16.78,0,0,0,66.519,192.5h84.945a16.782,16.782,0,0,0,15.009-24.286C154.915,145.1,136.458,112.269,124,87.352a16.781,16.781,0,0,0-30.019,0Z" transform="translate(-29.887 -46.915)" fill="#fedc72" fill-rule="evenodd"/>
    <path id="Trazado_114931" data-name="Trazado 114931" d="M173.15,195.342V189.49a7.594,7.594,0,0,0-7.593-7.593h-3.841a7.594,7.594,0,0,0-7.593,7.593v5.852h-5.852a7.592,7.592,0,0,0-7.593,7.593v3.841a7.592,7.592,0,0,0,7.593,7.593h5.852v5.854a7.592,7.592,0,0,0,7.593,7.591h3.841a7.592,7.592,0,0,0,7.593-7.591v-5.854H179a7.594,7.594,0,0,0,7.593-7.593v-3.841A7.594,7.594,0,0,0,179,195.342Z" transform="translate(-84.532 -109.299)" fill="#5038a1" fill-rule="evenodd"/>
  </g>
</svg>
