<svg id="Grupo_80636" data-name="Grupo 80636" xmlns="http://www.w3.org/2000/svg" xmlns:xlink="http://www.w3.org/1999/xlink" width="157.603" height="188.294" viewBox="0 0 157.603 188.294">
  <defs>
    <clipPath id="clip-path">
      <rect id="Rectángulo_34711" data-name="Rectángulo 34711" width="157.603" height="188.294" fill="none"/>
    </clipPath>
  </defs>
  <g id="Grupo_80637" data-name="Grupo 80637" clip-path="url(#clip-path)">
    <path id="Trazado_114985" data-name="Trazado 114985" d="M157.584,131.285c-.231,5.956-2.918,11.55-6.159,16.44a70.823,70.823,0,0,1-10.135,11.967c-1.109,1.066-2.25,2.1-3.411,3.1a45.947,45.947,0,0,1-4.787,3.59,116.438,116.438,0,0,1-15.24,7.924A261.939,261.939,0,0,1,82.137,187.79a12.085,12.085,0,0,1-6.755.044c-23.175-6.58-39.345-14-50.577-21.454a71.505,71.505,0,0,1-15.351-13.26c-.39-.461-.759-.918-1.117-1.372C-3.054,137.265.318,124.959.97,121.795c.024-.115.044-.215.06-.306.04-.219.087-.433.139-.648,9.84-41.647,6.775-51.818,6.3-60.573-.429-6.175-3.55-15.987-5.952-22.79A12.113,12.113,0,0,1,4.989,24.3l.728-.632A12.225,12.225,0,0,1,16.261,21.01c7.2,1.5,14.6,1.01,17.812.068C48.084,18.227,66.138,6.351,70.886,3.261S79.915-.778,83.477.649s19,10.926,31.115,16.862c11.987,6.067,21.211,5.348,26.73,3.761a12.049,12.049,0,0,1,11.665,2.95c.056.052.111.107.167.159a12.023,12.023,0,0,1,2.867,13.1c-4.632,11.534-6.469,31.493-6.278,40.355.187,8.7,5.34,29.569,7.2,43.953a60.8,60.8,0,0,1,.64,9.49" transform="translate(0 0)" fill="#8c6df2"/>
    <path id="Trazado_114986" data-name="Trazado 114986" d="M184.164,133.226,156.9,167.116l6.146,33.933h73.567l-9.459-46.321-37.209-22.522a4.459,4.459,0,0,0-5.783,1.02" transform="translate(-94.52 -79.255)" fill="#dbe6fd"/>
    <rect id="Rectángulo_34708" data-name="Rectángulo 34708" width="8.917" height="8.917" transform="matrix(0.985, -0.174, 0.174, 0.985, 117.395, 91.744)" fill="#a7d0e1"/>
    <path id="Trazado_114987" data-name="Trazado 114987" d="M170.841,94.971,135.59,138.517a4.459,4.459,0,0,0,4.239,7.2l3.627-.64,27.262-33.89a4.458,4.458,0,0,1,5.783-1.02l37.209,22.522,3.627-.639a4.459,4.459,0,0,0,1.523-8.212Z" transform="translate(-81.073 -57.212)" fill="#5038a1"/>
    <path id="Trazado_114988" data-name="Trazado 114988" d="M248.148,122.382a2.213,2.213,0,0,1-1.146-.319l-3.709-2.229a2.229,2.229,0,0,1,2.3-3.821l3.709,2.229a2.229,2.229,0,0,1-1.151,4.14" transform="translate(-145.911 -69.695)" fill="#fff"/>
    <path id="Trazado_114989" data-name="Trazado 114989" d="M142.277,138.517l33.062-40.842-4.5-2.7L135.59,138.517a4.459,4.459,0,0,0,4.239,7.2l3.525-.622a4.454,4.454,0,0,1-1.077-6.575" transform="translate(-81.073 -57.212)" fill="#12263f"/>
    <path id="Trazado_114990" data-name="Trazado 114990" d="M236.615,201.05l-1.366-6.688H197.3a35.636,35.636,0,0,1-33.115-22.5,8.882,8.882,0,0,1,1.378-8.82l18.606-23.129a4.458,4.458,0,0,1,5.783-1.019l37.209,22.522,1.318-.232-1.318-6.456-37.209-22.522a4.458,4.458,0,0,0-5.783,1.019L161.53,161.363l-4.628,5.753.989,5.459,5.157,28.475Z" transform="translate(-94.52 -79.254)" fill="#bbcff2"/>
    <rect id="Rectángulo_34709" data-name="Rectángulo 34709" width="8.917" height="8.917" transform="matrix(0.985, -0.174, 0.174, 0.985, 73.487, 99.486)" fill="#a7d0e1"/>
    <path id="Trazado_114991" data-name="Trazado 114991" d="M185.008,251.223l1.478,8.384,5.505-.971a35.716,35.716,0,0,1-6.984-7.413" transform="translate(-111.451 -151.34)" fill="#80bbce"/>
    <path id="Trazado_114992" data-name="Trazado 114992" d="M238.782,177.546a6.688,6.688,0,1,1-7.747-5.425,6.688,6.688,0,0,1,7.747,5.425" transform="translate(-135.848 -103.626)" fill="#a7d0e1"/>
    <path id="Trazado_114993" data-name="Trazado 114993" d="M170.215,315.823c-.231,5.956-2.918,11.55-6.159,16.44a70.822,70.822,0,0,1-10.135,11.967c-1.109,1.066-2.25,2.1-3.411,3.1a45.94,45.94,0,0,1-4.787,3.59H37.436a71.5,71.5,0,0,1-15.351-13.26c-.39-.461-.759-.918-1.117-1.372V306.333H65.554l8.918,8.918-4.457,4.457L76.7,326.4v11.148l6.687-6.687v-8.918l-2.23-2.23V306.333h88.416a60.8,60.8,0,0,1,.64,9.49" transform="translate(-12.631 -184.538)" fill="#fedc72"/>
    <path id="Trazado_114994" data-name="Trazado 114994" d="M141.291,344.231c-1.109,1.066-2.25,2.1-3.411,3.1a45.94,45.94,0,0,1-4.787,3.59H24.805a71.5,71.5,0,0,1-15.351-13.26c-.39-.461-.759-.918-1.117-1.372C-3.054,321.8.318,309.5.97,306.333H15.024a37.9,37.9,0,0,0,37.9,37.9Z" transform="translate(0 -184.538)" fill="#fdb74d"/>
    <rect id="Rectángulo_34710" data-name="Rectángulo 34710" width="8.917" height="35.668" transform="translate(23.943 86.126)" fill="#fedc72"/>
    <path id="Trazado_114995" data-name="Trazado 114995" d="M60.22,233.615a12.23,12.23,0,0,0,8.917,0V216.622H60.22Z" transform="translate(-36.277 -130.496)" fill="#fdb74d"/>
    <path id="Trazado_114996" data-name="Trazado 114996" d="M63.395,169.4c0,11.081-6.986,20.064-15.6,20.064s-15.6-8.983-15.6-20.064,6.986-20.064,15.6-20.064,15.6,8.983,15.6,20.064" transform="translate(-19.389 -89.963)" fill="#72aa65"/>
    <path id="Trazado_114997" data-name="Trazado 114997" d="M54.478,185.009c-8.619,0-15.6-8.983-15.6-20.064a23.925,23.925,0,0,1,3.063-11.9c-5.716,2.978-9.751,10.173-9.751,18.591,0,11.081,6.986,20.064,15.6,20.064,5.148,0,9.7-3.219,12.542-8.161a12.6,12.6,0,0,1-5.854,1.473" transform="translate(-19.389 -92.194)" fill="#599149"/>
    <path id="Trazado_114998" data-name="Trazado 114998" d="M252.653,264.214h-18.1l-3.7-21.022a4.446,4.446,0,0,1,3.612-5.15l8.784-1.561a4.473,4.473,0,0,1,5.172,3.611Z" transform="translate(-139.026 -142.419)" fill="#5038a1"/>
    <path id="Trazado_114999" data-name="Trazado 114999" d="M245.441,287.879a35.621,35.621,0,0,1-8.618-1.079l1.367,7.767h18.1l-1.174-6.688Z" transform="translate(-142.665 -172.772)" fill="#12263f"/>
    <path id="Trazado_115000" data-name="Trazado 115000" d="M107.305,97.083a2.222,2.222,0,0,0,1.576-.653L111.11,94.2a5.387,5.387,0,0,0,0-7.611.925.925,0,0,1,0-1.306l2.229-2.229a2.229,2.229,0,0,0-3.152-3.152l-2.229,2.23a5.387,5.387,0,0,0,0,7.611.925.925,0,0,1,0,1.306l-2.229,2.229a2.229,2.229,0,0,0,1.576,3.805" transform="translate(-63.299 -47.74)" fill="#fedc72"/>
    <path id="Trazado_115001" data-name="Trazado 115001" d="M128.158,93.277a2.229,2.229,0,0,0,3.152,3.152l2.229-2.229a5.388,5.388,0,0,0,0-7.611.924.924,0,0,1,0-1.306l2.229-2.229a2.229,2.229,0,1,0-3.152-3.152l-2.229,2.229a5.388,5.388,0,0,0,0,7.611.924.924,0,0,1,0,1.306Z" transform="translate(-76.81 -47.74)" fill="#fedc72"/>
    <path id="Trazado_115002" data-name="Trazado 115002" d="M187.237,63.646a2.222,2.222,0,0,0,1.576-.653l2.229-2.229a5.387,5.387,0,0,0,0-7.611.925.925,0,0,1,0-1.306l2.229-2.229a2.229,2.229,0,0,0-3.152-3.152l-2.229,2.229a5.387,5.387,0,0,0,0,7.611.925.925,0,0,1,0,1.306l-2.229,2.229a2.229,2.229,0,0,0,1.576,3.805" transform="translate(-111.451 -27.597)" fill="#fedc72"/>
    <path id="Trazado_115003" data-name="Trazado 115003" d="M208.09,59.84a2.229,2.229,0,1,0,3.152,3.152l2.23-2.229a5.388,5.388,0,0,0,0-7.611.924.924,0,0,1,0-1.306l2.229-2.229a2.229,2.229,0,0,0-3.152-3.152l-2.229,2.229a5.388,5.388,0,0,0,0,7.611.925.925,0,0,1,0,1.306Z" transform="translate(-124.962 -27.597)" fill="#fedc72"/>
    <path id="Trazado_115004" data-name="Trazado 115004" d="M116.944,258.754a2.229,2.229,0,0,0,3.152,3.152l2.229-2.229a2.229,2.229,0,1,0-3.152-3.152Z" transform="translate(-70.055 -154.14)" fill="#fedc72"/>
    <path id="Trazado_115005" data-name="Trazado 115005" d="M357.82,200.455a2.229,2.229,0,0,0-3.152,0l-2.229,2.229a2.229,2.229,0,0,0,3.152,3.152l2.229-2.229a2.229,2.229,0,0,0,0-3.152" transform="translate(-211.92 -120.363)" fill="#fedc72"/>
    <path id="Trazado_115006" data-name="Trazado 115006" d="M143.177,277.151v-2.229a2.229,2.229,0,0,0-4.459,0v2.229a2.229,2.229,0,0,0,4.459,0" transform="translate(-83.565 -164.273)" fill="#fedc72"/>
    <path id="Trazado_115007" data-name="Trazado 115007" d="M355.591,228.49a2.229,2.229,0,0,0-3.152,3.152l2.229,2.229a2.229,2.229,0,1,0,3.152-3.152Z" transform="translate(-211.92 -137.251)" fill="#fedc72"/>
    <path id="Trazado_115008" data-name="Trazado 115008" d="M177.6,199.36a2.227,2.227,0,0,0,.916,1.439l7.748,5.425a2.23,2.23,0,0,0,2.558-3.653l-5.923-4.146,2.339-3.339a2.229,2.229,0,0,0-.405-3l-5.355-4.435-2.795,3.474,3.723,3.084-2.438,3.48a2.237,2.237,0,0,0-.369,1.667" transform="translate(-106.438 -113.046)" fill="#bbcff2"/>
    <path id="Trazado_115009" data-name="Trazado 115009" d="M40.021,330.857h7.994l3.806,3.805a2.229,2.229,0,1,0,3.152-3.152l-2.883-2.883,11.8-11.8a2.229,2.229,0,0,0,0-3.152l-7.341-7.341h-6.3l8.918,8.917L48.015,326.4H40.021a2.229,2.229,0,1,0,0,4.459" transform="translate(-22.766 -184.54)" fill="#fdb74d"/>
    <path id="Trazado_115010" data-name="Trazado 115010" d="M228.79,378.505a2.229,2.229,0,0,0-3.152-3.152l-2.882,2.883-2.229-2.229v-5.765a2.229,2.229,0,1,0-4.459,0V374.7h-2.23a2.229,2.229,0,1,0,0,4.459h3.536l3.152,3.152v5.765h4.459V382.31Z" transform="translate(-127.476 -221.695)" fill="#fdb74d"/>
    <path id="Trazado_115011" data-name="Trazado 115011" d="M309.175,277.884,307.4,267.817l3.088-4.408a2.23,2.23,0,1,0-3.653-2.558l-3.088,4.409-3.48.613a2.229,2.229,0,0,0,.775,4.391l2.194-.387,1.5,8.485h4.432a2.107,2.107,0,0,0,.012-.478" transform="translate(-179.774 -156.567)" fill="#bbcff2"/>
    <path id="Trazado_115012" data-name="Trazado 115012" d="M291.346,306.335l-6.688,6.688h-3.536a2.229,2.229,0,1,0,0,4.459h3.536l5.382,5.382v5.765a2.231,2.231,0,0,0,.653,1.576l6.687,6.688a2.229,2.229,0,0,0,3.153-3.152l-6.035-6.035v-3.536h4.459a2.229,2.229,0,1,0,0-4.459h-5.765l-4.459-4.459,8.918-8.917Z" transform="translate(-168.008 -184.54)" fill="#fdb74d"/>
  </g>
</svg>
