<svg id="Grupo_80632" data-name="Grupo 80632" xmlns="http://www.w3.org/2000/svg" xmlns:xlink="http://www.w3.org/1999/xlink" width="206.618" height="206.71" viewBox="0 0 206.618 206.71">
  <defs>
    <clipPath id="clip-path">
      <rect id="Rectángulo_34698" data-name="Rectángulo 34698" width="206.618" height="206.71" fill="none"/>
    </clipPath>
  </defs>
  <g id="Grupo_80632-2" data-name="Grupo 80632" clip-path="url(#clip-path)">
    <path id="Trazado_114891" data-name="Trazado 114891" d="M127.682,206.159a287.345,287.345,0,0,0,39.207-14.808c7.727-3.588,15.476-7.027,21.988-12.639a81.652,81.652,0,0,0,14.869-16.539c3.558-5.365,6.507-11.51,6.759-18.047.522-13.559-8.344-46.674-8.6-58.669-.212-9.73,1.807-31.642,6.892-44.3a13.2,13.2,0,0,0-3.15-14.386l-.183-.177a13.225,13.225,0,0,0-12.807-3.237c-6.056,1.74-16.183,2.53-29.345-4.129-13.3-6.519-30.247-16.949-34.158-18.513S120.546.19,115.331,3.58,90.3,20.007,74.915,23.136c-3.522,1.036-11.653,1.578-19.555-.074a13.427,13.427,0,0,0-11.574,2.919l-.8.693a13.3,13.3,0,0,0-3.81,14.468c2.636,7.466,6.061,18.242,6.533,25.017.52,9.612,3.886,20.777-6.918,66.5-.055.234-.111.473-.152.71-.892,5.083-14.387,45.579,81.628,72.837a13.3,13.3,0,0,0,7.414-.048" transform="translate(-21.137 0)" fill="#8c6df2"/>
    <path id="Trazado_114892" data-name="Trazado 114892" d="M218.509,387.327h-20l10-66.651h13.33Z" transform="translate(-111.867 -180.708)" fill="#fdb74d"/>
    <path id="Trazado_114893" data-name="Trazado 114893" d="M215.176,347.336c1.816,0,3.59-.072,5.341-.181l1.324-26.48h-13.33l-10,66.651h20l.5-10H216.25a6.665,6.665,0,0,1-6.591-7.654l3.361-22.409c.722.018,1.423.069,2.156.069" transform="translate(-111.867 -180.709)" fill="#fedc72"/>
    <path id="Trazado_114894" data-name="Trazado 114894" d="M225.049,212.689c0,25.767-17.9,33.325-39.991,33.325s-39.99-7.558-39.99-33.325S176.3,152.7,198.389,152.7s26.66,34.218,26.66,59.986" transform="translate(-81.749 -86.052)" fill="#72aa65"/>
    <path id="Trazado_114895" data-name="Trazado 114895" d="M291.536,188.938a3.335,3.335,0,0,1-3.11-2.135,30.172,30.172,0,0,0-3.025-6,3.332,3.332,0,0,1,5.523-3.73,36.86,36.86,0,0,1,3.721,7.331,3.336,3.336,0,0,1-3.109,4.533" transform="translate(-160.509 -98.958)" fill="#fff"/>
    <path id="Trazado_114896" data-name="Trazado 114896" d="M195.056,251.667c-22.086,0-39.991-7.558-39.991-33.325,0-12.242,7.056-26.385,16.825-37.866-14.577,12.286-26.822,31.73-26.822,47.864,0,25.767,17.9,33.325,39.991,33.325,15.787,0,29.4-3.905,35.9-15.518-6.98,3.985-16.013,5.521-25.9,5.521" transform="translate(-81.749 -101.702)" fill="#599149"/>
    <path id="Trazado_114897" data-name="Trazado 114897" d="M239.052,0h29.993l-10,20h10L239.052,79.981l3.333-46.656h-13.33Z" transform="translate(-129.078 0)" fill="#fdb74d"/>
    <path id="Trazado_114898" data-name="Trazado 114898" d="M249.883,58.32l2.078-29.086a5.513,5.513,0,0,0-5.5-5.906h0a5.513,5.513,0,0,1-5.28-7.1L246.05,0h-7l-10,33.325h13.33l-3.333,46.656Z" transform="translate(-129.077)" fill="#fedc72"/>
    <path id="Trazado_114899" data-name="Trazado 114899" d="M84.963,92.6a3.332,3.332,0,0,0,0,4.713l6.665,6.665a3.332,3.332,0,0,0,4.713-4.713L89.675,92.6a3.332,3.332,0,0,0-4.713,0" transform="translate(-47.328 -51.631)" fill="#f3f9ff"/>
    <path id="Trazado_114900" data-name="Trazado 114900" d="M381.763,19.989a3.332,3.332,0,0,0,4.713-4.713L379.81,8.612a3.332,3.332,0,0,0-4.712,4.713Z" transform="translate(-210.827 -4.303)" fill="#f3f9ff"/>
    <path id="Trazado_114901" data-name="Trazado 114901" d="M46.788,146.045a3.332,3.332,0,0,0,0,4.713l6.665,6.665a3.332,3.332,0,1,0,4.713-4.713L51.5,146.045a3.332,3.332,0,0,0-4.713,0" transform="translate(-25.816 -81.75)" fill="#f3f9ff"/>
    <path id="Trazado_114902" data-name="Trazado 114902" d="M179.917,9.022a3.332,3.332,0,1,0,4.713-4.713L181.3.977a3.332,3.332,0,0,0-4.712,4.713Z" transform="translate(-98.959 0)" fill="#f3f9ff"/>
    <path id="Trazado_114903" data-name="Trazado 114903" d="M355.525,138.819a3.332,3.332,0,1,0,4.713-4.713l-3.333-3.333a3.332,3.332,0,1,0-4.712,4.713Z" transform="translate(-197.919 -73.144)" fill="#f3f9ff"/>
    <path id="Trazado_114904" data-name="Trazado 114904" d="M357.881,208.511a3.332,3.332,0,0,0,2.356-5.689L356.9,199.49a3.332,3.332,0,1,0-4.712,4.713l3.333,3.333a3.321,3.321,0,0,0,2.356.976" transform="translate(-197.919 -111.867)" fill="#f3f9ff"/>
    <path id="Trazado_114905" data-name="Trazado 114905" d="M77.738,241l-3.333-3.332a3.332,3.332,0,0,0-4.713,4.712l3.332,3.333A3.332,3.332,0,0,0,77.738,241" transform="translate(-38.723 -133.38)" fill="#f3f9ff"/>
    <path id="Trazado_114906" data-name="Trazado 114906" d="M68.722,12.354a3.332,3.332,0,0,0,4.713-4.713L66.769.977a3.332,3.332,0,1,0-4.712,4.713Z" transform="translate(-34.42 0)" fill="#f3f9ff"/>
    <path id="Trazado_114907" data-name="Trazado 114907" d="M20.972,63.86a3.332,3.332,0,1,0,4.713-4.713l-20-19.995A3.332,3.332,0,0,0,.977,43.864Z" transform="translate(0 -21.513)" fill="#f3f9ff"/>
    <path id="Trazado_114908" data-name="Trazado 114908" d="M427.574,65.8a3.332,3.332,0,1,0,4.713-4.713l-6.666-6.665a3.332,3.332,0,0,0-4.712,4.713Z" transform="translate(-236.642 -30.118)" fill="#f3f9ff"/>
    <path id="Trazado_114909" data-name="Trazado 114909" d="M4.309,138.819a3.332,3.332,0,0,0,4.713-4.713l-3.333-3.333a3.332,3.332,0,1,0-4.712,4.713Z" transform="translate(0 -73.144)" fill="#f3f9ff"/>
    <path id="Trazado_114910" data-name="Trazado 114910" d="M443.815,130.774a3.332,3.332,0,0,0,0,4.713l3.332,3.333a3.332,3.332,0,0,0,4.713-4.713l-3.332-3.333a3.332,3.332,0,0,0-4.713,0" transform="translate(-249.55 -73.144)" fill="#f3f9ff"/>
    <path id="Trazado_114911" data-name="Trazado 114911" d="M369.826,84.4a3.332,3.332,0,1,0,4.713-4.713l-10-10a3.332,3.332,0,1,0-4.712,4.713Z" transform="translate(-202.222 -38.723)" fill="#f3f9ff"/>
    <path id="Trazado_114912" data-name="Trazado 114912" d="M159.374,57.195a3.332,3.332,0,0,0,4.713-4.713l-13.33-13.33a3.332,3.332,0,0,0-4.713,4.712Z" transform="translate(-81.749 -21.513)" fill="#f3f9ff"/>
    <path id="Trazado_114913" data-name="Trazado 114913" d="M19.019,205.185l-13.33-13.33a3.332,3.332,0,0,0-4.712,4.713l13.33,13.33a3.332,3.332,0,0,0,4.713-4.713" transform="translate(0 -107.565)" fill="#f3f9ff"/>
    <path id="Trazado_114914" data-name="Trazado 114914" d="M414.66,181.3a3.332,3.332,0,0,0,2.356-5.689l-6.665-6.665a3.332,3.332,0,0,0-4.713,4.713l6.665,6.665a3.321,3.321,0,0,0,2.357.976" transform="translate(-228.037 -94.657)" fill="#f3f9ff"/>
    <path id="Trazado_114915" data-name="Trazado 114915" d="M432.286,229.06l-6.665-6.665a3.332,3.332,0,1,0-4.713,4.712l6.665,6.665a3.332,3.332,0,1,0,4.713-4.713" transform="translate(-236.642 -124.775)" fill="#f3f9ff"/>
    <path id="Trazado_114916" data-name="Trazado 114916" d="M166.026,115.5a3.332,3.332,0,0,0-4.713,4.713l6.665,6.665a3.332,3.332,0,1,0,4.712-4.713Z" transform="translate(-90.354 -64.539)" fill="#f3f9ff"/>
    <path id="Trazado_114917" data-name="Trazado 114917" d="M5.688,336.923a3.332,3.332,0,0,0-4.713,4.713L7.641,348.3a3.332,3.332,0,1,0,4.712-4.713Z" transform="translate(0 -189.314)" fill="#f3f9ff"/>
    <path id="Trazado_114918" data-name="Trazado 114918" d="M43.864,283.477a3.332,3.332,0,1,0-4.713,4.713l13.33,13.33a3.332,3.332,0,0,0,4.713-4.712Z" transform="translate(-21.513 -159.196)" fill="#f3f9ff"/>
    <path id="Trazado_114919" data-name="Trazado 114919" d="M97.31,359.828A3.332,3.332,0,0,0,92.6,364.54l6.665,6.665a3.332,3.332,0,0,0,4.712-4.713Z" transform="translate(-51.631 -202.221)" fill="#f3f9ff"/>
    <path id="Trazado_114920" data-name="Trazado 114920" d="M119.246,198.52l-6.665-6.665a3.332,3.332,0,0,0-4.713,4.712l6.665,6.665a3.332,3.332,0,0,0,4.713-4.713" transform="translate(-60.236 -107.565)" fill="#f3f9ff"/>
    <path id="Trazado_114921" data-name="Trazado 114921" d="M417.986,291.112a3.332,3.332,0,0,0-4.713,4.713l6.665,6.665a3.332,3.332,0,1,0,4.712-4.713Z" transform="translate(-232.34 -163.498)" fill="#f3f9ff"/>
    <path id="Trazado_114922" data-name="Trazado 114922" d="M359.828,275.842a3.332,3.332,0,0,0,0,4.713l3.332,3.332a3.332,3.332,0,1,0,4.713-4.713l-3.332-3.333a3.332,3.332,0,0,0-4.713,0" transform="translate(-202.221 -154.893)" fill="#f3f9ff"/>
    <path id="Trazado_114923" data-name="Trazado 114923" d="M364.54,344.558a3.332,3.332,0,0,0-4.713,4.713l13.33,13.33a3.332,3.332,0,0,0,4.713-4.712Z" transform="translate(-202.221 -193.616)" fill="#f3f9ff"/>
    <path id="Trazado_114924" data-name="Trazado 114924" d="M448.526,352.193a3.332,3.332,0,0,0-4.713,4.713l6.665,6.665a3.332,3.332,0,0,0,4.712-4.713Z" transform="translate(-249.55 -197.919)" fill="#f3f9ff"/>
    <path id="Trazado_114925" data-name="Trazado 114925" d="M446.177,15.687a3.332,3.332,0,1,0,4.713-4.713l-10-10a3.332,3.332,0,1,0-4.712,4.713Z" transform="translate(-245.247 0)" fill="#f3f9ff"/>
  </g>
</svg>
