<svg id="Grupo_80639" data-name="Grupo 80639" xmlns="http://www.w3.org/2000/svg" xmlns:xlink="http://www.w3.org/1999/xlink" width="157.32" height="187.956" viewBox="0 0 157.32 187.956">
  <defs>
    <clipPath id="clip-path">
      <rect id="Rect치ngulo_34713" data-name="Rect치ngulo 34713" width="157.32" height="187.956" fill="none"/>
    </clipPath>
  </defs>
  <g id="Grupo_80638" data-name="Grupo 80638" clip-path="url(#clip-path)">
    <path id="Trazado_115013" data-name="Trazado 115013" d="M157.3,131.049c-.23,5.945-2.913,11.529-6.148,16.411a70.695,70.695,0,0,1-10.116,11.946c-1.107,1.064-2.246,2.092-3.405,3.092a45.863,45.863,0,0,1-4.778,3.584,116.231,116.231,0,0,1-15.212,7.91A261.472,261.472,0,0,1,81.99,187.453a12.063,12.063,0,0,1-6.743.044c-23.134-6.568-39.275-13.978-50.486-21.415A71.378,71.378,0,0,1,9.437,152.845c-.389-.46-.758-.917-1.115-1.369-11.37-14.458-8-26.741-7.354-29.9.024-.115.044-.214.06-.306.04-.218.087-.433.139-.647C10.989,79.051,7.929,68.9,7.457,60.159,7.028,54,3.913,44.2,1.516,37.411A12.091,12.091,0,0,1,4.98,24.254l.726-.631a12.2,12.2,0,0,1,10.525-2.651c7.183,1.5,14.577,1.008,17.78.067C48,18.194,66.02,6.339,70.758,3.256S79.771-.777,83.327.648s18.967,10.906,31.059,16.831c11.966,6.056,21.173,5.338,26.682,3.754a12.027,12.027,0,0,1,11.644,2.945c.056.052.111.107.167.159a12,12,0,0,1,2.861,13.081c-4.624,11.513-6.457,31.436-6.267,40.283.187,8.68,5.33,29.516,7.187,43.874a60.69,60.69,0,0,1,.639,9.473" transform="translate(0 0)" fill="#8c6df2"/>
    <path id="Trazado_115014" data-name="Trazado 115014" d="M324.962,156.063a2.133,2.133,0,0,1-1.508-3.641l1.767-1.768a10.6,10.6,0,0,1,7.543-3.124h.731a2.133,2.133,0,0,1,0,4.266h-.731a6.36,6.36,0,0,0-4.527,1.874l-1.766,1.767a2.126,2.126,0,0,1-1.508.625" transform="translate(-194.706 -88.979)" fill="#72aa65"/>
    <path id="Trazado_115015" data-name="Trazado 115015" d="M357.128,146.421s-2.865,4.266-6.4,4.266-6.4-4.266-6.4-4.266,2.865-4.266,6.4-4.266,6.4,4.266,6.4,4.266" transform="translate(-207.674 -85.737)" fill="#72aa65"/>
    <path id="Trazado_115016" data-name="Trazado 115016" d="M64.868,66.907V83.4A18.184,18.184,0,0,0,74.92,99.664a11.669,11.669,0,0,1,2.465,19.219,11.668,11.668,0,0,0-3.985,8.782v3.36a11.669,11.669,0,0,0,7.979,11.07l24.644,8.215a8.445,8.445,0,0,1,5.774,8.011v2.446l3.748-5.622a8.444,8.444,0,0,0-2.493-11.809,11.669,11.669,0,0,1,.406-19.935l34.777-20.193a29.643,29.643,0,0,0,14.758-25.635V66.907Z" transform="translate(-39.124 -40.353)" fill="#dbe6fd"/>
    <path id="Trazado_115017" data-name="Trazado 115017" d="M112.391,146.049l-24.644-8.215a11.669,11.669,0,0,1-7.979-11.07V123.4a11.669,11.669,0,0,1,3.985-8.782A11.669,11.669,0,0,0,81.287,95.4,18.184,18.184,0,0,1,71.235,79.14V66.906h-6.4V83.4A18.184,18.184,0,0,0,74.889,99.663a11.669,11.669,0,0,1,2.465,19.218,11.669,11.669,0,0,0-3.985,8.782v3.36a11.669,11.669,0,0,0,7.979,11.07l24.644,8.215a8.445,8.445,0,0,1,5.774,8.011v2.446l3.748-5.622a8.363,8.363,0,0,0,1.332-5.57,8.412,8.412,0,0,0-4.455-3.525" transform="translate(-39.105 -40.353)" fill="#bbcff2"/>
    <path id="Trazado_115018" data-name="Trazado 115018" d="M162.994,60.423c0,2.356-21.966,4.266-49.063,4.266s-49.062-1.91-49.062-4.266,21.966-4.266,49.062-4.266,49.063,1.91,49.063,4.266" transform="translate(-39.124 -33.87)" fill="#bbcff2"/>
    <path id="Trazado_115019" data-name="Trazado 115019" d="M226.56,243l-31.014,16.192,10.5,1.852,19.029-9.641,14.584,15.568,10.5,1.852Z" transform="translate(-117.939 -146.561)" fill="#5038a1"/>
    <path id="Trazado_115020" data-name="Trazado 115020" d="M237.772,292.652l-17.065,12.8v25.6h34.13v-25.6Z" transform="translate(-133.114 -176.506)" fill="#dbe6fd"/>
    <path id="Trazado_115021" data-name="Trazado 115021" d="M274.055,315.176a2.115,2.115,0,0,1-1.277-.427l-2.843-2.133a2.132,2.132,0,1,1,2.558-3.412l2.846,2.133a2.134,2.134,0,0,1-1.283,3.839" transform="translate(-162.289 -186.231)" fill="#fff"/>
    <path id="Trazado_115022" data-name="Trazado 115022" d="M227.106,319.742v-6.933l-6.4,4.8v25.6h34.131v-6.4H244.171a17.065,17.065,0,0,1-17.065-17.065" transform="translate(-133.113 -188.663)" fill="#bbcff2"/>
    <rect id="Rect치ngulo_34712" data-name="Rect치ngulo 34712" width="8.533" height="12.799" transform="translate(100.391 141.744)" fill="#5038a1"/>
    <path id="Trazado_115023" data-name="Trazado 115023" d="M252.956,363.814v10.155h8.533v-6.547a16.975,16.975,0,0,1-8.533-3.608" transform="translate(-152.564 -219.426)" fill="#12263f"/>
    <path id="Trazado_115024" data-name="Trazado 115024" d="M94.866,360.225H86.334l6.4-19.2H97Z" transform="translate(-52.07 -205.682)" fill="#fedc72"/>
    <path id="Trazado_115025" data-name="Trazado 115025" d="M148.615,360.225h-8.533l6.4-19.2h4.266Z" transform="translate(-84.487 -205.682)" fill="#fedc72"/>
    <path id="Trazado_115026" data-name="Trazado 115026" d="M107.666,309.717c0,7.069-4.775,8.533-10.666,8.533s-10.666-1.464-10.666-8.533,9.042-17.065,14.932-17.065,6.4,10,6.4,17.065" transform="translate(-52.07 -176.506)" fill="#72aa65"/>
    <path id="Trazado_115027" data-name="Trazado 115027" d="M97.4,341.026l-3.33,9.99a18.61,18.61,0,0,0,5.463.676c.321,0,.636-.006.95-.016l1.183-10.65Z" transform="translate(-56.735 -205.682)" fill="#fdb74d"/>
    <path id="Trazado_115028" data-name="Trazado 115028" d="M151.148,341.026l-3.33,9.99a18.61,18.61,0,0,0,5.463.676c.321,0,.636-.006.95-.016l1.183-10.65Z" transform="translate(-89.153 -205.682)" fill="#fdb74d"/>
    <path id="Trazado_115029" data-name="Trazado 115029" d="M103.4,314.783c-5.89,0-10.666-1.464-10.666-8.533,0-2.725,1.35-5.881,3.339-8.736-4.9,3.246-9.739,9.966-9.739,15.135,0,7.069,4.775,8.533,10.666,8.533,5.349,0,9.765-1.222,10.535-6.736a22.071,22.071,0,0,1-4.135.337" transform="translate(-52.07 -179.439)" fill="#599149"/>
    <path id="Trazado_115030" data-name="Trazado 115030" d="M161.415,309.717c0,7.069-4.775,8.533-10.666,8.533s-10.666-1.464-10.666-8.533,9.042-17.065,14.932-17.065,6.4,10,6.4,17.065" transform="translate(-84.488 -176.506)" fill="#72aa65"/>
    <path id="Trazado_115031" data-name="Trazado 115031" d="M157.148,314.783c-5.89,0-10.666-1.464-10.666-8.533,0-2.725,1.35-5.881,3.339-8.736-4.9,3.246-9.739,9.966-9.739,15.135,0,7.069,4.775,8.533,10.666,8.533,5.349,0,9.765-1.222,10.535-6.736a22.071,22.071,0,0,1-4.135.337" transform="translate(-84.488 -179.439)" fill="#599149"/>
    <path id="Trazado_115032" data-name="Trazado 115032" d="M93.225,106.863c5.648,1.8,20.136,2.961,36.912,2.961s31.264-1.162,36.914-2.961a2.133,2.133,0,1,0-1.3-4.064c-5.1,1.625-19.748,2.759-35.618,2.759S99.62,104.423,94.52,102.8a2.133,2.133,0,1,0-1.3,4.064" transform="translate(-55.33 -61.939)" fill="#bbcff2"/>
    <path id="Trazado_115033" data-name="Trazado 115033" d="M148.646,178.505a2.133,2.133,0,0,0,.012-4.266c-2.171-.014-4.3-.047-6.358-.1h-.054a2.133,2.133,0,0,0-.054,4.265c2.09.053,4.241.087,6.441.1Z" transform="translate(-84.505 -105.028)" fill="#bbcff2"/>
    <path id="Trazado_115034" data-name="Trazado 115034" d="M115.158,214.038c2.627.227,5.524.416,8.616.562l.1,0a2.133,2.133,0,0,0,.1-4.264c-3.035-.142-5.879-.328-8.449-.549a2.1,2.1,0,0,0-2.308,1.942,2.133,2.133,0,0,0,1.942,2.308" transform="translate(-68.279 -126.52)" fill="#bbcff2"/>
    <path id="Trazado_115035" data-name="Trazado 115035" d="M175.407,144.974a2.135,2.135,0,0,0,1.992-2.267,2.1,2.1,0,0,0-2.267-1.992,326.466,326.466,0,0,1-38.122,0,2.09,2.09,0,0,0-2.267,1.992,2.135,2.135,0,0,0,1.992,2.267c5.85.376,12.534.575,19.336.575s13.489-.2,19.336-.575" transform="translate(-81.264 -84.865)" fill="#bbcff2"/>
    <path id="Trazado_115036" data-name="Trazado 115036" d="M254.875,137.611a2.133,2.133,0,0,0,.244,4.252,1.948,1.948,0,0,0,.248-.015c2.171-.251,4.083-.534,5.685-.841a2.133,2.133,0,1,0-.8-4.189c-1.5.287-3.3.554-5.372.794" transform="translate(-152.583 -82.494)" fill="#bbcff2"/>
    <path id="Trazado_115037" data-name="Trazado 115037" d="M300.164,199.035H287.338a2.133,2.133,0,1,0,0,4.266h12.826a6.386,6.386,0,0,0,0-12.772H295.9a2.133,2.133,0,1,0,0,4.266h4.266a2.12,2.12,0,0,1,0,4.239" transform="translate(-172.014 -114.914)" fill="#dbe6fd"/>
    <path id="Trazado_115038" data-name="Trazado 115038" d="M214.165,220.534H209.9a2.133,2.133,0,1,0,0,4.266h4.266a6.386,6.386,0,0,0,0-12.772H201.339a2.133,2.133,0,1,0,0,4.266h12.826a2.12,2.12,0,1,1,0,4.239" transform="translate(-120.146 -127.88)" fill="#dbe6fd"/>
    <path id="Trazado_115039" data-name="Trazado 115039" d="M56.217,171.052h8.56a6.386,6.386,0,0,0,0-12.772,2.133,2.133,0,1,0,0,4.266,2.12,2.12,0,0,1,0,4.239h-8.56a2.133,2.133,0,0,0,0,4.266" transform="translate(-32.619 -95.463)" fill="#dbe6fd"/>
    <path id="Trazado_115040" data-name="Trazado 115040" d="M64.679,282.935a6.386,6.386,0,0,0-6.385-6.407H54.028a2.133,2.133,0,0,0,0,4.266h4.266a2.12,2.12,0,0,1,0,4.239H45.468a2.133,2.133,0,0,0,0,4.266H58.294a6.4,6.4,0,0,0,6.385-6.365" transform="translate(-26.136 -166.781)" fill="#dbe6fd"/>
    <path id="Trazado_115041" data-name="Trazado 115041" d="M45.468,205.545h4.266a2.133,2.133,0,0,0,0-4.266H45.468a2.133,2.133,0,1,0,0,4.266" transform="translate(-26.136 -121.397)" fill="#dbe6fd"/>
    <path id="Trazado_115042" data-name="Trazado 115042" d="M255.12,185.154a2.133,2.133,0,0,0,0,4.266h4.266a2.133,2.133,0,0,0,0-4.266Z" transform="translate(-152.583 -111.671)" fill="#dbe6fd"/>
    <path id="Trazado_115043" data-name="Trazado 115043" d="M334.6,238.9h-4.266a2.133,2.133,0,1,0,0,4.266H334.6a2.133,2.133,0,1,0,0-4.266" transform="translate(-197.948 -144.089)" fill="#dbe6fd"/>
    <path id="Trazado_115044" data-name="Trazado 115044" d="M67.7,242.061h-.731a2.133,2.133,0,1,1,0-4.266H67.7a6.361,6.361,0,0,0,4.527-1.874l1.766-1.768a2.133,2.133,0,1,1,3.016,3.017l-1.766,1.767a10.6,10.6,0,0,1-7.543,3.124" transform="translate(-39.104 -140.847)" fill="#72aa65"/>
    <path id="Trazado_115045" data-name="Trazado 115045" d="M43.335,243.169s2.865-4.266,6.4-4.266,6.4,4.266,6.4,4.266-2.865,4.266-6.4,4.266-6.4-4.266-6.4-4.266" transform="translate(-26.136 -144.089)" fill="#72aa65"/>
  </g>
</svg>
